<svg xmlns="http://www.w3.org/2000/svg" viewBox="0 0 193.594 163.741">
  <defs>
    <style>
      .cls-1, .cls-2 {
        fill: none;
        stroke: #a0a0a0;
        stroke-linecap: round;
      }

      .cls-1 {
        stroke-linejoin: round;
      }

      .cls-2 {
        stroke-miterlimit: 10;
      }

      .cls-3 {
        fill: #e8f4ff;
      }

      .cls-4 {
        fill: #a0a0a0;
      }
    </style>
  </defs>
  <g id="ic_es_services" transform="translate(-673 -338)">
    <path id="Path_64" data-name="Path 64" class="cls-1" d="M19.271,15.861l1.3-3.4-2.77-1.07a6.83,6.83,0,0,0-.06-2l2.72-1.21-1.48-3.35-2.72,1.24a7.21,7.21,0,0,0-1.47-1.39l1.07-2.81-3.4-1.3-1.07,2.77a6.83,6.83,0,0,0-2,.06L8.161.681l-3.33,1.48,1.24,2.66a.08.08,0,0,1,0,.09,7.07,7.07,0,0,0-1.42,1.44l-2.78-1.07-1.3,3.4,2.77,1.07a6.83,6.83,0,0,0,.06,2l-2.72,1.23,1.48,3.33,2.72-1.24a7.21,7.21,0,0,0,1.47,1.39l-1.07,2.81,3.4,1.3,1.07-2.77a6.83,6.83,0,0,0,2-.06l1.21,2.72,3.33-1.48-1.22-2.72a7.21,7.21,0,0,0,1.39-1.47Z" transform="translate(703.429 477.429)"/>
    <circle id="Ellipse_39" data-name="Ellipse 39" class="cls-1" cx="2.73" cy="2.73" r="2.73" transform="translate(711.27 485.27)"/>
    <line id="Line_7" data-name="Line 7" class="cls-2" y2="9.128" transform="translate(715.5 470.871)"/>
    <path id="Path_56" data-name="Path 56" class="cls-2" d="M6.9,12.1" transform="translate(704.122 478.748)"/>
    <path id="Path_57" data-name="Path 57" class="cls-2" d="M12.1,6.9" transform="translate(707.878 474.993)"/>
    <path id="Path_58" data-name="Path 58" class="cls-2" d="M6.9,6.9" transform="translate(704.122 474.993)"/>
    <path id="Path_59" data-name="Path 59" class="cls-2" d="M12,12" transform="translate(707.806 478.676)"/>
    <path id="Path_817" data-name="Path 817" class="cls-3" d="M-11587.5-4620.1c-1.362-.6-25.629,28.236-65.133,24.156s-60.777-37.2-60.777-37.2l7.149-3.215h2.817l4.115,1.882,3.656.771,4.246-1.582,5.118-1.071,5.572,2.653,13.668-3.237,17.958,10.765-.709,5.9-2.562,5.731,3.759,4.308,8.809-2.075,10.142-7.709,5.612,2.154,13.769,1.718S-11586.135-4619.5-11587.5-4620.1Z" transform="translate(12415 5096)"/>
    <path id="Path_805" data-name="Path 805" class="cls-4" d="M193.6,79.13V61.24c-.17-6.36-5-8-7.48-8H173.41a81.73,81.73,0,0,0-129.5-33.8A21.61,21.61,0,0,0,40,14.66a1.5,1.5,0,0,0-1.52-.25C27.37,18.86,25.36,31.33,25,36.11,6.44,32.25.45,42.42.19,42.87a1.5,1.5,0,0,0,0,1.44c4.82,9,12,12.26,18.56,13.09A82,82,0,0,0,39,139.75a81.18,81.18,0,0,0,57.82,24h.06a82.06,82.06,0,0,0,58-24.25v8.38a1.5,1.5,0,0,0,1.5,1.5h0c.34,0,8.42-.09,13.6-6,3.42-3.93,4.71-9.42,3.87-16.3C193.57,107.6,193.6,79.47,193.6,79.13Zm-92.08-76A78.73,78.73,0,0,1,170.2,53.2H56.2a22.12,22.12,0,0,1-13.9-4.54C49.53,37.18,48.1,28,45.36,22.14a78.28,78.28,0,0,1,56.16-19ZM3.26,43.7c1.64-2.07,7.79-8,22.81-4.27A1.5,1.5,0,0,0,27.93,38c0-.16,0-15.31,10.82-20.39A20.54,20.54,0,0,1,42.07,22a1.51,1.51,0,0,0,.34.68l.05.05c2.67,5.26,4.26,13.93-3.37,25.33A1.52,1.52,0,0,0,39.24,50c.24.25,6,6.24,16.92,6.24H186.08c.73,0,4.39.29,4.52,5.08V79.14c0,.41,0,40.8-34.79,56.61h-.07c-.18.09-18.28,8.67-41.41,1.83a39.31,39.31,0,0,0,5.81-7.47,1.5,1.5,0,1,0-2.58-1.54,35.88,35.88,0,0,1-7.11,8.56h0c-2.73,2.6-10.89,9.23-15.68,8.85a3.08,3.08,0,0,1-2.36-1.25,1,1,0,0,0-.24-.25c-.06,0-1.46-1.37.43-4.68a16.3,16.3,0,0,0,1.79-7.78,1.42,1.42,0,0,0,0-.68c-.18-4.27-1.91-9.77-7.65-15.54a1.556,1.556,0,0,0-2.2,2.2c4.15,4.16,5.95,8.06,6.58,11.31C81.44,124.44,44.44,102.92,34.78,54a1.51,1.51,0,0,0-2-1.11C32,53.24,12.91,60.42,3.26,43.7ZM21.81,57.62a35.68,35.68,0,0,0,10.37-1.36,110.44,110.44,0,0,0,39.58,64h-.48a8.44,8.44,0,0,0-5.08,1.59,5.83,5.83,0,0,1-6.87,0,8.39,8.39,0,0,0-5-1.59,8.5,8.5,0,0,0-5.09,1.59,5.42,5.42,0,0,1-3.43,1.12,5.52,5.52,0,0,1-3.47-1.13,8.89,8.89,0,0,0-10.13,0,5.69,5.69,0,0,1-2.68,1.08,79.19,79.19,0,0,1-7.67-65.24Zm75.05,103.1H96.8a78.23,78.23,0,0,1-55.7-23.09,79.15,79.15,0,0,1-9.9-12.06,9.32,9.32,0,0,0,2.57-1.26,5.52,5.52,0,0,1,3.47-1.12,5.45,5.45,0,0,1,3.44,1.12,8.86,8.86,0,0,0,10.13,0,5.48,5.48,0,0,1,3.47-1.12,5.42,5.42,0,0,1,3.43,1.12,8.81,8.81,0,0,0,10.1,0,5.5,5.5,0,0,1,3.47-1.12,5.4,5.4,0,0,1,3.43,1.12,8.44,8.44,0,0,0,4.78,1.58,91.888,91.888,0,0,0,11.9,6.87A12.59,12.59,0,0,1,90,138.34c-2.85,5-.61,7.69.09,8.37A6,6,0,0,0,94.48,149h.63c6.15,0,14.2-6.83,16.69-9.08a66.69,66.69,0,0,0,36.61,1.43,79,79,0,0,1-51.55,19.37Zm70.89-19.41c-3.07,3.54-7.55,4.59-9.86,4.91v-8.13a58.4,58.4,0,0,0,13.19-8.53C171.32,134.5,170.21,138.46,167.75,141.31Z" transform="translate(672.994 337.991)"/>
    <path id="Path_806" data-name="Path 806" class="cls-4" d="M128.25,76.77a6.51,6.51,0,1,0-6.51-6.51A6.51,6.51,0,0,0,128.25,76.77Zm0-10a1.456,1.456,0,1,1,0-.02Z" transform="translate(672.994 337.991)"/>
    <path id="Path_807" data-name="Path 807" class="cls-4" d="M137,33.76h8.87a1.5,1.5,0,0,0,0-3H137a1.5,1.5,0,1,0,0,3Z" transform="translate(672.994 337.991)"/>
    <path id="Path_808" data-name="Path 808" class="cls-4" d="M131.18,41.87h.38v.38a1.5,1.5,0,0,0,3,0v-.38h.34a1.5,1.5,0,1,0,0-3h-.34v-.34a1.5,1.5,0,1,0-3,0v.34h-.38a1.5,1.5,0,0,0,0,3Z" transform="translate(672.994 337.991)"/>
    <path id="Path_809" data-name="Path 809" class="cls-4" d="M136.12,37.59h3.44a1.5,1.5,0,1,0,0-3h-3.44a1.5,1.5,0,0,0,0,3Z" transform="translate(672.994 337.991)"/>
    <path id="Path_810" data-name="Path 810" class="cls-4" d="M124.86,40h1.49a1.5,1.5,0,1,0,0-3h-1.49a1.5,1.5,0,0,0,0,3Z" transform="translate(672.994 337.991)"/>
    <path id="Path_811" data-name="Path 811" class="cls-4" d="M33.47,108.13a1.5,1.5,0,1,0,2.12-2.12l-6.26-6.26a1.5,1.5,0,0,0-2.12,2.12Z" transform="translate(672.994 337.991)"/>
    <path id="Path_812" data-name="Path 812" class="cls-4" d="M40.7,106.5a1.53,1.53,0,0,0,1.06.44,1.49,1.49,0,0,0,1.06-.44l.25-.25.24.25a1.5,1.5,0,1,0,2.12-2.12l-.24-.25.24-.24a1.5,1.5,0,1,0-2.12-2.12l-.24.24-.25-.24a1.49,1.49,0,0,0-2.12,0,1.51,1.51,0,0,0,0,2.12l.25.24-.25.25a1.51,1.51,0,0,0,0,2.12Z" transform="translate(672.994 337.991)"/>
    <path id="Path_813" data-name="Path 813" class="cls-4" d="M36.8,106.05a1.51,1.51,0,0,0,2.13-2.13l-2.44-2.43a1.49,1.49,0,0,0-2.12,0,1.51,1.51,0,0,0,0,2.12Z" transform="translate(672.994 337.991)"/>
    <path id="Path_814" data-name="Path 814" class="cls-4" d="M45.39,111.3l1,1a1.49,1.49,0,0,0,1.06.44,1.51,1.51,0,0,0,1.06-.44,1.49,1.49,0,0,0,0-2.12l-1-1a1.51,1.51,0,1,0-2.13,2.13Z" transform="translate(672.994 337.991)"/>
    <path id="Path_815" data-name="Path 815" class="cls-4" d="M154.82,81.52c2.91-1.5,11.47-5,16.06-3.31a4.29,4.29,0,0,1,2.61,2.54,1.5,1.5,0,0,0,1.39.94,1.36,1.36,0,0,0,.56-.11,1.5,1.5,0,0,0,.83-2,7.22,7.22,0,0,0-4.35-4.23c-6.77-2.52-18,3.21-18.48,3.46a1.5,1.5,0,1,0,1.38,2.66Z" transform="translate(672.994 337.991)"/>
    <path id="Path_816" data-name="Path 816" class="cls-4" d="M114.9,69.86a1.47,1.47,0,0,0,1.06-.44l6.27-6.26A1.513,1.513,0,1,0,120.11,61l-6.27,6.27a1.49,1.49,0,0,0,0,2.12,1.47,1.47,0,0,0,1.06.47Z" transform="translate(672.994 337.991)"/>
  </g>
</svg>
