<?xml version="1.0" encoding="UTF-8"?>
<svg width="96px" height="107px" viewBox="0 0 96 107" version="1.1" xmlns="http://www.w3.org/2000/svg" xmlns:xlink="http://www.w3.org/1999/xlink">
    <!-- Generator: Sketch 53.1 (72631) - https://sketchapp.com -->
    <title>Group 38</title>
    <desc>Created with Sketch.</desc>
    <g id="Page-1" stroke="none" stroke-width="1" fill="none" fill-rule="evenodd">
        <g id="Group-38" transform="translate(2.100654, 2.000000)">
            <g id="Group-40" stroke="#FEFEFE" stroke-linecap="round" stroke-linejoin="bevel" stroke-width="4">
                <path d="M5.7374183,23.1875 L11.4748366,19.875 L22.9496732,13.25 L45.8993464,0 L45.8993464,0 L68.8490196,13.25 L80.3238562,19.875 L86.0612745,23.1875 M91.7986928,33.125 L91.7986928,39.75 L91.7986928,53 L91.7986928,79.5 L68.8490196,92.75 L57.374183,99.375 L51.6367647,102.6875 M40.1619281,102.6875 L34.4245098,99.375 L22.9496732,92.75 L0,79.5 L0,53 L0,39.75 L0,33.125" id="Shape"></path>
                <path d="M12.8344113,29.7532468 L17.5579735,27.0742115 L27.0050978,21.716141 L45.8993464,11 L45.8993464,11 L64.793595,21.716141 L74.2407193,27.0742115 L78.9642815,29.7532468 M83.8993464,37.6493506 L83.8993464,43.1014224 L83.8993464,54.0055659 L83.8993464,75.8138528 L64.7230941,86.7179963 L55.1349679,92.170068 L50.3409048,94.8961039 M41.457788,94.8961039 L36.6637249,92.170068 L27.0755987,86.7179963 L7.8993464,75.8138528 L7.8993464,54.0055659 L7.8993464,43.1014224 L7.8993464,37.6493506" id="Shape-Copy-3" stroke-opacity="0.4"></path>
            </g>
            <path d="M45.8993464,80 C30.9876582,80 18.8993464,67.9116882 18.8993464,53 C18.8993464,38.0883118 30.9876582,26 45.8993464,26 C60.8110346,26 72.8993464,38.0883118 72.8993464,53 C72.8993464,67.9116882 60.8110346,80 45.8993464,80 Z M43.7143464,59.036 L42.2583464,58.1 C41.6170099,59.0533381 40.8196845,59.7466645 39.8663464,60.18 C38.9130083,60.6133355 37.907685,60.83 36.8503464,60.83 C35.6716738,60.83 34.6100178,60.6133355 33.6653464,60.18 C32.720675,59.7466645 31.9190164,59.1616704 31.2603464,58.425 C30.6016764,57.6883297 30.0946815,56.8346715 29.7393464,55.864 C29.3840113,54.8933285 29.2063464,53.870672 29.2063464,52.796 C29.2063464,51.721328 29.379678,50.6986715 29.7263464,49.728 C30.0730148,48.7573285 30.5756764,47.9036704 31.2343464,47.167 C31.8930164,46.4303297 32.694675,45.8453355 33.6393464,45.412 C34.5840178,44.9786645 35.6543404,44.762 36.8503464,44.762 C37.4396827,44.762 37.9900105,44.8313326 38.5013464,44.97 C39.0126823,45.1086674 39.4850109,45.2906655 39.9183464,45.516 C40.3516819,45.7413345 40.7286781,46.0013319 41.0493464,46.296 C41.3700147,46.5906681 41.6256788,46.8853319 41.8163464,47.18 L43.3763464,46.036 C43.0643448,45.5853311 42.6743487,45.1823351 42.2063464,44.827 C41.7383441,44.4716649 41.2183493,44.1683346 40.6463464,43.917 C40.0743435,43.6656654 39.4633497,43.4706674 38.8133464,43.332 C38.1633432,43.1933326 37.5003498,43.124 36.8243464,43.124 C35.4550062,43.124 34.1853523,43.3666642 33.0153464,43.852 C31.8453406,44.3373358 30.8313507,45.0089957 29.9733464,45.867 C29.1153421,46.7250043 28.4436822,47.7433274 27.9583464,48.922 C27.4730106,50.1006726 27.2303464,51.391993 27.2303464,52.796 C27.2303464,54.200007 27.4686774,55.4913274 27.9453464,56.67 C28.4220155,57.8486726 29.0850088,58.8669957 29.9343464,59.725 C30.783684,60.5830043 31.7976738,61.2546642 32.9763464,61.74 C34.155019,62.2253358 35.4376728,62.468 36.8243464,62.468 C37.6563506,62.468 38.4233429,62.3770009 39.1253464,62.195 C39.8273499,62.0129991 40.4686768,61.7660016 41.0493464,61.454 C41.630016,61.1419984 42.1413442,60.7780021 42.5833464,60.362 C43.0253486,59.9459979 43.4023448,59.5040023 43.7143464,59.036 Z M36.5243464,56.625 C38.7334854,56.625 40.5243464,54.834139 40.5243464,52.625 C40.5243464,50.415861 38.7334854,48.625 36.5243464,48.625 C34.3152074,48.625 32.5243464,50.415861 32.5243464,52.625 C32.5243464,54.834139 34.3152074,56.625 36.5243464,56.625 Z M46.3573464,49.51 L46.3573464,59 L48.1253464,59 L48.1253464,52.76 C48.1253464,51.9453293 48.2250121,51.2476696 48.4243464,50.667 C48.6236807,50.0863304 48.8836781,49.6096685 49.2043464,49.237 C49.5250147,48.8643315 49.9020109,48.5913342 50.3353464,48.418 C50.7686819,48.2446658 51.2193441,48.158 51.6873464,48.158 C51.9300143,48.158 52.1726785,48.1753332 52.4153464,48.21 C52.6580143,48.2446668 52.8313459,48.2793332 52.9353464,48.314 L53.1693464,46.65 C52.9786788,46.5979997 52.7923473,46.5633334 52.6103464,46.546 C52.4283455,46.5286666 52.2246809,46.52 51.9993464,46.52 C51.1326754,46.52 50.3526832,46.7409978 49.6593464,47.183 C48.9660096,47.6250022 48.4460148,48.2013298 48.0993464,48.912 L48.0473464,48.912 C48.0473464,48.6519987 48.0386798,48.3226687 48.0213464,47.924 C48.004013,47.5253313 47.9780132,47.161335 47.9433464,46.832 L46.2533464,46.832 C46.2880132,47.2480021 46.314013,47.7159974 46.3313464,48.236 C46.3486798,48.7560026 46.3573464,49.180665 46.3573464,49.51 Z M64.5313464,51.98 L56.2373464,51.98 C56.2720132,51.4599974 56.4020119,50.9616691 56.6273464,50.485 C56.8526809,50.008331 57.1560112,49.5836685 57.5373464,49.211 C57.9186816,48.8383315 58.3606772,48.5436678 58.8633464,48.327 C59.3660156,48.1103323 59.9120101,48.002 60.5013464,48.002 C61.7666861,48.002 62.7416763,48.3789962 63.4263464,49.133 C64.1110165,49.8870038 64.4793461,50.8359943 64.5313464,51.98 Z M66.3253464,52.552 C66.3253464,51.7199958 66.199681,50.9400036 65.9483464,50.212 C65.6970118,49.4839964 65.3286822,48.8470027 64.8433464,48.301 C64.3580106,47.7549973 63.75135,47.3216683 63.0233464,47.001 C62.2953428,46.6803317 61.4546845,46.52 60.5013464,46.52 C59.6346754,46.52 58.8286835,46.6803317 58.0833464,47.001 C57.3380093,47.3216683 56.6880158,47.7679971 56.1333464,48.34 C55.578677,48.9120029 55.145348,49.5879961 54.8333464,50.368 C54.5213448,51.1480039 54.3653464,51.9973287 54.3653464,52.916 C54.3653464,53.8346713 54.5256781,54.6839961 54.8463464,55.464 C55.1670147,56.2440039 55.604677,56.9199971 56.1593464,57.492 C56.7140158,58.0640029 57.3770092,58.5103317 58.1483464,58.831 C58.9196836,59.1516683 59.7560086,59.312 60.6573464,59.312 C61.6626848,59.312 62.6030087,59.1126687 63.4783464,58.714 C64.3536841,58.3153313 65.1553428,57.6566713 65.8833464,56.738 L64.5573464,55.698 C64.210678,56.2526694 63.7036831,56.7423312 63.0363464,57.167 C62.3690097,57.5916688 61.5760177,57.804 60.6573464,57.804 C60.0333433,57.804 59.4526824,57.6870012 58.9153464,57.453 C58.3780104,57.2189988 57.9100151,56.9026687 57.5113464,56.504 C57.1126777,56.1053313 56.8006809,55.637336 56.5753464,55.1 C56.3500119,54.562664 56.2286798,53.9906697 56.2113464,53.384 L66.2993464,53.384 C66.3166798,53.2279992 66.3253464,53.0806674 66.3253464,52.942 C66.3253464,52.8033326 66.3253464,52.6733339 66.3253464,52.552 Z" id="Combined-Shape" fill="#FEFEFE"></path>
        </g>
    </g>
</svg>
