<?xml version="1.0" encoding="UTF-8"?>
<svg width="96px" height="107px" viewBox="0 0 96 107" version="1.1" xmlns="http://www.w3.org/2000/svg" xmlns:xlink="http://www.w3.org/1999/xlink">
    <!-- Generator: Sketch 53.1 (72631) - https://sketchapp.com -->
    <title>Group 48</title>
    <desc>Created with Sketch.</desc>
    <g id="Page-1" stroke="none" stroke-width="1" fill="none" fill-rule="evenodd">
        <g id="Group-48" transform="translate(2.100654, 2.000000)">
            <g id="Group-47" stroke="#FEFEFE" stroke-linecap="round" stroke-linejoin="bevel" stroke-width="3">
                <path d="M5.7374183,23.1875 L11.4748366,19.875 L22.9496732,13.25 L45.8993464,0 L45.8993464,0 L68.8490196,13.25 L80.3238562,19.875 L86.0612745,23.1875 M91.7986928,33.125 L91.7986928,39.75 L91.7986928,53 L91.7986928,79.5 L68.8490196,92.75 L57.374183,99.375 L51.6367647,102.6875 M40.1619281,102.6875 L34.4245098,99.375 L22.9496732,92.75 L0,79.5 L0,53 L0,39.75 L0,33.125" id="Shape"></path>
                <path d="M12.8344113,29.7532468 L17.5579735,27.0742115 L27.0050978,21.716141 L45.8993464,11 L45.8993464,11 L64.793595,21.716141 L74.2407193,27.0742115 L78.9642815,29.7532468 M83.8993464,37.6493506 L83.8993464,43.1014224 L83.8993464,54.0055659 L83.8993464,75.8138528 L64.7230941,86.7179963 L55.1349679,92.170068 L50.3409048,94.8961039 M41.457788,94.8961039 L36.6637249,92.170068 L27.0755987,86.7179963 L7.8993464,75.8138528 L7.8993464,54.0055659 L7.8993464,43.1014224 L7.8993464,37.6493506" id="Shape-Copy-3" stroke-opacity="0.4"></path>
            </g>
            <path d="M45.8993464,80 C30.9876582,80 18.8993464,67.9116882 18.8993464,53 C18.8993464,38.0883118 30.9876582,26 45.8993464,26 C60.8110346,26 72.8993464,38.0883118 72.8993464,53 C72.8993464,67.9116882 60.8110346,80 45.8993464,80 Z M26.6539326,45.125 L26.6540371,45.125 L26.6540371,49.0849652 C26.2812721,48.9840078 25.9734222,48.9501741 25.5683565,48.9501741 C22.9596288,48.9501741 21.2743464,50.6702567 21.2743464,53.3177763 C21.2743464,56.0667972 22.8623085,57.5 25.9086117,57.5 C26.9293773,57.5 27.8692342,57.3988251 29.1493464,57.1458877 L29.1493464,45.125 L26.6539326,45.125 Z M26.8993464,50.8888737 L26.8993464,55.1807313 C26.475092,55.2326268 26.2049875,55.25 25.8772789,55.25 C24.3536954,55.25 23.5243464,54.4682051 23.5243464,53.0432649 C23.5243464,51.5840266 24.392264,50.75 25.8965632,50.75 C26.2629648,50.75 26.5522291,50.7847464 26.8993464,50.8888737 Z M33.6493464,49.625 L30.8093038,49.625 L30.8093038,54.4829077 C30.8093038,56.624189 30.6800974,57.4394243 30.274275,58.1423947 C29.8870127,58.8299016 29.2784576,59.2770027 28.0243464,59.7883288 L30.6616563,60.875 C31.9156486,60.3316129 32.5243226,59.8364718 32.9854681,59.0534006 C33.4833768,58.2382684 33.6493464,57.2955108 33.6493464,55.3301009 L33.6493464,49.625 Z M30.2743464,45.125 L30.2743464,48.5 L33.6493464,48.5 L33.6493464,45.125 L30.2743464,45.125 Z M35.3051239,50.3366355 L35.3050169,50.3366355 L35.3050169,52.1777053 C36.300238,51.6980251 37.3616859,51.4505995 38.3069427,51.4505995 C38.9538043,51.4505995 39.1859726,51.605203 39.1859726,52.0382726 L39.1859726,52.5643639 C36.0513792,52.8120889 34.7743464,53.5855059 34.7743464,55.2567014 C34.7743464,56.8036353 35.7364006,57.5 37.8757729,57.5 C38.9371139,57.5 40.3798742,57.3918075 41.5243464,57.2369045 L41.5243464,52.3944896 C41.5243464,51.4040887 41.4580126,50.9399786 41.2425347,50.5842607 C40.8610083,49.9498771 39.9986688,49.625 38.6884691,49.625 C37.510937,49.625 36.4330126,49.8414849 35.3051239,50.3366355 Z M39.2743464,53 L39.2743464,55.1069669 C38.7742867,55.2089638 38.4244276,55.25 38.0410234,55.25 C37.3410903,55.25 37.0243464,54.963538 37.0243464,54.3499736 C37.0243464,53.5318878 37.5742938,53.2047854 39.2743464,53 Z M42.6493464,50.1752086 L42.6494583,50.1752086 L42.6494583,57.4998986 L45.3206359,57.4998986 L45.3206359,51.7469434 C45.8585418,51.6054873 46.1880889,51.5739512 46.5523251,51.5739512 C47.5062771,51.5739512 47.8531688,51.9199357 47.8531688,52.8472592 L47.8531688,57.5 L50.5243464,57.5 L50.5243464,52.7530566 C50.5243464,51.5424151 50.3510125,50.9765906 49.7959858,50.4581209 C49.2060462,49.9077095 48.2172931,49.625 46.8469592,49.625 C45.528659,49.625 44.2277034,49.7977894 42.6493464,50.1752086 Z M51.7442728,59.1846104 L51.7441547,59.1846104 L51.7441547,61.5088565 C52.7329966,61.852583 53.6848692,62 54.7834382,62 C56.9438429,62 58.4634847,61.3943866 59.3423634,60.1665806 C59.9465114,59.3319218 60.147894,58.3170045 60.147894,56.1562265 C60.147894,55.9270755 60.147894,55.7795529 60.147894,55.4685623 C60.1294684,55.1249413 60.1294684,54.7810036 60.1111609,54.4374883 L60.0929715,53.0623709 L60.0564746,51.9985611 L60.0564746,51.7366742 C60.6237713,51.785778 59.9331646,51.6723641 60.6838908,51.8034131 L61.6493464,49.9847777 C60.2944723,49.7394699 59.1775958,49.625 57.9690637,49.625 C53.849755,49.625 51.5243464,51.2454251 51.5243464,54.1101297 C51.5243464,56.4180078 53.0991469,57.8749648 55.5708975,57.8749648 C56.3030799,57.8749648 56.8524235,57.7766516 57.4016489,57.5310271 C57.4016489,57.5476062 57.4016489,57.5640797 57.4016489,57.5803421 C57.4016489,59.1846104 56.6143077,59.8555899 54.7652488,59.8555899 C53.7217205,59.8555899 52.7331148,59.6428069 51.7442728,59.1846104 Z M57.2309047,51.8760354 L57.2309981,51.8760354 L57.2309981,52.0244929 L57.2455721,52.6550983 L57.2599593,53.5330798 C57.2599593,53.7926611 57.2743464,54.0401169 57.2743464,54.2626835 L57.2743464,54.7820056 L57.2743464,54.9180185 C56.9848285,54.9922074 56.7385654,55.0416667 56.4344735,55.0416667 C55.4497948,55.0416667 54.8993464,54.4976947 54.8993464,53.5454446 C54.8993464,52.8775852 55.174664,52.4078021 55.7103516,52.1479815 C56.0580721,51.9625093 56.564892,51.8636706 56.9992156,51.8760354 L57.1585953,51.8760354 C57.1730758,51.8760354 57.2019436,51.8760354 57.2309047,51.8760354 Z M66.0870227,49.625 C63.2780144,49.625 61.5244618,51.1662489 61.5243464,53.6389028 C61.5243464,56.0195977 63.2241104,57.5 65.9796765,57.5 C68.7710247,57.5 70.5243464,55.9585542 70.5243464,53.5013581 C70.5243464,51.1055008 68.842358,49.625 66.0870227,49.625 Z M65.9680476,54.9166667 C65.2142633,54.9166667 64.7744275,54.3377423 64.7743464,53.3332571 C64.7743464,52.329153 65.2142633,51.75 65.9808552,51.75 C66.722075,51.75 67.1493464,52.3408916 67.1493464,53.3332571 C67.1493464,54.3376661 66.7095106,54.9166667 65.9680476,54.9166667 Z" id="Combined-Shape" fill="#FEFEFE"></path>
        </g>
    </g>
</svg>