<?xml version="1.0" encoding="UTF-8"?>
<svg width="96px" height="107px" viewBox="0 0 96 107" version="1.1" xmlns="http://www.w3.org/2000/svg" xmlns:xlink="http://www.w3.org/1999/xlink">
    <!-- Generator: Sketch 53.1 (72631) - https://sketchapp.com -->
    <title>Group 46</title>
    <desc>Created with Sketch.</desc>
    <g id="Page-1" stroke="none" stroke-width="1" fill="none" fill-rule="evenodd">
        <g id="Group-46" transform="translate(2.100654, 2.000000)">
            <g id="Group-39" stroke="#FEFEFE" stroke-linecap="round" stroke-linejoin="bevel" stroke-width="4">
                <path d="M5.7374183,23.1875 L11.4748366,19.875 L22.9496732,13.25 L45.8993464,0 L45.8993464,0 L68.8490196,13.25 L80.3238562,19.875 L86.0612745,23.1875 M91.7986928,33.125 L91.7986928,39.75 L91.7986928,53 L91.7986928,79.5 L68.8490196,92.75 L57.374183,99.375 L51.6367647,102.6875 M40.1619281,102.6875 L34.4245098,99.375 L22.9496732,92.75 L0,79.5 L0,53 L0,39.75 L0,33.125" id="Shape"></path>
                <path d="M12.8344113,29.7532468 L17.5579735,27.0742115 L27.0050978,21.716141 L45.8993464,11 L45.8993464,11 L64.793595,21.716141 L74.2407193,27.0742115 L78.9642815,29.7532468 M83.8993464,37.6493506 L83.8993464,43.1014224 L83.8993464,54.0055659 L83.8993464,75.8138528 L64.7230941,86.7179963 L55.1349679,92.170068 L50.3409048,94.8961039 M41.457788,94.8961039 L36.6637249,92.170068 L27.0755987,86.7179963 L7.8993464,75.8138528 L7.8993464,54.0055659 L7.8993464,43.1014224 L7.8993464,37.6493506" id="Shape-Copy-3" stroke-opacity="0.4"></path>
            </g>
            <path d="M45.8993464,80 C30.9876582,80 18.8993464,67.9116882 18.8993464,53 C18.8993464,38.0883118 30.9876582,26 45.8993464,26 C60.8110346,26 72.8993464,38.0883118 72.8993464,53 C72.8993464,67.9116882 60.8110346,80 45.8993464,80 Z M67.7339291,52.6120848 C67.4513004,52.3191393 63.6114482,47.7967927 62.9292409,47.0278107 C62.2470337,46.2588287 61.9254217,46.396147 61.5063515,46.4602288 C61.0872814,46.5243106 56.2241183,47.2841381 55.6588608,47.3756836 C55.0936034,47.467229 54.7427539,47.6777836 55.0838576,48.135511 C55.3957237,48.5383111 58.592352,52.8043303 59.2940509,53.7380942 L46.5757586,56.6034676 L36.4790913,40.7203274 C36.0795128,40.1619 35.9918004,39.9605 35.0756935,40.0062727 C34.1595867,40.0428909 27.1425978,40.5921638 26.6455611,40.6287819 C26.1485244,40.6654001 25.5930128,40.8759547 26.0997953,41.983655 C26.596832,43.0913553 34.568911,59.2216682 34.7930648,59.6885501 C35.0172186,60.1554321 35.5922219,60.9152595 36.9468906,60.6131595 C38.3307967,60.3019048 43.1354849,59.1209682 45.7571099,58.4801498 C47.141016,60.8420231 49.977049,65.620697 50.4935774,66.3072881 C51.1952762,67.2227428 51.6728213,67.0671155 52.7448613,66.7650155 C53.5830016,66.5269972 65.8432405,62.3891417 66.3987521,62.1694325 C66.9542637,61.958878 67.2953673,61.8032506 66.9152804,61.2814414 C66.6423975,60.8969504 63.406786,56.8323313 61.7110137,54.6993217 C62.870766,54.4063761 66.993247,53.3810668 67.4415546,53.2620577 C67.9483371,53.1430486 68.0165578,52.9050303 67.7339291,52.6120848 Z M44.714259,56.3158776 C44.5483102,56.3422521 36.976893,57.8807651 36.5723926,57.9598886 C36.1678923,58.0390122 36.1678923,57.9950546 36.1264051,57.8807651 C36.0849178,57.7664756 27.1133071,42.0912258 26.9888454,41.8978127 C26.8643838,41.7043996 26.8747556,41.5461526 26.9888454,41.5461526 C27.1029353,41.5461526 34.1453904,41.0098709 34.3943137,41.0010794 C34.643237,40.9922879 34.6121216,41.0362454 34.7054679,41.1681179 C34.7054679,41.1681179 44.6312846,55.6916809 44.8076053,55.9466344 C44.9839259,56.2103795 44.8802079,56.2895031 44.714259,56.3158776 Z M65.782746,61.6401 C65.9043328,61.8045352 66.0157874,61.9141586 65.6510269,62.0329174 C65.2761341,62.1516761 53.1174488,65.8514681 52.8844074,65.942821 C52.6513659,66.0341739 52.4588534,66.0615798 52.1548862,65.6687623 C51.8509191,65.2759449 47.8993464,59.1004897 47.8993464,59.1004897 L60.7875528,56.0767091 C61.1117844,55.9853562 61.2131068,55.9214091 61.4157515,56.2137384 C61.6183963,56.5060676 65.6611591,61.4756648 65.782746,61.6401 Z M65.5030892,52.0574575 C65.2223513,52.103812 60.7015034,53 60.7015034,53 L57.0035078,48.9517025 C56.897021,48.8358161 56.8098955,48.7199297 57.0712721,48.6890267 C57.3326488,48.6581237 61.5340364,48.0555145 61.7179681,48.0246115 C61.9115804,47.9937084 62.0761509,47.9473539 62.3084857,48.2023039 C62.5408205,48.457254 65.735424,51.686621 65.861272,51.8102332 C65.98712,51.9338453 65.7838271,52.0111029 65.5030892,52.0574575 Z" id="Combined-Shape" fill="#FEFEFE"></path>
        </g>
    </g>
</svg>
