<?xml version="1.0" encoding="UTF-8"?>
<svg width="96px" height="107px" viewBox="0 0 96 107" version="1.1" xmlns="http://www.w3.org/2000/svg" xmlns:xlink="http://www.w3.org/1999/xlink">
    <!-- Generator: Sketch 53.1 (72631) - https://sketchapp.com -->
    <title>Group 49</title>
    <desc>Created with Sketch.</desc>
    <g id="Page-1" stroke="none" stroke-width="1" fill="none" fill-rule="evenodd">
        <g id="Group-49" transform="translate(2.100654, 2.000000)">
            <g id="Group-40" stroke="#FEFEFE" stroke-linecap="round" stroke-linejoin="bevel" stroke-width="3">
                <path d="M5.7374183,23.1875 L11.4748366,19.875 L22.9496732,13.25 L45.8993464,0 L45.8993464,0 L68.8490196,13.25 L80.3238562,19.875 L86.0612745,23.1875 M91.7986928,33.125 L91.7986928,39.75 L91.7986928,53 L91.7986928,79.5 L68.8490196,92.75 L57.374183,99.375 L51.6367647,102.6875 M40.1619281,102.6875 L34.4245098,99.375 L22.9496732,92.75 L0,79.5 L0,53 L0,39.75 L0,33.125" id="Shape"></path>
                <path d="M12.8344113,29.7532468 L17.5579735,27.0742115 L27.0050978,21.716141 L45.8993464,11 L45.8993464,11 L64.793595,21.716141 L74.2407193,27.0742115 L78.9642815,29.7532468 M83.8993464,37.6493506 L83.8993464,43.1014224 L83.8993464,54.0055659 L83.8993464,75.8138528 L64.7230941,86.7179963 L55.1349679,92.170068 L50.3409048,94.8961039 M41.457788,94.8961039 L36.6637249,92.170068 L27.0755987,86.7179963 L7.8993464,75.8138528 L7.8993464,54.0055659 L7.8993464,43.1014224 L7.8993464,37.6493506" id="Shape-Copy-3" stroke-opacity="0.4"></path>
            </g>
            <path d="M45.8993464,80 C30.9876582,80 18.8993464,67.9116882 18.8993464,53 C18.8993464,38.0883118 30.9876582,26 45.8993464,26 C60.8110346,26 72.8993464,38.0883118 72.8993464,53 C72.8993464,67.9116882 60.8110346,80 45.8993464,80 Z M54.138145,43.0000515 C54.0957614,43.0000793 54.0541159,43.011044 54.0173096,43.0318658 C53.9429006,43.0750034 53.8970036,43.1538545 53.8965861,43.2392686 L53.8965861,49.3407471 C53.8965861,49.4006068 53.8685031,49.4542589 53.8161411,49.4842996 C53.763897,49.5144505 53.6993274,49.5144505 53.6470834,49.4842996 L52.6407931,48.9100897 C52.4913939,48.8244455 52.3071863,48.8244455 52.1577871,48.9100897 L48.1407934,51.20704 C47.9906443,51.2929497 47.8993464,51.4580074 47.8993464,51.6298269 L47.8993464,56.2238383 C47.8993464,56.3954361 47.9907561,56.5526233 48.1407934,56.638533 L52.1577871,58.9355941 C52.3071238,59.0214686 52.4914564,59.0214686 52.6407931,58.9355941 L56.6577868,56.638533 C56.8074855,56.5531677 56.8996375,56.3949664 56.8993457,56.2238383 L56.8993457,44.7706797 C56.8991235,44.5955095 56.8038106,44.434 56.649843,44.3478927 L54.2588685,43.0238845 C54.2213872,43.0031553 54.1797661,42.9994972 54.138145,43.0000515 Z M28.3752322,49 C28.2987023,49.0029364 28.2266477,49.0159871 28.1579498,49.0547041 L24.1407982,51.3083374 C23.9910046,51.391984 23.8988473,51.5472735 23.8993484,51.7151921 L23.9074042,57.7640694 C23.9074042,57.8481375 23.9520467,57.9263327 24.0281291,57.9674423 C24.1024572,58.0108526 24.1953627,58.0108526 24.2696908,57.9674423 L26.6525249,56.6372527 C26.803459,56.5500307 26.9020305,56.3984254 26.9020305,56.2302893 L26.9020305,53.4054715 C26.9020305,53.2369004 26.9932175,53.0822499 27.1435922,52.9985081 L28.1578379,52.4273237 C28.2311708,52.3858777 28.3145727,52.3642494 28.3993996,52.3646805 C28.4821951,52.3646805 28.5672284,52.3848003 28.6408494,52.4273237 L29.655207,52.9985081 C29.8051469,53.0820795 29.8973806,53.2374673 29.8967686,53.4054715 L29.8967686,56.2301805 C29.8967686,56.3983167 29.9963471,56.5510095 30.1462742,56.6371439 L32.5291084,57.9674423 C32.6034364,58.0108526 32.6963419,58.0108526 32.77067,57.9674423 C32.8453899,57.9254063 32.8914301,57.8478776 32.8915068,57.7639606 L32.8993388,51.7151921 C32.9003098,51.5471522 32.8080259,51.3916493 32.657889,51.3083374 L28.6408494,49.0547041 C28.5729346,49.0159871 28.5006563,49.0030452 28.4235669,49 L28.3752322,49 Z M63.4114067,49 C63.3272683,49 63.2448128,49.0208545 63.1693126,49.0632219 L59.1415536,51.3376744 C58.9914196,51.4221661 58.8990082,51.5788316 58.8993473,51.7482876 L58.8993473,56.2970828 C58.8993473,56.4681991 58.9978453,56.6231806 59.1495187,56.7078058 L63.1450808,58.9348418 C63.2926033,59.017162 63.4727716,59.0234184 63.6213038,58.942525 L66.0428056,57.6237553 C66.119652,57.5820464 66.1715934,57.5041166 66.1719299,57.4185036 C66.172772,57.3336015 66.1264133,57.2549521 66.0508829,57.2131421 L61.998892,54.9386896 C61.9230553,54.8963221 61.8697677,54.8105994 61.8697677,54.7254254 L61.8697677,53.3040298 C61.8697677,53.2189656 61.9236163,53.1410358 61.998892,53.0986683 L63.2580505,52.3878607 C63.3329645,52.3454389 63.4253428,52.3454389 63.5002568,52.3878607 L64.7593031,53.0986683 C64.8343913,53.1408737 64.8806236,53.2191942 64.8804623,53.30392 L64.8804623,54.4253408 C64.8802313,54.5100561 64.9264301,54.5883926 65.0015094,54.6305925 C65.0770095,54.6732893 65.1683277,54.673399 65.2436035,54.6305925 L67.6571401,53.2567231 C67.8069863,53.1718961 67.8992849,53.0153801 67.8993464,52.8460001 L67.8993464,51.7483974 C67.8993464,51.5788177 67.8073551,51.4228484 67.6571401,51.3376744 L63.653613,49.0632219 C63.5800149,49.0215695 63.4964301,48.9997897 63.4114067,49.0001098 L63.4114067,49 Z M51.8938318,52 C51.9218518,52 51.9546411,52.0060034 51.9796803,52.0186628 L53.813498,52.9482798 C53.8632781,52.9734681 53.8993464,53.0200599 53.8993464,53.0703059 L53.8993464,54.92954 C53.8993464,54.980047 53.8635762,55.0265083 53.813498,55.0516966 L51.9796803,55.9813136 C51.9298504,56.0062288 51.8686934,56.0062288 51.8188635,55.9813136 L49.9851948,55.0516966 C49.9352656,55.0263778 49.8993464,54.980047 49.8993464,54.92954 L49.8993464,53.0703059 C49.8993464,53.0199294 49.9354147,52.9737291 49.9851948,52.9482798 L51.8188635,52.0187933 C51.8414035,52.0065172 51.8674368,52.0000493 51.8939809,52.0001305 L51.8939809,52 L51.8938318,52 Z M40.3993459,49.0000013 C40.3156562,49.0000013 40.2328616,49.0207603 40.1578989,49.0629339 L36.1409053,51.3191112 C35.9906443,51.4035677 35.8993464,51.5665806 35.8993464,51.7357119 L35.8993464,56.2636906 C35.8993464,56.4330404 35.9907561,56.5877497 36.1409053,56.6725339 L40.1578989,58.9364686 C40.3072167,59.0211771 40.491587,59.0211771 40.6409048,58.9364686 L44.6578984,56.6725339 C44.8075887,56.5883483 44.8997003,56.4323754 44.8993454,56.2636906 L44.8993454,51.7357119 C44.8993454,51.566362 44.8080475,51.4035677 44.6578984,51.3191112 L40.6409048,49.0629339 C40.5674773,49.0215213 40.4841398,48.9998097 40.3993459,49.0000013 Z" id="Combined-Shape" fill="#FEFEFE"></path>
        </g>
    </g>
</svg>