<svg xmlns="http://www.w3.org/2000/svg" xmlns:xlink="http://www.w3.org/1999/xlink" width="104.559" height="116.218" viewBox="0 0 104.559 116.218">
  <defs>
    <style>
      .cls-1 {
        fill: #0045ff;
      }

      .cls-2, .cls-3 {
        fill: none;
        stroke-linecap: round;
        stroke-linejoin: bevel;
        stroke-width: 4px;
      }

      .cls-2 {
        stroke: #0045ff;
      }

      .cls-3 {
        stroke: rgba(0,69,255,0.4);
      }

      .cls-4 {
        clip-path: url(#clip-path);
      }
    </style>
    <clipPath id="clip-path">
      <path id="Path_1936" data-name="Path 1936" class="cls-1" d="M38.019-21.974C34.8-24.168,25.032-42.493,24.511-43.823a5.847,5.847,0,0,1-.237-4.1c.48-1.186,2.8-5.818,5.918-11.758,6.088-11.6,6.708-11.8,8.463-12.992s9.453-.984,13.877-1.032,11.92-.681,13.915.063c2.281.978,2.465,1.222,9.339,12.372,3.519,5.709,6.427,10.462,6.716,11.318a6.587,6.587,0,0,1,.133,3.841c-.455,1.3-2.8,5.818-5.918,11.758-6.088,11.6-5.825,11.7-8.463,12.992s-8.37.745-15.306.962c-5.706-.1-11.711.615-14.93-1.578Zm19.162-10.2a18.07,18.07,0,0,0,6.128-3.06,16.46,16.46,0,0,0,4.926-19.093,16.777,16.777,0,0,0-4.587-6.32c-.9-.734-1.27-.908-1.937-.908A2,2,0,0,0,59.674-59.5c0,.777.131.972,1.727,2.57a12.077,12.077,0,0,1,3.863,8.883,12.139,12.139,0,0,1-9.245,11.758,12.97,12.97,0,0,1-6.756-.4,12.053,12.053,0,0,1-7.819-11.477,11.358,11.358,0,0,1,3.676-8.586,10.691,10.691,0,0,0,1.838-2.234,2.067,2.067,0,0,0-1.971-2.575c-.689,0-1.036.174-2.078,1.044a16.942,16.942,0,0,0-5.217,8.436,18.258,18.258,0,0,0,0,8.054A16.429,16.429,0,0,0,51.078-31.848a19.021,19.021,0,0,0,6.1-.325ZM54.364-46.084c1.054-.741,1.081-.965,1.083-9.141,0-8.351-.029-8.591-1.224-9.3A2.318,2.318,0,0,0,51-63.639c-.465.9-.473,15.73-.009,16.63a2.133,2.133,0,0,0,2.072,1.249,2.706,2.706,0,0,0,1.3-.324Z" transform="translate(-24 74)"/>
    </clipPath>
  </defs>
  <g id="Group_3360" data-name="Group 3360" transform="translate(-0.101 106.732)">
    <g id="Group_3357" data-name="Group 3357" transform="translate(2.101 -105)">
      <path id="Path_1933" data-name="Path 1933" class="cls-2" d="M6.285,25.4l6.285-3.629,12.57-7.257L50.279,0h0l25.14,14.514,12.57,7.257L94.274,25.4m6.285,10.886v50.8L75.419,101.6l-12.57,7.257-6.285,3.629m-12.57,0-6.285-3.629L25.14,101.6,0,87.086v-50.8"/>
    </g>
    <g id="Group_3358" data-name="Group 3358" transform="translate(10.754 -93.95)">
      <path id="Path_1934" data-name="Path 1934" class="cls-3" d="M5.406,20.543l5.174-2.935,10.349-5.869L41.626,0h0l20.7,11.739,10.349,5.869,5.174,2.935m5.406,8.65V71L62.246,82.943l-10.5,5.972L46.492,91.9m-9.731,0-5.252-2.986-10.5-5.972L0,71V29.192"/>
    </g>
    <g id="Group_3359" data-name="Group 3359" class="cls-4" transform="translate(23.31 -72.821)">
      <path id="Path_1935" data-name="Path 1935" class="cls-1" d="M19-79H90.135v65.9H19Z" transform="translate(-25.132 72.868)"/>
    </g>
  </g>
</svg>
