<svg xmlns="http://www.w3.org/2000/svg" width="12.811" height="15.999" viewBox="0 0 12.811 15.999">
  <defs>
    <style>
      .cls-1 {
        fill: #296bdd;
      }
    </style>
  </defs>
  <g id="copy" transform="translate(-48.65 0)">
    <g id="Group_2132" data-name="Group 2132" transform="translate(48.65)">
      <path id="Path_1272" data-name="Path 1272" class="cls-1" d="M57.352,85.4H49.915a1.265,1.265,0,0,0-1.265,1.265V97.336A1.265,1.265,0,0,0,49.915,98.6h7.437a1.265,1.265,0,0,0,1.265-1.265V86.665A1.27,1.27,0,0,0,57.352,85.4Zm.377,11.933a.38.38,0,0,1-.38.38H49.911a.38.38,0,0,1-.38-.38V86.665a.38.38,0,0,1,.38-.38h7.437a.38.38,0,0,1,.38.38Z" transform="translate(-48.65 -82.602)"/>
      <path id="Path_1273" data-name="Path 1273" class="cls-1" d="M144.152,0h-7.437a1.265,1.265,0,0,0-1.265,1.265.442.442,0,1,0,.885,0,.38.38,0,0,1,.38-.38h7.437a.38.38,0,0,1,.38.38V11.936a.38.38,0,0,1-.38.38.442.442,0,0,0,0,.885,1.265,1.265,0,0,0,1.265-1.265V1.265A1.265,1.265,0,0,0,144.152,0Z" transform="translate(-132.606)"/>
    </g>
  </g>
</svg>
