<svg xmlns="http://www.w3.org/2000/svg" viewBox="0 0 15.074 14.998">
  <defs>
    <style>
      .cls-1 {
        fill: #4f4f4f;
      }
    </style>
  </defs>
  <g id="edit" transform="translate(0.001 -0.261)">
    <path id="Path_1085" data-name="Path 1085" class="cls-1" d="M13.913,47.123a.375.375,0,0,0-.375.375v3.333a1.127,1.127,0,0,1-1.126,1.126H1.877A1.127,1.127,0,0,1,.751,50.832V41.049a1.128,1.128,0,0,1,1.126-1.126H5.21a.375.375,0,1,0,0-.751H1.877A1.879,1.879,0,0,0,0,41.049v9.783a1.879,1.879,0,0,0,1.877,1.877H12.411a1.879,1.879,0,0,0,1.877-1.877V47.5A.375.375,0,0,0,13.913,47.123Zm0,0" transform="translate(0 -37.45)"/>
    <path id="Path_1086" data-name="Path 1086" class="cls-1" d="M118.268.756a1.689,1.689,0,0,0-2.389,0l-6.7,6.7a.375.375,0,0,0-.1.165L108.2,10.8a.375.375,0,0,0,.462.462l3.18-.881a.375.375,0,0,0,.165-.1l6.7-6.7a1.691,1.691,0,0,0,0-2.389ZM110,7.7l5.482-5.482,1.768,1.768-5.482,5.482Zm-.353.709,1.412,1.413-1.954.541Zm8.532-5.352-.4.4-1.768-1.768.4-.4a.938.938,0,0,1,1.327,0l.441.441A.94.94,0,0,1,118.177,3.054Zm0,0" transform="translate(-104.128 0)"/>
  </g>
</svg>
