<svg xmlns="http://www.w3.org/2000/svg" width="297.763" height="232.242" viewBox="0 0 297.763 232.242">
  <defs>
    <style>
      .cls-1 {
        fill: #ff646f;
      }

      .cls-2 {
        fill: #fe4455;
      }

      .cls-3 {
        fill: #f1edf0;
      }

      .cls-4 {
        fill: #c9c6ca;
      }

      .cls-5 {
        opacity: 0.1;
      }

      .cls-6 {
        opacity: 0.2;
      }
    </style>
  </defs>
  <g id="Group_2099" data-name="Group 2099" transform="translate(-806 -242.957)">
    <g id="exit_4_" data-name="exit (4)" transform="translate(895.687 301.285)">
      <path id="Path_1240" data-name="Path 1240" class="cls-1" d="M241.358,15.328a7.32,7.32,0,1,1-7.319-7.32A7.318,7.318,0,0,1,241.358,15.328Zm0,0" transform="translate(-170.041 -5.631)"/>
      <path id="Path_1241" data-name="Path 1241" class="cls-2" d="M234.229,15.328a7.314,7.314,0,0,1,3.564-6.283,7.319,7.319,0,1,0,0,12.566A7.314,7.314,0,0,1,234.229,15.328Zm0,0" transform="translate(-170.041 -5.631)"/>
      <path id="Path_1242" data-name="Path 1242" class="cls-3" d="M125.093,212.109H14.165a6.657,6.657,0,0,1-6.657-6.656V160.793a6.657,6.657,0,0,1,6.657-6.656H125.093a6.656,6.656,0,0,1,6.656,6.656v44.66A6.655,6.655,0,0,1,125.093,212.109Zm0,0" transform="translate(-5.631 -115.229)"/>
      <path id="Path_1243" data-name="Path 1243" class="cls-4" d="M15.018,205.453V160.793a6.657,6.657,0,0,1,6.656-6.656h-7.51a6.657,6.657,0,0,0-6.657,6.656v44.661a6.657,6.657,0,0,0,6.657,6.656h7.51A6.656,6.656,0,0,1,15.018,205.453Zm0,0" transform="translate(-5.631 -115.229)"/>
      <path id="Path_1244" data-name="Path 1244" d="M186.427,37.031h-25.5L138.778,14.537a9.2,9.2,0,1,0-15.5.207L100.992,37.031H91.163a1.877,1.877,0,1,0,0,3.755h95.264a4.784,4.784,0,0,1,4.779,4.778V90.225A4.784,4.784,0,0,1,186.427,95h-5.9a1.877,1.877,0,1,0,0,3.755h5.9a8.544,8.544,0,0,0,8.534-8.533V45.564A8.543,8.543,0,0,0,186.427,37.031ZM130.963,4.255A5.442,5.442,0,1,1,125.52,9.7,5.448,5.448,0,0,1,130.963,4.255Zm-5.024,13.139a9.166,9.166,0,0,0,10.251-.136l19.464,19.773H106.3Zm0,0" transform="translate(-66.965)"/>
      <path id="Path_1245" data-name="Path 1245" d="M106.05,204.6H8.534a4.784,4.784,0,0,1-4.779-4.778V155.162a4.784,4.784,0,0,1,4.779-4.778h7.3a1.877,1.877,0,1,0,0-3.755h-7.3A8.543,8.543,0,0,0,0,155.162v44.661a8.543,8.543,0,0,0,8.534,8.533H106.05a1.877,1.877,0,0,0,0-3.755Zm0,0" transform="translate(0 -109.598)"/>
      <path id="Path_1246" data-name="Path 1246" d="M143.758,236.615c0-1.251.625-2.178,1.952-2.178h6.208a1.666,1.666,0,0,1,1.777,1.727,1.694,1.694,0,0,1-1.777,1.727h-4.405v3.654h4.1a1.7,1.7,0,0,1,1.828,1.727A1.724,1.724,0,0,1,151.617,245h-4.1v3.8h4.631a1.667,1.667,0,0,1,1.777,1.727,1.694,1.694,0,0,1-1.777,1.727h-6.459a1.826,1.826,0,0,1-1.927-1.877Zm0,0" transform="translate(-107.819 -175.455)"/>
      <path id="Path_1247" data-name="Path 1247" d="M207.413,242.275l-4.056-5.507a1.8,1.8,0,0,1,1.5-2.929,2.152,2.152,0,0,1,1.628.926l3.1,4.406,3.1-4.406a2.149,2.149,0,0,1,1.627-.926,1.8,1.8,0,0,1,1.5,2.929l-4.056,5.507,4.957,6.659a2.274,2.274,0,0,1,.426,1.276,1.751,1.751,0,0,1-1.9,1.752,1.815,1.815,0,0,1-1.552-.825l-4.105-5.708-4.105,5.708a1.815,1.815,0,0,1-1.552.825,1.751,1.751,0,0,1-1.9-1.752,2.273,2.273,0,0,1,.425-1.276Zm0,0" transform="translate(-151.525 -175.007)"/>
      <path id="Path_1248" data-name="Path 1248" d="M283.434,235.792a1.879,1.879,0,1,1,3.755,0V250.01a1.879,1.879,0,1,1-3.755,0Zm0,0" transform="translate(-212.577 -175.007)"/>
      <path id="Path_1249" data-name="Path 1249" d="M322.208,237.892h-2.728a1.616,1.616,0,0,1-1.7-1.727,1.677,1.677,0,0,1,1.7-1.727h9.213a1.677,1.677,0,0,1,1.7,1.727,1.617,1.617,0,0,1-1.7,1.727h-2.729v12.566a1.879,1.879,0,1,1-3.755,0Zm0,0" transform="translate(-238.336 -175.455)"/>
    </g>
    <g id="logout" class="cls-5" transform="translate(831.027 314.592)">
      <g id="Group_2091" data-name="Group 2091" transform="translate(17.219)">
        <path id="Path_1189" data-name="Path 1189" d="M29.993,26.968H22.531A3.678,3.678,0,0,1,18.858,23.3V5.312a3.678,3.678,0,0,1,3.673-3.673h7.583a.82.82,0,0,0,0-1.639H22.531a5.318,5.318,0,0,0-5.312,5.312V23.3a5.318,5.318,0,0,0,5.312,5.312h7.462a.82.82,0,1,0,0-1.639Z" transform="translate(-17.219)"/>
        <path id="Path_1190" data-name="Path 1190" d="M140.524,141.775l-5.209-5.209a.82.82,0,0,0-1.16,1.16l3.813,3.813H121.339a.82.82,0,0,0,0,1.639h16.629l-3.813,3.813a.823.823,0,0,0,.577,1.4.8.8,0,0,0,.577-.243l5.209-5.209A.819.819,0,0,0,140.524,141.775Z" transform="translate(-114.247 -128.048)"/>
      </g>
    </g>
    <g id="logout-2" data-name="logout" class="cls-6" transform="translate(788.781 409.799)">
      <g id="Group_2091-2" data-name="Group 2091" transform="translate(17.219)">
        <path id="Path_1189-2" data-name="Path 1189" d="M27.221,21.117H21.379A2.88,2.88,0,0,1,18.5,18.241V4.16a2.88,2.88,0,0,1,2.876-2.876h5.938a.642.642,0,0,0,0-1.284H21.379a4.164,4.164,0,0,0-4.16,4.16V18.241a4.164,4.164,0,0,0,4.16,4.16h5.843a.642.642,0,0,0,0-1.284Z" transform="translate(-17.219)"/>
        <path id="Path_1190-2" data-name="Path 1190" d="M136.183,140.593l-4.079-4.079a.642.642,0,0,0-.908.908l2.985,2.985H121.161a.642.642,0,0,0,0,1.284h13.021l-2.985,2.985a.644.644,0,0,0,.452,1.1.626.626,0,0,0,.452-.19l4.079-4.079A.641.641,0,0,0,136.183,140.593Z" transform="translate(-115.608 -129.844)"/>
      </g>
    </g>
    <g id="logout-3" data-name="logout" class="cls-5" transform="translate(1067.935 265.123)">
      <g id="Group_2091-3" data-name="Group 2091" transform="translate(17.219)">
        <path id="Path_1189-3" data-name="Path 1189" d="M26.183,18.926H20.947a2.581,2.581,0,0,1-2.578-2.578V3.728A2.581,2.581,0,0,1,20.947,1.15h5.322a.575.575,0,0,0,0-1.15H20.947a3.732,3.732,0,0,0-3.728,3.728v12.62a3.732,3.732,0,0,0,3.728,3.728h5.236a.575.575,0,1,0,0-1.15Z" transform="translate(-17.219)"/>
        <path id="Path_1190-3" data-name="Path 1190" d="M134.558,140.15l-3.656-3.656a.575.575,0,0,0-.814.814l2.676,2.676h-11.67a.575.575,0,0,0,0,1.15h11.67l-2.676,2.676a.577.577,0,0,0,.4.984.561.561,0,0,0,.4-.17l3.656-3.656A.575.575,0,0,0,134.558,140.15Z" transform="translate(-116.118 -130.517)"/>
      </g>
    </g>
    <g id="logout-4" data-name="logout" class="cls-6" transform="translate(1053.788 454.965)">
      <g id="Group_2091-4" data-name="Group 2091" transform="translate(17.219)">
        <path id="Path_1189-4" data-name="Path 1189" d="M26.254,19.075H20.976a2.6,2.6,0,0,1-2.6-2.6V3.757a2.6,2.6,0,0,1,2.6-2.6H26.34A.58.58,0,1,0,26.34,0H20.976a3.762,3.762,0,0,0-3.757,3.757v12.72a3.762,3.762,0,0,0,3.757,3.757h5.278a.58.58,0,1,0,0-1.159Z" transform="translate(-17.219)"/>
        <path id="Path_1190-4" data-name="Path 1190" d="M134.669,140.18l-3.684-3.684a.58.58,0,0,0-.82.82l2.7,2.7H121.1a.58.58,0,1,0,0,1.159h11.762l-2.7,2.7a.582.582,0,0,0,.408.992.566.566,0,0,0,.408-.172L134.664,141A.579.579,0,0,0,134.669,140.18Z" transform="translate(-116.083 -130.471)"/>
      </g>
    </g>
    <g id="logout_1_" data-name="logout (1)" class="cls-6" transform="translate(906 435.933)">
      <g id="Group_2093" data-name="Group 2093" transform="translate(0 0.023)">
        <g id="Group_2092" data-name="Group 2092" transform="translate(0 0)">
          <path id="Path_1215" data-name="Path 1215" d="M102.886,221.782a.486.486,0,0,0-.486.486v2.915a.486.486,0,1,0,.972,0v-2.915A.486.486,0,0,0,102.886,221.782Z" transform="translate(-96.569 -209.154)"/>
          <path id="Path_1216" data-name="Path 1216" d="M6.369.153,1.775,1.991A2.247,2.247,0,0,0,0,4.39V24.8a2.242,2.242,0,0,0,1.763,2.4l4.616,1.846a1.924,1.924,0,0,0,.682.13,1.766,1.766,0,0,0,1.686-1.941V1.96A1.741,1.741,0,0,0,6.369.153Zm1.405,27.08c0,.58-.287.969-.714.969a.962.962,0,0,1-.33-.064L2.113,26.291C1.2,25.951.972,25.659.972,24.8V4.39c0-.856.224-1.148,1.153-1.492l4.6-1.839A.967.967,0,0,1,7.06.991c.427,0,.714.389.714.969Z" transform="translate(0 -0.023)"/>
          <path id="Path_1217" data-name="Path 1217" d="M170.086,35.02h6.863a1.46,1.46,0,0,1,1.458,1.458v7.289a.486.486,0,0,0,.972,0V36.478a2.432,2.432,0,0,0-2.43-2.43h-6.863a.486.486,0,0,0,0,.972Z" transform="translate(-159.943 -32.111)"/>
          <path id="Path_1218" data-name="Path 1218" d="M179.9,298.582a.486.486,0,0,0-.486.486v7.289a1.46,1.46,0,0,1-1.458,1.458h-6.8a.486.486,0,1,0,0,.972h6.8a2.432,2.432,0,0,0,2.43-2.43v-7.289A.486.486,0,0,0,179.9,298.582Z" transform="translate(-160.949 -281.581)"/>
          <path id="Path_1219" data-name="Path 1219" d="M206.161,167.2a.485.485,0,0,0-.105-.158L201.2,162.18a.486.486,0,0,0-.687.687l4.03,4.03H188.22a.486.486,0,1,0,0,.972h16.32l-4.03,4.03a.486.486,0,1,0,.687.687l4.859-4.859a.487.487,0,0,0,.105-.53Z" transform="translate(-177.044 -152.812)"/>
        </g>
      </g>
    </g>
    <g id="logout_1_2" data-name="logout (1)" class="cls-6" transform="translate(1044.784 350.717)">
      <g id="Group_2093-2" data-name="Group 2093" transform="translate(0 0.023)">
        <g id="Group_2092-2" data-name="Group 2092" transform="translate(0 0)">
          <path id="Path_1215-2" data-name="Path 1215" d="M102.773,221.782a.373.373,0,0,0-.373.373v2.237a.373.373,0,1,0,.746,0v-2.237A.373.373,0,0,0,102.773,221.782Z" transform="translate(-97.926 -212.093)"/>
          <path id="Path_1216-2" data-name="Path 1216" d="M4.887.123,1.362,1.533A1.724,1.724,0,0,0,0,3.374V19.036a1.72,1.72,0,0,0,1.353,1.838l3.542,1.417a1.476,1.476,0,0,0,.523.1A1.355,1.355,0,0,0,6.711,20.9V1.51A1.336,1.336,0,0,0,4.887.123ZM5.965,20.9c0,.445-.22.744-.548.744a.738.738,0,0,1-.254-.049L1.621,20.178c-.7-.261-.875-.485-.875-1.142V3.374c0-.657.172-.881.884-1.145L5.157.818a.742.742,0,0,1,.26-.052c.328,0,.548.3.548.743Z" transform="translate(0 -0.023)"/>
          <path id="Path_1217-2" data-name="Path 1217" d="M169.973,34.794h5.266a1.12,1.12,0,0,1,1.119,1.119V41.5a.373.373,0,0,0,.746,0V35.912a1.866,1.866,0,0,0-1.864-1.864h-5.266a.373.373,0,0,0,0,.746Z" transform="translate(-162.19 -32.561)"/>
          <path id="Path_1218-2" data-name="Path 1218" d="M177.751,298.582a.373.373,0,0,0-.373.373v5.593a1.12,1.12,0,0,1-1.119,1.118h-5.22a.373.373,0,1,0,0,.746h5.22a1.866,1.866,0,0,0,1.864-1.864v-5.593A.373.373,0,0,0,177.751,298.582Z" transform="translate(-163.21 -285.537)"/>
          <path id="Path_1219-2" data-name="Path 1219" d="M201.873,166a.372.372,0,0,0-.081-.122l-3.728-3.728a.373.373,0,1,0-.527.527l3.092,3.092H188.107a.373.373,0,0,0,0,.746h12.522l-3.092,3.092a.373.373,0,1,0,.527.527l3.728-3.728a.374.374,0,0,0,.081-.406Z" transform="translate(-179.532 -154.959)"/>
        </g>
      </g>
    </g>
    <g id="logout_1_3" data-name="logout (1)" class="cls-6" transform="translate(906 242.933)">
      <g id="Group_2093-3" data-name="Group 2093" transform="translate(0 0.023)">
        <g id="Group_2092-3" data-name="Group 2092" transform="translate(0 0)">
          <path id="Path_1215-3" data-name="Path 1215" d="M103.04,221.782a.64.64,0,0,0-.64.639v3.837a.64.64,0,0,0,1.279,0v-3.837A.64.64,0,0,0,103.04,221.782Z" transform="translate(-94.725 -205.161)"/>
          <path id="Path_1216-3" data-name="Path 1216" d="M8.383.194,2.336,2.613C.633,3.244,0,4.1,0,5.771V32.638c0,1.671.633,2.527,2.32,3.152L8.4,38.221a2.532,2.532,0,0,0,.9.171,2.325,2.325,0,0,0,2.219-2.555V2.573A2.292,2.292,0,0,0,8.383.194Zm1.85,35.644c0,.763-.377,1.276-.939,1.276a1.266,1.266,0,0,1-.435-.084L2.781,34.6c-1.207-.447-1.5-.832-1.5-1.959V5.771c0-1.127.295-1.511,1.517-1.964l6.05-2.42A1.273,1.273,0,0,1,9.293,1.3c.562,0,.94.512.94,1.275Z" transform="translate(0 -0.023)"/>
          <path id="Path_1217-3" data-name="Path 1217" d="M170.24,35.327h9.034a1.921,1.921,0,0,1,1.919,1.919v9.593a.64.64,0,0,0,1.279,0V37.246a3.2,3.2,0,0,0-3.2-3.2H170.24a.64.64,0,0,0,0,1.279Z" transform="translate(-156.889 -31.498)"/>
          <path id="Path_1218-3" data-name="Path 1218" d="M182.819,298.582a.639.639,0,0,0-.64.64v9.594a1.921,1.921,0,0,1-1.919,1.919h-8.954a.64.64,0,1,0,0,1.279h8.954a3.2,3.2,0,0,0,3.2-3.2v-9.594A.639.639,0,0,0,182.819,298.582Z" transform="translate(-157.876 -276.205)"/>
          <path id="Path_1219-3" data-name="Path 1219" d="M211.988,168.83a.639.639,0,0,0-.139-.208l-6.395-6.4a.639.639,0,1,0-.9.9l5.3,5.3h-21.48a.64.64,0,1,0,0,1.279h21.48l-5.3,5.3a.639.639,0,1,0,.9.9l6.395-6.4a.641.641,0,0,0,.139-.7Z" transform="translate(-173.664 -149.895)"/>
        </g>
      </g>
    </g>
  </g>
</svg>
