<svg xmlns="http://www.w3.org/2000/svg" width="15.999" height="15.998" viewBox="0 0 15.999 15.998">
  <defs>
    <style>
      .cls-1 {
        fill: #4f4f4f;
      }

      .cls-2, .cls-4 {
        fill: none;
      }

      .cls-2 {
        stroke: #4f4f4f;
        stroke-width: 0.5px;
      }

      .cls-3 {
        stroke: none;
      }
    </style>
  </defs>
  <g id="Group_2112" data-name="Group 2112" transform="translate(-326.001 -882.001)">
    <g id="ssl" transform="translate(330.001 884.668)">
      <path id="Path_1261" data-name="Path 1261" class="cls-1" d="M111,324.657c0-.1.09-.168.247-.168.184,0,.234.083.3.083s.114-.1.114-.151c0-.144-.286-.175-.415-.175-.251,0-.531.111-.531.437,0,.518.7.417.7.745,0,.131-.114.19-.245.19-.223,0-.282-.168-.372-.168-.068,0-.125.092-.125.153,0,.127.219.271.5.271a.462.462,0,0,0,.52-.474C111.7,324.834,111,324.928,111,324.657Zm0,0" transform="translate(-108.366 -317.492)"/>
      <path id="Path_1262" data-name="Path 1262" class="cls-1" d="M172.476,324.657c0-.1.09-.168.247-.168.184,0,.234.083.3.083s.114-.1.114-.151c0-.144-.286-.175-.415-.175-.251,0-.531.111-.531.437,0,.518.7.417.7.745,0,.131-.114.19-.245.19-.223,0-.282-.168-.372-.168-.068,0-.125.092-.125.153,0,.127.219.271.5.271a.462.462,0,0,0,.52-.474C173.177,324.834,172.476,324.928,172.476,324.657Zm0,0" transform="translate(-168.566 -317.492)"/>
      <path id="Path_1263" data-name="Path 1263" class="cls-1" d="M238.224,326.122h-.533v-1.261c0-.061-.072-.087-.142-.087s-.142.026-.142.087v1.421c0,.059.061.09.125.09h.693c.057,0,.085-.063.085-.125S238.281,326.122,238.224,326.122Zm0,0" transform="translate(-232.461 -318.008)"/>
      <path id="Path_1264" data-name="Path 1264" class="cls-1" d="M7.5,4.654H7.293V3.29a3.29,3.29,0,0,0-6.58,0V4.654H.5a.5.5,0,0,0-.5.5v5.008a.5.5,0,0,0,.5.5h7a.5.5,0,0,0,.5-.5V5.156A.5.5,0,0,0,7.5,4.654Zm.19,2.724H7.041V6.791h.653Zm-.653.312h.653v.587H7.041ZM1.025,3.29a2.978,2.978,0,0,1,5.955,0V4.654H6.387V3.29a2.384,2.384,0,0,0-4.767,0V4.654H1.025ZM6.074,4.654H1.932V3.29a2.071,2.071,0,0,1,4.142,0ZM.312,7.69H.966v.587H.312Zm.653-.312H.312V6.791H.966ZM7.5,10.353H.5a.19.19,0,0,1-.19-.19V8.59H.966v.246a.33.33,0,0,0,.33.33H5.234a.156.156,0,1,0,0-.312H1.3a.017.017,0,0,1-.017-.017v-2.5A.017.017,0,0,1,1.3,6.316h.749a.156.156,0,1,0,0-.312H1.3a.33.33,0,0,0-.33.33v.145H.312V5.156a.19.19,0,0,1,.19-.19h7a.19.19,0,0,1,.19.19V6.479H7.041V6.334A.33.33,0,0,0,6.711,6H2.772a.156.156,0,1,0,0,.312H6.711a.017.017,0,0,1,.017.017v2.5a.017.017,0,0,1-.017.017h-.73a.156.156,0,0,0,0,.312h.73a.33.33,0,0,0,.33-.33V8.59h.653v1.574A.19.19,0,0,1,7.5,10.353Zm0,0"/>
    </g>
    <g id="Ellipse_202" data-name="Ellipse 202" class="cls-2" transform="translate(326.001 882.001)">
      <circle class="cls-3" cx="7.999" cy="7.999" r="7.999"/>
      <circle class="cls-4" cx="7.999" cy="7.999" r="7.749"/>
    </g>
    <line id="Line_174" data-name="Line 174" class="cls-2" x1="11.332" y2="11.332" transform="translate(328.335 884.335)"/>
  </g>
</svg>
