<svg xmlns="http://www.w3.org/2000/svg" width="12.01" height="16" viewBox="0 0 12.01 16">
  <defs>
    <style>
      .cls-1 {
        fill: #4f4f4f;
      }
    </style>
  </defs>
  <g id="ssl" transform="translate(0)">
    <path id="Path_1261" data-name="Path 1261" class="cls-1" d="M111.157,324.863c0-.157.134-.252.37-.252.275,0,.351.125.452.125.118,0,.171-.151.171-.226,0-.216-.43-.262-.623-.262-.377,0-.8.167-.8.656,0,.777,1.052.626,1.052,1.118,0,.2-.171.285-.367.285-.334,0-.423-.252-.557-.252-.1,0-.187.138-.187.23,0,.19.328.406.757.406a.693.693,0,0,0,.78-.711C112.21,325.128,111.157,325.269,111.157,324.863Zm0,0" transform="translate(-107.213 -314.113)"/>
    <path id="Path_1262" data-name="Path 1262" class="cls-1" d="M172.638,324.863c0-.157.134-.252.37-.252.275,0,.351.125.452.125.118,0,.171-.151.171-.226,0-.216-.43-.262-.623-.262-.377,0-.8.167-.8.656,0,.777,1.052.626,1.052,1.118,0,.2-.171.285-.367.285-.334,0-.423-.252-.557-.252-.1,0-.187.138-.187.23,0,.19.328.406.757.406a.693.693,0,0,0,.78-.711C173.69,325.128,172.638,325.269,172.638,324.863Zm0,0" transform="translate(-166.773 -314.113)"/>
    <path id="Path_1263" data-name="Path 1263" class="cls-1" d="M238.633,326.8h-.8V324.9c0-.092-.108-.131-.213-.131s-.213.039-.213.131v2.131c0,.089.092.135.187.135h1.039c.085,0,.128-.1.128-.187S238.718,326.8,238.633,326.8Zm0,0" transform="translate(-229.987 -314.624)"/>
    <path id="Path_1264" data-name="Path 1264" class="cls-1" d="M11.257,6.981h-.316V4.936a4.936,4.936,0,0,0-9.871,0V6.981H.753A.754.754,0,0,0,0,7.735v7.512A.754.754,0,0,0,.753,16h10.5a.754.754,0,0,0,.753-.753V7.735A.754.754,0,0,0,11.257,6.981Zm.285,4.087h-.98v-.88h.98Zm-.98.469h.98v.88h-.98Zm-9.023-6.6a4.467,4.467,0,0,1,8.934,0V6.981H9.581V4.936a3.576,3.576,0,0,0-7.152,0V6.981H1.538ZM9.112,6.981H2.9V4.936a3.107,3.107,0,0,1,6.214,0ZM.469,11.537h.98v.88H.469Zm.98-.469H.469v-.88h.98Zm9.809,4.463H.753a.285.285,0,0,1-.285-.285V12.886h.98v.369a.5.5,0,0,0,.495.495H7.852a.234.234,0,1,0,0-.469H1.943a.026.026,0,0,1-.026-.026V9.5a.026.026,0,0,1,.026-.026H3.068a.234.234,0,1,0,0-.469H1.943a.5.5,0,0,0-.495.495v.217H.469V7.735A.285.285,0,0,1,.753,7.45h10.5a.285.285,0,0,1,.285.284V9.719h-.98V9.5a.5.5,0,0,0-.495-.495H4.159a.234.234,0,1,0,0,.469h5.908a.026.026,0,0,1,.026.026v3.753a.026.026,0,0,1-.026.026H8.972a.234.234,0,0,0,0,.469h1.094a.5.5,0,0,0,.495-.495v-.369h.98v2.361A.285.285,0,0,1,11.257,15.531Zm0,0"/>
  </g>
</svg>
