<?xml version="1.0" encoding="UTF-8"?>
<svg width="450px" height="456px" viewBox="0 0 1020 1013" version="1.1" xmlns="http://www.w3.org/2000/svg" xmlns:xlink="http://www.w3.org/1999/xlink">
    <!-- Generator: Sketch 53.1 (72631) - https://sketchapp.com -->
    <title>Group 51</title>
    <desc>Created with Sketch.</desc>
    <defs>
        <linearGradient x1="0%" y1="50%" x2="100%" y2="50%" id="linearGradient-1">
            <stop stop-color="#01C7E3" offset="0%"></stop>
            <stop stop-color="#2979FF" offset="100%"></stop>
        </linearGradient>
        <linearGradient x1="50%" y1="0%" x2="14.3320943%" y2="85.6782305%" id="linearGradient-2">
            <stop stop-color="#01C7E3" offset="0%"></stop>
            <stop stop-color="#2979FF" offset="100%"></stop>
        </linearGradient>
        <linearGradient x1="21.9165056%" y1="-20.649858%" x2="475.061734%" y2="-20.649858%" id="linearGradient-3">
            <stop stop-color="#01C7E3" offset="0%"></stop>
            <stop stop-color="#2979FF" offset="100%"></stop>
        </linearGradient>
        <linearGradient x1="21.9165056%" y1="-20.649858%" x2="475.061734%" y2="-20.649858%" id="linearGradient-4">
            <stop stop-color="#01C7E3" offset="0%"></stop>
            <stop stop-color="#2979FF" offset="100%"></stop>
        </linearGradient>
        <linearGradient x1="-342.752131%" y1="-20.649858%" x2="65.5646307%" y2="-20.649858%" id="linearGradient-5">
            <stop stop-color="#01C7E3" offset="0%"></stop>
            <stop stop-color="#2979FF" offset="100%"></stop>
        </linearGradient>
        <linearGradient x1="-359.36873%" y1="381.075151%" x2="879.67305%" y2="381.075151%" id="linearGradient-6">
            <stop stop-color="#01C7E3" offset="0%"></stop>
            <stop stop-color="#2979FF" offset="100%"></stop>
        </linearGradient>
        <linearGradient x1="-359.36873%" y1="381.075151%" x2="879.67305%" y2="381.075151%" id="linearGradient-7">
            <stop stop-color="#01C7E3" offset="0%"></stop>
            <stop stop-color="#2979FF" offset="100%"></stop>
        </linearGradient>
        <linearGradient x1="-359.36873%" y1="381.075151%" x2="879.67305%" y2="381.075151%" id="linearGradient-8">
            <stop stop-color="#01C7E3" offset="0%"></stop>
            <stop stop-color="#2979FF" offset="100%"></stop>
        </linearGradient>
        <linearGradient x1="-359.36873%" y1="381.075151%" x2="879.67305%" y2="381.075151%" id="linearGradient-9">
            <stop stop-color="#01C7E3" offset="0%"></stop>
            <stop stop-color="#2979FF" offset="100%"></stop>
        </linearGradient>
        <linearGradient x1="-359.36873%" y1="381.075151%" x2="879.67305%" y2="381.075151%" id="linearGradient-10">
            <stop stop-color="#01C7E3" offset="0%"></stop>
            <stop stop-color="#2979FF" offset="100%"></stop>
        </linearGradient>
        <linearGradient x1="-359.36873%" y1="381.075151%" x2="879.67305%" y2="381.075151%" id="linearGradient-11">
            <stop stop-color="#01C7E3" offset="0%"></stop>
            <stop stop-color="#2979FF" offset="100%"></stop>
        </linearGradient>
        <linearGradient x1="-359.36873%" y1="381.075151%" x2="879.67305%" y2="381.075151%" id="linearGradient-12">
            <stop stop-color="#01C7E3" offset="0%"></stop>
            <stop stop-color="#2979FF" offset="100%"></stop>
        </linearGradient>
        <linearGradient x1="-359.36873%" y1="381.075151%" x2="879.67305%" y2="381.075151%" id="linearGradient-13">
            <stop stop-color="#01C7E3" offset="0%"></stop>
            <stop stop-color="#2979FF" offset="100%"></stop>
        </linearGradient>
        <linearGradient x1="14.9429287%" y1="14.3374165%" x2="85.5895045%" y2="85.389407%" id="linearGradient-14">
            <stop stop-color="#01C7E3" offset="0%"></stop>
            <stop stop-color="#2979FF" offset="100%"></stop>
        </linearGradient>
        <linearGradient x1="-34.3269811%" y1="-43.55617%" x2="180.323306%" y2="155.686447%" id="linearGradient-15">
            <stop stop-color="#01C7E3" offset="0%"></stop>
            <stop stop-color="#0037FF" offset="100%"></stop>
        </linearGradient>
        <linearGradient x1="-165.2724%" y1="-257.957688%" x2="109.202157%" y2="27.1155973%" id="linearGradient-16">
            <stop stop-color="#01C7E3" offset="0%"></stop>
            <stop stop-color="#2979FF" offset="100%"></stop>
        </linearGradient>
        <linearGradient x1="-114.857158%" y1="-257.003595%" x2="98.9926462%" y2="33.9048673%" id="linearGradient-17">
            <stop stop-color="#01C7E3" offset="0%"></stop>
            <stop stop-color="#2979FF" offset="100%"></stop>
        </linearGradient>
        <linearGradient x1="-97.6339822%" y1="-257.003595%" x2="93.8742215%" y2="33.9048673%" id="linearGradient-18">
            <stop stop-color="#01C7E3" offset="0%"></stop>
            <stop stop-color="#2979FF" offset="100%"></stop>
        </linearGradient>
        <linearGradient x1="-99.7687725%" y1="-257.003595%" x2="94.5086436%" y2="33.9048673%" id="linearGradient-19">
            <stop stop-color="#01C7E3" offset="0%"></stop>
            <stop stop-color="#2979FF" offset="100%"></stop>
        </linearGradient>
        <linearGradient x1="110.382231%" y1="-20.649858%" x2="431.138085%" y2="476.242898%" id="linearGradient-20">
            <stop stop-color="#01C7E3" offset="0%"></stop>
            <stop stop-color="#2979FF" offset="100%"></stop>
        </linearGradient>
        <linearGradient x1="135.300364%" y1="-20.649858%" x2="588.423582%" y2="476.242898%" id="linearGradient-21">
            <stop stop-color="#01C7E3" offset="0%"></stop>
            <stop stop-color="#2979FF" offset="100%"></stop>
        </linearGradient>
        <linearGradient x1="-117.931194%" y1="204.324639%" x2="250.274797%" y2="310.505858%" id="linearGradient-22">
            <stop stop-color="#01C7E3" offset="0%"></stop>
            <stop stop-color="#2979FF" offset="100%"></stop>
        </linearGradient>
    </defs>
    <g id="Page-1" stroke="none" stroke-width="1" fill="none" fill-rule="evenodd">
        <g id="Group-51">
            <path d="M176.655502,239.655502 C95.3120012,320.999002 45,433.374002 45,557.5 M176.655502,875.344498 C257.999002,956.687999 370.374002,1007 494.5,1007 L494.5,1007 C618.625998,1007 731.000998,956.687999 812.344498,875.344498 M944,557.5 C944,433.374002 893.687999,320.999002 812.344498,239.655502 C731.000998,158.312001 618.625998,108 494.5,108" id="Shape" stroke="url(#linearGradient-1)" stroke-width="11" stroke-linecap="round"></path>
            <path d="M246,328 C184.214887,389.677279 146,474.883646 146,569 M246,809 C307.677279,870.785113 392.883646,909 487,909 L487,909 C581.116354,909 666.322721,870.785113 728,809 M827,569 C827,474.83545 788.832275,389.58545 727.123412,327.876588 C665.41455,266.167725 580.16455,228 486,228" id="Shape-Copy-2" stroke="url(#linearGradient-2)" stroke-width="11" stroke-linecap="round"></path>
            <g id="Group" transform="translate(0.000000, 607.000000)" fill-rule="nonzero">
                <path d="M100.121951,0.560980245 C97.0878049,0.560980245 94.1365854,1.18821705 91.5243902,2.66722681 L8.87073171,50.4299675 C3.52195122,53.5148987 0.270731707,59.3381945 0.270731707,65.5349037 L0.270731707,160.887102 C0.270731707,167.07893 3.52195122,172.894904 8.87073171,175.987157 L30.4560976,188.456234 C40.9439024,193.627887 44.8097561,193.547347 49.5829268,193.547347 C65.1097561,193.547347 73.9756098,184.11927 73.9756098,167.735454 L73.9756098,73.6108827 C73.9756098,72.2807502 72.8243902,71.3289122 71.5195122,71.3289122 L61.1658537,71.3289122 C59.8390244,71.3289122 58.7097561,72.2807502 58.7097561,73.6108827 L58.7097561,167.735454 C58.7097561,174.996269 51.1487805,182.301015 38.8804878,176.162881 L16.4170732,162.993348 C15.6219512,162.56136 15.0121951,161.797449 15.0121951,160.887102 L15.0121951,65.5324631 C15.0121951,64.6294374 15.6146341,63.7093273 16.4170732,63.2504926 L98.895122,15.6659165 C99.6538079,15.2223099 100.592534,15.2223099 101.35122,15.6659165 L183.831707,63.2529332 C184.617073,63.7264116 185.236585,64.6025906 185.236585,65.5373443 L185.236585,160.889542 C185.236585,161.79989 184.778049,162.732203 184.007317,163.171513 L101.35122,210.75853 C100.643902,211.180755 99.6682927,211.180755 98.895122,210.75853 L77.6609756,198.116169 C77.0045258,197.759866 76.2125473,197.759866 75.5560976,198.116169 C69.695122,201.44028 68.5926829,201.825896 63.095122,203.734454 C61.7414634,204.207932 59.6853659,204.942556 63.797561,207.248932 L91.5243902,223.576614 C94.1386636,225.085863 97.1062571,225.874143 100.12439,225.861025 C103.142163,225.879855 106.110233,225.092068 108.721951,223.579055 L191.378049,175.989597 C196.726829,172.877819 199.97561,167.08137 199.97561,160.889542 L199.97561,65.5349037 C199.97561,59.3406352 196.726829,53.5271018 191.378049,50.4348487 L108.721951,2.67210803 C106.131707,1.19065766 103.160976,0.563420855 100.12439,0.563420855 L100.121951,0.560980245 Z" id="Path" fill="url(#linearGradient-3)"></path>
                <path d="M122.234146,68.6954939 C98.697561,68.6954939 84.6804878,78.7190798 84.6804878,95.3884471 C84.6804878,113.468487 98.5926829,118.437569 121.182927,120.673168 C148.207317,123.32123 150.312195,127.292103 150.312195,132.615074 C150.312195,141.847902 142.956098,145.784606 125.570732,145.784606 C103.72439,145.784606 98.9243902,140.327402 97.3170732,129.454484 C97.1268293,128.287872 96.2268293,127.345796 95.0341463,127.345796 L84.3292683,127.345796 C83.0121951,127.345796 81.8731707,128.483121 81.8731707,129.805931 C81.8731707,143.724731 89.4390244,160.184206 125.570732,160.184206 C151.72439,160.184206 166.809756,149.911678 166.809756,131.912178 C166.809756,114.071318 154.62439,109.2804 129.253659,105.924561 C103.619512,102.529672 101.17561,100.867617 101.17561,94.8612753 C101.17561,89.9019555 103.24878,83.2683771 122.234146,83.2683771 C139.195122,83.2683771 145.463415,86.9292923 148.031707,98.3733133 C148.256098,99.4471818 149.202439,100.303836 150.312195,100.303836 L161.019512,100.303836 C161.678049,100.303836 162.317073,99.8986947 162.773171,99.4252163 C163.221951,98.92001 163.539024,98.3513478 163.47561,97.6704176 C161.817073,77.9649312 148.685366,68.6954939 122.234146,68.6954939 L122.234146,68.6954939 Z" id="Path" fill="url(#linearGradient-4)"></path>
            </g>
            <g id="python-(1)" transform="translate(800.000000, 613.000000)" fill="url(#linearGradient-5)" fill-rule="nonzero">
                <path d="M187.773438,62.734375 L157.265625,62.734375 L157.265625,32.2265625 C157.265625,14.4566344 142.808991,0 125.039062,0 L94.9609375,0 C77.1910094,0 62.734375,14.4566344 62.734375,32.2265625 L62.734375,62.734375 L32.2265625,62.734375 C14.4566344,62.734375 0,77.1910094 0,94.9609375 L0,125.039062 C0,142.808991 14.4566344,157.265625 32.2265625,157.265625 L62.734375,157.265625 L62.734375,187.773438 C62.734375,205.543366 77.1910094,220 94.9609375,220 L125.039062,220 C142.808991,220 157.265625,205.543366 157.265625,187.773438 L157.265625,157.265625 L187.773438,157.265625 C205.543366,157.265625 220,142.808991 220,125.039062 L220,94.9609375 C220,77.1910094 205.543366,62.734375 187.773438,62.734375 Z M32.2265625,144.375 C21.5649414,144.375 12.890625,135.700684 12.890625,125.039063 L12.890625,94.9609375 C12.890625,84.2993164 21.5649414,75.625 32.2265625,75.625 L110,75.625 C113.560028,75.625 116.445313,72.7397155 116.445313,69.1796875 C116.445313,65.6196595 113.560028,62.734375 110,62.734375 L75.625,62.734375 L75.625,32.2265625 C75.625,21.5649414 84.2993164,12.890625 94.9609375,12.890625 L125.039063,12.890625 C135.700684,12.890625 144.375,21.5649414 144.375,32.2265625 L144.375,103.554688 L69.1796875,103.554688 C65.6196595,103.554688 62.734375,106.439972 62.734375,110 L62.734375,144.375 L32.2265625,144.375 Z M207.109375,125.039063 C207.109375,135.700684 198.435059,144.375 187.773438,144.375 L110,144.375 C106.439972,144.375 103.554688,147.260285 103.554688,150.820313 C103.554688,154.38034 106.439972,157.265625 110,157.265625 L144.375,157.265625 L144.375,187.773438 C144.375,198.435059 135.700684,207.109375 125.039063,207.109375 L94.9609375,207.109375 C84.2993164,207.109375 75.625,198.435059 75.625,187.773438 L75.625,116.445313 L150.820313,116.445313 C154.38034,116.445313 157.265625,113.560028 157.265625,110 L157.265625,75.625 L187.773438,75.625 C198.435059,75.625 207.109375,84.2993164 207.109375,94.9609375 L207.109375,125.039063 Z" id="Shape"></path>
                <path d="M101.399177,38.9300412 C101.399177,42.4304911 98.5621784,45.2674897 95.0617284,45.2674897 C91.5612784,45.2674897 88.7242798,42.4304911 88.7242798,38.9300412 C88.7242798,35.4295912 91.5612784,32.5925926 95.0617284,32.5925926 C98.5621784,32.5925926 101.399177,35.4295912 101.399177,38.9300412 Z" id="Path"></path>
                <path d="M131.27572,181.069959 C131.27572,184.570409 128.438722,187.407407 124.938272,187.407407 C121.437822,187.407407 118.600823,184.570409 118.600823,181.069959 C118.600823,177.569509 121.437822,174.73251 124.938272,174.73251 C128.438722,174.73251 131.27572,177.569509 131.27572,181.069959 Z" id="Path"></path>
            </g>
            <g id="java-(1)" transform="translate(243.000000, 0.000000)" fill-rule="nonzero">
                <path d="M98.6696035,49.7911894 C86.2528634,58.5242291 72.1797357,68.4229075 64.6396476,84.7991189 C51.5427313,113.368282 91.4396476,144.53304 93.1444934,145.845815 C93.5409692,146.151542 94.014978,146.303084 94.4881057,146.303084 C94.9903084,146.303084 95.4933921,146.131278 95.9022026,145.789427 C96.6942731,145.126872 96.9189427,144.001762 96.4431718,143.085463 C96.2986784,142.807048 81.9779736,114.990308 82.5101322,95.0334802 C82.6986784,88.0837004 92.4255507,80.1991189 102.723348,71.8511013 C112.155066,64.2052863 122.845815,55.539207 129.101322,45.4017621 C142.83348,23.0872247 127.570925,1.14537445 127.414978,0.926872247 C126.808811,0.0757709251 125.689868,-0.233480176 124.73304,0.186784141 C123.777093,0.607929515 123.247577,1.64229075 123.466079,2.66343612 C123.496916,2.80792952 126.465198,17.3180617 118.206167,32.2669604 C114.802643,38.4440529 107.326872,43.7030837 98.6696035,49.7911894 Z" id="XMLID_8_" fill="url(#linearGradient-6)"></path>
                <path d="M150.982379,59.6317181 C151.85815,58.9718062 152.115419,57.7682819 151.585022,56.8079295 C151.054626,55.8475771 149.899559,55.4237885 148.874009,55.8132159 C146.764758,56.614978 97.2202643,75.7118943 97.2202643,98.7876652 C97.2202643,114.693392 104.014978,123.096916 108.976211,129.23348 C110.922467,131.639648 112.602643,133.718062 113.155947,135.492511 C114.714537,140.606167 111.022026,149.848458 109.469604,152.977974 C109.022026,153.878414 109.24141,154.968282 110.002643,155.625551 C110.414097,155.980617 110.927753,156.160352 111.442291,156.160352 C111.880176,156.160352 112.319824,156.029956 112.699559,155.765639 C113.551542,155.172687 133.518943,141.055507 129.937445,124.046696 C128.603524,117.582379 125.426432,112.85815 122.622907,108.689868 C118.280176,102.232599 115.143612,97.5674009 119.902203,88.9515419 C125.479295,78.9039648 150.727753,59.8229075 150.982379,59.6317181 Z" id="XMLID_9_" fill="url(#linearGradient-7)"></path>
                <path d="M22.0176211,156.527753 C21.1682819,159.069604 21.569163,161.593833 23.1762115,163.825551 C28.5471366,171.281057 47.5709251,175.387665 76.7462555,175.387665 C76.7480176,175.387665 76.7488987,175.387665 76.7497797,175.387665 C80.7030837,175.387665 84.876652,175.310132 89.1515419,175.156828 C135.797357,173.486344 153.098678,158.955066 153.812335,158.337445 C154.590308,157.664317 154.798238,156.542731 154.314537,155.635242 C153.830837,154.728634 152.787665,154.273128 151.791189,154.547137 C135.363877,159.032599 104.687225,160.62467 83.4096916,160.62467 C59.6008811,160.62467 47.4757709,158.910132 44.507489,157.644053 C46.030837,155.552423 55.4255507,151.817621 67.0669604,149.527753 C68.1797357,149.309251 68.9444934,148.281938 68.8343612,147.153304 C68.7242291,146.02467 67.7762115,145.163877 66.6422907,145.163877 C59.8176211,145.164758 25.5947137,145.712775 22.0176211,156.527753 Z" id="XMLID_10_" fill="url(#linearGradient-8)"></path>
                <path d="M178.103965,141.562115 C168.482819,141.562115 159.359471,146.38326 158.97533,146.588546 C158.085463,147.065198 157.634361,148.085463 157.878414,149.065198 C158.123348,150.044053 159.003524,150.732159 160.013216,150.73304 C160.217621,150.733921 180.535683,150.899559 182.376211,162.50837 C184.006167,172.523348 163.151542,188.750661 154.977974,194.15859 C154.095154,194.742731 153.752423,195.872247 154.162115,196.847577 C154.510132,197.678414 155.319824,198.198238 156.19207,198.198238 C156.344493,198.198238 156.498678,198.182379 156.651982,198.148899 C158.59207,197.734802 204.101322,187.706608 199.289868,161.208811 C196.354185,144.970044 186.148018,141.562115 178.103965,141.562115 Z" id="XMLID_11_" fill="url(#linearGradient-9)"></path>
                <path d="M146.894273,190.9163 C147.052863,190.06696 146.699559,189.203524 145.992952,188.70837 L135.081057,181.065198 C134.548899,180.692511 133.876652,180.57533 133.251982,180.740969 C133.138326,180.770925 121.726872,183.770044 105.159471,185.609692 C98.584141,186.347137 91.2193833,186.736564 83.8599119,186.736564 C67.2969163,186.736564 56.4669604,184.790308 54.8898678,183.362996 C54.6810573,182.962115 54.7471366,182.779736 54.784141,182.678414 C55.0704846,181.881057 56.6061674,180.933921 57.5964758,180.559471 C58.6898678,180.155066 59.2792952,178.967401 58.939207,177.851982 C58.6,176.736564 57.4502203,176.079295 56.3154185,176.352423 C45.369163,178.993833 40.0167401,182.688106 40.4061674,187.331278 C41.0977974,195.562996 60.1665198,199.788546 76.2872247,200.906608 C78.6052863,201.065198 81.1127753,201.146256 83.7374449,201.146256 C83.739207,201.146256 83.7400881,201.146256 83.7418502,201.146256 C110.548018,201.146256 144.912775,192.735683 145.256388,192.65022 C146.095154,192.443172 146.734802,191.765639 146.894273,190.9163 Z" id="XMLID_12_" fill="url(#linearGradient-10)"></path>
                <path d="M64.6264317,208.585903 C65.4528634,208.047577 65.8193833,207.026432 65.5259912,206.085463 C65.2334802,205.144493 64.353304,204.526872 63.3647577,204.539207 C61.8977974,204.577974 49.0105727,205.159471 48.10837,213.364758 C47.8352423,215.81674 48.5374449,218.056388 50.1964758,220.022026 C54.8237885,225.505727 67.3136564,228.764758 88.3744493,229.986784 C90.8660793,230.135683 93.3964758,230.210573 95.8977974,230.210573 C122.673128,230.210573 140.705727,221.827313 141.460793,221.470485 C142.192952,221.124229 142.675771,220.405286 142.718943,219.596476 C142.762115,218.788546 142.35859,218.021145 141.667841,217.599119 L127.877533,209.180617 C127.399119,208.888987 126.826432,208.79207 126.280176,208.903965 C126.192952,208.922467 117.437004,210.738326 104.222907,212.53304 C101.722467,212.872247 98.5911894,213.044934 94.9171806,213.044934 C81.7171806,213.044934 67.0352423,210.888106 64.2193833,209.476652 C64.1788546,209.211454 64.230837,208.876652 64.6264317,208.585903 Z" id="XMLID_13_" fill="url(#linearGradient-11)"></path>
                <path d="M83.4193833,255.522467 C144.74978,255.470485 177.66696,244.563877 184.00793,237.700441 C186.252863,235.271366 186.495154,232.972687 186.303965,231.471366 C185.832599,227.776211 182.467841,225.514537 182.085463,225.268722 C181.164758,224.676652 179.929515,224.831718 179.211454,225.659912 C178.495154,226.488987 178.478414,227.698678 179.197357,228.525991 C179.584141,229.023789 179.80793,229.856388 178.676652,230.988546 C176.14185,233.355947 150.573568,240.542731 108.002643,242.701322 C102.170925,243.005286 96.0546256,243.15859 89.8237885,243.159471 C51.707489,243.159471 23.8123348,237.939207 20.1506608,234.896035 C21.5629956,232.868722 31.4290749,229.628194 41.922467,227.796476 C43.1048458,227.590308 43.9039648,226.475771 43.7207048,225.289868 C43.5374449,224.103965 42.4440529,223.287225 41.2493392,223.443172 C40.953304,223.482819 39.9497797,223.544493 38.7859031,223.614978 C21.4722467,224.672247 1.46431718,227.029075 0.420264317,235.948899 C0.1030837,238.667841 0.911013216,241.134802 2.82202643,243.282819 C7.49779736,248.536564 20.938326,255.521586 83.4167401,255.521586 C83.4185022,255.522467 83.4185022,255.522467 83.4193833,255.522467 Z" id="XMLID_14_" fill="url(#linearGradient-12)"></path>
                <path d="M196.054626,239.634361 C195.187665,239.23348 194.163877,239.436123 193.5163,240.133921 C193.425551,240.230837 184.205286,249.873128 156.481057,255.534802 C145.86696,257.661674 125.943612,258.740088 97.2643172,258.740088 C68.5312775,258.740088 41.1911894,257.609692 40.9180617,257.598238 C39.7762115,257.542731 38.7991189,258.372687 38.6440529,259.496916 C38.4881057,260.621145 39.2123348,261.679295 40.3154185,261.94185 C40.6,262.009692 69.2528634,268.722467 108.429956,268.722467 C127.220264,268.722467 145.504846,267.195595 162.777093,264.184141 C194.982379,258.538326 197.237004,242.569163 197.317181,241.892511 C197.429075,240.946256 196.919824,240.035242 196.054626,239.634361 Z" id="XMLID_15_" fill="url(#linearGradient-13)"></path>
            </g>
            <path d="M492.5,356 C435.04544,356 377.590879,377.918176 333.754528,421.754528 M268,580.5 C268,637.95456 289.918176,695.409121 333.754528,739.245472 L333.754528,739.245472 C377.590879,783.081824 435.04544,805 492.5,805 M651.245472,739.245472 C695.081824,695.409121 717,637.95456 717,580.5 C717,523.04544 695.081824,465.590879 651.245472,421.754528" id="Shape" stroke="url(#linearGradient-14)" stroke-width="11" stroke-linecap="round"></path>
            <path d="M535.127214,544.456724 C535.12656,542.688455 534.752837,540.939908 534.030095,539.32361 C534.967597,538.939063 535.871297,538.477923 536.731879,537.944944 C542.134009,534.612488 545.277889,528.624571 544.934638,522.321757 C544.862866,520.466938 543.326716,519 541.456155,519 C539.585595,519 538.049445,520.466938 537.977673,522.321757 C538.301409,526.157741 536.491142,529.86358 533.255959,531.987682 C532.005356,532.780081 530.629258,533.357935 529.18534,533.697024 C527.090786,532.360999 524.651669,531.654321 522.161727,531.662093 C519.905972,531.663715 517.689175,532.245645 515.727688,533.351086 C504.046217,521.598777 487.057872,516.699732 470.848339,520.408921 C464.116548,521.990709 457.728432,524.767265 451.992246,528.604608 C451.036454,529.131982 450.151155,529.776327 449.357109,530.522531 L449.357109,530.522531 C445.039614,534.573763 444.08357,541.03374 447.044957,546.145718 C440.257802,553.313413 434.879887,561.676312 431.187997,570.804 C427.970479,578.885599 426.093708,587.431104 425.630627,596.108374 C425.14326,604.132633 425.818317,612.184778 427.635177,620.018819 C425.919627,622.236524 424.992959,624.955808 425.00004,627.751559 C425.014453,632.396733 427.550118,636.673801 431.63481,638.94285 C435.719502,641.211899 440.719391,641.120836 444.717424,638.704578 C451.24973,640.261947 457.947399,641.032298 464.665509,640.998963 C466.270174,640.998963 467.93636,640.958264 469.643559,640.85143 C478.41381,640.38983 487.051887,638.52948 495.225915,635.341853 C504.460793,631.695036 512.923093,626.359161 520.172558,619.611833 C522.127643,620.714741 524.337166,621.296615 526.58609,621.300826 C530.410198,621.308436 534.040413,619.631205 536.496049,616.72223 L536.537063,616.72223 C541.459614,610.453964 544.957423,603.20319 546.790513,595.46737 C550.535042,579.271087 545.451175,562.312215 533.394381,550.780274 C534.531455,548.864116 535.129851,546.680415 535.127214,544.456724 L535.127214,544.456724 Z M521.015398,540 C524.327088,540.008499 527.005653,542.698546 526.999991,546.010249 C526.994329,549.321951 524.306581,552.002823 520.99488,551.999998 C517.68318,551.997172 515.000011,549.311717 515,546.00001 C515.014121,542.686985 517.70235,540.007927 521.015398,540.005133 L521.015398,540 Z M459.020603,535.001577 C462.331575,535.012905 465.00753,537.703847 464.999984,541.014444 C464.992438,544.325042 462.304242,547.003759 458.993253,546.999996 C455.682265,546.996233 453.000166,544.311412 453.000147,541.000806 C452.98914,539.441514 453.59629,537.941345 454.688749,536.828545 C454.940243,536.638664 455.489424,536.197317 456.356821,535.607145 C457.180841,535.18769 458.096207,534.979596 459.020603,535.001577 Z M437.994921,635 C435.566787,634.997909 433.379292,633.532529 432.453453,631.287831 C431.527615,629.043132 432.045982,626.461703 433.766606,624.748432 C435.487229,623.03516 438.070853,622.527853 440.311564,623.463296 C442.552275,624.39874 444.008272,626.592493 443.999965,629.020615 C443.977448,632.323574 441.297944,634.991629 437.994921,635 Z M493.000885,629.793556 C485.481762,632.702284 477.535237,634.413612 469.463174,634.862531 C462.832926,635.24143 456.180188,634.836367 449.64903,633.656115 C450.340502,632.07361 450.69302,630.369108 450.684793,628.647968 C450.673648,624.519211 448.630733,620.648639 445.196964,618.250551 C441.763194,615.852463 437.359278,615.220675 433.366838,616.553394 C432.177842,610.285159 431.762287,603.899837 432.129101,597.5346 C432.554231,589.611945 434.289212,581.809203 437.266485,574.430213 C440.640808,566.189814 445.558789,558.639223 451.767165,552.167276 C455.833136,554.385451 460.797082,554.32175 464.802241,552 C471.810713,554.873367 478.443426,558.555875 484.559418,562.969261 C491.137073,567.651666 497.072321,573.142453 502.219175,579.306567 C508.058218,586.331211 512.710693,594.225489 516,602.689748 C514.700997,604.713886 514.01337,607.056353 514.016514,609.446691 C514.008066,611.624589 514.581124,613.766856 515.678914,615.661254 C509.081392,621.711547 501.388775,626.504272 492.995706,629.793556 L493.000885,629.793556 Z M525.984602,614 C522.672912,613.991501 519.994347,611.301454 520.000009,607.989751 C520.005671,604.678049 522.693419,601.997177 526.00512,602.000002 C529.31682,602.002828 531.999989,604.688283 532,607.99999 C531.988689,611.317022 529.296516,614.000019 525.97947,614 L525.984602,614 Z M540.056111,594.086076 C539.448099,596.794212 538.60638,599.442461 537.540751,602 C535.196451,598.300055 531.166771,596.063841 526.84041,596.061997 C524.990981,596.067842 523.164187,596.476263 521.482694,597.259836 C518.081435,588.882254 513.486023,581.060133 507.844413,574.045316 C502.449827,567.33675 496.22361,561.367813 489.321303,556.287616 C483.669749,552.083766 477.599524,548.496128 471.210712,545.583854 C472.081882,543.811864 472.534907,541.857554 472.533792,539.876205 C472.538388,535.608757 470.466145,531.615846 467,529.213395 C469.165141,528.337495 471.39156,527.627395 473.660673,527.089023 C479.724002,525.601484 486.052082,525.638379 492.09826,527.196521 C499.302627,529.229114 505.904376,533.035319 511.32064,538.279087 C510.259203,540.194217 509.702883,542.356252 509.705779,544.554942 C509.725195,551.692749 515.418718,557.467828 522.4335,557.464979 C524.605499,557.460791 526.741121,556.897269 528.641408,555.826909 C538.758206,565.672083 543.083182,580.181086 540.046049,594.086076 L540.056111,594.086076 Z" id="ic_fandogh" fill="url(#linearGradient-15)" fill-rule="nonzero"></path>
            <g id="php_lang" transform="translate(517.000000, 720.000000)">
                <path d="M112.999981,56.5288724 C112.998937,82.0978836 95.8111283,104.475467 71.1009492,111.07911 C46.3907701,117.682754 20.3253294,106.864336 7.56075472,84.7068575 C-4.31039589,64.1370583 -2.04213318,38.3411577 13.2366951,20.1570185 C28.5155233,1.97287918 53.541094,-4.71505075 75.858915,3.42161513 C98.176736,11.558281 113.019333,32.7814095 112.999981,56.5288724 Z" id="Path_1948" stroke="url(#linearGradient-16)" stroke-width="2"></path>
                <g id="Group_3370" transform="translate(2.000000, 27.000000)" fill-rule="nonzero">
                    <path d="M26.6773895,11.953859 L5.91454737,11.953859 L-1.77635684e-15,43.6856686 C1.26484434,48.2794887 3.12155993,52.6926446 5.52429474,56.8161524 L7.44985263,56.8161524 L9.74930526,44.5218133 L21.1577684,44.5218133 C35.0479579,44.5218133 38.7822316,32.1603048 39.6772421,26.0895695 C40.1326453,22.4402905 38.9563897,18.7759832 36.4572157,16.0584446 C33.9580416,13.340906 30.3855322,11.8415265 26.6773895,11.953859 L26.6773895,11.953859 Z M29.6895789,27.1156419 C29.1801474,30.557501 26.6166316,37.5662933 18.7414737,37.5662933 L11.0298947,37.5662933 L14.4720632,19.0993067 L22.3215158,19.0993067 C29.9629895,19.0993067 30.1966737,23.676099 29.6895789,27.1156419 Z" id="Path_1949" fill="url(#linearGradient-17)"></path>
                    <path d="M108.553326,13.3945295 C106.598067,12.4172668 104.433423,11.9230041 102.243853,11.953859 L81.5020421,11.953859 L73.1384842,56.81152 L83.0373474,56.81152 L85.3297895,44.5241295 L96.7382526,44.5241295 C101.769214,44.7206063 106.613742,42.621883 109.885326,38.8286171 C111.410213,30.361742 110.957754,21.6611412 108.562674,13.3945295 L108.553326,13.3945295 Z M105.267726,27.1156419 C104.758295,30.557501 102.194779,37.5662933 94.3172842,37.5662933 L86.6173895,37.5662933 L90.0595579,19.0993067 L97.8996632,19.0993067 C105.541137,19.0993067 105.774821,23.6784152 105.267726,27.1156419 L105.267726,27.1156419 Z" id="Path_1950" fill="url(#linearGradient-18)"></path>
                    <path d="M66.1092632,12.1020952 L54.0862105,12.1020952 L56.3436,1.42108547e-14 L46.4868,1.42108547e-14 L38.1232421,44.8553448 L47.9800421,44.8553448 L52.7892632,19.0599314 L59.0987368,19.0599314 C63.2816842,19.0599314 66.1092632,19.9493486 65.5203789,23.796541 C64.9314947,27.6437333 61.4869895,44.6700495 61.4869895,44.6700495 L71.4933474,44.6700495 C71.4933474,44.6700495 75.3771789,25.7212952 75.9730737,20.391741 C76.5689684,15.0621867 71.6358947,12.1020952 66.1092632,12.1020952 L66.1092632,12.1020952 Z" id="Path_1951" fill="url(#linearGradient-19)"></path>
                </g>
            </g>
            <g id="c_sharp_lang" transform="translate(243.000000, 461.000000)" fill-rule="nonzero">
                <path d="M47.9885756,62.2236219 C42.4462204,64.9085419 36.3260074,66.195998 30.1665077,65.9726957 C21.9364055,66.3316935 13.9511137,63.1367362 8.2590734,57.2074158 C2.6005392,50.8959127 -0.351936122,42.6298956 0.0335035837,34.1783661 C-0.365020281,25.0211211 2.97540617,16.093053 9.29412427,9.42719943 C15.4753914,3.12981319 24.0357572,-0.282714836 32.8740911,0.0272158932 C38.0334729,-0.168612469 43.1781851,0.694007923 47.9885756,2.56148057 L47.9885756,10.5419119 C43.3228464,7.95953947 38.0586499,6.64020502 32.7210041,6.71549072 C25.9942701,6.49025081 19.497497,9.16802793 14.8989361,14.0612184 C10.1345158,19.4685081 7.67044128,26.5095105 8.02830047,33.6938074 C7.67547257,40.4836872 9.9727161,47.1464951 14.4396752,52.2890314 C18.7737391,56.928292 24.9251134,59.4538869 31.2838142,59.2047986 C37.1469485,59.3497025 42.9349149,57.867269 48,54.9233927 L47.9885756,62.2236219 Z" id="Path_1945" fill="url(#linearGradient-20)"></path>
                <path d="M105,18.0601931 L103.976919,22.8175907 L92.198846,22.8175907 L89.3825001,36.3248326 L102.027318,36.3248326 L100.824911,41.0822302 L88.4329892,41.0822302 L84.4648154,59 L78.8091331,59 L82.6761484,41.0822302 L71.410765,41.0822302 L67.6219177,59 L62.0903845,59 L65.8792318,41.0822302 L54,41.0822302 L54.8966326,36.3248326 L66.8264437,36.3248326 L69.5669206,22.8428594 L57.0968309,22.8428594 L58.0440427,18.0854618 L70.5118334,18.0854618 L74.3029798,0 L80.0115404,0 L76.2226931,18.0854618 L87.5639454,18.0854618 L91.4309606,0 L96.9601947,0 L93.1713474,18.0854618 L105,18.0601931 Z M86.6443222,22.8175907 L75.2754812,22.8175907 L72.3303881,36.3248326 L83.7498084,36.3248326 L86.6443222,22.8175907 Z" id="Path_1946" fill="url(#linearGradient-21)"></path>
            </g>
            <g id="html-5-logo" transform="translate(579.997369, 391.149765) rotate(-329.000000) translate(-579.997369, -391.149765) translate(534.497369, 339.149765)" fill="url(#linearGradient-22)" fill-rule="nonzero">
                <path d="M0.682639996,0.798854965 L8.86258805,93.370955 L45.5657569,103.798855 L82.5008218,93.370955 L90.68264,0.798854965 L0.682639996,0.798854965 Z M72.912666,30.9919202 L29.8360945,30.9919202 L30.7954712,42.6441943 L71.9551595,42.6441943 L68.7553673,77.6631771 L45.8144842,84.0355734 L45.8144842,84.0996176 L45.5657569,84.0996176 L22.4210296,77.6631771 L21.0146919,59.7684788 L32.1999387,59.7684788 L33.0358867,68.7798721 L45.5657569,72.1892831 L58.1573413,68.7779885 L59.563679,54.1005685 L20.4405621,54.1005685 L17.4371335,19.7239112 L73.9374971,19.7239112 L72.912666,30.9919202 Z" id="Path_1947"></path>
            </g>
        </g>
    </g>
</svg>
