<?xml version="1.0" encoding="UTF-8"?>
<svg width="387px" height="431px" viewBox="0 0 387 431" version="1.1" xmlns="http://www.w3.org/2000/svg" xmlns:xlink="http://www.w3.org/1999/xlink">
    <!-- Generator: Sketch 53.1 (72631) - https://sketchapp.com -->
    <title>Group 53</title>
    <desc>Created with Sketch.</desc>
    <defs>
        <linearGradient x1="18.2909391%" y1="8.38540196%" x2="81.8669156%" y2="91.2460568%" id="linearGradient-1">
            <stop stop-color="#01C7E3" offset="0%"></stop>
            <stop stop-color="#0037FF" offset="100%"></stop>
        </linearGradient>
        <linearGradient x1="2.35040131%" y1="-4.41180492%" x2="96.8677587%" y2="109.967833%" id="linearGradient-2">
            <stop stop-color="#01C7E3" offset="0%"></stop>
            <stop stop-color="#0037FF" stop-opacity="0.4" offset="100%"></stop>
        </linearGradient>
        <linearGradient x1="-34.3269811%" y1="-43.9674355%" x2="155.158287%" y2="145.817722%" id="linearGradient-3">
            <stop stop-color="#01C7E3" offset="0%"></stop>
            <stop stop-color="#0037FF" offset="100%"></stop>
        </linearGradient>
    </defs>
    <g id="Page-1" stroke="none" stroke-width="1" fill="none" fill-rule="evenodd">
        <g id="Group-53" transform="translate(5.000000, 5.000000)">
            <g id="Group-41" stroke-linecap="round" stroke-linejoin="bevel" stroke-width="7">
                <g id="Group-40">
                    <path d="M23.5109424,94.9375 L47.0218848,81.375 L94.0437695,54.25 L188.087539,0 L188.087539,0 L282.131309,54.25 L329.153193,81.375 L352.664136,94.9375 M376.175078,135.625 L376.175078,162.75 L376.175078,217 L376.175078,325.5 L282.131309,379.75 L235.109424,406.875 L211.598481,420.4375 M164.576597,420.4375 L141.065654,406.875 L94.0437695,379.75 L0,325.5 L0,217 L0,162.75 L0,135.625" id="Shape" stroke="url(#linearGradient-1)"></path>
                    <path d="M52.5931856,121.819897 L71.9495218,110.851017 L110.662194,88.9132566 L188.087539,45.0377358 L188.087539,45.0377358 L265.512884,88.9132566 L304.225556,110.851017 L323.581893,121.819897 M343.80493,154.149228 L343.80493,176.471861 L343.80493,221.117128 L343.80493,310.407662 L265.223983,355.052928 L225.93351,377.375562 L206.288273,388.536878 M169.886805,388.536878 L150.241568,377.375562 L110.951095,355.052928 L32.3701478,310.407662 L32.3701478,221.117128 L32.3701478,176.471861 L32.3701478,154.149228" id="Shape-Copy-3" stroke="url(#linearGradient-2)"></path>
                </g>
            </g>
            <path d="M255.417658,167.8465 C255.416765,165.425999 254.906314,163.032497 253.919154,160.820023 C255.199644,160.293636 256.433966,159.662403 257.609395,158.932833 C264.987914,154.371192 269.281995,146.174618 268.813164,137.546995 C268.715134,135.008021 266.616977,133 264.062066,133 C261.507155,133 259.408998,135.008021 259.310968,137.546995 C259.753144,142.797891 257.280584,147.870638 252.861798,150.77822 C251.153657,151.862897 249.274108,152.653894 247.301928,153.118058 C244.441073,151.289237 241.109597,150.321898 237.7087,150.332537 C234.62767,150.334758 231.599848,151.131333 228.920744,152.644519 C212.965564,136.557342 189.761971,129.851272 167.622122,134.928605 C158.42748,137.09384 149.702248,140.894535 141.867458,146.147291 C140.561986,146.869189 139.352797,147.751202 138.268247,148.772645 L138.268247,148.772645 C132.371181,154.318184 131.065364,163.16094 135.110185,170.158482 C125.839925,179.97 118.49448,191.417574 113.451898,203.912033 C109.05724,214.97455 106.493845,226.672085 105.861345,238.549987 C105.195672,249.534015 106.117702,260.556213 108.599266,271.279859 C106.256076,274.31557 104.990382,278.037869 105.000055,281.864839 C105.019741,288.223397 108.483087,294.078071 114.062179,297.184065 C119.64127,300.290058 126.470388,300.165407 131.931115,296.857905 C140.85329,298.989714 150.001325,300.044211 159.177281,299.99858 C161.369018,299.99858 163.644784,299.94287 165.976568,299.79663 C177.955448,299.164768 189.753796,296.618222 200.918323,292.254832 C213.531815,287.262877 225.090079,279.958852 234.991786,270.722754 C237.662147,272.232473 240.680032,273.028973 243.751733,273.034737 C248.974904,273.045154 253.933247,270.749272 257.287287,266.767315 L257.343306,266.767315 C264.066789,258.186983 268.844284,248.261744 271.348017,237.672548 C276.462497,215.502226 269.518678,192.288033 253.050862,176.502506 C254.603938,173.879568 255.42126,170.890404 255.417658,167.8465 L255.417658,167.8465 Z M235.521813,162 C240.213375,162.01204 244.008009,165.822941 243.999987,170.514519 C243.991966,175.206097 240.184323,179.004 235.492747,178.999997 C230.801172,178.995994 227.000015,175.191599 227,170.500014 C227.020005,165.806563 230.828329,162.01123 235.521813,162.007271 L235.521813,162 Z M151.529188,155.002234 C156.219731,155.018282 160.010668,158.83045 159.999977,163.520463 C159.989287,168.210476 156.18101,172.005325 151.490442,171.999994 C146.799875,171.994663 143.000236,168.191167 143.000208,163.501142 C142.984614,161.292144 143.844744,159.166905 145.392395,157.590439 C145.748678,157.32144 146.526683,156.6962 147.755496,155.860122 C148.922857,155.265894 150.219627,154.971094 151.529188,155.002234 Z M123.492805,291 C120.052948,290.997037 116.953996,288.921083 115.642392,285.741094 C114.330788,282.561104 115.065142,278.90408 117.502692,276.476945 C119.940242,274.04981 123.600375,273.331125 126.774716,274.656337 C129.949057,275.981548 132.011719,279.089364 131.99995,282.529205 C131.968052,287.208396 128.172087,290.988141 123.492805,291 Z M198.513117,283.84898 C188.219079,287.844101 177.339907,290.194599 166.288869,290.811187 C157.211744,291.331602 148.103829,290.775251 139.162362,289.154182 C140.109021,286.980621 140.591634,284.639497 140.580371,282.275522 C140.565113,276.604699 137.768266,271.288493 133.067272,267.994733 C128.366277,264.700974 122.337107,263.833216 116.871266,265.663698 C115.243474,257.054315 114.67456,248.284114 115.176745,239.541499 C115.758768,228.659781 118.134041,217.94276 122.210068,207.807763 C126.829677,196.489624 133.562628,186.118933 142.06219,177.229753 C147.628698,180.276403 154.424577,180.18891 159.90783,177 C169.502763,180.946553 178.583262,186.004455 186.956346,192.066214 C195.961469,198.497469 204.087106,206.039032 211.133394,214.505405 C219.127322,224.153711 225.496782,234.996454 230,246.622063 C228.221603,249.402204 227.28021,252.619569 227.284513,255.902684 C227.272948,258.894014 228.057491,261.836404 229.560417,264.438349 C220.528096,272.74839 209.996537,279.331169 198.506027,283.84898 L198.513117,283.84898 Z M242.478187,263 C237.786625,262.98796 233.991991,259.177059 234.000013,254.485481 C234.008034,249.793903 237.815677,245.996 242.507253,246.000003 C247.198828,246.004006 250.999985,249.808401 251,254.499986 C250.983976,259.199115 247.170064,263.000027 242.470915,263 L242.478187,263 Z M261.711719,236.170419 C260.881865,239.87629 259.733032,243.500209 258.278592,247 C255.07894,241.936917 249.578971,238.876835 243.674073,238.874312 C241.149853,238.882311 238.656526,239.441203 236.361514,240.513459 C231.719256,229.0494 225.44714,218.345445 217.747104,208.746222 C210.384223,199.566079 201.886279,191.39806 192.465562,184.446212 C184.751954,178.693574 176.466918,173.784176 167.747053,169.798958 C168.936083,167.37413 169.5544,164.699811 169.552878,161.988491 C169.559151,156.148825 166.730819,150.684842 162,147.397277 C164.955125,146.198677 167.993886,145.226961 171.090918,144.490242 C179.366543,142.454662 188.003517,142.505151 196.255734,144.637345 C206.088721,147.418788 215.099216,152.627278 222.491684,159.802961 C221.042967,162.423665 220.283664,165.38224 220.287617,168.390973 C220.314117,178.158499 228.085007,186.061239 237.659236,186.057339 C240.623722,186.051609 243.538557,185.280473 246.132192,183.81577 C259.940254,197.288114 265.843262,217.142539 261.697986,236.170419 L261.711719,236.170419 Z" id="ic_fandogh" fill="url(#linearGradient-3)" fill-rule="nonzero"></path>
        </g>
    </g>
</svg>
