<svg xmlns="http://www.w3.org/2000/svg" width="82.156" height="82.154" viewBox="0 0 82.156 82.154">
    <defs>
        <style>
            .cls-1,.cls-2{fill:#fefefe}.cls-2{clip-rule:evenodd}.cls-3,.cls-4{fill:rgba(255,255,255,.42)}.cls-3{stroke:#fefefe;stroke-width:2px}.cls-5{clip-path:url(#clip-path)}.cls-6{clip-path:url(#clip-path-2)}.cls-7{clip-path:url(#clip-path-3)}.cls-8{clip-path:url(#clip-path-4)}
        </style>
        <clipPath id="clip-path">
            <path id="Path_1478" d="M18.83-296A18.851 18.851 0 0 0 0-277.17a18.851 18.851 0 0 0 18.83 18.83 18.851 18.851 0 0 0 18.83-18.83A18.851 18.851 0 0 0 18.83-296zm0 35.624a16.741 16.741 0 0 1-11.835-4.891 16.887 16.887 0 0 1-3.045-4.125 16.689 16.689 0 0 1-1.914-7.779 16.813 16.813 0 0 1 16.794-16.793 16.729 16.729 0 0 1 11.391 4.464 16.882 16.882 0 0 1 3.761 5.089 16.693 16.693 0 0 1 1.642 7.239 16.813 16.813 0 0 1-16.794 16.796z" class="cls-1" data-name="Path 1478" transform="translate(0 296)"/>
        </clipPath>
        <clipPath id="clip-path-2">
            <path id="Path_1480" d="M85.7-192.931a2.036 2.036 0 0 0 2.036-2.036A2.036 2.036 0 0 0 85.7-197a2.036 2.036 0 0 0-2.036 2.036 2.036 2.036 0 0 0 2.036 2.033z" class="cls-2" data-name="Path 1480" transform="translate(-83.666 197.002)"/>
        </clipPath>
        <clipPath id="clip-path-3">
            <path id="Path_1482" d="M184.7-192.931a2.036 2.036 0 0 0 2.036-2.036A2.036 2.036 0 0 0 184.7-197a2.036 2.036 0 0 0-2.036 2.036 2.036 2.036 0 0 0 2.036 2.033z" class="cls-2" data-name="Path 1482" transform="translate(-182.666 197.002)"/>
        </clipPath>
        <clipPath id="clip-path-4">
            <path id="Path_1484" d="M80.479-110.339a11.818 11.818 0 0 0 9.874-5.358l-1.71-1.1a9.755 9.755 0 0 1-9.249 4.365 9.765 9.765 0 0 1-7.007-4.365l-1.71 1.1a11.821 11.821 0 0 0 8.483 5.283 11.5 11.5 0 0 0 1.319.075z" class="cls-2" data-name="Path 1484" transform="translate(-70.677 116.802)"/>
        </clipPath>
    </defs>
    <g id="Group_2621" data-name="Group 2621" transform="translate(1.002 1.001)">
        <path id="Path_1309" d="M79.9 35.626a40.111 40.111 0 0 1-.018 9.114 2.231 2.231 0 0 1-2.346 1.965l-.5-.013a8.972 8.972 0 0 0-8.2 5.433 8.88 8.88 0 0 0 2.245 10 2.225 2.225 0 0 1 .239 3.046 39.9 39.9 0 0 1-6.484 6.41 2.24 2.24 0 0 1-3.025-.253 9.249 9.249 0 0 0-9.911-2.26 8.908 8.908 0 0 0-5.483 8.546 2.23 2.23 0 0 1-1.984 2.3 39.888 39.888 0 0 1-9.017-.024 2.226 2.226 0 0 1-1.967-2.341 8.887 8.887 0 0 0-5.422-8.7 9.223 9.223 0 0 0-9.991 2.247 2.229 2.229 0 0 1-3.05.242 39.8 39.8 0 0 1-6.34-6.414 2.227 2.227 0 0 1 .244-3.02 8.911 8.911 0 0 0 2.241-9.91A8.789 8.789 0 0 0 2.879 46.5a2.651 2.651 0 0 1-2.628-1.972 40.146 40.146 0 0 1 .017-9.114 2.179 2.179 0 0 1 2.315-1.967 9.265 9.265 0 0 0 8.72-5.417 8.881 8.881 0 0 0-2.241-10 2.229 2.229 0 0 1-.239-3.046 39.807 39.807 0 0 1 6.484-6.41 2.235 2.235 0 0 1 3.024.254 9.262 9.262 0 0 0 9.921 2.259 8.917 8.917 0 0 0 5.488-8.551A2.23 2.23 0 0 1 35.725.243a40.013 40.013 0 0 1 9.016.024 2.223 2.223 0 0 1 1.967 2.341 8.9 8.9 0 0 0 5.414 8.7 9.237 9.237 0 0 0 10-2.245 2.23 2.23 0 0 1 3.046-.246 39.657 39.657 0 0 1 6.349 6.412 2.226 2.226 0 0 1-.244 3.022 8.849 8.849 0 0 0 6.057 15.4 2.609 2.609 0 0 1 2.57 1.975zM40.438 65.952a25.514 25.514 0 1 0 0-51.028 26.79 26.79 0 0 0-5.641.626 25.517 25.517 0 0 0 5.641 50.4z" class="cls-3" data-name="Path 1309"/>
        <g id="Group_2378" data-name="Group 2378" transform="translate(21.707 21.618)">
            <path id="Path_1312" d="M18.831 37.663A18.832 18.832 0 1 0 0 18.832a18.832 18.832 0 0 0 18.831 18.831z" class="cls-4" data-name="Path 1312"/>
        </g>
        <g id="Group_2620" data-name="Group 2620" transform="translate(21.707 21.621)">
            <g id="Group_2616" class="cls-5" data-name="Group 2616">
                <path id="Path_1477" d="M-5-301h38.932v38.932H-5z" class="cls-1" data-name="Path 1477" transform="translate(4.364 300.364)"/>
            </g>
            <g id="Group_2617" class="cls-6" data-name="Group 2617" transform="translate(10.645 12.596)">
                <path id="Path_1479" d="M78.666-202h5.344v5.344h-5.344z" class="cls-1" data-name="Path 1479" transform="translate(-79.302 201.366)"/>
            </g>
            <g id="Group_2618" class="cls-7" data-name="Group 2618" transform="translate(23.241 12.596)">
                <path id="Path_1481" d="M177.666-202h5.344v5.344h-5.344z" class="cls-1" data-name="Path 1481" transform="translate(-178.302 201.366)"/>
            </g>
            <g id="Group_2619" class="cls-8" data-name="Group 2619" transform="translate(8.992 22.8)">
                <path id="Path_1483" d="M65.677-121.8h20.948v7.735H65.677z" class="cls-1" data-name="Path 1483" transform="translate(-66.313 121.166)"/>
            </g>
        </g>
    </g>
</svg>
