<?xml version="1.0" encoding="UTF-8"?>
<svg width="84px" height="84px" viewBox="0 0 84 84" version="1.1" xmlns="http://www.w3.org/2000/svg" xmlns:xlink="http://www.w3.org/1999/xlink">
    <!-- Generator: Sketch 53.1 (72631) - https://sketchapp.com -->
    <title>Group 24</title>
    <desc>Created with Sketch.</desc>
    <g id="Page-1" stroke="none" stroke-width="1" fill="none" fill-rule="evenodd">
        <g id="Group-24" transform="translate(1.000000, 1.000000)" fill="#FEFEFE">
            <path d="M81.7434138,36.4474283 C82.0906256,39.5527307 82.0863541,42.6885431 81.7251074,45.7715733 C81.5826225,46.9715295 80.5010182,47.8770647 79.3254409,47.7815686 L78.8183531,47.7684493 C75.1939872,47.7684493 71.8243855,50.0011673 70.4306568,53.3264464 C68.9481419,56.8588881 69.8741416,60.9704086 72.7278073,63.5546012 C73.6226861,64.3643352 73.7294736,65.7311808 72.9728083,66.6705821 C71.0228695,69.0991739 68.7925374,71.3050431 66.3397822,73.2283901 C65.3954761,73.957883 64.0560564,73.8514033 63.2453871,72.9696658 C60.8060567,70.2899771 56.4652996,69.2813183 53.0911213,70.6594526 C49.6006974,72.0885385 47.3438209,75.6029793 47.4814242,79.4026882 C47.5213932,80.5956271 46.6405493,81.619541 45.4515474,81.7507337 C43.9513363,81.9176231 42.4508201,82 40.950609,82 C39.3701548,82 37.7939721,81.9087753 36.2272477,81.7260207 C35.0297028,81.5881157 34.1439772,80.5376582 34.2150671,79.3309898 C34.4329135,75.4891772 32.2068529,71.9124961 28.6679169,70.4321535 C25.289162,69.0140511 20.8995877,70.0181335 18.4465275,72.7313831 C17.632197,73.6286807 16.2653176,73.7354655 15.3258932,72.9785137 C12.9308033,71.0508952 10.7447117,68.8428903 8.83962368,66.4164342 C8.10034944,65.4794737 8.21171349,64.1327647 9.0888961,63.3269969 C11.8934396,60.7562288 12.8148627,56.6831508 11.38147,53.1885415 C9.94350078,49.6893556 6.51562373,47.4789099 2.94526171,47.5701347 C1.77029468,47.5701347 0.385414048,46.7115847 0.256658897,45.5540373 C-0.0905528596,42.4487349 -0.0862813617,39.3101766 0.274355103,36.2298923 C0.416534961,35.047937 1.34253468,34.1753525 2.64259557,34.2171511 C6.64895548,34.2171511 10.1485327,32.045148 11.563924,28.6750192 C13.0464389,25.1401367 12.1250158,21.0292264 9.27135008,18.4450339 C8.38104787,17.6349948 8.26968382,16.2702848 9.02665427,15.3287478 C10.9674398,12.9068682 13.2023486,10.6991684 15.6596803,8.77124487 C16.5987996,8.03931123 17.9476776,8.14792664 18.7537703,9.03149472 C21.1927956,11.7139293 25.5518592,12.7112995 28.9034595,11.3423181 C32.3984601,9.9107914 34.6513701,6.39635057 34.5177332,2.59450603 C34.4777642,1.40370279 35.3592183,0.379788958 36.5479151,0.248596185 C39.6197323,-0.0921999266 42.7092457,-0.0812163455 45.7719097,0.273004143 C46.9743364,0.413044801 47.8557905,1.46167169 47.7840903,2.66772991 C47.5662439,6.50740678 49.7923045,10.084393 53.3223924,11.5693121 C56.714572,12.9846686 61.1044514,11.9787556 63.5483584,9.2722182 C64.3587226,8.37492065 65.7298734,8.27057663 66.6644161,9.02051114 C69.050963,10.9322644 71.2367495,13.1381336 73.1598388,15.5801498 C73.8991131,16.5171103 73.7920205,17.8659551 72.9105664,18.6717228 C70.1102945,21.2403552 69.1891764,25.315874 70.6176874,28.8104834 C72.0159927,32.2224108 75.3502019,34.4285851 79.1075945,34.4285851 C80.2697471,34.4285851 81.6137434,35.2947625 81.7434138,36.4474283 Z M41.3693694,67.4714715 C55.7851623,67.4714715 67.4714715,55.7851623 67.4714715,41.3693694 C67.4714715,26.9535764 55.7851623,15.2672673 41.3693694,15.2672673 C26.9535764,15.2672673 15.2672673,26.9535764 15.2672673,41.3693694 C15.2672673,55.7851623 26.9535764,67.4714715 41.3693694,67.4714715 Z" id="Combined-Shape" stroke="#FEFEFE" stroke-width="2" fill-opacity="0.3" fill-rule="nonzero"></path>
            <g id="Group-23" transform="translate(22.000000, 22.000000)">
                <circle id="Oval-Copy-2" stroke="#FEFEFE" fill-opacity="0.3" cx="19.5000001" cy="19.5000001" r="18.371795"></circle>
                <g id="smile" fill-rule="nonzero">
                    <g id="Group">
                        <path d="M26.4979565,24.0214565 C24.731087,25.9977391 22.1808261,27.1304348 19.5,27.1304348 C16.8268043,27.1304348 14.2748478,25.9968913 12.5003478,24.0206087 C12.1875,23.6721522 11.6516739,23.6424783 11.3032174,23.9561739 C10.9547609,24.2690217 10.9259348,24.8048478 11.2387826,25.1533043 C13.3346087,27.4873696 16.346087,28.826087 19.5,28.826087 C22.6623913,28.826087 25.6738696,27.4865217 27.762913,25.1524565 C28.074913,24.8031522 28.0452391,24.2681739 27.6959348,23.9553261 C27.3457826,23.6424783 26.8099565,23.6721522 26.4979565,24.0214565 Z" id="Path"></path>
                        <path d="M19.5,0 C8.74786957,0 0,8.74786957 0,19.5 C0,30.2521304 8.74786957,39 19.5,39 C30.2521304,39 39,30.2521304 39,19.5 C39,8.74786957 30.2521304,0 19.5,0 Z M19.5,37.3043478 C9.68217391,37.3043478 1.69565217,29.3178261 1.69565217,19.5 C1.69565217,9.68217391 9.68217391,1.69565217 19.5,1.69565217 C29.3178261,1.69565217 37.3043478,9.68217391 37.3043478,19.5 C37.3043478,29.3178261 29.3178261,37.3043478 19.5,37.3043478 Z" id="Shape"></path>
                        <path d="M26.2826087,13.5652174 C23.9451522,13.5652174 22.0434783,15.4668913 22.0434783,17.8043478 C22.0434783,18.2723478 22.4233043,18.6521739 22.8913043,18.6521739 C23.3593043,18.6521739 23.7391304,18.2723478 23.7391304,17.8043478 C23.7391304,16.4020435 24.8803043,15.2608696 26.2826087,15.2608696 C27.684913,15.2608696 28.826087,16.4020435 28.826087,17.8043478 C28.826087,18.2723478 29.205913,18.6521739 29.673913,18.6521739 C30.141913,18.6521739 30.5217391,18.2723478 30.5217391,17.8043478 C30.5217391,15.4668913 28.6200652,13.5652174 26.2826087,13.5652174 Z" id="Path"></path>
                        <path d="M15.2608696,17.8043478 C15.2608696,18.2723478 15.6406957,18.6521739 16.1086957,18.6521739 C16.5766957,18.6521739 16.9565217,18.2723478 16.9565217,17.8043478 C16.9565217,15.4668913 15.0548478,13.5652174 12.7173913,13.5652174 C10.3799348,13.5652174 8.47826087,15.4668913 8.47826087,17.8043478 C8.47826087,18.2723478 8.85808696,18.6521739 9.32608696,18.6521739 C9.79408696,18.6521739 10.173913,18.2723478 10.173913,17.8043478 C10.173913,16.4020435 11.315087,15.2608696 12.7173913,15.2608696 C14.1196957,15.2608696 15.2608696,16.4020435 15.2608696,17.8043478 Z" id="Path"></path>
                    </g>
                </g>
            </g>
        </g>
    </g>
</svg>