<svg xmlns="http://www.w3.org/2000/svg"  viewBox="0 0 42.526 42.526">
    <defs>
        <style>
            .cls-1{fill:none;stroke:#fefefe;stroke-width:2px}
        </style>
    </defs>
    <g id="user_1_" data-name="user (1)" transform="translate(.999 1)">
        <g id="Group_3375" data-name="Group 3375" transform="translate(.001)">
            <path id="Path_1955" d="M20.264 0a20.263 20.263 0 1 0 20.263 20.263A20.263 20.263 0 0 0 20.264 0zm.062 29.823h-8.78c0-6.33 5.559-6.328 6.793-7.983l.141-.755a6.05 6.05 0 0 1-2.957-5.473c0-3.263 2.123-5.908 4.74-5.908S25 12.349 25 15.611a6.07 6.07 0 0 1-2.912 5.452l.161.858c1.353 1.575 6.728 1.678 6.728 7.9z" class="cls-1" data-name="Path 1955" transform="translate(-.001)"/>
        </g>
    </g>
</svg>
