<svg xmlns="http://www.w3.org/2000/svg" width="748.87" height="379" viewBox="0 0 748.87 379">
  <g id="Group_3417" data-name="Group 3417" transform="translate(-512 -2395)">
    <g id="Group_3416" data-name="Group 3416" transform="translate(289.929 -101.247)" opacity="0.147">
      <g id="C_Sharp_wordmark" transform="translate(463.356 2596.989)">
        <path id="Path_1945" data-name="Path 1945" d="M133.718,178.107a95.753,95.753,0,0,1-45.35,9.588,72.754,72.754,0,0,1-55.78-22.416,82.8,82.8,0,0,1-20.926-58.89,86.747,86.747,0,0,1,23.582-63.3A80.01,80.01,0,0,1,95.236,19.059a95.883,95.883,0,0,1,38.482,6.479V45.945a77.743,77.743,0,0,0-38.871-9.783A59.408,59.408,0,0,0,49.5,54.95a70.81,70.81,0,0,0-17.492,50.209,67.377,67.377,0,0,0,16.326,47.552A55.586,55.586,0,0,0,91.219,170.4a80.463,80.463,0,0,0,42.564-10.949Z" transform="translate(-11.577 -18.989)" fill="#fefefe"/>
        <path id="Path_1946" data-name="Path 1946" d="M161.892,65.138,159.3,77.188H129.5L122.373,111.4h32l-3.045,12.05H119.976l-10.042,45.35H95.617l9.783-45.35H76.894l-9.588,45.35H53.312l9.588-45.35H32.84l2.267-12.05H65.3l6.932-34.142H40.679l2.4-12.05h31.55l9.588-45.8H98.662L89.074,65.2h28.7l9.783-45.8H141.55l-9.588,45.8Zm-46.451,12.05H86.677L79.226,111.4H108.12Z" transform="translate(104.915 -16.739)" fill="#fefefe"/>
      </g>
      <g id="C_Sharp_wordmark-2" data-name="C_Sharp_wordmark" transform="translate(222.071 2653.015)">
        <path id="Path_1945-2" data-name="Path 1945" d="M100.213,134.458A69.486,69.486,0,0,1,67.3,141.416,52.8,52.8,0,0,1,26.825,125.15,60.083,60.083,0,0,1,11.639,82.414,62.951,62.951,0,0,1,28.752,36.482,58.062,58.062,0,0,1,72.287,19.04a69.581,69.581,0,0,1,27.926,4.7V38.55A56.416,56.416,0,0,0,72,31.451,43.111,43.111,0,0,0,39.1,45.085,51.386,51.386,0,0,0,26.4,81.521a48.894,48.894,0,0,0,11.847,34.508,40.338,40.338,0,0,0,31.123,12.835,58.391,58.391,0,0,0,30.888-7.945Z" transform="translate(-11.577 -18.989)" fill="#fefefe"/>
        <path id="Path_1946-2" data-name="Path 1946" d="M126.491,52.592l-1.881,8.745H102.984L97.813,86.159h23.225l-2.21,8.745H96.073l-7.287,32.91H78.4L85.5,94.9H64.809l-6.958,32.91H47.7L54.654,94.9H32.84l1.645-8.745H56.394l5.03-24.776h-22.9l1.74-8.745h22.9L70.122,19.4H80.606L73.648,52.639H94.475l7.1-33.239h10.155l-6.958,33.239ZM92.782,61.336H71.908L66.5,86.159H87.47Z" transform="translate(67.126 -17.469)" fill="#fefefe"/>
      </g>
      <g id="C_Sharp_wordmark-3" data-name="C_Sharp_wordmark" transform="translate(777.324 2653.015)">
        <path id="Path_1945-3" data-name="Path 1945" d="M100.213,134.458A69.486,69.486,0,0,1,67.3,141.416,52.8,52.8,0,0,1,26.825,125.15,60.083,60.083,0,0,1,11.639,82.414,62.951,62.951,0,0,1,28.752,36.482,58.062,58.062,0,0,1,72.287,19.04a69.581,69.581,0,0,1,27.926,4.7V38.55A56.416,56.416,0,0,0,72,31.451,43.111,43.111,0,0,0,39.1,45.085,51.386,51.386,0,0,0,26.4,81.521a48.894,48.894,0,0,0,11.847,34.508,40.338,40.338,0,0,0,31.123,12.835,58.391,58.391,0,0,0,30.888-7.945Z" transform="translate(-11.577 -18.989)" fill="#fefefe"/>
        <path id="Path_1946-3" data-name="Path 1946" d="M126.491,52.592l-1.881,8.745H102.984L97.813,86.159h23.225l-2.21,8.745H96.073l-7.287,32.91H78.4L85.5,94.9H64.809l-6.958,32.91H47.7L54.654,94.9H32.84l1.645-8.745H56.394l5.03-24.776h-22.9l1.74-8.745h22.9L70.122,19.4H80.606L73.648,52.639H94.475l7.1-33.239h10.155l-6.958,33.239ZM92.782,61.336H71.908L66.5,86.159H87.47Z" transform="translate(67.126 -17.469)" fill="#fefefe"/>
      </g>
    </g>
    <rect id="Rectangle_84" data-name="Rectangle 84" width="748.87" height="379" transform="translate(512 2395)" fill="none"/>
  </g>
</svg>
