<svg xmlns="http://www.w3.org/2000/svg" width="16.003" height="21.218" viewBox="0 0 16.003 21.218">
  <defs>
    <style>
      .cls-1 {
        fill: #fff;
      }
    </style>
  </defs>
  <g id="calculator" transform="translate(-62.955)">
    <g id="Group_1386" data-name="Group 1386" transform="translate(62.955)">
      <g id="Group_1385" data-name="Group 1385">
        <path id="Path_1018" data-name="Path 1018" class="cls-1" d="M77.021,0H64.892a1.939,1.939,0,0,0-1.937,1.937V19.282a1.939,1.939,0,0,0,1.937,1.937H77.021a1.939,1.939,0,0,0,1.937-1.937V1.937A1.939,1.939,0,0,0,77.021,0Zm1.234,19.282a1.236,1.236,0,0,1-1.234,1.234H64.892a1.236,1.236,0,0,1-1.234-1.234V1.937A1.236,1.236,0,0,1,64.892.7H77.021a1.236,1.236,0,0,1,1.234,1.234Z" transform="translate(-62.955)"/>
      </g>
    </g>
    <g id="Group_1388" data-name="Group 1388" transform="translate(64.828 1.873)">
      <g id="Group_1387" data-name="Group 1387" transform="translate(0)">
        <path id="Path_1019" data-name="Path 1019" class="cls-1" d="M120.053,45.194H108.5a.351.351,0,0,0-.351.351v4.648a.351.351,0,0,0,.351.351h11.554a.351.351,0,0,0,.351-.351V45.545A.351.351,0,0,0,120.053,45.194Zm-.351,4.648H108.85V45.9H119.7v3.945Z" transform="translate(-108.148 -45.194)"/>
      </g>
    </g>
    <g id="Group_1390" data-name="Group 1390" transform="translate(64.619 8.697)">
      <g id="Group_1389" data-name="Group 1389" transform="translate(0)">
        <path id="Path_1020" data-name="Path 1020" class="cls-1" d="M104.743,209.856h-.451a1.188,1.188,0,0,0-1.186,1.186v.45a1.188,1.188,0,0,0,1.186,1.186h.451a1.188,1.188,0,0,0,1.186-1.186v-.45A1.188,1.188,0,0,0,104.743,209.856Zm.484,1.637a.484.484,0,0,1-.484.484h-.451a.484.484,0,0,1-.484-.484v-.45a.484.484,0,0,1,.484-.484h.451a.484.484,0,0,1,.484.484Z" transform="translate(-103.106 -209.856)"/>
      </g>
    </g>
    <g id="Group_1392" data-name="Group 1392" transform="translate(67.903 8.697)">
      <g id="Group_1391" data-name="Group 1391" transform="translate(0)">
        <path id="Path_1021" data-name="Path 1021" class="cls-1" d="M183.969,209.856h-.45a1.188,1.188,0,0,0-1.186,1.186v.45a1.188,1.188,0,0,0,1.186,1.186h.45a1.188,1.188,0,0,0,1.186-1.186v-.45A1.188,1.188,0,0,0,183.969,209.856Zm.484,1.637a.484.484,0,0,1-.484.484h-.451a.484.484,0,0,1-.484-.484v-.45a.484.484,0,0,1,.484-.484h.451a.484.484,0,0,1,.484.484Z" transform="translate(-182.332 -209.856)"/>
      </g>
    </g>
    <g id="Group_1394" data-name="Group 1394" transform="translate(71.186 8.697)">
      <g id="Group_1393" data-name="Group 1393" transform="translate(0)">
        <path id="Path_1022" data-name="Path 1022" class="cls-1" d="M263.192,209.856h-.451a1.188,1.188,0,0,0-1.186,1.186v.45a1.188,1.188,0,0,0,1.186,1.186h.451a1.188,1.188,0,0,0,1.186-1.186v-.45A1.188,1.188,0,0,0,263.192,209.856Zm.484,1.637a.484.484,0,0,1-.484.484h-.45a.484.484,0,0,1-.484-.484v-.45a.484.484,0,0,1,.484-.484h.45a.484.484,0,0,1,.484.484Z" transform="translate(-261.555 -209.856)"/>
      </g>
    </g>
    <g id="Group_1396" data-name="Group 1396" transform="translate(74.47 8.697)">
      <g id="Group_1395" data-name="Group 1395" transform="translate(0)">
        <path id="Path_1023" data-name="Path 1023" class="cls-1" d="M342.414,209.856h-.451a1.188,1.188,0,0,0-1.186,1.186v.45a1.188,1.188,0,0,0,1.186,1.186h.451a1.188,1.188,0,0,0,1.186-1.186v-.45A1.188,1.188,0,0,0,342.414,209.856Zm.484,1.637a.484.484,0,0,1-.484.484h-.451a.484.484,0,0,1-.484-.484v-.45a.484.484,0,0,1,.484-.484h.451a.484.484,0,0,1,.484.484Z" transform="translate(-340.777 -209.856)"/>
      </g>
    </g>
    <g id="Group_1398" data-name="Group 1398" transform="translate(64.619 12.231)">
      <g id="Group_1397" data-name="Group 1397" transform="translate(0)">
        <path id="Path_1024" data-name="Path 1024" class="cls-1" d="M104.743,295.141h-.451a1.188,1.188,0,0,0-1.186,1.186v.45a1.188,1.188,0,0,0,1.186,1.186h.451a1.188,1.188,0,0,0,1.186-1.186v-.45A1.188,1.188,0,0,0,104.743,295.141Zm.484,1.637a.484.484,0,0,1-.484.484h-.451a.484.484,0,0,1-.484-.484v-.45a.484.484,0,0,1,.484-.484h.451a.484.484,0,0,1,.484.484Z" transform="translate(-103.106 -295.141)"/>
      </g>
    </g>
    <g id="Group_1400" data-name="Group 1400" transform="translate(67.903 12.231)">
      <g id="Group_1399" data-name="Group 1399" transform="translate(0)">
        <path id="Path_1025" data-name="Path 1025" class="cls-1" d="M183.969,295.141h-.45a1.188,1.188,0,0,0-1.186,1.186v.45a1.188,1.188,0,0,0,1.186,1.186h.45a1.188,1.188,0,0,0,1.186-1.186v-.45A1.188,1.188,0,0,0,183.969,295.141Zm.484,1.637a.484.484,0,0,1-.484.484h-.451a.484.484,0,0,1-.484-.484v-.45a.484.484,0,0,1,.484-.484h.451a.484.484,0,0,1,.484.484Z" transform="translate(-182.332 -295.141)"/>
      </g>
    </g>
    <g id="Group_1402" data-name="Group 1402" transform="translate(71.186 12.231)">
      <g id="Group_1401" data-name="Group 1401" transform="translate(0)">
        <path id="Path_1026" data-name="Path 1026" class="cls-1" d="M263.192,295.141h-.451a1.188,1.188,0,0,0-1.186,1.186v.45a1.188,1.188,0,0,0,1.186,1.186h.451a1.188,1.188,0,0,0,1.186-1.186v-.45A1.188,1.188,0,0,0,263.192,295.141Zm.484,1.637a.484.484,0,0,1-.484.484h-.45a.484.484,0,0,1-.484-.484v-.45a.484.484,0,0,1,.484-.484h.45a.484.484,0,0,1,.484.484Z" transform="translate(-261.555 -295.141)"/>
      </g>
    </g>
    <g id="Group_1404" data-name="Group 1404" transform="translate(64.619 15.766)">
      <g id="Group_1403" data-name="Group 1403" transform="translate(0)">
        <path id="Path_1027" data-name="Path 1027" class="cls-1" d="M104.743,380.427h-.451a1.188,1.188,0,0,0-1.186,1.186v.45a1.188,1.188,0,0,0,1.186,1.186h.451a1.188,1.188,0,0,0,1.186-1.186v-.45A1.188,1.188,0,0,0,104.743,380.427Zm.484,1.637a.484.484,0,0,1-.484.484h-.451a.484.484,0,0,1-.484-.484v-.45a.484.484,0,0,1,.484-.484h.451a.484.484,0,0,1,.484.484Z" transform="translate(-103.106 -380.427)"/>
      </g>
    </g>
    <g id="Group_1406" data-name="Group 1406" transform="translate(67.903 15.766)">
      <g id="Group_1405" data-name="Group 1405" transform="translate(0)">
        <path id="Path_1028" data-name="Path 1028" class="cls-1" d="M183.969,380.427h-.45a1.188,1.188,0,0,0-1.186,1.186v.45a1.188,1.188,0,0,0,1.186,1.186h.45a1.188,1.188,0,0,0,1.186-1.186v-.45A1.188,1.188,0,0,0,183.969,380.427Zm.484,1.637a.484.484,0,0,1-.484.484h-.451a.484.484,0,0,1-.484-.484v-.45a.484.484,0,0,1,.484-.484h.451a.484.484,0,0,1,.484.484Z" transform="translate(-182.332 -380.427)"/>
      </g>
    </g>
    <g id="Group_1408" data-name="Group 1408" transform="translate(71.186 15.766)">
      <g id="Group_1407" data-name="Group 1407" transform="translate(0)">
        <path id="Path_1029" data-name="Path 1029" class="cls-1" d="M263.192,380.427h-.451a1.188,1.188,0,0,0-1.186,1.186v.45a1.188,1.188,0,0,0,1.186,1.186h.451a1.188,1.188,0,0,0,1.186-1.186v-.45A1.187,1.187,0,0,0,263.192,380.427Zm.484,1.637a.484.484,0,0,1-.484.484h-.45a.484.484,0,0,1-.484-.484v-.45a.484.484,0,0,1,.484-.484h.45a.484.484,0,0,1,.484.484Z" transform="translate(-261.555 -380.427)"/>
      </g>
    </g>
    <g id="Group_1410" data-name="Group 1410" transform="translate(74.47 12.231)">
      <g id="Group_1409" data-name="Group 1409" transform="translate(0)">
        <path id="Path_1030" data-name="Path 1030" class="cls-1" d="M342.414,295.14h-.451a1.188,1.188,0,0,0-1.186,1.186v3.985a1.188,1.188,0,0,0,1.186,1.186h.451a1.188,1.188,0,0,0,1.186-1.186v-3.985A1.188,1.188,0,0,0,342.414,295.14Zm.484,5.171a.484.484,0,0,1-.484.484h-.451a.484.484,0,0,1-.484-.484v-3.985a.484.484,0,0,1,.484-.484h.451a.484.484,0,0,1,.484.484Z" transform="translate(-340.777 -295.14)"/>
      </g>
    </g>
  </g>
</svg>
