<svg xmlns="http://www.w3.org/2000/svg" width="100" height="100.003" viewBox="0 0 100 100.003">
    <defs>
        <style>
            .cls-1{fill:#fefefe}
        </style>
    </defs>
    <g id="cli" transform="translate(-1.004 -1)">
        <g id="website" transform="translate(1.004 1)">
            <path id="Shape" d="M168.5 154.839a13.653 13.653 0 1 0 13.653 13.653 13.669 13.669 0 0 0-13.653-13.653zm0 20.48a6.827 6.827 0 1 1 6.827-6.827 6.833 6.833 0 0 1-6.827 6.826z" class="cls-1" transform="translate(-92.389 -92.385)"/>
            <path id="Shape-2" d="M0 102.674h6.9v-2.937l4.235-1.4-2-3.951 6.635-6.567 3.994 1.981 1.41-4.192h9.382l1.41 4.192 3.991-1.977 6.635 6.567-2 3.951 4.236 1.4v2.937h7.924c-.08-.261-.168-.519-.237-.783l-4.24-1.4v-9.29l4.24-1.4a23.452 23.452 0 0 1 2.527-6.016l-2-3.965 6.634-6.567 4.006 1.982a24.022 24.022 0 0 1 6.077-2.5l1.413-4.2h9.382l1.414 4.2a23.961 23.961 0 0 1 6.077 2.5l4.006-1.982 6.634 6.567-2 3.965a23.482 23.482 0 0 1 2.527 6.016l.793.259V34.409H0zm58.625-64.852h37.931v3.413H58.625zm0 6.827h37.931v3.413H58.625zm0 6.827h37.931v3.413H58.625zm0 6.827h37.931v3.413H58.625zM56.9 71.955H18.97v-3.414H56.9zM9.271 44.277l2.155-2.667 18.925 14.985-18.924 14.988-2.156-2.666L24.83 56.6z" class="cls-1" data-name="Shape" transform="translate(-.004 -20.756)"/>
            <path id="Shape-3" d="M52.325 183.159a15.012 15.012 0 0 0-.263-.646l-.331-.738 1.845-3.69L50.489 175l-3.69 1.845-.738-.331a12.816 12.816 0 0 0-.646-.263l-.756-.287-1.306-3.918h-4.367l-1.306 3.918-.756.287c-.221.084-.434.171-.646.263l-.738.331L31.851 175l-3.087 3.087 1.845 3.69-.331.738c-.094.212-.179.425-.263.646l-.287.756-3.917 1.306v4.367l3.918 1.306.287.756c.084.221.171.434.263.646l.331.738-1.845 3.69 3.087 3.087 3.69-1.845.739.331c.211.094.424.179.645.263l.756.287 1.306 3.918h4.367l1.306-3.918.756-.287c.221-.084.434-.171.646-.263l.738-.331 3.69 1.845 3.087-3.087-1.845-3.69.331-.738c.094-.212.179-.425.263-.646l.287-.756 3.917-1.306v-4.37l-3.918-1.306zM41.17 195.936a8.533 8.533 0 1 1 8.53-8.536 8.543 8.543 0 0 1-8.53 8.536z" class="cls-1" data-name="Shape" transform="translate(-15.571 -102.762)"/>
            <path id="Shape-4" d="M172.933 148.566a20.328 20.328 0 0 0-2.781-6.692l-.527-.818 1.742-3.483-3.087-3.087-3.483 1.742-.817-.527a20.328 20.328 0 0 0-6.692-2.781l-.949-.206-1.229-3.683h-4.367l-1.229 3.683-.949.206a20.328 20.328 0 0 0-6.692 2.781l-.817.527-3.483-1.742-3.087 3.087 1.742 3.483-.528.818a20.345 20.345 0 0 0-2.78 6.692l-.207.949-3.677 1.227v4.367l3.683 1.229.206.949a20.329 20.329 0 0 0 2.781 6.692l.527.818-1.742 3.483 3.087 3.087 3.483-1.742.817.527a20.344 20.344 0 0 0 6.692 2.78l.949.207 1.229 3.682h4.367l1.228-3.682.949-.207a20.337 20.337 0 0 0 6.692-2.78l.817-.527 3.483 1.742 3.087-3.087-1.742-3.483.527-.818a20.345 20.345 0 0 0 2.78-6.692l.207-.949 3.677-1.229v-4.365l-3.683-1.229zm-20 21.425A17.066 17.066 0 1 1 170 152.925a17.085 17.085 0 0 1-17.071 17.067z" class="cls-1" data-name="Shape" transform="translate(-76.822 -76.818)"/>
            <path id="Shape-5" d="M0 0v10.24h100V0zm6.9 6.827H3.452V3.413H6.9zm6.9 0h-3.451V3.413H13.8zm6.9 0h-3.454V3.413h3.448z" class="cls-1" data-name="Shape" transform="translate(-.004)"/>
        </g>
    </g>
</svg>
