<?xml version="1.0" encoding="UTF-8"?>
<svg width="251px" height="251px" viewBox="0 0 251 251" version="1.1" xmlns="http://www.w3.org/2000/svg" xmlns:xlink="http://www.w3.org/1999/xlink">
    <!-- Generator: Sketch 53.1 (72631) - https://sketchapp.com -->
    <title>website</title>
    <desc>Created with Sketch.</desc>
    <g id="Page-1" stroke="none" stroke-width="1" fill="none" fill-rule="evenodd" fill-opacity="0.4">
        <g id="website" transform="translate(1.000000, 1.000000)" fill="#2979FF" fill-rule="nonzero" stroke="#2979FF">
            <path d="M189.251512,154.83871 C170.278898,154.83871 154.84291,170.274698 154.84291,189.247312 C154.84291,208.219926 170.278898,223.655914 189.251512,223.655914 C208.224126,223.655914 223.660114,208.219926 223.660114,189.247312 C223.660114,170.274698 208.224126,154.83871 189.251512,154.83871 Z M189.251512,206.451613 C179.763105,206.451613 172.047211,198.735719 172.047211,189.247312 C172.047211,179.758904 179.763105,172.043011 189.251512,172.043011 C198.739919,172.043011 206.455813,179.758904 206.455813,189.247312 C206.455813,198.735719 198.739919,206.451613 189.251512,206.451613 Z" id="Shape"></path>
            <path d="M0.00420026882,206.451613 L17.2085011,206.451613 L17.2085011,199.048639 L27.7721774,195.530914 L22.7906586,185.574177 L39.3418177,169.023017 L49.2985548,174.004537 L52.8162801,163.44086 L76.220178,163.44086 L79.7379032,174.004537 L89.6946403,169.023017 L106.2458,185.574177 L101.264281,195.530914 L111.832157,199.052839 L111.832157,206.455813 L131.600723,206.455813 C131.40121,205.798471 131.182796,205.14743 131.010585,204.481687 L120.434308,200.951361 L120.434308,177.547463 L131.010585,174.021338 C132.396673,168.714298 134.507309,163.629872 137.315188,158.860467 L132.318968,148.868027 L148.868027,132.318968 L158.860467,137.315188 C163.629872,134.511509 168.714298,132.396673 174.021338,131.010585 L177.547463,120.434308 L200.951361,120.434308 L204.477487,131.010585 C209.784526,132.396673 214.868952,134.507309 219.638357,137.315188 L229.630796,132.318968 L246.179855,148.868027 L241.183635,158.860467 C243.987315,163.629872 246.104251,168.714298 247.488239,174.021338 L249.466566,174.674479 L249.466566,34.4086022 L0.00420026882,34.4086022 L0.00420026882,206.451613 Z M146.240759,43.0107527 L240.864415,43.0107527 L240.864415,51.6129032 L146.240759,51.6129032 L146.240759,43.0107527 Z M146.240759,60.2150538 L240.864415,60.2150538 L240.864415,68.8172043 L146.240759,68.8172043 L146.240759,60.2150538 Z M146.240759,77.4193548 L240.864415,77.4193548 L240.864415,86.0215054 L146.240759,86.0215054 L146.240759,77.4193548 Z M146.240759,94.6236559 L240.864415,94.6236559 L240.864415,103.225806 L146.240759,103.225806 L146.240759,94.6236559 Z M141.939684,129.032258 L47.316028,129.032258 L47.316028,120.430108 L141.939684,120.430108 L141.939684,129.032258 Z M23.1224796,59.2783935 L28.4988237,52.5558634 L75.7077452,90.3225806 L28.4988237,128.095598 L23.1224796,121.377268 L61.935064,90.3267806 L23.1224796,59.2783935 Z" id="Shape"></path>
            <path d="M92.6327285,200.056704 C92.4206151,199.500168 92.2022011,198.962533 91.969086,198.429099 L91.1353328,196.568381 L95.7850301,187.268985 L88.0040323,179.487987 L78.7046371,184.137685 L76.8439183,183.303931 C76.3104839,183.066616 75.7728495,182.852403 75.216314,182.640289 L73.3114919,181.917843 L70.0205812,172.043011 L59.0158769,172.043011 L55.7249667,181.917843 L53.8201446,182.640289 C53.2636086,182.852403 52.7259742,183.070817 52.1925403,183.303931 L50.3318215,184.137685 L41.0324258,179.487987 L33.251428,187.268985 L37.9011258,196.568381 L37.067372,198.429099 C36.830057,198.962533 36.6158435,199.500168 36.4037301,200.056704 L35.6812839,201.961526 L25.8106516,205.252436 L25.8106516,216.25714 L35.6854839,219.548051 L36.4079301,221.452873 C36.6200435,222.009409 36.8384575,222.547043 37.0715726,223.080477 L37.9053258,224.941196 L33.2556285,234.240591 L41.0366263,242.021589 L50.3360215,237.371892 L52.1988409,238.205645 C52.7301747,238.44296 53.2678091,238.657174 53.8243446,238.869288 L55.7291667,239.591734 L59.0200774,249.466566 L70.0247817,249.466566 L73.3156925,239.591734 L75.220514,238.869288 C75.7770495,238.657174 76.3146839,238.43876 76.8481183,238.205645 L78.7088376,237.371892 L88.0082323,242.021589 L95.7892306,234.240591 L91.1395328,224.941196 L91.973286,223.080477 C92.2106016,222.547043 92.4248151,222.009409 92.636929,221.452873 L93.3593753,219.548051 L103.230006,216.25714 L103.230006,205.252436 L93.3551747,201.961526 L92.6327285,200.056704 Z M64.520329,232.258065 C52.6629704,232.258065 43.0149527,222.610047 43.0149527,210.752688 C43.0149527,198.895329 52.6629704,189.247312 64.520329,189.247312 C76.3776882,189.247312 86.0257054,198.895329 86.0257054,210.752688 C86.0257054,222.610047 76.3776882,232.258065 64.520329,232.258065 Z" id="Shape"></path>
            <path d="M239.665239,178.261509 C238.365255,172.280326 236.004704,166.605763 232.65709,161.39743 L231.329805,159.337198 L235.721186,150.558635 L227.940188,142.777638 L219.161626,147.169019 L217.101395,145.841734 C211.893061,142.494119 206.218498,140.133569 200.237315,138.833585 L197.845262,138.314852 L194.747564,129.032258 L183.74286,129.032258 L180.645161,138.314852 L178.253108,138.833585 C172.271925,140.133569 166.597362,142.494119 161.389029,145.841734 L159.328797,147.169019 L150.550235,142.777638 L142.769237,150.558635 L147.160618,159.337198 L145.831233,161.39743 C142.485719,166.605763 140.125168,172.280326 138.825185,178.261509 L138.304352,180.653562 L129.036458,183.74706 L129.036458,194.751764 L138.319053,197.849462 L138.837785,200.241516 C140.137769,206.222698 142.49832,211.897261 145.845934,217.105595 L147.173219,219.165827 L142.781838,227.944388 L150.562836,235.725387 L159.341398,231.334005 L161.40163,232.66339 C166.609963,236.008904 172.284526,238.369456 178.265709,239.669439 L180.657762,240.190272 L183.75546,249.470766 L194.762265,249.470766 L197.857863,240.190272 L200.249916,239.669439 C206.233199,238.369456 211.905662,236.008904 217.113995,232.66339 L219.174227,231.334005 L227.952789,235.725387 L235.733787,227.944388 L231.342406,219.165827 L232.671791,217.105595 C236.017305,211.897261 238.377856,206.222698 239.677839,200.241516 L240.198673,197.849462 L249.466566,194.751764 L249.466566,183.75126 L240.183972,180.653562 L239.665239,178.261509 Z M189.251512,232.258065 C165.534694,232.258065 146.240759,212.96413 146.240759,189.247312 C146.240759,165.530494 165.534694,146.236559 189.251512,146.236559 C212.96833,146.236559 232.262265,165.530494 232.262265,189.247312 C232.262265,212.96413 212.96833,232.258065 189.251512,232.258065 Z" id="Shape"></path>
            <path d="M0.00420026882,0 L0.00420026882,25.8064516 L249.466566,25.8064516 L249.466566,0 L0.00420026882,0 Z M17.2085011,17.2043011 L8.60635054,17.2043011 L8.60635054,8.60215054 L17.2085011,8.60215054 L17.2085011,17.2043011 Z M34.4128022,17.2043011 L25.8106516,17.2043011 L25.8106516,8.60215054 L34.4128022,8.60215054 L34.4128022,17.2043011 Z M51.6171032,17.2043011 L43.0149527,17.2043011 L43.0149527,8.60215054 L51.6171032,8.60215054 L51.6171032,17.2043011 Z" id="Shape"></path>
        </g>
    </g>
</svg>