<svg xmlns="http://www.w3.org/2000/svg" width="1398.957" height="474.928" viewBox="0 0 1398.957 474.928"><g transform="translate(58.957 48.928)"><rect width="1280" height="400" fill="#fefefe"/><g transform="translate(-133 -86)"><g transform="translate(601.547 162.109)"><circle cx="39.5" cy="39.5" r="39.5" transform="translate(99.784 87.136)" fill="none" stroke="#0037ff" stroke-width="2"/><circle cx="18.5" cy="18.5" r="18.5" transform="translate(305.784 77.136)" fill="none" stroke="#0037ff" stroke-width="2"/><path d="M178.784,119.636l126.5-18.5" fill="none" stroke="#0037ff" stroke-linecap="square" stroke-width="2" fill-rule="evenodd"/><circle cx="18.5" cy="18.5" r="18.5" transform="translate(231.571 193.374) rotate(45)" fill="none" stroke="#0037ff" stroke-width="2"/><path d="M155.379,182.164l71.829-2.513" transform="translate(183.656 -82.057) rotate(45)" fill="none" stroke="#0037ff" stroke-linecap="square" stroke-width="2" fill-rule="evenodd"/><circle cx="18.5" cy="18.5" r="18.5" transform="translate(156.784 46.178) rotate(-60)" fill="none" stroke="#0037ff" stroke-width="2"/><path d="M144.367,73.5l38.6-1.278" transform="translate(18.462 177.98) rotate(-60)" fill="none" stroke="#0037ff" stroke-linecap="square" stroke-width="2" fill-rule="evenodd"/><circle cx="18.5" cy="18.5" r="18.5" transform="translate(74.31 221.486) rotate(135)" fill="none" stroke="#0037ff" stroke-width="2"/><path d="M51.52,182.295l71.829-2.513" transform="translate(276.394 247.103) rotate(135)" fill="none" stroke="#0037ff" stroke-linecap="square" stroke-width="2" fill-rule="evenodd"/><circle cx="18.5" cy="18.5" r="18.5" transform="translate(26.5 52.663) rotate(-135)" fill="none" stroke="#0037ff" stroke-width="2"/><path d="M27.621,73.8l91.76-2.787" transform="translate(73.7 175.129) rotate(-135)" fill="none" stroke="#0037ff" stroke-linecap="square" stroke-width="2" fill-rule="evenodd"/></g><g transform="translate(36)"><circle cx="39.5" cy="39.5" r="39.5" transform="translate(99.784 87.136)" fill="none" stroke="#0037ff" stroke-width="2"/><circle cx="18.5" cy="18.5" r="18.5" transform="translate(305.784 77.136)" fill="none" stroke="#0037ff" stroke-width="2"/><path d="M178.784,119.636l126.5-18.5" fill="none" stroke="#0037ff" stroke-linecap="square" stroke-width="2" fill-rule="evenodd"/><circle cx="18.5" cy="18.5" r="18.5" transform="translate(231.571 193.374) rotate(45)" fill="none" stroke="#0037ff" stroke-width="2"/><path d="M155.379,182.164l71.829-2.513" transform="translate(183.656 -82.057) rotate(45)" fill="none" stroke="#0037ff" stroke-linecap="square" stroke-width="2" fill-rule="evenodd"/><path d="M144.367,73.5l38.6-1.278" transform="translate(18.462 177.98) rotate(-60)" fill="none" stroke="#0037ff" stroke-linecap="square" stroke-width="2" fill-rule="evenodd"/><path d="M51.52,182.295l71.829-2.513" transform="translate(276.394 247.103) rotate(135)" fill="none" stroke="#0037ff" stroke-linecap="square" stroke-width="2" fill-rule="evenodd"/><path d="M27.621,73.8l91.76-2.787" transform="translate(73.7 175.129) rotate(-135)" fill="none" stroke="#0037ff" stroke-linecap="square" stroke-width="2" fill-rule="evenodd"/></g><g transform="translate(1242 162)"><ellipse cx="50.5" cy="51.5" rx="50.5" ry="51.5" transform="translate(129 114)" fill="none" stroke="#0037ff" stroke-width="2"/><circle cx="24.005" cy="24.005" r="24.005" transform="translate(95.993 289.36) rotate(135)" fill="none" stroke="#0037ff" stroke-width="2"/><path d="M64.759,239.12l94.756-5.841" transform="translate(358.448 323.925) rotate(135)" fill="none" stroke="#0037ff" stroke-linecap="square" stroke-width="2" fill-rule="evenodd"/><circle cx="24.005" cy="24.005" r="24.005" transform="translate(34.149 68.569) rotate(-135)" fill="none" stroke="#0037ff" stroke-width="2"/><path d="M33.908,96.638l120.636-4.361" transform="translate(94.061 227.876) rotate(-135)" fill="none" stroke="#0037ff" stroke-linecap="square" stroke-width="2" fill-rule="evenodd"/></g><g transform="translate(994 162)"><circle cx="13.5" cy="13.5" r="13.5" transform="translate(34 30)" fill="none" stroke="#0037ff" stroke-width="2"/><circle cx="6.5" cy="6.5" r="6.5" transform="translate(104 27)" fill="none" stroke="#0037ff" stroke-width="2"/><path d="M61,41.816,103.831,35" fill="none" stroke="#0037ff" stroke-linecap="square" stroke-width="2" fill-rule="evenodd"/><circle cx="6.363" cy="6.363" r="6.363" transform="translate(78.991 67.131) rotate(45)" fill="none" stroke="#0037ff" stroke-width="2"/><path d="M52.562,63.234l25.1-1.169" transform="translate(63.37 -27.69) rotate(45)" fill="none" stroke="#0037ff" stroke-linecap="square" stroke-width="2" fill-rule="evenodd"/><ellipse cx="6.389" cy="6.337" rx="6.389" ry="6.337" transform="translate(53.418 16.03) rotate(-60)" fill="none" stroke="#0037ff" stroke-width="2"/><path d="M48.816,25.707l13.819-.783" transform="translate(5.939 60.917) rotate(-60)" fill="none" stroke="#0037ff" stroke-linecap="square" stroke-width="2" fill-rule="evenodd"/><circle cx="6.363" cy="6.363" r="6.363" transform="translate(25.422 76.806) rotate(135)" fill="none" stroke="#0037ff" stroke-width="2"/><path d="M17.124,63.486,42.243,61.9" transform="translate(95.004 86.038) rotate(135)" fill="none" stroke="#0037ff" stroke-linecap="square" stroke-width="2" fill-rule="evenodd"/><circle cx="6.363" cy="6.363" r="6.363" transform="translate(9.039 18.188) rotate(-135)" fill="none" stroke="#0037ff" stroke-width="2"/><path d="M8.954,25.628,40.93,24.516" transform="translate(24.85 60.437) rotate(-135)" fill="none" stroke="#0037ff" stroke-linecap="square" stroke-width="2" fill-rule="evenodd"/></g><g transform="translate(667 443)" opacity="0.7"><circle cx="13.5" cy="13.5" r="13.5" transform="translate(34 30)" fill="none" stroke="#0037ff" stroke-width="2"/><circle cx="6.5" cy="6.5" r="6.5" transform="translate(104 27)" fill="none" stroke="#0037ff" stroke-width="2"/><path d="M61,41.816,103.831,35" fill="none" stroke="#0037ff" stroke-linecap="square" stroke-width="2" fill-rule="evenodd"/><ellipse cx="6.389" cy="6.337" rx="6.389" ry="6.337" transform="translate(53.418 16.03) rotate(-60)" fill="none" stroke="#0037ff" stroke-width="2"/><path d="M48.816,25.707l13.819-.783" transform="translate(5.939 60.917) rotate(-60)" fill="none" stroke="#0037ff" stroke-linecap="square" stroke-width="2" fill-rule="evenodd"/><circle cx="6.363" cy="6.363" r="6.363" transform="translate(9.039 18.188) rotate(-135)" fill="none" stroke="#0037ff" stroke-width="2"/><path d="M8.954,25.628,40.93,24.516" transform="translate(24.85 60.437) rotate(-135)" fill="none" stroke="#0037ff" stroke-linecap="square" stroke-width="2" fill-rule="evenodd"/></g><g transform="translate(773 43)"><circle cx="13.5" cy="13.5" r="13.5" transform="translate(34 30)" fill="none" stroke="#0037ff" stroke-width="2"/><circle cx="6.363" cy="6.363" r="6.363" transform="translate(78.991 67.131) rotate(45)" fill="none" stroke="#0037ff" stroke-width="2"/><path d="M52.562,63.234l25.1-1.169" transform="translate(63.37 -27.69) rotate(45)" fill="none" stroke="#0037ff" stroke-linecap="square" stroke-width="2" fill-rule="evenodd"/><circle cx="6.363" cy="6.363" r="6.363" transform="translate(25.422 76.806) rotate(135)" fill="none" stroke="#0037ff" stroke-width="2"/><path d="M17.124,63.486,42.243,61.9" transform="translate(95.004 86.038) rotate(135)" fill="none" stroke="#0037ff" stroke-linecap="square" stroke-width="2" fill-rule="evenodd"/></g><g transform="translate(1125 286)" opacity="0.5"><circle cx="13.5" cy="13.5" r="13.5" transform="translate(34 30)" fill="none" stroke="#0037ff" stroke-width="2"/><circle cx="6.5" cy="6.5" r="6.5" transform="translate(104 27)" fill="none" stroke="#0037ff" stroke-width="2"/><path d="M61,41.816,103.831,35" fill="none" stroke="#0037ff" stroke-linecap="square" stroke-width="2" fill-rule="evenodd"/><circle cx="6.363" cy="6.363" r="6.363" transform="translate(78.991 67.131) rotate(45)" fill="none" stroke="#0037ff" stroke-width="2"/><path d="M52.562,63.234l25.1-1.169" transform="translate(63.37 -27.69) rotate(45)" fill="none" stroke="#0037ff" stroke-linecap="square" stroke-width="2" fill-rule="evenodd"/><ellipse cx="6.389" cy="6.337" rx="6.389" ry="6.337" transform="translate(53.418 16.03) rotate(-60)" fill="none" stroke="#0037ff" stroke-width="2"/><path d="M48.816,25.707l13.819-.783" transform="translate(5.939 60.917) rotate(-60)" fill="none" stroke="#0037ff" stroke-linecap="square" stroke-width="2" fill-rule="evenodd"/><circle cx="6.363" cy="6.363" r="6.363" transform="translate(25.422 76.806) rotate(135)" fill="none" stroke="#0037ff" stroke-width="2"/><path d="M17.124,63.486,42.243,61.9" transform="translate(95.004 86.038) rotate(135)" fill="none" stroke="#0037ff" stroke-linecap="square" stroke-width="2" fill-rule="evenodd"/><circle cx="6.363" cy="6.363" r="6.363" transform="translate(9.039 18.188) rotate(-135)" fill="none" stroke="#0037ff" stroke-width="2"/><path d="M8.954,25.628,40.93,24.516" transform="translate(24.85 60.437) rotate(-135)" fill="none" stroke="#0037ff" stroke-linecap="square" stroke-width="2" fill-rule="evenodd"/></g><g transform="translate(379 367)"><circle cx="13.5" cy="13.5" r="13.5" transform="translate(34 30)" fill="none" stroke="#0037ff" stroke-width="2"/><circle cx="6.5" cy="6.5" r="6.5" transform="translate(104 27)" fill="none" stroke="#0037ff" stroke-width="2"/><path d="M61,41.816,103.831,35" fill="none" stroke="#0037ff" stroke-linecap="square" stroke-width="2" fill-rule="evenodd"/><circle cx="6.363" cy="6.363" r="6.363" transform="translate(78.991 67.131) rotate(45)" fill="none" stroke="#0037ff" stroke-width="2"/><path d="M52.562,63.234l25.1-1.169" transform="translate(63.37 -27.69) rotate(45)" fill="none" stroke="#0037ff" stroke-linecap="square" stroke-width="2" fill-rule="evenodd"/><ellipse cx="6.389" cy="6.337" rx="6.389" ry="6.337" transform="translate(53.418 16.03) rotate(-60)" fill="none" stroke="#0037ff" stroke-width="2"/><path d="M48.816,25.707l13.819-.783" transform="translate(5.939 60.917) rotate(-60)" fill="none" stroke="#0037ff" stroke-linecap="square" stroke-width="2" fill-rule="evenodd"/><circle cx="6.363" cy="6.363" r="6.363" transform="translate(25.422 76.806) rotate(135)" fill="none" stroke="#0037ff" stroke-width="2"/><path d="M17.124,63.486,42.243,61.9" transform="translate(95.004 86.038) rotate(135)" fill="none" stroke="#0037ff" stroke-linecap="square" stroke-width="2" fill-rule="evenodd"/><circle cx="6.363" cy="6.363" r="6.363" transform="translate(9.039 18.188) rotate(-135)" fill="none" stroke="#0037ff" stroke-width="2"/><path d="M8.954,25.628,40.93,24.516" transform="translate(24.85 60.437) rotate(-135)" fill="none" stroke="#0037ff" stroke-linecap="square" stroke-width="2" fill-rule="evenodd"/></g><g transform="translate(150 276)"><circle cx="13.5" cy="13.5" r="13.5" transform="translate(34 30)" fill="none" stroke="#0037ff" stroke-width="2"/><circle cx="6.5" cy="6.5" r="6.5" transform="translate(104 27)" fill="none" stroke="#0037ff" stroke-width="2"/><path d="M61,41.816,103.831,35" fill="none" stroke="#0037ff" stroke-linecap="square" stroke-width="2" fill-rule="evenodd"/><circle cx="6.363" cy="6.363" r="6.363" transform="translate(78.991 67.131) rotate(45)" fill="none" stroke="#0037ff" stroke-width="2"/><path d="M52.562,63.234l25.1-1.169" transform="translate(63.37 -27.69) rotate(45)" fill="none" stroke="#0037ff" stroke-linecap="square" stroke-width="2" fill-rule="evenodd"/><ellipse cx="6.389" cy="6.337" rx="6.389" ry="6.337" transform="translate(53.418 16.03) rotate(-60)" fill="none" stroke="#0037ff" stroke-width="2"/><path d="M48.816,25.707l13.819-.783" transform="translate(5.939 60.917) rotate(-60)" fill="none" stroke="#0037ff" stroke-linecap="square" stroke-width="2" fill-rule="evenodd"/><circle cx="6.363" cy="6.363" r="6.363" transform="translate(25.422 76.806) rotate(135)" fill="none" stroke="#0037ff" stroke-width="2"/><path d="M17.124,63.486,42.243,61.9" transform="translate(95.004 86.038) rotate(135)" fill="none" stroke="#0037ff" stroke-linecap="square" stroke-width="2" fill-rule="evenodd"/><circle cx="6.363" cy="6.363" r="6.363" transform="translate(9.039 18.188) rotate(-135)" fill="none" stroke="#0037ff" stroke-width="2"/><path d="M8.954,25.628,40.93,24.516" transform="translate(24.85 60.437) rotate(-135)" fill="none" stroke="#0037ff" stroke-linecap="square" stroke-width="2" fill-rule="evenodd"/></g><g transform="translate(379 200)" opacity="0.9"><circle cx="24" cy="24" r="24" transform="translate(60 53)" fill="none" stroke="#0037ff" stroke-width="2"/><circle cx="11.5" cy="11.5" r="11.5" transform="translate(184 48)" fill="none" stroke="#0037ff" stroke-width="2"/><path d="M108,73.684,183.7,62" fill="none" stroke="#0037ff" stroke-linecap="square" stroke-width="2" fill-rule="evenodd"/><circle cx="11.252" cy="11.252" r="11.252" transform="translate(139.753 118.642) rotate(45)" fill="none" stroke="#0037ff" stroke-width="2"/><path d="M93.005,111.774l44.38-2.09" transform="translate(112.037 -49.024) rotate(45)" fill="none" stroke="#0037ff" stroke-linecap="square" stroke-width="2" fill-rule="evenodd"/><ellipse cx="11.295" cy="11.208" rx="11.295" ry="11.208" transform="translate(94.516 28.33) rotate(-60)" fill="none" stroke="#0037ff" stroke-width="2"/><path d="M86.376,45.43l24.43-1.375" transform="translate(10.547 107.754) rotate(-60)" fill="none" stroke="#0037ff" stroke-linecap="square" stroke-width="2" fill-rule="evenodd"/><circle cx="11.252" cy="11.252" r="11.252" transform="translate(44.97 135.749) rotate(135)" fill="none" stroke="#0037ff" stroke-width="2"/><path d="M30.308,112.2l44.417-2.776" transform="translate(168.005 152.029) rotate(135)" fill="none" stroke="#0037ff" stroke-linecap="square" stroke-width="2" fill-rule="evenodd"/><circle cx="11.252" cy="11.252" r="11.252" transform="translate(15.993 32.155) rotate(-135)" fill="none" stroke="#0037ff" stroke-width="2"/><path d="M15.856,45.311l56.544-2" transform="translate(43.997 106.851) rotate(-135)" fill="none" stroke="#0037ff" stroke-linecap="square" stroke-width="2" fill-rule="evenodd"/></g><g transform="translate(483 10)" opacity="0.9"><circle cx="24" cy="24" r="24" transform="translate(60 53)" fill="none" stroke="#0037ff" stroke-width="2"/><circle cx="11.252" cy="11.252" r="11.252" transform="translate(139.753 118.642) rotate(45)" fill="none" stroke="#0037ff" stroke-width="2"/><path d="M93.005,111.774l44.38-2.09" transform="translate(112.037 -49.024) rotate(45)" fill="none" stroke="#0037ff" stroke-linecap="square" stroke-width="2" fill-rule="evenodd"/><circle cx="11.252" cy="11.252" r="11.252" transform="translate(44.97 135.749) rotate(135)" fill="none" stroke="#0037ff" stroke-width="2"/><path d="M30.308,112.2l44.417-2.776" transform="translate(168.005 152.029) rotate(135)" fill="none" stroke="#0037ff" stroke-linecap="square" stroke-width="2" fill-rule="evenodd"/></g><g transform="translate(903 410)"><circle cx="24" cy="24" r="24" transform="translate(60 53)" fill="none" stroke="#0037ff" stroke-width="2"/><circle cx="11.5" cy="11.5" r="11.5" transform="translate(184 48)" fill="none" stroke="#0037ff" stroke-width="2"/><path d="M108,73.684,183.7,62" fill="none" stroke="#0037ff" stroke-linecap="square" stroke-width="2" fill-rule="evenodd"/><ellipse cx="11.295" cy="11.208" rx="11.295" ry="11.208" transform="translate(94.516 28.33) rotate(-60)" fill="none" stroke="#0037ff" stroke-width="2"/><path d="M86.376,45.43l24.43-1.375" transform="translate(10.547 107.754) rotate(-60)" fill="none" stroke="#0037ff" stroke-linecap="square" stroke-width="2" fill-rule="evenodd"/><circle cx="11.252" cy="11.252" r="11.252" transform="translate(15.993 32.155) rotate(-135)" fill="none" stroke="#0037ff" stroke-width="2"/><path d="M15.856,45.311l56.544-2" transform="translate(43.997 106.851) rotate(-135)" fill="none" stroke="#0037ff" stroke-linecap="square" stroke-width="2" fill-rule="evenodd"/></g><g transform="translate(0 400)"><circle cx="11.5" cy="11.5" r="11.5" transform="translate(184 48)" fill="none" stroke="#0037ff" stroke-width="2"/><path d="M108,73.684,183.7,62" fill="none" stroke="#0037ff" stroke-linecap="square" stroke-width="2" fill-rule="evenodd"/></g></g></g></svg>