<svg xmlns="http://www.w3.org/2000/svg" width="26.667" height="12" viewBox="0 0 26.667 12">
    <defs>
        <style>
            .cls-1{fill:#fff}
        </style>
    </defs>
    <g id="Group_3301" data-name="Group 3301" transform="translate(-517.667 -6507.334)">
        <path id="Polygon_4" d="M5.128 1.549a1 1 0 0 1 1.743 0l4.29 7.627a1 1 0 0 1-.872 1.49H1.71a1 1 0 0 1-.872-1.49z" class="cls-1" data-name="Polygon 4" transform="rotate(-90 3518.5 3000.833)"/>
        <path id="Polygon_5" d="M5.128 1.549a1 1 0 0 1 1.743 0l4.29 7.627a1 1 0 0 1-.872 1.49H1.71a1 1 0 0 1-.872-1.49z" class="cls-1" data-name="Polygon 5" transform="rotate(90 -2981.5 3525.833)"/>
    </g>
</svg>
