<svg xmlns="http://www.w3.org/2000/svg" width="82.299" height="82.297" viewBox="0 0 82.299 82.297">
    <defs>
        <style>
            .cls-1{fill:rgba(255,255,255,.42);stroke:#fefefe;stroke-width:2px}.cls-2{fill:#fefefe;font-size:20.4px;font-family:IRANYekan-Bold,IRANYekan;font-weight:700}
        </style>
    </defs>
    <g id="Group_2661" data-name="Group 2661" transform="translate(-246.916 -977.499)">
        <path id="Path_1309" d="M80.045 35.69a40.182 40.182 0 0 1-.018 9.13 2.235 2.235 0 0 1-2.35 1.968l-.5-.013a8.988 8.988 0 0 0-8.213 5.442 8.9 8.9 0 0 0 2.249 10.016 2.229 2.229 0 0 1 .24 3.051 39.97 39.97 0 0 1-6.5 6.422 2.243 2.243 0 0 1-3.03-.253 9.265 9.265 0 0 0-9.943-2.262 8.923 8.923 0 0 0-5.493 8.562 2.234 2.234 0 0 1-1.988 2.3 39.957 39.957 0 0 1-9.033-.024 2.23 2.23 0 0 1-1.97-2.345 8.9 8.9 0 0 0-5.432-8.714 9.24 9.24 0 0 0-10.001 2.25 2.233 2.233 0 0 1-3.056.242 39.873 39.873 0 0 1-6.351-6.426 2.231 2.231 0 0 1 .244-3.025 8.927 8.927 0 0 0 2.245-9.928 8.8 8.8 0 0 0-8.261-5.5 2.656 2.656 0 0 1-2.633-1.976 40.217 40.217 0 0 1 .017-9.13 2.182 2.182 0 0 1 2.319-1.971 9.282 9.282 0 0 0 8.736-5.427 8.9 8.9 0 0 0-2.244-10.017 2.233 2.233 0 0 1-.24-3.052 39.878 39.878 0 0 1 6.5-6.421 2.239 2.239 0 0 1 3.03.255 9.279 9.279 0 0 0 9.931 2.263 8.933 8.933 0 0 0 5.5-8.566 2.234 2.234 0 0 1 1.988-2.3 40.085 40.085 0 0 1 9.032.024 2.227 2.227 0 0 1 1.97 2.345 8.918 8.918 0 0 0 5.423 8.717A9.254 9.254 0 0 0 62.228 9.08a2.234 2.234 0 0 1 3.051-.246 39.728 39.728 0 0 1 6.36 6.423 2.23 2.23 0 0 1-.244 3.027 8.865 8.865 0 0 0 6.068 15.429 2.614 2.614 0 0 1 2.582 1.977zM40.51 66.069a25.56 25.56 0 1 0 0-51.119 26.837 26.837 0 0 0-5.651.627 25.563 25.563 0 0 0 5.651 50.492z" class="cls-1" data-name="Path 1309" transform="translate(247.918 978.5)"/>
        <g id="Group_2378" data-name="Group 2378" transform="translate(269.664 1000.156)">
            <path id="Path_1312" d="M18.865 37.73A18.865 18.865 0 1 0 0 18.865 18.865 18.865 0 0 0 18.865 37.73z" class="cls-1" data-name="Path 1312"/>
        </g>
        <text id="_" class="cls-2" data-name="$" transform="translate(270.091 1002.161)">
            <tspan x="12.397" y="24">$</tspan>
        </text>
    </g>
</svg>
