<?xml version="1.0" encoding="UTF-8"?>
<svg width="40px" height="43px" viewBox="0 0 40 43" version="1.1" xmlns="http://www.w3.org/2000/svg" xmlns:xlink="http://www.w3.org/1999/xlink">
    <!-- Generator: Sketch 53.1 (72631) - https://sketchapp.com -->
    <title>Artboard</title>
    <desc>Created with Sketch.</desc>
    <g id="Artboard" stroke="none" stroke-width="1" fill="none" fill-rule="evenodd">
        <g id="icons8-elasticsearch" transform="translate(3.000000, 3.000000)" fill="#FEFEFE" fill-rule="nonzero">
            <path d="M30.2222222,18.8888889 C30.2222222,15.759 27.6854444,13.2222222 24.5555556,13.2222222 L0.867,13.2222222 C0.305055556,15.011 0,16.9140556 0,18.8888889 C0,20.8637222 0.305055556,22.7667778 0.867,24.5555556 L24.5555556,24.5555556 C27.6854444,24.5555556 30.2222222,22.0187778 30.2222222,18.8888889 Z" id="Path"></path>
            <path d="M18.8418301,37.7777778 C25.0403948,37.7777778 30.5330223,34.8188333 34,30.2524444 C31.9867016,28.4759444 29.3453758,27.3888889 26.4427678,27.3888889 L1.88888889,27.3888889 C5.02047519,33.5466667 11.4271155,37.7777778 18.8418301,37.7777778 Z" id="Path"></path>
            <path d="M18.845844,0 C11.4284235,0 5.02121664,4.23111111 1.88888889,10.3888889 L26.4485812,10.3888889 C29.3480751,10.3888889 31.9871753,9.30466667 34,7.53288889 C30.5341022,2.96366667 25.0468265,0 18.845844,0 Z" id="Path"></path>
            <path d="M16.0555556,10.3888889 C14.6199114,7.39635206 12.4071407,4.80021305 9.65351269,2.83333333 C6.32391903,4.56113006 3.61014363,7.19993073 1.88888889,10.3888889 L16.0555556,10.3888889 Z" id="Path"></path>
            <path d="M9.65351269,34.9444444 C12.4071407,32.9775647 14.6189626,30.3814257 16.0555556,27.3888889 L1.88888889,27.3888889 C3.61014363,30.5778471 6.32391903,33.2166477 9.65351269,34.9444444 Z" id="Path"></path>
            <path d="M0.876444444,13.2222222 C0.313555556,15.0119444 0,16.9121667 0,18.8888889 C0,20.8656111 0.313555556,22.7658333 0.876444444,24.5555556 L17.153,24.5555556 C17.6639444,22.7535556 17.9444444,20.8542778 17.9444444,18.8888889 C17.9444444,16.9235 17.6639444,15.0242222 17.1539444,13.2222222 L0.876444444,13.2222222 Z" id="Path"></path>
        </g>
    </g>
</svg>