<?xml version="1.0" encoding="UTF-8"?>
<svg width="39px" height="42px" viewBox="0 0 39 42" version="1.1" xmlns="http://www.w3.org/2000/svg" xmlns:xlink="http://www.w3.org/1999/xlink">
    <!-- Generator: Sketch 53.1 (72631) - https://sketchapp.com -->
    <title>download copy</title>
    <desc>Created with Sketch.</desc>
    <g id="Page-1" stroke="none" stroke-width="1" fill="none" fill-rule="evenodd">
        <g id="download-copy" transform="translate(1.000000, 1.000000)">
            <path d="M1.16535433,0 L31.4645669,0 L37,3.45323741 L37,38.8489209 C37,39.5683453 36.5629921,40 35.8346457,40 L1.16535433,40 C0.437007874,40 0,39.5683453 0,38.8489209 L0,1.15107914 C0,0.431654676 0.437007874,0 1.16535433,0 Z" id="path13" stroke="#FEFEFE" stroke-width="2"></path>
            <path d="M1.16535433,0 L31.4645669,0 L37,3.42857143 L37,3.71428571 L31.6102362,0.428571429 L1.16535433,0.428571429 C0.582677165,0.428571429 0.145669291,0.857142857 0.145669291,1.42857143 L0.145669291,39 C0,38.8571429 0,38.7142857 0,38.5714286 L0,1.14285714 C0,0.428571429 0.437007874,0 1.16535433,0 Z" id="path15" fill="#FEFEFE"></path>
            <polygon id="polygon21" fill="#FEFEFE" points="4 37 33 37 33 39 4 39"></polygon>
            <path d="M22.8181818,2 L24.1818182,2 C24.5909091,2 25,2.31372549 25,2.78431373 L25,9.05882353 C25,9.52941176 24.5909091,10 24.1818182,10 L22.8181818,10 C22.4090909,10 22,9.52941176 22,9.05882353 L22,2.78431373 C22,2.31372549 22.4090909,2 22.8181818,2 Z" id="path23" fill="#FEFEFE"></path>
            <path d="M4.5,2 C5.97058824,2 7,3.06060606 7,4.57575758 C7,5.93939394 5.97058824,7 4.5,7 C3.17647059,7 2,5.93939394 2,4.57575758 C2,3.06060606 3.17647059,2 4.5,2 Z" id="path25" fill="#FEFEFE"></path>
            <path d="M6.43859649,34 L30.5614035,34 C30.8538012,34 31,34.1666667 31,34.5 C31,34.6666667 30.8538012,35 30.5614035,35 L6.43859649,35 C6.14619883,35 6,34.6666667 6,34.5 C6,34.1666667 6.14619883,34 6.43859649,34 Z" id="path27" fill="#FEFEFE"></path>
            <path d="M6.43859649,30 L30.5614035,30 C30.8538012,30 31,30.2 31,30.6 L31,30.6 C31,30.8 30.8538012,31 30.5614035,31 L6.43859649,31 C6.14619883,31 6,30.8 6,30.6 L6,30.6 C6,30.2 6.14619883,30 6.43859649,30 Z" id="path29" fill="#FEFEFE"></path>
            <path d="M6.43859649,25 L30.5614035,25 C30.8538012,25 31,25.3333333 31,25.5 L31,25.5 C31,25.8333333 30.8538012,26 30.5614035,26 L6.43859649,26 C6.14619883,26 6,25.8333333 6,25.5 L6,25.5 C6,25.3333333 6.14619883,25 6.43859649,25 Z" id="path31" fill="#FEFEFE"></path>
            <path d="M2,38 C2.6,38 3,38.2222222 3,38.5555556 C3,38.7777778 2.6,39 2,39 C1.4,39 1,38.7777778 1,38.5555556 C1,38.2222222 1.4,38 2,38 Z" id="path33" fill="#FEFEFE"></path>
            <path d="M35,38 C35.6,38 36,38.2222222 36,38.5555556 C36,38.7777778 35.6,39 35,39 C34.4,39 34,38.7777778 34,38.5555556 C34,38.2222222 34.4,38 35,38 Z" id="path35" fill="#FEFEFE"></path>
            <polygon id="polygon37" fill="#FEFEFE" points="12 0 9 0 9 14 12 14"></polygon>
            <path d="M37,38 L37,38.4 C37,39.4 36.5629921,40 35.8346457,40 L1.16535433,40 C0.437007874,40 0,39.4 0,38.4 L0,38 C0,38.8 0.437007874,39.6 1.16535433,39.6 L35.8346457,39.6 C36.5629921,39.6 37,38.8 37,38 Z" id="path39"></path>
        </g>
    </g>
</svg>