<svg xmlns="http://www.w3.org/2000/svg" width="17.239" height="19.359" viewBox="0 0 17.239 19.359">
  <path id="Path_1758" data-name="Path 1758" d="M43.87,1.41a4.828,4.828,0,0,0-6.82,0L29.869,8.591a.567.567,0,0,0,.8.8l7.181-7.181a3.777,3.777,0,0,1,5.216,0,3.692,3.692,0,0,1,0,5.215L33.041,17.567a2.323,2.323,0,0,1-3.209,0,2.272,2.272,0,0,1,0-3.209l9.626-9.739a.872.872,0,0,1,1.2,0,.852.852,0,0,1,0,1.2l-9.224,9.338a.632.632,0,0,0,0,.8.567.567,0,0,0,.8,0l9.224-9.338a1.988,1.988,0,0,0,0-2.808,2.034,2.034,0,0,0-2.808,0l-9.626,9.739a3.426,3.426,0,0,0,0,4.813,3.422,3.422,0,0,0,4.814,0L43.87,8.23A4.827,4.827,0,0,0,43.87,1.41Z" transform="translate(-28.042 0)" fill="#000000"/>
</svg>
