<?xml version="1.0" encoding="UTF-8"?>
<svg width="62px" height="62px" viewBox="0 0 62 62" version="1.1" xmlns="http://www.w3.org/2000/svg" xmlns:xlink="http://www.w3.org/1999/xlink">
    <!-- Generator: Sketch 62 (91390) - https://sketch.com -->
    <title>Group 43</title>
    <desc>Created with Sketch.</desc>
    <defs>
        <path d="M31,0 C48.1208272,0 62,13.8791728 62,31 C62,48.1208272 48.1208272,62 31,62 C13.8791728,62 0,48.1208272 0,31 C0,13.8791728 13.8791728,0 31,0 Z M31,8 C18.2974508,8 8,18.2974508 8,31 C8,43.7025492 18.2974508,54 31,54 C42.9948237,54 52.8450843,44.8180339 53.9054693,33.0994141 C53.9680348,32.4079853 54,31.7077256 54,31 C54,30.1394362 53.9527378,29.289911 53.8606674,28.4538786 C52.5937117,16.9494633 42.8419854,8 31,8 Z" id="path-1"></path>
        <mask id="mask-2" maskContentUnits="userSpaceOnUse" maskUnits="objectBoundingBox" x="0" y="0" width="62" height="62" fill="white">
            <use xlink:href="#path-1"></use>
        </mask>
        <rect id="path-3" x="0" y="13.375" width="30" height="7" rx="3.5"></rect>
        <mask id="mask-4" maskContentUnits="userSpaceOnUse" maskUnits="objectBoundingBox" x="0" y="0" width="30" height="7" fill="white">
            <use xlink:href="#path-3"></use>
        </mask>
        <rect id="path-5" x="0" y="0.375" width="30" height="7" rx="3.5"></rect>
        <mask id="mask-6" maskContentUnits="userSpaceOnUse" maskUnits="objectBoundingBox" x="0" y="0" width="30" height="7" fill="white">
            <use xlink:href="#path-5"></use>
        </mask>
    </defs>
    <g id="Page-1" stroke="none" stroke-width="1" fill="none" fill-rule="evenodd" fill-opacity="0.3">
        <g id="Group-43" fill="#FEFEFE" stroke="#FEFEFE" stroke-width="4">
            <use id="Combined-Shape" mask="url(#mask-2)" stroke-linecap="round" stroke-dasharray="188" xlink:href="#path-1"></use>
            <g id="Group-42" transform="translate(16.000000, 20.000000)">
                <use id="Rectangle" mask="url(#mask-4)" stroke-dasharray="65" xlink:href="#path-3"></use>
                <use id="Rectangle-Copy-53" mask="url(#mask-6)" stroke-dasharray="60" xlink:href="#path-5"></use>
            </g>
        </g>
    </g>
</svg>