<?xml version="1.0" encoding="UTF-8"?>
<svg width="62px" height="41px" viewBox="0 0 62 41" version="1.1" xmlns="http://www.w3.org/2000/svg" xmlns:xlink="http://www.w3.org/1999/xlink">
    <!-- Generator: Sketch 62 (91390) - https://sketch.com -->
    <title>credit-card</title>
    <desc>Created with Sketch.</desc>
    <g id="Page-1" stroke="none" stroke-width="1" fill="none" fill-rule="evenodd" fill-opacity="0.3">
        <g id="credit-card" fill="#FEFEFE" fill-rule="nonzero" stroke="#FEFEFE" stroke-width="2">
            <path d="M53.6336485,40 L8.36635154,40 C6.33275542,40 4.49192966,39.1711073 3.15935008,37.8316729 C1.82491829,36.4903768 1,34.6372661 1,32.5906119 L1,16.4625023 L60.5449823,16 L61,32.5906119 C61,34.6372661 60.1750817,36.4903768 58.8406499,37.8316729 C57.5080703,39.1711073 55.6672446,40 53.6336485,40 Z M15.4798116,28.7000183 C16.4596762,28.7000183 17.3470098,28.3012022 17.9892235,27.6556849 C18.629585,27.0120294 19.0260925,26.1229471 19.0260925,25.1406393 C19.0260925,24.1583314 18.629585,23.2692492 17.9892235,22.6255937 C17.3470098,21.9800764 16.4596762,21.5812603 15.4798116,21.5812603 L11.5997645,21.5812603 C10.6198999,21.5812603 9.73256641,21.9800764 9.09035266,22.6255937 C8.44999114,23.2692492 8.05348363,24.1583314 8.05348363,25.1406393 C8.05348363,26.1229471 8.44999114,27.0120294 9.09035266,27.6556849 C9.73256641,28.3012022 10.6198999,28.7000183 11.5997645,28.7000183 L15.4798116,28.7000183 Z" id="Shape"></path>
            <path d="M8.36635154,1 L53.6336485,1 C55.6611833,1 57.4935712,1.87887734 58.8211639,3.29028837 C60.17024,4.72453915 61,6.7071963 61,8.89456599 L61,9.45311896 L1.45501766,10 L1,8.89456599 C1,6.7071963 1.82976005,4.72453915 3.17883613,3.29028837 C4.50642882,1.87887734 6.33881669,1 8.36635154,1 Z" id="Path"></path>
        </g>
    </g>
</svg>