<?xml version="1.0" encoding="UTF-8"?>
<svg width="316px" height="385px" viewBox="0 0 316 385" version="1.1" xmlns="http://www.w3.org/2000/svg" xmlns:xlink="http://www.w3.org/1999/xlink">
    <!-- Generator: Sketch 62 (91390) - https://sketch.com -->
    <title>ic-download</title>
    <desc>Created with Sketch.</desc>
    <g id="Page-1" stroke="none" stroke-width="1" fill="none" fill-rule="evenodd">
        <g id="ic-download" fill="#FEFEFE" fill-rule="nonzero">
            <path d="M158,285 C169.046,285 178,276.046 178,265 L178,20 C178,8.954 169.046,0 158,0 C146.954,0 138,8.954 138,20 L138,265 C138,276.046 146.954,285 158,285 Z" id="Path"></path>
            <path d="M114.472,367.324 C114.506,367.358 114.539,367.392 114.573,367.426 C126.274,379.127 141.642,384.975 157.01,384.975 C172.366,384.975 187.72,379.133 199.398,367.454 L310.114,257.17 C317.94,249.375 317.965,236.712 310.17,228.886 C302.375,221.061 289.712,221.035 281.886,228.83 L171.142,339.142 C167.364,342.919 162.342,345 157,345 C151.677,345 146.671,342.935 142.898,339.183 L34.243,228.959 C26.489,221.092 13.825,221.002 5.959,228.756 C-1.907,236.51 -1.998,249.173 5.756,257.04 L114.472,367.324 Z" id="Path"></path>
        </g>
    </g>
</svg>