<svg xmlns="http://www.w3.org/2000/svg" width="82.041" height="102.051" viewBox="0 0 82.041 102.051">
    <defs>
        <style>
            .cls-1,.cls-3,.cls-4{fill:rgba(41,121,255,.21)}.cls-1{clip-rule:evenodd}.cls-2{clip-path:url(#clip-path)}.cls-4{stroke:#2979ff;stroke-width:2px}.cls-5{clip-path:url(#clip-path-2)}.cls-6{clip-path:url(#clip-path-3)}.cls-7{clip-path:url(#clip-path-4)}
        </style>
        <clipPath id="clip-path">
            <path id="Path_1385" d="M1.681-15C5.147-2.806 21.442 6.425 41.02 6.425S76.894-2.806 80.36-15a17.686 17.686 0 0 1 .681 4.851c0 14.512-17.918 26.276-40.02 26.276S1 4.363 1-10.149A17.686 17.686 0 0 1 1.681-15z" class="cls-1" data-name="Path 1385" transform="translate(-1 15)"/>
        </clipPath>
        <clipPath id="clip-path-2">
            <path id="Path_1388" d="M1.681-22C5.147-9.806 21.442-.575 41.02-.575S76.894-9.806 80.36-22a17.686 17.686 0 0 1 .681 4.851c0 14.512-17.918 26.276-40.02 26.276S1-2.637 1-17.149A17.686 17.686 0 0 1 1.681-22z" class="cls-1" data-name="Path 1388" transform="translate(-1 22)"/>
        </clipPath>
        <clipPath id="clip-path-3">
            <path id="Path_1391" d="M1.681-29C5.147-16.806 21.442-7.575 41.02-7.575S76.894-16.806 80.36-29a17.686 17.686 0 0 1 .681 4.851c0 14.512-17.918 26.276-40.02 26.276S1-9.637 1-24.149A17.686 17.686 0 0 1 1.681-29z" class="cls-1" data-name="Path 1391" transform="translate(-1 29)"/>
        </clipPath>
        <clipPath id="clip-path-4">
            <path id="Path_1394" d="M41.02 7.36c22.1 0 40.02-11.945 40.02-26.68S63.123-46 41.02-46 1-34.055 1-19.32 18.918 7.36 41.02 7.36z" class="cls-1" data-name="Path 1394" transform="translate(-1 46)"/>
        </clipPath>
    </defs>
    <g id="Group_2496" data-name="Group 2496" transform="translate(0 47)">
        <g id="Group_2488" class="cls-2" data-name="Group 2488" transform="translate(1 22.924)">
            <path id="Path_1384" d="M-4-20H98.274v53.36H-4z" class="cls-3" data-name="Path 1384" transform="translate(-7.117 8.883)"/>
        </g>
        <g id="Group_2489" data-name="Group 2489" transform="translate(1 22.924)">
            <path id="Path_1386" d="M.681 0C4.147 12.194 20.442 21.425 40.02 21.425S75.894 12.194 79.36 0a17.686 17.686 0 0 1 .681 4.851c0 14.512-17.918 26.276-40.02 26.276S0 19.363 0 4.851A17.686 17.686 0 0 1 .681 0z" class="cls-4" data-name="Path 1386"/>
        </g>
        <g id="Group_2490" class="cls-5" data-name="Group 2490" transform="translate(1 7.36)">
            <path id="Path_1387" d="M-4-27H98.274v53.36H-4z" class="cls-3" data-name="Path 1387" transform="translate(-7.117 15.883)"/>
        </g>
        <g id="Group_2491" data-name="Group 2491" transform="translate(1 7.36)">
            <path id="Path_1389" d="M.681 0C4.147 12.194 20.442 21.425 40.02 21.425S75.894 12.194 79.36 0a17.686 17.686 0 0 1 .681 4.851c0 14.512-17.918 26.276-40.02 26.276S0 19.363 0 4.851A17.686 17.686 0 0 1 .681 0z" class="cls-4" data-name="Path 1389"/>
        </g>
        <g id="Group_2492" class="cls-6" data-name="Group 2492" transform="translate(1 -8.203)">
            <path id="Path_1390" d="M-4-34H98.274v53.36H-4z" class="cls-3" data-name="Path 1390" transform="translate(-7.117 22.883)"/>
        </g>
        <g id="Group_2493" data-name="Group 2493" transform="translate(1 -8.203)">
            <path id="Path_1392" d="M.681 0C4.147 12.194 20.442 21.425 40.02 21.425S75.894 12.194 79.36 0a17.686 17.686 0 0 1 .681 4.851c0 14.512-17.918 26.276-40.02 26.276S0 19.363 0 4.851A17.686 17.686 0 0 1 .681 0z" class="cls-4" data-name="Path 1392"/>
        </g>
        <g id="Group_2494" class="cls-7" data-name="Group 2494" transform="translate(1 -46)">
            <path id="Path_1393" d="M-4-51H98.274v75.594H-4z" class="cls-3" data-name="Path 1393" transform="translate(-7.117 39.883)"/>
        </g>
        <g id="Group_2495" data-name="Group 2495" transform="translate(1 -46)">
            <path id="Path_1395" d="M40.02 53.36c22.1 0 40.02-11.945 40.02-26.68S62.123 0 40.02 0 0 11.945 0 26.68s17.918 26.68 40.02 26.68z" class="cls-4" data-name="Path 1395"/>
        </g>
    </g>
</svg>
