<?xml version="1.0" encoding="UTF-8"?>
<svg width="24px" height="24px" viewBox="0 0 24 24" version="1.1" xmlns="http://www.w3.org/2000/svg" xmlns:xlink="http://www.w3.org/1999/xlink">
    <!-- Generator: Sketch 53.1 (72631) - https://sketchapp.com -->
    <title>ic-fandogh-mini</title>
    <desc>Created with Sketch.</desc>
    <g id="Page-1" stroke="none" stroke-width="1" fill="none" fill-rule="evenodd">
        <g id="ic-fandogh-mini" fill="#FFFFFF" fill-rule="nonzero">
            <path d="M21.4882368,5.00788022 C21.4881093,4.66002386 21.4151877,4.31604743 21.2741648,3.99808716 C21.457092,3.9224387 21.6334238,3.83172262 21.8013422,3.72687416 C22.8554163,3.07130903 23.4688565,1.89335827 23.4018806,0.653460379 C23.3878763,0.28857793 23.0881396,-5.55547825e-17 22.7231523,0 C22.3581649,5.55547825e-17 22.0584283,0.28857793 22.044424,0.653460379 C22.1075921,1.40808017 21.7543691,2.13709773 21.123114,2.55495376 C20.8790938,2.71083557 20.6105869,2.82451171 20.3288468,2.89121785 C19.9201533,2.62839329 19.4442281,2.48937458 18.9583858,2.49090346 C18.5182385,2.49122266 18.0856926,2.60570056 17.7029634,2.82316441 C15.423652,0.511234762 12.1088531,-0.452511816 8.94601744,0.277164847 C7.63249709,0.588336266 6.3860355,1.13454395 5.26677969,1.88943108 C5.08028374,1.99317685 4.90754239,2.11993317 4.75260671,2.2667274 L4.75260671,2.2667274 C3.91016866,3.06369105 3.72362347,4.33450629 4.30145494,5.34014117 C2.97713209,6.75017969 1.92778288,8.39534002 1.20741405,10.1909509 C0.57960571,11.7807736 0.213406381,13.4618565 0.123049254,15.1688604 C0.0279531921,16.7474033 0.159671695,18.3314318 0.514180837,19.8725545 C0.179439381,20.3088244 -0.00137393871,20.8437656 7.861405e-06,21.3937492 C0.00282018069,22.3075541 0.497583905,23.1489444 1.29459698,23.5953147 C2.09161005,24.041685 3.06719829,24.0237711 3.84730215,23.5484415 C5.12189854,23.8548092 6.42876076,24.0063537 7.73961159,23.999796 C8.05271692,23.999796 8.37782629,23.9917897 8.71093836,23.9707732 C10.4222068,23.8799666 12.1076852,23.513996 13.7026176,22.8869219 C15.504545,22.1695153 17.1557255,21.119835 18.5702552,19.7924917 C18.9517353,20.0094572 19.3828617,20.1239242 19.8216762,20.1247526 C20.5678434,20.1262496 21.2761781,19.7963026 21.7553267,19.2240452 L21.7633294,19.2240452 C22.723827,17.9909437 23.4063264,16.564562 23.7640024,15.0427614 C24.4946424,11.8566073 23.5026682,8.52043581 21.1501231,6.25185721 C21.3719912,5.87490798 21.4887514,5.44532753 21.4882368,5.00788022 L21.4882368,5.00788022 Z M18.9573854,3.8379614 C19.6028303,3.83961855 20.1248797,4.36414058 20.1237761,5.00987666 C20.1226725,5.65561274 19.5988334,6.17834574 18.9533866,6.17779477 C18.3079399,6.1772438 17.7849931,5.65361725 17.784991,5.00788022 C17.7877432,4.36188632 18.311676,3.83950704 18.9573854,3.83896219 L18.9573854,3.8379614 Z M6.5021953,2.92324301 C7.14750796,2.9254521 7.66905513,3.45021675 7.66758432,4.09582146 C7.66611351,4.74142617 7.14218075,5.26380689 6.49686473,5.26307305 C5.85154871,5.2623392 5.32880433,4.73876821 5.32880055,4.09316183 C5.32665517,3.78908184 5.44498949,3.49653161 5.65791127,3.27952282 C5.70692776,3.24249374 5.81396377,3.15642614 5.98302064,3.04133575 C6.14362311,2.95953712 6.32202925,2.91895642 6.5021953,2.92324301 Z M2.53085928,22.5596649 C2.05761153,22.5592571 1.63126473,22.2735239 1.4508172,21.8358319 C1.27036967,21.3981398 1.37140036,20.894789 1.70675298,20.5607195 C2.0421056,20.22665 2.54565844,20.1277305 2.98237711,20.3101319 C3.41909578,20.4925333 3.70287217,20.9202915 3.70125302,21.3937492 C3.69686452,22.0377906 3.17462426,22.5580327 2.53085928,22.5596649 Z M13.2344601,21.6159237 C11.782071,22.1902044 10.2471252,22.528078 8.68793062,22.6167097 C7.40723609,22.6915172 6.12219739,22.6115442 4.86064306,22.3785227 C4.99420739,22.0660831 5.06229949,21.729557 5.06071036,21.3897461 C5.05855762,20.5745907 4.66394949,19.8104098 4.00068471,19.3369467 C3.33741993,18.8634835 2.4867623,18.7387472 1.71558501,19.0018707 C1.4859193,17.7643105 1.40565104,16.5036334 1.47650458,15.2469217 C1.55862242,13.6827233 1.89375037,12.1421996 2.46883841,10.6853391 C3.12062051,9.05840729 4.07057464,7.56766689 5.2697807,6.28988708 C6.05516101,6.72782941 7.01399384,6.71525265 7.78762774,6.25686114 C9.14137989,6.82416042 10.4225505,7.55121125 11.6039116,8.42256202 C12.8744473,9.34702612 14.020896,10.431092 15.0150592,11.6480953 C16.1429251,13.034996 17.0415942,14.5935918 17.6769547,16.264721 C17.42604,16.6643539 17.2932185,17.1268357 17.2938258,17.5987688 C17.292194,18.0287591 17.4028854,18.4517145 17.6149338,18.8257324 C16.3405607,20.0202636 14.8546597,20.9665086 13.2334598,21.6159237 L13.2344601,21.6159237 Z M8.73370062,21.8963432 C7.50877832,21.9671872 7.08726941,21.9224792 5.88065378,21.7018033 C6.0084016,21.405917 5.76566906,21.4446076 5.76566906,21.0968779 C5.76566906,20.34097 5.06540869,19.2387227 4.43102804,18.7903439 C3.7966474,18.3419651 2.98303457,17.8586387 2.24544085,18.1078218 C2.02577672,16.9358283 2.30990627,16.4680436 2.37767425,15.2779132 C2.45621598,13.796587 2.77674964,12.3376812 3.3267935,10.9580061 C3.95019151,9.41727008 4.31742325,8.54686338 5.46440576,7.33678112 C6.215584,7.751521 7.13266116,7.73961057 7.87260452,7.30550492 C9.16740289,7.84274834 10.2123294,8.35082845 11.3422441,9.17601453 C12.5574499,10.0515 13.4735215,10.8976802 14.4243904,12.0502059 C15.5031395,13.3636279 16.1822219,14.6591972 16.7899134,16.241789 C16.5499257,16.620249 16.4228884,17.0582283 16.4234692,17.505158 C16.4219085,17.9123672 16.5277795,18.132463 16.7305934,18.4866652 C15.5117172,19.6179094 14.6318783,20.1531196 13.0812791,20.7681283 C11.693096,21.3119832 10.2249947,21.8124072 8.73370062,21.8963432 Z M19.8266779,18.77169 C19.181233,18.7700328 18.6591836,18.2455108 18.6602872,17.5997747 C18.6613907,16.9540386 19.1852299,16.4313056 19.8306766,16.4318566 C20.4761234,16.4324076 20.9990702,16.9560341 20.9990723,17.6017711 C20.9968677,18.2485465 20.4721661,18.7716937 19.8256775,18.77169 L19.8266779,18.77169 Z M22.4565626,14.6964894 C22.3356621,15.2259447 22.16829,15.7436917 21.9563943,16.2437045 C21.4902406,15.5203451 20.6889565,15.0831532 19.8286785,15.0827928 C19.4609278,15.0839356 19.0976778,15.1637841 18.7633201,15.3169767 C18.0869948,13.6791141 17.1732173,12.1498471 16.0514078,10.7784122 C14.978718,9.46685127 13.7406622,8.29989167 12.3681687,7.30668565 C11.2443819,6.48481013 10.0373444,5.78340754 8.7669572,5.21404214 C8.94018555,4.86760847 9.03026755,4.48553028 9.03004571,4.09816576 C9.03095969,3.26385654 8.61890324,2.48322088 7.92967553,2.01352854 C8.36020426,1.84228535 8.80291793,1.70345701 9.25412109,1.59820235 C10.4597874,1.30738046 11.7180985,1.31459366 12.9203545,1.61921886 C14.3529113,2.01660181 15.66564,2.76073547 16.7426403,3.78592053 C16.5315783,4.16033879 16.4209564,4.58302844 16.4215323,5.01288415 C16.425393,6.4083642 17.5575252,7.53742356 18.9523837,7.53686642 C19.3842763,7.53604778 19.8089353,7.42587604 20.186799,7.21661491 C22.19848,9.14139984 23.0584824,11.9779886 22.4545619,14.6964894 L22.4565626,14.6964894 Z M21.9244161,14.223977 C21.8094462,14.7274605 22.0111866,14.6784568 21.8096852,15.1539421 C21.366398,14.4660662 20.6044198,14.4112224 19.7863417,14.4108796 C19.4366305,14.4119664 19.4521015,14.3074469 19.1341454,14.4531248 C18.4909963,12.8956055 17.8024941,11.8022569 16.7357135,10.498096 C15.7156431,9.25087199 13.816514,7.41935157 12.5113464,6.47486598 C11.4426855,5.69330651 10.8362111,5.5676637 9.62814107,5.02622778 C9.79287193,4.69678797 9.69787298,4.69435444 9.69787298,4.32599153 C9.69787298,3.83708182 9.46937609,3.11613876 9.01238229,2.16316236 C9.421792,2.00031928 9.30143553,2.22920324 9.73050551,2.12911172 C10.8770294,1.85255571 12.0736157,2.22031734 13.2168966,2.50999954 C14.5791811,2.88788939 14.7448089,2.87371602 15.7689784,3.84861195 C15.5682697,4.20466361 15.6435254,4.7870699 15.644073,5.19583959 C15.6477443,6.52286618 17.6265969,8.3183455 18.9530324,8.31781569 C19.3637391,8.3170372 19.767567,8.39272093 20.1268951,8.19372482 C20.9800377,9.01001533 21.3951717,10.2084338 21.7785727,11.7029619 C22.1465872,13.1375117 21.8871553,12.5197772 21.910702,12.9640984 C21.9248519,13.2311026 21.9294232,13.6510621 21.9244161,14.223977 Z" id="ic_fandogh"></path>
        </g>
    </g>
</svg>