<svg xmlns="http://www.w3.org/2000/svg" width="66.298" height="73.42" viewBox="0 0 66.298 73.42">
  <g id="Group_3402" data-name="Group 3402" transform="translate(-1843.501 -8418.268)">
    <g id="Group_3350" data-name="Group 3350" transform="translate(1845.501 8420)">
      <path id="Path_1926" data-name="Path 1926" d="M3.894,15.736l3.894-2.248,7.787-4.5L31.149,0h0L46.723,8.992l7.787,4.5L58.4,15.736M62.3,22.48V53.952L46.723,62.944l-7.787,4.5-3.894,2.248m-7.787,0L23.362,67.44l-7.787-4.5L0,53.952V22.48" fill="none" stroke="#fdfdfd" stroke-linecap="round" stroke-linejoin="bevel" stroke-width="4"/>
    </g>
    <g id="Group_2668" data-name="Group 2668" transform="translate(1855.566 8433.786)">
      <path id="Path_1309" data-name="Path 1309" d="M43.166,19.247a21.674,21.674,0,0,1-.01,4.924,1.205,1.205,0,0,1-1.268,1.061l-.268-.007A4.848,4.848,0,0,0,37.2,28.159a4.8,4.8,0,0,0,1.213,5.4,1.2,1.2,0,0,1,.129,1.645,21.56,21.56,0,0,1-3.5,3.463,1.21,1.21,0,0,1-1.634-.136,4.993,4.993,0,0,0-5.362-1.22,4.813,4.813,0,0,0-2.961,4.616,1.205,1.205,0,0,1-1.072,1.24,21.548,21.548,0,0,1-4.872-.014,1.2,1.2,0,0,1-1.062-1.265,4.8,4.8,0,0,0-2.929-4.7,4.983,4.983,0,0,0-5.4,1.214,1.2,1.2,0,0,1-1.648.131,21.5,21.5,0,0,1-3.425-3.466A1.2,1.2,0,0,1,4.8,33.439a4.814,4.814,0,0,0,1.21-5.353,4.748,4.748,0,0,0-4.455-2.967A1.432,1.432,0,0,1,.135,24.057a21.687,21.687,0,0,1,.01-4.925,1.177,1.177,0,0,1,1.248-1.063,5.005,5.005,0,0,0,4.712-2.927A4.8,4.8,0,0,0,4.9,9.74a1.2,1.2,0,0,1-.129-1.645,21.5,21.5,0,0,1,3.5-3.462A1.207,1.207,0,0,1,9.9,4.769a5,5,0,0,0,5.359,1.22,4.817,4.817,0,0,0,2.965-4.62A1.205,1.205,0,0,1,19.3.132a21.616,21.616,0,0,1,4.87.012,1.2,1.2,0,0,1,1.062,1.264,4.809,4.809,0,0,0,2.924,4.7,4.993,4.993,0,0,0,5.4-1.213A1.205,1.205,0,0,1,35.2,4.763a21.425,21.425,0,0,1,3.43,3.464A1.2,1.2,0,0,1,38.5,9.86a4.781,4.781,0,0,0,3.273,8.32,1.409,1.409,0,0,1,1.392,1.067ZM21.845,35.631a13.784,13.784,0,1,0,0-27.567,14.473,14.473,0,0,0-3.048.341,13.785,13.785,0,0,0,3.048,27.234Z" transform="translate(0 0)" fill="rgba(254,254,254,0.4)" stroke="#fefefe" stroke-width="1.2"/>
      <g id="Group_2378" data-name="Group 2378" transform="translate(11.728 11.679)">
        <path id="Path_1312" data-name="Path 1312" d="M10.173,20.346A10.173,10.173,0,1,0,0,10.173,10.173,10.173,0,0,0,10.173,20.346Z" fill="rgba(254,254,254,0.4)"/>
      </g>
    </g>
  </g>
</svg>
