<?xml version="1.0" encoding="UTF-8"?>
<svg width="69px" height="69px" viewBox="0 0 69 69" version="1.1" xmlns="http://www.w3.org/2000/svg" xmlns:xlink="http://www.w3.org/1999/xlink">
    <!-- Generator: Sketch 53.1 (72631) - https://sketchapp.com -->
    <title>Group 23</title>
    <desc>Created with Sketch.</desc>
    <g id="Page-1" stroke="none" stroke-width="1" fill="none" fill-rule="evenodd">
        <g id="Group-23" transform="translate(1.000000, 1.000000)">
            <path d="M66.7899875,29.7736792 C67.0746935,32.3050294 67.0699105,34.8605751 66.7757311,37.3908422 C66.6596988,38.3710797 65.7996038,39.0910224 64.8140528,39.0328654 L64.4006177,39.0328654 C61.4197583,39.0528141 58.7335422,40.8354511 57.5575538,43.5740857 C56.3476215,46.4752402 57.0995324,49.8239209 59.4336938,51.929589 C60.1649652,52.5909452 60.2525523,53.7080936 59.6332831,54.4752951 C58.0380076,56.4618002 56.2203471,58.2590292 54.2158576,59.8318255 C53.4463412,60.4301279 52.3464954,60.3383882 51.6867752,59.6208712 C49.5469925,57.3901269 46.2839556,56.6479551 43.3895602,57.7336848 C40.5204517,58.9257014 38.6929381,61.7732627 38.8047074,64.8776259 C38.8389261,65.8527705 38.1153285,66.6893489 37.1452644,66.7961703 C34.6396641,67.0744605 32.1105803,67.0677661 29.606489,66.7762152 C28.6265187,66.6630354 27.9049327,65.805299 27.9613024,64.8206112 C28.140353,61.6826154 26.3248629,58.7715338 23.4277725,57.5512378 C20.5202621,56.4296878 17.2232604,57.171344 15.0763833,59.4298719 C14.41471,60.1622609 13.2963439,60.2510628 12.527342,59.6322741 C10.56297,58.051463 8.78471145,56.252502 7.22681871,54.2700422 C6.62415214,53.5055084 6.7123913,52.405835 7.42925935,51.747142 C9.72133727,49.6469951 10.4680936,46.3446186 9.3025481,43.4629071 C8.16800807,40.6603316 5.43197002,38.8389155 2.40816121,38.8732243 C1.38209195,38.8994386 0.472367715,38.21757 0.209826931,37.2254996 C-0.0746315031,34.6941358 -0.0698485626,32.1386183 0.224083315,29.6083366 C0.317580992,28.6264197 1.1757794,27.8972793 2.16010015,27.9634627 C5.28134806,28.0568811 8.15354846,26.2675762 9.44511193,23.4250931 C10.6570893,20.5237405 9.9062431,17.1735692 7.57182319,15.0667391 C6.84329955,14.404035 6.75588899,13.2891379 7.37223382,12.521033 C8.96696789,10.5340398 10.7846878,8.7367522 12.7896594,7.16450259 C13.5590528,6.56409187 14.6611053,6.65725785 15.3187418,7.37830769 C17.4595412,9.60515608 20.7193182,10.3468413 23.6131055,9.26549403 C26.483229,8.0726928 28.3116595,5.22433733 28.2008096,2.11870223 C28.1681155,1.14463669 28.8913182,0.309757154 29.8602526,0.203008535 C32.3649588,-0.0741860766 34.8929742,-0.0674918868 37.3961767,0.222963678 C38.3768749,0.334788559 39.0991928,1.19339505 39.0413633,2.17856766 C38.8631503,5.31458831 40.6738956,8.22469121 43.5663393,9.45079179 C46.4753789,10.5691926 49.7716986,9.82932019 51.9234311,7.57500838 C52.5846773,6.8448629 53.6999158,6.75496155 54.4696212,7.36975548 C56.4365276,8.94857385 58.2167887,10.7466688 59.775847,12.7291367 C60.3803027,13.4941585 60.2919999,14.5958687 59.5734063,15.2548876 C57.2942531,17.3197268 56.5310595,20.5792859 57.6567037,23.4410219 C58.782348,26.3027578 61.5618748,28.1693418 64.6372736,28.1288053 C65.6497362,28.1110309 66.5412909,28.7922618 66.7899875,29.7736792 Z M33.8007169,55.1195611 C41.4208257,55.1195612 48.4620967,51.0550543 52.2721512,44.4571009 C56.0822056,37.8591474 56.0822056,29.7301335 52.2721512,23.13218 C48.4620967,16.5342266 41.4208257,12.4697197 33.8007169,12.4697198 C32.2146709,12.476149 30.6337958,12.6510251 29.0847053,12.9914042 C18.4903964,15.3918076 11.3926423,25.3691484 12.6009932,36.1626232 C13.8093441,46.956098 22.9377749,55.1175757 33.8007169,55.1167104 L33.8007169,55.1195611 Z" id="Path_1309" stroke="#FEFEFE" fill-opacity="0.419999987" fill="#FFFFFF" fill-rule="nonzero"></path>
            <g id="ic_cached" transform="translate(16.000000, 16.000000)">
                <g id="Icon-24px">
                    <path d="M27.7083333,11.6666667 L21.875,17.5 L26.25,17.5 C26.25,22.3270833 22.3270833,26.25 17.5,26.25 C16.0270833,26.25 14.6270833,25.8854167 13.4166667,25.2291667 L11.2875,27.3583333 C13.08125,28.4958333 15.2104167,29.1666667 17.5,29.1666667 C23.9458333,29.1666667 29.1666667,23.9458333 29.1666667,17.5 L33.5416667,17.5 L27.7083333,11.6666667 L27.7083333,11.6666667 Z M8.75,17.5 C8.75,12.6729167 12.6729167,8.75 17.5,8.75 C18.9729167,8.75 20.3729167,9.11458333 21.5833333,9.77083333 L23.7125,7.64166667 C21.91875,6.50416667 19.7895833,5.83333333 17.5,5.83333333 C11.0541667,5.83333333 5.83333333,11.0541667 5.83333333,17.5 L1.45833333,17.5 L7.29166667,23.3333333 L13.125,17.5 L8.75,17.5 L8.75,17.5 Z" id="Shape" fill="#FEFEFE"></path>
                    <polygon id="Shape" points="0 0 35 0 35 35 0 35"></polygon>
                </g>
            </g>
        </g>
    </g>
</svg>