<?xml version="1.0" encoding="UTF-8"?>
<svg width="64px" height="64px" viewBox="0 0 64 64" version="1.1" xmlns="http://www.w3.org/2000/svg" xmlns:xlink="http://www.w3.org/1999/xlink">
    <!-- Generator: Sketch 62 (91390) - https://sketch.com -->
    <title>consulting</title>
    <desc>Created with Sketch.</desc>
    <g id="Page-1" stroke="none" stroke-width="1" fill="none" fill-rule="evenodd" fill-opacity="0.3">
        <g id="consulting" transform="translate(1.000000, 1.000000)" fill="#FEFEFE" fill-rule="nonzero" stroke="#FEFEFE">
            <path d="M56.256493,25.263414 L55.3781116,25.263414 L55.3781116,24.3694605 C55.3781116,10.932186 44.4459256,0 31.0083628,0 C17.5708,0 6.63890233,10.932186 6.63890233,24.3697488 L6.63890233,25.2637023 L5.76052093,25.2637023 C2.6711907,25.2637023 0.157739535,27.7771535 0.157739535,30.8664837 L0.157739535,39.0614419 C0.157739535,42.1507721 2.6711907,44.6642233 5.76052093,44.6642233 L8.88416744,44.6642233 C9.47821395,44.6642233 9.98747907,44.3046233 10.2083721,43.7918977 C13.9073209,51.1528837 19.2894977,56.0200279 19.6456372,56.3372372 C19.837693,56.5082419 20.0805023,56.5956186 20.3247535,56.5956186 C20.3261953,56.5956186 20.3276372,56.5961953 20.3296558,56.5956186 C20.8934233,56.5956186 21.350493,56.1385488 21.350493,55.5747814 C21.350493,55.4406884 21.3248279,55.3129395 21.2778233,55.1955721 C21.2515814,55.1018512 21.2057302,54.9340186 21.1471907,54.7050512 C23.663814,57.8644558 26.364707,59.7328186 28.4150326,60.8052744 C29.9301395,61.5980093 31.6375907,62.017014 33.3528279,62.017014 C35.0680651,62.017014 36.7758047,61.5980093 38.2909116,60.8052744 C40.2486698,59.7809767 42.7987442,58.0262326 45.2155907,55.1205953 C49.7854233,53.4555349 53.2675163,49.5080093 54.2759535,44.6642233 L56.256493,44.6642233 C59.3458233,44.6642233 61.8592744,42.1507721 61.8592744,39.0614419 L61.8592744,30.8664837 C61.8592744,27.7768651 59.3458233,25.263414 56.256493,25.263414 Z M11.2834233,15.8601767 C14.5861488,8.23417674 22.1827349,2.88372093 31.0083628,2.88372093 C40.7368837,2.88372093 48.9710605,9.38506977 51.6070698,18.2695256 C50.4573302,17.1636186 49.2006047,16.5306419 48.0935442,16.3045581 C47.3094605,14.0696744 46.1545302,12.6834698 45.8998977,12.3956744 C45.4171628,11.7465488 40.922307,6.0584093 31.7125674,6.0584093 C28.5577767,6.0584093 25.1864186,6.74242791 21.6930791,8.09172093 C19.2009674,9.0540186 14.7000558,11.3050512 11.2834233,15.8601767 Z M37.3444744,58.9963163 C36.1203349,59.6367907 34.740186,59.9753395 33.3528279,59.9753395 C31.9657581,59.9753395 30.5856093,59.6367907 29.3614698,58.9963163 C26.8514791,57.6830698 23.2644186,55.0508093 20.4308744,49.9688279 C20.3746419,49.868186 20.3227349,49.7643721 20.2679442,49.6625767 C19.8904651,45.7698419 20.1598047,40.8386791 23.2514419,38.2433302 C25.645507,36.2336651 29.6743535,35.2978977 33.5705488,34.392986 C38.4489395,33.2599721 43.4648837,32.0926419 46.2283535,28.7902047 C47.0969302,29.6037023 47.8285302,30.6392465 48.1189209,31.9317302 C49.1097674,36.3418047 47.8383349,40.1209209 47.8201674,40.1739814 C47.6820372,40.5713581 47.8014233,41.0125674 48.1212279,41.2859442 C48.3104,41.4474326 48.5462884,41.5304837 48.7844837,41.5304837 C48.9497209,41.5304837 49.1161116,41.4904 49.2680837,41.4085023 C49.2787535,41.4027349 49.3038419,41.3886047 49.3352744,41.3707256 C48.6945116,44.3620093 47.7273116,47.3648279 46.2753581,49.9688279 C45.8416465,50.7465674 45.3891907,51.4602884 44.9266419,52.127293 C43.5297674,52.7446977 41.9872651,53.0901674 40.3645953,53.0901674 L38.8719814,53.0901674 C38.2845674,51.517386 36.7714791,50.3921581 34.9962605,50.3921581 L31.0539256,50.3921581 C28.7711721,50.3921581 26.9140558,52.2492744 26.9140558,54.5320279 C26.9140558,56.8147814 28.7711721,58.6718977 31.0539256,58.6718977 L34.9962605,58.6718977 C36.7714791,58.6718977 38.2848558,57.5466698 38.8719814,55.9738884 L40.3645953,55.9738884 C40.8043628,55.9738884 41.2392279,55.9531256 41.668614,55.913907 C40.1108279,57.3609581 38.5939907,58.3425767 37.3444744,58.9963163 Z M49.009414,49.0699721 C50.3111256,46.2067256 51.1534605,43.0724093 51.6906977,40.0439256 L51.6906977,41.7637767 C51.6906977,44.5462791 50.6802419,47.0960651 49.009414,49.0699721 Z" id="Shape"></path>
        </g>
    </g>
</svg>