<?xml version="1.0" encoding="UTF-8"?>
<svg width="64px" height="64px" viewBox="0 0 64 64" version="1.1" xmlns="http://www.w3.org/2000/svg" xmlns:xlink="http://www.w3.org/1999/xlink">
    <!-- Generator: Sketch 62 (91390) - https://sketch.com -->
    <title>arrows (1)</title>
    <desc>Created with Sketch.</desc>
    <g id="Page-1" stroke="none" stroke-width="1" fill="none" fill-rule="evenodd">
        <g id="arrows-(1)" fill="#FEFEFE" fill-rule="nonzero">
            <path d="M32,13.3334961 C30.5253906,13.3334961 29.3334961,14.527832 29.3334961,16 L29.3334961,32 C29.3334961,33.472168 30.5253906,34.6665039 32,34.6665039 L48,34.6665039 C49.4746094,34.6665039 50.6665039,33.472168 50.6665039,32 C50.6665039,30.527832 49.4746094,29.3334961 48,29.3334961 L34.6665039,29.3334961 L34.6665039,16 C34.6665039,14.527832 33.4746094,13.3334961 32,13.3334961 Z" id="Path"></path>
            <path d="M32,0 C23.5200195,0 15.3066406,3.38671875 9.20556638,9.0424805 L3.41357425,3.253418 C2.83984375,2.68017575 1.98144525,2.50927737 1.23486325,2.81884763 C0.487793,3.12792975 0,3.85888675 0,4.66650388 L0,22 C0,23.1040039 0.895996125,24 2,24 L19.3334961,24 C20.144043,24 20.8720703,23.512207 21.1811524,22.7651367 C21.4907226,22.0185547 21.3198242,21.1572265 20.746582,20.5864258 L13,12.8374024 C18.1064453,8.16015625 24.930664,5.33349612 32,5.33349612 C46.7041015,5.33349612 58.6665039,17.2958985 58.6665039,32 C58.6665039,46.7041015 46.7041015,58.6665039 32,58.6665039 C24.8691406,58.6665039 18.178711,55.8881836 13.1625976,50.8481445 C12.1225586,49.8027344 10.4321289,49.7998048 9.39208987,50.8398438 C8.34667975,51.8798828 8.34130862,53.5678711 9.38134763,54.6132813 C15.4082031,60.6665039 23.4399414,64 32,64 C49.6455078,64 64,49.6455078 64,32 C64,14.3544922 49.6455078,0 32,0 Z" id="Path"></path>
        </g>
    </g>
</svg>