<?xml version="1.0" encoding="UTF-8"?>
<svg width="128px" height="128px" viewBox="0 0 128 128" version="1.1" xmlns="http://www.w3.org/2000/svg" xmlns:xlink="http://www.w3.org/1999/xlink">
    <!-- Generator: Sketch 62 (91390) - https://sketch.com -->
    <title>Group 41</title>
    <desc>Created with Sketch.</desc>
    <g id="Page-1" stroke="none" stroke-width="1" fill="none" fill-rule="evenodd">
        <g id="Group-41" fill="#FEFEFE" fill-rule="nonzero">
            <path d="M64,0 C28.70825,0 0,28.711 0,64 C0,99.289 28.70825,128 64,128 C99.29175,128 128,99.289 128,64 C128,28.711 99.29175,0 64,0 Z M64,122.66675 C31.651,122.66675 5.33325,96.349 5.33325,64 C5.33325,31.651 31.651,5.33325 64,5.33325 C96.349,5.33325 122.66675,31.651 122.66675,64 C122.66675,96.349 96.349,122.66675 64,122.66675 Z" id="Shape"></path>
            <path d="M89.44275,61.75775 L52.1095,37.75775 C51.29175,37.224 50.2345,37.19525 49.39075,37.65875 C48.53125,38.1275 48,39.0235 48,40 L48,88 C48,88.9765 48.53125,89.8725 49.39075,90.34125 C49.7865,90.5575 50.22925,90.66675 50.66675,90.66675 C51.16675,90.66675 51.672,90.526 52.1095,90.24225 L89.44275,66.24225 C90.20325,65.75275 90.66675,64.90625 90.66675,64 C90.66675,63.09375 90.20325,62.2475 89.44275,61.75775 Z" id="Path"></path>
        </g>
    </g>
</svg>