<?xml version="1.0" encoding="UTF-8"?>
<svg width="128px" height="128px" viewBox="0 0 128 128" version="1.1" xmlns="http://www.w3.org/2000/svg" xmlns:xlink="http://www.w3.org/1999/xlink">
    <!-- Generator: Sketch 62 (91390) - https://sketch.com -->
    <title>Group 40</title>
    <desc>Created with Sketch.</desc>
    <g id="Page-1" stroke="none" stroke-width="1" fill="none" fill-rule="evenodd">
        <g id="Group-40" fill="#FEFEFE" fill-rule="nonzero">
            <path d="M64,0 C28.70825,0 0,28.711 0,64 C0,99.289 28.70825,128 64,128 C99.29175,128 128,99.289 128,64 C128,28.711 99.29175,0 64,0 Z M64,122.66675 C31.651,122.66675 5.33325,96.349 5.33325,64 C5.33325,31.651 31.651,5.33325 64,5.33325 C96.349,5.33325 122.66675,31.651 122.66675,64 C122.66675,96.349 96.349,122.66675 64,122.66675 Z" id="Shape"></path>
            <g id="Group-39" transform="translate(40.000000, 37.000000)">
                <path d="M14.2917646,-1.38555833e-13 L2.04173535,-1.38555833e-13 C0.913201403,-1.38555833e-13 3.19744231e-13,1.19275 3.19744231e-13,2.66675 L3.19744231e-13,50.66675 C3.19744231e-13,52.14075 0.913201403,53.3335 2.04173535,53.3335 L14.2917646,53.3335 C15.4202986,53.3335 16.3335,52.14075 16.3335,50.66675 L16.3335,2.66675 C16.3335,1.19275 15.4202986,-1.38555833e-13 14.2917646,-1.38555833e-13 Z" id="Path"></path>
                <path d="M46.2917646,-1.38555833e-13 L34.0417354,-1.38555833e-13 C32.9132014,-1.38555833e-13 32,1.19275 32,2.66675 L32,50.66675 C32,52.14075 32.9132014,53.3335 34.0417354,53.3335 L46.2917646,53.3335 C47.4202986,53.3335 48.3335,52.14075 48.3335,50.66675 L48.3335,2.66675 C48.3335,1.19275 47.4202986,-1.38555833e-13 46.2917646,-1.38555833e-13 Z" id="Path"></path>
            </g>
        </g>
    </g>
</svg>