<svg xmlns="http://www.w3.org/2000/svg" width="748.866" height="379.356" viewBox="0 0 748.866 379.356">
    <defs>
        <style>
            .cls-1{fill:#f8f8f8}.cls-2{opacity:.146}.cls-3{clip-path:url(#clip-path)}.cls-4{opacity:0}.cls-5{clip-path:url(#clip-path-2)}.cls-6{clip-path:url(#clip-path-3)}.cls-7{clip-path:url(#clip-path-4)}.cls-8{clip-path:url(#clip-path-5)}.cls-9{clip-path:url(#clip-path-6)}.cls-10{clip-path:url(#clip-path-7)}.cls-11{clip-path:url(#clip-path-8)}.cls-12{clip-path:url(#clip-path-9)}.cls-13{clip-path:url(#clip-path-10)}.cls-14{clip-path:url(#clip-path-11)}.cls-15{clip-path:url(#clip-path-12)}.cls-16{clip-path:url(#clip-path-13)}.cls-17{clip-path:url(#clip-path-14)}.cls-18{clip-path:url(#clip-path-15)}.cls-19{clip-path:url(#clip-path-16)}
        </style>
        <clipPath id="clip-path">
            <path id="Path_1864" d="M354.851-765.308c-16.88 11.872-36.014 25.33-46.265 47.593-17.805 38.841 36.435 81.209 38.753 82.994a2.982 2.982 0 0 0 1.827.622 2.991 2.991 0 0 0 1.922-.7 2.993 2.993 0 0 0 .736-3.675c-.2-.379-19.666-38.2-18.942-65.328.256-9.449 13.481-20.168 27.48-31.517 12.823-10.394 27.357-22.177 35.861-35.959 18.669-30.337-2.081-60.168-2.292-60.464a3 3 0 0 0-3.646-1.007 3 3 0 0 0-1.722 3.367 63.721 63.721 0 0 1-7.151 40.246c-4.628 8.402-14.791 15.551-26.561 23.828z" class="cls-1" data-name="Path 1864" transform="translate(-305.005 833)"/>
        </clipPath>
        <clipPath id="clip-path-2">
            <path id="Path_1867" d="M413.311-771.944a2.994 2.994 0 0 0 .819-3.839 3 3 0 0 0-3.686-1.353c-2.867 1.09-70.224 27.053-70.224 58.424 0 21.624 9.237 33.049 15.982 41.392 2.646 3.271 4.93 6.1 5.682 8.509 2.119 6.953-2.9 19.517-5.011 23.772a3 3 0 0 0 .725 3.6 2.993 2.993 0 0 0 1.957.727 2.985 2.985 0 0 0 1.709-.537c1.158-.805 28.3-20 23.435-43.122-1.813-8.788-6.133-15.211-9.944-20.878-5.9-8.779-10.168-15.121-3.7-26.835 7.584-13.659 41.91-39.6 42.256-39.86z" class="cls-1" data-name="Path 1867" transform="translate(-340.22 777.331)"/>
        </clipPath>
        <clipPath id="clip-path-3">
            <path id="Path_1870" d="M265.174-672.387a10.63 10.63 0 0 0 1.575 9.922c7.3 10.135 33.165 15.718 72.829 15.718 5.375 0 11.049-.1 16.86-.313 63.416-2.271 86.937-22.027 87.908-22.867a3 3 0 0 0 .683-3.673 2.987 2.987 0 0 0-3.431-1.479c-22.333 6.1-64.039 8.263-92.966 8.263-32.368 0-48.852-2.331-52.888-4.052 2.071-2.843 14.843-7.921 30.67-11.034a2.993 2.993 0 0 0 2.4-3.228 3 3 0 0 0-2.98-2.7c-9.27-.005-55.797.74-60.66 15.443z" class="cls-1" data-name="Path 1870" transform="translate(-264.583 687.836)"/>
        </clipPath>
        <clipPath id="clip-path-4">
            <path id="Path_1873" d="M429.774-691.438c-13.08 0-25.484 6.555-26.006 6.834a3 3 0 0 0-1.491 3.367 3 3 0 0 0 2.9 2.267c.278 0 27.9.227 30.4 16.009 2.216 13.616-26.136 35.677-37.248 43.029a2.994 2.994 0 0 0-1.109 3.656 2.993 2.993 0 0 0 2.76 1.836 2.919 2.919 0 0 0 .625-.067c2.638-.563 64.508-14.2 57.967-50.221-3.987-22.077-17.863-26.71-28.798-26.71z" class="cls-1" data-name="Path 1873" transform="translate(-396.99 691.438)"/>
        </clipPath>
        <clipPath id="clip-path-5">
            <path id="Path_1876" d="M428.185-636.825a2.994 2.994 0 0 0-1.225-3l-14.835-10.391a3 3 0 0 0-2.487-.441 291.453 291.453 0 0 1-38.192 6.619 265.04 265.04 0 0 1-28.957 1.533c-22.518 0-37.241-2.646-39.385-4.587-.284-.545-.194-.793-.144-.931.389-1.083 2.477-2.372 3.823-2.88a3 3 0 0 0 1.826-3.681 2.994 2.994 0 0 0-3.567-2.038c-14.881 3.591-22.158 8.614-21.628 14.926.94 11.191 26.864 16.936 48.781 18.456 3.151.216 6.56.326 10.129.326h.006c36.443 0 83.163-11.435 83.63-11.551a3 3 0 0 0 2.225-2.36z" class="cls-1" data-name="Path 1876" transform="translate(-283.386 656.709)"/>
        </clipPath>
        <clipPath id="clip-path-6">
            <path id="Path_1879" d="M313.586-622.959a2.992 2.992 0 0 0 1.223-3.4 3.011 3.011 0 0 0-2.938-2.1c-1.995.052-19.515.843-20.742 12a11.6 11.6 0 0 0 2.839 9.051c6.291 7.455 23.271 11.886 51.9 13.547 3.388.2 6.828.3 10.228.3 36.4 0 60.917-11.4 61.944-11.882a2.993 2.993 0 0 0 1.71-2.548 2.994 2.994 0 0 0-1.429-2.715l-18.748-11.445a3.014 3.014 0 0 0-2.172-.376c-.118.025-12.022 2.494-29.987 4.934a96.933 96.933 0 0 1-12.651.7c-17.946 0-37.906-2.932-41.734-4.851a1.2 1.2 0 0 1 .557-1.215z" class="cls-1" data-name="Path 1879" transform="translate(-291.051 628.461)"/>
        </clipPath>
        <clipPath id="clip-path-7">
            <path id="Path_1882" d="M354.383-565.937c81.976-.071 125.975-14.9 134.451-24.229 3-3.3 3.325-6.428 3.069-8.469-.63-5.024-5.128-8.1-5.639-8.433a2.937 2.937 0 0 0-3.841.532 3 3 0 0 0-.019 3.9c.517.676.816 1.809-.7 3.348-3.388 3.219-37.564 12.989-94.466 15.924-7.795.413-15.97.622-24.3.623-50.948 0-88.234-7.1-93.128-11.234 1.888-2.756 15.075-7.162 29.1-9.652a2.989 2.989 0 0 0 2.4-3.407 2.953 2.953 0 0 0-3.3-2.511c-.4.054-1.737.138-3.293.234-23.142 1.437-49.886 4.642-51.281 16.768a12.474 12.474 0 0 0 3.21 9.97c6.25 7.143 24.215 16.639 107.726 16.639z" class="cls-1" data-name="Path 1882" transform="translate(-243.353 609.576)"/>
        </clipPath>
        <clipPath id="clip-path-8">
            <path id="Path_1885" d="M495.654-593.293a2.993 2.993 0 0 0-3.451.679c-.123.132-12.659 13.241-50.35 20.937-14.43 2.892-41.516 4.358-80.506 4.358-39.063 0-76.233-1.537-76.6-1.553a2.978 2.978 0 0 0-3.091 2.582 2.994 2.994 0 0 0 2.272 3.324c.387.092 39.341 9.218 92.6 9.218a431.607 431.607 0 0 0 73.886-6.17c43.784-7.675 46.849-29.385 46.958-30.305a3 3 0 0 0-1.718-3.07z" class="cls-1" data-name="Path 1885" transform="translate(-281.623 593.569)"/>
        </clipPath>
        <clipPath id="clip-path-9">
            <path id="Path_1864-2" d="M341.178-783.877c-12.25 8.615-26.135 18.382-33.573 34.538-12.921 28.187 26.44 58.932 28.123 60.227a2.164 2.164 0 0 0 1.326.452 2.17 2.17 0 0 0 1.4-.507 2.172 2.172 0 0 0 .534-2.667c-.143-.275-14.271-27.719-13.746-47.408.186-6.857 9.783-14.635 19.942-22.871 9.305-7.543 19.852-16.093 26.024-26.095 13.548-22.015-1.51-43.663-1.664-43.877a2.174 2.174 0 0 0-2.646-.731 2.175 2.175 0 0 0-1.25 2.444 46.241 46.241 0 0 1-5.189 29.206c-3.365 6.094-10.74 11.283-19.281 17.289z" class="cls-1" data-name="Path 1864" transform="translate(-305.005 833)"/>
        </clipPath>
        <clipPath id="clip-path-10">
            <path id="Path_1867-2" d="M393.261-773.422a2.173 2.173 0 0 0 .594-2.786 2.174 2.174 0 0 0-2.675-.982c-2.081.791-50.96 19.632-50.96 42.4 0 15.692 6.7 23.983 11.6 30.037 1.92 2.374 3.578 4.424 4.123 6.175 1.538 5.045-2.105 14.163-3.637 17.251a2.174 2.174 0 0 0 .526 2.612 2.172 2.172 0 0 0 1.42.527 2.166 2.166 0 0 0 1.24-.389c.84-.584 20.54-14.513 17.006-31.293-1.316-6.377-4.45-11.038-7.216-15.151-4.282-6.371-7.382-10.974-2.682-19.479 5.5-9.908 30.41-28.733 30.661-28.922z" class="cls-1" data-name="Path 1867" transform="translate(-340.22 777.331)"/>
        </clipPath>
        <clipPath id="clip-path-11">
            <path id="Path_1870-2" d="M265.012-676.625a7.714 7.714 0 0 0 1.143 7.2c5.3 7.355 24.067 11.406 52.851 11.406 3.9 0 8.018-.076 12.235-.227 46.02-1.648 63.089-15.985 63.793-16.594a2.173 2.173 0 0 0 .5-2.666 2.168 2.168 0 0 0-2.489-1.074c-16.207 4.425-46.472 6-67.464 6-23.489 0-35.451-1.692-38.38-2.941 1.5-2.063 10.772-5.748 22.257-8.008a2.172 2.172 0 0 0 1.744-2.342 2.173 2.173 0 0 0-2.163-1.963c-6.739-.002-40.498.539-44.027 11.209z" class="cls-1" data-name="Path 1870" transform="translate(-264.583 687.836)"/>
        </clipPath>
        <clipPath id="clip-path-12">
            <path id="Path_1873-2" d="M420.781-691.438c-9.492 0-18.493 4.757-18.872 4.959a2.175 2.175 0 0 0-1.082 2.444 2.173 2.173 0 0 0 2.106 1.645c.2 0 20.247.164 22.063 11.617 1.608 9.881-18.967 25.89-27.03 31.225a2.173 2.173 0 0 0-.8 2.653 2.172 2.172 0 0 0 2 1.332 2.118 2.118 0 0 0 .454-.048c1.914-.409 46.813-10.3 42.066-36.444-2.9-16.021-12.97-19.383-20.905-19.383z" class="cls-1" data-name="Path 1873" transform="translate(-396.99 691.438)"/>
        </clipPath>
        <clipPath id="clip-path-13">
            <path id="Path_1876-2" d="M388.465-642.28a2.173 2.173 0 0 0-.889-2.178L376.81-652a2.179 2.179 0 0 0-1.8-.32 211.511 211.511 0 0 1-27.715 4.8 192.33 192.33 0 0 1-21.014 1.112c-16.341 0-27.025-1.921-28.581-3.329-.206-.4-.141-.576-.1-.675.283-.786 1.8-1.721 2.775-2.09a2.173 2.173 0 0 0 1.325-2.671 2.173 2.173 0 0 0-2.589-1.479c-10.8 2.606-16.08 6.251-15.7 10.832.682 8.121 19.495 12.29 35.4 13.393 2.287.156 4.761.237 7.35.237 26.446 0 60.35-8.3 60.689-8.382a2.173 2.173 0 0 0 1.615-1.708z" class="cls-1" data-name="Path 1876" transform="translate(-283.386 656.709)"/>
        </clipPath>
        <clipPath id="clip-path-14">
            <path id="Path_1879-2" d="M307.4-624.469a2.171 2.171 0 0 0 .887-2.467 2.185 2.185 0 0 0-2.132-1.526c-1.447.038-14.162.612-15.052 8.707a8.415 8.415 0 0 0 2.06 6.568c4.565 5.41 16.887 8.625 37.665 9.831 2.458.147 4.955.221 7.423.221 26.416 0 44.206-8.271 44.951-8.623a2.172 2.172 0 0 0 1.241-1.849 2.173 2.173 0 0 0-1.037-1.971l-13.605-8.305a2.188 2.188 0 0 0-1.576-.273c-.086.018-8.724 1.81-21.761 3.58a70.335 70.335 0 0 1-9.181.505c-13.023 0-27.508-2.128-30.286-3.52a.872.872 0 0 1 .403-.878z" class="cls-1" data-name="Path 1879" transform="translate(-291.051 628.461)"/>
        </clipPath>
        <clipPath id="clip-path-15">
            <path id="Path_1882-2" d="M323.926-577.908c59.489-.052 91.418-10.811 97.569-17.583a7.57 7.57 0 0 0 2.227-6.146c-.457-3.646-3.721-5.877-4.092-6.12a2.132 2.132 0 0 0-2.788.386 2.175 2.175 0 0 0-.014 2.828c.375.491.592 1.312-.5 2.429-2.459 2.336-27.26 9.426-68.552 11.556-5.657.3-11.589.452-17.633.452-36.972 0-64.03-5.15-67.582-8.153 1.37-2 10.94-5.2 21.118-7a2.169 2.169 0 0 0 1.744-2.473 2.143 2.143 0 0 0-2.4-1.822c-.287.039-1.26.1-2.389.17-16.794 1.043-36.2 3.368-37.214 12.169a9.052 9.052 0 0 0 2.33 7.235c4.535 5.184 17.572 12.075 78.175 12.075z" class="cls-1" data-name="Path 1882" transform="translate(-243.353 609.576)"/>
        </clipPath>
        <clipPath id="clip-path-16">
            <path id="Path_1885-2" d="M436.942-593.369a2.172 2.172 0 0 0-2.5.493c-.09.1-9.186 9.609-36.538 15.194-10.472 2.1-30.128 3.163-58.422 3.163-28.347 0-55.321-1.115-55.59-1.127a2.161 2.161 0 0 0-2.243 1.873 2.173 2.173 0 0 0 1.649 2.412c.281.067 28.549 6.689 67.2 6.689a313.208 313.208 0 0 0 53.618-4.478c31.773-5.57 34-21.324 34.076-21.992a2.174 2.174 0 0 0-1.25-2.227z" class="cls-1" data-name="Path 1885" transform="translate(-281.623 593.569)"/>
        </clipPath>
    </defs>
    <g id="Group_3371" data-name="Group 3371" transform="translate(-50.071 79.258)">
        <g id="Group_3324" class="cls-2" data-name="Group 3324" transform="translate(291.246 -79.258)">
            <g id="Group_3230" class="cls-3" data-name="Group 3230" transform="translate(81.743)">
                <g id="Group_3228" class="cls-4" data-name="Group 3228" transform="translate(-414.659 -.001)">
                    <g id="Group_3227" data-name="Group 3227">
                        <path id="Path_1862" d="M-305 0h1386.7v1132.477H-305z" class="cls-1" data-name="Path 1862" transform="translate(305.005)"/>
                    </g>
                </g>
                <g id="Group_3229" data-name="Group 3229" transform="translate(-414.659 -.001)">
                    <path id="Path_1863" d="M-305 0h1386.7v1132.477H-305z" class="cls-1" data-name="Path 1863" transform="translate(305.005)"/>
                </g>
            </g>
            <g id="Group_3234" class="cls-5" data-name="Group 3234" transform="translate(128.843 75.683)">
                <g id="Group_3232" class="cls-4" data-name="Group 3232" transform="translate(-462.535 -75.683)">
                    <g id="Group_3231" data-name="Group 3231">
                        <path id="Path_1865" d="M-340.22-55.669h1386.707v1132.477H-340.22z" class="cls-1" data-name="Path 1865" transform="translate(340.22 55.669)"/>
                    </g>
                </g>
                <g id="Group_3233" data-name="Group 3233" transform="translate(-462.535 -75.683)">
                    <path id="Path_1866" d="M-340.22-55.669h1386.707v1132.477H-340.22z" class="cls-1" data-name="Path 1866" transform="translate(340.22 55.669)"/>
                </g>
            </g>
            <g id="Group_3238" class="cls-6" data-name="Group 3238" transform="translate(28.862 197.352)">
                <g id="Group_3236" class="cls-4" data-name="Group 3236" transform="translate(-359.705 -197.353)">
                    <g id="Group_3235" data-name="Group 3235">
                        <path id="Path_1868" d="M-264.583-145.164h1386.707V987.313H-264.583z" class="cls-1" data-name="Path 1868" transform="translate(264.583 145.164)"/>
                    </g>
                </g>
                <g id="Group_3237" data-name="Group 3237" transform="translate(-359.705 -197.353)">
                    <path id="Path_1869" d="M-264.583-145.164h1386.707V987.313H-264.583z" class="cls-1" data-name="Path 1869" transform="translate(264.583 145.164)"/>
                </g>
            </g>
            <g id="Group_3242" class="cls-7" data-name="Group 3242" transform="translate(204.616 192.455)">
                <g id="Group_3240" class="cls-4" data-name="Group 3240" transform="translate(-539.715 -192.456)">
                    <g id="Group_3239" data-name="Group 3239">
                        <path id="Path_1871" d="M-396.99-141.562H989.716V990.915H-396.99z" class="cls-1" data-name="Path 1871" transform="translate(396.99 141.562)"/>
                    </g>
                </g>
                <g id="Group_3241" data-name="Group 3241" transform="translate(-539.715 -192.456)">
                    <path id="Path_1872" d="M-396.99-141.562H989.716V990.915H-396.99z" class="cls-1" data-name="Path 1872" transform="translate(396.99 141.562)"/>
                </g>
            </g>
            <g id="Group_3246" class="cls-8" data-name="Group 3246" transform="translate(52.589 239.67)">
                <g id="Group_3244" class="cls-4" data-name="Group 3244" transform="translate(-385.268 -239.67)">
                    <g id="Group_3243" data-name="Group 3243">
                        <path id="Path_1874" d="M-283.386-176.291H1103.32V956.186H-283.386z" class="cls-1" data-name="Path 1874" transform="translate(283.386 176.291)"/>
                    </g>
                </g>
                <g id="Group_3245" data-name="Group 3245" transform="translate(-385.268 -239.67)">
                    <path id="Path_1875" d="M-283.386-176.291H1103.32V956.186H-283.386z" class="cls-1" data-name="Path 1875" transform="translate(283.386 176.291)"/>
                </g>
            </g>
            <g id="Group_3250" class="cls-9" data-name="Group 3250" transform="translate(62.907 278.073)">
                <g id="Group_3248" class="cls-4" data-name="Group 3248" transform="translate(-395.689 -278.074)">
                    <g id="Group_3247" data-name="Group 3247">
                        <path id="Path_1877" d="M-291.051-204.539h1386.707V927.938H-291.051z" class="cls-1" data-name="Path 1877" transform="translate(291.051 204.539)"/>
                    </g>
                </g>
                <g id="Group_3249" data-name="Group 3249" transform="translate(-395.689 -278.074)">
                    <path id="Path_1878" d="M-291.051-204.539h1386.707V927.938H-291.051z" class="cls-1" data-name="Path 1878" transform="translate(291.051 204.539)"/>
                </g>
            </g>
            <g id="Group_3254" class="cls-10" data-name="Group 3254" transform="translate(0 303.748)">
                <g id="Group_3252" class="cls-4" data-name="Group 3252" transform="translate(-325.276 -303.749)">
                    <g id="Group_3251" data-name="Group 3251">
                        <path id="Path_1880" d="M-243.353-223.424H1120.02V909.053H-243.353z" class="cls-1" data-name="Path 1880" transform="translate(243.353 223.424)"/>
                    </g>
                </g>
                <g id="Group_3253" data-name="Group 3253" transform="translate(-325.276 -303.749)">
                    <path id="Path_1881" d="M-243.353-223.424H1120.02V909.053H-243.353z" class="cls-1" data-name="Path 1881" transform="translate(243.353 223.424)"/>
                </g>
            </g>
            <g id="Group_3258" class="cls-11" data-name="Group 3258" transform="translate(47.772 325.509)">
                <g id="Group_3256" class="cls-4" data-name="Group 3256" transform="translate(-382.871 -325.51)">
                    <g id="Group_3255" data-name="Group 3255">
                        <path id="Path_1883" d="M-281.623-239.43h1386.707V893.047H-281.623z" class="cls-1" data-name="Path 1883" transform="translate(281.623 239.43)"/>
                    </g>
                </g>
                <g id="Group_3257" data-name="Group 3257" transform="translate(-382.871 -325.51)">
                    <path id="Path_1884" d="M-281.623-239.43h1386.707V893.047H-281.623z" class="cls-1" data-name="Path 1884" transform="translate(281.623 239.43)"/>
                </g>
            </g>
        </g>
        <g id="Group_3329" class="cls-2" data-name="Group 3329" transform="translate(50.071 34.983)">
            <g id="Group_3230-2" class="cls-12" data-name="Group 3230" transform="translate(59.32)">
                <g id="Group_3228-2" class="cls-4" data-name="Group 3228" transform="translate(-300.911)">
                    <g id="Group_3227-2" data-name="Group 3227">
                        <path id="Path_1862-2" d="M-305 0H701.306v821.82H-305z" class="cls-1" data-name="Path 1862" transform="translate(305.005)"/>
                    </g>
                </g>
                <g id="Group_3229-2" data-name="Group 3229" transform="translate(-300.911)">
                    <path id="Path_1863-2" d="M-305 0H701.306v821.82H-305z" class="cls-1" data-name="Path 1863" transform="translate(305.005)"/>
                </g>
            </g>
            <g id="Group_3234-2" class="cls-13" data-name="Group 3234" transform="translate(93.5 54.922)">
                <g id="Group_3232-2" class="cls-4" data-name="Group 3232" transform="translate(-335.654 -54.922)">
                    <g id="Group_3231-2" data-name="Group 3231">
                        <path id="Path_1865-2" d="M-340.22-55.669H666.091v821.82H-340.22z" class="cls-1" data-name="Path 1865" transform="translate(340.22 55.669)"/>
                    </g>
                </g>
                <g id="Group_3233-2" data-name="Group 3233" transform="translate(-335.654 -54.922)">
                    <path id="Path_1866-2" d="M-340.22-55.669H666.091v821.82H-340.22z" class="cls-1" data-name="Path 1866" transform="translate(340.22 55.669)"/>
                </g>
            </g>
            <g id="Group_3238-2" class="cls-14" data-name="Group 3238" transform="translate(20.944 143.215)">
                <g id="Group_3236-2" class="cls-4" data-name="Group 3236" transform="translate(-261.032 -143.216)">
                    <g id="Group_3235-2" data-name="Group 3235">
                        <path id="Path_1868-2" d="M-264.583-145.164h1006.31v821.82h-1006.31z" class="cls-1" data-name="Path 1868" transform="translate(264.583 145.164)"/>
                    </g>
                </g>
                <g id="Group_3237-2" data-name="Group 3237" transform="translate(-261.032 -143.216)">
                    <path id="Path_1869-2" d="M-264.583-145.164h1006.31v821.82h-1006.31z" class="cls-1" data-name="Path 1869" transform="translate(264.583 145.164)"/>
                </g>
            </g>
            <g id="Group_3242-2" class="cls-15" data-name="Group 3242" transform="translate(148.486 139.662)">
                <g id="Group_3240-2" class="cls-4" data-name="Group 3240" transform="translate(-391.662 -139.662)">
                    <g id="Group_3239-2" data-name="Group 3239">
                        <path id="Path_1871-2" d="M-396.99-141.562H609.32v821.82H-396.99z" class="cls-1" data-name="Path 1871" transform="translate(396.99 141.562)"/>
                    </g>
                </g>
                <g id="Group_3241-2" data-name="Group 3241" transform="translate(-391.662 -139.662)">
                    <path id="Path_1872-2" d="M-396.99-141.562H609.32v821.82H-396.99z" class="cls-1" data-name="Path 1872" transform="translate(396.99 141.562)"/>
                </g>
            </g>
            <g id="Group_3246-2" class="cls-16" data-name="Group 3246" transform="translate(38.163 173.924)">
                <g id="Group_3244-2" class="cls-4" data-name="Group 3244" transform="translate(-279.583 -173.925)">
                    <g id="Group_3243-2" data-name="Group 3243">
                        <path id="Path_1874-2" d="M-283.386-176.291h1006.31V645.53h-1006.31z" class="cls-1" data-name="Path 1874" transform="translate(283.386 176.291)"/>
                    </g>
                </g>
                <g id="Group_3245-2" data-name="Group 3245" transform="translate(-279.583 -173.925)">
                    <path id="Path_1875-2" d="M-283.386-176.291h1006.31V645.53h-1006.31z" class="cls-1" data-name="Path 1875" transform="translate(283.386 176.291)"/>
                </g>
            </g>
            <g id="Group_3250-2" class="cls-17" data-name="Group 3250" transform="translate(45.651 201.793)">
                <g id="Group_3248-2" class="cls-4" data-name="Group 3248" transform="translate(-287.145 -201.794)">
                    <g id="Group_3247-2" data-name="Group 3247">
                        <path id="Path_1877-2" d="M-291.051-204.539H715.26v821.82H-291.051z" class="cls-1" data-name="Path 1877" transform="translate(291.051 204.539)"/>
                    </g>
                </g>
                <g id="Group_3249-2" data-name="Group 3249" transform="translate(-287.145 -201.794)">
                    <path id="Path_1878-2" d="M-291.051-204.539H715.26v821.82H-291.051z" class="cls-1" data-name="Path 1878" transform="translate(291.051 204.539)"/>
                </g>
            </g>
            <g id="Group_3254-2" class="cls-18" data-name="Group 3254" transform="translate(0 220.425)">
                <g id="Group_3252-2" class="cls-4" data-name="Group 3252" transform="translate(-236.047 -220.426)">
                    <g id="Group_3251-2" data-name="Group 3251">
                        <path id="Path_1880-2" d="M-243.353-223.424h989.377V598.4h-989.377z" class="cls-1" data-name="Path 1880" transform="translate(243.353 223.424)"/>
                    </g>
                </g>
                <g id="Group_3253-2" data-name="Group 3253" transform="translate(-236.047 -220.426)">
                    <path id="Path_1881-2" d="M-243.353-223.424h989.377V598.4h-989.377z" class="cls-1" data-name="Path 1881" transform="translate(243.353 223.424)"/>
                </g>
            </g>
            <g id="Group_3258-2" class="cls-19" data-name="Group 3258" transform="translate(34.667 236.217)">
                <g id="Group_3256-2" class="cls-4" data-name="Group 3256" transform="translate(-277.843 -236.217)">
                    <g id="Group_3255-2" data-name="Group 3255">
                        <path id="Path_1883-2" d="M-281.623-239.43H724.688v821.82H-281.623z" class="cls-1" data-name="Path 1883" transform="translate(281.623 239.43)"/>
                    </g>
                </g>
                <g id="Group_3257-2" data-name="Group 3257" transform="translate(-277.843 -236.217)">
                    <path id="Path_1884-2" d="M-281.623-239.43H724.688v821.82H-281.623z" class="cls-1" data-name="Path 1884" transform="translate(281.623 239.43)"/>
                </g>
            </g>
        </g>
        <g id="Group_3330" class="cls-2" data-name="Group 3330" transform="translate(605.408 34.983)">
            <g id="Group_3230-3" class="cls-12" data-name="Group 3230" transform="translate(59.32)">
                <g id="Group_3228-3" class="cls-4" data-name="Group 3228" transform="translate(-300.911)">
                    <g id="Group_3227-3" data-name="Group 3227">
                        <path id="Path_1862-3" d="M-305 0H701.306v821.82H-305z" class="cls-1" data-name="Path 1862" transform="translate(305.005)"/>
                    </g>
                </g>
                <g id="Group_3229-3" data-name="Group 3229" transform="translate(-300.911)">
                    <path id="Path_1863-3" d="M-305 0H701.306v821.82H-305z" class="cls-1" data-name="Path 1863" transform="translate(305.005)"/>
                </g>
            </g>
            <g id="Group_3234-3" class="cls-13" data-name="Group 3234" transform="translate(93.5 54.922)">
                <g id="Group_3232-3" class="cls-4" data-name="Group 3232" transform="translate(-335.654 -54.922)">
                    <g id="Group_3231-3" data-name="Group 3231">
                        <path id="Path_1865-3" d="M-340.22-55.669H666.091v821.82H-340.22z" class="cls-1" data-name="Path 1865" transform="translate(340.22 55.669)"/>
                    </g>
                </g>
                <g id="Group_3233-3" data-name="Group 3233" transform="translate(-335.654 -54.922)">
                    <path id="Path_1866-3" d="M-340.22-55.669H666.091v821.82H-340.22z" class="cls-1" data-name="Path 1866" transform="translate(340.22 55.669)"/>
                </g>
            </g>
            <g id="Group_3238-3" class="cls-14" data-name="Group 3238" transform="translate(20.944 143.215)">
                <g id="Group_3236-3" class="cls-4" data-name="Group 3236" transform="translate(-261.032 -143.216)">
                    <g id="Group_3235-3" data-name="Group 3235">
                        <path id="Path_1868-3" d="M-264.583-145.164h1006.31v821.82h-1006.31z" class="cls-1" data-name="Path 1868" transform="translate(264.583 145.164)"/>
                    </g>
                </g>
                <g id="Group_3237-3" data-name="Group 3237" transform="translate(-261.032 -143.216)">
                    <path id="Path_1869-3" d="M-264.583-145.164h1006.31v821.82h-1006.31z" class="cls-1" data-name="Path 1869" transform="translate(264.583 145.164)"/>
                </g>
            </g>
            <g id="Group_3242-3" class="cls-15" data-name="Group 3242" transform="translate(148.486 139.662)">
                <g id="Group_3240-3" class="cls-4" data-name="Group 3240" transform="translate(-391.662 -139.662)">
                    <g id="Group_3239-3" data-name="Group 3239">
                        <path id="Path_1871-3" d="M-396.99-141.562H609.32v821.82H-396.99z" class="cls-1" data-name="Path 1871" transform="translate(396.99 141.562)"/>
                    </g>
                </g>
                <g id="Group_3241-3" data-name="Group 3241" transform="translate(-391.662 -139.662)">
                    <path id="Path_1872-3" d="M-396.99-141.562H609.32v821.82H-396.99z" class="cls-1" data-name="Path 1872" transform="translate(396.99 141.562)"/>
                </g>
            </g>
            <g id="Group_3246-3" class="cls-16" data-name="Group 3246" transform="translate(38.163 173.924)">
                <g id="Group_3244-3" class="cls-4" data-name="Group 3244" transform="translate(-279.583 -173.925)">
                    <g id="Group_3243-3" data-name="Group 3243">
                        <path id="Path_1874-3" d="M-283.386-176.291h1006.31V645.53h-1006.31z" class="cls-1" data-name="Path 1874" transform="translate(283.386 176.291)"/>
                    </g>
                </g>
                <g id="Group_3245-3" data-name="Group 3245" transform="translate(-279.583 -173.925)">
                    <path id="Path_1875-3" d="M-283.386-176.291h1006.31V645.53h-1006.31z" class="cls-1" data-name="Path 1875" transform="translate(283.386 176.291)"/>
                </g>
            </g>
            <g id="Group_3250-3" class="cls-17" data-name="Group 3250" transform="translate(45.651 201.793)">
                <g id="Group_3248-3" class="cls-4" data-name="Group 3248" transform="translate(-287.145 -201.794)">
                    <g id="Group_3247-3" data-name="Group 3247">
                        <path id="Path_1877-3" d="M-291.051-204.539H715.26v821.82H-291.051z" class="cls-1" data-name="Path 1877" transform="translate(291.051 204.539)"/>
                    </g>
                </g>
                <g id="Group_3249-3" data-name="Group 3249" transform="translate(-287.145 -201.794)">
                    <path id="Path_1878-3" d="M-291.051-204.539H715.26v821.82H-291.051z" class="cls-1" data-name="Path 1878" transform="translate(291.051 204.539)"/>
                </g>
            </g>
            <g id="Group_3254-3" class="cls-18" data-name="Group 3254" transform="translate(0 220.425)">
                <g id="Group_3252-3" class="cls-4" data-name="Group 3252" transform="translate(-236.047 -220.426)">
                    <g id="Group_3251-3" data-name="Group 3251">
                        <path id="Path_1880-3" d="M-243.353-223.424h989.377V598.4h-989.377z" class="cls-1" data-name="Path 1880" transform="translate(243.353 223.424)"/>
                    </g>
                </g>
                <g id="Group_3253-3" data-name="Group 3253" transform="translate(-236.047 -220.426)">
                    <path id="Path_1881-3" d="M-243.353-223.424h989.377V598.4h-989.377z" class="cls-1" data-name="Path 1881" transform="translate(243.353 223.424)"/>
                </g>
            </g>
            <g id="Group_3258-3" class="cls-19" data-name="Group 3258" transform="translate(34.667 236.217)">
                <g id="Group_3256-3" class="cls-4" data-name="Group 3256" transform="translate(-277.843 -236.217)">
                    <g id="Group_3255-3" data-name="Group 3255">
                        <path id="Path_1883-3" d="M-281.623-239.43H724.688v821.82H-281.623z" class="cls-1" data-name="Path 1883" transform="translate(281.623 239.43)"/>
                    </g>
                </g>
                <g id="Group_3257-3" data-name="Group 3257" transform="translate(-277.843 -236.217)">
                    <path id="Path_1884-3" d="M-281.623-239.43H724.688v821.82H-281.623z" class="cls-1" data-name="Path 1884" transform="translate(281.623 239.43)"/>
                </g>
            </g>
        </g>
    </g>
</svg>
