<?xml version="1.0" encoding="UTF-8"?>
<svg width="40px" height="36px" viewBox="0 0 40 36" version="1.1" xmlns="http://www.w3.org/2000/svg" xmlns:xlink="http://www.w3.org/1999/xlink">
    <!-- Generator: Sketch 53.1 (72631) - https://sketchapp.com -->
    <title>konghq-icon</title>
    <desc>Created with Sketch.</desc>
    <g id="Page-1" stroke="none" stroke-width="1" fill="none" fill-rule="evenodd">
        <g id="konghq-icon" fill="#FEFEFE">
            <path d="M13.11625,29.6516399 L20.405,29.6516399 L24.189375,34.3871598 L23.539375,36 L14.1225,36 L14.35375,34.3871598 L12.13375,30.9027216 L13.11625,29.6516399 Z M18.265,8.44542917 L22.22125,8.43914864 L40,29.5737613 L38.625,35.9987439 L31.00625,35.9987439 L31.48125,34.188067 L14.86875,14.4345429 L18.265,8.44542917 Z M25.32375,0 L33.55,6.54305652 L32.496875,7.64214934 L33.923125,9.65191905 L33.923125,11.8011165 L29.82125,15.1838102 L22.925,6.93998604 L18.90875,6.93998604 L20.525625,3.94166085 L25.32375,0 Z M8.16125,20.6327983 L13.94625,15.6491975 L21.625,24.8080949 L19.4375,28.1631542 L12.36375,28.1631542 L7.465625,34.5341242 L6.340625,35.9993719 L0,35.9993719 L0,28.1826239 L5.915625,20.6334264 L8.16125,20.6327983 Z" id="Shape"></path>
        </g>
    </g>
</svg>