<?xml version="1.0" encoding="UTF-8"?>
<svg width="27px" height="53px" viewBox="0 0 27 53" version="1.1" xmlns="http://www.w3.org/2000/svg" xmlns:xlink="http://www.w3.org/1999/xlink">
    <!-- Generator: Sketch 53.1 (72631) - https://sketchapp.com -->
    <title>minioio-icon</title>
    <desc>Created with Sketch.</desc>
    <g id="Page-1" stroke="none" stroke-width="1" fill="none" fill-rule="evenodd">
        <g id="Group-32" transform="translate(-23.000000, -12.000000)" fill="#FEFEFE" fill-rule="nonzero">
            <g id="minioio-icon" transform="translate(23.000000, 12.000000)">
                <path d="M20.1593823,3 L26.9756186,13.8201119 C27.0081271,13.863506 27.0081271,13.9211017 26.9756186,13.9644958 C26.9268557,14.0118347 26.8472097,14.0118347 26.7968214,13.9644958 L18,5.02926409 L20.1593823,3 Z" id="Path"></path>
                <path d="M5.26952393,33.1224888 C6.78286533,29.8927969 8.84044976,26.9529492 11.3525306,24.430477 C12.2975378,23.4708581 13.3033207,22.5737778 14.3635695,21.744864 L14.3635695,28.3781542 L5.26952393,33.1224888 Z M0,39.250622 L14.3841536,31.8802996 L14.3841536,48.718588 L17.6257342,53 L17.6257342,30.2050004 L19.6330935,29.1946866 C22.3907335,27.7972739 24.3279113,25.1694 24.8560935,22.1094386 C25.3842757,19.0494772 24.4411104,15.9186564 22.3131404,13.66815 L14.8864051,5.88376443 C14.278458,5.21740339 14.3143767,4.18374461 14.9670947,3.56169879 C15.6339185,2.94158776 16.673021,2.97780457 17.2955656,3.64285515 L18.3000686,4.73349725 L20.5182088,2.59361936 C17.897444,-0.828197771 14.6846811,-0.434837864 12.8172936,1.31168012 C10.9228047,3.10773622 10.8328966,6.10780158 12.616393,8.01536106 L20.0842964,15.8394966 C21.4675465,17.3301237 22.108123,19.3540639 21.8265328,21.3664104 C21.5449426,23.3787568 20.3732969,25.1550874 18.6384708,26.1976981 L17.6339678,26.7227301 L17.6339678,16.0821376 C8.60140101,20.7554785 2.1315074,29.2599543 0.00823363114,39.250622 L0,39.250622 Z" id="Shape"></path>
            </g>
        </g>
    </g>
</svg>