<?xml version="1.0" encoding="UTF-8"?>
<svg width="70px" height="70px" viewBox="0 0 70 70" version="1.1" xmlns="http://www.w3.org/2000/svg" xmlns:xlink="http://www.w3.org/1999/xlink">
    <!-- Generator: Sketch 53.1 (72631) - https://sketchapp.com -->
    <title>Artboard</title>
    <desc>Created with Sketch.</desc>
    <g id="Artboard" stroke="none" stroke-width="1" fill="none" fill-rule="evenodd">
        <g id="mongodb-icon" transform="translate(17.000000, 1.000000)" fill-rule="nonzero">
            <path d="M16.0566677,5.50180929e-16 L18.0422412,3.53278452 C18.4886465,4.18471982 18.9722522,4.76177065 19.5418839,5.29917678 C21.2042786,6.87395292 22.7829723,8.52361352 24.2012391,10.2900058 C27.565554,14.4747256 29.8347809,19.1219671 31.4553251,24.1480358 C32.4271866,27.2182987 32.9549678,30.367851 32.9944933,33.552643 C33.1572452,43.0739818 29.7115544,51.2496028 22.7643721,58.0442663 C21.6297587,59.1190786 20.4160943,60.1146014 19.1140789,61 C18.4258707,61 18.1003669,60.5000361 17.8167135,60.0397169 C17.2889322,59.1961655 16.9657534,58.23368 16.8030015,57.2755994 C16.5588736,56.1237002 16.3984467,54.971801 16.4774976,53.7824596 L16.4774976,53.2450534 C16.421697,53.1305243 15.8148648,0.270905546 16.0566677,0 L16.0566677,5.50180929e-16 Z" id="Path" fill="#E8E8E8"></path>
            <path d="M16.547045,0.0747348074 C16.4653263,-0.0773285373 16.3836076,0.0378051379 16.301889,0.111664477 C16.3415809,0.8719812 16.0567329,1.54974925 15.6107824,2.19710463 C15.1204703,2.84011535 14.4713905,3.33323505 13.8199758,3.86328442 C10.2010056,6.77855597 7.35252577,10.2999086 5.07140711,14.2383492 C2.03614174,19.5388429 0.471812666,25.219495 0.0281969587,31.1999291 C-0.174932339,33.3570563 0.761330286,40.9689128 1.49212879,43.165142 C3.48606466,48.9956851 7.06767779,53.8812631 11.7069642,58.1216581 C12.8463561,59.1426549 14.0651319,60.0897923 15.3259344,61 C15.6925011,61 15.732193,60.6958733 15.8162465,60.4699506 C15.9769578,59.986523 16.0994731,59.4928119 16.1828132,58.9927639 L17,53.3142841 L16.547045,0.0747348074 Z" id="Path" fill="#FEFEFE"></path>
            <path d="M18.2785438,61.8511762 C18.3364589,60.9454019 18.6541644,60.1936093 19,59.444081 C18.6525097,59.2470751 18.394374,58.8553277 18.1924986,58.4182916 C18.0187534,58.0242798 17.8747932,57.5510127 17.7622725,57.116241 C17.3585218,55.458674 17.2724766,53.7195874 17.1566464,52.0257894 L17.1566464,51 C17.0126862,51.1585105 16.9829013,52.4990565 16.9829013,52.6983268 C16.8986989,54.4885356 16.7251,56.2687643 16.4633205,58.0265442 C16.3772752,58.7375771 16.3193602,59.4463455 16,60.078123 C16,60.1573783 16,60.2366335 16.0281302,60.3543842 C16.547711,62.4467229 16.6900165,64.5775569 16.7777165,66.7491508 L16.7777165,67.5417034 C16.7777165,68.4882375 16.7495863,68.2889672 17.3237728,68.6059882 C17.555433,68.7237388 17.8135687,68.7644987 18.0452289,69 C18.2189741,69 18.2471042,68.8029941 18.2471042,68.6444836 L18.161059,67.342433 L18.161059,63.710278 C18.1329288,63.076236 18.2189741,62.4467229 18.2768891,61.8534407 L18.2785438,61.8511762 Z" id="Path" fill="#C2BFBF"></path>
        </g>
    </g>
</svg>