<?xml version="1.0" encoding="UTF-8"?>
<svg width="70px" height="77px" viewBox="0 0 70 77" version="1.1" xmlns="http://www.w3.org/2000/svg" xmlns:xlink="http://www.w3.org/1999/xlink">
    <!-- Generator: Sketch 53.1 (72631) - https://sketchapp.com -->
    <title>microsoft-sql-server</title>
    <desc>Created with Sketch.</desc>
    <defs>
        <linearGradient x1="25.8951071%" y1="76.4064363%" x2="38.3411716%" y2="69.6673405%" id="linearGradient-1">
            <stop stop-color="#909CA9" offset="0%"></stop>
            <stop stop-color="#EDEDEE" offset="100%"></stop>
        </linearGradient>
        <linearGradient x1="0.167947727%" y1="49.8457052%" x2="18.5944843%" y2="49.8457052%" id="linearGradient-2">
            <stop stop-color="#939FAB" offset="0%"></stop>
            <stop stop-color="#DCDEE1" offset="100%"></stop>
        </linearGradient>
    </defs>
    <g id="Page-1" stroke="none" stroke-width="1" fill="none" fill-rule="evenodd">
        <g id="microsoft-sql-server" fill-rule="nonzero">
            <g id="Group" transform="translate(0.017455, 0.016779)">
                <path d="M44.1659953,35.7482202 L28.8398731,40.7527413 L15.5063604,46.6375128 L11.7761137,47.6223057 C10.8260971,48.5259539 9.82997929,49.4411942 8.75261005,50.3679198 C7.57101891,51.3872752 6.47051893,52.3141611 5.62472425,52.9859142 C4.68646001,53.7273802 3.29631822,55.1174685 2.58973538,55.997719 C1.53549689,57.3183082 0.701454552,58.7199887 0.342313668,59.7974648 C-0.294876942,61.743706 0.0180558707,63.7129712 1.24596192,65.5318597 C2.82141677,67.8486203 5.96084123,70.2117491 9.62137522,71.8219802 C11.4865787,72.6446442 14.6258963,73.6987224 16.9890252,74.2894378 C20.9160168,75.2857693 28.515455,76.3631386 32.6973122,76.5254277 C33.5428398,76.5601505 34.6782229,76.5601505 34.7244309,76.5254277 C34.817221,76.467307 35.4659503,75.2279158 36.2190617,73.6872906 C38.7907947,68.4394426 40.6442458,63.516066 41.6520091,59.3110247 C42.2543701,56.7625827 42.7292715,53.3682927 43.0419372,49.3486713 C43.1231887,48.2249337 43.1578047,44.4600176 43.0883056,43.1856363 C42.9839768,41.1005038 42.7986103,39.4092884 42.5092356,37.7526889 C42.4628673,37.509362 42.451115,37.2892193 42.474406,37.2776806 C42.520614,37.2429578 42.6596122,37.1966429 44.547893,36.6520287 L44.1657816,35.7485941 L44.1657816,35.748327 L44.1659953,35.748327 L44.1659953,35.7482202 Z M40.6675368,37.7987902 C40.806535,37.7987902 41.1771077,41.3551022 41.2697375,43.6026308 C41.2930285,44.0775322 41.2812762,44.3903048 41.2581988,44.3903048 C41.1656224,44.3903048 39.3004189,43.2899117 37.9684512,42.4558693 C36.8099374,41.7259955 34.6089909,40.2663012 34.2614955,39.9883049 C34.1454144,39.9072671 34.1569531,39.8957285 35.1070231,39.571257 C36.7170939,39.0266962 40.5401308,37.7987902 40.6675368,37.7987902 L40.6675368,37.7987902 Z M32.8596548,40.3705765 C32.9639835,40.3705765 33.2302275,40.5210065 33.8674181,40.914977 C36.2537311,42.4093407 39.4974843,44.2165838 40.8875727,44.8190516 C41.3161058,45.0043647 41.3623139,44.9347587 40.3778416,45.606779 C38.2694715,47.0431823 35.6396713,48.4564014 32.4192091,49.8813195 C31.8516778,50.136185 31.3767763,50.3330367 31.3652377,50.3330367 C31.3421604,50.3330367 31.4114458,50.0436086 31.5040222,49.6960064 C32.2802109,46.8112872 32.7204964,43.8921123 32.7437874,41.5520608 C32.7553261,40.393547 32.7553261,40.393547 32.8596548,40.3589844 C32.8363638,40.3705765 32.8479025,40.3705765 32.8596548,40.3705765 L32.8596548,40.3705765 Z M31.2494771,40.9844761 C31.3187625,41.0538684 31.2725544,43.6488923 31.1798178,44.3554751 C30.9713206,46.0468508 30.6469559,47.6222522 30.1142543,49.3948259 C29.9867948,49.8231454 29.8707672,50.1824999 29.8478501,50.2055772 C29.8012681,50.2634308 28.2142211,48.7111601 27.6929514,48.1087992 C26.7893031,47.0661528 26.0828271,46.0235598 25.5615039,45.0042044 C25.2950463,44.4828812 24.8781052,43.4635792 24.9127746,43.4287496 C25.0980877,43.3013435 31.2031088,40.9382146 31.2494771,40.9844761 Z M23.6731697,43.9616114 C23.6847083,43.9616114 23.696247,43.9616114 23.7079993,43.9731501 C23.7310766,43.9963342 23.8123281,44.1817541 23.8818271,44.390198 C24.2523998,45.3980681 25.0863353,46.8808397 25.8047774,47.8308029 C26.5925048,48.8734493 27.6236125,49.9854345 28.4806254,50.715255 C28.7587819,50.9469363 29.0134872,51.1669722 29.0481566,51.2018019 C29.117816,51.2713544 29.1409467,51.2596555 27.2526125,51.9779907 C25.0634183,52.812033 22.6768916,53.6460753 19.9429229,54.5264326 C19.2898382,54.7369871 18.6373491,54.9493848 17.9854635,55.1636232 C17.8810279,55.1984529 17.9158576,55.140439 18.2170381,54.665591 C19.5723502,52.5455754 21.6342986,48.3868489 22.7928124,45.444383 C22.989771,44.9346519 23.1866761,44.4250276 23.2215058,44.3091602 C23.2678741,44.1468711 23.3256743,44.0890175 23.4762111,44.0078729 C23.5573022,43.9849024 23.6385002,43.9616114 23.6731697,43.9616114 Z M21.356516,44.9231132 C21.3911854,44.9464042 20.8003631,46.1857955 20.2211329,47.3210718 C19.0973953,49.5104796 17.8694893,51.665325 16.2245354,54.2833194 C15.946539,54.7350367 15.6801882,55.1521914 15.6453586,55.1985063 C15.587505,55.2796509 15.564214,55.2563599 15.3789009,54.8973258 C14.9850372,54.1211371 14.6605657,53.1248056 14.4868448,52.2096186 C14.3130169,51.3059704 14.3478466,49.7306224 14.5448586,48.7575819 C14.6952886,48.039407 14.6838568,48.050999 15.0313521,47.8771712 C16.5141237,47.12422 21.3101476,44.8767983 21.356516,44.9231132 L21.356516,44.9231132 Z M41.3393968,45.7341317 L41.3393968,46.2206252 C41.3393968,48.8039502 41.0614005,52.3487236 40.6557845,54.9321555 C40.5862854,55.3838728 40.5281647,55.7544455 40.5167863,55.7661978 C40.5167863,55.7661978 40.180883,55.6736214 39.7870193,55.5575938 C38.0494356,55.0130864 36.1611547,54.2137669 34.458187,53.2756095 C33.3343426,52.661603 31.7010876,51.653626 31.7475093,51.6072577 C31.7588877,51.5957725 32.2455415,51.3409069 32.8130728,51.039673 C35.0838923,49.8581353 37.2615479,48.5838609 39.1498287,47.3211786 C39.8565184,46.8461703 40.9220819,46.0817339 41.1540304,45.8731298 L41.3393968,45.7341317 Z M12.610156,49.1628774 C12.6564709,49.1628774 12.6448789,49.2555607 12.5753798,49.6726085 C12.5290114,49.9738959 12.4711579,50.5299419 12.448134,50.9120533 C12.355237,52.6034289 12.633447,53.854626 13.4674894,55.5690256 C13.6991708,56.0440339 13.8846441,56.4378976 13.8728917,56.4493828 C13.7917472,56.5189887 6.12307697,58.7664639 3.7133661,59.4266784 C2.99519117,59.6235301 2.36975291,59.7973579 2.3231709,59.8087898 C2.24224,59.8320808 2.23059449,59.8205421 2.26531732,59.6234233 C2.53172154,57.9206692 3.82923351,55.6964316 5.63631634,53.8196895 C6.84114506,52.5686527 7.80270031,51.8388857 9.44765424,50.9004078 C10.6292454,50.2286546 12.4479737,49.2209447 12.5869719,49.1744695 C12.5870787,49.1628774 12.5986174,49.1628774 12.610156,49.1628774 L12.610156,49.1628774 Z M30.6817856,52.3949317 C30.6933242,52.383393 30.9713206,52.5340901 31.3072239,52.7309418 C33.786327,54.167452 37.2384171,55.4996868 40.1806693,56.1830854 L40.4472872,56.2410993 L40.0765009,56.4493828 C38.5358757,57.3067162 33.473501,59.4149795 28.2954191,61.349682 C27.5423077,61.6275715 26.801002,61.9057281 26.6617902,61.9635816 C26.522792,62.0214352 26.3953326,62.0562649 26.3953326,62.0447262 C26.3953326,62.0329739 26.60399,61.6275715 26.870234,61.1295393 C28.3182828,58.4188082 29.7780305,55.1173083 30.5193896,52.8235717 C30.6122865,52.6034824 30.6700332,52.4066306 30.6817856,52.3949317 L30.6817856,52.3949317 Z M28.8398731,52.9973995 C28.8516254,53.0092053 28.7588354,53.252265 28.6429145,53.5302614 C27.6351512,55.9745348 26.3143482,58.6391112 24.6231328,61.6277852 C24.1945997,62.3924353 23.8354054,63.0064417 23.823653,63.0064417 C23.8122746,63.0064417 23.464619,62.7977842 23.0476245,62.5429721 C20.5915988,61.0369629 18.4138364,59.1835117 16.9890786,57.3879142 L16.7804745,57.1330486 L17.8345528,56.8434068 C21.6111144,55.8125127 24.8198243,54.7004207 28.0056705,53.3335165 C28.457548,53.1480966 28.8283344,52.9973995 28.8398731,52.9973995 L28.8398731,52.9973995 Z M40.2852118,56.993997 C40.2852118,56.993997 40.2968039,57.0055891 40.2852118,56.993997 C40.2967504,57.2604547 39.7059282,59.6468745 39.2193278,61.3727594 C38.8139254,62.8208081 38.4662163,63.9561912 37.8292394,65.9601258 C37.5512431,66.8407501 37.3081299,67.5703569 37.2963775,67.5703569 C37.2848389,67.5703569 37.2153398,67.5588182 37.1458407,67.5357943 C33.7053426,66.9100355 30.6238786,66.0412703 27.727781,64.8829168 C26.9167626,64.5584453 25.758409,64.0371221 25.68891,63.9792685 C25.6658326,63.9558707 26.3609302,63.6317197 27.2412875,63.2493947 C32.5121594,60.9441194 37.9799365,58.3260181 39.8565184,57.2024943 C40.0765543,57.0634427 40.2503821,56.993997 40.2852118,56.993997 L40.2852118,56.993997 Z M13.8613531,57.8976453 C13.8845372,57.9207226 12.4133043,60.0407383 10.3511956,62.9251903 C9.63302072,63.9330605 8.79897838,65.1145982 8.48625925,65.5547768 C8.17343327,65.9950089 7.69853182,66.6901065 7.43207418,67.1071543 L6.94531355,67.8601589 L6.42399034,67.4199803 C5.8099839,66.9101424 4.74436701,65.8212879 4.26941213,65.2188735 C3.27308064,63.9794822 2.60132746,62.6704316 2.33486982,61.4773552 C2.20741033,60.9212023 2.20741033,60.6430458 2.32311748,60.6084832 C2.49683846,60.5621683 5.58989459,59.8322944 8.48615241,59.1602742 C10.0963835,58.7897015 11.9613199,58.3495228 12.6332333,58.1873405 C13.3052002,58.0248911 13.8498144,57.8976453 13.8613531,57.8976453 L13.8613531,57.8976453 Z M15.3440713,58.4652834 L15.714644,58.8822779 C17.3829957,60.7473745 19.0858567,62.1261379 21.1478585,63.3306461 C21.5186449,63.5393036 21.7965877,63.7245098 21.7732967,63.7363156 C21.6924193,63.7941692 14.6141974,66.307728 11.3358816,67.4430576 C9.49407599,68.0917335 7.97642129,68.6130033 7.96498947,68.6130033 C7.9534508,68.6130033 7.84912206,68.543611 7.73309439,68.4624665 L7.524704,68.3118228 L7.8606073,67.8253827 C8.94946178,66.2498744 10.3166331,64.5238827 13.2937684,60.932741 L15.3440713,58.4652834 Z M24.5885168,65.0798219 C24.5998952,65.0683367 25.1096264,65.2535429 25.735118,65.4854914 C27.2412875,66.0530227 28.434257,66.4120567 30.0330563,66.8175659 C32.0024283,67.3157584 34.8521041,67.8023054 36.5319411,67.9412501 C36.7868067,67.9643274 36.9258048,67.9876184 36.8794365,68.0223947 C36.7981851,68.068763 35.0954844,68.6364011 33.8443408,69.0302648 C31.8516778,69.6557031 25.7700011,71.4512473 20.8119552,72.8762187 C19.8967683,73.1426229 19.1089874,73.3627657 19.0626725,73.3742509 C18.9469654,73.3975419 18.5645335,73.2931063 18.5645335,73.2467914 C18.5645335,73.2237675 18.8425298,72.8646801 19.1785399,72.4707629 C20.8465712,70.4782068 22.5032774,68.2540761 23.8818271,66.1457059 C24.2639919,65.5663155 24.5885168,65.091414 24.5885168,65.0798219 Z M22.5494855,65.1378892 C22.5610242,65.1494279 21.7386273,66.4699637 20.3023309,68.7404628 C19.6882176,69.7019646 19.0047121,70.7908725 18.7613852,71.1731975 C18.5297038,71.5438771 18.1822084,72.1232141 17.9853567,72.4474719 L17.6493466,73.0383476 L17.4756256,72.9919793 C17.0584709,72.8761119 14.1277039,71.8450041 13.3515151,71.532285 C12.3899599,71.14996 11.3937352,70.686704 10.6522693,70.2928403 C9.72565054,69.7946478 8.56729699,69.0531819 8.65987339,69.030158 C8.68300414,69.0186193 10.2701045,68.5898191 12.1814092,68.0686562 C17.2554294,66.6899462 20.070329,65.8907335 21.9124017,65.3115568 C22.2484119,65.2072814 22.5379468,65.1261369 22.5494855,65.1378892 Z M36.9720129,68.52032 L36.9835516,68.52032 C37.0299199,68.6362943 35.1533914,73.8492058 34.4696188,75.4941063 C34.3192422,75.8647858 34.2614955,75.9576293 34.1802441,75.9458236 C33.9832855,75.9344452 31.2610692,75.5521201 29.6043095,75.3087932 C26.7199643,74.8686146 21.8776255,74.0228199 20.6613649,73.7449305 L20.3833686,73.6870769 L22.1092,73.2929461 C25.816316,72.4589037 27.6002681,72.0071865 29.4073509,71.4511404 C31.6895489,70.7560962 33.9486161,69.8872242 36.2306004,68.8215539 C36.5896879,68.6593182 36.8909218,68.5319121 36.9720129,68.52032 Z" id="Shape" fill="url(#linearGradient-1)"></path>
                <path d="M28.3649716,0.0221157707 C28.1101061,-0.0124467985 23.9975343,1.47032481 21.344817,2.54753379 C17.7651605,4.00733491 14.9850906,5.39753012 13.2705308,6.60203832 C12.6335004,7.05402271 11.8340207,7.85323538 11.7067749,8.16595451 C11.66046,8.28182192 11.637169,8.42082007 11.637169,8.55981822 L13.1895465,10.0310512 L16.8848567,11.2126423 L25.6774247,12.7881506 L35.7325148,14.5142491 L35.8368435,13.6454305 C35.8021741,13.6454305 35.7788831,13.6338918 35.7444274,13.6338918 L34.4234641,13.4252878 L34.1572202,12.9503863 C32.7902091,10.5407823 31.2842534,7.55200149 30.4038961,5.53631459 C29.7204974,3.9723984 29.0717147,2.16542242 28.7125204,0.86791045 C28.5155619,0.0801830236 28.4924845,0.0338681126 28.3652387,0.0223294496 L28.3652387,0.0220623509 L28.3649716,0.0220623509 L28.3649716,0.0221157707 Z M28.1793915,0.613098309 L28.1913041,0.613098309 C28.2026825,0.624530133 28.2490508,0.949108448 28.2954726,1.3311664 C28.4922174,2.95320326 28.8516254,4.51685235 29.4191567,6.20822803 C29.8476898,7.48255583 29.8476898,7.41311017 29.3496576,7.2624131 C28.1680665,6.9381553 22.8740638,6.02296839 19.0396486,5.49010652 C18.4256422,5.40896194 17.904319,5.3279242 17.904319,5.31638554 C17.858004,5.27007063 20.6729036,3.79873084 21.9124552,3.2196609 C23.4995021,2.48968021 27.8551871,0.670951883 28.1793915,0.613098309 L28.1793915,0.613098309 Z M17.0121559,5.80282565 L17.4641403,5.95325563 C19.9198456,6.78745823 26.0941521,7.96910278 29.500141,8.24709909 C29.8823058,8.28187534 30.2068307,8.31670501 30.2182091,8.31670501 C30.2297478,8.32824367 29.9055968,8.50201807 29.4884421,8.6988698 C27.8436484,9.52137347 26.0364053,10.5292436 24.7852617,11.3054324 C24.414689,11.5370069 24.078572,11.7224803 24.032364,11.7224803 C23.9859956,11.7224803 23.742829,11.6761119 23.4879634,11.6413357 L23.0246006,11.5717298 L21.8663005,10.4364001 C19.8274294,8.45559632 18.228737,6.9265098 17.6147306,6.34717276 L17.0121559,5.80282565 L17.0121559,5.80282565 Z M16.5489534,6.1618597 L18.1823153,8.20078418 C19.0742112,9.32446832 19.977806,10.4249149 20.1749248,10.6680815 C20.3716697,10.9115153 20.5339589,11.1085272 20.5224202,11.1200659 C20.4760519,11.1547887 18.1593448,10.7029112 16.931225,10.4250217 C15.6685427,10.1353265 15.147273,9.99632834 14.3711376,9.75316171 L13.733947,9.54455764 L13.733947,9.38226848 C13.7454857,8.60607972 14.7302785,7.44772616 16.3983632,6.26624186 L16.5489534,6.1618597 Z M30.42692,8.94214327 C30.4733418,8.94214327 30.5310885,9.04636518 30.6700867,9.35913773 C31.0639504,10.2279029 32.2921235,12.5680613 32.5930369,13.0197786 C32.6859872,13.1705291 32.8479025,13.1820677 31.2147009,12.9156101 C27.2877092,12.2783126 26.0248667,12.0700291 26.0248667,12.0468449 C26.0248667,12.0353062 26.1407341,11.9541617 26.2913243,11.8730171 C27.5077451,11.2012639 28.7355978,10.3439306 29.8246125,9.42874365 C30.0910701,9.20860092 30.3343436,9.00010369 30.3805517,8.96527402 C30.3920904,8.94214327 30.4153814,8.93060461 30.42692,8.94214327 Z" id="Shape" fill="url(#linearGradient-2)"></path>
                <path d="M11.7875989,8.00377219 C11.7875989,8.00377219 11.5328936,8.40938825 11.7761137,9.01180261 C11.9268642,9.38237532 12.3669894,9.83409261 12.8650216,10.2975622 C12.8650216,10.2975622 18.0200261,15.3251073 18.6456246,16.0434424 C21.495247,19.3332969 22.734852,22.5769433 22.8507194,27.0485491 C22.9202185,29.9214625 22.3756043,32.4468271 21.0203456,35.3777009 C18.610795,40.6370342 13.5251827,46.4408214 5.68263125,52.8817458 L6.82965982,52.4994207 C7.57101891,51.9432678 8.57888907,51.3526592 10.9420179,50.0551473 C16.3981495,47.0662062 22.5378934,44.3207523 30.0677791,41.4942072 C40.9104364,37.4164117 58.7389527,32.643572 68.8866192,31.0914615 L69.9409645,30.9291724 L69.7786753,30.6743068 C68.85211,29.2377967 68.2147591,28.3459008 67.450109,27.395991 C65.2260852,24.6388916 62.5271064,22.4032223 59.2253928,20.5496643 C54.6843413,18.0128144 48.8108948,16.0319038 41.3739594,14.5606708 C39.972279,14.2825143 36.8908149,13.7497058 34.3886345,13.3674342 C29.0829329,12.5451442 25.6539735,11.9773993 21.8775721,11.32867 C20.5223134,11.0968817 18.4948741,10.7494398 17.1511007,10.4599048 C16.4560565,10.3091543 15.123982,9.99643518 14.081389,9.63734772 C13.2473466,9.31282282 12.0424645,8.98845819 11.7875989,8.00377219 L11.7875989,8.00377219 Z M14.77654,10.8999766 C14.7879718,10.8885448 14.9732849,10.9578302 15.2167186,11.0389747 C15.6568972,11.1894047 16.2244819,11.3632325 16.8965556,11.5487059 C17.4049892,11.6885555 17.9147066,11.8236954 18.4256422,11.9541082 C19.1206863,12.1277758 19.6998097,12.2900115 19.7113484,12.2900115 C19.7925998,12.3711561 20.9626523,16.112621 21.356516,17.5491311 C21.5068925,18.0937453 21.6229736,18.5570013 21.6113815,18.5570013 C21.5994689,18.5687536 21.4722231,18.3716882 21.3216863,18.105284 C19.9662673,15.7188641 17.8231744,13.2977749 15.3440713,11.3515336 C15.0198669,11.1200659 14.77654,10.9115153 14.77654,10.8999766 L14.77654,10.8999766 Z M20.4759985,12.4754314 C20.5339589,12.4754314 20.7888244,12.5102077 21.1014367,12.5796534 C23.0708087,13.019832 26.6040969,13.6917454 28.8629504,14.0740705 C29.2452755,14.131924 29.5465628,14.2015834 29.5465628,14.2246073 C29.5465628,14.2478983 29.4074044,14.3288292 29.2335765,14.4216193 C28.8514652,14.618471 27.3106263,15.5335511 26.8010554,15.8811533 C25.5150821,16.7383798 24.356782,17.6651054 23.5226328,18.4991477 C23.1867295,18.8351578 22.8969809,19.1131542 22.8969809,19.1131542 C22.8969809,19.1131542 22.8276955,18.9163024 22.7695214,18.6728687 C22.3527406,17.0626376 21.4837618,14.6762177 20.6960343,12.9965944 C20.5685749,12.7302436 20.4642461,12.4869167 20.4642461,12.4638394 C20.4642461,12.4869701 20.4642461,12.4754314 20.4759985,12.4754314 L20.4759985,12.4754314 Z M30.5079578,14.386843 C30.5774568,14.4099203 30.6933242,14.8038375 30.9249522,15.6726026 C31.3536456,17.3524397 31.5506042,19.229075 31.4811051,20.9783042 C31.4578141,21.4648512 31.4347368,21.9165685 31.4114458,21.9746357 L31.3767763,22.0903429 L30.7744154,21.8934912 C29.5348639,21.4996274 27.5192838,20.9086983 25.7932921,20.4222582 C24.8084459,20.1558006 24.0093401,19.9125271 24.0093401,19.8893963 C24.0093401,19.8197904 25.4458502,18.3833871 26.0597498,17.8389866 C27.2295352,16.8078255 30.403629,14.3520134 30.5079578,14.386843 L30.5079578,14.386843 Z M31.3072773,14.5025502 C31.3421069,14.4679876 36.1032477,15.2902776 38.2695249,15.7073789 C39.8798628,16.020098 42.2198075,16.5066984 42.3587522,16.5647122 C42.4282513,16.5877896 42.1849244,16.7267877 41.4087357,17.0742831 C38.3505626,18.4529396 36.0799033,19.6922775 33.82121,21.1983935 C33.2303878,21.5922573 32.7321953,21.9165685 32.7206566,21.9165685 C32.709118,21.9165685 32.6975259,21.5807186 32.6975259,21.1752094 C32.6975259,18.9742628 32.2572939,16.7500253 31.446222,14.87339 C31.3651843,14.6880235 31.2956852,14.5143025 31.3072773,14.5025502 L31.3072773,14.5025502 Z M43.6213811,16.9353918 C43.6562108,16.9701146 43.5055137,17.9085391 43.3665156,18.4644783 C42.9495211,20.1905768 41.8258904,22.7508779 40.4475009,25.1602683 C40.2040138,25.5889082 39.9839779,25.936457 39.9606335,25.9479957 C39.9377164,25.9595343 39.6248904,25.7857065 39.2656961,25.5772093 C37.9219761,24.7894819 36.3928896,24.0481228 34.7246446,23.3529718 C34.2614421,23.15612 33.8558795,22.9938309 33.8442874,22.9708604 C33.763036,22.9012545 37.4932827,20.4337969 39.4626547,19.2522057 C41.0265709,18.3023494 43.5750128,16.88897 43.6213811,16.9353918 L43.6213811,16.9353918 Z M44.5017384,17.0743365 C44.6060671,17.0743365 46.7144372,17.6536201 47.814777,17.9779848 C50.537207,18.7889498 53.6648791,19.9357112 55.7037501,20.8624368 L56.5492777,21.2448687 L55.9586691,21.38376 C50.9775459,22.5305215 46.7144372,23.8513245 42.6019189,25.5194091 C42.2659622,25.6584073 41.9647283,25.7742747 41.9418112,25.7742747 C41.9185202,25.7742747 42.0343876,25.5078705 42.1849778,25.183399 C43.4245294,22.5538125 44.2238489,19.8083052 44.4205938,17.4681468 C44.4323995,17.2480041 44.4669087,17.0743365 44.5017384,17.0743365 L44.5017384,17.0743365 Z M23.5110942,21.8934912 C23.5457636,21.8586615 25.1560481,22.24104 26.0248667,22.4840998 C27.345456,22.8549396 30.1487635,23.7931504 30.1487635,23.8627563 C30.1487635,23.874295 29.8360977,24.1407526 29.465525,24.4652241 C27.9479772,25.7279064 26.4882295,27.0599275 24.7388934,28.7513032 C24.2175702,29.2496025 23.7774984,29.6550048 23.7544211,29.6550048 C23.7311301,29.6550048 23.7197517,29.5853455 23.7311301,29.4927157 C23.9975343,27.5464744 23.9397876,25.0443474 23.5690546,22.5073908 C23.5341715,22.1829193 23.4995021,21.9050298 23.5110942,21.8934912 L23.5110942,21.8934912 Z M57.3489178,21.9283208 C57.3718348,21.9513447 56.6073984,23.15612 56.1209049,23.8395187 C55.4259675,24.8357434 54.4062382,26.1565998 52.1009629,29.0526439 C50.8848626,30.5816236 49.5176913,32.3078289 49.0660809,32.8870057 C48.6025044,33.4661825 48.220393,33.9526226 48.2086407,33.9526226 C48.197102,33.9526226 48.0467255,33.7442322 47.8844363,33.4894201 C46.5869243,31.5431788 45.0345468,29.8402645 43.1926343,28.311178 C42.8451389,28.0214827 42.4630276,27.7087102 42.3355681,27.6160269 C42.2081086,27.5233971 42.1037798,27.4307139 42.1037798,27.4191752 C42.1037798,27.3845058 44.0729381,26.5386577 45.5675689,25.9364036 C48.1856702,24.870573 51.7532538,23.5963521 54.4294758,22.773795 C55.8312096,22.3336698 57.3256268,21.9050298 57.3489178,21.9283208 L57.3489178,21.9283208 Z M58.2408137,22.159842 C58.2870217,22.1483567 58.5651783,22.2873549 58.901135,22.4840998 C61.7161948,24.0943309 64.4730806,26.1680316 66.6511101,28.2995859 C67.2650097,28.9020537 68.7825575,30.4775085 68.7592665,30.4890472 C68.7592665,30.4890472 68.2264046,30.5353621 67.6009664,30.5816236 C62.7239582,30.9524634 56.4801526,31.983304 50.4793534,33.4312994 C50.073951,33.5238758 49.714917,33.6050204 49.691626,33.6050204 C49.6687089,33.6050204 50.1203194,33.1533031 50.6880643,32.6089026 C54.2096001,29.2147194 55.8199381,27.0716264 57.7195973,23.2486964 C57.9859481,22.6812186 58.2177363,22.1946716 58.2408137,22.159842 C58.229275,22.159842 58.229275,22.159842 58.2408137,22.159842 L58.2408137,22.159842 Z M32.4425001,24.8012342 C32.6047892,24.8357968 34.110745,25.5427002 35.2459678,26.110178 C36.2885608,26.6312875 37.8525304,27.4655435 37.9335682,27.5349358 C37.9451068,27.5464744 37.3889539,27.8361163 36.7057689,28.1721264 C34.5277395,29.2610343 32.6627497,30.2919284 30.716455,31.4735729 C30.1604624,31.8095831 29.6970996,32.0877396 29.6855609,32.0877396 C29.6391926,32.0877396 29.6507313,32.0411576 29.9635572,31.4735729 C31.0062036,29.5739137 31.8401391,27.3033612 32.3152543,25.0906623 C32.3614089,24.9169414 32.4078307,24.8012342 32.4425001,24.8012342 L32.4425001,24.8012342 Z M30.9364909,25.0791237 C30.9713206,25.1139533 30.5774568,26.5387111 30.3342902,27.3148999 C29.8591751,28.7861328 29.059909,30.6279919 28.2838805,32.0181337 C28.0983003,32.3423381 27.8203574,32.8173464 27.6697672,33.0837506 L27.3802322,33.5471134 L26.731503,32.9217285 C25.9786052,32.1918547 25.3644919,31.740084 24.5769247,31.3345213 C24.2639385,31.1724993 24.0207719,31.0333409 24.0207719,31.010317 C24.0207719,30.9176337 26.0016825,29.1220896 27.5192304,27.824631 C28.6080849,26.8862599 30.9018215,25.0444009 30.9364909,25.0791237 L30.9364909,25.0791237 Z M40.146267,28.8672774 L40.7139586,29.2378501 C42.0110966,30.0836448 43.5401831,31.2072221 44.7104493,32.1918547 C45.370557,32.7362018 46.6447779,33.8832304 46.8998572,34.1612267 L47.0386416,34.3119772 L46.1005376,34.578328 C40.7948361,36.0494007 36.6940166,37.3584513 31.9096382,39.1193795 C31.3767763,39.3162312 30.9249522,39.4784135 30.8901226,39.4784135 C30.8208372,39.4784135 30.7627165,39.5362671 31.95606,38.4357137 C35.0143933,35.6209744 37.7249641,32.5161659 39.7407044,29.4926623 L40.146267,28.8672774 L40.146267,28.8672774 Z M37.7250709,29.4696384 C37.7481483,29.4927157 36.1611547,31.7284385 35.2111382,32.9911742 C34.0759153,34.4971834 32.060175,37.0224946 30.6700867,38.6673416 C30.0910167,39.350954 29.5929845,39.9185387 29.5696935,39.9301842 C29.5348639,39.9417229 29.5233252,39.7680019 29.5233252,39.5015442 C29.5233252,38.0997035 29.1642911,36.6053398 28.5386392,35.3311723 C28.2721816,34.7983104 28.2258132,34.6708509 28.2839339,34.6129974 C28.5039698,34.4159854 31.8749688,32.4929817 34.0064163,31.3462203 C35.442873,30.581677 37.6900276,29.4464542 37.7250709,29.4696384 L37.7250709,29.4696384 Z M23.0823474,33.0607801 C23.117177,33.0607801 23.3836347,33.1996714 23.6848686,33.3619606 C24.4262277,33.767363 25.086549,34.2191337 25.6773179,34.7057875 C25.7003952,34.7288648 25.3993216,34.9722451 25.0054579,35.2616732 C23.9049045,36.0494007 22.2368198,37.3121898 21.2638861,38.0883786 C20.2442102,38.8992901 20.2097011,38.9224209 20.3254082,38.7486999 C21.0900583,37.5786474 21.4721697,36.9183261 21.8777857,36.0727451 C22.2368198,35.3198473 22.5958538,34.4277911 22.8507194,33.6516024 C22.9433492,33.3156457 23.05927,33.0607801 23.0823474,33.0607801 Z M26.9864219,36.1189531 C27.0441687,36.1075213 27.1138814,36.2116364 27.4264937,36.675106 C28.0868151,37.6595783 28.5965462,38.9803813 28.7241659,40.046105 L28.747083,40.2778933 L27.1602498,40.8918997 C24.3218989,41.9922929 21.7040113,43.0813076 19.9313842,43.8920589 C19.4334055,44.1238472 18.5645335,44.5407882 17.9970022,44.8189982 C17.4293107,45.1084263 16.9659479,45.328569 16.9659479,45.3170304 C16.9659479,45.3054917 17.3249819,45.0390341 17.7651605,44.7145626 C21.2291099,42.2008969 24.2293225,39.4436907 26.4766374,36.6866981 C26.7199643,36.3970029 26.9401604,36.1305452 26.9631309,36.1190066 L26.9864219,36.1189531 Z M25.1908778,36.5592386 C25.2372461,36.6055535 23.9166568,38.0998638 23.013062,39.0149973 C20.7772858,41.2972487 18.5646403,43.0813076 15.8190796,44.8189982 C15.4715842,45.0390341 15.158865,45.2358858 15.1240354,45.2591768 C15.0428908,45.3054917 15.1471127,45.1895709 16.3519414,43.8805203 C17.1165915,43.0580166 17.6957149,42.3629724 18.3560362,41.5058527 C18.7962149,40.9383215 18.8773594,40.8571769 19.5146035,40.4051925 C21.2175178,39.177233 25.1445094,36.5128169 25.1908778,36.5592386 Z" id="Shape" fill="#CECECE"></path>
            </g>
        </g>
    </g>
</svg>