<svg xmlns="http://www.w3.org/2000/svg" width="65" height="61.619" viewBox="0 0 65 61.619">
  <defs>
    <style>
      .cls-1 {
        fill: #fefefe;
      }
    </style>
  </defs>
  <g id="mysql_1_" data-name="mysql (1)" transform="translate(-393.625 -393.624)">
    <g id="Group_2904" data-name="Group 2904" transform="translate(393.625 393.624)">
      <path id="Path_1658" data-name="Path 1658" class="cls-1" d="M64.751,59.595a20.366,20.366,0,0,0-4.827-4.03c-2.056-1.405-4.168-2.851-5.226-4.531,4.014-.795,9.092-2.235,9.336-2.3a1.32,1.32,0,0,0,.908-.863,1.232,1.232,0,0,0-.261-1.193A41.351,41.351,0,0,0,48.349,36.185c-.438-.831-.926-1.9-1.493-3.129C42.86,24.364,34.563,6.324,12.673,3.9,10.928,2.78,6.357,0,4.062,0,1.215,0,0,1.154,0,3.853,0,5.167,1.128,6.7,2.968,9.1c.9,1.172,2.4,3.134,2.449,3.738,0,2.1,2.571,8.9,5.156,11.813-.074.149-.148.3-.221.441a18,18,0,0,0-2.227,9.569c0,6.742,3.407,10.27,6.771,10.27,2.088,0,3.127-2.247,3.627-4.877,1.855,3.569,4.886,8.219,9.133,11.061a1.409,1.409,0,0,0,1.888-.308,1.243,1.243,0,0,0-.325-1.79c-6.734-4.506-10.292-14.651-10.328-14.754a1.366,1.366,0,0,0-1.5-.869,1.307,1.307,0,0,0-1.141,1.267c0,3.525-.709,7.281-1.354,7.7-1.953,0-4.062-2.945-4.062-7.7A15.577,15.577,0,0,1,12.8,26.194c.205-.41.417-.831.627-1.28a1.241,1.241,0,0,0-.353-1.494c-2.087-1.7-4.947-8.876-4.947-10.581,0-1.314-1.128-2.85-2.968-5.248-.9-1.172-2.4-3.134-2.449-3.738,0-1.284,0-1.284,1.354-1.284,1.1,0,4.675,1.882,7.359,3.627a1.4,1.4,0,0,0,.62.217c20.581,2.116,28.226,18.739,32.332,27.67.692,1.5,1.289,2.8,1.829,3.755a1.336,1.336,0,0,0,.758.608,39.413,39.413,0,0,1,14.161,8.408c-2.306.613-5.989,1.546-8.531,1.947a1.36,1.36,0,0,0-.91.563,1.222,1.222,0,0,0-.181,1.014c.832,3.159,4.024,5.343,6.84,7.269a18.714,18.714,0,0,1,4.2,3.432,1.377,1.377,0,0,0,1.107.542,1.4,1.4,0,0,0,.782-.236A1.243,1.243,0,0,0,64.751,59.595Z" transform="translate(0 -0.002)"/>
      <path id="Path_1659" data-name="Path 1659" class="cls-1" d="M96,76.111a1.441,1.441,0,0,0,1.442,1.442,1.443,1.443,0,0,1,1.442,1.442,1.442,1.442,0,1,0,2.884,0,4.33,4.33,0,0,0-4.326-4.326A1.441,1.441,0,0,0,96,76.111Z" transform="translate(-83.884 -64.42)"/>
    </g>
  </g>
</svg>
