<?xml version="1.0" encoding="UTF-8"?>
<svg width="180px" height="45px" viewBox="0 0 180 45" version="1.1" xmlns="http://www.w3.org/2000/svg" xmlns:xlink="http://www.w3.org/1999/xlink">
    <!-- Generator: Sketch 53.1 (72631) - https://sketchapp.com -->
    <title>Group 18</title>
    <desc>Created with Sketch.</desc>
    <g id="Page-1" stroke="none" stroke-width="1" fill="none" fill-rule="evenodd">
        <g id="Group-18" transform="translate(90.000000, 22.500000) scale(-1, 1) translate(-90.000000, -22.500000) ">
            <path d="M3,0 L157.5,7.10542736e-15 C169.926407,4.82273345e-15 180,10.0735931 180,22.5 C180,34.9264069 169.926407,45 157.5,45 L3,45 C1.34314575,45 3.8818616e-15,43.6568542 0,42 L0,3 C-2.02906125e-16,1.34314575 1.34314575,7.48448398e-16 3,4.4408921e-16 Z M156.6175,41 C166.783682,41 175.025,32.7172679 175.025,22.5 C175.025,12.2827321 166.783682,4 156.6175,4 C146.451318,4 138.21,12.2827321 138.21,22.5 C138.21,32.7172679 146.451318,41 156.6175,41 Z" id="Combined-Shape" fill="#FFFFFF"></path>
            <circle id="Oval" fill="#FEFEFE" cx="156.5" cy="22.5" r="16.5"></circle>
            <g id="ic_navigate_next" transform="translate(143.000000, 9.000000)">
                <g id="Icon-24px">
                    <path d="M12.6491559,5.411639 C11.8695292,4.63201231 10.6084702,4.62904664 9.82163944,5.41587743 L10.4375441,4.79997278 C9.65557658,5.58194029 9.66040426,6.85598242 10.4350899,7.63235949 L14.8058278,12.0126405 C15.5864399,12.794957 15.5805134,14.069282 14.8058278,14.8456591 L10.4350899,19.2259401 C9.65447779,20.0082566 9.65071331,21.271496 10.4375441,22.0583268 L9.82163944,21.4424222 C10.603607,22.2243897 11.8708314,22.2249851 12.6491559,21.4466606 L19.2550277,14.8407888 C20.0346544,14.0611621 20.0333522,12.7958353 19.2550277,12.0175108 L12.6491559,5.411639 Z" id="Shape" fill="#6C6C6C"></path>
                    <polygon id="Shape" points="0 0 28 0 28 28 0 28"></polygon>
                </g>
            </g>
        </g>
    </g>
</svg>