<svg xmlns="http://www.w3.org/2000/svg" xmlns:xlink="http://www.w3.org/1999/xlink" width="1280" height="182" viewBox="0 0 1280 182">
  <defs>
    <clipPath id="clip-Artboard_3">
      <rect width="1280" height="182"/>
    </clipPath>
  </defs>
  <g id="Artboard_3" data-name="Artboard – 3" clip-path="url(#clip-Artboard_3)">
    <rect width="1280" height="182" fill="#fff"/>
    <g id="Group_3534" data-name="Group 3534" transform="translate(0 -1383)">
      <rect id="Rectangle_25" data-name="Rectangle 25" width="1280" height="182" transform="translate(0 1383)" fill="#0045ff"/>
      <g id="news" transform="translate(746.5 1476.531)" opacity="0.101">
        <path id="Path_2022" data-name="Path 2022" d="M84.559,209.2l1.7-.673,1.345,3.408-1.7.673Zm0,0" transform="translate(-74.878 -184.655)" fill="#d3d3d3"/>
        <path id="Path_2023" data-name="Path 2023" d="M56.781,24.749v4.022L29.306,42.951,1.832,28.771V25.192L29.306,3.478l2.33,1.842,1.136-1.437L29.306,1.145,0,24.306V59.55H58.613v-34.8ZM1.832,30.832,27.31,43.981,1.832,57.132ZM4.687,57.719,29.306,45.012,53.926,57.719Zm52.094-.587L31.3,43.981,56.781,30.832Zm0,0" transform="translate(0 -1.014)" fill="#d3d3d3"/>
        <path id="Path_2024" data-name="Path 2024" d="M114.882,53.562l-9.371,3.7,3.362,8.517,3.408-1.344L115.3,72.1l5.111-2.015-3.022-7.667.851-.336a20.038,20.038,0,0,1,15.054-.038l1.992.824L126.8,41.352l-.895,1.959A20.037,20.037,0,0,1,114.882,53.562ZM109.9,63.4l-2.015-5.111L114.7,55.6l2.015,5.111Zm8.137,5.65-1.7.672-2.354-5.962,1.7-.672Zm14.012-9.393a21.932,21.932,0,0,0-13.619.418l-2.044-5.18a21.941,21.941,0,0,0,10.234-9Zm0,0" transform="translate(-93.433 -36.618)" fill="#d3d3d3"/>
        <path id="Path_2025" data-name="Path 2025" d="M395.286,10.754a16.37,16.37,0,0,1-.205,12.615l1.681.732A18.334,18.334,0,0,0,387.252,0l-.733,1.68A16.375,16.375,0,0,1,395.286,10.754Zm0,0" transform="translate(-342.271)" fill="#d3d3d3"/>
        <path id="Path_2026" data-name="Path 2026" d="M373.252,51.753a10.919,10.919,0,0,1-.136,8.408l1.685.726a12.837,12.837,0,0,0-6.662-16.864l-.733,1.681A10.918,10.918,0,0,1,373.252,51.753Zm0,0" transform="translate(-325.346 -38.984)" fill="#d3d3d3"/>
        <path id="Path_2027" data-name="Path 2027" d="M351.153,96.964l1.681.733a7.336,7.336,0,0,0-3.8-9.642l-.732,1.68A5.5,5.5,0,0,1,351.153,96.964Zm0,0" transform="translate(-308.424 -77.974)" fill="#d3d3d3"/>
      </g>
    </g>
    <g id="Group_3533" data-name="Group 3533" transform="translate(36 -1382)">
      <g id="news-2" data-name="news" transform="translate(1148.822 1422)" opacity="0.101">
        <path id="Path_2022-2" data-name="Path 2022" d="M84.559,209.6l2.728-1.077,2.153,5.455-2.728,1.077Zm0,0" transform="translate(-69.061 -170.31)" fill="#d3d3d3"/>
        <path id="Path_2023-2" data-name="Path 2023" d="M90.9,38.934v6.438l-43.985,22.7L2.932,45.372V39.643L46.918,4.88l3.73,2.949,1.818-2.3L46.918,1.145,0,38.224V94.649H93.836V38.934ZM2.932,48.672,43.721,69.724,2.932,90.776ZM7.5,91.716,46.918,71.373,86.331,91.716Zm83.4-.94L50.114,69.724,90.9,48.672Zm0,0" transform="translate(0 -0.935)" fill="#d3d3d3"/>
        <path id="Path_2024-2" data-name="Path 2024" d="M120.514,60.9l-15,5.922,5.382,13.635,5.456-2.152,4.838,12.275,8.183-3.226-4.838-12.275,1.363-.538A32.08,32.08,0,0,1,150,74.48l3.189,1.319L139.595,41.352l-1.433,3.136A32.078,32.078,0,0,1,120.514,60.9Zm-7.969,15.756-3.225-8.183,10.91-4.306,3.225,8.183ZM125.572,85.7l-2.727,1.076-3.769-9.545,2.728-1.076ZM148,70.664a35.112,35.112,0,0,0-21.8.669l-3.272-8.293a35.127,35.127,0,0,0,16.384-14.4Zm0,0" transform="translate(-86.174 -33.773)" fill="#d3d3d3"/>
        <path id="Path_2025-2" data-name="Path 2025" d="M400.554,17.216a26.207,26.207,0,0,1-.329,20.2l2.69,1.173A29.352,29.352,0,0,0,387.693,0l-1.173,2.689A26.216,26.216,0,0,1,400.554,17.216Zm0,0" transform="translate(-315.681)" fill="#d3d3d3"/>
        <path id="Path_2026-2" data-name="Path 2026" d="M376.765,56.4a17.48,17.48,0,0,1-.218,13.461l2.7,1.163a20.55,20.55,0,0,0-10.665-27l-1.173,2.69A17.479,17.479,0,0,1,376.765,56.4Zm0,0" transform="translate(-300.071 -35.955)" fill="#d3d3d3"/>
        <path id="Path_2027-2" data-name="Path 2027" d="M352.869,102.318l2.691,1.173a11.745,11.745,0,0,0-6.091-15.436l-1.173,2.69A8.807,8.807,0,0,1,352.869,102.318Zm0,0" transform="translate(-284.464 -71.917)" fill="#d3d3d3"/>
      </g>
      <g id="news-3" data-name="news" transform="translate(365.466 1463.531)" opacity="0.096">
        <path id="Path_2022-3" data-name="Path 2022" d="M84.559,209.589l2.69-1.062,2.123,5.38-2.69,1.062Zm0,0" transform="translate(-69.276 -170.84)" fill="#d3d3d3"/>
        <path id="Path_2023-3" data-name="Path 2023" d="M89.643,38.41v6.349L46.267,67.146,2.892,44.759V39.109L46.267,4.828l3.678,2.908,1.793-2.269L46.267,1.145,0,37.71V93.352H92.535V38.41Zm-86.751,9.6L43.115,68.773,2.892,89.534ZM7.4,90.46,46.267,70.4,85.134,90.46Zm82.243-.927L49.419,68.773,89.643,48.013Zm0,0" transform="translate(0 -0.938)" fill="#d3d3d3"/>
        <path id="Path_2024-3" data-name="Path 2024" d="M120.306,60.629l-14.794,5.84,5.308,13.446,5.38-2.122,4.771,12.1,8.069-3.181-4.771-12.1,1.344-.53a31.635,31.635,0,0,1,23.767-.061l3.145,1.3-13.4-33.97-1.413,3.093A31.633,31.633,0,0,1,120.306,60.629Zm-7.858,15.537-3.18-8.069,10.758-4.246,3.18,8.069Zm12.847,8.919L122.6,86.147l-3.716-9.412,2.691-1.061Zm22.121-14.828a34.626,34.626,0,0,0-21.5.659l-3.227-8.178a34.64,34.64,0,0,0,16.156-14.2Zm0,0" transform="translate(-86.442 -33.878)" fill="#d3d3d3"/>
        <path id="Path_2025-3" data-name="Path 2025" d="M400.36,16.977a25.844,25.844,0,0,1-.324,19.916l2.653,1.156A28.945,28.945,0,0,0,387.677,0L386.52,2.652A25.852,25.852,0,0,1,400.36,16.977Zm0,0" transform="translate(-316.663)" fill="#d3d3d3"/>
        <path id="Path_2026-3" data-name="Path 2026" d="M376.636,56.226A17.238,17.238,0,0,1,376.42,69.5l2.66,1.147a20.265,20.265,0,0,0-10.517-26.624l-1.157,2.653A17.237,17.237,0,0,1,376.636,56.226Zm0,0" transform="translate(-301.004 -36.067)" fill="#d3d3d3"/>
        <path id="Path_2027-3" data-name="Path 2027" d="M352.806,102.12l2.654,1.157a11.582,11.582,0,0,0-6.007-15.222L348.3,90.708A8.685,8.685,0,0,1,352.806,102.12Zm0,0" transform="translate(-285.349 -72.14)" fill="#d3d3d3"/>
      </g>
      <g id="news-4" data-name="news" transform="translate(205.466 1403.531)" opacity="0.096">
        <path id="Path_2022-4" data-name="Path 2022" d="M84.559,209.154l1.588-.627L87.4,211.7l-1.588.627Zm0,0" transform="translate(-75.533 -186.271)" fill="#d3d3d3"/>
        <path id="Path_2023-4" data-name="Path 2023" d="M52.94,23.152V26.9L27.324,40.122,1.708,26.9V23.565L27.324,3.32,29.5,5.037,30.555,3.7,27.324,1.145,0,22.739V55.6H54.647V23.152ZM1.708,28.823l23.754,12.26L1.708,53.344ZM4.37,53.891,27.324,42.044,50.277,53.891Zm48.569-.547L29.185,41.083,52.94,28.823Zm0,0" transform="translate(0 -1.022)" fill="#d3d3d3"/>
        <path id="Path_2024-4" data-name="Path 2024" d="M114.248,52.736l-8.737,3.449,3.134,7.941,3.177-1.253,2.818,7.149,4.765-1.879-2.818-7.149.794-.313a18.683,18.683,0,0,1,14.036-.036l1.857.768-7.915-20.062-.834,1.827A18.681,18.681,0,0,1,114.248,52.736Zm-4.641,9.176-1.878-4.765,6.354-2.508,1.878,4.765Zm7.587,5.267-1.588.627-2.195-5.558L115,61.621Zm13.064-8.757a20.449,20.449,0,0,0-12.7.389l-1.906-4.83a20.457,20.457,0,0,0,9.541-8.387Zm0,0" transform="translate(-94.25 -36.938)" fill="#d3d3d3"/>
        <path id="Path_2025-4" data-name="Path 2025" d="M394.693,10.026a15.263,15.263,0,0,1-.191,11.762l1.567.683A17.094,17.094,0,0,0,387.2,0l-.683,1.566A15.268,15.268,0,0,1,394.693,10.026Zm0,0" transform="translate(-345.265)" fill="#d3d3d3"/>
        <path id="Path_2026-4" data-name="Path 2026" d="M372.857,51.23a10.18,10.18,0,0,1-.127,7.839l1.571.677a11.968,11.968,0,0,0-6.211-15.723l-.683,1.567A10.179,10.179,0,0,1,372.857,51.23Zm0,0" transform="translate(-328.192 -39.325)" fill="#d3d3d3"/>
        <path id="Path_2027-4" data-name="Path 2027" d="M350.96,96.361l1.567.683a6.84,6.84,0,0,0-3.547-8.99l-.683,1.567A5.129,5.129,0,0,1,350.96,96.361Zm0,0" transform="translate(-311.122 -78.656)" fill="#d3d3d3"/>
      </g>
      <g id="news-5" data-name="news" transform="translate(-34.178 1448.531)" opacity="0.096">
        <path id="Path_2022-5" data-name="Path 2022" d="M84.559,209.483l2.421-.956,1.911,4.842-2.421.956Zm0,0" transform="translate(-70.803 -174.605)" fill="#d3d3d3"/>
        <path id="Path_2023-5" data-name="Path 2023" d="M80.688,34.687V40.4L41.645,60.553,2.6,40.4V35.317L41.645,4.46l3.311,2.617L46.57,5.035,41.645,1.145,0,34.057V84.141H83.291V34.687ZM2.6,43.331,38.808,62.017,2.6,80.7ZM6.661,81.538,41.645,63.481,76.63,81.538ZM80.688,80.7,44.483,62.017,80.688,43.331Zm0,0" transform="translate(0 -0.958)" fill="#d3d3d3"/>
        <path id="Path_2024-5" data-name="Path 2024" d="M118.828,58.7,105.512,63.96l4.777,12.1,4.843-1.91,4.294,10.9,7.263-2.863-4.294-10.9,1.21-.477A28.475,28.475,0,0,1,145,70.757l2.831,1.171L135.765,41.352l-1.272,2.784A28.473,28.473,0,0,1,118.828,58.7Zm-7.073,13.985-2.863-7.263,9.684-3.822,2.863,7.263Zm11.563,8.028-2.42.955L117.552,73.2l2.422-.955ZM143.229,67.37a31.167,31.167,0,0,0-19.353.594l-2.9-7.361a31.179,31.179,0,0,0,14.542-12.783Zm0,0" transform="translate(-88.347 -34.625)" fill="#d3d3d3"/>
        <path id="Path_2025-5" data-name="Path 2025" d="M398.977,15.281a23.262,23.262,0,0,1-.292,17.927l2.388,1.041A26.053,26.053,0,0,0,387.561,0l-1.042,2.387A23.27,23.27,0,0,1,398.977,15.281Zm0,0" transform="translate(-323.642)" fill="#d3d3d3"/>
        <path id="Path_2026-5" data-name="Path 2026" d="M375.714,55.007a15.516,15.516,0,0,1-.194,11.949l2.394,1.032a18.241,18.241,0,0,0-9.466-23.964l-1.042,2.388A15.515,15.515,0,0,1,375.714,55.007Zm0,0" transform="translate(-307.638 -36.862)" fill="#d3d3d3"/>
        <path id="Path_2027-5" data-name="Path 2027" d="M352.355,100.715l2.389,1.042a10.425,10.425,0,0,0-5.407-13.7L348.3,90.443A7.818,7.818,0,0,1,352.355,100.715Zm0,0" transform="translate(-291.637 -73.73)" fill="#d3d3d3"/>
      </g>
      <g id="news-6" data-name="news" transform="translate(577 1392)" opacity="0.096">
        <path id="Path_2022-6" data-name="Path 2022" d="M84.559,209.009l1.221-.482.964,2.442-1.221.482Zm0,0" transform="translate(-77.622 -191.421)" fill="#d3d3d3"/>
        <path id="Path_2023-6" data-name="Path 2023" d="M40.688,18.059V20.94L21,31.1,1.313,20.94V18.376L21,2.817l1.669,1.32.814-1.03L21,1.145,0,17.741V43H42V18.059ZM1.313,22.418,19.569,31.84,1.313,41.263ZM3.359,41.684,21,32.578l17.641,9.106Zm37.329-.421L22.431,31.84l18.257-9.422Zm0,0" transform="translate(0 -1.051)" fill="#d3d3d3"/>
        <path id="Path_2024-6" data-name="Path 2024" d="M112.226,50.1l-6.715,2.651,2.409,6.1,2.442-.963,2.166,5.494,3.663-1.444-2.166-5.494.61-.241a14.359,14.359,0,0,1,10.787-.028l1.428.591-6.083-15.419-.641,1.4A14.358,14.358,0,0,1,112.226,50.1Zm-3.567,7.052-1.444-3.663,4.883-1.927,1.444,3.663Zm5.831,4.048-1.221.482-1.687-4.272,1.221-.482Zm10.041-6.73a15.716,15.716,0,0,0-9.759.3l-1.465-3.712a15.722,15.722,0,0,0,7.333-6.446Zm0,0" transform="translate(-96.856 -37.959)" fill="#d3d3d3"/>
        <path id="Path_2025-6" data-name="Path 2025" d="M392.8,7.706a11.73,11.73,0,0,1-.147,9.04l1.2.525A13.138,13.138,0,0,0,387.045,0l-.525,1.2A11.734,11.734,0,0,1,392.8,7.706Zm0,0" transform="translate(-354.813)" fill="#d3d3d3"/>
        <path id="Path_2026-6" data-name="Path 2026" d="M371.6,49.562a7.824,7.824,0,0,1-.1,6.025l1.207.52a9.2,9.2,0,0,0-4.774-12.084l-.525,1.2A7.823,7.823,0,0,1,371.6,49.562Zm0,0" transform="translate(-337.267 -40.412)" fill="#d3d3d3"/>
        <path id="Path_2027-6" data-name="Path 2027" d="M350.344,94.439l1.2.525a5.257,5.257,0,0,0-2.726-6.909l-.525,1.2A3.942,3.942,0,0,1,350.344,94.439Zm0,0" transform="translate(-319.725 -80.831)" fill="#d3d3d3"/>
      </g>
    </g>
  </g>
</svg>
