<?xml version="1.0" encoding="UTF-8"?>
<svg width="256px" height="224px" viewBox="0 0 256 224" version="1.1" xmlns="http://www.w3.org/2000/svg" xmlns:xlink="http://www.w3.org/1999/xlink">
    <title>credit-card (1) copy</title>
    <desc>Created with Sketch.</desc>
    <g id="Page-1" stroke="none" stroke-width="1" fill="none" fill-rule="evenodd">
        <g id="credit-card-(1)-copy">
            <path d="M240,47.996 L16,47.996 C7.184,47.996 0,55.18 0,63.996 L0,207.996 C0,216.828 7.184,223.996 16,223.996 L240,223.996 C248.832,223.996 256,216.828 256,207.996 L256,63.996 C256,55.18 248.832,47.996 240,47.996 Z" id="Path" fill="#2196F3"></path>
            <rect id="Rectangle" fill="#455A64" x="0" y="79.996" width="256" height="48"></rect>
            <g id="Group" transform="translate(32.000000, 47.500000)" fill="#FAFAFA">
                <path d="M40,128.496 L8,128.496 C3.584,128.496 0,124.912 0,120.496 C0,116.08 3.584,112.496 8,112.496 L40,112.496 C44.416,112.496 48,116.08 48,120.496 C48,124.912 44.416,128.496 40,128.496 Z" id="Path"></path>
                <path d="M224,79.632 L224,16.496 C224,7.68 216.832,0.496 208,0.496 L80,0.496 L80,16.496 C80,66.608 99.072,97.12 148.096,125.344 C151.712,127.408 155.84,128.496 160,128.496 C164.16,128.496 168.288,127.408 171.952,125.312 C196.208,111.376 213.104,96.832 224,79.632 Z" id="Path"></path>
            </g>
            <path d="M251.152,24.652 L195.152,0.652 C193.12,-0.212 190.864,-0.212 188.832,0.652 L132.832,24.652 C129.904,25.9 128,28.796 128,31.996 L128,63.996 C128,108.012 144.272,133.74 188.016,158.94 C189.248,159.644 190.624,159.996 192,159.996 C193.376,159.996 194.752,159.644 195.984,158.94 C239.728,133.804 256,108.076 256,63.996 L256,31.996 C256,28.796 254.096,25.9 251.152,24.652 Z" id="Path" fill="#DB0A6C"></path>
            <path d="M180.396061,71.1881797 L168.661615,53.5865096 C166.213615,49.9065096 167.205615,44.9465096 170.885615,42.4985096 C174.533615,40.0665096 179.509615,41.0265096 181.973615,44.7225096 L191.909615,59.6185096 C199.521106,50.0993038 204.67182,43.6576346 207.361757,40.2935022 C208.991987,38.2546776 215.166154,36.0395293 218.606154,38.7755293 C222.062154,41.5435293 221.885591,47.7525393 220.273045,49.7682216 L202.320997,72.2082811 L214.055444,89.8099512 C216.503444,93.4899512 215.511444,98.4499512 211.831444,100.897951 C208.183444,103.329951 203.207444,102.369951 200.743444,98.6739512 L190.807444,83.7779512 C184.260265,91.9660896 179.750639,97.6059908 177.278566,100.697655 C174.84385,103.742599 168.888928,105.03985 165.448928,102.30385 C161.992928,99.5358496 161.70614,94.5505811 163.902665,91.8049253 L180.396061,71.1881797 Z" id="Combined-Shape" fill="#FAFAFA"></path>
        </g>
    </g>
</svg>