<?xml version="1.0" encoding="UTF-8"?>
<svg width="256px" height="224px" viewBox="0 0 256 224" version="1.1" xmlns="http://www.w3.org/2000/svg" xmlns:xlink="http://www.w3.org/1999/xlink">
    <!-- Generator: Sketch 52.3 (67297) - http://www.bohemiancoding.com/sketch -->
    <title>credit-card (1)</title>
    <desc>Created with Sketch.</desc>
    <g id="Page-1" stroke="none" stroke-width="1" fill="none" fill-rule="evenodd">
        <g id="credit-card-(1)">
            <path d="M240,47.996 L16,47.996 C7.184,47.996 0,55.18 0,63.996 L0,207.996 C0,216.828 7.184,223.996 16,223.996 L240,223.996 C248.832,223.996 256,216.828 256,207.996 L256,63.996 C256,55.18 248.832,47.996 240,47.996 Z" id="Path" fill="#2196F3"></path>
            <rect id="Rectangle" fill="#455A64" x="0" y="79.996" width="256" height="48"></rect>
            <g id="Group" transform="translate(32.000000, 47.500000)" fill="#FAFAFA">
                <path d="M40,128.496 L8,128.496 C3.584,128.496 0,124.912 0,120.496 C0,116.08 3.584,112.496 8,112.496 L40,112.496 C44.416,112.496 48,116.08 48,120.496 C48,124.912 44.416,128.496 40,128.496 Z" id="Path"></path>
                <path d="M224,79.632 L224,16.496 C224,7.68 216.832,0.496 208,0.496 L80,0.496 L80,16.496 C80,66.608 99.072,97.12 148.096,125.344 C151.712,127.408 155.84,128.496 160,128.496 C164.16,128.496 168.288,127.408 171.952,125.312 C196.208,111.376 213.104,96.832 224,79.632 Z" id="Path"></path>
            </g>
            <path d="M251.152,24.652 L195.152,0.652 C193.12,-0.212 190.864,-0.212 188.832,0.652 L132.832,24.652 C129.904,25.9 128,28.796 128,31.996 L128,63.996 C128,108.012 144.272,133.74 188.016,158.94 C189.248,159.644 190.624,159.996 192,159.996 C193.376,159.996 194.752,159.644 195.984,158.94 C239.728,133.804 256,108.076 256,63.996 L256,31.996 C256,28.796 254.096,25.9 251.152,24.652 Z" id="Path" fill="#009688"></path>
            <path d="M184,103.996 C183.888,103.996 183.76,103.996 183.664,103.996 C181.12,103.884 178.768,102.572 177.344,100.444 L161.344,76.444 C158.896,72.764 159.888,67.804 163.568,65.356 C167.216,62.924 172.192,63.884 174.656,67.58 L184.592,82.476 L209.744,51.02 C212.512,47.58 217.552,47.036 220.992,49.772 C224.448,52.54 224.992,57.564 222.24,61.02 L190.24,101.02 C188.72,102.892 186.416,103.996 184,103.996 Z" id="Path" fill="#FAFAFA"></path>
        </g>
    </g>
</svg>