<svg xmlns="http://www.w3.org/2000/svg" width="760.87" height="379" viewBox="0 0 760.87 379">
  <g id="Group_3420" data-name="Group 3420" transform="translate(-506 -1160)">
    <g id="Group_3409" data-name="Group 3409" transform="translate(266.929 -469.258)">
      <g id="php_1_" data-name="php (1)" transform="translate(486.034 1681)" opacity="0.15">
        <path id="Path_1948" data-name="Path 1948" d="M266.451,133.225a133.24,133.24,0,0,1-248.7,66.488,133.267,133.267,0,1,1,248.7-66.488Z" transform="translate(0 0)" fill="none" stroke="#fefefe" stroke-width="12"/>
        <g id="Group_3370" data-name="Group 3370" transform="translate(4.698 64.254)">
          <path id="Path_1949" data-name="Path 1949" d="M72.073,178.239H23.008l-13.98,75.65a132.183,132.183,0,0,0,13.056,31.305h4.552l5.416-29.3h26.96c32.828,0,41.653-29.473,43.769-43.948S94.314,178.239,72.073,178.239Zm7.118,36.15c-1.2,8.206-7.265,24.916-25.873,24.916h-18.2l8.135-44.029H61.78C79.839,195.275,80.393,206.184,79.191,214.389Z" transform="translate(-9.028 -149.735)" fill="#fefefe"/>
          <path id="Path_1950" data-name="Path 1950" d="M424.832,181.675a32.1,32.1,0,0,0-14.884-3.437H360.883L341.117,285.194H364.51l5.416-29.3h26.96c14.6,0,24.453-5.829,31.071-13.578a134.244,134.244,0,0,0-3.126-60.643Zm-7.765,32.714c-1.2,8.206-7.265,24.915-25.879,24.915H372.993l8.135-44.029h18.527C417.714,195.275,418.268,206.183,417.066,214.389Z" transform="translate(-168.294 -149.735)" fill="#fefefe"/>
          <path id="Path_1951" data-name="Path 1951" d="M248.283,152.325H219.87l5.333-28.857h-23.3L182.14,230.421h23.3L216.8,168.916h14.889c9.883,0,16.59,2.118,15.178,11.3s-9.53,49.77-9.53,49.77h23.65s9.178-45.181,10.589-57.889S261.343,152.325,248.283,152.325Z" transform="translate(-92.05 -123.468)" fill="#fefefe"/>
        </g>
      </g>
      <g id="php_1_2" data-name="php (1)" transform="translate(245.071 1763.927)" opacity="0.15">
        <path id="Path_1948-2" data-name="Path 1948" d="M193.359,96.679A96.69,96.69,0,0,1,12.884,144.929,96.709,96.709,0,1,1,193.359,96.679Z" transform="translate(0 0)" fill="none" stroke="#fefefe" stroke-width="12"/>
        <g id="Group_3370-2" data-name="Group 3370" transform="translate(3.409 46.628)">
          <path id="Path_1949-2" data-name="Path 1949" d="M54.779,178.239H19.173l-10.145,54.9A95.923,95.923,0,0,0,18.5,255.855h3.3l3.93-21.261H45.3c23.822,0,30.227-21.388,31.762-31.893S70.919,178.239,54.779,178.239Zm5.166,26.233c-.872,5.955-5.272,18.081-18.775,18.081H27.961l5.9-31.951H47.309C60.414,190.6,60.816,198.518,59.944,204.472Z" transform="translate(-9.028 -157.554)" fill="#fefefe"/>
          <path id="Path_1950-2" data-name="Path 1950" d="M401.867,180.732a23.3,23.3,0,0,0-10.8-2.494H355.461l-14.344,77.616h16.976l3.93-21.262h19.565c10.6,0,17.745-4.23,22.548-9.853a97.419,97.419,0,0,0-2.269-44.007Zm-5.635,23.74c-.872,5.955-5.272,18.081-18.78,18.081h-13.2l5.9-31.951H383.6C396.7,190.6,397.1,198.517,396.232,204.472Z" transform="translate(-215.702 -157.554)" fill="#fefefe"/>
          <path id="Path_1951-2" data-name="Path 1951" d="M230.139,144.409H209.52l3.87-20.941H196.484L182.14,201.082h16.906l8.249-44.633h10.8c7.172,0,12.039,1.537,11.014,8.2s-6.916,36.117-6.916,36.117H239.36s6.66-32.787,7.684-42.009S239.617,144.409,230.139,144.409Z" transform="translate(-116.764 -123.468)" fill="#fefefe"/>
        </g>
      </g>
      <g id="php_1_3" data-name="php (1)" transform="translate(800.582 1763.927)" opacity="0.15">
        <path id="Path_1948-3" data-name="Path 1948" d="M193.359,96.679A96.69,96.69,0,0,1,12.884,144.929,96.709,96.709,0,1,1,193.359,96.679Z" transform="translate(0 0)" fill="none" stroke="#fefefe" stroke-width="12"/>
        <g id="Group_3370-3" data-name="Group 3370" transform="translate(3.409 46.628)">
          <path id="Path_1949-3" data-name="Path 1949" d="M54.779,178.239H19.173l-10.145,54.9A95.923,95.923,0,0,0,18.5,255.855h3.3l3.93-21.261H45.3c23.822,0,30.227-21.388,31.762-31.893S70.919,178.239,54.779,178.239Zm5.166,26.233c-.872,5.955-5.272,18.081-18.775,18.081H27.961l5.9-31.951H47.309C60.414,190.6,60.816,198.518,59.944,204.472Z" transform="translate(-9.028 -157.554)" fill="#fefefe"/>
          <path id="Path_1950-3" data-name="Path 1950" d="M401.867,180.732a23.3,23.3,0,0,0-10.8-2.494H355.461l-14.344,77.616h16.976l3.93-21.262h19.565c10.6,0,17.745-4.23,22.548-9.853a97.419,97.419,0,0,0-2.269-44.007Zm-5.635,23.74c-.872,5.955-5.272,18.081-18.78,18.081h-13.2l5.9-31.951H383.6C396.7,190.6,397.1,198.517,396.232,204.472Z" transform="translate(-215.702 -157.554)" fill="#fefefe"/>
          <path id="Path_1951-3" data-name="Path 1951" d="M230.139,144.409H209.52l3.87-20.941H196.484L182.14,201.082h16.906l8.249-44.633h10.8c7.172,0,12.039,1.537,11.014,8.2s-6.916,36.117-6.916,36.117H239.36s6.66-32.787,7.684-42.009S239.617,144.409,230.139,144.409Z" transform="translate(-116.764 -123.468)" fill="#fefefe"/>
        </g>
      </g>
    </g>
    <rect id="Rectangle_87" data-name="Rectangle 87" width="748.87" height="379" transform="translate(512 1160)" fill="none"/>
  </g>
</svg>
