<svg xmlns="http://www.w3.org/2000/svg" width="48" height="48" viewBox="0 0 48 48">
    <defs>
        <style>
            .cls-1,.cls-2{fill:none}.cls-1{clip-rule:evenodd}.cls-3{clip-path:url(#clip-path)}.cls-4{fill:#2878ff}.cls-5{clip-path:url(#clip-path-2)}.cls-6{clip-path:url(#clip-path-3)}.cls-7{clip-path:url(#clip-path-4)}.cls-8{clip-path:url(#clip-path-5)}.cls-9{clip-path:url(#clip-path-6)}.cls-10{clip-path:url(#clip-path-7)}.cls-11{clip-path:url(#clip-path-8)}.cls-12{clip-path:url(#clip-path-9)}.cls-13{clip-path:url(#clip-path-10)}.cls-14{clip-path:url(#clip-path-11)}
        </style>
        <clipPath id="clip-path">
            <path id="Path_1486" d="M32-448h1.629v1.629H32z" class="cls-1" data-name="Path 1486" transform="translate(-32 448)"/>
        </clipPath>
        <clipPath id="clip-path-2">
            <path id="Path_1488" d="M64-448h1.629v1.629H64z" class="cls-1" data-name="Path 1488" transform="translate(-64 448)"/>
        </clipPath>
        <clipPath id="clip-path-3">
            <path id="Path_1490" d="M96-448h1.629v1.629H96z" class="cls-1" data-name="Path 1490" transform="translate(-96 448)"/>
        </clipPath>
        <clipPath id="clip-path-4">
            <path id="Path_1492" d="M47.2-480H.8a.8.8 0 0 0-.8.8v46.4a.8.8 0 0 0 .8.8h46.4a.8.8 0 0 0 .8-.8v-46.4a.8.8 0 0 0-.8-.8zm-.8 6.4h-32v-4.8h32zm-44.8-4.8h11.2v4.8H1.6zm2.259 12.787a14.136 14.136 0 0 1 5.28 2.269.8.8 0 0 0 1.023-.09L12-465.269l2.069 2.069-1.834 1.834a.8.8 0 0 0-.09 1.023 14.138 14.138 0 0 1 2.269 5.28.8.8 0 0 0 .787.663h2.4v3.2H15.2a.8.8 0 0 0-.787.659 14.136 14.136 0 0 1-2.269 5.28.8.8 0 0 0 .09 1.023l1.834 1.837-2.068 2.07-1.834-1.834a.8.8 0 0 0-1.023-.09 14.138 14.138 0 0 1-5.28 2.269.8.8 0 0 0-.662.787v2.4H1.6v-5.6A10.4 10.4 0 0 0 12-452.8a10.4 10.4 0 0 0-10.4-10.4v-5.6h1.6v2.4a.8.8 0 0 0 .659.787zM1.6-445.6a7.2 7.2 0 0 0 7.2-7.2 7.2 7.2 0 0 0-7.2-7.2v-1.6a8.8 8.8 0 0 1 8.8 8.8 8.8 8.8 0 0 1-8.8 8.8zm0-12.8a5.6 5.6 0 0 1 5.6 5.6 5.6 5.6 0 0 1-5.6 5.6zm0 24.8v-1.6H4a.8.8 0 0 0 .8-.8v-2.55a15.8 15.8 0 0 0 4.7-2.021l1.937 1.937a.8.8 0 0 0 1.131 0l3.2-3.2a.8.8 0 0 0 0-1.131l-1.939-1.935a15.8 15.8 0 0 0 2.021-4.7h2.55a.8.8 0 0 0 .8-.8v-4.8a.8.8 0 0 0-.8-.8h-2.55a15.8 15.8 0 0 0-2.021-4.7l1.937-1.937a.8.8 0 0 0 0-1.131l-3.2-3.2a.8.8 0 0 0-1.131 0L9.5-465.029a15.8 15.8 0 0 0-4.7-2.021v-2.55a.8.8 0 0 0-.8-.8H1.6v-1.6h44.8v38.4z" class="cls-2" data-name="Path 1492" transform="translate(0 480)"/>
        </clipPath>
        <clipPath id="clip-path-5">
            <path id="Path_1494" d="M208-233.485h24.433V-240H208zm1.629-4.887H230.8v3.258h-21.171z" class="cls-2" data-name="Path 1494" transform="translate(-208 240)"/>
        </clipPath>
        <clipPath id="clip-path-6">
            <path id="Path_1496" d="M208-313.485h24.433V-320H208zm1.629-4.887H230.8v3.258h-21.171z" class="cls-2" data-name="Path 1496" transform="translate(-208 320)"/>
        </clipPath>
        <clipPath id="clip-path-7">
            <path id="Path_1498" d="M208-153.485h24.433V-160H208zm1.629-4.887H230.8v3.258h-21.171z" class="cls-2" data-name="Path 1498" transform="translate(-208 160)"/>
        </clipPath>
        <clipPath id="clip-path-8">
            <path id="Path_1500" d="M288-352h8.144v1.629H288z" class="cls-1" data-name="Path 1500" transform="translate(-288 352)"/>
        </clipPath>
        <clipPath id="clip-path-9">
            <path id="Path_1502" d="M288-80h1.629v1.629H288z" class="cls-1" data-name="Path 1502" transform="translate(-288 80)"/>
        </clipPath>
        <clipPath id="clip-path-10">
            <path id="Path_1504" d="M320-80h1.629v1.629H320z" class="cls-1" data-name="Path 1504" transform="translate(-320 80)"/>
        </clipPath>
        <clipPath id="clip-path-11">
            <path id="Path_1506" d="M352-80h1.629v1.629H352z" class="cls-1" data-name="Path 1506" transform="translate(-352 80)"/>
        </clipPath>
    </defs>
    <g id="Group_2654" data-name="Group 2654" transform="translate(0 480)">
        <g id="Group_2643" class="cls-3" data-name="Group 2643" transform="translate(3.258 -476.742)">
            <path id="Path_1485" d="M27-453h2.647v2.647H27z" class="cls-4" data-name="Path 1485" transform="translate(-27.509 452.491)"/>
        </g>
        <g id="Group_2644" class="cls-5" data-name="Group 2644" transform="translate(6.515 -476.742)">
            <path id="Path_1487" d="M59-453h2.647v2.647H59z" class="cls-4" data-name="Path 1487" transform="translate(-59.509 452.491)"/>
        </g>
        <g id="Group_2645" class="cls-6" data-name="Group 2645" transform="translate(9.594 -476.742)">
            <path id="Path_1489" d="M91-453h2.647v2.647H91z" class="cls-4" data-name="Path 1489" transform="translate(-91.509 452.491)"/>
        </g>
        <g id="Group_2646" class="cls-7" data-name="Group 2646" transform="translate(0 -480)">
            <path id="Path_1491" d="M-5-485h49v49H-5z" class="cls-4" data-name="Path 1491" transform="translate(4.5 484.5)"/>
        </g>
        <g id="Group_2647" class="cls-8" data-name="Group 2647" transform="translate(20.31 -456.067)">
            <path id="Path_1493" d="M203-245h25.451v7.533H203z" class="cls-4" data-name="Path 1493" transform="translate(-203.509 244.491)"/>
        </g>
        <g id="Group_2648" class="cls-9" data-name="Group 2648" transform="translate(20.31 -464.044)">
            <path id="Path_1495" d="M203-325h25.451v7.533H203z" class="cls-4" data-name="Path 1495" transform="translate(-203.509 324.491)"/>
        </g>
        <g id="Group_2649" class="cls-10" data-name="Group 2649" transform="translate(20.31 -448.089)">
            <path id="Path_1497" d="M203-165h25.451v7.533H203z" class="cls-4" data-name="Path 1497" transform="translate(-203.509 164.491)"/>
        </g>
        <g id="Group_2650" class="cls-11" data-name="Group 2650" transform="translate(28.696 -467.208)">
            <path id="Path_1499" d="M283-357h9.162v2.647H283z" class="cls-4" data-name="Path 1499" transform="translate(-283.509 356.491)"/>
        </g>
        <g id="Group_2651" class="cls-12" data-name="Group 2651" transform="translate(28.782 -440.144)">
            <path id="Path_1501" d="M283-85h2.647v2.647H283z" class="cls-4" data-name="Path 1501" transform="translate(-283.509 84.491)"/>
        </g>
        <g id="Group_2652" class="cls-13" data-name="Group 2652" transform="translate(31.98 -440.144)">
            <path id="Path_1503" d="M315-85h2.647v2.647H315z" class="cls-4" data-name="Path 1503" transform="translate(-315.509 84.491)"/>
        </g>
        <g id="Group_2653" class="cls-14" data-name="Group 2653" transform="translate(35.178 -440.144)">
            <path id="Path_1505" d="M347-85h2.647v2.647H347z" class="cls-4" data-name="Path 1505" transform="translate(-347.509 84.491)"/>
        </g>
    </g>
</svg>
