<?xml version="1.0" encoding="UTF-8"?>
<svg width="1736px" height="574px" viewBox="0 0 1736 574" version="1.1" xmlns="http://www.w3.org/2000/svg" xmlns:xlink="http://www.w3.org/1999/xlink">
    <!-- Generator: Sketch 53.1 (72631) - https://sketchapp.com -->
    <title>pod_bg</title>
    <desc>Created with Sketch.</desc>
    <g id="Page-1" stroke="none" stroke-width="1" fill="none" fill-rule="evenodd">
        <g id="Artboard" transform="translate(-144.000000, -317.000000)">
            <g id="pod_bg" transform="translate(144.000000, 317.000000)">
                <circle id="Ellipse_184" fill="#2A1975" fill-rule="nonzero" cx="16" cy="214" r="16"></circle>
                <polygon id="Rectangle_858" fill="#2A1975" fill-rule="nonzero" transform="translate(131.954581, 281.865729) rotate(-60.000000) translate(-131.954581, -281.865729) " points="130.954581 148.365729 132.954581 148.365729 132.954581 415.365729 130.954581 415.365729"></polygon>
                <polygon id="Rectangle_860" fill="#2A1975" fill-rule="nonzero" transform="translate(313.991636, 320.750842) rotate(60.000000) translate(-313.991636, -320.750842) " points="312.991636 250.750842 314.991636 250.750842 314.991636 390.750842 312.991636 390.750842"></polygon>
                <polygon id="Rectangle_861" fill="#2A1975" fill-rule="nonzero" transform="translate(340.226950, 133.302154) rotate(150.000000) translate(-340.226950, -133.302154) " points="339.22695 31.302154 341.22695 31.302154 341.22695 235.302154 339.22695 235.302154"></polygon>
                <polygon id="Rectangle_862" fill="#2A1975" fill-rule="nonzero" transform="translate(565.166602, 321.006289) rotate(111.000000) translate(-565.166602, -321.006289) " points="564.166602 206.506289 566.166602 206.506289 566.166602 435.506289 564.166602 435.506289"></polygon>
                <polygon id="Rectangle_863" fill="#2A1975" fill-rule="nonzero" transform="translate(720.763311, 229.234180) rotate(174.870000) translate(-720.763311, -229.234180) " points="719.763311 137.73418 721.763311 137.73418 721.763311 320.73418 719.763311 320.73418"></polygon>
                <polygon id="Rectangle_864" fill="#2A1975" fill-rule="nonzero" transform="translate(851.865949, 279.102349) rotate(-135.000000) translate(-851.865949, -279.102349) " points="850.865949 187.602349 852.865949 187.602349 852.865949 370.602349 850.865949 370.602349"></polygon>
                <polygon id="Rectangle_865" fill="#2A1975" fill-rule="nonzero" transform="translate(1009.864582, 84.012709) rotate(-150.000000) translate(-1009.864582, -84.012709) " points="1008.86458 30.5127086 1010.86458 30.5127086 1010.86458 137.512709 1008.86458 137.512709"></polygon>
                <g id="Group" transform="translate(1179.000000, 257.224657)">
                    <polygon id="Rectangle_866" fill="#2A1975" fill-rule="nonzero" transform="translate(160.653716, 53.000000) rotate(-135.000000) translate(-160.653716, -53.000000) " points="159.653716 -20 161.653716 -20 161.653716 126 159.653716 126"></polygon>
                    <circle id="Ellipse_194" fill="#2A1975" fill-rule="nonzero" cx="64" cy="147.775343" r="16"></circle>
                    <g id="Ellipse_195" transform="translate(16.000000, 99.775343)">
                        <circle id="Oval" cx="48" cy="48" r="48"></circle>
                        <circle id="Oval" stroke="#2A1975" stroke-width="2" cx="48" cy="48" r="47"></circle>
                    </g>
                    <g id="Ellipse_196" transform="translate(0.000000, 83.775343)">
                        <circle id="Oval" cx="64" cy="64" r="64"></circle>
                        <circle id="Oval" stroke="#2A1975" stroke-width="2" cx="64" cy="64" r="63"></circle>
                    </g>
                </g>
                <g id="Group-Copy" transform="translate(1497.789598, 154.724657) scale(-1, -1) translate(-1497.789598, -154.724657) translate(1394.289598, 52.224657)">
                    <polygon id="Rectangle_866" fill="#2A1975" fill-rule="nonzero" transform="translate(155.805136, 50.972611) rotate(-135.000000) translate(-155.805136, -50.972611) " points="154.889634 -19.2811931 156.814413 -19.2824777 156.720638 121.226416 154.795858 121.227701"></polygon>
                    <circle id="Ellipse_194" fill="#2A1975" fill-rule="nonzero" cx="61.7895981" cy="141.724657" r="15.5"></circle>
                    <g id="Ellipse_195" transform="translate(16.289598, 96.224657)">
                        <circle id="Oval" cx="46.5" cy="46.5" r="46.5"></circle>
                        <circle id="Oval" stroke="#2A1975" stroke-width="2" cx="46.5" cy="46.5" r="45.53125"></circle>
                    </g>
                    <g id="Ellipse_196" transform="translate(0.289598, 81.224657)">
                        <circle id="Oval" cx="61.5" cy="61.5" r="61.5"></circle>
                        <circle id="Oval" stroke="#2A1975" stroke-width="2" cx="61.5" cy="61.5" r="60.5390625"></circle>
                    </g>
                </g>
                <polygon id="Rectangle_868" fill="#2A1975" fill-rule="nonzero" transform="translate(1669.653799, 310.706697) rotate(-150.000000) translate(-1669.653799, -310.706697) " points="1668.6538 211.706697 1670.6538 211.706697 1670.6538 409.706697 1668.6538 409.706697"></polygon>
                <g id="Group-2" transform="translate(1325.000000, 61.000000)" fill="#2A1975" fill-rule="nonzero">
                    <polygon id="Rectangle_867" transform="translate(40.698704, 106.739646) rotate(165.020000) translate(-40.698704, -106.739646) " points="39.6987036 13.2396462 41.6987036 13.2396462 41.6987036 200.239646 39.6987036 200.239646"></polygon>
                    <circle id="Ellipse_198" cx="16" cy="16" r="16"></circle>
                </g>
                <g id="Group-2" transform="translate(1424.000000, 358.000000) scale(-1, -1) translate(-1424.000000, -358.000000) translate(1391.000000, 259.000000)" fill="#2A1975" fill-rule="nonzero">
                    <polygon id="Rectangle_867" transform="translate(40.698704, 106.739646) rotate(165.020000) translate(-40.698704, -106.739646) " points="39.6987036 13.2396462 41.6987036 13.2396462 41.6987036 200.239646 39.6987036 200.239646"></polygon>
                    <circle id="Ellipse_198" cx="16" cy="16" r="16"></circle>
                </g>
                <polygon id="Rectangle_859" fill="#2A1975" fill-rule="nonzero" transform="translate(194.877504, 446.440664) rotate(-149.000000) translate(-194.877504, -446.440664) " points="193.877504 333.440664 195.877504 333.440664 195.877504 559.440664 193.877504 559.440664"></polygon>
                <circle id="Ellipse_185" fill="#2A1975" fill-rule="nonzero" cx="130" cy="558" r="16"></circle>
                <g id="Ellipse_186" transform="translate(367.000000, 214.000000)">
                    <circle id="Oval" cx="48" cy="48" r="48"></circle>
                    <circle id="Oval" stroke="#2A1975" stroke-width="2" cx="48" cy="48" r="47"></circle>
                </g>
                <g id="Ellipse_188" transform="translate(665.000000, 320.000000)">
                    <circle id="Oval" cx="70" cy="70" r="70"></circle>
                    <circle id="Oval" stroke="#2A1975" stroke-width="2" cx="70" cy="70" r="69"></circle>
                </g>
                <g id="Ellipse_190" transform="translate(636.000000, 0.000000)">
                    <circle id="Oval" cx="70" cy="70" r="70"></circle>
                    <circle id="Oval" stroke="#2A1975" stroke-width="2" cx="70" cy="70" r="69"></circle>
                </g>
                <g id="Ellipse_191" transform="translate(901.000000, 122.000000)">
                    <circle id="Oval" cx="55" cy="55" r="55"></circle>
                    <circle id="Oval" stroke="#2A1975" stroke-width="2" cx="55" cy="55" r="54"></circle>
                </g>
                <circle id="Ellipse_193" fill="#2A1975" fill-rule="nonzero" cx="956" cy="177" r="16"></circle>
                <circle id="Ellipse_197" fill="#2A1975" fill-rule="nonzero" cx="1392" cy="258" r="16"></circle>
                <circle id="Ellipse_199" fill="#2A1975" fill-rule="nonzero" cx="1619" cy="397" r="16"></circle>
                <circle id="Ellipse_200" fill="#2A1975" fill-rule="nonzero" cx="1720" cy="225" r="16"></circle>
                <circle id="Ellipse_198-Copy" fill="#2A1975" fill-rule="nonzero" cx="282" cy="32" r="16"></circle>
                <g id="Ellipse_192" stroke-dasharray="2" transform="translate(678.000000, 42.000000)">
                    <circle id="Oval" cx="28" cy="28" r="28"></circle>
                    <circle id="Oval" stroke="#2A1975" stroke-width="2" cx="28" cy="28" r="27"></circle>
                </g>
                <g id="Ellipse_189" transform="translate(703.000000, 358.000000)">
                    <circle id="Oval" cx="32" cy="32" r="32"></circle>
                    <circle id="Oval" stroke="#2A1975" stroke-width="2" cx="32" cy="32" r="31"></circle>
                </g>
                <g id="Ellipse_187" transform="translate(383.000000, 230.000000)">
                    <circle id="Oval" cx="32" cy="32" r="32"></circle>
                    <circle id="Oval" stroke="#2A1975" stroke-width="2" cx="32" cy="32" r="31"></circle>
                </g>
                <circle id="Ellipse_198" fill="#2A1975" fill-rule="nonzero" cx="1042" cy="28" r="16"></circle>
            </g>
        </g>
    </g>
</svg>