<?xml version="1.0" encoding="UTF-8"?>
<svg width="67px" height="70px" viewBox="0 0 67 70" version="1.1" xmlns="http://www.w3.org/2000/svg" xmlns:xlink="http://www.w3.org/1999/xlink">
    <!-- Generator: Sketch 53.1 (72631) - https://sketchapp.com -->
    <title>Postgresql_elephant 2</title>
    <desc>Created with Sketch.</desc>
    <g id="Page-1" stroke="none" stroke-width="1" fill="none" fill-rule="evenodd">
        <g id="Postgresql_elephant-2" transform="translate(1.000000, 1.000000)" stroke="#FFFFFF">
            <g id="Postgresql_elephant" transform="translate(0.000000, 0.000000)">
                <path d="M32.4780051,44.0693434 C32.2506692,52.1969697 32.5351263,60.3812247 33.3303914,62.3702904 C34.126149,64.3593561 35.8291162,68.2281692 41.6851894,66.9736364 C46.5775884,65.9247727 48.357702,63.895 49.1301515,59.4147601 C49.6990657,56.1184722 50.7958586,46.9639773 50.9365278,45.0883333" id="Path" stroke-width="2" stroke-linecap="round" stroke-linejoin="round"></path>
                <path d="M25.4589899,3.32484848 C25.4589899,3.32484848 -1.05329545,-7.51111111 0.179242424,17.1306187 C0.441376263,22.3729672 7.69347222,56.7976894 16.3427399,46.3996591 C19.503447,42.5971591 22.3619697,39.6148737 22.3619697,39.6148737" id="Path" stroke-width="2" stroke-linecap="round" stroke-linejoin="round"></path>
                <path d="M39.7795076,1.34710859 C38.8617929,1.63484848 54.5272854,-4.37962121 63.4301515,6.99636364 C66.5749369,11.015202 62.9306692,27.4350884 54.2131187,40.3710732" id="Path" stroke-width="2" stroke-linecap="round" stroke-linejoin="round"></path>
                <path d="M54.2129545,40.3710732 C54.2129545,40.3710732 54.781048,43.1673864 63.0378535,41.4631061 C66.6555303,40.7159343 64.4783586,43.5598485 60.8093056,45.2638005 C57.7981313,46.6613005 51.0471591,47.0194571 50.9368561,45.0883333 C50.6530556,40.1058207 54.4900253,41.6195328 54.2131187,40.3710732 C53.962803,39.2467045 52.2468687,38.1431818 51.1118308,35.391351 C50.1209091,32.9894697 37.5215783,14.5701768 54.6059091,17.3057576 C55.2317803,17.17625 50.1501263,1.05542929 34.1616035,0.793295455 C18.1766919,0.531161616 18.7011237,20.4511995 18.7011237,20.4511995" id="Path" stroke-width="2" stroke-linecap="round" stroke-linejoin="bevel"></path>
                <path d="M28.0031818,42.0750253 C25.7746338,44.5643939 26.4300505,45.0015025 21.9754167,45.9187247 C17.4682576,46.8477652 20.116351,48.5011616 21.844596,48.9331818 C23.9403535,49.4576136 28.7889268,50.2000253 32.0650253,45.6127652 C33.0626768,44.2160859 32.0591162,41.9875379 30.6886995,41.4194444 C30.026553,41.1451641 29.1411742,40.801452 28.0031818,42.0750253 L28.0031818,42.0750253 Z" id="Path" stroke-width="2" stroke-linecap="round" stroke-linejoin="round"></path>
                <path d="M27.8572601,42.0315278 C27.6327146,40.5678788 28.3381944,38.8261742 29.0942298,36.7885227 C30.2304167,33.7312247 32.8519192,30.6734343 30.7548485,20.975303 C29.1917298,13.7483207 18.7075253,19.4712753 18.7009596,20.4511995 C18.6945581,21.4307955 19.1751641,25.4181187 18.5258207,30.061351 C17.6785227,36.120303 22.3811742,41.2446338 27.7963636,40.7203662" id="Path" stroke-width="2" stroke-linecap="round" stroke-linejoin="round"></path>
                <path d="M25.3626389,20.3042929 C25.3153662,20.6389773 25.9753788,21.5320707 26.8359722,21.6514015 C27.6950884,21.7712247 28.4304419,21.0732955 28.4770581,20.7389394 C28.5236742,20.4042551 27.8644823,20.0355934 27.0035606,19.9157702 C26.143952,19.7957828 25.4082702,19.9704293 25.362803,20.3042929 L25.3626389,20.3042929 Z" id="Path" fill="#FFFFFF" fill-rule="nonzero"></path>
                <path d="M51.5307197,19.6219571 C51.5773359,19.9566414 50.9181439,20.8497348 50.0573864,20.9690657 C49.1976136,21.0888889 48.4622601,20.3909596 48.4151515,20.0566035 C48.3696843,19.7219192 49.0290404,19.3532576 49.8889773,19.2334343 C50.7489141,19.1136111 51.4841035,19.2880934 51.5307197,19.6221212 L51.5307197,19.6219571 Z" id="Path" fill="#FFFFFF" fill-rule="nonzero"></path>
                <path d="M54.6059091,17.3057576 C54.7475631,19.9310354 54.0404419,21.7191919 53.9513131,24.5138636 C53.8193434,28.5760354 55.8880177,33.2255051 52.7709722,37.8807197" id="Path" stroke-width="2" stroke-linecap="round" stroke-linejoin="round"></path>
            </g>
        </g>
    </g>
</svg>