<?xml version="1.0" encoding="UTF-8"?>
<svg width="593px" height="593px" viewBox="0 0 593 593" version="1.1" xmlns="http://www.w3.org/2000/svg" xmlns:xlink="http://www.w3.org/1999/xlink">
    <!-- Generator: Sketch 62 (91390) - https://sketch.com -->
    <title>Artboard</title>
    <desc>Created with Sketch.</desc>
    <g id="Artboard" stroke="none" stroke-width="1" fill="none" fill-rule="evenodd">
        <g id="Group" transform="translate(13.000000, 105.000000)" fill-rule="nonzero">
            <g id="labels" fill="#000000" fill-opacity="0.2">
                <path d="M131.35,369.969 C145.95,384.569 169.65,384.569 184.25,369.969 L365.35,188.869 C370.55,183.669 374.55,177.469 377.15,170.869 C395.35,175.969 413.05,178.669 428.65,178.569 C467.25,178.369 480.05,161.469 484.25,151.369 C488.45,141.369 491.45,120.369 464.35,92.769 C464.05,92.469 463.75,92.169 463.45,91.869 C446.65,75.069 422.25,59.569 394.55,48.069 C389.45,45.969 384.35,44.069 379.35,42.269 L379.35,41.969 C379.05,19.769 361.15,1.869 338.95,1.569 L230.45,0.069 C216.05,-0.131 202.25,5.469 192.15,15.669 L10.95,196.769 C-3.65,211.369 -3.65,235.069 10.95,249.669 L131.35,369.969 Z M270.95,64.869 C283.05,52.769 302.65,52.769 314.75,64.869 C321.95,72.069 324.85,81.969 323.45,91.269 C335.35,99.669 349.55,107.469 364.75,113.769 C370.15,115.969 375.35,117.969 380.35,119.669 L379.75,76.069 C380.65,76.469 381.45,76.769 382.35,77.169 C406.05,87.069 427.35,100.469 441.05,114.169 C441.25,114.369 441.45,114.569 441.65,114.769 C454.65,128.069 456.05,136.569 454.95,139.169 C451.55,147.269 415.05,154.469 359.65,131.369 C343.45,124.569 328.25,116.169 315.95,107.069 C315.55,107.569 315.05,108.069 314.65,108.569 C302.55,120.669 282.95,120.669 270.85,108.569 C258.85,96.569 258.85,76.969 270.95,64.869 Z" id="Shape"></path>
            </g>
            <g id="labels" transform="translate(80.000000, 2.000000)" fill="#FEFEFE">
                <path d="M131.35,369.969 C145.95,384.569 169.65,384.569 184.25,369.969 L365.35,188.869 C370.55,183.669 374.55,177.469 377.15,170.869 C395.35,175.969 413.05,178.669 428.65,178.569 C467.25,178.369 480.05,161.469 484.25,151.369 C488.45,141.369 491.45,120.369 464.35,92.769 C464.05,92.469 463.75,92.169 463.45,91.869 C446.65,75.069 422.25,59.569 394.55,48.069 C389.45,45.969 384.35,44.069 379.35,42.269 L379.35,41.969 C379.05,19.769 361.15,1.869 338.95,1.569 L230.45,0.069 C216.05,-0.131 202.25,5.469 192.15,15.669 L10.95,196.769 C-3.65,211.369 -3.65,235.069 10.95,249.669 L131.35,369.969 Z M270.95,64.869 C283.05,52.769 302.65,52.769 314.75,64.869 C321.95,72.069 324.85,81.969 323.45,91.269 C335.35,99.669 349.55,107.469 364.75,113.769 C370.15,115.969 375.35,117.969 380.35,119.669 L379.75,76.069 C380.65,76.469 381.45,76.769 382.35,77.169 C406.05,87.069 427.35,100.469 441.05,114.169 C441.25,114.369 441.45,114.569 441.65,114.769 C454.65,128.069 456.05,136.569 454.95,139.169 C451.55,147.269 415.05,154.469 359.65,131.369 C343.45,124.569 328.25,116.169 315.95,107.069 C315.55,107.569 315.05,108.069 314.65,108.569 C302.55,120.669 282.95,120.669 270.85,108.569 C258.85,96.569 258.85,76.969 270.95,64.869 Z" id="Shape"></path>
            </g>
        </g>
    </g>
</svg>