<?xml version="1.0" encoding="UTF-8"?>
<svg width="192px" height="208px" viewBox="0 0 192 208" version="1.1" xmlns="http://www.w3.org/2000/svg" xmlns:xlink="http://www.w3.org/1999/xlink">
    <!-- Generator: Sketch 53.1 (72631) - https://sketchapp.com -->
    <title>Group 16</title>
    <desc>Created with Sketch.</desc>
    <g id="Page-1" stroke="none" stroke-width="1" fill="none" fill-rule="evenodd">
        <g id="Group-16" transform="translate(0.790285, 0.390363)" fill="#FEFEFE">
            <g id="Combined-Shape-2">
                <path d="M80.7346811,21.6096372 L187.209715,21.6096372 C188.866569,21.6096372 190.209715,22.952783 190.209715,24.6096372 L190.209715,68.9355605 C190.209715,70.5924148 188.866569,71.9355605 187.209715,71.9355605 L80.7346811,71.9355605 L80.7346811,90.2194441 C80.7346811,91.8762983 79.3915354,93.2194441 77.7346811,93.2194441 C77.2033696,93.2194441 76.681589,93.0783405 76.2226922,92.8105614 L1.48849896,49.2010834 C0.0574643422,48.3660349 -0.425677901,46.5290116 0.409370557,45.097977 C0.670043088,44.6512587 1.04178067,44.2795211 1.48849896,44.0188486 L76.2226922,0.409370557 C77.6537268,-0.425677901 79.4907501,0.0574643422 80.3257985,1.48849896 C80.5935776,1.94739581 80.7346811,2.46917641 80.7346811,3.00048794 L80.7346811,21.6096372 Z" id="Combined-Shape"></path>
            </g>
            <g id="Combined-Shape-2-Copy" transform="translate(95.500000, 160.609637) rotate(-180.000000) translate(-95.500000, -160.609637) translate(0.000000, 113.609637)">
                <path d="M80.7346811,21.6096372 L187.209715,21.6096372 C188.866569,21.6096372 190.209715,22.952783 190.209715,24.6096372 L190.209715,68.9355605 C190.209715,70.5924148 188.866569,71.9355605 187.209715,71.9355605 L80.7346811,71.9355605 L80.7346811,90.2194441 C80.7346811,91.8762983 79.3915354,93.2194441 77.7346811,93.2194441 C77.2033696,93.2194441 76.681589,93.0783405 76.2226922,92.8105614 L1.48849896,49.2010834 C0.0574643422,48.3660349 -0.425677901,46.5290116 0.409370557,45.097977 C0.670043088,44.6512587 1.04178067,44.2795211 1.48849896,44.0188486 L76.2226922,0.409370557 C77.6537268,-0.425677901 79.4907501,0.0574643422 80.3257985,1.48849896 C80.5935776,1.94739581 80.7346811,2.46917641 80.7346811,3.00048794 L80.7346811,21.6096372 Z" id="Combined-Shape"></path>
            </g>
        </g>
    </g>
</svg>