<?xml version="1.0" encoding="UTF-8"?>
<svg width="40px" height="43px" viewBox="0 0 40 43" version="1.1" xmlns="http://www.w3.org/2000/svg" xmlns:xlink="http://www.w3.org/1999/xlink">
    <!-- Generator: Sketch 53.1 (72631) - https://sketchapp.com -->
    <title>Artboard Copy</title>
    <desc>Created with Sketch.</desc>
    <g id="Artboard-Copy" stroke="none" stroke-width="1" fill="none" fill-rule="evenodd">
        <g id="proxy" transform="translate(4.000000, 3.000000)" fill="#FEFEFE" fill-rule="nonzero">
            <g id="Combined-Shape-2">
                <path d="M13.948924,3.89044205 L32.345134,3.89044205 C32.6313967,3.89044205 32.8634586,4.13225226 32.8634586,4.43054025 L32.8634586,12.4106574 C32.8634586,12.7089454 32.6313967,12.9507556 32.345134,12.9507556 L13.948924,12.9507556 L13.948924,16.2424531 C13.948924,16.5407411 13.7168621,16.7825513 13.4305994,16.7825513 C13.3388021,16.7825513 13.2486515,16.757148 13.1693657,16.708939 L0.257175213,8.85780552 C0.00992839417,8.70746946 -0.0735464437,8.37674513 0.0707289444,8.11911206 C0.115766607,8.03868815 0.179993519,7.97176321 0.257175213,7.92483363 L13.1693657,0.0737001002 C13.4166125,-0.076635956 13.7340039,0.0103454626 13.8782793,0.267978536 C13.9245448,0.35059499 13.948924,0.444532578 13.948924,0.540186045 L13.948924,3.89044205 Z" id="Combined-Shape"></path>
            </g>
            <g id="Combined-Shape-2-Copy" transform="translate(16.500000, 27.923077) rotate(-180.000000) translate(-16.500000, -27.923077) translate(0.000000, 19.461538)">
                <path d="M13.948924,3.89044205 L32.345134,3.89044205 C32.6313967,3.89044205 32.8634586,4.13225226 32.8634586,4.43054025 L32.8634586,12.4106574 C32.8634586,12.7089454 32.6313967,12.9507556 32.345134,12.9507556 L13.948924,12.9507556 L13.948924,16.2424531 C13.948924,16.5407411 13.7168621,16.7825513 13.4305994,16.7825513 C13.3388021,16.7825513 13.2486515,16.757148 13.1693657,16.708939 L0.257175213,8.85780552 C0.00992839417,8.70746946 -0.0735464437,8.37674513 0.0707289444,8.11911206 C0.115766607,8.03868815 0.179993519,7.97176321 0.257175213,7.92483363 L13.1693657,0.0737001002 C13.4166125,-0.076635956 13.7340039,0.0103454626 13.8782793,0.267978536 C13.9245448,0.35059499 13.948924,0.444532578 13.948924,0.540186045 L13.948924,3.89044205 Z" id="Combined-Shape"></path>
            </g>
        </g>
    </g>
</svg>