<?xml version="1.0" encoding="UTF-8"?>
<svg width="277px" height="421px" viewBox="0 0 277 421" version="1.1" xmlns="http://www.w3.org/2000/svg" xmlns:xlink="http://www.w3.org/1999/xlink">
    <!-- Generator: Sketch 53.1 (72631) - https://sketchapp.com -->
    <title>question-mark</title>
    <desc>Created with Sketch.</desc>
    <defs>
        <linearGradient x1="47.4961514%" y1="-24.8384639%" x2="52.1762833%" y2="104.263639%" id="linearGradient-1">
            <stop stop-color="#01C7E3" offset="0%"></stop>
            <stop stop-color="#0037FF" offset="100%"></stop>
        </linearGradient>
    </defs>
    <g id="Page-1" stroke="none" stroke-width="1" fill="none" fill-rule="evenodd">
        <g id="question-mark" fill="url(#linearGradient-1)" fill-rule="nonzero">
            <path d="M132.813725,0 C205.469462,0 277,33.5371516 277,113.755118 C277,187.73018 192.422507,216.179029 174.258572,242.909401 C160.622226,262.792716 165.176605,290.731392 127.710142,290.731392 C103.30403,290.731392 91.3822733,270.834651 91.3822733,252.629536 C91.3822733,184.883953 190.694522,169.551917 190.694522,113.768544 C190.694522,83.0641941 170.306979,64.859079 136.229509,64.859079 C63.5737721,64.859079 91.944873,139.935041 36.9172609,139.935041 C17.0521322,139.935041 2.11688685e-06,127.986256 2.11688685e-06,105.243287 C-0.0133931149,49.4464889 63.5469817,0 132.813725,0 Z M129.987331,327.665221 C155.491853,327.665221 176.535762,348.689712 176.535762,374.33261 C176.535762,399.975509 155.532038,421 129.987331,421 C104.442624,421 83.4255056,400.00236 83.4255056,374.33261 C83.4255056,348.703138 104.442624,327.665221 129.987331,327.665221 Z M150.496856,358.964469 C150.496577,358.213144 150.337176,357.470198 150.028911,356.783445 C150.428776,356.620054 150.814223,356.424119 151.18128,356.197659 C153.485403,354.781722 154.826336,352.237499 154.679932,349.559478 C154.649319,348.771378 153.994118,348.148087 153.196285,348.148087 C152.398451,348.148087 151.74325,348.771378 151.712638,349.559478 C151.850718,351.18936 151.0786,352.763945 149.698726,353.666461 C149.165317,354.003146 148.578382,354.248672 147.96252,354.392748 C147.069148,353.825081 146.028813,353.524818 144.9668,353.52812 C144.004672,353.52881 143.059161,353.776067 142.222545,354.245762 C137.240148,349.252288 129.994257,347.170719 123.080546,348.746727 C120.209294,349.418818 117.484626,350.598557 115.038021,352.229017 C114.630355,352.453094 114.252756,352.726872 113.914079,353.043929 C112.072575,354.765268 111.664802,357.510067 112.927896,359.68211 C110.03303,362.727614 107.739235,366.28095 106.164565,370.15924 C104.792225,373.593055 103.991742,377.223979 103.794229,380.91089 C103.586356,384.320341 103.874282,387.741641 104.649212,391.070269 C103.917493,392.012557 103.522249,393.167961 103.52527,394.355856 C103.531417,396.329558 104.612932,398.146853 106.35514,399.110956 C108.097348,400.075059 110.229908,400.036367 111.935154,399.009716 C114.721322,399.671431 117.57802,399.998748 120.443438,399.984584 C121.127861,399.984584 121.838525,399.967292 122.566682,399.921899 C126.307381,399.725768 129.991705,398.935318 133.478102,397.580918 C137.416974,396.031411 141.026326,393.764236 144.118377,390.897344 C144.952262,391.365962 145.894671,391.613196 146.853885,391.614985 C148.484948,391.618218 150.033312,390.905575 151.080694,389.669572 L151.098187,389.669572 C153.19776,387.00623 154.68965,383.925427 155.471502,380.638532 C157.068623,373.756846 154.900245,366.551141 149.757766,361.651301 C150.242752,360.837138 150.497981,359.909299 150.496856,358.964469 Z M144.10314,357.254576 C145.647481,357.258545 146.896576,358.514795 146.893935,360.061359 C146.891295,361.607922 145.637917,362.859888 144.093572,362.858568 C142.549227,362.857248 141.297985,361.603142 141.29798,360.056577 C141.304565,358.509396 142.558166,357.258278 144.10314,357.256973 L144.10314,357.254576 Z M118.224254,355.153815 C119.76826,355.159105 121.016138,356.415773 121.012619,357.96182 C121.0091,359.507868 119.755514,360.758827 118.2115,360.75707 C116.667487,360.755312 115.416744,359.501503 115.416735,357.955451 C115.411602,357.227263 115.694734,356.526685 116.204181,356.007008 C116.32146,355.918333 116.577559,355.712225 116.982053,355.436615 C117.366318,355.240729 117.793181,355.143549 118.224254,355.153815 Z M109.118844,397.183028 C107.986532,397.182052 106.966437,396.49772 106.534691,395.449447 C106.102945,394.401174 106.344675,393.195649 107.147054,392.395552 C107.949432,391.595455 109.154253,391.358543 110.199164,391.795394 C111.244075,392.232246 111.923049,393.256727 111.919175,394.390659 C111.908675,395.933139 110.659142,397.179119 109.118844,397.183028 Z M132.929398,394.942033 C129.736077,396.194029 126.36124,396.930631 122.933089,397.123858 C120.117266,397.286946 117.291893,397.112596 114.518153,396.604584 C114.811817,395.923431 114.961529,395.189766 114.958035,394.448941 C114.953302,392.671811 114.085689,391.005812 112.62739,389.97361 C111.169091,388.941408 109.298777,388.669469 107.603214,389.243107 C107.098255,386.545088 106.921772,383.796672 107.077556,381.056901 C107.258105,377.646775 107.994941,374.288262 109.259368,371.112145 C110.692421,367.565253 112.781055,364.315273 115.417711,361.529571 C117.144502,362.484334 119.252657,362.456915 120.953621,361.457571 C123.930073,362.694346 126.746942,364.279398 129.344363,366.179039 C132.137849,368.194474 134.65851,370.557858 136.844345,373.21106 C139.324148,376.234658 141.300023,379.63257 142.69697,383.275817 C142.145292,384.147061 141.853261,385.155323 141.854596,386.184189 C141.851009,387.121616 142.094382,388.043705 142.560606,388.859106 C139.758683,391.463317 136.491679,393.526236 132.927199,394.942033 L132.929398,394.942033 Z M146.187264,388.777038 C144.642923,388.773069 143.393828,387.516819 143.396469,385.970255 C143.399109,384.423692 144.652487,383.171726 146.196832,383.173046 C147.741177,383.174366 148.992419,384.428472 148.992424,385.975037 C148.987149,387.524089 147.731708,388.777047 146.184871,388.777038 L146.187264,388.777038 Z M152.088398,379.817649 C151.829769,380.965862 151.471728,382.088683 151.018443,383.173045 C150.021252,381.604319 148.307153,380.656194 146.466855,380.655413 C145.680166,380.657891 144.903105,380.831056 144.187851,381.16328 C142.741062,377.6113 140.786319,374.294827 138.386555,371.320641 C136.091868,368.476301 133.443431,365.945553 130.507407,363.791619 C128.103413,362.009244 125.521331,360.488134 122.803731,359.25337 C123.174299,358.50207 123.367002,357.673469 123.366527,356.833404 C123.368482,355.024065 122.487015,353.331125 121.012626,352.312519 C121.933609,351.941149 122.880658,351.640076 123.845867,351.411814 C126.425016,350.781118 129.116783,350.796761 131.688637,351.457392 C134.753148,352.319184 137.561324,353.932962 139.865233,356.156248 C139.413731,356.968237 139.17709,357.884911 139.178322,358.817125 C139.18658,361.843458 141.608426,364.292013 144.592294,364.290804 C145.516194,364.289029 146.42462,364.050103 147.232943,363.596285 C151.53631,367.770505 153.376019,373.922123 152.084118,379.817649 L152.088398,379.817649 Z" id="Shape"></path>
        </g>
    </g>
</svg>