<?xml version="1.0" encoding="UTF-8"?>
<svg width="35px" height="36px" viewBox="0 0 35 36" version="1.1" xmlns="http://www.w3.org/2000/svg" xmlns:xlink="http://www.w3.org/1999/xlink">
    <!-- Generator: Sketch 53.1 (72631) - https://sketchapp.com -->
    <title>Shape</title>
    <desc>Created with Sketch.</desc>
    <g id="Page-1" stroke="none" stroke-width="1" fill="none" fill-rule="evenodd">
        <g id="Group-33" transform="translate(-21.000000, -21.000000)" fill="#FEFEFE" fill-rule="nonzero">
            <path d="M54.55625,35.4 L42.9228516,35.4 C42.3389468,35.3997799 41.8656338,34.9395592 41.865332,34.3717325 L41.865332,22.5813569 C41.865332,21.7082469 41.1373047,21 40.2398828,21 L36.0870508,21 C35.189082,21 34.4614648,21.7082469 34.4614648,22.5813569 L34.4614648,34.3003361 C34.4614648,34.9083355 33.9560156,35.4025261 33.3308008,35.4051852 L29.5183984,35.4228681 C28.8878516,35.426192 28.3755664,34.9286775 28.3767969,34.3160247 L28.4004492,22.584016 C28.4025,21.7095764 27.6741992,21 26.775,21 L22.6255859,21 C21.7274805,21 21,21.7082469 21,22.5813569 L21,55.596004 C21,56.3716586 21.6461328,57 22.4430664,57 L54.55625,57 C55.3538672,57 56,56.3716586 56,55.596004 L56,36.803996 C56,36.0283414 55.3538672,35.4 54.55625,35.4 Z M49,48.1253168 C49,49.1605633 48.1606825,50 47.1254159,50 L43.8747195,50 C42.8393175,50 42,49.1605633 42,48.1253168 L42,44.8746832 C42,43.8393013 42.8393175,43 43.8747195,43 L47.1254159,43 C48.1606825,43 49,43.8393013 49,44.8746832 L49,48.1253168 L49,48.1253168 Z" id="Shape"></path>
        </g>
    </g>
</svg>