<?xml version="1.0" encoding="UTF-8"?>
<svg width="40px" height="43px" viewBox="0 0 40 43" version="1.1" xmlns="http://www.w3.org/2000/svg" xmlns:xlink="http://www.w3.org/1999/xlink">
    <!-- Generator: Sketch 53.1 (72631) - https://sketchapp.com -->
    <title>Artboard</title>
    <desc>Created with Sketch.</desc>
    <g id="Artboard" stroke="none" stroke-width="1" fill="none" fill-rule="evenodd">
        <path d="M34.68,18.1657143 L24.04375,18.1657143 C23.5098942,18.1655131 23.0771509,17.7447399 23.076875,17.225584 L23.076875,6.445812 C23.076875,5.64753998 22.41125,5 21.59075,5 L17.793875,5 C16.972875,5 16.307625,5.64753998 16.307625,6.445812 L16.307625,17.1603073 C16.307625,17.7161924 15.8455,18.1680239 15.273875,18.1704551 L11.78825,18.1866223 C11.21175,18.1896612 10.743375,17.7347908 10.7445,17.1746511 L10.766125,6.44824316 C10.768,5.64875556 10.102125,5 9.28,5 L5.48625,5 C4.665125,5 4,5.64753998 4,6.445812 L4,36.6306322 C4,37.3398022 4.59075,37.9142857 5.319375,37.9142857 L34.68,37.9142857 C35.40925,37.9142857 36,37.3398022 36,36.6306322 L36,19.4493678 C36,18.7401978 35.40925,18.1657143 34.68,18.1657143 Z M29.6,29.8002896 C29.6,30.7468008 28.832624,31.5142857 27.8860946,31.5142857 L24.9140293,31.5142857 C23.967376,31.5142857 23.2,30.7468008 23.2,29.8002896 L23.2,26.8282818 C23.2,25.8816469 23.967376,25.1142857 24.9140293,25.1142857 L27.8860946,25.1142857 C28.832624,25.1142857 29.6,25.8816469 29.6,26.8282818 L29.6,29.8002896 L29.6,29.8002896 Z" id="Shape" fill="#FEFEFE" fill-rule="nonzero"></path>
    </g>
</svg>