<?xml version="1.0" encoding="UTF-8"?>
<svg width="38px" height="40px" viewBox="0 0 38 40" version="1.1" xmlns="http://www.w3.org/2000/svg" xmlns:xlink="http://www.w3.org/1999/xlink">
    <!-- Generator: Sketch 53.1 (72631) - https://sketchapp.com -->
    <title>Shape</title>
    <desc>Created with Sketch.</desc>
    <g id="Page-1" stroke="none" stroke-width="1" fill="none" fill-rule="evenodd">
        <path d="M36.4325,16 L23.8019531,16 C23.1679994,15.9997555 22.6541167,15.4883992 22.6537891,14.8574805 L22.6537891,1.75706319 C22.6537891,0.786940946 21.8633594,0 20.8890156,0 L16.3802266,0 C15.4052891,0 14.6153047,0.786940946 14.6153047,1.75706319 L14.6153047,14.7781512 C14.6153047,15.4537061 14.0665312,16.0028068 13.3877266,16.0057613 L9.24854687,16.025409 C8.56395312,16.0291022 8.00775781,15.4763083 8.00909375,14.795583 L8.03477344,1.76001773 C8.037,0.788418215 7.24627344,0 6.27,0 L1.76492188,0 C0.789835937,0 0,0.786940946 0,1.75706319 L0,38.4400044 C0,39.3018429 0.701515625,40 1.56675781,40 L36.4325,40 C37.2984844,40 38,39.3018429 38,38.4400044 L38,17.5599956 C38,16.6981571 37.2984844,16 36.4325,16 Z M31,29.8575049 C31,31.0406438 30.04078,32 28.8576182,32 L25.1425366,32 C23.95922,32 23,31.0406438 23,29.8575049 L23,26.1424951 C23,24.9592014 23.95922,24 25.1425366,24 L28.8576182,24 C30.04078,24 31,24.9592014 31,26.1424951 L31,29.8575049 L31,29.8575049 Z" id="Shape" fill="#FEFEFE" fill-rule="nonzero"></path>
    </g>
</svg>