<?xml version="1.0" encoding="UTF-8"?>
<svg width="65px" height="57px" viewBox="0 0 65 57" version="1.1" xmlns="http://www.w3.org/2000/svg" xmlns:xlink="http://www.w3.org/1999/xlink">
    <!-- Generator: Sketch 53.1 (72631) - https://sketchapp.com -->
    <title>Group 17</title>
    <desc>Created with Sketch.</desc>
    <g id="Page-1" stroke="none" stroke-width="1" fill="none" fill-rule="evenodd">
        <g id="Group-17" transform="translate(0.000000, 0.704129)" fill-rule="nonzero">
            <g id="a-link" transform="translate(0.000000, 26.807270)" fill="#F1F1F1">
                <path d="M62.3845672,15.8550522 C58.9276197,17.6566176 41.0212155,25.0121516 37.2087845,26.9973051 C33.3963536,28.9824586 31.2789088,28.963585 28.2667449,27.5257643 C25.254581,26.0879435 6.19929558,18.397833 2.76467311,16.7575506 C1.04736188,15.9374095 0.147490792,15.2476673 0.147490792,14.5956722 L0.147490792,8.05341621 C0.147490792,8.05341621 24.9574862,2.65729896 28.9639733,1.22119398 C32.9704604,-0.214910988 34.3563306,-0.266384285 37.7669107,0.980985267 C41.1774908,2.22835482 61.5568232,5.90183241 64.9244705,7.13547575 L64.9244705,13.5867956 C64.9244705,14.2336433 64.1482459,14.9594168 62.3880018,15.8584837 L62.3845672,15.8550522 Z" id="a"></path>
            </g>
            <path d="M62.2906881,36.2339899 C58.8408266,38.0301174 40.9711265,45.3634495 37.1665103,47.342611 C33.361894,49.3217725 31.2487895,49.3029559 28.2427999,47.8694751 C25.2368103,46.4359942 6.22058399,38.7690956 2.79300175,37.1337642 C-0.634580493,35.4984329 -0.703132138,34.3745702 2.66103983,33.0591207 L20.958488,36.2339899 C24.9550489,34.8039302 33.7629211,37.0553778 37.1665103,38.2989823 C40.5700994,39.5425868 58.8870989,30.9653491 62.2461295,32.2140854 C65.6051601,33.4628217 65.737122,34.4549683 62.2872605,36.2510959 L62.2906881,36.2339899 Z" id="Path" fill="#FEFEFE"></path>
            <g id="a-link" transform="translate(0.000000, 20.522739)" fill="#F1F1F1">
                <path d="M62.3845672,11.5456599 C58.9276197,13.3472253 41.0212155,20.7027594 37.2087845,22.6879128 C33.3963536,24.6730663 31.2789088,24.6541928 28.2667449,23.216372 C25.254581,21.7785513 6.19929558,14.0884408 2.76467311,12.4481584 C1.04736188,11.6280172 0.147490792,10.938275 0.147490792,10.2862799 L0.147490792,3.74402394 C0.147490792,3.74402394 19.4645801,1.80887451 23.4710672,0.372769533 C27.4775543,-1.06333544 28.9140673,2.43531467 32.3246474,3.68268422 C35.7352275,4.93005377 61.5568232,1.59244015 64.9244705,2.82608349 L64.9244705,9.27740331 C64.9244705,9.92425107 64.1482459,10.6500246 62.3880018,11.5490915 L62.3845672,11.5456599 Z" id="a"></path>
            </g>
            <g id="b-link" transform="translate(0.000000, 20.881855)" fill="#FEFEFE">
                <path d="M62.3845672,4.70807442 C58.9276197,6.50471076 41.0212155,13.8401202 37.2087845,15.8198424 C33.3963536,17.7995645 31.2789088,17.7807426 28.2667449,16.3468557 C25.254581,14.9129688 6.19929558,7.24389828 2.76467311,5.60810367 C-0.669949355,3.97230907 -0.738641805,2.84812805 2.63244015,1.53230582 L19.418802,0.150259947 C23.4235718,-1.28191587 30.0664517,8.99101303 33.4770318,10.2349698 C36.887612,11.4789266 58.9739871,-0.558636659 62.3433517,0.668209295 C65.7127164,1.89505525 65.8415147,2.90972701 62.3845672,4.70636334 L62.3845672,4.70807442 Z" id="b"></path>
            </g>
            <path d="M62.465433,21.0724625 C59.0157485,22.8794216 41.1469654,30.2569775 37.3425444,32.2497952 C33.5381233,34.242613 31.4251273,34.221962 28.4192919,32.7798366 C25.4134565,31.3377111 6.39820603,23.6245771 2.97079967,21.9793839 C1.25709649,21.1567872 0.359116022,20.46498 0.359116022,19.8110329 L0.359116022,13.2457482 C0.359116022,13.2457482 2.0872637,15.0003216 6.08533322,13.559917 C8.69667399,12.6191162 16.6482544,18.6554354 25.775836,21.7796453 C30.6229552,23.4387285 38.8834083,22.6982059 40.0638812,23.1321508 C43.4672957,24.3832549 61.6394281,11.0877227 65,12.3250595 L65,18.795694 C65,19.4444784 64.2254062,20.1724247 62.4688604,21.0741834 L62.465433,21.0724625 Z" id="Path" fill="#F1F1F1"></path>
            <path d="M62.3845672,14.457333 C58.9276197,16.2539693 41.0212155,23.5893788 37.2087845,25.5691009 C33.3963536,27.5488231 31.2789088,27.5300012 28.2667449,26.0961142 C25.254581,24.6622273 6.19929558,16.9931568 2.76467311,15.3573622 C-0.669949355,13.7215676 -0.738641805,12.5973866 2.63244015,11.2815644 L28.962256,1.12629137 C32.9670258,-0.305884451 34.3546133,-0.357216918 37.7651934,0.886739858 C41.1757735,2.13069663 58.9739871,9.19062189 62.3433517,10.4174678 C65.7127164,11.6443138 65.8415147,12.6589856 62.3845672,14.4556219 L62.3845672,14.457333 Z M34.3000407,11.8112475 L35.5573437,8.79174473 L41.1782277,8.20942429 L36.8198066,6.58235247 L37.975631,3.82146849 L33.6997688,5.21561214 L29.1659101,3.45152374 L30.6192905,6.12334694 L25.775836,7.86345744 L32.2670282,8.44577788 L34.3000407,11.8112475 Z M23.4710672,18.511358 L33.9629253,22.8445072 L38.5036639,16.212905 L23.4710672,18.511358 Z M19.418802,16.0947282 C23.8568138,16.0947282 27.4545333,14.7060441 27.4545333,12.9930155 C27.4545333,11.2799868 23.8568138,9.89130274 19.418802,9.89130274 C14.9807901,9.89130274 11.3830707,11.2799868 11.3830707,12.9930155 C11.3830707,14.7060441 14.9807901,16.0947282 19.418802,16.0947282 Z M56.5607735,12.5349779 L47.7624309,9.0310265 L47.7692329,16.0337889 L56.5607735,12.5349779 Z M47.7624309,16.0167755 L47.7572568,9.0310265 L37.8867403,12.9017401 L46.7965932,16.392905 L47.7624309,16.0167755 Z" id="Combined-Shape" fill="#FEFEFE"></path>
        </g>
    </g>
</svg>