<?xml version="1.0" encoding="UTF-8"?>
<svg width="24px" height="28px" viewBox="0 0 24 28" version="1.1" xmlns="http://www.w3.org/2000/svg" xmlns:xlink="http://www.w3.org/1999/xlink">
    <!-- Generator: Sketch 53.1 (72631) - https://sketchapp.com -->
    <title>ssl-error</title>
    <desc>Created with Sketch.</desc>
    <g id="Page-1" stroke="none" stroke-width="1" fill="none" fill-rule="evenodd">
        <g id="ssl-error" transform="translate(1.000000, 1.000000)" fill="#FD3259" fill-rule="nonzero">
            <path d="M20.8334705,17.1799541 C20.1701029,19.0066286 19.1035714,20.661696 17.7125183,22.0231174 C15.9683048,23.6520367 13.8863932,24.8797455 11.6137474,25.6195789 C11.4232236,25.6870776 11.2229522,25.723282 11.0207665,25.726776 L10.9981665,25.726776 C10.8760544,25.7266914 10.7542367,25.7148446 10.6344142,25.6914009 C10.5497905,25.6743739 10.4663846,25.6518137 10.384738,25.6238668 C8.10929931,24.8847433 6.02470975,23.6566059 4.27843371,22.0263333 C2.88685674,20.6657542 1.82023129,19.0109074 1.15748158,17.184242 C-0.107042123,13.7764474 -0.031708796,10.0224063 0.0264054851,7.0058809 L0.0264054851,6.95978617 C0.0382435793,6.71108898 0.0457769121,6.44952815 0.0500816736,6.16009608 C0.0770736319,4.73380498 1.20306036,3.56923969 2.63293861,3.48874527 C5.34201043,3.43175253 7.92681787,2.34574238 9.85848088,0.452924451 L9.87569993,0.437916863 C10.5096276,-0.145972288 11.4877816,-0.145972288 12.1217093,0.437916863 L12.1389283,0.453996422 C14.0727036,2.34809121 16.6604835,3.43383434 19.3720039,3.48874527 C20.8018822,3.56923969 21.9278689,4.73380498 21.9548609,6.16009608 C21.9548609,6.45060012 21.966699,6.71216095 21.978537,6.95978617 L21.978537,6.97908164 C22.0280418,10.0020388 22.0990704,13.7625118 20.8334705,17.1799541 Z M17.0710383,12.802731 C17.0664476,9.19673577 14.2589155,6.27063029 10.7851517,6.25136612 L10.7598266,6.25136612 C7.27394933,6.25136612 4.44808743,9.18475729 4.44808743,12.8032787 C4.44808743,16.4218001 7.27394933,19.3551913 10.7598266,19.3551913 L10.7819861,19.3551913 C14.2573981,19.3377244 17.0670168,16.4104288 17.0710383,12.802731 Z" id="Combined-Shape" stroke="#FD3259" fill-opacity="0.3"></path>
            <g id="Group_2284" transform="translate(7.573770, 9.497268)" opacity="0.996">
                <g id="delete" transform="translate(0.094071, 0.084063)">
                    <path d="M6.30999372,1.28792062 L4.33424344,3.26595204 L6.30999372,5.24505673 C6.60379483,5.53906028 6.60403468,6.01597448 6.31052944,6.31027441 C6.0170242,6.60457434 5.54091833,6.6048146 5.24711721,6.31081104 L3.27136694,4.33170636 L1.29775956,6.31081104 C1.00395845,6.6048146 0.527852578,6.60457434 0.234347336,6.31027441 C-0.0591579056,6.01597448 -0.0589180538,5.53906028 0.23488306,5.24505673 L2.20741899,3.26595204 L0.231668716,1.28792062 C-0.0621323981,0.993027945 -0.0616526944,0.515392967 0.232740164,0.22109304 C0.527133022,-0.0732068874 1.00395845,-0.0727263693 1.29775956,0.222166307 L3.27029549,2.201271 L5.24604577,0.222166307 C5.53984688,-0.0721336202 6.0161926,-0.0721336202 6.30999372,0.222166307 C6.60379483,0.516466235 6.60379483,0.993620694 6.30999372,1.28792062 Z" id="Path_50"></path>
                </g>
            </g>
        </g>
    </g>
</svg>