<?xml version="1.0" encoding="UTF-8"?>
<svg width="24px" height="28px" viewBox="0 0 24 28" version="1.1" xmlns="http://www.w3.org/2000/svg" xmlns:xlink="http://www.w3.org/1999/xlink">
    <!-- Generator: Sketch 53.1 (72631) - https://sketchapp.com -->
    <title>ssl-success</title>
    <desc>Created with Sketch.</desc>
    <g id="Page-1" stroke="none" stroke-width="1" fill="none" fill-rule="evenodd">
        <g id="ssl-success" transform="translate(1.000000, 1.000000)" fill="#00DD80" fill-rule="nonzero">
            <path d="M20.8334705,17.2706523 C20.1701029,19.1069704 19.1035714,20.7707754 17.7125183,22.1393842 C15.9683048,23.776903 13.8863932,25.0110933 11.6137474,25.7548324 C11.4232236,25.8226875 11.2229522,25.859083 11.0207665,25.8625954 L10.9981665,25.8625954 C10.8760544,25.8625104 10.7542367,25.8506011 10.6344142,25.8270336 C10.5497905,25.8099167 10.4663846,25.7872374 10.384738,25.759143 C8.10929931,25.0161174 6.02470975,23.7814963 4.27843371,22.1426171 C2.88685674,20.774855 1.82023129,19.1112717 1.15748158,17.2749629 C-0.107042123,13.8491774 -0.031708796,10.0753176 0.0264054851,7.04286708 L0.0264054851,6.99652899 C0.0382435793,6.74651886 0.0457769121,6.48357716 0.0500816736,6.19261709 C0.0770736319,4.75879618 1.20306036,3.58808279 2.63293861,3.50716342 C5.34201043,3.44986979 7.92681787,2.35812627 9.85848088,0.455315577 L9.87569993,0.440228759 C10.5096276,-0.14674292 11.4877816,-0.14674292 12.1217093,0.440228759 L12.1389283,0.456393207 C14.0727036,2.3604875 16.6604835,3.45196259 19.3720039,3.50716342 C20.8018822,3.58808279 21.9278689,4.75879618 21.9548609,6.19261709 C21.9548609,6.48465479 21.966699,6.74759649 21.978537,6.99652899 L21.978537,7.01592633 C22.0280418,10.0548426 22.0990704,13.8351683 20.8334705,17.2706523 Z M17.4656489,12.8467878 C17.460946,9.28826974 14.584833,6.40068992 11.0262139,6.38167939 L11.0002702,6.38167939 C7.42924173,6.38167939 4.53435115,9.27644898 4.53435115,12.8473282 C4.53435115,16.4182075 7.42924173,19.3129771 11.0002702,19.3129771 L11.022971,19.3129771 C14.5832786,19.2957402 17.4615292,16.4069859 17.4656489,12.8467878 Z" id="Combined-Shape" stroke="#00DF7D" fill-opacity="0.3"></path>
            <path d="M14.0482422,11.8759839 L11.1569494,14.7679977 L10.5323271,15.3927757 C10.3910227,15.5370299 10.1976156,15.6183206 9.99571006,15.6183206 C9.79380452,15.6183206 9.60039743,15.5370299 9.45909299,15.3927757 L8.11540384,14.0487515 C7.81903841,13.7523121 7.81903841,13.271689 8.11540384,12.9752497 C8.41176927,12.6788104 8.89227256,12.6788104 9.18863798,12.9752497 L9.99785653,13.78467 L12.979301,10.8024821 C13.2756664,10.5060428 13.7561697,10.5060429 14.0525351,10.8024822 C14.3489005,11.0989215 14.3489005,11.5795446 14.0525351,11.8759839 L14.0482422,11.8759839 Z" id="Path_1295"></path>
        </g>
    </g>
</svg>