<?xml version="1.0" encoding="UTF-8"?>
<svg width="129px" height="129px" viewBox="0 0 129 129" version="1.1" xmlns="http://www.w3.org/2000/svg" xmlns:xlink="http://www.w3.org/1999/xlink">
    <!-- Generator: Sketch 53.1 (72631) - https://sketchapp.com -->
    <title>warning</title>
    <desc>Created with Sketch.</desc>
    <g id="Page-1" stroke="none" stroke-width="1" fill="none" fill-rule="evenodd">
        <g id="warning" fill="#FEFEFE" fill-rule="nonzero">
            <path d="M108.498155,128.011772 L20.4240124,128.011772 C13.5061435,128.010797 7.08157231,124.429025 3.44325681,118.543572 C-0.194083602,112.659094 -0.525548822,105.310321 2.56682462,99.1216746 L46.599996,11.0436329 C49.9799638,4.27589799 56.8958831,0 64.4610836,0 C72.0262841,0 78.9422031,4.27589799 82.3221709,11.0436329 L126.355343,99.1216746 C129.447715,105.310321 129.116251,112.659094 125.47891,118.543572 C121.841569,124.429025 115.416023,128.010797 108.498155,128.011772 Z M64.4610836,31.9961186 C62.2558665,31.9961186 60.4679056,33.7840798 60.4679056,35.9892966 L60.4679056,83.9074326 C60.4679056,86.1126494 62.2558665,87.9006106 64.4610836,87.9006106 C66.6663004,87.9006106 68.4542616,86.1126494 68.4542616,83.9074326 L68.4542616,35.9892966 C68.4542616,33.7840798 66.6663004,31.9961186 64.4610836,31.9961186 Z M60.4679056,95.8869666 L60.4679056,103.873323 L68.4542616,103.873323 L68.4542616,95.8869666 L60.4679056,95.8869666 Z" id="Combined-Shape"></path>
        </g>
    </g>
</svg>