<svg xmlns="http://www.w3.org/2000/svg" width="100" height="86.085" viewBox="0 0 100 86.085">
  <defs>
    <style>
      .cls-1 {
        fill: #fefefe;
        fill-rule: evenodd;
      }
    </style>
  </defs>
  <g id="wizard" transform="translate(-0.5 -0.5)">
    <g id="Group-15" transform="translate(0.5 0.5)">
      <path id="Combined-Shape" class="cls-1" d="M.5,60.61v58.481a6.763,6.763,0,0,0,6.763,6.763H93.737a6.763,6.763,0,0,0,6.763-6.763V60.61ZM28.022,81.564A11.815,11.815,0,1,1,16.209,93.379,11.827,11.827,0,0,1,28.022,81.564ZM28.27,98.9A5.771,5.771,0,1,0,22.5,93.131,5.777,5.777,0,0,0,28.27,98.9ZM45.146,90.38l3.119,1.041v3.916l-3.114,1.041-.153.7a17.263,17.263,0,0,1-2.359,5.678l-.389.6,1.475,2.949-2.77,2.77L38.006,107.6l-.6.39a17.256,17.256,0,0,1-5.678,2.359l-.7.153-1.04,3.118H26.066L25.025,110.5l-.7-.153a17.263,17.263,0,0,1-5.678-2.359l-.6-.389-2.949,1.475-2.77-2.77L13.8,103.36l-.389-.6a17.249,17.249,0,0,1-2.359-5.678l-.152-.7L7.78,95.337V91.419l3.114-1.039.153-.7A17.263,17.263,0,0,1,13.4,84l.389-.6-1.475-2.949,2.77-2.77,2.949,1.475.6-.389a17.248,17.248,0,0,1,5.678-2.359l.7-.152,1.041-3.119h3.918l1.041,3.119.7.152A17.248,17.248,0,0,1,37.4,78.765l.6.389,2.949-1.475,2.77,2.77L42.246,83.4l.389.6a17.249,17.249,0,0,1,2.359,5.678h0Zm-.491-.627h0ZM28.27,107.329a14.2,14.2,0,1,0-14.2-14.2A14.214,14.214,0,0,0,28.27,107.329ZM58.728,68.719H89.635a2.783,2.783,0,0,1,0,5.565H58.728a2.783,2.783,0,0,1,0-5.565Zm0,8.028H89.635a2.783,2.783,0,0,1,0,5.565H58.728a2.783,2.783,0,0,1,0-5.565Zm-1.222,8.028h33.35a1.561,1.561,0,0,1,1.561,1.561v32.149a1.561,1.561,0,0,1-1.561,1.561H57.507a1.561,1.561,0,0,1-1.561-1.561V86.336A1.561,1.561,0,0,1,57.507,84.776Z" transform="translate(-0.5 -39.769)"/>
      <path id="Rectangle" class="cls-1" d="M.5,16.545h100V7.261A6.762,6.762,0,0,0,93.737.5H7.263A6.762,6.762,0,0,0,.5,7.261Z" transform="translate(-0.5 -0.5)"/>
    </g>
  </g>
</svg>
