<?xml version="1.0" encoding="UTF-8"?>
<svg width="290px" height="250px" viewBox="0 0 290 250" version="1.1" xmlns="http://www.w3.org/2000/svg" xmlns:xlink="http://www.w3.org/1999/xlink">
    <!-- Generator: Sketch 53.1 (72631) - https://sketchapp.com -->
    <title>Group 15</title>
    <desc>Created with Sketch.</desc>
    <g id="Page-1" stroke="none" stroke-width="1" fill="none" fill-rule="evenodd" fill-opacity="0.4">
        <g id="Group-15" fill="#2979FF" stroke="#2979FF">
            <path d="M0.5,60.6095376 L0.5,229.228395 C0.5,239.997948 9.23044738,248.728395 20,248.728395 L269.351852,248.728395 C280.121404,248.728395 288.851852,239.997948 288.851852,229.228395 L288.851852,60.6095376 L0.5,60.6095376 Z M79.8611111,121.027778 C98.6446106,121.027778 113.925926,136.309093 113.925926,155.092593 C113.925926,173.876092 98.6446106,189.157407 79.8611111,189.157407 C61.077612,189.157407 45.7962963,173.876092 45.7962963,155.092593 C45.7962963,136.309093 61.077612,121.027778 79.8611111,121.027778 Z M80.5752561,171.017928 C89.7517715,171.017928 97.214736,163.554963 97.214736,154.378448 C97.214736,145.201932 89.7517715,137.738968 80.5752561,137.738968 C71.3987411,137.738968 63.9357762,145.201932 63.9357762,154.378448 C63.9357762,163.554963 71.3987411,171.017928 80.5752561,171.017928 Z M129.238643,146.445827 L138.231481,149.446622 L138.231481,160.738382 L129.252541,163.739292 L128.812505,165.760126 C127.551642,171.560912 125.261867,177.070362 122.010791,182.131318 L120.887844,183.871499 L125.141882,192.374912 L117.15409,200.362147 L108.650093,196.108411 L106.908882,197.231865 C101.84706,200.483042 96.3390475,202.772114 90.5376221,204.032496 L88.5166414,204.472504 L85.5175777,213.462963 L74.2188505,213.462963 L71.2177576,204.472518 L69.1968927,204.032536 C63.3957137,202.771764 57.8858866,200.482152 52.8245819,197.231306 L51.08424,196.108411 L42.5802432,200.362147 L34.5924514,192.374912 L38.8465961,183.871286 L37.7250787,182.13057 C34.4732183,177.071567 32.1829775,171.562231 30.9217784,165.759898 L30.4835802,163.739358 L21.4907407,160.738563 L21.4907407,149.442612 L30.46971,146.445762 L30.9097181,144.425059 C32.1705799,138.624276 34.460355,133.114825 37.711432,128.053867 L38.834379,126.313687 L34.580341,117.810272 L42.5681334,109.823038 L51.072343,114.076881 L52.8132202,112.955416 C57.8725696,109.703786 63.3822817,107.413709 69.1850102,106.1526 L71.205713,105.714427 L74.2067148,96.7222222 L85.503398,96.7222222 L88.5043998,105.714427 L90.5253301,106.152649 C96.3278309,107.413709 101.837544,109.703786 106.897338,112.955702 L108.637769,114.076881 L117.141979,109.823038 L125.129771,117.810272 L120.875627,126.3139 L121.997145,128.054615 C125.249005,133.113619 127.539245,138.622955 128.800395,144.425059 L128.800444,144.425287 L129.238643,146.445827 Z M127.823187,144.637347 L127.823163,144.637232 L127.823212,144.637461 C127.823204,144.637423 127.823196,144.637385 127.823187,144.637347 Z M80.5755601,195.316187 C103.149019,195.316187 121.513603,176.951602 121.513603,154.378144 C121.513603,131.804685 103.149019,113.440101 80.5755601,113.440101 C58.0021021,113.440101 39.6375171,131.804686 39.6375171,154.378144 C39.6375171,176.951602 58.0021021,195.316187 80.5755601,195.316187 Z M168.402778,83.9907407 L257.523148,83.9907407 C261.954211,83.9907407 265.546296,87.5828265 265.546296,92.0138889 C265.546296,96.4449513 261.954211,100.037037 257.523148,100.037037 L168.402778,100.037037 C163.971715,100.037037 160.37963,96.4449513 160.37963,92.0138889 C160.37963,87.5828265 163.971715,83.9907407 168.402778,83.9907407 Z M168.402778,107.138889 L257.523148,107.138889 C261.954211,107.138889 265.546296,110.730975 265.546296,115.162037 C265.546296,119.593099 261.954211,123.185185 257.523148,123.185185 L168.402778,123.185185 C163.971715,123.185185 160.37963,119.593099 160.37963,115.162037 C160.37963,110.730975 163.971715,107.138889 168.402778,107.138889 Z M164.87963,130.287037 L261.046296,130.287037 C263.531578,130.287037 265.546296,132.301756 265.546296,134.787037 L265.546296,227.481481 C265.546296,229.966763 263.531578,231.981481 261.046296,231.981481 L164.87963,231.981481 C162.394348,231.981481 160.37963,229.966763 160.37963,227.481481 L160.37963,134.787037 C160.37963,132.301756 162.394348,130.287037 164.87963,130.287037 Z" id="Combined-Shape"></path>
            <path d="M0.5,46.7797144 L288.851852,46.7797144 L288.851852,20 C288.851852,9.23044738 280.121404,0.5 269.351852,0.5 L20,0.5 C9.23044738,0.5 0.5,9.23044738 0.5,20 L0.5,46.7797144 Z" id="Rectangle"></path>
        </g>
    </g>
</svg>