<?xml version="1.0" encoding="UTF-8"?>
<svg width="25px" height="29px" viewBox="0 0 25 29" version="1.1" xmlns="http://www.w3.org/2000/svg" xmlns:xlink="http://www.w3.org/1999/xlink">
    <!-- Generator: Sketch 53.1 (72631) - https://sketchapp.com -->
    <title>ic-domain</title>
    <desc>Created with Sketch.</desc>
    <g id="Page-1" stroke="none" stroke-width="1" fill="none" fill-rule="evenodd" fill-opacity="0.42">
        <g id="ic-domain" transform="translate(1.000000, 0.000000)" fill="#7C7C7C" fill-rule="nonzero" stroke="#7C7C7C" stroke-width="0.5">
            <g id="Group_2417" transform="translate(6.726000, 8.881000)">
                <path d="M5.258,0 C2.35408679,-1.77813401e-16 3.55626802e-16,2.35408679 0,5.258 C-3.55626802e-16,8.16191321 2.35408679,10.516 5.258,10.516 C8.16191321,10.516 10.516,8.16191321 10.516,5.258 C10.5126935,2.35545748 8.16054252,0.00330648795 5.258,0 Z M8.38,4.268 L4.613,8.035 C4.46124658,8.18699278 4.25528106,8.27240158 4.0405,8.27240158 C3.82571894,8.27240158 3.61975342,8.18699278 3.468,8.035 L2.028,6.6 C1.71043628,6.28381698 1.709317,5.77006374 2.02550001,5.45250001 C2.34168303,5.13493629 2.85543627,5.13381699 3.173,5.45 L4.04,6.317 L7.235,3.123 C7.5537783,2.82275366 8.05346637,2.83023166 8.36311736,3.13988264 C8.67276834,3.44953363 8.68024634,3.9492217 8.38,4.268 Z" id="Path_1347"></path>
            </g>
            <g id="Group_2419" transform="translate(0.234000, 0.340000)">
                <path d="M23.473,7.488 L23.473,7.466 C23.460479,7.18013736 23.4521448,6.8941067 23.448,6.608 C23.4192537,5.08025624 22.2194166,3.83205964 20.694,3.743 C17.7974779,3.68358313 15.0333423,2.51868208 12.968,0.487 L12.95,0.47 C12.2728956,-0.15710911 11.2271044,-0.15710911 10.55,0.47 L10.532,0.487 C8.46720017,2.51840693 5.70392213,3.68360587 2.808,3.744 C1.28258342,3.83305964 0.0827462719,5.08125624 0.054,6.609 C0.054,6.919 0.041,7.199 0.029,7.466 L0.029,7.516 C-0.033,10.752 -0.109,14.778 1.238,18.433 C1.94547146,20.392118 3.08419649,22.1671894 4.57,23.627 C6.43546971,25.376049 8.66272887,26.6934912 11.094,27.486 C11.1812234,27.5164187 11.2704334,27.5408095 11.361,27.559 C11.6171215,27.6103166 11.8808785,27.6103166 12.137,27.559 C12.2279032,27.5408478 12.3174484,27.5164568 12.405,27.486 C14.8338079,26.6916469 17.0585385,25.3736041 18.922,23.625 C20.4080476,22.1650025 21.5473917,20.3900315 22.256,18.431 C23.611,14.764 23.534,10.729 23.473,7.488 L23.473,7.488 Z M11.75,20.677 C8.96792672,20.6774045 6.45958819,19.0017818 5.39474799,16.4315586 C4.3299078,13.8613354 4.91829673,10.9027425 6.88551963,8.93551963 C8.85274254,6.96829673 11.8113354,6.3799078 14.3815586,7.44474799 C16.9517818,8.50958819 18.6274045,11.0179267 18.627,13.8 C18.6225915,17.5962347 15.5462347,20.6725915 11.75,20.677 L11.75,20.677 Z" id="Path_1350"></path>
            </g>
        </g>
    </g>
</svg>