<svg xmlns="http://www.w3.org/2000/svg" width="24" height="24" viewBox="0 0 24 24">
  <defs>
    <style>
      .cls-1 {
        fill: #fff;
      }
    </style>
  </defs>
  <g id="wallet" transform="translate(-0.003)">
    <g id="Group_1348" data-name="Group 1348" transform="translate(0.003 0)">
      <g id="Group_1347" data-name="Group 1347" transform="translate(0 0)">
        <path id="Path_995" data-name="Path 995" class="cls-1" d="M22.912,12.1V8.728A2.177,2.177,0,0,0,20.9,6.563L17.771,1.092a2.159,2.159,0,0,0-2.962-.8L4.071,6.546H2.185A2.184,2.184,0,0,0,0,8.728V21.818A2.184,2.184,0,0,0,2.185,24H20.73a2.184,2.184,0,0,0,2.182-2.182V18.445A1.634,1.634,0,0,0,24,16.909V13.637A1.634,1.634,0,0,0,22.912,12.1ZM19.636,6.546H14.882L18.448,4.47Zm-1.73-3.023L12.714,6.546H10.56l6.807-3.963ZM15.359,1.237a1.055,1.055,0,0,1,.81-.109,1.07,1.07,0,0,1,.655.507v0L8.392,6.546H6.239Zm6.462,20.582a1.092,1.092,0,0,1-1.091,1.091H2.185a1.092,1.092,0,0,1-1.091-1.091V8.728A1.092,1.092,0,0,1,2.185,7.637H20.73a1.092,1.092,0,0,1,1.091,1.091V12H18.548a3.273,3.273,0,1,0,0,6.545h3.273v3.273Zm1.091-4.909a.546.546,0,0,1-.545.545H18.548a2.182,2.182,0,1,1,0-4.364h3.818a.546.546,0,0,1,.545.545Z" transform="translate(-0.003 0)"/>
        <path id="Path_996" data-name="Path 996" class="cls-1" d="M342.428,277.341a1.091,1.091,0,1,0,1.091,1.091A1.092,1.092,0,0,0,342.428,277.341Z" transform="translate(-323.883 -263.159)"/>
      </g>
    </g>
  </g>
</svg>
