<svg xmlns="http://www.w3.org/2000/svg" viewBox="0 0 129.234 129.234">
    <defs>
        <style>
            .cls-1{fill:#0045ff}
        </style>
    </defs>
    <path id="company" d="M45.857 95.884h4.169v4.169h-4.169zm8.338 4.169h4.169v-4.169H54.2zm8.338 0H66.7v-4.169h-4.167zm8.338 0h4.169v-4.169h-4.17zm8.338 0h4.169v-4.169h-4.17zm50.026-35.435A64.617 64.617 0 1 1 15.269 22.929H8.338A8.338 8.338 0 0 1 7.112 6.343 10.394 10.394 0 0 1 16.675 0a10.168 10.168 0 0 1 5.211 1.43A10.168 10.168 0 0 1 27.1 0a10.394 10.394 0 0 1 9.563 6.343.069.069 0 0 1 .015 0A63.97 63.97 0 0 1 64.617 0a64.69 64.69 0 0 1 64.617 64.617zM64.617 4.169a2.087 2.087 0 0 0-2.084 2.084v6.253H66.7V6.253a2.087 2.087 0 0 0-2.083-2.084zm27.1 54.2h4.169V70.87h16.675a4.169 4.169 0 0 0 0-8.338c.027.008-.083.02-.2.027l-1.692.072-.417-1.638a6.235 6.235 0 0 0-6.032-4.715 6.155 6.155 0 0 0-3.9 1.414l-1.31 1.06-1.31-1.059a6.25 6.25 0 0 0-5.985-1.038zm-4.171 50.021h-4.169v8.338h4.169zm7.652 8.338c.227-.133.461-.259.686-.394V91.715H33.351v24.619c.225.137.459.261.686.394h3.483v-12.507h12.506v12.507h8.338v-12.507H70.87v12.507h8.338v-12.507h12.507v12.507zM66.7 108.39h-4.167v8.338H66.7zm-20.844 0h-4.167v8.338h4.169zm-8.338-55.9a6.27 6.27 0 0 0-5.985 1.036l-1.311 1.058-1.311-1.058a6.155 6.155 0 0 0-3.9-1.414 6.24 6.24 0 0 0-6.034 4.713l-.417 1.638-2.023-.1a4.173 4.173 0 0 0 .137 8.344h16.677v-8.343h4.169zm12.508 18.38h-4.169v16.676h4.169zm16.675 0h-4.168v16.676H66.7zm16.675 0h-4.168v16.676h4.169zm8.338 16.675V62.533H37.52v25.013h4.169V66.7H54.2v20.846h4.169V66.7H70.87v20.846h4.169V66.7h12.507v20.846zm-33.35-41.688H54.2v12.507h4.169zm16.675 0H70.87v12.507h4.169zm12.507-8.337H41.689v20.844h8.338V41.689h12.506v16.675H66.7V41.689h12.508v16.675h8.338zm-29.182-4.169V16.675H54.2v16.676zm16.675-16.676H70.87v16.676h4.169zm-8.338 0h-4.168v16.676H66.7zM8.338 18.76h27.1a4.169 4.169 0 0 0 0-8.338c.027.008-.083.02-.2.027l-1.692.072-.416-1.637a6.235 6.235 0 0 0-6.03-4.715 6.155 6.155 0 0 0-3.9 1.414l-1.314 1.058-1.31-1.058a6.155 6.155 0 0 0-3.9-1.414 6.24 6.24 0 0 0-6.034 4.713l-.417 1.638-2.023-.1a4.173 4.173 0 0 0 .137 8.344zm20.844 94.785v-26h4.169V70.87H16.675a8.338 8.338 0 0 1-1.225-16.585 10.394 10.394 0 0 1 9.563-6.343 10.168 10.168 0 0 1 5.211 1.43 10.411 10.411 0 0 1 7.3-1.18V33.351h12.502V12.507h8.338V6.253a6.144 6.144 0 0 1 .29-1.78 59.562 59.562 0 0 0-17.27 4.318 8.308 8.308 0 0 1-5.949 14.137h-14.57a60.376 60.376 0 0 0 8.317 90.617zm35.435 11.52a60.1 60.1 0 0 0 22.016-4.165H42.6a60.1 60.1 0 0 0 22.017 4.166zm60.448-60.448A60.531 60.531 0 0 0 70.578 4.465a6.2 6.2 0 0 1 .292 1.788v6.253h8.338v20.845h12.507v19.01a10.4 10.4 0 0 1 7.3 1.18 10.168 10.168 0 0 1 5.211-1.43 10.394 10.394 0 0 1 9.563 6.343 8.338 8.338 0 0 1-1.225 16.586h-16.68v12.506h4.169v26a60.391 60.391 0 0 0 25.013-48.929zm0 0" class="cls-1"/>
</svg>
