<?xml version="1.0" encoding="UTF-8"?>
<svg width="130px" height="130px" viewBox="0 0 130 130" version="1.1" xmlns="http://www.w3.org/2000/svg" xmlns:xlink="http://www.w3.org/1999/xlink">
    <!-- Generator: Sketch 53.1 (72631) - https://sketchapp.com -->
    <title>project-management-2</title>
    <desc>Created with Sketch.</desc>
    <g id="Page-1" stroke="none" stroke-width="1" fill="none" fill-rule="evenodd">
        <g id="Artboard" transform="translate(-1067.000000, -508.000000)" fill="#225eff" opacity="1" fill-rule="nonzero">
            <g id="project-management-2" transform="translate(1067.000000, 508.000000)">
                <g id="Group_76-2" transform="translate(0.000000, 0.355191)">
                    <g id="Group_75-2">
                        <path d="M127.845454,33.7161486 L119.47421,32.5135678 C118.612322,32.3916463 117.908676,31.7620642 117.691378,30.9183919 C117.47408,30.0747197 117.785922,29.1831024 118.481495,28.6592963 L125.253282,23.582902 C126.20416,22.8692918 126.397128,21.5192873 125.684309,20.5674307 L117.93032,10.2282422 C117.217369,9.27648506 115.868611,9.08333885 114.917633,9.7968163 L108.159363,14.876217 C107.463348,15.4045521 106.517314,15.4593771 105.76503,15.0149744 C105.012746,14.5705718 104.603462,13.7151084 104.729165,12.8498683 L105.930635,4.47088655 C106.011701,3.90535704 105.864994,3.33075738 105.522788,2.87349784 C105.180583,2.4162383 104.670912,2.11377679 104.105902,2.03265396 L91.3117451,0.204731135 C90.7467378,0.123590273 90.1726688,0.270433251 89.7158315,0.612955044 C89.2589942,0.955476836 88.956812,1.46561864 88.875764,2.03115074 L87.6742937,10.4101325 C87.5516098,11.2728522 86.9217115,11.9766075 86.0784069,12.1931405 C85.2351023,12.4096736 84.3445273,12.0963262 83.8220795,11.3992552 L78.7623875,4.62722205 C78.0494363,3.67546495 76.7006784,3.48231874 75.7497007,4.19579619 L69.2827866,9.05422265 C66.3569377,8.74292288 63.4063635,8.74292288 60.4805146,9.05422265 C41.3211363,11.2463915 26.2966406,26.5397467 24.4288955,45.750976 C24.3703238,46.3612858 24.3492981,46.9655826 24.3192613,47.5713827 L23.673471,47.5713827 C22.653263,47.5742095 21.7752212,48.2936137 21.570898,49.2940797 L20.0840784,56.3712677 L14.1262874,52.2599446 C13.2713517,51.6694501 12.1170381,51.7744272 11.3824295,52.5094801 L4.92452652,58.973352 C4.1909669,59.7084159 4.08611749,60.8628254 4.67522142,61.7182427 L8.76472606,67.6680112 L1.69106949,69.156205 C0.701813473,69.3733745 -0.00231151572,70.2515276 1.32124452e-10,71.265231 L1.32124452e-10,79.8817225 C0.00163658151,80.899201 0.71432427,81.77678 1.70909155,81.9862389 L8.78274812,83.4744327 L4.69324348,89.4287109 C4.10413955,90.2841282 4.20898895,91.4385376 4.94254857,92.1736016 L11.4004516,98.6374735 C12.1350602,99.3725264 13.2893738,99.4775035 14.1443095,98.887009 L20.0900858,94.783202 L21.5769053,101.863396 C21.7812286,102.863862 22.6592703,103.583267 23.6794784,103.586093 L32.2895151,103.586093 C33.306054,103.584455 34.1828227,102.871109 34.3920882,101.875422 L35.8789078,94.7952278 L41.8246841,98.8885122 C42.6793114,99.4781606 43.8326549,99.3732143 44.5670401,98.6389767 L47.9086294,95.282273 L47.9086294,101.415435 C47.9183249,104.479781 49.558591,107.306786 52.2128969,108.833855 L52.2128969,120.807051 C52.2132951,123.092547 53.1208513,125.284255 54.7358713,126.899922 C56.3508913,128.515588 58.5410499,129.422836 60.8244355,129.422039 L69.4329704,129.422039 C74.18616,129.421209 78.0391743,125.564633 78.0400035,120.807051 L78.0400035,108.838365 C80.6951216,107.310107 82.3349893,104.481084 82.3427691,101.415435 L82.3427691,92.8951501 C82.4010549,89.308172 84.2757269,85.9964367 87.31986,84.1027812 C89.1064499,82.9412513 90.8005729,81.6430994 92.3870611,80.2199484 L89.5095396,77.0165738 C88.090627,78.28931 86.5746783,79.449311 84.975491,80.4860194 C80.7021683,83.1702425 78.0862318,87.8456729 78.0324943,92.8951501 L78.0324943,101.415435 C78.0349888,103.791885 76.1144891,105.721558 73.7402416,105.728191 L56.520168,105.728191 C55.3778243,105.728191 54.2823337,105.273669 53.4749973,104.464741 C52.6676609,103.655812 52.2147048,102.558834 52.2159006,101.415435 L52.2159006,92.7117565 C52.1658914,87.7582053 49.5915367,83.1733762 45.3900473,80.5551678 C31.6460999,71.9121947 25.262081,55.2185116 29.7275379,39.5989972 C34.1929947,23.9794827 48.4333111,13.1929873 64.664635,13.1354813 C64.6324636,13.2121 64.6043896,13.2903785 64.5805321,13.3699845 C64.5007676,13.935691 64.64879,14.5099432 64.9920357,14.9664105 L70.0637423,21.7309276 C70.6000202,22.42349 70.651469,23.3761726 70.1929004,24.1225602 C69.7528183,24.8738631 68.9018486,25.2833956 68.0407667,25.1582829 L59.6695221,23.9557021 C59.1013304,23.8748818 58.5244226,24.0245586 58.0669999,24.3714711 C57.6095771,24.7183837 57.3095321,25.2337939 57.233541,25.8031668 L55.4058043,38.5956202 C55.3247384,39.1611497 55.4714458,39.7357494 55.8136513,40.1930089 C56.1558568,40.6502684 56.6655275,40.95273 57.2305374,41.0338528 L65.6017819,42.2364336 C66.4637049,42.3592309 67.1668104,42.9897114 67.3831435,43.8337954 C67.5994766,44.6778795 67.2864185,45.5692776 66.5899912,46.0922083 L59.8317206,51.1686025 C58.8808424,51.8822128 58.6878745,53.2322172 59.4006932,54.1840739 L67.1471731,64.5232624 C67.8601244,65.4750195 69.2088823,65.6681657 70.15986,64.9546883 L76.9256398,59.878294 C77.6204541,59.3571114 78.560108,59.3048872 79.308299,59.7458702 C80.0564899,60.1868532 80.4666484,61.0346556 80.3483284,61.8956233 L79.146858,70.2746051 C79.0657921,70.8401346 79.2124995,71.4147343 79.554705,71.8719938 C79.8969105,72.3292534 80.4065812,72.6317149 80.9715911,72.7128377 L93.7537336,74.5422637 C93.8533448,74.5551056 93.9536673,74.5616326 94.0541012,74.5618057 C95.1252468,74.5629989 96.0342247,73.7755578 96.186711,72.7143409 L97.3881813,64.3353591 C97.5108652,63.4726395 98.1407636,62.7688842 98.9840682,62.5523511 C99.8273728,62.3358181 100.717948,62.6491655 101.240396,63.3462364 L106.315106,70.1107535 C107.028057,71.0625106 108.376815,71.2556568 109.327793,70.5421793 L119.657434,62.7885396 C120.605911,62.0746597 120.798062,60.7270196 120.08696,59.7760747 L115.015253,53.0115576 C114.482348,52.3177412 114.431014,51.3671955 114.886095,50.619925 C115.316637,49.8584501 116.175325,49.445803 117.038229,49.5857055 L125.409473,50.7882863 C125.975606,50.8688504 126.550496,50.7205894 127.007246,50.3762299 C127.463996,50.0318704 127.765049,49.5197268 127.843952,48.9528474 L129.668685,36.1588908 C129.751074,35.5928813 129.605176,35.0173131 129.263159,34.5590827 C128.921142,34.1008523 128.41109,33.7975872 127.845454,33.7161486 Z M55.5303203,110.036436 L74.7300893,110.036436 L74.7300893,114.343179 L55.5303203,114.343179 L55.5303203,110.036436 Z M55.5303203,117.993158 L74.7300893,117.993158 L74.7300893,120.477166 C74.7300893,123.220925 72.5814568,125.445181 69.9309843,125.445181 L60.3294253,125.445181 C57.6789528,125.445181 55.5303203,123.220925 55.5303203,120.477166 L55.5303203,117.993158 Z M40.008926,82.1664799 C41.2379464,83.1283941 42.5222738,84.0237132 43.85588,84.8482351 C45.9824771,86.1345855 47.5833128,88.0804247 48.390856,90.3605648 L43.5621354,94.9724622 L38.8873559,91.8878425 C37.6470536,91.0698415 36.0614351,90.8996529 34.6625879,91.434387 C33.2637407,91.9691211 32.2370427,93.1379139 31.9270238,94.5485525 L30.7473331,99.9270952 L25.398669,99.9270952 L24.2205492,94.5590751 C23.9105303,93.1484365 22.8838323,91.9796437 21.4849851,91.4449096 C20.0861378,90.9101755 18.5005194,91.0803641 17.2602171,91.8983651 L12.5822959,94.9724622 L8.48243881,91.0565585 L11.7026331,86.5919772 C12.5581253,85.4054076 12.7367669,83.8880062 12.1786041,82.5490251 C11.6204413,81.2100441 10.3994527,80.2269509 8.92541188,79.9296796 L3.31441974,78.7992536 L3.31441974,73.6882852 L8.92541188,72.5578592 C10.3953121,72.2595073 11.6127727,71.2790422 12.1710418,69.9440358 C12.7293109,68.6090294 12.5547857,67.0954906 11.7057747,65.9090906 L8.48243881,61.4084319 L12.5838667,57.4925282 L17.2633588,60.5771479 C18.5037451,61.3937732 20.0885993,61.5629828 21.486558,61.028045 C22.8845168,60.4931072 23.9105108,59.3248398 24.2205492,57.9149347 L24.6148266,56.1230893 C24.9752766,58.6048606 25.5725932,61.0498062 26.3992855,63.4272644 C20.0045848,64.1534192 15.0344567,69.098025 14.5244642,75.2411068 C14.0144717,81.3841886 18.1064102,87.017759 24.3010811,88.7010499 C30.4957519,90.3843408 37.0708243,87.6493396 40.0104968,82.1664799 L40.008926,82.1664799 Z M36.3740593,79.1314666 C34.8082444,83.2446874 30.2268362,85.5945809 25.7232701,84.5944637 C21.219704,83.5943465 18.2258043,79.5621871 18.763097,75.22056 C19.3003896,70.8789329 23.1980525,67.6081768 27.8243252,67.6167553 L27.9102362,67.6167553 C30.0071367,71.8877155 32.8706869,75.7834673 36.3740593,79.1314666 L36.3740593,79.1314666 Z M124.828643,46.2019438 L118.3988,45.3105308 C115.735751,44.9426776 113.106619,46.1684228 111.736177,48.4167574 C110.365735,50.665092 110.523544,53.4937774 112.136088,55.5850805 L116.034228,60.6314103 L108.938963,65.8010045 L105.040823,60.756178 C103.426175,58.6656272 100.674423,57.7252887 98.0679791,58.3733925 C95.4615351,59.0214963 93.5133324,61.1304991 93.1313004,63.7175333 L92.2337533,69.9724567 L83.4548136,68.7533404 L84.3724782,62.5074363 C84.7519174,59.9203049 83.4903622,57.365751 81.1756418,56.0340844 C78.8609214,54.7024177 75.948465,54.8556483 73.7953492,56.4223774 L68.6004081,60.2075005 L63.2785725,53.3122028 L68.471966,49.5255765 C70.6229876,47.956854 71.5902357,45.2844623 70.9231408,42.7532709 C70.256046,40.2220796 68.0858161,38.329937 65.4234007,37.9582524 L58.9935586,37.0668393 L60.2485771,28.5390382 L66.6784192,29.4304512 C69.3417401,29.7990359 71.971524,28.5735699 73.3424074,26.3250665 C74.7132909,24.0765631 74.5555477,21.2474232 72.9426794,19.1559014 L69.0337068,14.105062 L76.1289718,8.93697102 L80.0271119,13.9833007 C81.6420324,16.0727882 84.3931244,17.0123662 86.9988578,16.3643549 C89.6045911,15.7163436 91.5524562,13.6081974 91.9350867,11.0219455 L92.8527513,4.77604143 L101.631691,5.9936545 L100.714026,12.2395586 C100.336093,14.8261633 101.598223,17.3794502 103.912596,18.7102592 C106.226969,20.0410682 109.13849,19.8877107 111.291155,18.321611 L116.486096,14.5364879 L121.807932,21.4287792 L116.611444,25.2169087 C114.460422,26.7856312 113.493174,29.4580229 114.160269,31.9892143 C114.827364,34.5204056 116.997593,36.4125482 119.660009,36.7842328 L126.092946,37.6786523 L124.828643,46.2019438 Z" id="Path_78-2"></path>
                    </g>
                </g>
                <g id="Group_78-2" transform="translate(76.366120, 21.311475)">
                    <g id="Group_77-2">
                        <path d="M16.2319895,0 C6.72042024,0 0,6.72904958 0,16.2512637 C0,25.7734779 6.72042024,32.5025274 16.2319895,32.5025274 C25.7435588,32.5025274 32.4639791,25.7734779 32.4639791,16.2512637 C32.4639791,6.72904958 25.7435588,0 16.2319895,0 Z M16.2319895,29.1835122 C11.0060152,29.1835122 6.29462397,26.0319381 4.29473017,21.1983639 C2.29483638,16.3647898 3.40028488,10.8011053 7.09560676,7.1016478 C10.7909287,3.4021903 16.3483935,2.29550465 21.1765643,4.29763661 C26.004735,6.29976858 29.152786,11.0164326 29.152786,16.2482555 C29.152786,23.3922005 23.3679484,29.1835122 16.2319895,29.1835122 L16.2319895,29.1835122 Z" id="Path_79-2"></path>
                    </g>
                </g>
                <g id="Group_80-2" transform="translate(62.868852, 94.836066)">
                    <g id="Group_79-2">
                        <polygon id="Rectangle_15-2" points="0 0 3.64065089 0 3.64065089 6.61020636 0 6.61020636"></polygon>
                    </g>
                </g>
                <g id="Group_82-2" transform="translate(35.163934, 24.508197)">
                    <g id="Group_81-2">
                        <path d="M3.75843471,28.0193697 C2.83952558,18.2848379 7.45352813,8.19875777 15.6878292,2.99028262 L14.0501811,1.42108547e-14 C4.44782985,6.08043467 -0.929792607,17.0766495 0.145888739,28.4316326 C1.22157008,39.7866157 8.5672518,49.5654005 19.1387628,53.7154981 C24.441361,55.7573579 27.9429642,60.8728852 27.9444823,66.579862 L31.5816031,66.579862 C31.5877474,59.0906787 26.9940702,53.0358831 20.0344822,50.3591686 C10.9725271,46.7998297 4.67734384,37.7539015 3.75843471,28.0193697 Z" id="Path_80-2"></path>
                    </g>
                </g>
                <g id="Group_84-2" transform="translate(105.846995, 80.273224)">
                    <g id="Group_83-2">
                        <polygon id="Rectangle_16-2" points="0 0 15.1582741 0 15.1582741 3.24833415 0 3.24833415"></polygon>
                    </g>
                </g>
                <g id="Group_86-2" transform="translate(102.650273, 90.928962)">
                    <g id="Group_85-2">
                        <polygon id="Rectangle_17-2" transform="translate(7.894809, 7.037387) rotate(-50.201000) translate(-7.894809, -7.037387) " points="6.1719418 -1.37041344 9.55931006 -1.44417832 9.61767555 15.4451868 6.23030728 15.5189516"></polygon>
                    </g>
                </g>
                <g id="Group_88-2" transform="translate(93.060109, 97.322404)">
                    <g id="Group_87-2">
                        <polygon id="Rectangle_18-2" points="0 0 3.30968263 0 3.30968263 15.1752385 0 15.1752385"></polygon>
                    </g>
                </g>
                <g id="Group_90-2" transform="translate(2.131148, 32.677596)">
                    <g id="Group_89-2">
                        <polygon id="Rectangle_19-2" transform="translate(8.592744, 3.683178) rotate(-14.035000) translate(-8.592744, -3.683178) " points="0.256483036 2.02923542 16.9204196 2.07443394 16.9290047 5.33712091 0.265068079 5.29192239"></polygon>
                    </g>
                </g>
                <g id="Group_92-2" transform="translate(5.327869, 11.721311)">
                    <g id="Group_91-2">
                        <polygon id="Rectangle_20-2" transform="translate(8.562697, 6.805402) rotate(-54.463000) translate(-8.562697, -6.805402) " points="6.93789609 -2.40753463 10.2468318 -2.41908061 10.1874975 16.0183381 6.87856178 16.0298841"></polygon>
                    </g>
                </g>
                <g id="Group_94-2" transform="translate(23.797814, 0.000000)">
                    <g id="Group_93-2">
                        <polygon id="Rectangle_21-2" transform="translate(4.081153, 9.147252) rotate(-14.342000) translate(-4.081153, -9.147252) " points="2.45976765 0.266548382 5.74556935 0.258050832 5.70253885 18.0279553 2.41673715 18.0364528"></polygon>
                    </g>
                </g>
            </g>
        </g>
    </g>
</svg>
