<?xml version="1.0" encoding="UTF-8"?>
<svg width="73px" height="87px" viewBox="0 0 73 87" version="1.1" xmlns="http://www.w3.org/2000/svg" xmlns:xlink="http://www.w3.org/1999/xlink">
    <!-- Generator: Sketch 53.1 (72631) - https://sketchapp.com -->
    <title>Combined Shape</title>
    <desc>Created with Sketch.</desc>
    <g id="Page-1" stroke="none" stroke-width="1" fill="none" fill-rule="evenodd">
        <g id="Artboard" transform="translate(-448.000000, -1162.000000)" fill="#0045FF">
            <path d="M517.14394,1220.098 C514.839839,1226.43556 511.355237,1231.94607 506.785622,1236.47489 C501.584226,1241.62963 494.773295,1245.72568 486.54184,1248.64754 C486.271731,1248.74313 485.98985,1248.82145 485.706661,1248.8792 C485.332563,1248.9542 484.951925,1248.99469 484.574558,1249 L484.500654,1249 C484.098433,1249 483.694251,1248.95885 483.293339,1248.8792 C483.010149,1248.82145 482.732192,1248.74313 482.463391,1248.64954 C474.222126,1245.73232 467.402693,1241.63826 462.196065,1236.48352 C457.624487,1231.9547 454.14054,1226.44751 451.839709,1220.10995 C447.655963,1208.58711 447.894026,1195.89341 448.085653,1185.69278 L448.088923,1185.53614 C448.12751,1184.69383 448.152362,1183.80904 448.166097,1182.83199 C448.236076,1178.03501 451.994057,1174.0664 456.72129,1173.79891 C466.577323,1173.24069 474.201851,1169.97832 480.716512,1163.5339 L480.773412,1163.4808 C481.855156,1162.47388 483.218127,1161.98004 484.574558,1162.00062 C485.882591,1162.01788 487.185393,1162.51105 488.228549,1163.4808 L488.284141,1163.5339 C494.80011,1169.97832 502.424638,1173.24069 512.280671,1173.79891 C517.007904,1174.0664 520.765885,1178.03501 520.835865,1182.83199 C520.849599,1183.81568 520.874452,1184.69914 520.913039,1185.53614 L520.915001,1185.60251 C521.105974,1195.82239 521.342728,1208.54131 517.14394,1220.098 Z M501.901377,1209.39092 C501.372655,1202.33574 498.741158,1197.91455 495.913732,1194.01308 C493.295631,1190.40118 489.433984,1185.73109 489.433984,1181.13001 C489.433984,1180.76043 489.351661,1181.27407 489.059669,1181.49157 C484.813301,1184.60583 482.568386,1190.24245 481.330734,1195.25062 C480.471526,1198.73732 480.509015,1204.28566 480.493058,1206.87447 C479.770334,1206.71626 478.238055,1207.2603 476.755701,1206.53311 C475.248369,1205.79368 473.792658,1203.77936 473.29223,1203.18791 C471.614486,1201.20501 471.118386,1198.35116 471.112495,1198.31 C471.068323,1197.99817 470.882436,1197.7268 470.611989,1197.5786 C470.338748,1197.43234 470.017548,1197.42171 469.740521,1197.56225 C469.590251,1197.63679 468.100002,1199.00343 467.507327,1203.66291 C467.288989,1205.37943 467.114636,1206.37956 467.038794,1209.08988 C467.019052,1209.42481 466.975366,1210.9292 467.01815,1211.25988 C467.507327,1215.04079 468.823161,1218.77742 470.989828,1221.82572 C473.845802,1225.84382 478.32656,1228.9985 483.753242,1228.9985 C483.766404,1228.99942 483.780467,1229.00136 483.791736,1228.9985 C483.795522,1228.9985 483.799218,1228.9985 483.803906,1228.9985 C493.324068,1228.9705 502,1221.02325 502,1211.25988 C502,1210.932 501.967126,1210.30901 501.901377,1209.39092 Z M483.753242,1227.02753 C480.571712,1227.02753 477.983721,1224.202 477.983721,1220.72878 C477.983721,1220.61043 477.982819,1220.49105 477.991203,1220.34479 C478.029697,1218.88006 478.301135,1217.88016 478.598806,1217.2151 C479.156646,1218.44312 480.153872,1219.572 481.773756,1219.572 C482.305273,1219.572 482.735373,1219.13118 482.735373,1218.58652 C482.735373,1217.18341 482.763589,1215.56465 483.104442,1214.1037 C483.407792,1212.80833 484.132679,1211.43016 485.051114,1210.3254 C485.459579,1211.75937 486.255953,1212.91994 487.033486,1214.0527 C488.146283,1215.67331 489.296581,1217.34889 489.498514,1220.2062 C489.510684,1220.37556 489.522945,1220.54594 489.522945,1220.72878 C489.522764,1224.20191 486.934773,1227.02753 483.753242,1227.02753 Z" id="Combined-Shape"></path>
        </g>
    </g>
</svg>