<svg xmlns="http://www.w3.org/2000/svg" width="57.456" height="60.708" viewBox="0 0 57.456 60.708">
    <defs>
        <style>
            .cls-1{fill:#0045ff;stroke:#2979ff;stroke-width:.5px;fill-rule:evenodd}
        </style>
    </defs>
    <g id="Group_2428" data-name="Group 2428" transform="translate(-1458.423 -557.641)">
        <path id="Combined-Shape" d="M55.871 17.086L30.64 28.891a3.551 3.551 0 0 1-3.037-.025L2.429 16.553l-.079.038a1.879 1.879 0 0 0-.8.725 1.7 1.7 0 0 0 .8 2.411l25.87 12.654a2.13 2.13 0 0 0 1.822.015l25.889-12.112a1.888 1.888 0 0 0 .814-.715 1.7 1.7 0 0 0-.755-2.423z" class="cls-1" transform="translate(1457.871 585.49)"/>
        <path id="Combined-Shape-2" d="M56.156 14.457l-25.648 11.96a3.551 3.551 0 0 1-3.029-.025l-25.436-12.4a1.829 1.829 0 0 0-.489.54 1.7 1.7 0 0 0 .8 2.41l25.866 12.61a2.131 2.131 0 0 0 1.818.015L55.921 17.5a1.888 1.888 0 0 0 .818-.719 1.684 1.684 0 0 0-.583-2.324z" class="cls-1" data-name="Combined-Shape" transform="translate(1457.874 581.972)"/>
        <path id="Combined-Shape-3" d="M56.156 12.12L30.508 24.08a3.551 3.551 0 0 1-3.029-.025l-25.436-12.4a1.829 1.829 0 0 0-.489.54 1.7 1.7 0 0 0 .8 2.41l25.866 12.61a2.131 2.131 0 0 0 1.818.015l25.883-12.07a1.887 1.887 0 0 0 .818-.719 1.684 1.684 0 0 0-.583-2.321z" class="cls-1" data-name="Combined-Shape" transform="translate(1457.874 578.761)"/>
        <path id="Rectangle-Copy-6" d="M10.678 9.033a2.12 2.12 0 0 0-1.339 1.32L.105 37.415a1.876 1.876 0 0 0-.05 1.072 1.7 1.7 0 0 0 2.266 1.145l27.117-9.253a2.121 2.121 0 0 0 1.3-1.277l9.647-26.746a1.885 1.885 0 0 0 .068-1.077A1.7 1.7 0 0 0 38.208.1z" class="cls-1" transform="rotate(45 69.875 2073.824)"/>
    </g>
</svg>
