<?xml version="1.0" encoding="UTF-8"?>
<svg width="605px" height="504px" viewBox="0 0 605 504" version="1.1" xmlns="http://www.w3.org/2000/svg" xmlns:xlink="http://www.w3.org/1999/xlink">
    <!-- Generator: Sketch 53.1 (72631) - https://sketchapp.com -->
    <title>Group</title>
    <desc>Created with Sketch.</desc>
    <g id="Page-1" stroke="none" stroke-width="1" fill="none" fill-rule="evenodd">
        <g id="Artboard" transform="translate(-1111.000000, -1005.000000)" fill="#0045FF">
            <g id="Group" transform="translate(1090.000000, 1003.000000)">
                <path d="M612.905798,336.781838 L339.587039,464.839243 C329.133458,469.686458 317.060739,469.58694 306.688261,464.56805 L33.9869645,331 L33.1311846,331.412214 C29.5363843,333.12835 26.5232751,335.862779 24.4650593,339.276815 C21.8373844,343.836922 21.2813653,349.304276 22.9371077,354.301212 C24.5928502,359.298147 28.3024585,363.348144 33.1311846,365.430682 L313.37201,502.697806 C319.594681,505.709377 326.83777,505.769091 333.109111,502.860522 L613.555757,371.472865 C617.188585,369.80567 620.254087,367.109253 622.37354,363.716741 C625.07605,359.208518 625.728251,353.759439 624.166183,348.739366 C622.604116,343.719293 618.976351,339.605695 614.194884,337.432701 L612.905798,336.781838 Z" id="Combined-Shape" stroke="#2979FF" stroke-width="0.5"></path>
                <path d="M616.033683,270.041792 L338.156115,399.718854 C327.725311,404.536424 315.689011,404.437006 305.339086,399.44779 L29.7583857,265 C27.6179513,266.576382 25.8162301,268.567535 24.4604236,270.854984 C21.836179,275.412014 21.2822073,280.873925 22.9379672,285.865716 C24.5937271,290.857508 28.3014885,294.903654 33.1278462,296.985563 L313.367287,433.710291 C319.579192,436.705254 326.803564,436.764907 333.064004,433.872929 L613.487628,303.035713 C617.142817,301.364725 620.225228,298.653296 622.350067,295.23991 C624.881549,291.067702 625.638382,286.054824 624.451605,281.320383 C623.264828,276.585942 620.233258,272.524152 616.033683,270.041792 Z" id="Combined-Shape-2" stroke="#2979FF" stroke-width="0.5"></path>
                <path d="M616.047972,210.041792 L338.16372,339.718854 C327.732665,344.536424 315.696076,344.437006 305.345902,339.44779 L29.7585723,205 C27.6180865,206.576382 25.8163219,208.567535 24.4604828,210.854984 C21.8361751,215.412014 21.28219,220.873925 22.9379897,225.865716 C24.5937895,230.857508 28.3016401,234.903654 33.1281139,236.985563 L313.374295,373.710291 C319.58635,376.705254 326.810896,376.764907 333.071487,373.872929 L613.501856,243.003186 C617.157485,241.332742 620.240113,238.621188 622.364508,235.207382 C624.885632,231.037948 625.636593,226.032935 624.450238,221.306399 C623.263882,216.579863 620.238668,212.524071 616.047972,210.041792 Z" id="Combined-Shape-3" stroke="#2979FF" stroke-width="0.5"></path>
                <path d="M317.217499,312.9831 L36.9402598,176.432668 C27.0103632,171.594845 22.8824219,159.623243 27.7202449,149.693346 C29.6796285,145.671604 32.9308205,142.422907 36.9540655,140.466612 L316.898262,4.3442659 C322.526391,1.60759861 329.111051,1.66315503 334.692202,4.49439783 L613.532059,145.946101 C623.382752,150.943224 627.317346,162.979757 622.320223,172.830449 C620.308197,176.7967 617.031573,179.979176 613.008366,181.874748 L334.501551,313.095823 C329.020549,315.678248 322.664352,315.636794 317.217499,312.9831 Z" id="Path-30"></path>
            </g>
        </g>
    </g>
</svg>