<?xml version="1.0" encoding="UTF-8"?>
<svg width="146px" height="130px" viewBox="0 0 146 130" version="1.1" xmlns="http://www.w3.org/2000/svg" xmlns:xlink="http://www.w3.org/1999/xlink">
    <!-- Generator: Sketch 53.1 (72631) - https://sketchapp.com -->
    <title>Combined Shape</title>
    <desc>Created with Sketch.</desc>
    <g id="Page-1" stroke="none" stroke-width="1" fill="none" fill-rule="evenodd">
        <g id="Artboard" transform="translate(-604.000000, -834.000000)" fill="#0045FF" fill-rule="nonzero">
            <path d="M635.904012,867.522013 C635.640682,868.533906 635.940015,869.648746 636.758785,870.393701 C640.378069,873.671214 641.546703,878.885051 639.66644,883.368317 C637.87131,887.642627 633.432822,890.397362 628.351585,890.397362 C627.370901,890.365832 626.558041,890.744543 626.022346,891.372052 L626.022346,867.522013 L635.904012,867.522013 Z M668.755168,867.522013 L683.932961,867.522013 L683.932961,876.503664 C681.919925,875.954548 679.801281,875.661417 677.614173,875.661417 C665.28391,875.661417 655.129693,884.978179 653.80725,896.955975 L644.457278,896.955975 C645.519185,882.805047 655.477171,871.135037 668.755168,867.522013 Z M639.058429,863.433962 L604,863.433962 L604,834 L650.899441,834 L650.899441,860.229662 C650.117365,859.727718 649.402796,859.133732 648.78527,858.454579 C647.762908,857.333956 646.052136,857.1962 644.861058,858.124506 C642.793901,859.746314 640.850847,861.524224 639.058429,863.433962 Z M650.899441,919.221197 C647.086374,914.100673 644.718631,907.840289 644.400195,901.044025 L650.858659,901.044025 C650.858659,901.044025 650.899441,901.289308 650.899441,901.41195 L650.899441,919.221197 Z M635.780393,930.477987 L604,930.477987 L604,901.044025 L625.042221,901.044025 C625.092266,902.289734 625.186763,903.534887 625.325519,904.775852 C625.488818,906.243961 627.245252,907.332854 628.735454,907.332854 C633.263718,907.217154 637.611269,910.020646 639.435035,914.458638 C641.252997,918.890825 640.084362,924.05668 636.52738,927.317167 C635.635096,928.136807 635.3676,929.397771 635.780393,930.477987 Z M689.085352,930.477987 L665.851585,930.477987 C663.440288,929.574248 661.162487,928.397315 659.055866,926.984875 L659.055866,914.758775 C663.448286,920.13484 670.130426,923.566929 677.614173,923.566929 C690.362869,923.566929 700.785322,913.607103 701.524957,901.044025 L710.536742,901.044025 C709.903689,914.555062 701.171401,925.948208 689.085352,930.477987 Z M716.96648,910.817832 L716.96648,927.349855 C713.562624,924.061299 712.494652,918.998796 714.326687,914.633542 C714.937453,913.176323 715.847399,911.884536 716.96648,910.817832 Z M714.933819,863.433962 C713.252693,861.634448 711.451591,859.963933 709.549991,858.440648 C708.364717,857.489512 706.625697,857.621851 705.597918,858.759886 C702.498329,862.192568 696.930677,863.46836 692.6284,861.673274 C688.151216,859.789962 685.327919,855.253296 685.604212,850.383462 C685.695149,848.853828 684.577207,847.523862 683.052178,847.346249 C679.167824,846.896994 675.249417,846.883064 671.353453,847.315293 C669.845838,847.481684 668.727896,848.780306 668.778588,850.290593 C668.948079,855.112445 666.09073,859.569784 661.658046,861.385379 C660.829991,861.723603 659.953449,861.94794 659.055866,862.064778 L659.055866,834 L716.96648,834 L716.96648,863.025157 C716.96648,863.188679 717.048045,863.311321 717.129609,863.433962 L714.933819,863.433962 Z M718.220986,867.522013 L750,867.522013 L750,896.955975 L728.957801,896.955975 C728.907768,895.711014 728.813286,894.46659 728.674574,893.226007 C728.510114,891.764089 726.805533,890.665523 725.331583,890.665523 C720.56611,890.665523 716.337357,887.867448 714.563896,883.540125 C712.752126,879.107938 713.920373,873.938987 717.471938,870.681209 C718.367446,869.862594 718.632775,868.602021 718.220986,867.522013 Z M710.479659,896.955975 L701.421096,896.955975 C700.681982,890.261573 697.184083,884.3984 692.089385,880.528438 L692.089385,869.758757 C702.329899,874.807968 709.582155,884.995872 710.479659,896.955975 Z M728.961957,901.044025 L750,901.044025 L750,930.477987 L725.122905,930.477987 L725.122905,907.588467 L725.607876,907.601014 C727.098852,907.722131 728.470643,906.573647 728.651356,905.051751 C728.807143,903.722198 728.910585,902.384905 728.961957,901.044025 Z M639.065149,934.566038 C640.737102,936.356661 642.535434,938.027117 644.437718,939.558115 C645.629183,940.518151 647.362786,940.382717 648.395596,939.244681 C651.506794,935.803486 657.074059,934.530016 661.359309,936.328585 C665.847716,938.206093 668.671012,942.742371 668.394719,947.614914 C668.304556,949.145323 669.427916,950.47761 670.946753,950.652514 C672.933818,950.8843 674.932879,951 676.937358,951 C678.840065,951 680.743158,950.895522 682.645865,950.683857 C683.122016,950.63132 683.559201,950.465901 683.932961,950.216495 L683.932961,964 L626.022346,964 L626.022346,934.566038 L639.065149,934.566038 Z M714.938498,934.566038 L750,934.566038 L750,964 L692.089385,964 L692.089385,936.720869 C692.170735,936.685294 692.252637,936.650622 692.335081,936.616867 C696.614526,934.868989 702.119877,936.148264 705.213662,939.546893 C706.241828,940.665194 707.940604,940.800242 709.13826,939.875031 C711.203131,938.255847 713.143711,936.478789 714.938498,934.566038 Z M604,867.522013 L617.865922,867.522013 L617.865922,896.955975 L604,896.955975 L604,867.522013 Z M604,934.566038 L617.865922,934.566038 L617.865922,964 L604,964 L604,934.566038 Z M725.122905,834 L750,834 L750,863.433962 L725.245251,863.433962 C725.204469,863.311321 725.163687,863.147799 725.122905,863.025157 L725.122905,834 Z" id="Combined-Shape"></path>
        </g>
    </g>
</svg>