<svg xmlns="http://www.w3.org/2000/svg" width="51.207" height="60.134" viewBox="0 0 51.207 60.134">
    <defs>
        <style>
            .cls-1{fill:#0045ff}.cls-2{clip-path:url(#clip-path)}.cls-3{clip-path:url(#clip-path-2)}
        </style>
        <clipPath id="clip-path">
            <path id="Path_1346" d="M137.9-358.543a11.47 11.47 0 0 0-11.458 11.457 11.47 11.47 0 0 0 11.458 11.458 11.47 11.47 0 0 0 11.457-11.458 11.47 11.47 0 0 0-11.457-11.457zm6.8 9.3l-8.208 8.208a1.76 1.76 0 0 1-1.248.517 1.757 1.757 0 0 1-1.247-.517l-3.137-3.137a1.764 1.764 0 0 1 0-2.495 1.764 1.764 0 0 1 2.495 0l1.889 1.889 6.961-6.961a1.764 1.764 0 0 1 2.495 0 1.764 1.764 0 0 1 0 2.496z" class="cls-1" data-name="Path 1346" transform="translate(-126.441 358.543)"/>
        </clipPath>
        <clipPath id="clip-path-2">
            <path id="Path_1349" d="M57.147-500.685v-.047a61.433 61.433 0 0 1-.054-1.869 6.373 6.373 0 0 0-6-6.244c-6.914-.386-12.262-2.64-16.832-7.095l-.039-.037a3.848 3.848 0 0 0-5.23 0l-.039.037c-4.57 4.454-9.918 6.709-16.832 7.1a6.373 6.373 0 0 0-6 6.244c-.01.675-.028 1.286-.054 1.868v.109c-.134 7.05-.3 15.824 2.634 23.788a30.281 30.281 0 0 0 7.265 11.316 38 38 0 0 0 14.217 8.409 4.4 4.4 0 0 0 .583.159 4.322 4.322 0 0 0 .846.084 4.318 4.318 0 0 0 .846-.084 4.395 4.395 0 0 0 .585-.16 38.028 38.028 0 0 0 14.2-8.414 30.326 30.326 0 0 0 7.257-11.322c2.948-7.988 2.781-16.779 2.647-23.842zM31.6-471.947a15 15 0 0 1-14.986-14.986A15 15 0 0 1 31.6-501.919a15 15 0 0 1 14.986 14.986A15 15 0 0 1 31.6-471.947z" class="cls-1" data-name="Path 1349" transform="translate(-6 517.001)"/>
        </clipPath>
    </defs>
    <g id="Group_2420" data-name="Group 2420" transform="translate(-6 517.001)">
        <g id="Group_2416" class="cls-2" data-name="Group 2416" transform="translate(20.146 -498.39)">
            <path id="Path_1345" d="M121.441-363.543h24.089v24.089h-24.089z" class="cls-1" data-name="Path 1345" transform="translate(-122.029 362.955)"/>
        </g>
        <g id="Group_2417" data-name="Group 2417" transform="translate(20.146 -498.39)">
            <path id="Path_1347" d="M11.458 0a11.457 11.457 0 1 0 11.457 11.457A11.47 11.47 0 0 0 11.458 0zm6.8 9.3l-8.208 8.208a1.764 1.764 0 0 1-2.5 0l-3.13-3.137a1.764 1.764 0 0 1 2.495-2.495L8.8 13.765 15.765 6.8a1.764 1.764 0 1 1 2.495 2.5z" class="cls-1" data-name="Path 1347"/>
        </g>
        <g id="Group_2418" class="cls-3" data-name="Group 2418" transform="translate(6 -517.001)">
            <path id="Path_1348" d="M1-522h52.382v61.308H1z" class="cls-1" data-name="Path 1348" transform="translate(-1.587 521.413)"/>
        </g>
        <g id="Group_2419" data-name="Group 2419" transform="translate(6 -517.001)">
            <path id="Path_1350" d="M51.147 16.316v-.047a61.433 61.433 0 0 1-.054-1.869 6.373 6.373 0 0 0-6-6.244c-6.914-.386-12.262-2.64-16.832-7.095l-.039-.037a3.848 3.848 0 0 0-5.23 0l-.039.037c-4.57 4.454-9.918 6.709-16.832 7.1a6.373 6.373 0 0 0-6 6.244c-.01.675-.028 1.286-.054 1.868v.109c-.134 7.05-.3 15.824 2.634 23.788a30.281 30.281 0 0 0 7.258 11.312 38 38 0 0 0 14.217 8.409 4.4 4.4 0 0 0 .583.159 4.3 4.3 0 0 0 1.692 0 4.4 4.4 0 0 0 .585-.16 38.027 38.027 0 0 0 14.2-8.414A30.326 30.326 0 0 0 48.5 40.158c2.948-7.988 2.781-16.779 2.647-23.842zM25.6 45.054a14.986 14.986 0 1 1 14.989-14.986A15 15 0 0 1 25.6 45.054z" class="cls-1" data-name="Path 1350"/>
        </g>
    </g>
</svg>
