<svg xmlns="http://www.w3.org/2000/svg" xmlns:xlink="http://www.w3.org/1999/xlink" width="35.58" height="35.566" viewBox="0 0 35.58 35.566">
  <defs>
    <style>
      .cls-1 {
        fill: url(#linear-gradient);
      }
    </style>
    <linearGradient id="linear-gradient" y1="0.5" x2="1" y2="0.5" gradientUnits="objectBoundingBox">
      <stop offset="0" stop-color="#1b005f"/>
      <stop offset="1" stop-color="#26c6ec"/>
    </linearGradient>
  </defs>
  <g id="fandogh_logo" data-name="fandogh logo" transform="translate(-135 -0.006)">
    <path id="Path_1" data-name="Path 1" class="cls-1" d="M31.845,7.55a3.689,3.689,0,0,0-.317-1.495,5.3,5.3,0,0,0,.781-.4A5.03,5.03,0,0,0,34.674,1.1a1.006,1.006,0,0,0-2.012,0A3.069,3.069,0,0,1,31.3,3.916a3.825,3.825,0,0,1-1.177.5,3.735,3.735,0,0,0-2.031-.6,3.774,3.774,0,0,0-1.86.492C21.38-.143,16.532-.222,13.257.538A16.6,16.6,0,0,0,7.806,2.932a3.778,3.778,0,0,0-.762.559h0a3.714,3.714,0,0,0-.671,4.551,23,23,0,0,0-4.586,7.183A23.427,23.427,0,0,0,.183,22.6a24.479,24.479,0,0,0,.579,6.958A3.684,3.684,0,0,0,0,31.808,3.751,3.751,0,0,0,5.7,35a24.184,24.184,0,0,0,5.769.668c.463,0,.945-.012,1.439-.043a23.658,23.658,0,0,0,7.4-1.6,22.949,22.949,0,0,0,7.214-4.582,3.768,3.768,0,0,0,1.854.492A3.729,3.729,0,0,0,32.241,28.6l.012.006a16.047,16.047,0,0,0,2.964-6.192c.762-3.281.683-8.155-3.872-13.022A3.621,3.621,0,0,0,31.845,7.55Zm-3.75-1.732A1.732,1.732,0,1,1,26.356,7.55,1.738,1.738,0,0,1,28.094,5.818ZM9.635,4.463A1.732,1.732,0,1,1,7.9,6.195,1.7,1.7,0,0,1,8.385,5c.073-.055.232-.182.482-.352A1.611,1.611,0,0,1,9.635,4.463ZM3.75,33.54a1.732,1.732,0,1,1,1.738-1.732A1.738,1.738,0,0,1,3.75,33.54Zm15.861-1.4a21.684,21.684,0,0,1-6.738,1.477A23.657,23.657,0,0,1,7.2,33.266,3.678,3.678,0,0,0,7.5,31.8a3.748,3.748,0,0,0-4.958-3.537,23.27,23.27,0,0,1-.354-5.56,21.445,21.445,0,0,1,1.47-6.745A20.829,20.829,0,0,1,7.812,9.452,3.746,3.746,0,0,0,11.544,9.4a27.317,27.317,0,0,1,5.653,3.2,27.157,27.157,0,0,1,5.055,4.776A24.8,24.8,0,0,1,26.2,24.218a3.7,3.7,0,0,0-.567,1.975,3.653,3.653,0,0,0,.476,1.817A20.813,20.813,0,0,1,19.612,32.142Zm9.769-4.211A1.732,1.732,0,1,1,31.119,26.2,1.738,1.738,0,0,1,29.381,27.931Zm3.9-6.034a13.665,13.665,0,0,1-.744,2.291,3.754,3.754,0,0,0-3.153-1.72,3.821,3.821,0,0,0-1.579.346,26.721,26.721,0,0,0-4.019-6.721,29.055,29.055,0,0,0-5.458-5.141A29.437,29.437,0,0,0,13,7.854a3.687,3.687,0,0,0,.39-1.653,3.73,3.73,0,0,0-1.634-3.087A13.791,13.791,0,0,1,13.715,2.5a11.325,11.325,0,0,1,5.433.03,13.421,13.421,0,0,1,5.665,3.208,3.687,3.687,0,0,0-.476,1.817,3.749,3.749,0,0,0,3.75,3.737,3.793,3.793,0,0,0,1.829-.474C33.052,14.18,34.18,17.9,33.278,21.9Z" transform="translate(135 -0.094)"/>
  </g>
</svg>
