<?xml version="1.0" encoding="UTF-8"?>
<svg width="77px" height="77px" viewBox="0 0 77 77" version="1.1" xmlns="http://www.w3.org/2000/svg" xmlns:xlink="http://www.w3.org/1999/xlink">
    <!-- Generator: Sketch 53.1 (72631) - https://sketchapp.com -->
    <title>Group 76</title>
    <desc>Created with Sketch.</desc>
    <g id="Page-1" stroke="none" stroke-width="1" fill="none" fill-rule="evenodd">
        <g id="Group-76">
            <g id="Ellipse_243">
                <circle id="Oval" fill="#1757FF" fill-rule="nonzero" cx="38.438" cy="38.438" r="38.438"></circle>
                <circle id="Oval" stroke="#1757FF" stroke-width="2" cx="38.438" cy="38.438" r="37.438"></circle>
            </g>
            <g id="rabbitmq" transform="translate(23.000000, 22.000000)" fill="#FEFEFE" fill-rule="nonzero">
                <path d="M30.68,13.1657143 L20.04375,13.1657143 C19.5098942,13.1655131 19.0771509,12.7447399 19.076875,12.225584 L19.076875,1.445812 C19.076875,0.64753998 18.41125,0 17.59075,0 L13.793875,0 C12.972875,0 12.307625,0.64753998 12.307625,1.445812 L12.307625,12.1603073 C12.307625,12.7161924 11.8455,13.1680239 11.273875,13.1704551 L7.78825,13.1866223 C7.21175,13.1896612 6.743375,12.7347908 6.7445,12.1746511 L6.766125,1.44824316 C6.768,0.64875556 6.102125,0 5.28,0 L1.48625,0 C0.665125,0 0,0.64753998 0,1.445812 L0,31.6306322 C0,32.3398022 0.59075,32.9142857 1.319375,32.9142857 L30.68,32.9142857 C31.40925,32.9142857 32,32.3398022 32,31.6306322 L32,14.4493678 C32,13.7401978 31.40925,13.1657143 30.68,13.1657143 Z M25.6,24.8002896 C25.6,25.7468008 24.832624,26.5142857 23.8860946,26.5142857 L20.9140293,26.5142857 C19.967376,26.5142857 19.2,25.7468008 19.2,24.8002896 L19.2,21.8282818 C19.2,20.8816469 19.967376,20.1142857 20.9140293,20.1142857 L23.8860946,20.1142857 C24.832624,20.1142857 25.6,20.8816469 25.6,21.8282818 L25.6,24.8002896 L25.6,24.8002896 Z" id="Shape"></path>
            </g>
        </g>
    </g>
</svg>