<?xml version="1.0" encoding="UTF-8"?>
<svg width="77px" height="77px" viewBox="0 0 77 77" version="1.1" xmlns="http://www.w3.org/2000/svg" xmlns:xlink="http://www.w3.org/1999/xlink">
    <!-- Generator: Sketch 53.1 (72631) - https://sketchapp.com -->
    <title>Group 31</title>
    <desc>Created with Sketch.</desc>
    <defs>
        <linearGradient x1="25.8951071%" y1="76.8255795%" x2="38.3411716%" y2="69.9795157%" id="linearGradient-1">
            <stop stop-color="#B8CFE9" offset="0%"></stop>
            <stop stop-color="#EDEDEE" offset="100%"></stop>
        </linearGradient>
        <linearGradient x1="0.167947727%" y1="49.8457052%" x2="18.5944843%" y2="49.8457052%" id="linearGradient-2">
            <stop stop-color="#939FAB" offset="0%"></stop>
            <stop stop-color="#DCDEE1" offset="100%"></stop>
        </linearGradient>
    </defs>
    <g id="Page-1" stroke="none" stroke-width="1" fill="none" fill-rule="evenodd">
        <g id="Group-31">
            <g id="Ellipse_243">
                <circle id="Oval" fill="#1757FF" fill-rule="nonzero" cx="38.438" cy="38.438" r="38.438"></circle>
                <circle id="Oval" stroke="#1757FF" stroke-width="2" cx="38.438" cy="38.438" r="37.438"></circle>
            </g>
            <g id="microsoft-sql-server" transform="translate(16.000000, 13.000000)" fill-rule="nonzero">
                <g id="Group">
                    <path d="M29.0233684,23.6773926 L18.9519166,26.9920754 L10.189894,30.8897812 L7.73858899,31.5420466 C7.11429238,32.1405669 6.45970067,32.746765 5.75171518,33.3605703 C4.975241,34.0357277 4.2520553,34.6496391 3.69624737,35.0945666 C3.07967372,35.5856674 2.16615198,36.5063753 1.70182611,37.0893983 C1.00904081,37.9640743 0.460955849,38.89246 0.224948982,39.606113 C-0.193776276,40.8951819 0.0118652865,42.1995004 0.818774976,43.4042188 C1.85407388,44.9386965 3.91712424,46.5038858 6.322618,47.5704025 C7.54832316,48.1152838 9.61130331,48.8134395 11.1642166,49.2046926 C13.7448111,49.8646005 18.7387276,50.5781827 21.4868052,50.6856729 C22.0424376,50.7086711 22.7885465,50.7086711 22.8189118,50.6856729 C22.8798881,50.6471774 23.3061959,49.8262819 23.8010977,48.8058678 C25.4910936,45.3300204 26.7090758,42.0690827 27.3713203,39.2839254 C27.7671575,37.5959964 28.0792356,35.3478302 28.2847016,32.6854836 C28.3380954,31.9411899 28.3608431,29.4475441 28.3151722,28.6034734 C28.2466133,27.2224116 28.1248011,26.1022559 27.9346406,25.0050277 C27.9041699,24.8438632 27.896447,24.6980543 27.9117525,24.6904119 C27.9421178,24.6674136 28.0334594,24.6367375 29.2743297,24.276019 L29.0232279,23.6776403 L29.0232279,23.6774634 L29.0233684,23.6774634 L29.0233684,23.6773926 Z M26.7243813,25.0355623 C26.815723,25.0355623 27.0592422,27.3910417 27.1201132,28.8796646 C27.1354187,29.1942097 27.1276958,29.4013707 27.1125307,29.4013707 C27.0516947,29.4013707 25.8259896,28.6725389 24.9506965,28.1201212 C24.1893875,27.6366983 22.7430512,26.6698878 22.514697,26.4857604 C22.4384152,26.432086 22.4459977,26.4244435 23.0703295,26.2095339 C24.128376,25.8488507 26.6406574,25.0355623 26.7243813,25.0355623 L26.7243813,25.0355623 Z M21.5934874,26.7389533 C21.6620463,26.7389533 21.8370066,26.8385887 22.2557319,27.0995302 C23.8238805,28.0893036 25.9554897,29.2863088 26.8689764,29.6853459 C27.1505838,29.8080857 27.1809491,29.7619831 26.5340102,30.2070874 C25.1485098,31.1584714 23.4203554,32.0944996 21.3040517,33.0382765 C20.9311026,33.2070836 20.6190245,33.3374659 20.6114419,33.3374659 C20.5962768,33.3374659 20.6418072,33.1457667 20.7026431,32.9155367 C21.21271,31.0048786 21.5020405,29.0713991 21.517346,27.5214948 C21.5249286,26.7541675 21.5249286,26.7541675 21.5934874,26.7312754 C21.5781819,26.7389533 21.5857645,26.7389533 21.5934874,26.7389533 L21.5934874,26.7389533 Z M20.5353707,27.1455621 C20.5809011,27.1915232 20.5505358,28.9103053 20.4895945,29.3783017 C20.3525821,30.4985635 20.1394282,31.5420112 19.7893671,32.7160535 C19.705608,32.9997456 19.6293613,33.2377597 19.6143015,33.2530447 C19.5836905,33.2913633 18.5407739,32.2632359 18.1982252,31.8642696 C17.6043992,31.1736856 17.1401435,30.483137 16.7975597,29.8079795 C16.622459,29.4626875 16.3484691,28.7875655 16.3712519,28.7644965 C16.4930291,28.6801106 20.5049001,27.1149214 20.5353707,27.1455621 Z M15.5566543,29.1174309 C15.5642369,29.1174309 15.5718194,29.1174309 15.5795424,29.1250734 C15.5947075,29.1404292 15.6481013,29.2632398 15.6937721,29.4012999 C15.9372913,30.0688503 16.4853061,31.0509458 16.9574251,31.6801422 C17.4750746,32.3707262 18.1526597,33.1072358 18.7158395,33.5906234 C18.8986281,33.7440747 19.0660059,33.8898128 19.0887886,33.9128818 C19.1345648,33.958949 19.149765,33.9512004 17.9088596,34.4269808 C16.4702463,34.9793985 14.9019573,35.5318161 13.1053493,36.1149099 C12.6761794,36.2543681 12.2474008,36.3950471 11.8190189,36.5369452 C11.7503898,36.5600142 11.7732779,36.5215895 11.9711965,36.2070798 C12.8618301,34.8029136 14.2168248,32.0484324 14.9781339,30.0995264 C15.1075638,29.7619123 15.2369586,29.4243689 15.2598467,29.3476256 C15.2903173,29.2401354 15.3283002,29.2018168 15.4272244,29.1480717 C15.4805129,29.1328574 15.5338716,29.1174309 15.5566543,29.1174309 Z M14.0342819,29.7542698 C14.0570647,29.7696963 13.66881,30.5905919 13.288173,31.3425281 C12.5497169,32.7926554 11.7428072,34.2198906 10.6618375,35.9538869 C10.4791542,36.2530762 10.3041237,36.5293735 10.2812356,36.5600496 C10.2432176,36.6137947 10.2279121,36.5983682 10.1061349,36.3605664 C9.84731017,35.8464674 9.63408606,35.1865595 9.51992656,34.5803968 C9.40569685,33.9818765 9.42858492,32.9384642 9.55804994,32.2939828 C9.65690392,31.8183085 9.64939158,31.8259864 9.87774569,31.7108537 C10.8521385,31.2121457 14.0038113,29.7235937 14.0342819,29.7542698 L14.0342819,29.7542698 Z M27.1658894,30.2914379 L27.1658894,30.6136609 C27.1658894,32.3246943 26.9832061,34.6725312 26.7166584,36.3836355 C26.6709876,36.6828248 26.632794,36.9282691 26.6253167,36.9360531 C26.6253167,36.9360531 26.4045803,36.8747363 26.1457555,36.7978868 C25.0039148,36.437239 23.7630445,35.9078196 22.6439514,35.2864426 C21.9054251,34.879763 20.8321433,34.2121419 20.862649,34.1814304 C20.8701262,34.1738233 21.1899273,34.0050163 21.5628764,33.8054977 C23.0551293,33.0229208 24.48616,32.1789209 25.7270303,31.3425988 C26.1914264,31.0279829 26.8916538,30.5216679 27.0440771,30.3835016 L27.1658894,30.2914379 Z M8.28667396,32.5624253 C8.31710947,32.5624253 8.30949182,32.6238129 8.26382099,32.9000394 C8.23335038,33.0995934 8.19533231,33.4678836 8.18020232,33.7209703 C8.11915577,34.8412322 8.30197947,35.6699471 8.85006444,36.8054585 C9.00231221,37.1200744 9.12419468,37.3809452 9.11647171,37.3885523 C9.06314813,37.4346549 4.0237363,38.9232423 2.44021201,39.3605272 C1.96826849,39.4909096 1.55726619,39.6060423 1.52665516,39.613614 C1.473472,39.6290405 1.46581924,39.621398 1.4886371,39.4908388 C1.66370273,38.3630406 2.51635345,36.8898443 3.70386502,35.6468073 C4.49560961,34.8181985 5.12748877,34.3348464 6.2084585,33.7132571 C6.98493267,33.2683297 8.18009701,32.6008854 8.27143865,32.5701032 C8.27150886,32.5624253 8.27909141,32.5624253 8.28667396,32.5624253 L8.28667396,32.5624253 Z M20.1623162,34.7031366 C20.1698988,34.6954941 20.3525821,34.7953064 20.5733185,34.9256888 C22.2024434,35.8771435 24.4709598,36.7595328 26.4044399,37.2121735 L26.5796459,37.2505982 L26.3359863,37.3885523 C25.3235754,37.9563964 21.9968721,39.3527786 18.5941326,40.634205 C18.0992308,40.8182616 17.612087,41.0024952 17.520605,41.0408138 C17.4292633,41.0791324 17.3455043,41.1022014 17.3455043,41.0945589 C17.3455043,41.0867749 17.482622,40.8182616 17.6575823,40.4883962 C18.6091573,38.6929769 19.56842,36.5062691 20.0555989,34.987041 C20.1166454,34.8412675 20.1545933,34.7108852 20.1623162,34.7031366 L20.1623162,34.7031366 Z M18.9519166,35.1021737 C18.9596396,35.1099931 18.8986632,35.2709807 18.8224867,35.4551082 C18.1602422,37.0740425 17.292286,38.8388918 16.1809159,40.8184032 C15.8993084,41.3248597 15.6632664,41.7315393 15.6555434,41.7315393 C15.6480662,41.7315393 15.4196068,41.5933376 15.1455818,41.4245659 C13.531622,40.4270793 12.1005211,39.1994688 11.1642517,38.0101769 L11.027169,37.8413699 L11.719849,37.6495292 C14.2015895,36.9667292 16.3101702,36.2301488 18.4037263,35.3247966 C18.7006744,35.201986 18.9443341,35.1021737 18.9519166,35.1021737 L18.9519166,35.1021737 Z M26.4731392,37.7492708 C26.4731392,37.7492708 26.4807568,37.7569486 26.4731392,37.7492708 C26.4807217,37.9257557 26.0924671,39.5063714 25.7727011,40.64949 C25.5062938,41.6085872 25.2777993,42.3605942 24.8592145,43.6878755 C24.6765312,44.2711462 24.5167711,44.7543922 24.5090481,44.7543922 C24.5014656,44.7543922 24.4557947,44.7467497 24.4101239,44.7315001 C22.1492252,44.3170365 20.1242631,43.7416206 18.2211132,42.9743994 C17.6881583,42.7594898 16.9269545,42.4141978 16.8812837,42.3758792 C16.8661186,42.3603819 17.322897,42.1456845 17.9014175,41.8924562 C21.3651333,40.3655856 24.958244,38.6315185 26.1914264,37.8873663 C26.3360214,37.7952672 26.4502511,37.7492708 26.4731392,37.7492708 L26.4731392,37.7492708 Z M9.10888916,38.347791 C9.12412447,38.363076 8.15731425,39.7672422 6.80221428,41.6777235 C6.33027076,42.3452738 5.78218579,43.1278507 5.57668465,43.4193976 C5.37111329,43.7109799 5.0590352,44.1713692 4.88393446,44.4475957 L4.56406319,44.946339 L4.22147937,44.6547922 C3.81798942,44.3171073 3.11772689,43.5959179 2.80561369,43.1969162 C2.15088156,42.3760207 1.70944376,41.5089872 1.53434302,40.7187677 C1.45058393,40.3504067 1.45058393,40.1661732 1.52662006,40.1432811 C1.64077956,40.112605 3.6733593,39.629182 5.57661444,39.1840777 C6.63476631,38.9386334 7.86029594,38.6470866 8.30183906,38.5396671 C8.74341728,38.4320707 9.10130661,38.347791 9.10888916,38.347791 L9.10888916,38.347791 Z M10.0832468,38.7237591 L10.326766,38.9999503 C11.4231115,40.235274 12.5421344,41.1484809 13.8971641,41.9462721 C14.1408238,42.0844738 14.3234719,42.2071429 14.3081664,42.2149623 C14.2550184,42.2532809 9.60361544,43.9181056 7.44929365,44.6700771 C6.23896422,45.0997196 5.24164828,45.4449762 5.23413593,45.4449762 C5.22655338,45.4449762 5.1579945,45.3990151 5.08174774,45.34527 L4.94480549,45.245493 L5.16554194,44.9233054 C5.88107488,43.879787 6.77950174,42.7365977 8.73590494,40.3580492 L10.0832468,38.7237591 Z M16.1581682,43.1048171 C16.1656454,43.09721 16.5006116,43.2198791 16.911649,43.3735073 C17.9014175,43.7494046 18.6853689,43.9872064 19.7360084,44.2557904 C21.0301672,44.5857621 22.9028113,44.9080204 24.0067042,45.0000488 C24.1741873,45.0153337 24.2655289,45.0307603 24.2350583,45.0537939 C24.1816645,45.0845054 23.0627469,45.4604735 22.2405668,45.7213442 C20.9311026,46.1355956 16.9345722,47.3248521 13.6764277,48.2686643 C13.0750191,48.4451139 12.5573346,48.5909227 12.5268991,48.5985298 C12.4508629,48.6139563 12.1995506,48.5447847 12.1995506,48.5141086 C12.1995506,48.498859 12.3822339,48.2610219 12.6030405,48.0001157 C13.6991753,46.6803707 14.787868,45.2072452 15.6937721,43.8107922 C15.944909,43.4270401 16.1581682,43.112495 16.1581682,43.1048171 Z M14.8182333,43.1432773 C14.8258159,43.1509197 14.2853837,44.0255604 13.3415317,45.5293974 C12.9379716,46.1662363 12.4888108,46.887461 12.3289103,47.1406893 C12.1766625,47.3862043 11.9483084,47.769921 11.8189487,47.9846892 L11.598142,48.3760484 L11.4839825,48.3453369 C11.2098523,48.2685936 9.28391969,47.5856521 8.77385279,47.3785264 C8.14197363,47.1252981 7.48731171,46.8184663 7.00006267,46.5575955 C6.39114178,46.2276239 5.62993802,45.7365231 5.69077394,45.7212735 C5.70597415,45.713631 6.74892581,45.4296204 8.00492606,45.0844346 C11.3392822,44.1712631 13.1890733,43.6419144 14.3995783,43.2583038 C14.6203849,43.1892383 14.8106508,43.1354932 14.8182333,43.1432773 Z M24.2958942,45.3835886 L24.3034767,45.3835886 C24.3339474,45.4604027 23.1008001,48.9131103 22.6514638,50.0025899 C22.5526449,50.2481049 22.514697,50.3095987 22.4613033,50.3017793 C22.3318733,50.2942429 20.5429883,50.0410146 19.4542605,49.8798501 C17.5588337,49.5883032 14.3767253,49.0281015 13.5774684,48.8440449 L13.3947851,48.8057263 L14.5289029,48.5446786 C16.9650077,47.9922609 18.137319,47.6930715 19.3248306,47.3247813 C20.8245607,46.8644274 22.3090906,46.2889407 23.8086803,45.5831071 C24.044652,45.4756523 24.2426057,45.3912665 24.2958942,45.3835886 Z" id="Shape" fill="url(#linearGradient-1)"></path>
                    <path d="M18.6398385,0.0146481078 C18.4723554,-0.0082439834 15.7698082,0.973851499 14.0265941,1.68732757 C11.6742484,2.65420884 9.84734528,3.57498748 8.72063452,4.37277863 C8.30201458,4.67214491 7.77664216,5.20149356 7.69302348,5.40861922 C7.66258797,5.48536257 7.64728245,5.57742628 7.64728245,5.66948999 L8.66741626,6.64394298 L11.095763,7.4265553 L16.8737362,8.47007376 L23.4813669,9.61333381 L23.5499257,9.03788254 C23.527143,9.03788254 23.5118375,9.03024005 23.4891951,9.03024005 L22.6211336,8.89207372 L22.4461733,8.5775286 C21.5478517,6.9815571 20.5582236,5.00197501 19.9797032,3.66690966 C19.5306126,2.63106907 19.1042697,1.43424082 18.8682277,0.574849778 C18.7387978,0.0531082364 18.7236327,0.0224321265 18.640014,0.0147896355 L18.640014,0.0146127259 L18.6398385,0.0146127259 L18.6398385,0.0146481078 Z M18.5178858,0.406078101 L18.5257141,0.406078101 C18.5331913,0.413649828 18.563662,0.628630271 18.5941677,0.881681641 C18.7234572,1.95601774 18.9596396,2.99168143 19.3325887,4.11194324 C19.6141962,4.95597854 19.6141962,4.90998206 19.2869179,4.81016971 C18.5104437,4.59540156 15.0315277,3.9892388 12.5117691,3.63630432 C12.1082791,3.58255921 11.7656953,3.52888486 11.7656953,3.52124237 C11.7352598,3.49056626 13.5850509,2.51604251 14.3996134,2.13250268 C15.4425299,1.64900897 18.3048372,0.444396702 18.5178858,0.406078101 L18.5178858,0.406078101 Z M11.1794168,3.84342998 L11.4764351,3.94306542 C13.0901842,4.49558921 17.1475857,5.27823691 19.385807,5.46236433 C19.6369438,5.48539795 19.850203,5.50846695 19.8576803,5.50846695 C19.8652628,5.51610944 19.6522493,5.63120677 19.3781191,5.76158909 C18.2972547,6.30636425 17.1096378,6.97391461 16.2874577,7.48801366 C16.0439385,7.64139421 15.8230616,7.76424018 15.7926963,7.76424018 C15.7622257,7.76424018 15.6024305,7.73352869 15.4349474,7.71049507 L15.1304518,7.66439245 L14.3692832,6.91242086 C13.0294536,5.6004599 11.9788843,4.58768831 11.5753944,4.20397157 L11.1794168,3.84342998 L11.1794168,3.84342998 Z M10.8750265,4.08123175 L11.9483786,5.43168822 C12.5344816,6.17594655 13.1282725,6.90481375 13.2578077,7.06587218 C13.3870972,7.22710751 13.4937444,7.35759597 13.4861619,7.36523846 C13.4556912,7.3882367 11.9332837,7.08894118 11.1262336,6.90488452 C10.2964709,6.71300846 9.95392223,6.62094475 9.44389043,6.45988632 L9.02516518,6.32171999 L9.02516518,6.21422977 C9.03274773,5.70013072 9.6798973,4.93290954 10.7760672,4.15036799 L10.8750265,4.08123175 Z M19.9948332,5.92271827 C20.0253389,5.92271827 20.0632867,5.99174837 20.1546284,6.19890941 C20.4134531,6.7743253 21.2205383,8.32430032 21.4182814,8.62348969 C21.479363,8.72333742 21.5857645,8.73097991 20.5125177,8.55449498 C17.9319232,8.13238888 17.1020553,7.99443484 17.1020553,7.97907909 C17.1020553,7.9714366 17.1781967,7.91769149 17.277156,7.86394638 C18.0765182,7.41901895 18.8833928,6.85117479 19.5990311,6.24501203 C19.7741318,6.09920321 19.9339972,5.96110764 19.9643625,5.93803864 C19.9719451,5.92271827 19.9872506,5.91507578 19.9948332,5.92271827 Z" id="Shape" fill="url(#linearGradient-2)"></path>
                    <path d="M7.74613644,5.30119976 C7.74613644,5.30119976 7.57875867,5.56985455 7.73858899,5.96885627 C7.8376536,6.21430054 8.12687874,6.51348991 8.45415704,6.8204633 C8.45415704,6.8204633 11.8417314,10.1503957 12.252839,10.6261762 C14.125448,12.8051707 14.9400456,14.9535598 15.016187,17.9152728 C15.0618579,19.8181115 14.7039685,21.4907556 13.8133699,23.4319837 C12.229951,26.9154382 8.88797719,30.7595051 3.73430053,35.0255719 L4.48806217,34.7723436 C4.975241,34.4039826 5.63755567,34.0128003 7.19046892,33.1534092 C10.7759268,31.173721 14.8106157,29.3553035 19.7588263,27.4831762 C26.884001,24.7822987 38.5998832,21.6210671 45.2683497,20.593046 L45.9612052,20.4855557 L45.8545581,20.3167487 C45.2456723,19.3652939 44.8268417,18.7745577 44.3243574,18.1453967 C42.862856,16.3192659 41.0892414,14.8384979 38.9195439,13.6108166 C35.9354243,11.9305654 32.0757309,10.6185337 27.1886019,9.64408069 C26.2674976,9.45984712 24.2425355,9.10694802 22.5982455,8.85375512 C19.1116416,8.30912149 16.8583254,7.93308262 14.3766902,7.50340479 C13.4860916,7.34988271 12.1537744,7.11975882 11.2707233,6.9279889 C10.81398,6.82814117 9.93861671,6.62101551 9.25348418,6.38317836 C8.70539922,6.1682333 7.91361952,5.95339438 7.74613644,5.30119976 L7.74613644,5.30119976 Z M9.71029771,7.21946502 C9.71781005,7.21189329 9.83958721,7.25778362 9.99955795,7.31152873 C10.2888182,7.41116417 10.6618024,7.52629688 11.1034508,7.64914285 C11.4375644,7.74177053 11.7725215,7.83127879 12.1082791,7.91765611 C12.5650225,8.03268268 12.9455892,8.14013752 12.9531718,8.14013752 C13.0065656,8.19388263 13.7754572,10.6719957 14.0342819,11.6234505 C14.1331008,11.984169 14.2093827,12.2910009 14.201765,12.2910009 C14.1939367,12.2987849 14.110318,12.168261 14.0113939,11.9918115 C13.12069,10.4111957 11.7123717,8.80761712 10.0832468,7.51854824 C9.87019824,7.36523846 9.71029771,7.22710751 9.71029771,7.21946502 L9.71029771,7.21946502 Z M13.4556561,8.2629481 C13.4937444,8.2629481 13.6612275,8.28598172 13.8666584,8.33197819 C15.1608172,8.62352508 17.4826922,9.06855865 18.9670817,9.32178693 C19.2183239,9.36010553 19.4163127,9.40624353 19.4163127,9.42149313 C19.4163127,9.43691964 19.3248657,9.49052323 19.210636,9.55198159 C18.9595343,9.68236391 17.946983,10.2884559 17.6121222,10.5186859 C16.767054,11.0864593 16.0058853,11.7002646 15.4577301,12.2526822 C15.2369937,12.4752344 15.0465874,12.6593618 15.0465874,12.6593618 C15.0465874,12.6593618 15.001057,12.5289795 14.9628283,12.3677442 C14.6889438,11.3012275 14.1179006,9.72061174 13.6002511,8.60813395 C13.5164921,8.43171978 13.4479332,8.27055521 13.4479332,8.25527023 C13.4479332,8.27059059 13.4479332,8.2629481 13.4556561,8.2629481 L13.4556561,8.2629481 Z M20.0480865,9.52894797 C20.0937574,9.54423296 20.1698988,9.80513911 20.3221115,10.380555 C20.6038243,11.4931743 20.7332542,12.7361406 20.6875833,13.894721 C20.6722778,14.2169794 20.6571127,14.5161687 20.6418072,14.5546289 L20.6190245,14.6312661 L20.2231873,14.5008837 C19.4086248,14.240013 18.0841008,13.8486184 16.9498777,13.5264308 C16.302693,13.3499458 15.7775663,13.1888166 15.7775663,13.1734963 C15.7775663,13.1273937 16.7215587,12.1760097 17.1249784,11.8154327 C17.8936945,11.1324558 19.9795276,9.50587897 20.0480865,9.52894797 L20.0480865,9.52894797 Z M20.5733536,9.60558518 C20.5962417,9.58269308 23.7249914,10.1273267 25.1485449,10.4035886 C26.206767,10.6107143 27.7444449,10.933008 27.8357515,10.9714328 C27.8814223,10.9867178 27.7215218,11.0787815 27.2114549,11.3089408 C25.2017983,12.2220769 23.7096508,13.0429371 22.2253666,14.0404944 C21.837112,14.3013652 21.5097283,14.5161687 21.5021458,14.5161687 C21.4945632,14.5161687 21.4869456,14.2937227 21.4869456,14.0251387 C21.4869456,12.5673689 21.1976502,11.0941726 20.6646602,9.85120635 C20.6114068,9.72843114 20.565736,9.61336919 20.5733536,9.60558518 L20.5733536,9.60558518 Z M28.665479,11.2169478 C28.6883671,11.239946 28.5893376,11.8614999 28.4979959,12.2297194 C28.223971,13.3729794 27.4855851,15.0687633 26.5797863,16.6645933 C26.4197805,16.9484977 26.2751855,17.1786923 26.2598448,17.1863348 C26.2447851,17.1939773 26.0392137,17.0788446 25.8031717,16.940749 C24.9201557,16.4190075 23.9153274,15.9279774 22.8190522,15.4675527 C22.5146619,15.3371704 22.2481494,15.2296802 22.2405317,15.214466 C22.1871379,15.1683633 24.6384429,13.5340732 25.9326016,12.7514609 C26.960318,12.1223353 28.6350084,11.1862009 28.665479,11.2169478 L28.665479,11.2169478 Z M29.2439995,11.3089761 C29.3125584,11.3089761 30.6980588,11.6926575 31.4211392,11.9074964 C33.2101646,12.4446291 35.265492,13.2041724 36.6053215,13.8179776 L37.1609539,14.0712767 L36.7728397,14.1632696 C33.4995301,14.9228129 30.6980588,15.7976305 27.9955467,16.9024658 C27.7747751,16.9945295 27.5768214,17.0712729 27.5617616,17.0712729 C27.5464561,17.0712729 27.6225976,16.8948233 27.7215569,16.6799136 C28.5361193,14.9382395 29.0613864,13.1197865 29.1906759,11.5698115 C29.198434,11.4240027 29.2211114,11.3089761 29.2439995,11.3089761 L29.2439995,11.3089761 Z M15.4501476,14.5008837 C15.4729304,14.4778147 16.5311173,14.7310784 17.1020553,14.8920661 C17.9698711,15.1376872 19.8120446,15.7590996 19.8120446,15.8052022 C19.8120446,15.8128447 19.6065785,15.9893296 19.3630593,16.2042393 C18.3658136,17.0405614 17.4065508,17.9228091 16.2569871,19.0430709 C15.9144033,19.3731133 15.6252132,19.6416266 15.6100481,19.6416266 C15.5947426,19.6416266 15.5872654,19.5954886 15.5947426,19.5341364 C15.7698082,18.2450675 15.7318604,16.5878145 15.4882359,14.9074926 C15.4653127,14.6925829 15.4425299,14.5085262 15.4501476,14.5008837 L15.4501476,14.5008837 Z M37.6864317,14.5239527 C37.7014915,14.5392023 37.1991475,15.3371704 36.8794518,15.7898111 C36.4227787,16.4496482 35.7526708,17.3245011 34.2377756,19.2426602 C33.438624,20.2553611 32.5401971,21.3986919 32.2434246,21.7823025 C31.9387886,22.1659131 31.6876868,22.4881007 31.6799639,22.4881007 C31.6723813,22.4881007 31.5735624,22.3500759 31.4669153,22.1813042 C30.6142646,20.8922353 29.5941308,19.764331 28.3837311,18.7515594 C28.155377,18.5596834 27.9042753,18.3525223 27.8205162,18.2911347 C27.7367571,18.2297825 27.6681982,18.1683949 27.6681982,18.1607524 C27.6681982,18.1377896 28.9622165,17.5775525 29.9444024,17.1786569 C31.664869,16.4727172 34.0092811,15.6287527 35.7679412,15.0839421 C36.6890806,14.7924306 37.6711262,14.5085262 37.6864317,14.5239527 L37.6864317,14.5239527 Z M38.2725347,14.6772979 C38.3029,14.6696908 38.4856886,14.7617545 38.7064602,14.8920661 C40.5563566,15.9585828 42.3680244,17.3320729 43.7993009,18.7438816 C44.2027206,19.1429187 45.1999664,20.1864017 45.1846608,20.1940442 C45.1846608,20.1940442 44.8344945,20.2247203 44.4234922,20.2553611 C41.2186011,20.5009822 37.1155288,21.1837468 33.1721465,22.1428087 C32.9057392,22.2041255 32.6698026,22.2578706 32.6544971,22.2578706 C32.6394373,22.2578706 32.9362099,21.9586813 33.3092994,21.5981043 C35.6234515,19.3500089 36.6816736,17.9305578 37.9300211,15.3984872 C38.1050516,15.0226253 38.2573696,14.7003669 38.2725347,14.6772979 C38.2649521,14.6772979 38.2649521,14.6772979 38.2725347,14.6772979 L38.2725347,14.6772979 Z M21.3193572,16.4267915 C21.4260044,16.4496836 22.4156324,16.9178923 23.161636,17.2937543 C23.8467685,17.6389047 24.87452,18.1914639 24.9277734,18.237425 C24.9353559,18.2450675 24.569884,18.4369082 24.1209339,18.6594603 C22.6896574,19.380685 21.4640926,20.063485 20.185099,20.8461327 C19.8197324,21.0686849 19.5152369,21.2529184 19.5076543,21.2529184 C19.4771837,21.2529184 19.4847663,21.2220654 19.6903376,20.8461327 C20.3755053,19.5879169 20.92352,18.0840444 21.2357385,16.6184906 C21.2660687,16.5034287 21.2965744,16.4267915 21.3193572,16.4267915 L21.3193572,16.4267915 Z M20.329694,16.6108482 C20.3525821,16.6339172 20.0937574,17.5775879 19.9339621,18.0916869 C19.6217436,19.0661399 19.0965116,20.2860726 18.58655,21.2068158 C18.4645974,21.4215486 18.2819492,21.7361645 18.1829899,21.912614 L17.992724,22.2195167 L17.5664162,21.8053007 C17.0716548,21.3218778 16.6680947,21.022653 16.1505505,20.7540336 C15.9448739,20.6467203 15.7850787,20.5545504 15.7850787,20.5393008 C15.7850787,20.4779132 17.0868199,19.2886567 18.0840657,18.4293011 C18.7995986,17.8077825 20.3069113,16.5878499 20.329694,16.6108482 L20.329694,16.6108482 Z M26.3818326,19.119885 L26.7548871,19.3653293 C27.6072921,19.925531 28.6121203,20.6697185 29.3811524,21.3218778 C29.8149374,21.6824194 30.6522826,22.4421396 30.8199061,22.626267 L30.9111074,22.7261147 L30.294639,22.9025289 C26.8080351,23.8768758 24.1132109,24.7439093 20.9691908,25.9102383 C20.6190245,26.0406207 20.3221115,26.1480401 20.2992234,26.1480401 C20.253693,26.1480401 20.2154994,26.1863587 20.9996965,25.4574207 C23.0094584,23.5931129 24.7906907,21.5366813 26.11532,19.534101 L26.3818326,19.119885 L26.3818326,19.119885 Z M24.7907609,19.5188514 C24.805926,19.5341364 23.7630445,21.0149398 23.1387479,21.8512972 C22.3927444,22.8487838 21.068115,24.5213925 20.1546284,25.6108367 C19.7740967,26.0636189 19.4468184,26.4395516 19.4315129,26.4472649 C19.4086248,26.4549074 19.4010423,26.3398454 19.4010423,26.1633605 C19.4010423,25.2348686 19.1651056,24.2450952 18.7539629,23.4011661 C18.5788622,23.0482316 18.5483915,22.9638104 18.5865851,22.9254918 C18.7311801,22.7950033 20.9464081,21.5213256 22.3470735,20.7617823 C23.2910308,20.2553965 24.7677324,19.5034956 24.7907609,19.5188514 L24.7907609,19.5188514 Z M15.1683997,21.8973998 C15.1912878,21.8973998 15.3663885,21.9893928 15.5643422,22.096883 C16.051521,22.3653962 16.4854465,22.664621 16.873666,22.9869501 C16.8888311,23.0022351 16.6909828,23.1634351 16.432158,23.3551342 C15.7089372,23.8768758 14.6127673,24.7132686 13.9734109,25.2273676 C13.3033381,25.7644649 13.2806607,25.7797853 13.3566968,25.6647233 C13.8591812,24.8897535 14.1102829,24.4523978 14.3768306,23.8923376 C14.6127673,23.3936651 14.848704,22.8028227 15.016187,22.2887237 C15.0770581,22.0662069 15.1532346,21.8973998 15.1683997,21.8973998 Z M17.7339344,23.922943 C17.7718823,23.9153713 17.8176935,23.9843306 18.0231244,24.291304 C18.4570499,24.9433571 18.7920161,25.8181746 18.8758805,26.5240436 L18.8909403,26.6775657 L17.8481641,27.0842453 C15.9829622,27.8130771 14.262636,28.5343726 13.0977668,29.0713637 C12.7705236,29.2248858 12.1995506,29.5010415 11.8266014,29.6853105 C11.453547,29.8770096 11.1490515,30.0228185 11.1490515,30.015176 C11.1490515,30.0075335 11.3849881,29.8310485 11.6742484,29.6161389 C13.9505579,27.9512434 15.9221262,26.1250419 17.3989331,24.2989819 C17.5588337,24.1071058 17.703534,23.9306209 17.7186289,23.9229784 L17.7339344,23.922943 Z M16.5540054,24.2145606 C16.584476,24.2452367 15.7166602,25.2349747 15.1228693,25.8411021 C13.6536449,27.3527231 12.1996208,28.5343726 10.3953951,29.6853105 C10.167041,29.8310485 9.96153989,29.9614309 9.93865182,29.9768574 C9.88532824,30.0075335 9.95381692,29.9307547 10.7455615,29.0637212 C11.2480459,28.518946 11.6286126,28.0585921 12.0625381,27.4908895 C12.3517983,27.1149921 12.4051219,27.061247 12.8238823,26.7618807 C13.9429403,25.9485569 16.5235348,24.1838138 16.5540054,24.2145606 Z" id="Shape" fill="#CECECE"></path>
                </g>
            </g>
        </g>
    </g>
</svg>