<svg xmlns="http://www.w3.org/2000/svg" width="76.875" height="76.875" viewBox="0 0 76.875 76.875">
    <defs>
        <style>
            .cls-1{fill:#0045ff;stroke:#0045ff;stroke-width:2px}.cls-2{fill:#fefefe}.cls-3{stroke:none}.cls-4{fill:none}
        </style>
    </defs>
    <g id="Group_2960" data-name="Group 2960" transform="translate(-774 -568)">
        <g id="Ellipse_243" class="cls-1" data-name="Ellipse 243" transform="translate(774 568)">
            <circle cx="38.438" cy="38.438" r="38.438" class="cls-3"/>
            <circle cx="38.438" cy="38.438" r="37.438" class="cls-4"/>
        </g>
        <g id="mysql_1_" data-name="mysql (1)" transform="translate(787.231 582.766)">
            <g id="Group_2904" data-name="Group 2904">
                <path id="Path_1658" d="M49.777 45.814a15.657 15.657 0 0 0-3.711-3.1 14.3 14.3 0 0 1-4.018-3.483c3.085-.611 6.989-1.718 7.177-1.771a1.015 1.015 0 0 0 .7-.663.947.947 0 0 0-.2-.918 31.789 31.789 0 0 0-12.556-8.063c-.337-.639-.712-1.458-1.148-2.406C32.948 18.73 26.57 4.862 9.742 3 8.4 2.138 4.887 0 3.123 0 .934 0 0 .888 0 2.963 0 3.973.867 5.153 2.281 7a12.433 12.433 0 0 1 1.883 2.871c0 1.615 1.976 6.844 3.964 9.081l-.17.339a13.835 13.835 0 0 0-1.712 7.356c0 5.183 2.619 7.895 5.205 7.895 1.605 0 2.4-1.727 2.789-3.749 1.426 2.744 3.756 6.318 7.021 8.5a1.083 1.083 0 0 0 1.452-.237.956.956 0 0 0-.25-1.376c-5.177-3.464-7.912-11.263-7.94-11.342a1.05 1.05 0 0 0-1.153-.668 1 1 0 0 0-.877.974c0 2.71-.545 5.6-1.041 5.921-1.5 0-3.123-2.264-3.123-5.921a11.975 11.975 0 0 1 1.511-6.51c.158-.315.32-.639.482-.984a.954.954 0 0 0-.273-1.15c-1.6-1.31-3.8-6.823-3.8-8.134 0-1.01-.867-2.191-2.281-4.034a12.433 12.433 0 0 1-1.886-2.869c0-.987 0-.987 1.041-.987.844 0 3.594 1.447 5.657 2.788a1.075 1.075 0 0 0 .477.167C25.079 6.557 30.956 19.336 34.112 26.2c.532 1.156.991 2.156 1.406 2.886a1.027 1.027 0 0 0 .583.467 30.3 30.3 0 0 1 10.886 6.467c-1.773.471-4.6 1.188-6.558 1.5a1.046 1.046 0 0 0-.7.433.939.939 0 0 0-.139.78c.639 2.429 3.094 4.107 5.258 5.588a14.387 14.387 0 0 1 3.23 2.639 1.059 1.059 0 0 0 .851.416 1.077 1.077 0 0 0 .6-.181.955.955 0 0 0 .248-1.381z" class="cls-2" data-name="Path 1658" transform="translate(0 -.002)"/>
                <path id="Path_1659" d="M96 75.777a1.108 1.108 0 0 0 1.109 1.109 1.109 1.109 0 0 1 1.109 1.109 1.109 1.109 0 1 0 2.217 0 3.329 3.329 0 0 0-3.325-3.325A1.108 1.108 0 0 0 96 75.777z" class="cls-2" data-name="Path 1659" transform="translate(-86.686 -66.79)"/>
            </g>
        </g>
    </g>
</svg>
