<?xml version="1.0" encoding="UTF-8"?>
<svg width="77px" height="77px" viewBox="0 0 77 77" version="1.1" xmlns="http://www.w3.org/2000/svg" xmlns:xlink="http://www.w3.org/1999/xlink">
    <!-- Generator: Sketch 53.1 (72631) - https://sketchapp.com -->
    <title>Group 30</title>
    <desc>Created with Sketch.</desc>
    <g id="Page-1" stroke="none" stroke-width="1" fill="none" fill-rule="evenodd">
        <g id="Group-30">
            <g id="Ellipse_243">
                <circle id="Oval" fill="#1757FF" fill-rule="nonzero" cx="38.438" cy="38.438" r="38.438"></circle>
                <circle id="Oval" stroke="#1757FF" stroke-width="2" cx="38.438" cy="38.438" r="37.438"></circle>
            </g>
            <g id="mongodb-icon" transform="translate(26.000000, 14.000000)" fill-rule="nonzero">
                <path d="M12.7226448,3.87832458e-16 L14.1242261,2.49032351 C14.4393357,2.94988446 14.7807044,3.356658 15.1827974,3.73548527 C16.3562525,4.84557337 17.4706245,6.00844887 18.471754,7.25361063 C20.8465645,10.2034951 22.4483717,13.4794194 23.5922853,17.0223859 C24.2783052,19.1866696 24.6508567,21.4068458 24.678757,23.6518631 C24.7936407,30.3636265 22.3613884,36.1267692 17.457495,40.91645 C16.6565914,41.6741046 15.7998871,42.3758666 14.8808174,43 C14.3950234,43 14.165256,42.6475664 13.9650301,42.3230791 C13.5924786,41.7284445 13.3643524,41.0499711 13.2494687,40.3746028 C13.0771431,39.5626083 12.9639006,38.7506138 13.0197012,37.9122256 L13.0197012,37.5333983 C12.9803125,37.4526646 12.5519604,0.190966205 12.7226448,0 L12.7226448,3.87832458e-16 Z" id="Path" fill="#E8E8E8"></path>
                <path d="M13.3362667,0.0526819134 C13.273776,-0.0545102804 13.2112852,0.0266495235 13.1487945,0.0787143033 C13.1791471,0.614675272 12.9613222,1.09244619 12.6203012,1.54877867 C12.2453566,2.00204852 11.7490015,2.34965749 11.2508609,2.72329885 C8.48341304,4.77832634 6.30516378,7.26059128 4.56077891,10.0368691 C2.23969363,13.7732827 1.04344199,17.7776768 0.704206448,21.9933927 C0.548872279,23.5139905 1.26483782,28.8797254 1.82368373,30.427887 C3.34845822,34.537942 6.08733885,37.981874 9.63502843,40.9710049 C10.5063281,41.6907239 11.4383331,42.3583782 12.4024763,43 C12.6827919,43 12.7131446,42.7856156 12.7774208,42.6263586 C12.9003176,42.2855818 12.9940058,41.9375559 13.0577365,41.585063 L13.6826441,37.5822003 L13.3362667,0.0526819134 Z" id="Path" fill="#FEFEFE"></path>
                <path d="M13.9611879,44.2341175 C14.019103,43.630268 14.3368084,43.1290728 14.6826441,42.6293873 C14.3351537,42.4980501 14.077018,42.2368851 13.8751427,41.9455277 C13.7013975,41.6828532 13.5574372,41.3673418 13.4449165,41.077494 C13.0411659,39.9724494 12.9551206,38.8130582 12.8392905,37.6838596 L12.8392905,37 C12.6953302,37.1056737 12.6655453,37.999371 12.6655453,38.1322179 C12.5813429,39.3256904 12.407744,40.5125095 12.1459645,41.6843628 C12.0599193,42.1583847 12.0020042,42.630897 11.6826441,43.052082 C11.6826441,43.1049189 11.6826441,43.1577557 11.7107742,43.2362561 C12.230355,44.6311486 12.3726606,46.0517046 12.4603606,47.4994339 L12.4603606,48.0278022 C12.4603606,48.658825 12.4322304,48.5259781 13.0064168,48.7373254 C13.2380771,48.8158259 13.4962127,48.8429991 13.727873,49 C13.9016181,49 13.9297483,48.8686627 13.9297483,48.7629891 L13.8437031,47.8949553 L13.8437031,45.4735187 C13.8155729,45.050824 13.9016181,44.6311486 13.9595332,44.2356271 L13.9611879,44.2341175 Z" id="Path" fill="#C2BFBF"></path>
            </g>
        </g>
    </g>
</svg>