<?xml version="1.0" encoding="UTF-8"?>
<svg width="77px" height="77px" viewBox="0 0 77 77" version="1.1" xmlns="http://www.w3.org/2000/svg" xmlns:xlink="http://www.w3.org/1999/xlink">
    <!-- Generator: Sketch 61.2 (89653) - https://sketch.com -->
    <title>Group 37</title>
    <desc>Created with Sketch.</desc>
    <g id="Page-1" stroke="none" stroke-width="1" fill="none" fill-rule="evenodd">
        <g id="Group-37">
            <g id="Ellipse_243">
                <circle id="Oval" fill="#1757FF" fill-rule="nonzero" cx="38.438" cy="38.438" r="38.438"></circle>
                <circle id="Oval" stroke="#1757FF" stroke-width="2" cx="38.438" cy="38.438" r="37.438"></circle>
            </g>
            <g id="download-copy" transform="translate(23.000000, 22.000000)">
                <path d="M0.976377953,0 L26.3622047,0 L31,2.9352518 L31,33.0215827 C31,33.6330935 30.6338583,34 30.023622,34 L0.976377953,34 C0.366141732,34 0,33.6330935 0,33.0215827 L0,0.978417266 C0,0.366906475 0.366141732,0 0.976377953,0 Z" id="path13" stroke="#FEFEFE" stroke-width="2"></path>
                <path d="M0.976377953,0 L26.3622047,0 L31,2.9010989 L31,3.14285714 L26.484252,0.362637363 L0.976377953,0.362637363 C0.488188976,0.362637363 0.122047244,0.725274725 0.122047244,1.20879121 L0.122047244,33 C0,32.8791209 0,32.7582418 0,32.6373626 L0,0.967032967 C0,0.362637363 0.366141732,0 0.976377953,0 Z" id="path15" fill="#FEFEFE"></path>
                <path d="M18.8181818,2 L20.1818182,2 C20.5909091,2 21,2.2745098 21,2.68627451 L21,8.17647059 C21,8.58823529 20.5909091,9 20.1818182,9 L18.8181818,9 C18.4090909,9 18,8.58823529 18,8.17647059 L18,2.68627451 C18,2.2745098 18.4090909,2 18.8181818,2 Z" id="path23" fill="#FEFEFE"></path>
                <path d="M4,2 C5.17647059,2 6,2.84848485 6,4.06060606 C6,5.15151515 5.17647059,6 4,6 C2.94117647,6 2,5.15151515 2,4.06060606 C2,2.84848485 2.94117647,2 4,2 Z" id="path25" fill="#FEFEFE"></path>
                <path d="M5.36842105,29 L25.6315789,29 C25.877193,29 26,29.1666667 26,29.5 C26,29.6666667 25.877193,30 25.6315789,30 L5.36842105,30 C5.12280702,30 5,29.6666667 5,29.5 C5,29.1666667 5.12280702,29 5.36842105,29 Z" id="path27" fill="#FEFEFE"></path>
                <path d="M5.36842105,25 L25.6315789,25 C25.877193,25 26,25.2 26,25.6 L26,25.6 C26,25.8 25.877193,26 25.6315789,26 L5.36842105,26 C5.12280702,26 5,25.8 5,25.6 L5,25.6 C5,25.2 5.12280702,25 5.36842105,25 Z" id="path29" fill="#FEFEFE"></path>
                <path d="M5.36842105,21 L25.6315789,21 C25.877193,21 26,21.3333333 26,21.5 L26,21.5 C26,21.8333333 25.877193,22 25.6315789,22 L5.36842105,22 C5.12280702,22 5,21.8333333 5,21.5 L5,21.5 C5,21.3333333 5.12280702,21 5.36842105,21 Z" id="path31" fill="#FEFEFE"></path>
                <path d="M2,32 C2.6,32 3,32.2222222 3,32.5555556 C3,32.7777778 2.6,33 2,33 C1.4,33 1,32.7777778 1,32.5555556 C1,32.2222222 1.4,32 2,32 Z" id="path33" fill="#FEFEFE"></path>
                <path d="M29,32 C29.6,32 30,32.2222222 30,32.5555556 C30,32.7777778 29.6,33 29,33 C28.4,33 28,32.7777778 28,32.5555556 C28,32.2222222 28.4,32 29,32 Z" id="path35" fill="#FEFEFE"></path>
                <polygon id="polygon37" fill="#FEFEFE" points="11 2 8 2 8 14 11 14"></polygon>
                <path d="M31,32 L31,32.4 C31,33.4 30.6338583,34 30.023622,34 L0.976377953,34 C0.366141732,34 0,33.4 0,32.4 L0,32 C0,32.8 0.366141732,33.6 0.976377953,33.6 L30.023622,33.6 C30.6338583,33.6 31,32.8 31,32 Z" id="path39"></path>
            </g>
        </g>
    </g>
</svg>