<svg xmlns="http://www.w3.org/2000/svg" width="76.875" height="76.875" viewBox="0 0 76.875 76.875">
    <defs>
        <style>
            .cls-1,.cls-7{fill:none}.cls-1{clip-rule:evenodd}.cls-2{fill:#1757FF;stroke:#1757FF;stroke-width:2px}.cls-3{clip-path:url(#clip-path)}.cls-4{fill:#fdfdfd}.cls-5{clip-path:url(#clip-path-2)}.cls-6{stroke:none}
        </style>
        <clipPath id="clip-path">
            <path id="Path_1730" d="M16.067-203.521h20.146a.568.568 0 0 1 .568.568v8.387a.568.568 0 0 1-.568.568H16.067v3.46a.568.568 0 0 1-.568.568.567.567 0 0 1-.286-.077L1.072-198.3a.568.568 0 0 1-.2-.776.568.568 0 0 1 .2-.2l14.141-8.252a.568.568 0 0 1 .776.2.568.568 0 0 1 .077.286z" class="cls-1" data-name="Path 1730" transform="translate(-.79 207.61)"/>
        </clipPath>
        <clipPath id="clip-path-2">
            <path id="Path_1732" d="M22.3-79.67H2.148a.568.568 0 0 1-.568-.568v-8.387a.568.568 0 0 1 .568-.568H22.3v-3.46a.568.568 0 0 1 .568-.568.568.568 0 0 1 .286.077L37.29-84.89a.568.568 0 0 1 .2.776.568.568 0 0 1-.2.2l-14.141 8.256a.568.568 0 0 1-.776-.2.568.568 0 0 1-.077-.286z" class="cls-1" data-name="Path 1732" transform="translate(-1.581 93.219)"/>
        </clipPath>
    </defs>
    <g id="Group_2993" data-name="Group 2993" transform="translate(-1170 -758)">
        <g id="Ellipse_243" class="cls-2" data-name="Ellipse 243" transform="translate(1170 758)">
            <circle cx="38.438" cy="38.438" r="38.438" class="cls-6"/>
            <circle cx="38.438" cy="38.438" r="37.438" class="cls-7"/>
        </g>
        <g id="Group_2989" data-name="Group 2989" transform="translate(1190.747 776.842)">
            <g id="Group_2987" class="cls-3" data-name="Group 2987">
                <path id="Path_1729" d="M-4.21-212.61h37.883v19.531H-4.21z" class="cls-4" data-name="Path 1729" transform="translate(3.264 211.664)"/>
            </g>
            <g id="Group_2988" class="cls-5" data-name="Group 2988" transform="translate(.15 21.644)">
                <path id="Path_1731" d="M34.463-78.689H-3.419v-19.53h37.882z" class="cls-4" data-name="Path 1731" transform="translate(2.473 97.273)"/>
            </g>
        </g>
    </g>
</svg>
