<svg xmlns="http://www.w3.org/2000/svg" width="16.002" height="16.532" viewBox="0 0 16.002 16.532">
  <defs>
    <style>
      .cls-1 {
        fill: #333;
      }
    </style>
  </defs>
  <g id="arrow" transform="translate(-4.57)">
    <g id="Group_2172" data-name="Group 2172" transform="translate(4.57)">
      <path id="Path_1274" data-name="Path 1274" class="cls-1" d="M123.683,7.885,115.963.166a.52.52,0,0,0-.762,0l-.828.828a.521.521,0,0,0,0,.762l6.51,6.51-6.51,6.51a.521.521,0,0,0,0,.762l.828.828a.521.521,0,0,0,.762,0l7.72-7.719a.522.522,0,0,0,0-.762Z" transform="translate(-107.847)"/>
      <path id="Path_1275" data-name="Path 1275" class="cls-1" d="M14.211,8.266a.523.523,0,0,0-.166-.381L6.326.166a.521.521,0,0,0-.762,0L4.736.994a.521.521,0,0,0,0,.762l6.51,6.51-6.51,6.51a.521.521,0,0,0,0,.762l.828.828a.521.521,0,0,0,.762,0l7.719-7.719A.522.522,0,0,0,14.211,8.266Z" transform="translate(-4.57)"/>
    </g>
  </g>
</svg>
