<svg xmlns="http://www.w3.org/2000/svg" width="24.002" height="23.999" viewBox="0 0 24.002 23.999">
  <defs>
    <style>
      .cls-1 {
        fill: #086375;
      }
    </style>
  </defs>
  <g id="Group_1784" data-name="Group 1784" transform="translate(13276.33 14937.998)">
    <g id="rocket" transform="translate(-13273 -14933.996)">
      <g id="Group_860" data-name="Group 860">
        <g id="Group_859" data-name="Group 859">
          <path id="Path_745" data-name="Path 745" class="cls-1" d="M103.342,10.717a7.661,7.661,0,0,0-2.324-4.35A18.622,18.622,0,0,0,99.284.62a1.158,1.158,0,0,0-2.05,0A16.456,16.456,0,0,0,95.863,4.5q-.208.893-.362,1.867a7.661,7.661,0,0,0-2.325,4.35.521.521,0,0,0,.516.591h1.395q0,.216-.007.435a.853.853,0,0,0,.853.862h.327l-.116.845v.012a.438.438,0,0,0,.436.481h.257l-.394,1.406a.312.312,0,0,0,.456.356l.774-.442.245.326a.312.312,0,0,0,.444.058l.419-.331.914.627a.312.312,0,0,0,.482-.326L99.8,13.942h.142a.439.439,0,0,0,.436-.481v-.012l-.116-.845h.327a.853.853,0,0,0,.853-.862q0-.218-.007-.435h1.394a.521.521,0,0,0,.516-.591ZM95.1,10.683H93.813a6.849,6.849,0,0,1,1.538-3.238Q95.164,8.98,95.1,10.683Zm1.689,2.635.1-.713h1.056v.713H96.793Zm.6-1.338V9.749a.35.35,0,0,1,.35-.35H98.78a.35.35,0,0,1,.35.35v2.23Zm1.554,2.69a.312.312,0,0,0-.37.012l-.348.275-.218-.291a.313.313,0,0,0-.4-.084l-.352.2.236-.841h1.672l.233,1.034Zm.465-1.352h-.836V12.6h1.056l.1.713Zm2.007-2.635h0q-.011-.324-.027-.64a.312.312,0,0,0-.624.031q.015.3.026.608t.018.625q0,.22.007.442a.228.228,0,0,1-.228.23h-.831V9.749a.976.976,0,0,0-.975-.975H97.739a.976.976,0,0,0-.975.975v2.23h-.831a.228.228,0,0,1-.228-.23c0-.149,0-.3.007-.442q.007-.318.018-.625.018-.5.046-.969c.073-1.227.2-2.317.351-3.283A18.05,18.05,0,0,1,97.788.91a.533.533,0,0,1,.944,0,17.953,17.953,0,0,1,1.663,5.515q.084.529.155,1.109.021.17.04.344a.312.312,0,1,0,.621-.069q-.02-.177-.041-.35l0-.016a6.836,6.836,0,0,1,1.538,3.241Z" transform="translate(-93.172)"/>
        </g>
      </g>
      <g id="Group_862" data-name="Group 862" transform="translate(3.32 4.118)">
        <g id="Group_861" data-name="Group 861">
          <path id="Path_746" data-name="Path 746" class="cls-1" d="M201.2,131.8a1.767,1.767,0,1,0,1.767,1.767A1.769,1.769,0,0,0,201.2,131.8Zm0,2.91a1.142,1.142,0,1,1,1.142-1.142A1.144,1.144,0,0,1,201.2,134.709Z" transform="translate(-199.435 -131.799)"/>
        </g>
      </g>
      <g id="Group_864" data-name="Group 864" transform="translate(4.64 5.323)">
        <g id="Group_863" data-name="Group 863">
          <path id="Path_747" data-name="Path 747" class="cls-1" d="M242.488,170.42a.312.312,0,0,0-.428.108l-.349.585a.312.312,0,1,0,.536.321l.349-.585A.312.312,0,0,0,242.488,170.42Z" transform="translate(-241.666 -170.376)"/>
        </g>
      </g>
      <g id="Group_866" data-name="Group 866" transform="translate(7.52 8.632)">
        <g id="Group_865" data-name="Group 865">
          <path id="Path_748" data-name="Path 748" class="cls-1" d="M334.46,276.516a.323.323,0,0,0-.018-.058.318.318,0,0,0-.029-.054.311.311,0,0,0-.086-.087.308.308,0,0,0-.054-.029.316.316,0,0,0-.058-.018.308.308,0,0,0-.122,0,.324.324,0,0,0-.059.018.313.313,0,0,0-.054.029h0a.294.294,0,0,0-.046.038.318.318,0,0,0-.039.047.325.325,0,0,0-.029.054.312.312,0,0,0-.018.058.306.306,0,0,0-.006.061.315.315,0,0,0,.092.221l.005,0a.3.3,0,0,0,.042.034.312.312,0,0,0,.054.029.324.324,0,0,0,.059.018.3.3,0,0,0,.122,0,.313.313,0,0,0,.058-.018.307.307,0,0,0,.054-.029.3.3,0,0,0,.048-.039.3.3,0,0,0,.039-.048.333.333,0,0,0,.029-.054.322.322,0,0,0,.018-.058.3.3,0,0,0,0-.122Z" transform="translate(-333.841 -276.265)"/>
        </g>
      </g>
    </g>
    <g id="cards" transform="translate(-13276.33 -14937.998)">
      <path id="Path_1079" data-name="Path 1079" class="cls-1" d="M402.648,0a.383.383,0,1,0,0,.766,1.5,1.5,0,0,1,1.494,1.494V21.739a1.5,1.5,0,0,1-1.494,1.494.383.383,0,1,0,0,.766,2.262,2.262,0,0,0,2.26-2.26V2.26A2.262,2.262,0,0,0,402.648,0Z" transform="translate(-383.199)"/>
      <path id="Path_1080" data-name="Path 1080" class="cls-1" d="M351.908,21.739V2.26A2.262,2.262,0,0,0,349.648,0a.383.383,0,1,0,0,.766,1.5,1.5,0,0,1,1.494,1.494V21.739a1.5,1.5,0,0,1-1.494,1.494.383.383,0,1,0,0,.766,2.262,2.262,0,0,0,2.26-2.26Z" transform="translate(-332.756)"/>
      <path id="Path_1082" data-name="Path 1082" class="cls-1" d="M351.908,21.739V2.26A2.262,2.262,0,0,0,349.648,0a.383.383,0,1,0,0,.766,1.5,1.5,0,0,1,1.494,1.494V21.739a1.5,1.5,0,0,1-1.494,1.494.383.383,0,1,0,0,.766,2.262,2.262,0,0,0,2.26-2.26Z" transform="translate(-327.905)"/>
      <path id="Path_1081" data-name="Path 1081" class="cls-1" d="M32.278,21.739V2.26A2.285,2.285,0,0,0,31.314.383,2.1,2.1,0,0,0,30.106,0H18.154a2.22,2.22,0,0,0-2.172,2.26V21.739A2.22,2.22,0,0,0,18.154,24H30.106a2.1,2.1,0,0,0,1.208-.383A2.284,2.284,0,0,0,32.278,21.739Zm-2.172,1.494H18.154a1.467,1.467,0,0,1-1.436-1.494V2.26A1.467,1.467,0,0,1,18.154.766H30.106A1.467,1.467,0,0,1,31.542,2.26V21.739A1.467,1.467,0,0,1,30.106,23.233Z" transform="translate(-15.982)"/>
    </g>
  </g>
</svg>
