<svg xmlns="http://www.w3.org/2000/svg" width="23.997" height="21.391" viewBox="0 0 23.997 21.391">
  <defs>
    <style>
      .cls-1 {
        fill: #333;
      }
    </style>
  </defs>
  <g id="home" transform="translate(0 -27.798)">
    <g id="Group_2177" data-name="Group 2177" transform="translate(-0.001 27.798)">
      <g id="Group_2176" data-name="Group 2176" transform="translate(0 0)">
        <path id="Path_1277" data-name="Path 1277" class="cls-1" d="M23.741,36.246,12.366,27.918a.623.623,0,0,0-.737,0L.255,36.246a.624.624,0,0,0,.737,1.006L12,29.194,23,37.252a.623.623,0,0,0,.737-1.006Z" transform="translate(0.001 -27.798)"/>
      </g>
    </g>
    <g id="Group_2179" data-name="Group 2179" transform="translate(2.645 37.394)">
      <g id="Group_2178" data-name="Group 2178" transform="translate(0 0)">
        <path id="Path_1278" data-name="Path 1278" class="cls-1" d="M74.533,232.543a.624.624,0,0,0-.623.623v9.924H68.922v-5.417a3.118,3.118,0,0,0-6.235,0v5.417H57.7v-9.924a.623.623,0,1,0-1.247,0v10.548a.624.624,0,0,0,.623.623H63.31a.623.623,0,0,0,.621-.575.471.471,0,0,0,0-.049v-6.041a1.871,1.871,0,1,1,3.741,0v6.041a.457.457,0,0,0,0,.048.623.623,0,0,0,.621.575h6.235a.623.623,0,0,0,.623-.623V233.167A.624.624,0,0,0,74.533,232.543Z" transform="translate(-56.452 -232.543)"/>
      </g>
    </g>
  </g>
</svg>
