<svg xmlns="http://www.w3.org/2000/svg" width="23.971" height="28.188" viewBox="0 0 23.971 28.188">
    <defs>
        <style>
            .cls-1,.cls-3{fill:rgba(173,173,173,.42)}.cls-2{clip-path:url(#clip-path)}.cls-3{stroke:#7c7c7c;stroke-width:.5px}.cls-4{clip-path:url(#clip-path-2)}
        </style>
        <clipPath id="clip-path">
            <path id="Path_1346" d="M131.7-358.543a5.264 5.264 0 0 0-5.258 5.258 5.264 5.264 0 0 0 5.258 5.258 5.264 5.264 0 0 0 5.258-5.258 5.264 5.264 0 0 0-5.258-5.258zm3.122 4.268l-3.767 3.767a.808.808 0 0 1-.573.237.806.806 0 0 1-.572-.237l-1.439-1.44a.809.809 0 0 1 0-1.145.809.809 0 0 1 1.145 0l.867.867 3.195-3.194a.809.809 0 0 1 1.145 0 .81.81 0 0 1-.002 1.145z" class="cls-1" data-name="Path 1346" transform="translate(-126.441 358.543)"/>
        </clipPath>
        <clipPath id="clip-path-2">
            <path id="Path_1349" d="M29.473-509.513v-.021a29.31 29.31 0 0 1-.025-.858 2.925 2.925 0 0 0-2.754-2.865 11.349 11.349 0 0 1-7.725-3.256l-.018-.017a1.766 1.766 0 0 0-2.4 0l-.018.017a11.351 11.351 0 0 1-7.725 3.256 2.925 2.925 0 0 0-2.754 2.865c0 .31-.013.59-.025.857v.05c-.062 3.236-.138 7.262 1.209 10.917a13.9 13.9 0 0 0 3.334 5.193 17.441 17.441 0 0 0 6.524 3.859 2.02 2.02 0 0 0 .267.073 1.985 1.985 0 0 0 .388.039 1.983 1.983 0 0 0 .388-.039 2.016 2.016 0 0 0 .268-.073 17.452 17.452 0 0 0 6.517-3.861 13.918 13.918 0 0 0 3.334-5.194c1.353-3.666 1.276-7.701 1.215-10.942zM17.75-496.324a6.885 6.885 0 0 1-6.877-6.878 6.885 6.885 0 0 1 6.877-6.878 6.885 6.885 0 0 1 6.877 6.878 6.885 6.885 0 0 1-6.877 6.878z" class="cls-1" data-name="Path 1349" transform="translate(-6 517.001)"/>
        </clipPath>
    </defs>
    <g id="Group_2440" data-name="Group 2440" transform="translate(-5.766 517.341)">
        <g id="Group_2416" class="cls-2" data-name="Group 2416" transform="translate(12.492 -508.46)">
            <path id="Path_1345" d="M121.441-363.543H132.5v11.055h-11.059z" class="cls-1" data-name="Path 1345" transform="translate(-121.711 363.273)"/>
        </g>
        <g id="Group_2417" data-name="Group 2417" transform="translate(12.492 -508.46)">
            <path id="Path_1347" d="M5.258 0a5.258 5.258 0 1 0 5.258 5.258A5.264 5.264 0 0 0 5.258 0zM8.38 4.268L4.613 8.035a.809.809 0 0 1-1.145 0L2.028 6.6a.81.81 0 0 1 1.145-1.15l.867.867 3.195-3.194A.81.81 0 0 1 8.38 4.268z" class="cls-3" data-name="Path 1347"/>
        </g>
        <g id="Group_2418" class="cls-4" data-name="Group 2418" transform="translate(6 -517.001)">
            <path id="Path_1348" d="M1-522h24.039v28.136H1z" class="cls-1" data-name="Path 1348" transform="translate(-1.27 521.732)"/>
        </g>
        <g id="Group_2419" data-name="Group 2419" transform="translate(6 -517.001)">
            <path id="Path_1350" d="M23.473 7.488v-.022a29.31 29.31 0 0 1-.025-.858 2.925 2.925 0 0 0-2.754-2.865A11.349 11.349 0 0 1 12.968.487L12.95.47a1.766 1.766 0 0 0-2.4 0l-.018.017a11.351 11.351 0 0 1-7.724 3.257A2.925 2.925 0 0 0 .054 6.609c0 .31-.013.59-.025.857v.05c-.062 3.236-.138 7.262 1.209 10.917a13.9 13.9 0 0 0 3.332 5.194 17.441 17.441 0 0 0 6.524 3.859 2.017 2.017 0 0 0 .267.073 1.975 1.975 0 0 0 .776 0 2.019 2.019 0 0 0 .268-.073 17.452 17.452 0 0 0 6.517-3.861 13.918 13.918 0 0 0 3.334-5.194c1.355-3.667 1.278-7.702 1.217-10.943zM11.75 20.677a6.878 6.878 0 1 1 6.877-6.877 6.885 6.885 0 0 1-6.877 6.877z" class="cls-3" data-name="Path 1350"/>
        </g>
    </g>
</svg>
