<svg xmlns="http://www.w3.org/2000/svg" width="23.729" height="29.535" viewBox="0 0 23.729 29.535">
    <defs>
        <style>
            .cls-1,.cls-3,.cls-4{fill:rgba(173,173,173,.42)}.cls-1{clip-rule:evenodd}.cls-2{clip-path:url(#clip-path)}.cls-4{stroke:#7c7c7c;stroke-width:.5px}.cls-5{clip-path:url(#clip-path-2)}.cls-6{clip-path:url(#clip-path-3)}.cls-7{clip-path:url(#clip-path-4)}
        </style>
        <clipPath id="clip-path">
            <path id="Path_1385" d="M1.2-15c1 3.539 5.732 6.218 11.414 6.218S23.025-11.461 24.031-15a5.133 5.133 0 0 1 .2 1.408c0 4.211-5.2 7.625-11.614 7.625S1-9.381 1-13.592A5.133 5.133 0 0 1 1.2-15z" class="cls-1" data-name="Path 1385" transform="translate(-1 15)"/>
        </clipPath>
        <clipPath id="clip-path-2">
            <path id="Path_1388" d="M1.2-22c1.006 3.539 5.735 6.218 11.417 6.218S23.025-18.461 24.031-22a5.133 5.133 0 0 1 .2 1.408c0 4.211-5.2 7.625-11.614 7.625S1-16.381 1-20.592A5.133 5.133 0 0 1 1.2-22z" class="cls-1" data-name="Path 1388" transform="translate(-1 22)"/>
        </clipPath>
        <clipPath id="clip-path-3">
            <path id="Path_1391" d="M1.2-29c1.006 3.539 5.735 6.218 11.417 6.218S23.025-25.461 24.031-29a5.133 5.133 0 0 1 .2 1.408c0 4.211-5.2 7.625-11.614 7.625S1-23.381 1-27.592A5.133 5.133 0 0 1 1.2-29z" class="cls-1" data-name="Path 1391" transform="translate(-1 29)"/>
        </clipPath>
        <clipPath id="clip-path-4">
            <path id="Path_1394" d="M12.614-30.515c6.414 0 11.614-3.467 11.614-7.743S19.028-46 12.614-46 1-42.533 1-38.257s5.2 7.742 11.614 7.742z" class="cls-1" data-name="Path 1394" transform="translate(-1 46)"/>
        </clipPath>
    </defs>
    <g id="Group_2497" data-name="Group 2497" transform="translate(-.75 46.25)">
        <g id="Group_2488" class="cls-2" data-name="Group 2488" transform="translate(1 -25.998)">
            <path id="Path_1384" d="M-4-20h29.68v15.485H-4z" class="cls-3" data-name="Path 1384" transform="translate(.774 16.774)"/>
        </g>
        <g id="Group_2489" data-name="Group 2489" transform="translate(1 -25.998)">
            <path id="Path_1386" d="M.2 0c1 3.539 5.732 6.218 11.414 6.218S22.025 3.539 23.031 0a5.133 5.133 0 0 1 .2 1.408c0 4.211-5.2 7.625-11.614 7.625S0 5.619 0 1.408A5.133 5.133 0 0 1 .2 0z" class="cls-4" data-name="Path 1386"/>
        </g>
        <g id="Group_2490" class="cls-5" data-name="Group 2490" transform="translate(1 -30.515)">
            <path id="Path_1387" d="M-4-27h29.68v15.485H-4z" class="cls-3" data-name="Path 1387" transform="translate(.774 23.774)"/>
        </g>
        <g id="Group_2491" data-name="Group 2491" transform="translate(1 -30.515)">
            <path id="Path_1389" d="M.2 0c1 3.539 5.732 6.218 11.414 6.218S22.025 3.539 23.031 0a5.133 5.133 0 0 1 .2 1.408c0 4.211-5.2 7.625-11.614 7.625S0 5.619 0 1.408A5.133 5.133 0 0 1 .2 0z" class="cls-4" data-name="Path 1389"/>
        </g>
        <g id="Group_2492" class="cls-6" data-name="Group 2492" transform="translate(1 -35.031)">
            <path id="Path_1390" d="M-4-34h29.68v15.485H-4z" class="cls-3" data-name="Path 1390" transform="translate(.774 30.774)"/>
        </g>
        <g id="Group_2493" data-name="Group 2493" transform="translate(1 -35.031)">
            <path id="Path_1392" d="M.2 0c1 3.539 5.732 6.218 11.414 6.218S22.025 3.539 23.031 0a5.133 5.133 0 0 1 .2 1.408c0 4.211-5.2 7.625-11.614 7.625S0 5.619 0 1.408A5.133 5.133 0 0 1 .2 0z" class="cls-4" data-name="Path 1392"/>
        </g>
        <g id="Group_2494" class="cls-7" data-name="Group 2494" transform="translate(1 -46)">
            <path id="Path_1393" d="M-4-51h29.68v21.938H-4z" class="cls-3" data-name="Path 1393" transform="translate(.774 47.774)"/>
        </g>
        <g id="Group_2495" data-name="Group 2495" transform="translate(1 -46)">
            <path id="Path_1395" d="M11.614 15.485c6.414 0 11.614-3.467 11.614-7.743S18.028 0 11.614 0 0 3.467 0 7.743s5.2 7.742 11.614 7.742z" class="cls-4" data-name="Path 1395"/>
        </g>
    </g>
</svg>
