<svg xmlns="http://www.w3.org/2000/svg" width="24.02" height="21.412" viewBox="0 0 24.02 21.412">
    <defs>
        <style>
            .cls-1,.cls-2{fill:none}.cls-2{clip-rule:evenodd}.cls-3{clip-path:url(#clip-path)}.cls-4{fill:#fefefe}.cls-5{clip-path:url(#clip-path-2)}.cls-6{fill:rgba(255,255,255,.42)}
        </style>
        <clipPath id="clip-path">
            <path id="Path_1356" d="M23.764-448.747a.624.624 0 0 1 .135.872.623.623 0 0 1-.5.256.619.619 0 0 1-.368-.121l-1.656-1.212v12.536a.624.624 0 0 1-.624.624h-6.245a.624.624 0 0 1-.622-.576v-6.095a1.875 1.875 0 0 0-1.872-1.872 1.875 1.875 0 0 0-1.872 1.872v6.096a.624.624 0 0 1-.622.575H3.272a.624.624 0 0 1-.624-.624v-12.536L.993-447.74a.623.623 0 0 1-.872-.135.624.624 0 0 1 .135-.872l11.385-8.337a.626.626 0 0 1 .738 0zm-3.641 11.707l.006-12.822-8.119-5.944-8.119 5.944.009 12.822h4.989v-5.423a3.124 3.124 0 0 1 3.12-3.121 3.124 3.124 0 0 1 3.12 3.121v5.423z" class="cls-1" data-name="Path 1356" transform="translate(0 457.204)"/>
        </clipPath>
        <clipPath id="clip-path-2">
            <path id="Path_1358" d="M99.174-421.464l-.006 12.822h-4.993v-5.423a3.124 3.124 0 0 0-3.12-3.121 3.124 3.124 0 0 0-3.12 3.121v5.423h-4.993l-.006-12.822 8.119-5.944z" class="cls-2" data-name="Path 1358" transform="translate(-82.936 427.408)"/>
        </clipPath>
    </defs>
    <g id="Group_2445" data-name="Group 2445" transform="translate(0 457.205)">
        <g id="Group_2445-2" class="cls-3" data-name="Group 2445" transform="translate(0 -457.204)">
            <path id="Path_1355" d="M-5-462.2h24.488v21.881H-5z" class="cls-4" data-name="Path 1355" transform="translate(4.765 461.97)"/>
        </g>
        <g id="Group_2446" class="cls-5" data-name="Group 2446" transform="translate(3.891 -455.806)">
            <path id="Path_1357" d="M77.936-432.408h16.707v19.235H77.936z" class="cls-6" data-name="Path 1357" transform="translate(-78.171 432.173)"/>
        </g>
    </g>
</svg>
