<svg xmlns="http://www.w3.org/2000/svg" width="24.662" height="25.976" viewBox="0 0 24.662 25.976">
    <defs>
        <style>
            .cls-1{fill:rgba(255,255,255,.42);stroke:#fefefe;stroke-width:.5px;fill-rule:evenodd}
        </style>
    </defs>
    <g id="Group_2436" data-name="Group 2436" transform="translate(-1458.427 -557.644)">
        <path id="Combined-Shape" d="M24.346 16.778L13.7 21.761a1.5 1.5 0 0 1-1.282-.011l-10.626-5.2-.033.016a.793.793 0 0 0-.336.306.718.718 0 0 0 .336 1.018l10.92 5.341a.9.9 0 0 0 .769.006l10.927-5.113a.8.8 0 0 0 .344-.3.717.717 0 0 0-.319-1.024z" class="cls-1" transform="translate(1457.635 560.038)"/>
        <path id="Combined-Shape-2" d="M24.467 14.188l-10.826 5.049a1.5 1.5 0 0 1-1.279-.011L1.626 13.992a.772.772 0 0 0-.207.228.719.719 0 0 0 .338 1.017l10.918 5.323a.9.9 0 0 0 .767.006l10.925-5.095a.8.8 0 0 0 .345-.3.711.711 0 0 0-.245-.983z" class="cls-1" data-name="Combined-Shape" transform="translate(1457.635 560.032)"/>
        <path id="Combined-Shape-3" d="M24.467 11.851L13.641 16.9a1.5 1.5 0 0 1-1.279-.011L1.626 11.655a.772.772 0 0 0-.207.228.719.719 0 0 0 .339 1.017l10.918 5.323a.9.9 0 0 0 .767.006l10.925-5.095a.8.8 0 0 0 .345-.3.711.711 0 0 0-.246-.983z" class="cls-1" data-name="Combined-Shape" transform="translate(1457.635 560.028)"/>
        <path id="Rectangle-Copy-6" d="M4.507 3.813a.9.9 0 0 0-.565.557L.044 15.793a.792.792 0 0 0-.021.452.719.719 0 0 0 .957.483l11.446-3.906a.9.9 0 0 0 .548-.539L17.046.994a.8.8 0 0 0 .029-.454.718.718 0 0 0-.947-.5z" class="cls-1" transform="rotate(45 61.756 2054.223)"/>
    </g>
</svg>
