<?xml version="1.0" encoding="UTF-8"?>
<svg width="24px" height="24px" viewBox="0 0 24 24" version="1.1" xmlns="http://www.w3.org/2000/svg" xmlns:xlink="http://www.w3.org/1999/xlink">
    <!-- Generator: Sketch 52.3 (67297) - http://www.bohemiancoding.com/sketch -->
    <title>Group 1784</title>
    <desc>Created with Sketch.</desc>
    <g id="Page-1" stroke="none" stroke-width="1" fill="none" fill-rule="evenodd">
        <g id="Group-1784">
            <g id="cards">
                <rect id="Rectangle" fill-opacity="0.3" fill="#fefefe" fill-rule="nonzero" x="0.79338843" y="0.595041322" width="14.8760331" height="22.5123967" rx="1.438016"></rect>
                <path d="M19.387438,0 C19.1776611,-1.28451316e-17 19.0076033,0.170057793 19.0076033,0.379834711 C19.0076033,0.589611629 19.1776611,0.759669421 19.387438,0.759669421 C20.2043776,0.762930696 20.8658296,1.42438269 20.8690909,2.24132231 L20.8690909,21.5593388 C20.8658296,22.3762785 20.2043776,23.0377305 19.387438,23.0409917 C19.2517361,23.0409917 19.1263424,23.1133878 19.0584915,23.2309091 C18.9906405,23.3484304 18.9906405,23.4932225 19.0584915,23.6107438 C19.1263424,23.7282651 19.2517361,23.8006612 19.387438,23.8006612 C20.6248329,23.7995676 21.6276667,22.7967337 21.6287603,21.5593388 L21.6287603,2.24132231 C21.6276667,1.00392744 20.6248329,0.00109358868 19.387438,0 Z" id="Path_1079" fill="#fefefe"></path>
                <path d="M19.0928926,21.5593388 L19.0928926,2.24132231 C19.091799,1.00392744 18.0889651,0.00109358868 16.8515702,0 C16.6417933,-1.28451316e-17 16.4717355,0.170057793 16.4717355,0.379834711 C16.4717355,0.589611629 16.6417933,0.759669421 16.8515702,0.759669421 C17.6685099,0.762930696 18.3299619,1.42438269 18.3332231,2.24132231 L18.3332231,21.5593388 C18.3299619,22.3762785 17.6685099,23.0377305 16.8515702,23.0409917 C16.7158684,23.0409917 16.5904747,23.1133878 16.5226237,23.2309091 C16.4547728,23.3484304 16.4547728,23.4932225 16.5226237,23.6107438 C16.5904747,23.7282651 16.7158684,23.8006612 16.8515702,23.8006612 C18.0889651,23.7995676 19.091799,22.7967337 19.0928926,21.5593388 Z" id="Path_1080" fill="#fefefe"></path>
                <path d="M23.9038017,21.5593388 L23.9038017,2.24132231 C23.9027081,1.00392744 22.8998742,0.00109358868 21.6624793,0 C21.4527024,-1.28451316e-17 21.2826446,0.170057793 21.2826446,0.379834711 C21.2826446,0.589611629 21.4527024,0.759669421 21.6624793,0.759669421 C22.479419,0.762930696 23.140871,1.42438269 23.1441322,2.24132231 L23.1441322,21.5593388 C23.140871,22.3762785 22.479419,23.0377305 21.6624793,23.0409917 C21.5267775,23.0409917 21.4013837,23.1133878 21.3335328,23.2309091 C21.2656819,23.3484304 21.2656819,23.4932225 21.3335328,23.6107438 C21.4013837,23.7282651 21.5267775,23.8006612 21.6624793,23.8006612 C22.8998742,23.7995676 23.9027081,22.7967337 23.9038017,21.5593388 Z" id="Path_1082" fill="#fefefe"></path>
                <path d="M16.2604959,21.5593388 L16.2604959,2.24132231 C16.2645476,1.50202519 15.9077115,0.807231119 15.3044628,0.379834711 C14.9537657,0.132877015 14.5353711,0.000223760306 14.1064463,0 L2.25322314,0 C1.04032,0.0260289608 0.0770351522,1.02834193 0.0991735537,2.24132231 L0.0991735537,21.5593388 C0.0764815208,22.7727032 1.03992576,23.7756256 2.25322314,23.8016529 L14.1064463,23.8016529 C14.5353711,23.8014291 14.9537657,23.6687759 15.3044628,23.4218182 C15.9081307,22.9943342 16.2650409,22.2990258 16.2604959,21.5593388 Z M14.1064463,23.0409917 L2.25322314,23.0409917 C1.45121927,23.0241796 0.814150664,22.3613798 0.829090909,21.5593388 L0.829090909,2.24132231 C0.814150664,1.43928139 1.45121927,0.776481599 2.25322314,0.759669421 L14.1064463,0.759669421 C14.9084501,0.776481599 15.5455188,1.43928139 15.5305785,2.24132231 L15.5305785,21.5593388 C15.5455188,22.3613798 14.9084501,23.0241796 14.1064463,23.0409917 Z" id="Path_1081" fill="#fefefe" fill-rule="nonzero"></path>
                <g id="rocket" transform="translate(2.409917, 3.968926)" fill="#fefefe">
                    <g id="Group_860" fill-rule="nonzero">
                        <g id="Group_859">
                            <path d="M11.077686,10.6284298 C10.8059502,8.97567398 9.99568067,7.45903347 8.77289256,6.31438017 C8.51166705,4.33404829 7.93089995,2.4092106 7.05322314,0.614876033 C6.85472541,0.237280607 6.46328495,0.000824273436 6.03669421,0.000824273436 C5.61010348,0.000824273436 5.21866302,0.237280607 5.02016529,0.614876033 C4.40772232,1.83557683 3.95092852,3.12832661 3.66049587,4.46280992 C3.52297521,5.05322314 3.40330579,5.67041322 3.3014876,6.31438017 C2.0783342,7.45889056 1.26770751,8.97554694 0.995702479,10.6284298 C0.975670594,10.7761722 1.0204347,10.9253662 1.11849284,11.037677 C1.21655099,11.1499878 1.35834374,11.2144664 1.50743802,11.2145455 L2.89090909,11.2145455 C2.89090909,11.3573554 2.88859504,11.501157 2.88396694,11.6459504 C2.88158331,11.8718529 2.96965659,12.0893238 3.12856215,12.249906 C3.28746772,12.4104882 3.5040023,12.500839 3.72991736,12.5008264 L4.05421488,12.5008264 L3.93917355,13.338843 L3.93917355,13.3507438 C3.92713317,13.4727952 3.96724907,13.5942489 4.04961654,13.6851176 C4.13198401,13.7759863 4.24892638,13.827801 4.37157025,13.8277686 L4.62644628,13.8277686 L4.23570248,15.2221488 C4.20101489,15.3433909 4.24337618,15.4735535 4.34277774,15.5511565 C4.4421793,15.6287594 4.57873053,15.6382742 4.68793388,15.5752066 L5.45553719,15.1368595 L5.6985124,15.4601653 C5.74851562,15.5272444 5.82355177,15.5712152 5.90651247,15.5820524 C5.98947318,15.5928896 6.07328654,15.5696694 6.13884298,15.517686 L6.55438017,15.1894215 L7.46082645,15.8112397 C7.56579781,15.8840852 7.70474904,15.8849177 7.81058574,15.8133352 C7.91642244,15.7417527 7.96737606,15.6124783 7.93884298,15.4879339 L7.56495868,13.8267769 L7.70578512,13.8267769 C7.82832802,13.8265016 7.94508086,13.7745954 8.02738072,13.6838013 C8.10968058,13.5930072 8.14990608,13.4717331 8.13818182,13.3497521 L8.13818182,13.3378512 L8.0231405,12.4998347 L8.34743802,12.4998347 C8.57335308,12.4998473 8.78988766,12.4094964 8.94879322,12.2489143 C9.10769879,12.0883321 9.19577206,11.8708612 9.19338843,11.6449587 C9.19338843,11.5008264 9.19107438,11.3570248 9.18644628,11.2135537 L10.5689256,11.2135537 C10.7180199,11.2134747 10.8598126,11.1489961 10.9578708,11.0366853 C11.0559289,10.9243745 11.100693,10.7751805 11.0806612,10.627438 L11.077686,10.6284298 Z M2.90380165,10.5947107 L1.62743802,10.5947107 C1.84176171,9.40786674 2.36822418,8.29948867 3.15272727,7.38347107 C3.02909091,8.39834711 2.9461157,9.46876033 2.90380165,10.5947107 Z M4.57884298,13.2079339 L4.67801653,12.5008264 L5.72528926,12.5008264 L5.72528926,13.2079339 L4.58280992,13.2079339 L4.57884298,13.2079339 Z M5.1738843,11.8809917 L5.1738843,9.66842975 C5.1738843,9.47672761 5.32928959,9.32132231 5.52099174,9.32132231 L6.55338843,9.32132231 C6.74509057,9.32132231 6.90049587,9.47672761 6.90049587,9.66842975 L6.90049587,11.88 L5.1738843,11.8809917 Z M6.71504132,14.5487603 C6.6033328,14.4718958 6.45459237,14.4767198 6.34809917,14.5606612 L6.00297521,14.8333884 L5.78677686,14.5447934 C5.69342965,14.4226052 5.52469585,14.3871711 5.39008264,14.4614876 L5.04099174,14.6598347 L5.27504132,13.8257851 L6.93322314,13.8257851 L7.16429752,14.8512397 L6.71504132,14.5487603 Z M7.17619835,13.2079339 L6.34710744,13.2079339 L6.34710744,12.4958678 L7.39438017,12.4958678 L7.49355372,13.2029752 L7.17619835,13.2079339 Z M9.16661157,10.5947107 C9.15933884,10.3804959 9.15041322,10.1689256 9.13983471,9.96 C9.13134504,9.78911123 8.98593009,9.65746075 8.81504132,9.66595041 C8.64415255,9.67444008 8.51250207,9.81985503 8.52099174,9.9907438 C8.53090909,10.1890909 8.53950413,10.3900826 8.54677686,10.593719 C8.55404959,10.7973554 8.56,11.0039669 8.5646281,11.2135537 C8.5646281,11.3590083 8.56694215,11.505124 8.57157025,11.6519008 C8.57209933,11.7122134 8.54851026,11.7702376 8.50604786,11.8130725 C8.46358546,11.8559074 8.4057694,11.8800023 8.34545455,11.88 L7.52132231,11.88 L7.52132231,9.66842975 C7.52077567,9.13462894 7.08818098,8.70203425 6.55438017,8.7014876 L5.52099174,8.7014876 C4.98719093,8.70203425 4.55459623,9.13462894 4.55404959,9.66842975 L4.55404959,11.88 L3.72991736,11.88 C3.6696025,11.8800023 3.61178644,11.8559074 3.56932404,11.8130725 C3.52686164,11.7702376 3.50327258,11.7122134 3.50380165,11.6519008 C3.50380165,11.5041322 3.50380165,11.3543802 3.5107438,11.2135537 C3.5153719,11.0033058 3.52132231,10.7966942 3.52859504,10.593719 C3.54049587,10.2631405 3.55570248,9.94280992 3.57421488,9.63272727 C3.64661157,8.41586777 3.77256198,7.33487603 3.92231405,6.3768595 C4.17459289,4.47560339 4.73077487,2.62724425 5.56958678,0.902479339 C5.66087569,0.728454168 5.84117024,0.619436494 6.03768595,0.619436494 C6.23420166,0.619436494 6.41449621,0.728454168 6.50578512,0.902479339 C7.34634043,2.62496628 7.90325942,4.47187442 8.15504132,6.37190083 C8.21057851,6.72165289 8.26181818,7.08826446 8.30876033,7.47173554 C8.32264463,7.58413223 8.33586777,7.69785124 8.34842975,7.81289256 C8.36065353,7.92290676 8.43064065,8.01804276 8.53202764,8.06246374 C8.63341462,8.10688472 8.75079837,8.09384208 8.83996155,8.02824886 C8.92912473,7.96265564 8.97652134,7.854477 8.96429752,7.74446281 C8.95107438,7.62743802 8.93752066,7.51173554 8.92363636,7.39735537 L8.92363636,7.3814876 C9.70914014,8.29800135 10.2357021,9.40761604 10.4489256,10.5957025 L9.16661157,10.5947107 Z" id="Path_745"></path>
                        </g>
                    </g>
                    <g id="Group_862" transform="translate(3.292562, 4.083967)" fill-rule="nonzero">
                        <g id="Group_861">
                            <path d="M2.74214876,0.000991735537 C1.77432679,0.000991735537 0.989752066,0.78556646 0.989752066,1.75338843 C0.989752066,2.7212104 1.77432679,3.50578512 2.74214876,3.50578512 C3.70997073,3.50578512 4.49454545,2.7212104 4.49454545,1.75338843 C4.49345238,0.786019587 3.7095176,0.00208480872 2.74214876,0.000991735537 Z M2.74214876,2.88694215 C2.11665205,2.88694215 1.60958678,2.37987688 1.60958678,1.75438017 C1.60958678,1.12888345 2.11665205,0.621818182 2.74214876,0.621818182 C3.36764547,0.621818182 3.87471074,1.12888345 3.87471074,1.75438017 C3.8730736,2.37903676 3.36680655,2.8848605 2.74214876,2.88595041 L2.74214876,2.88694215 Z" id="Path_746"></path>
                        </g>
                    </g>
                    <g id="Group_864" transform="translate(4.601653, 5.279008)">
                        <g id="Group_863">
                            <path d="M1.80694215,0.0436363636 C1.73645997,0.0015181559 1.65212742,-0.010859206 1.57251518,0.00922986625 C1.49290293,0.0293189385 1.42453961,0.0802270321 1.38247934,0.150743802 L1.03636364,0.730909091 C0.979496394,0.82586497 0.977607256,0.943946135 1.03140784,1.04067255 C1.08520843,1.13739896 1.18652515,1.19807558 1.29719298,1.19984611 C1.4078608,1.20161664 1.51106665,1.14421209 1.56793388,1.0492562 L1.91404959,0.469090909 C1.95648338,0.398522718 1.9690387,0.31395121 1.94893604,0.234098978 C1.92883338,0.154246745 1.87773104,0.0857009429 1.80694215,0.0436363636 Z" id="Path_747"></path>
                        </g>
                    </g>
                    <g id="Group_866" transform="translate(7.457851, 7.568926)">
                        <g id="Group_865">
                            <path d="M1.60561983,1.24066116 C1.60148909,1.22096953 1.59551226,1.20171087 1.5877686,1.1831405 C1.57992861,1.16440482 1.5702971,1.14647029 1.55900826,1.12958678 C1.53657109,1.09546353 1.50758059,1.06613594 1.47371901,1.04330579 C1.45686847,1.03196217 1.43892842,1.0223277 1.42016529,1.01454545 C1.4016093,1.00676218 1.38234682,1.00078417 1.36264463,0.996694215 C1.32271749,0.988626763 1.28158003,0.988626763 1.24165289,0.996694215 C1.22162542,1.00077022 1.20203252,1.00674771 1.1831405,1.01454545 C1.1643913,1.02235704 1.14645408,1.03198999 1.12958678,1.04330579 C1.11314152,1.05428822 1.09785621,1.06691521 1.08396694,1.08099174 C1.06960878,1.09525203 1.0566565,1.11086119 1.04528926,1.12760331 C1.03403677,1.14450864 1.02440718,1.1624396 1.01652893,1.18115702 C1.00872222,1.19970448 1.00274349,1.21896927 0.998677686,1.23867769 C0.994674485,1.258593 0.992681016,1.27885993 0.992727273,1.29917355 C0.993113688,1.38139141 1.02589689,1.46014235 1.08396694,1.51834711 L1.08892562,1.51834711 C1.10176732,1.53081688 1.11570816,1.54210232 1.13057851,1.55206612 C1.14744251,1.5633874 1.16538029,1.57302065 1.18413223,1.58082645 C1.20302425,1.58862419 1.22261716,1.59460168 1.24264463,1.59867769 C1.2825495,1.6069648 1.32373149,1.6069648 1.36363636,1.59867769 C1.38334321,1.59460578 1.40260742,1.58862724 1.42115702,1.58082645 C1.43992299,1.57305019 1.45786363,1.5634154 1.47471074,1.55206612 C1.49186862,1.54084796 1.50782114,1.52788654 1.52231405,1.51338843 C1.53681216,1.49889552 1.54977358,1.482943 1.56099174,1.46578512 C1.57220453,1.44885603 1.58183208,1.43092886 1.58975207,1.4122314 C1.59750129,1.39366304 1.60347827,1.37440386 1.60760331,1.35471074 C1.61589042,1.31480587 1.61589042,1.27362388 1.60760331,1.23371901 L1.60561983,1.24066116 Z" id="Path_748"></path>
                        </g>
                    </g>
                </g>
            </g>
        </g>
    </g>
</svg>
