<svg xmlns="http://www.w3.org/2000/svg" width="23.016" height="26.426" viewBox="0 0 23.016 26.426">
    <defs>
        <style>
            .cls-1,.cls-4{fill:rgba(124,124,124,.22)}.cls-1{clip-rule:evenodd}.cls-2{fill:none}.cls-3{clip-path:url(#clip-path)}.cls-5{clip-path:url(#clip-path-2)}.cls-6{fill:#7c7c7c}
        </style>
        <clipPath id="clip-path">
            <path id="Path_1352" d="M16-496h16.809l2.078 2.131 2.424 2.38v21.914H16z" class="cls-1" data-name="Path 1352" transform="translate(-16 496)"/>
        </clipPath>
        <clipPath id="clip-path-2">
            <path id="Path_1354" d="M.852-486.208v16.634h21.311v-16.634a2.123 2.123 0 0 0 .852-1.694 2.122 2.122 0 0 0-.852-1.694v-1.892L17.651-496H.852v6.4A2.121 2.121 0 0 0 0-487.9a2.121 2.121 0 0 0 .852 1.692zm20.458 15.781H1.7v-15.387a2.134 2.134 0 0 0 .426.043h.852a2.135 2.135 0 0 0 2.088-1.7h.944a2.135 2.135 0 0 0 2.088 1.7h.852a2.135 2.135 0 0 0 2.088-1.7h.939a2.135 2.135 0 0 0 2.088 1.7h.852a2.135 2.135 0 0 0 2.088-1.7h.939a2.135 2.135 0 0 0 2.088 1.7h.852a2.134 2.134 0 0 0 .426-.043zM6.9-488.328a1.277 1.277 0 0 1 1.2-.852h.852a1.277 1.277 0 0 1 1.2.852h-.775v.852h.774a1.277 1.277 0 0 1-1.2.852H8.1a1.277 1.277 0 0 1-1.2-.852h.774v-.852zm5.967 0a1.277 1.277 0 0 1 1.2-.852h.852a1.277 1.277 0 0 1 1.2.852h-.774v.852h.774a1.277 1.277 0 0 1-1.2.852h-.852a1.277 1.277 0 0 1-1.2-.852h.774v-.852zm8.02 1.7h-.852a1.277 1.277 0 0 1-1.2-.852h.774v-.852h-.774a1.277 1.277 0 0 1 1.2-.852h.852a1.28 1.28 0 0 1 1.279 1.279 1.28 1.28 0 0 1-1.281 1.282zm-2.987-7.917l2.807 2.807H17.9zm-16.2-.6h15.349v4.262h4.262v.9a2.134 2.134 0 0 0-.426-.043h-.852a2.135 2.135 0 0 0-2.088 1.7h-.939a2.135 2.135 0 0 0-2.088-1.7h-.852a2.135 2.135 0 0 0-2.088 1.7h-.939a2.135 2.135 0 0 0-2.088-1.7H8.1a2.135 2.135 0 0 0-2.088 1.7h-.94a2.135 2.135 0 0 0-2.088-1.7h-.853a2.134 2.134 0 0 0-.426.043zm.426 5.967h.852a1.277 1.277 0 0 1 1.2.852H3.41v.852h.774a1.277 1.277 0 0 1-1.2.852h-.853A1.28 1.28 0 0 1 .852-487.9a1.28 1.28 0 0 1 1.279-1.281zm13.213 9.455v-1.357a3.841 3.841 0 0 0-3.836-3.836 3.841 3.841 0 0 0-3.836 3.836v1.357a1.277 1.277 0 0 0-.852 1.2v5.967a1.28 1.28 0 0 0 1.285 1.277h6.819a1.28 1.28 0 0 0 1.279-1.279v-5.967a1.277 1.277 0 0 0-.854-1.2zm-3.836-4.341a2.987 2.987 0 0 1 2.984 2.984v1.279H8.524v-1.279a2.987 2.987 0 0 1 2.984-2.986zm3.836 11.508a.427.427 0 0 1-.426.426H8.1a.427.427 0 0 1-.426-.426v-5.967a.427.427 0 0 1 .426-.426h6.819a.427.427 0 0 1 .426.426zm-3.831-5.544a1.28 1.28 0 0 0-1.279 1.279 1.277 1.277 0 0 0 .852 1.2v2.636h.852v-2.636a1.277 1.277 0 0 0 .852-1.2 1.28 1.28 0 0 0-1.277-1.279zm0 1.7a.427.427 0 0 1-.426-.426.427.427 0 0 1 .426-.426.427.427 0 0 1 .426.426.427.427 0 0 1-.426.432zm4.692-17.043H2.557v-.852H16.2zm-1.7 1.7H2.557v-.852h11.934zm.852-.852h.848v.852h-.852z" class="cls-2" data-name="Path 1354" transform="translate(0 496)"/>
        </clipPath>
    </defs>
    <g id="Group_2442" data-name="Group 2442" transform="translate(0 496)">
        <g id="Group_2432" class="cls-3" data-name="Group 2432" transform="translate(.852 -496)">
            <path id="Path_1351" d="M11-501h21.844v26.958H11z" class="cls-4" data-name="Path 1351" transform="translate(-11.266 500.734)"/>
        </g>
        <g id="Group_2433" class="cls-5" data-name="Group 2433" transform="translate(0 -496)">
            <path id="Path_1353" d="M-5-501h23.548v26.958H-5z" class="cls-6" data-name="Path 1353" transform="translate(4.734 500.734)"/>
        </g>
    </g>
</svg>
