<svg xmlns="http://www.w3.org/2000/svg" width="24.102" height="24.1" viewBox="0 0 24.102 24.1">
  <defs>
    <style>
      .cls-1, .cls-2 {
        fill: rgba(124,124,124,0.42);
        stroke: #7c7c7c;
      }

      .cls-1 {
        stroke-width: 0.6px;
      }

      .cls-2 {
        stroke-width: 0.5px;
      }
    </style>
  </defs>
  <g id="Group_2438" data-name="Group 2438" transform="translate(17434.801 19366.3)">
    <path id="Path_1309" data-name="Path 1309" class="cls-1" d="M23.426,10.445a11.76,11.76,0,0,1-.005,2.672.654.654,0,0,1-.688.576l-.145,0a2.631,2.631,0,0,0-2.4,1.593,2.6,2.6,0,0,0,.658,2.931.652.652,0,0,1,.07.893,11.7,11.7,0,0,1-1.9,1.879.657.657,0,0,1-.887-.074,2.712,2.712,0,0,0-2.91-.662,2.612,2.612,0,0,0-1.608,2.506.654.654,0,0,1-.582.673,11.695,11.695,0,0,1-2.644-.007.653.653,0,0,1-.577-.686,2.606,2.606,0,0,0-1.59-2.55,2.7,2.7,0,0,0-2.929.659.653.653,0,0,1-.894.071,11.669,11.669,0,0,1-1.859-1.881.653.653,0,0,1,.071-.885,2.613,2.613,0,0,0,.657-2.906,2.577,2.577,0,0,0-2.418-1.61.777.777,0,0,1-.771-.578,11.77,11.77,0,0,1,.005-2.672.639.639,0,0,1,.679-.577A2.717,2.717,0,0,0,3.314,8.218a2.6,2.6,0,0,0-.657-2.932.654.654,0,0,1-.07-.893,11.671,11.671,0,0,1,1.9-1.879.655.655,0,0,1,.887.075,2.716,2.716,0,0,0,2.909.662A2.614,2.614,0,0,0,9.892.744a.654.654,0,0,1,.582-.672,11.731,11.731,0,0,1,2.643.007.652.652,0,0,1,.577.686,2.61,2.61,0,0,0,1.587,2.551,2.708,2.708,0,0,0,2.931-.658.654.654,0,0,1,.893-.072,11.627,11.627,0,0,1,1.861,1.88.653.653,0,0,1-.071.886,2.594,2.594,0,0,0,1.776,4.516A.765.765,0,0,1,23.426,10.445ZM11.856,19.336a7.48,7.48,0,1,0,0-14.961,7.854,7.854,0,0,0-1.654.183,7.481,7.481,0,0,0,1.654,14.777Z" transform="translate(-17434.5 -19366)"/>
    <g id="Group_2378" data-name="Group 2378" transform="translate(-17427.646 -19359.096)">
      <path id="Path_1312" data-name="Path 1312" class="cls-2" d="M5.06,10.121A5.06,5.06,0,1,0,0,5.06,5.06,5.06,0,0,0,5.06,10.121Z" transform="translate(0 0)"/>
    </g>
  </g>
</svg>
