<?xml version="1.0" encoding="UTF-8"?>
<svg width="24px" height="29px" viewBox="0 0 24 29" version="1.1" xmlns="http://www.w3.org/2000/svg" xmlns:xlink="http://www.w3.org/1999/xlink">
    <!-- Generator: Sketch 53.1 (72631) - https://sketchapp.com -->
    <title>top-secret copy</title>
    <desc>Created with Sketch.</desc>
    <g id="Page-1" stroke="none" stroke-width="1" fill="none" fill-rule="evenodd" fill-opacity="0.42">
        <g id="top-secret-copy" transform="translate(1.000000, 1.000000)" fill="#fefefe" fill-rule="nonzero" stroke="#fefefe" stroke-width="0.5">
            <path d="M12.71875,8.64647532 C12.71875,7.85925329 12.024794,7.21875 11.171875,7.21875 C10.318956,7.21875 9.625,7.85905093 9.625,8.64647532 L9.625,11.6875 L12.7185307,11.6875 L12.7185307,8.64647532 L12.71875,8.64647532 Z" id="Path"></path>
            <path d="M21.4718776,1.58662841 C21.2901158,1.52198646 16.9503722,0 11,0 C5.04962779,0 0.709884189,1.52198646 0.52791562,1.58662841 C0.211538475,1.69954468 0,1.99975681 0,2.33643364 L0,22.1868999 C0,22.4748881 0.155500414,22.7405002 0.406534352,22.8811794 C0.483664199,22.9244812 2.31823823,23.9500506 4.52481387,24.9932308 C7.56038045,26.4284065 9.7390405,27.15625 11,27.15625 C12.2609595,27.15625 14.4396195,26.4284065 17.4751861,24.9932308 C19.681555,23.9500506 21.5163358,22.9244812 21.5932589,22.8811794 C21.8442928,22.7405002 22,22.4748881 22,22.1868999 L22,2.33643364 C22,1.99975681 21.7884615,1.69954468 21.4718776,1.58662841 Z M5.36290324,12.6391592 C5.36290324,12.1999254 5.71836231,11.8435659 6.1569479,11.8435659 L6.89433415,11.8435659 L6.89433415,8.73039291 C6.89433415,6.45839405 8.73263029,4.61671997 11,4.61671997 C13.2675765,4.61671997 15.1056659,6.45839405 15.1056659,8.73039291 L15.1056659,11.8437731 L15.8430521,11.8437731 C16.2816377,11.8437731 16.6370968,12.1999254 16.6370968,12.6393664 L16.6370968,19.1331892 C16.6370968,19.5726302 16.2816377,19.9287825 15.8430521,19.9287825 L6.1569479,19.9287825 C5.71836231,19.9287825 5.36290324,19.5726302 5.36290324,19.1331892 L5.36290324,12.6391592 Z" id="Shape"></path>
            <path d="M11,14.09375 C10.6202637,14.09375 10.3125,14.434823 10.3125,14.8552152 L10.3125,16.7697848 C10.3125,17.1903753 10.6202637,17.53125 11,17.53125 C11.3795573,17.53125 11.6875,17.1903753 11.6875,16.7697848 L11.6875,14.8552152 C11.6875,14.4346247 11.3795573,14.09375 11,14.09375 L11,14.09375 Z" id="Path"></path>
        </g>
    </g>
</svg>
