<svg id="ic_images" xmlns="http://www.w3.org/2000/svg" width="25" height="25" viewBox="0 0 25 25">
  <defs>
    <style>
      .cls-1 {
        fill: #333;
      }

      .cls-2 {
        fill: none;
        stroke: #333;
        stroke-linecap: round;
        stroke-miterlimit: 10;
      }
    </style>
  </defs>
  <path id="Path_53" data-name="Path 53" class="cls-1" d="M12.167,2.833a9.333,9.333,0,1,1-9.333,9.333,9.276,9.276,0,0,1,9.333-9.333m0-1.333A10.667,10.667,0,1,0,22.833,12.167,10.7,10.7,0,0,0,12.167,1.5Z" transform="translate(0.333 0.333)"/>
  <path id="Path_54" data-name="Path 54" class="cls-1" d="M10.833,6.833a3.929,3.929,0,0,1,4,4,3.929,3.929,0,0,1-4,4,3.929,3.929,0,0,1-4-4,3.929,3.929,0,0,1,4-4m0-1.333a5.333,5.333,0,1,0,5.333,5.333A5.349,5.349,0,0,0,10.833,5.5Z" transform="translate(1.667 1.667)"/>
  <line id="Line_1" data-name="Line 1" class="cls-2" x2="7.2" transform="translate(17.3 12.5)"/>
  <line id="Line_2" data-name="Line 2" class="cls-2" x2="7.2" transform="translate(0.5 12.5)"/>
  <line id="Line_3" data-name="Line 3" class="cls-2" x2="5.067" y2="5.067" transform="translate(15.967 15.967)"/>
  <line id="Line_4" data-name="Line 4" class="cls-2" x2="5.067" y2="5.067" transform="translate(3.967 3.967)"/>
  <line id="Line_5" data-name="Line 5" class="cls-2" x1="5.2" y2="5.2" transform="translate(3.967 15.833)"/>
  <line id="Line_6" data-name="Line 6" class="cls-2" x1="5.2" y2="5.2" transform="translate(15.833 3.967)"/>
  <path id="Path_55" data-name="Path 55" class="cls-2" d="M9.5,13.1v7.2" transform="translate(3 4.2)"/>
  <line id="Line_7" data-name="Line 7" class="cls-2" y2="7.067" transform="translate(12.5 0.5)"/>
  <path id="Path_56" data-name="Path 56" class="cls-2" d="M6.9,12.1" transform="translate(2.133 3.867)"/>
  <path id="Path_57" data-name="Path 57" class="cls-2" d="M12.1,6.9" transform="translate(3.867 2.133)"/>
  <path id="Path_58" data-name="Path 58" class="cls-2" d="M6.9,6.9" transform="translate(2.133 2.133)"/>
  <path id="Path_59" data-name="Path 59" class="cls-2" d="M12,12" transform="translate(3.833 3.833)"/>
</svg>
