<svg xmlns="http://www.w3.org/2000/svg" viewBox="0 0 24.006 20.596">
  <defs>
    <style>
      .cls-1 {
        fill: #fff;
      }
    </style>
  </defs>
  <g id="private" transform="translate(0 -33.927)">
    <g id="Group_1922" data-name="Group 1922" transform="translate(0 33.926)">
      <path id="Path_1118" data-name="Path 1118" class="cls-1" d="M23.841,43.721a22.762,22.762,0,0,0-5.185-4.937L22.039,35.4a.857.857,0,1,0-1.191-1.233l-.021.021-3.7,3.692A11.086,11.086,0,0,0,12,36.509C5.487,36.509.378,43.426.164,43.72a.857.857,0,0,0,0,1.008,22.762,22.762,0,0,0,5.185,4.937L1.966,53.049a.857.857,0,1,0,1.191,1.233l.021-.021,3.7-3.692A11.087,11.087,0,0,0,12,51.94c6.516,0,11.624-6.917,11.839-7.212A.857.857,0,0,0,23.841,43.721ZM6.6,48.422a21.346,21.346,0,0,1-4.646-4.2c1.262-1.529,5.355-6,10.053-6a9.075,9.075,0,0,1,3.848.943l-1.488,1.488A4.28,4.28,0,0,0,8.43,46.587Zm7.722-5.3a2.53,2.53,0,0,1,.257,1.1A2.572,2.572,0,0,1,12,46.8a2.53,2.53,0,0,1-1.1-.257Zm-4.629,2.2a2.53,2.53,0,0,1-.257-1.1A2.572,2.572,0,0,1,12,41.653a2.53,2.53,0,0,1,1.1.257ZM12,50.226a9.075,9.075,0,0,1-3.848-.943l1.488-1.488a4.28,4.28,0,0,0,5.933-5.933l1.835-1.835a21.348,21.348,0,0,1,4.646,4.2C20.793,45.753,16.7,50.226,12,50.226Z" transform="translate(0 -33.926)"/>
    </g>
  </g>
</svg>
