<svg id="strongbox" xmlns="http://www.w3.org/2000/svg" viewBox="0 0 24.002 24.002">
  <defs>
    <style>
      .cls-1 {
        fill: #fff;
      }
    </style>
  </defs>
  <path id="Path_1119" data-name="Path 1119" class="cls-1" d="M21.292,0H2.71A2.713,2.713,0,0,0,0,2.71V18.969a2.71,2.71,0,0,0,1.549,2.445v2.2A.387.387,0,0,0,1.936,24H5.807a.387.387,0,0,0,.387-.387V21.679H17.808v1.936A.387.387,0,0,0,18.2,24h3.871a.387.387,0,0,0,.387-.387v-2.2A2.71,2.71,0,0,0,24,18.969V2.71A2.713,2.713,0,0,0,21.292,0ZM5.42,23.228h-3.1v-1.58c.127.018,3.1.031,3.1.031Zm16.259,0h-3.1V21.679s2.97-.013,3.1-.031Zm1.549-4.258A1.938,1.938,0,0,1,21.292,20.9H2.71A1.938,1.938,0,0,1,.774,18.969V2.71A1.938,1.938,0,0,1,2.71.774H21.292A1.938,1.938,0,0,1,23.228,2.71Zm0,0"/>
  <path id="Path_1120" data-name="Path 1120" class="cls-1" d="M201.161,250a1.161,1.161,0,1,0,1.161,1.161A1.161,1.161,0,0,0,201.161,250Zm0,1.549a.387.387,0,1,1,.387-.387A.387.387,0,0,1,201.161,251.549Zm0,0" transform="translate(-192.257 -240.322)"/>
  <path id="Path_1121" data-name="Path 1121" class="cls-1" d="M119.18,161.825a.387.387,0,0,0,0-.547l-1.161-1.161a.387.387,0,0,0-.547,0l-1.936,1.936a.347.347,0,0,0-.021.031,2.666,2.666,0,0,0-1.733,0,.345.345,0,0,0-.021-.031l-1.936-1.936a.387.387,0,0,0-.547,0l-1.161,1.161a.387.387,0,0,0,0,.547l1.936,1.936.031.021a2.665,2.665,0,0,0,0,1.733l-.031.021-1.936,1.936a.387.387,0,0,0,0,.547l1.161,1.161a.387.387,0,0,0,.547,0l1.936-1.936a.345.345,0,0,0,.021-.031,2.666,2.666,0,0,0,1.733,0,.347.347,0,0,0,.021.031l1.936,1.936a.387.387,0,0,0,.547,0l1.161-1.161a.387.387,0,0,0,0-.547l-1.936-1.936-.031-.021a2.665,2.665,0,0,0,0-1.733l.031-.021Zm-8.243-.274.614-.614,1.515,1.515a2.732,2.732,0,0,0-.614.614Zm.614,6.808-.614-.614,1.515-1.515a2.731,2.731,0,0,0,.614.614Zm1.161-3.711a1.936,1.936,0,1,1,1.936,1.936A1.936,1.936,0,0,1,112.713,164.648Zm5.647,3.1-.614.614-1.515-1.515a2.731,2.731,0,0,0,.614-.614Zm-2.129-5.293,1.515-1.515.614.614-1.515,1.515A2.731,2.731,0,0,0,116.23,162.453Zm0,0" transform="translate(-105.744 -153.809)"/>
  <path id="Path_1122" data-name="Path 1122" class="cls-1" d="M374.258,110h-3.871a.387.387,0,1,0,0,.774h3.871a.387.387,0,0,0,0-.774Zm0,0" transform="translate(-355.676 -105.742)"/>
  <path id="Path_1123" data-name="Path 1123" class="cls-1" d="M402.323,150h-1.936a.387.387,0,0,0,0,.774h1.936a.387.387,0,1,0,0-.774Zm0,0" transform="translate(-384.515 -144.193)"/>
  <path id="Path_1124" data-name="Path 1124" class="cls-1" d="M79.744,63.1h-.387V62.71A2.713,2.713,0,0,0,76.647,60H62.71A2.713,2.713,0,0,0,60,62.71V74.324a2.713,2.713,0,0,0,2.71,2.71H76.647a2.713,2.713,0,0,0,2.71-2.71v-.387h.387a.387.387,0,0,0,.387-.387V69.678a.387.387,0,0,0-.387-.387h-.387V67.743h.387a.387.387,0,0,0,.387-.387V63.484A.387.387,0,0,0,79.744,63.1Zm-.387,10.065h-.774v-3.1h.774ZM78.2,69.291a.387.387,0,0,0-.387.387v3.871a.387.387,0,0,0,.387.387h.387v.387a1.938,1.938,0,0,1-1.936,1.936H62.71a1.938,1.938,0,0,1-1.936-1.936V62.71a1.938,1.938,0,0,1,1.936-1.936H76.647a1.938,1.938,0,0,1,1.936,1.936V63.1H78.2a.387.387,0,0,0-.387.387v3.871a.387.387,0,0,0,.387.387h.387v1.549Zm1.161-2.323h-.774v-3.1h.774Zm0,0" transform="translate(-57.677 -57.677)"/>
</svg>
