<svg xmlns="http://www.w3.org/2000/svg" width="12.395" height="13.766" viewBox="0 0 12.395 13.766">
    <defs>
        <style>
            .cls-1,.cls-3{fill:rgba(253,50,89,.42)}.cls-2{clip-path:url(#clip-path)}.cls-3{stroke:#fd3259;stroke-width:.4px}
        </style>
        <clipPath id="clip-path">
            <path id="Path_1400" d="M12.221-11.65l-1.289 2.4A4.255 4.255 0 0 0 7-11.886a4.254 4.254 0 0 0-4.258 4.254A4.254 4.254 0 0 0 7-3.378a4.255 4.255 0 0 0 3.9-2.546l1.315 2.429a.37.37 0 0 1-.06.107 6.636 6.636 0 0 1-1.077 1.058.371.371 0 0 1-.5-.041 1.486 1.486 0 0 0-1.652-.374 1.465 1.465 0 0 0-.92 1.375.442.442 0 0 1-.329.438 6.693 6.693 0 0 1-1.52 0 .363.363 0 0 1-.327-.388 1.545 1.545 0 0 0-.9-1.454 1.481 1.481 0 0 0-1.67.374.372.372 0 0 1-.508.04 6.637 6.637 0 0 1-1.069-1.082.373.373 0 0 1 .042-.5A1.544 1.544 0 0 0 2.1-5.6a1.487 1.487 0 0 0-1.424-.915.372.372 0 0 1-.382-.331 6.671 6.671 0 0 1 0-1.5.371.371 0 0 1 .39-.328 1.484 1.484 0 0 0 1.451-.9 1.54 1.54 0 0 0-.374-1.667.372.372 0 0 1-.041-.508 6.612 6.612 0 0 1 1.069-1.059.371.371 0 0 1 .5.041 1.488 1.488 0 0 0 1.652.374 1.484 1.484 0 0 0 .916-1.384.435.435 0 0 1 .329-.43 6.688 6.688 0 0 1 1.52 0 .372.372 0 0 1 .328.391v.083a1.5 1.5 0 0 0 .906 1.367 1.481 1.481 0 0 0 1.667-.374.371.371 0 0 1 .508-.04 6.652 6.652 0 0 1 1.073 1.08.381.381 0 0 1 .033.05zM9.686-7.617a2.7 2.7 0 0 1-2.7 2.7 2.7 2.7 0 0 1-2.7-2.7 2.7 2.7 0 0 1 2.7-2.7 2.7 2.7 0 0 1 2.7 2.7z" class="cls-1" data-name="Path 1400" transform="translate(-.254 14.254)"/>
        </clipPath>
    </defs>
    <g id="Group_2559" data-name="Group 2559" transform="translate(.199 .201)">
        <g id="Group_2516" class="cls-2" data-name="Group 2516">
            <path id="Path_1399" d="M-4.746 4.166v-23.42h22.023v23.42z" class="cls-1" data-name="Path 1399" transform="translate(-.281 14.226)"/>
        </g>
        <g id="Group_2517" data-name="Group 2517" transform="rotate(-90 6.682 6.682)">
            <path id="Path_1401" d="M10.761 11.968l-2.4-1.289a4.254 4.254 0 1 0-3.324-.039L2.6 11.954a.37.37 0 0 1-.107-.06 6.636 6.636 0 0 1-1.057-1.069.371.371 0 0 1 .041-.5 1.486 1.486 0 0 0 .374-1.652 1.465 1.465 0 0 0-1.371-.92.442.442 0 0 1-.438-.329 6.693 6.693 0 0 1 0-1.52.363.363 0 0 1 .386-.328 1.545 1.545 0 0 0 1.454-.9 1.481 1.481 0 0 0-.374-1.667.372.372 0 0 1-.04-.508 6.637 6.637 0 0 1 1.084-1.072.373.373 0 0 1 .5.042 1.544 1.544 0 0 0 1.654.377A1.487 1.487 0 0 0 5.625.423a.372.372 0 0 1 .331-.382 6.671 6.671 0 0 1 1.5 0 .371.371 0 0 1 .328.39 1.484 1.484 0 0 0 .9 1.451 1.54 1.54 0 0 0 1.667-.374.372.372 0 0 1 .508-.041 6.612 6.612 0 0 1 1.059 1.069.371.371 0 0 1-.041.5 1.475 1.475 0 0 0 1.01 2.568.435.435 0 0 1 .43.329 6.687 6.687 0 0 1 0 1.52.372.372 0 0 1-.391.328h-.083a1.5 1.5 0 0 0-1.367.906 1.481 1.481 0 0 0 .374 1.667.371.371 0 0 1 .04.508 6.653 6.653 0 0 1-1.081 1.069.381.381 0 0 1-.048.037zM6.727 9.432a2.7 2.7 0 1 1 2.7-2.7 2.7 2.7 0 0 1-2.7 2.7z" class="cls-3" data-name="Path 1401"/>
        </g>
    </g>
</svg>
