<svg xmlns="http://www.w3.org/2000/svg" width="15.25" height="13.246" viewBox="0 0 15.25 13.246">
    <defs>
        <style>
            .cls-1,.cls-2{fill:rgba(36,213,216,.42);stroke:#24d5d8}.cls-1{stroke-width:.3px}.cls-2{stroke-width:.2px}
        </style>
    </defs>
    <g id="Group_2553" data-name="Group 2553" transform="translate(12661.213 21045.213)">
        <g id="Group_2520" data-name="Group 2520" transform="translate(4773.438 -1679.062)">
            <path id="Path_1309" d="M7.97 3.554a4 4 0 0 1 0 .909.223.223 0 0 1-.234.2h-.051a.9.9 0 0 0-.818.542.886.886 0 0 0 .224 1 .222.222 0 0 1 .024.3 3.98 3.98 0 0 1-.647.639.223.223 0 0 1-.3-.025.923.923 0 0 0-.99-.225.889.889 0 0 0-.547.852.222.222 0 0 1-.2.229 3.979 3.979 0 0 1-.9 0 .222.222 0 0 1-.2-.234.887.887 0 0 0-.531-.874.92.92 0 0 0-1 .224.222.222 0 0 1-.3.024 3.97 3.97 0 0 1-.632-.64.222.222 0 0 1 .024-.3.889.889 0 0 0 .224-.989.877.877 0 0 0-.823-.548.264.264 0 0 1-.262-.2 4 4 0 0 1 0-.909.217.217 0 0 1 .231-.2.924.924 0 0 0 .87-.54A.886.886 0 0 0 .9 1.8a.222.222 0 0 1-.024-.3 3.971 3.971 0 0 1 .651-.645.223.223 0 0 1 .3.025.924.924 0 0 0 .99.225.889.889 0 0 0 .549-.852.222.222 0 0 1 .2-.229 3.991 3.991 0 0 1 .9 0 .222.222 0 0 1 .2.233.888.888 0 0 0 .54.868A.921.921 0 0 0 6.2.9a.222.222 0 0 1 .3-.02 3.956 3.956 0 0 1 .633.64.222.222 0 0 1-.024.3.883.883 0 0 0 .6 1.536.26.26 0 0 1 .261.198zM4.034 6.579a2.545 2.545 0 0 0 0-5.09 2.672 2.672 0 0 0-.563.062 2.545 2.545 0 0 0 .563 5.028z" class="cls-1" data-name="Path 1309" transform="translate(-17434.5 -19366)"/>
            <g id="Group_2378" data-name="Group 2378" transform="translate(-17432.01 -19363.52)">
                <path id="Path_1312" d="M1.56 3.12A1.56 1.56 0 1 0 0 1.56a1.56 1.56 0 0 0 1.56 1.56z" class="cls-1" data-name="Path 1312"/>
            </g>
        </g>
        <g id="Group_2521" data-name="Group 2521" transform="translate(4779.434 -1671.066)">
            <path id="Path_1309-2" d="M4.984 2.222a2.5 2.5 0 0 1 0 .569.139.139 0 0 1-.146.123h-.032a.56.56 0 0 0-.511.339.554.554 0 0 0 .14.624.139.139 0 0 1 .015.19 2.489 2.489 0 0 1-.4.4.14.14 0 0 1-.189-.016.577.577 0 0 0-.619-.141.556.556 0 0 0-.342.533.139.139 0 0 1-.124.143 2.488 2.488 0 0 1-.562 0 .139.139 0 0 1-.123-.146.554.554 0 0 0-.338-.543.575.575 0 0 0-.623.14.139.139 0 0 1-.19.015 2.483 2.483 0 0 1-.4-.4.139.139 0 0 1 .015-.188.556.556 0 0 0 .14-.618A.548.548 0 0 0 .18 2.9a.165.165 0 0 1-.164-.123 2.5 2.5 0 0 1 0-.569.136.136 0 0 1 .144-.123.578.578 0 0 0 .544-.338.554.554 0 0 0-.14-.624A.139.139 0 0 1 .55.935a2.483 2.483 0 0 1 .4-.4.139.139 0 0 1 .189.016.578.578 0 0 0 .619.141A.556.556 0 0 0 2.1.158a.139.139 0 0 1 .128-.143 2.5 2.5 0 0 1 .562 0 .139.139 0 0 1 .123.146.555.555 0 0 0 .338.543.576.576 0 0 0 .624-.14.139.139 0 0 1 .19-.014 2.474 2.474 0 0 1 .4.4.139.139 0 0 1-.015.189.552.552 0 0 0 .378.961.163.163 0 0 1 .156.122zM2.522 4.114a1.592 1.592 0 0 0 0-3.183 1.671 1.671 0 0 0-.351.039 1.592 1.592 0 0 0 .352 3.144z" class="cls-2" data-name="Path 1309" transform="translate(-17434.5 -19366)"/>
            <g id="Group_2378-2" data-name="Group 2378" transform="translate(-17432.941 -19364.447)">
                <path id="Path_1312-2" d="M.976 1.951A.976.976 0 1 0 0 .976a.976.976 0 0 0 .976.975z" class="cls-2" data-name="Path 1312"/>
            </g>
        </g>
        <g id="Group_2522" data-name="Group 2522" transform="translate(4782.435 -1677.068)">
            <path id="Path_1309-3" d="M5.985 2.669a3 3 0 0 1 0 .683.167.167 0 0 1-.176.147h-.038a.672.672 0 0 0-.614.407.665.665 0 0 0 .168.749.167.167 0 0 1 .018.228 2.989 2.989 0 0 1-.486.48.168.168 0 0 1-.227-.019.693.693 0 0 0-.744-.169.667.667 0 0 0-.411.64.167.167 0 0 1-.149.172 2.988 2.988 0 0 1-.675 0 .167.167 0 0 1-.147-.175.666.666 0 0 0-.404-.655.691.691 0 0 0-.748.168.167.167 0 0 1-.228.018 2.982 2.982 0 0 1-.475-.48.167.167 0 0 1 .018-.226.668.668 0 0 0 .168-.742.658.658 0 0 0-.618-.411.2.2 0 0 1-.2-.148 3.007 3.007 0 0 1 0-.683.163.163 0 0 1 .173-.147.694.694 0 0 0 .657-.406.665.665 0 0 0-.168-.749.167.167 0 0 1-.018-.228 2.982 2.982 0 0 1 .486-.48.167.167 0 0 1 .227.019.694.694 0 0 0 .743.169.668.668 0 0 0 .41-.641.167.167 0 0 1 .149-.172 3 3 0 0 1 .675 0A.167.167 0 0 1 3.5.2a.667.667 0 0 0 .4.647.692.692 0 0 0 .753-.168.167.167 0 0 1 .228-.019 2.971 2.971 0 0 1 .476.48.167.167 0 0 1-.018.226.663.663 0 0 0 .454 1.154.2.2 0 0 1 .192.149zM3.029 4.94a1.911 1.911 0 0 0 0-3.822 2.007 2.007 0 0 0-.423.047 1.911 1.911 0 0 0 .423 3.775z" class="cls-2" data-name="Path 1309" transform="translate(-17434.5 -19366)"/>
            <g id="Group_2378-3" data-name="Group 2378" transform="translate(-17432.629 -19364.137)">
                <path id="Path_1312-3" d="M1.172 2.343A1.172 1.172 0 1 0 0 1.172a1.172 1.172 0 0 0 1.172 1.171z" class="cls-2" data-name="Path 1312"/>
            </g>
        </g>
    </g>
</svg>
