<svg xmlns="http://www.w3.org/2000/svg" width="20.438" height="24" viewBox="0 0 20.438 24">
    <defs>
        <style>
            .cls-1{fill:#fd3259}.cls-2{fill:#be2845}.cls-3{fill:#fff}.cls-4{fill:#e1ebf0}.cls-5{opacity:.996}.cls-6{fill:#f2c7cf}.cls-7{fill:#b27984}
        </style>
    </defs>
    <g id="Group_2287" data-name="Group 2287" transform="translate(3544 13309)">
        <path id="Path_1291" d="M19.858 16.027a12.108 12.108 0 0 1-2.9 4.518 15.18 15.18 0 0 1-5.667 3.355 1.734 1.734 0 0 1-.551.1h-.021a1.76 1.76 0 0 1-.338-.033 1.827 1.827 0 0 1-.232-.063 15.179 15.179 0 0 1-5.674-3.356 12.085 12.085 0 0 1-2.9-4.517C.4 12.852.47 9.35.524 6.536v-.043c.011-.232.018-.476.022-.746a2.544 2.544 0 0 1 2.4-2.492A9.871 9.871 0 0 0 9.66.423l.016-.014a1.537 1.537 0 0 1 2.087 0l.016.015A9.872 9.872 0 0 0 18.5 3.255a2.544 2.544 0 0 1 2.4 2.492c0 .271.011.515.022.746v.018c.046 2.82.112 6.328-1.064 9.516zm0 0" class="cls-1" data-name="Path 1291" transform="translate(-3544.5 -13309)"/>
        <path id="Path_1292" d="M228.068 16.031a12.109 12.109 0 0 1-2.9 4.518 15.18 15.18 0 0 1-5.668 3.358 1.733 1.733 0 0 1-.551.1V0a1.54 1.54 0 0 1 1.023.408l.016.015a9.872 9.872 0 0 0 6.718 2.832 2.544 2.544 0 0 1 2.4 2.492c0 .271.011.515.022.746v.018c.049 2.823.115 6.332-1.06 9.52zm0 0" class="cls-2" data-name="Path 1292" transform="translate(-3752.709 -13309.004)"/>
        <path id="Path_1293" d="M102.857 134.38a5.989 5.989 0 0 1-5.96 5.982h-.021a5.981 5.981 0 1 1 0-11.963h.024a5.989 5.989 0 0 1 5.957 5.981zm0 0" class="cls-3" data-name="Path 1293" transform="translate(-3630.657 -13431.38)"/>
        <path id="Path_1294" d="M224.91 134.38a5.989 5.989 0 0 1-5.96 5.982V128.4a5.989 5.989 0 0 1 5.96 5.98zm0 0" class="cls-4" data-name="Path 1294" transform="translate(-3752.709 -13431.38)"/>
        <g id="Group_2284" data-name="Group 2284" transform="translate(0 -1)">
            <g id="delete" class="cls-5" transform="translate(-3536.8 -13299.002)">
                <path id="Path_50" d="M5.878 1.2L4.034 3.043l1.844 1.844a.7.7 0 1 1-.992.993L3.042 4.036 1.2 5.88a.7.7 0 0 1-.992-.993l1.841-1.844L.205 1.2A.7.7 0 0 1 1.2.207l1.841 1.844L4.885.207a.7.7 0 0 1 .993.993z" class="cls-6" data-name="Path 50"/>
            </g>
            <path id="Path_1297" d="M221.772 214.8l-2.823-2.823v2.087l1.779 1.779a.738.738 0 1 0 1.043-1.043zm0 0" class="cls-7" data-name="Path 1297" transform="translate(-3752.699 -13508.979)"/>
            <path id="Path_1298" d="M221.791 213.248l-2.842 2.842v-2.1l1.791-1.791a.743.743 0 0 1 1.05 1.05zm0 0" class="cls-7" data-name="Path 1298" transform="translate(-3752.709 -13510.993)"/>
        </g>
    </g>
</svg>
