<?xml version="1.0" encoding="UTF-8"?>
<svg width="59px" height="50px" viewBox="0 0 543 418" version="1.1" xmlns="http://www.w3.org/2000/svg" xmlns:xlink="http://www.w3.org/1999/xlink">
    <!-- Generator: Sketch 53.1 (72631) - https://sketchapp.com -->
    <title>Group 22</title>
    <desc>Created with Sketch.</desc>
    <g id="Page-1" stroke="none" stroke-width="1" fill="none" fill-rule="evenodd">
        <g id="Group-22">
            <g id="ic-service-successfull-copy-6" transform="translate(280.500000, 312.000000) rotate(-270.000000) translate(-280.500000, -312.000000) translate(175.500000, 210.500000)" fill="#fefefe" fill-opacity="0.5" stroke="#fefefe" stroke-width="5">
                <path d="M208.822333,90.2234788 C209.725889,97.8527435 209.725889,105.556645 208.822333,113.18591 C208.459092,116.136427 205.780356,118.303687 202.709372,118.131664 L201.4206,118.131664 C192.115111,118.178548 183.723592,123.549203 180.051361,131.808189 C176.262768,140.566741 178.608331,150.681136 185.903084,157.04163 C188.184769,159.03355 188.459879,162.39952 186.530054,164.712596 C181.550763,170.702429 175.87677,176.120959 169.619271,180.861998 C167.219259,182.668698 163.784752,182.390413 161.729894,180.222751 C155.055208,173.501415 144.877752,171.265384 135.849951,174.536816 C126.900497,178.130856 121.2012,186.713654 121.551544,196.069352 C121.658971,199.02618 119.374111,201.556862 116.326791,201.856221 C108.514853,202.714593 100.627341,202.714593 92.8154033,201.856221 C89.7634306,201.513592 87.5177456,198.93127 87.6951455,195.968418 C88.2358179,186.525492 82.5758129,177.772735 73.553481,174.099436 C64.4643417,170.695691 54.1470684,172.927997 47.4297166,179.751727 C45.3614925,181.95788 41.8710125,182.223471 39.4706763,180.35733 C33.3459783,175.596251 27.8011995,170.178363 22.9430413,164.207927 C21.0573694,161.90614 21.3309119,158.588713 23.5700117,156.604251 C30.7180639,150.274445 33.0440084,140.322015 29.4043191,131.639966 C25.9501695,123.143066 17.450764,117.565254 8.00024808,117.593351 C4.78671398,117.637519 1.95896133,115.552497 1.1558218,112.546663 C0.269895404,104.938294 0.281580874,97.257342 1.19065348,89.6515208 C1.47647444,86.6870275 4.15886769,84.4843258 7.23395099,84.6889441 C16.9391197,84.9977637 25.8922893,79.6631509 29.9616261,71.1469975 C33.754404,62.3919262 31.4159582,52.2781235 24.1273187,45.9135567 C21.8540205,43.9176569 21.5794526,40.5583261 23.5003483,38.2425907 C28.4781544,32.2514651 34.1523105,26.832779 40.4111318,22.0931885 C42.8111435,20.2864885 46.2456504,20.564774 48.3005087,22.7324357 C54.9766958,29.4388234 65.139594,31.6731596 74.1630355,28.418371 C83.1091016,24.8204247 88.8066991,16.2401875 88.4614426,6.88583484 C88.3633768,3.93538655 90.6457865,1.41476767 93.6861955,1.11578803 C101.494511,0.278193665 109.375786,0.295123256 117.180168,1.16625492 C120.23214,1.50888452 122.477825,4.0912058 122.300425,7.05405778 C121.764628,16.4860872 127.405647,25.2310225 136.407258,28.9230399 C145.497132,32.3172831 155.80881,30.0861879 162.531023,23.2707491 C164.592506,21.0697302 168.070764,20.7971218 170.472647,22.6483242 C176.611776,27.4050642 182.168582,32.8232846 187.035114,38.7977264 C188.920786,41.0995136 188.647243,44.4169413 186.408143,46.4014032 C179.307783,52.6267104 176.933148,62.444752 180.443051,71.0643646 C183.952953,79.6839772 192.615861,85.3086686 202.204313,85.1936129 C205.347815,85.1937866 208.082686,87.2723591 208.822333,90.2234788 Z M105.929533,166.596693 C142.67222,166.596693 172.458052,137.82599 172.458052,102.33553 C172.458052,66.8450706 142.67222,38.0743683 105.929533,38.0743677 C100.979925,38.0963725 96.0467557,38.6264482 91.2131458,39.6556634 C58.1509196,46.8742112 35.9935161,76.949079 39.765644,109.486806 C43.5377719,142.024534 72.0332272,166.620613 105.929533,166.596693 L105.929533,166.596693 Z" id="Path_1309" fill-rule="nonzero"></path>
                <g id="Group_2378" transform="translate(66.500000, 62.500000)">
                    <path d="M40.80935,78.6332535 C57.3167767,78.633252 72.1984477,69.0836298 78.5139374,54.4380831 C84.829427,39.7925365 81.3347574,22.9358356 69.6597517,11.7295091 C57.9847461,0.523182552 40.4290599,-2.82543128 25.1802101,3.24537431 C9.93136039,9.31617991 -0.00704844948,23.610623 -1.79300134e-08,39.4621458 C0.009620639,61.0984576 18.2777715,78.6332554 40.80935,78.6332535 Z" id="Path_1312"></path>
                </g>
            </g>
            <path d="M461.32375,146.5557 C456.5544,65.1057 389.41245,0 308.4602,0 C259.3187,0 211.7338,24.10015 182.2489,63.4224 C181.57015,63.06945 180.84615,62.8251 180.15835,62.49025 C178.38455,61.6305 176.59265,60.816 174.7555,60.08295 C173.6876,59.6576 172.6016,59.2775 171.5156,58.8974 C169.73275,58.27295 167.92275,57.7209 166.0856,57.22315 C164.9996,56.93355 163.92265,56.6349 162.8276,56.3815 C160.8366,55.929 158.8094,55.5851 156.7641,55.28645 C155.81385,55.14165 154.87265,54.96065 153.91335,54.85205 C150.9178,54.50815 147.88605,54.3 144.8,54.3 C99.8939,54.3 63.35,90.83485 63.35,135.75 C63.35,136.91745 63.4224,138.05775 63.4948,139.19805 C25.85585,159.7144 0,202.71095 0,245.7437 C0,309.84485 52.1461,362 116.24725,362 L162.9,362 C167.8956,362 171.95,357.95465 171.95,352.95 C171.95,347.94535 167.8956,343.9 162.9,343.9 L116.24725,343.9 C62.12825,343.9 18.1,299.87175 18.1,245.7437 C18.1,208.15 42.58025,169.1264 76.3096,152.95405 L81.45,150.5015 L81.45,144.8 C81.45,143.68685 81.5224,142.54655 81.58575,141.40625 L81.6672,139.8406 L81.5586,138.0125 C81.5043,137.26135 81.45,136.5102 81.45,135.75 C81.45,100.82605 109.867,72.4 144.8,72.4 C147.59645,72.4 150.3567,72.64435 153.09885,73.00635 C153.80475,73.09685 154.51065,73.2145 155.21655,73.33215 C157.6329,73.73035 160.01305,74.25525 162.357,74.92495 C162.67375,75.01545 162.99955,75.0788 163.3163,75.1693 C165.89555,75.95665 168.41145,76.9612 170.87305,78.07435 C171.50655,78.36395 172.131,78.67165 172.75545,78.97935 C174.9365,80.0563 177.0723,81.24185 179.1357,82.58125 C196.566,93.8847 208.15,113.47795 208.15,135.75 C208.15,140.75465 212.2044,144.8 217.2,144.8 C222.1956,144.8 226.25,140.75465 226.25,135.75 C226.25,110.8263 214.9737,88.51805 197.29,73.56745 C223.2273,39.62995 265.9614,18.1 308.4602,18.1 C378.5434,18.1 436.7711,73.62175 442.8346,143.77735 C433.5855,143.12575 419.72995,142.7909 405.88345,144.89955 C400.94215,145.6507 397.5484,150.2662 398.29955,155.2075 C398.9783,159.68725 402.8336,162.9 407.2319,162.9 C407.6844,162.9 408.14595,162.8638 408.6075,162.7914 C428.7347,159.7506 449.72165,162.60135 450.9977,162.7733 C493.1345,170.7916 524.9,209.60705 524.9,253.1466 C524.9,303.18405 484.18405,343.9 434.1466,343.9 L398.2,343.9 C393.2044,343.9 389.15,347.94535 389.15,352.95 C389.15,357.95465 393.2044,362 398.2,362 L434.1466,362 C494.1662,362 543,313.1662 543,253.1466 C543,203.47115 508.36565,158.918 461.32375,146.5557 Z" id="Path" fill="#fefefe" fill-rule="nonzero"></path>
        </g>
    </g>
</svg>
