<?xml version="1.0" encoding="UTF-8"?>
<svg width="91px" height="71px" viewBox="0 0 91 71" version="1.1" xmlns="http://www.w3.org/2000/svg" xmlns:xlink="http://www.w3.org/1999/xlink">
    <!-- Generator: Sketch 62 (91390) - https://sketch.com -->
    <title>Group 45</title>
    <desc>Created with Sketch.</desc>
    <g id="Page-1" stroke="none" stroke-width="1" fill="none" fill-rule="evenodd" fill-opacity="0.400000006">
        <g id="Group-45" transform="translate(0.250000, 0.000000)" fill="#FFFFFF" fill-rule="nonzero" stroke="#FEFEFE">
            <g id="Group-44">
                <g id="Group_2668" transform="translate(20.000000, 41.236000)">
                    <path d="M28.2861538,12.6120256 C28.4064869,13.684267 28.4042416,14.7667286 28.2794615,15.8384615 C28.2302034,16.253494 27.866095,16.5582758 27.4488718,16.5337179 L27.2733846,16.5292564 C26.0104031,16.5367235 24.8718232,17.2916895 24.3733846,18.4521795 C23.862304,19.6813151 24.1807095,21.0990983 25.1682821,21.9916667 C25.4779068,22.2717634 25.5150996,22.7448297 25.2530513,23.0698718 C24.5771117,23.911562 23.8069323,24.6730091 22.9575897,25.3393077 C22.6318814,25.5929146 22.16606,25.5540961 21.8868205,25.2500769 C20.981099,24.3046357 19.5989592,23.9901806 18.373359,24.4507179 C17.1592442,24.9559098 16.386065,26.1614647 16.4333333,27.475641 C16.4478857,27.8887014 16.1414701,28.243106 15.730641,28.2883846 C14.6696479,28.4060893 13.5987288,28.4030958 12.5384103,28.2794615 C12.1233062,28.2312933 11.817942,27.8675314 11.8424103,27.450359 C11.9185748,26.1212838 11.1499784,24.8881347 9.92320513,24.3711538 C8.69167112,23.8972153 7.29592692,24.2111624 6.38594872,25.1667949 C6.10554492,25.4768461 5.63197093,25.5143537 5.30625641,25.2523077 C4.47458321,24.5828018 3.72170003,23.8209379 3.06210256,22.9813846 C2.80645851,22.6573485 2.84408005,22.1909711 3.14835897,21.9121026 C4.11840068,21.0227636 4.43436425,19.6246396 3.94102564,18.4045897 C3.4608636,17.2173628 2.30226036,16.4456492 1.02169231,16.4601026 C0.586917204,16.472406 0.200669252,16.1843358 0.0884871795,15.7641026 C-0.031825064,14.6916115 -0.0295798222,13.608906 0.0951794872,12.5369231 C0.134513989,12.1216772 0.496911243,11.8129806 0.913128205,11.8401795 C2.23472301,11.8816788 3.45200189,11.1255703 4.00051282,9.92246154 C4.51248376,8.69358091 4.19496328,7.27546177 3.20784615,6.38223077 C2.89893863,6.10178181 2.86179206,5.62930352 3.12307692,5.30402564 C3.79882123,4.46238074 4.56902512,3.70115883 5.41853846,3.03533333 C5.74421451,2.78117678 6.21061134,2.82036707 6.48930769,3.12530769 C7.39576185,4.06835946 8.77597115,4.38250831 10.0012821,3.92466667 C11.2167726,3.41944336 11.9911452,2.21298674 11.9442821,0.897512821 C11.9305247,0.485015368 12.2367345,0.131496964 12.6469744,0.0862564103 C13.7077145,-0.0312565055 14.7783376,-0.0285125972 15.8384615,0.0944358974 C16.2536428,0.141885071 16.5592827,0.50564886 16.5344615,0.922794872 C16.4590712,2.25099891 17.2258758,3.48348036 18.4506923,4.00274359 C19.6826398,4.47565585 21.0780909,4.16219984 21.9894359,3.20784615 C22.2694403,2.89860675 22.7416772,2.86050211 23.067641,3.12084615 C23.9008735,3.78957341 24.6550461,4.55123035 25.3155128,5.39102564 C25.5716242,5.71518887 25.5339859,6.1820983 25.2292564,6.46105128 C24.2654402,7.3360334 23.9431482,8.71587468 24.4196448,9.92727322 C24.8961415,11.1386718 26.0721258,11.9291747 27.3737692,11.9130513 C27.8034898,11.90536 28.1817167,12.1951182 28.2861538,12.6120256 Z M14.3148462,23.3487179 C17.5612002,23.378174 20.5736389,21.6631533 22.2053787,18.8565348 C23.8371184,16.0499162 23.8371184,12.583494 22.2053787,9.77687547 C20.5736389,6.97025694 17.5612002,5.25523624 14.3148462,5.28469231 C13.6430636,5.28810159 12.9735447,5.36288032 12.3175641,5.50776923 C7.82381604,6.51831286 4.81005052,10.7480996 5.32233716,15.3254932 C5.8346238,19.9028868 9.70888174,23.3617889 14.3148462,23.3539365 L14.3148462,23.3487179 Z" id="Path_1309"></path>
                    <g id="Group_2378" transform="translate(7.685000, 7.653026)">
                        <path d="M6.66628205,13.3325641 C10.347968,13.3325641 13.3325641,10.347968 13.3325641,6.66628205 C13.3325641,2.98459614 10.347968,0 6.66628205,0 C2.98459614,0 0,2.98459614 0,6.66628205 C0,10.347968 2.98459614,13.3325641 6.66628205,13.3325641 Z" id="Path_1312"></path>
                    </g>
                </g>
                <g id="Group_2668-Copy" transform="translate(0.750000, 6.236000)">
                    <path d="M34.8907108,16.3208817 C35.03914,17.6435003 35.0363705,18.9787257 34.882456,20.3007171 C34.8216967,20.8126631 34.372574,21.188614 33.8579347,21.1583216 L33.6414737,21.1528183 C32.083603,21.162029 30.6791801,22.0932858 30.0643628,23.5247598 C29.4339519,25.0409088 29.8267007,26.789756 31.0448581,27.8907465 C31.426776,28.2362481 31.4726528,28.8197794 31.1494198,29.2207215 C30.3156574,30.2589532 29.3656516,31.1982046 28.317999,32.0200894 C27.9162422,32.3329156 27.3416577,32.2850327 26.9972196,31.9100225 C25.8800243,30.7438129 24.1751736,30.35593 22.6634123,30.9240066 C21.165818,31.5471649 20.212112,33.0342269 20.2704169,34.6552742 C20.2883671,35.1647876 19.9104074,35.6019486 19.4036554,35.6578002 C18.0949347,35.8029899 16.7739705,35.7992974 15.4660819,35.6467935 C14.9540567,35.5873776 14.577394,35.1386742 14.6075753,34.6240886 C14.7015232,32.9846634 13.7534699,31.4635638 12.2402617,30.8258636 C10.7211811,30.2412565 8.99954947,30.6285128 7.87710366,31.8072934 C7.53122937,32.1897442 6.94708225,32.2360101 6.54531778,31.9127742 C5.51946013,31.0869331 4.59078889,30.1471677 3.77718433,29.1115718 C3.46185084,28.7118705 3.50825651,28.1365901 3.88358045,27.7926035 C5.08011378,26.6955966 5.46985058,24.9709991 4.86132407,23.4660575 C4.26905068,22.0016032 2.83992924,21.0496881 1.26036584,21.0675165 C0.724076626,21.0826928 0.247644996,20.7273558 0.109269925,20.2089947 C-0.039133602,18.8860681 -0.0363641265,17.5505419 0.117524796,16.2282421 C0.166043373,15.7160329 0.613055489,15.3352531 1.12645349,15.3688031 C2.75662283,15.4199928 4.25811988,14.4873268 4.93470071,13.0032822 C5.56620994,11.4874478 5.17455272,9.73818609 3.95695708,8.63637826 C3.57592382,8.29044215 3.53010403,7.70763627 3.85239538,7.30640332 C4.68591686,6.26822738 5.63595294,5.32925385 6.68381618,4.5079526 C7.08553319,4.19444839 7.66082737,4.24278993 8.00459556,4.61893671 C9.12269451,5.78219887 10.825164,6.16970407 12.3365685,5.60495262 C13.8358596,4.98175549 14.7910378,3.49358127 14.7332327,1.87093332 C14.7162633,1.3621143 15.0939689,0.926046424 15.5999942,0.870241827 C16.9084029,0.725288674 18.229002,0.728673307 19.5366505,0.880331292 C20.048771,0.93886024 20.4257737,1.38756588 20.3951571,1.90211894 C20.3021642,3.54046961 21.2480073,5.06074566 22.7588019,5.70126115 C24.2783925,6.28460234 25.9996625,5.89795175 27.1237943,4.72074859 C27.4691759,4.33929922 28.0516738,4.29229684 28.4537458,4.61343337 C29.4815267,5.43831397 30.4117884,6.3778241 31.2264653,7.41371854 C31.5423752,7.81357656 31.4959489,8.38951321 31.1200691,8.73360401 C29.9312148,9.81290169 29.533672,11.5149473 30.1214242,13.0092174 C30.7091764,14.5034876 32.1597372,15.4785794 33.7652967,15.4586911 C34.2953513,15.4492039 34.761889,15.806623 34.8907108,16.3208817 Z M17.6572915,29.5646805 C21.6616254,29.6010148 25.3774279,27.4855226 27.3901568,24.0235354 C29.4028858,20.5615482 29.4028858,16.2856877 27.3901568,12.8237006 C25.3774279,9.3617134 21.6616254,7.24622119 17.6572915,7.28255549 C16.8286569,7.28676087 16.0028144,7.37900105 15.1936711,7.55772272 C9.65069358,8.80423665 5.93325453,14.0217135 6.56515317,19.6679664 C7.19705182,25.3142193 11.9758967,29.5808037 17.6572915,29.5711176 L17.6572915,29.5646805 Z" id="Path_1309"></path>
                    <g id="Group_2378" transform="translate(9.031250, 10.764000)">
                        <path d="M8.46875,15 C12.6108856,15 15.96875,11.6421356 15.96875,7.5 C15.96875,3.35786438 12.6108856,0 8.46875,0 C4.32661438,0 0.96875,3.35786438 0.96875,7.5 C0.96875,11.6421356 4.32661438,15 8.46875,15 Z" id="Path_1312"></path>
                    </g>
                </g>
                <g id="Group_2669" transform="translate(39.750000, 0.000000)">
                    <path d="M50.249492,22.8239847 C50.4618131,24.7133476 50.4580939,26.6207542 50.2384066,28.5092747 C50.1516752,29.2405321 49.5102597,29.7776309 48.7751294,29.7345719 L48.4662153,29.7264426 C46.2384412,29.7380892 44.2296634,31.0697142 43.3513965,33.1170718 C42.4526728,35.2836285 43.0150226,37.7813236 44.7555513,39.3536716 C45.3005936,39.8477498 45.3654346,40.6812731 44.9033571,41.2536951 C43.712355,42.7368167 42.3552614,44.0785228 40.8586521,45.2525387 C40.2846862,45.6993277 39.4639043,45.6308495 38.9719114,45.0951272 C37.3746502,43.4273517 34.9367945,42.8726254 32.7751543,43.6850748 C30.6346647,44.5748354 29.2713911,46.699847 29.3549286,49.0163736 C29.3803118,49.7430844 28.841904,50.3668194 28.1192724,50.4478577 C26.2498241,50.6555422 24.3628545,50.6505837 22.4945236,50.4330772 C21.7631166,50.3485135 21.2248541,49.7077934 21.2677357,48.9727714 C21.402195,46.6305455 20.047423,44.457368 17.8852005,43.5468778 C15.7149085,42.7126101 13.2557953,43.2666557 11.65297,44.9510181 C11.1580403,45.4968038 10.3232395,45.5616421 9.74997065,45.0988223 C8.284523,43.9194706 6.95783167,42.5774214 5.79542715,41.0985006 C5.34523007,40.5271423 5.41194806,39.7052626 5.94840612,39.2139966 C7.65863769,37.6469084 8.2160171,35.1826218 7.34664875,33.0320844 C6.50020257,30.9399791 4.4582541,29.5802586 2.20152973,29.6059822 C1.43664301,29.6247673 0.758711451,29.1164768 0.562363687,28.3769899 C0.350235121,26.4876165 0.353954225,24.5802318 0.57344912,22.6917 C0.643028976,21.9593331 1.28272737,21.415284 2.01677251,21.4641858 C4.34551616,21.5370469 6.49032139,20.2046067 7.45676406,18.0846419 C8.35743855,15.9192536 7.79777897,13.4213807 6.05926045,11.8473031 C5.51564292,11.352527 5.45089263,10.5201707 5.91145468,9.9472796 C7.10211736,8.46407194 8.45925136,7.12257394 9.95615971,5.94917498 C10.5301709,5.5016602 11.3518184,5.57085423 11.8429004,6.10806454 C13.4399383,7.77028935 15.8722156,8.32418291 18.0315282,7.51737794 C20.1727497,6.62623765 21.5363699,4.50013144 21.4532319,2.182384 C21.428346,1.45518895 21.9678826,0.831587758 22.6911053,0.751638982 C24.5605898,0.544626033 26.4474833,0.549584314 28.315854,0.766419405 C29.0473376,0.850268837 29.5858738,1.49099046 29.542642,2.22598625 C29.4096774,4.56791846 30.762643,6.74080473 32.92296,7.65483588 C35.09432,8.48731936 37.5532492,7.93357787 39.1581467,6.25069563 C39.65183,5.71036829 40.4796902,5.64479908 41.0522777,6.10067433 C42.5202923,7.27885685 43.8490424,8.62073425 45.0127334,10.100257 C45.4639513,10.6714429 45.3975176,11.4941164 44.8604934,11.9855 C43.1622518,13.527359 42.5943777,15.9587028 43.4339351,18.0932875 C44.2734924,20.2278723 46.3455459,21.6209231 48.6391481,21.5927755 C49.3973893,21.5773738 50.0655646,22.0882359 50.249492,22.8239847 L50.249492,22.8239847 Z M25.6309621,41.7429271 C34.4211789,41.7429271 41.5470575,34.6171226 41.5470575,25.8269973 C41.5470575,17.036872 34.4211789,9.91106756 25.6309621,9.91106756 C24.4473687,9.91614385 23.2676636,10.0469456 22.1117066,10.3012707 C14.2078319,12.0947751 8.91350018,19.540621 9.81505121,27.5950494 C10.7166022,35.6494778 17.5261513,41.7405361 25.6309621,41.7421881 L25.6309621,41.7429271 Z" id="Path_1309-2"></path>
                    <g id="Group_2378-2" transform="translate(13.406000, 14.600000)">
                        <path d="M12.0938331,22.4 C16.7456072,22.4 20.9392287,19.7193753 22.7188446,15.6083375 C24.4984604,11.4972997 23.5135227,6.76563863 20.2233941,3.62014234 C16.9332654,0.474646042 11.9860341,-0.465086942 7.68902733,1.23922318 C3.39202055,2.9435333 0.591660951,6.95617221 0.594,11.405695 C0.597195893,17.4785771 5.74491037,22.4 12.0938331,22.4 Z" id="Path_1312-2"></path>
                    </g>
                </g>
            </g>
        </g>
    </g>
</svg>