<?xml version="1.0" encoding="UTF-8"?>
<svg width="71px" height="71px" viewBox="0 0 71 71" version="1.1" xmlns="http://www.w3.org/2000/svg" xmlns:xlink="http://www.w3.org/1999/xlink">
    <!-- Generator: Sketch 62 (91390) - https://sketch.com -->
    <title>Combined Shape</title>
    <desc>Created with Sketch.</desc>
    <g id="Page-1" stroke="none" stroke-width="1" fill="none" fill-rule="evenodd" fill-opacity="0.400000006">
        <path d="M39.5155986,1.22965878 C40.5250458,1.34537099 41.2682258,2.22956684 41.2085659,3.24386102 C41.0250748,6.47572747 42.8921673,9.47431053 45.8734049,10.7356735 C48.8698816,11.8845007 52.263204,11.1203375 54.4779624,8.79795997 C55.1592453,8.05230824 56.3016925,7.96182273 57.0918632,8.59093057 C59.1177233,10.2168225 60.9513985,12.0686133 62.5572921,14.1103546 C63.1799728,14.8985912 63.0882943,16.0338807 62.347201,16.71199 C60.0036274,18.8397554 59.2199613,22.1950099 60.3785504,25.1407368 C61.5371395,28.0864637 64.3965733,30.0088738 67.5617444,29.9700301 C68.6081172,29.9487758 69.5301992,30.6537655 69.784019,31.669099 C70.077022,34.2764197 70.0718896,36.9086408 69.7687211,39.5147991 C69.6490317,40.5239342 68.7638784,41.2651306 67.7493986,41.2057092 L67.3230972,41.1944908 C64.2487688,41.2105632 61.4766555,43.0482056 60.2646472,45.8735591 C59.0244084,48.8634074 59.8004512,52.3102266 62.2023809,54.4800668 C62.9545391,55.1618947 63.0440198,56.3121569 62.4063528,57.1020992 C60.7627699,59.148807 58.8899807,61.0003614 56.8246599,62.6205034 C56.0325869,63.2370722 54.899908,63.1425724 54.2209577,62.4032756 C52.0167372,60.1017454 48.6524965,59.3362231 45.6694329,60.4574032 C42.7155573,61.6852729 40.8342397,64.6177888 40.9495215,67.8145956 C40.9845502,68.8174564 40.2415475,69.6782108 39.2443159,69.7900436 C36.6644772,70.0766483 34.0604593,70.0698055 31.4821626,69.7696466 C30.4728209,69.6529487 29.7300187,68.7687549 29.7891952,67.7544245 C29.9747492,64.5221528 28.1051637,61.5231679 25.1212967,60.2666914 C22.1262937,59.1154019 18.7327175,59.8799848 16.5208186,62.204405 C15.8378156,62.9575893 14.6857905,63.0470661 13.8946795,62.4083748 C11.8723617,60.7808694 10.0415277,58.9288415 8.43740946,56.8879309 C7.8161375,56.0994564 7.90820833,54.9652624 8.64852045,54.2873153 C11.00864,52.1247336 11.7778236,48.7240181 10.5780953,45.7562765 C9.40999954,42.8691712 6.59211066,40.9927568 3.47783103,41.0282554 C2.42228736,41.0541789 1.4867418,40.3527379 1.21578189,39.3322461 C0.923044467,36.7249107 0.92817683,34.09272 1.23107979,31.4865459 C1.32709999,30.4758797 2.20988377,29.7250919 3.22286607,29.7925764 C6.43653229,29.8931247 9.39636352,28.0543573 10.7300544,25.1288058 C11.9729852,22.14057 11.200655,18.6935053 8.80149943,16.5212782 C8.05130723,15.8384873 7.96195183,14.6898356 8.59752746,13.8992458 C10.240642,11.8524193 12.1134869,10.001152 14.1792204,8.38186148 C14.9713559,7.76429107 16.1052294,7.85977884 16.7829226,8.60112906 C18.9868348,10.8949993 22.3433776,11.6593724 25.3232289,10.5459816 C28.2781146,9.31620796 30.1599104,6.38218139 30.04518,3.18368992 C30.0108375,2.18016075 30.755398,1.31959111 31.7534453,1.20926179 C34.3333339,0.923583925 36.937247,0.930426353 39.5155986,1.22965878 Z M35.8104477,13.8492732 C34.1770888,13.8562785 32.5490958,14.0367849 30.9538752,14.3877536 C20.046528,16.8627897 12.7403503,27.1380569 13.9844907,38.2531681 C15.2286311,49.3682793 24.6258088,57.7739398 35.8104477,57.7762196 L35.8104477,57.7772394 C47.9409469,57.7772394 57.7746593,47.9436292 57.7746593,35.8132563 C57.7746593,23.6828834 47.9409469,13.8492732 35.8104477,13.8492732 Z M47.1401663,24.6461734 C51.6891934,29.1929116 53.0509968,36.0324124 50.5904484,41.9748174 C48.1299,47.9172224 42.3316775,51.792 35.9,51.792 C27.1217957,51.792 20.0044167,44.6782032 19.999998,35.9 C19.9967639,29.4683233 23.8686222,23.6681515 29.8097881,21.2046128 C35.750954,18.741074 42.5911393,20.0994352 47.1401663,24.6461734 Z M44.8827583,25 C44.5633943,25 44.3011248,25.2525057 44.288871,25.5717778 C44.3441431,26.2320701 44.035073,26.8699605 43.4827248,27.2355845 C43.2692071,27.3719811 43.0342635,27.4714477 42.787741,27.5298156 C42.4301341,27.2998441 42.0136996,27.1782028 41.5885875,27.1795405 C41.2034587,27.1798198 40.824981,27.279988 40.490093,27.4702689 C38.4956955,25.4473304 35.5952464,24.6040522 32.8277653,25.2425192 C31.678435,25.5147942 30.5877811,25.992726 29.6084322,26.6532522 C29.4996429,26.7137706 29.3962026,26.7832375 29.2991616,26.8608822 L29.1585309,26.9833865 C28.4213976,27.6807297 28.2581705,28.792693 28.7637731,29.6726235 C27.6049906,30.9064072 26.68681,32.3459225 26.0564873,33.917082 C25.507155,35.3081769 25.1867306,36.7791245 25.1076681,38.2727528 C25.024459,39.6539779 25.1397127,41.0400028 25.4499082,42.3884852 C25.1570095,42.7702214 24.9987978,43.2382949 25,43.7195306 C25.0024677,44.5191098 25.4353859,45.2553264 26.1327724,45.6459004 C26.8301588,46.0364744 27.6837985,46.0207997 28.3663894,45.6048863 C29.4816612,45.8729581 30.6251657,46.0055595 31.7721601,46 C32.0461273,46 32.330598,45.992816 32.6220711,45.9744265 C34.119431,45.8949708 35.5942245,45.5747465 36.9897904,45.0260567 C38.5664769,44.3983259 40.0112598,43.4798556 41.2489733,42.3184302 C41.5827684,42.508275 41.960004,42.6084337 42.3439667,42.6091585 C42.996863,42.6104684 43.6166558,42.3217648 44.0359109,41.8210396 L44.0429132,41.8210396 C44.8833486,40.7420757 45.4805356,39.4939917 45.7935021,38.1624162 C46.4328121,35.3745314 45.5648347,32.4553813 43.5063577,30.4703751 C43.7004923,30.1405445 43.8026575,29.7646616 43.8022072,29.3818952 C43.8020957,29.0775209 43.7382892,28.7765415 43.6148942,28.4983263 C43.7749555,28.4321339 43.9292458,28.3527573 44.0761744,28.2610149 C44.9984893,27.6873954 45.5352494,26.6566885 45.4766455,25.5717778 C45.4643917,25.2525057 45.2021222,25 44.8827583,25 Z M27.6926303,43.038608 C27.8793563,43.1165617 28.0006893,43.2993744 28,43.5017179 C27.9981207,43.7769645 27.7748286,43.9993024 27.4995768,44 C27.2972323,43.9998257 27.114941,43.8777108 27.0377878,43.6906526 C26.9606346,43.5035944 27.0038319,43.2884753 27.1472172,43.1457027 C27.2906024,43.00293 27.5059044,42.9606544 27.6926303,43.038608 Z M31.6860344,32 C32.6872448,32.4154266 33.6347752,32.9478374 34.5084883,33.5859173 C35.4481532,34.2628915 36.2960458,35.0567402 37.0313107,35.9479374 C37.8654597,36.9635485 38.530099,38.1048899 39,39.3286382 C38.8144281,39.6212847 38.7161958,39.9599547 38.7166449,40.3055457 C38.715438,40.6204226 38.7973034,40.9301478 38.9541305,41.2040368 C38.0116274,42.0787779 36.9126822,42.771702 35.7136724,43.2472611 C34.6402517,43.6678001 33.5050338,43.9152209 32.351882,43.9801249 C31.4047037,44.0349055 30.4543125,43.9763422 29.52129,43.8057033 C29.6200717,43.5769075 29.6704314,43.3304734 29.6692561,43.0816339 C29.667664,42.4847052 29.375819,41.9251045 28.8852805,41.578393 C28.394742,41.2316814 27.7656111,41.1403385 27.1952625,41.3330208 C27.0254059,40.42677 26.966041,39.503591 27.018443,38.5833157 C27.0791758,37.4378716 27.3270304,36.3097642 27.752355,35.2429224 C28.2344011,34.0515393 28.9369698,32.9598876 29.8238807,32.0241845 C30.4047337,32.3448845 31.1138689,32.3356747 31.6860344,32 Z M41.5004266,40 C41.7764017,40.0002357 42,40.2240236 42,40.5 C41.9990574,40.7764185 41.7747096,41 41.4982891,41 C41.2227426,40.9992918 40.9995289,40.7751211 41,40.4991459 C41.0004726,40.2231707 41.2244516,39.9997647 41.5004266,40 Z M36.0699882,27.1889244 C37.2382639,27.5098601 38.3088177,28.1108398 39.1871308,28.9388032 C39.0150059,29.2411921 38.9247918,29.5825661 38.9252615,29.9297276 C38.9284099,31.0567498 39.851684,31.9686045 40.9892162,31.9681545 C41.3414323,31.9674934 41.6877493,31.8785161 41.995904,31.7095119 C43.6364658,33.2640131 44.3378133,35.5549083 43.8453053,37.750433 C43.7483403,38.1780334 43.6118454,38.596178 43.4390407,39 C43.058884,38.4157981 42.4054224,38.0627117 41.7038503,38.0624206 C41.4039429,38.0633435 41.1077061,38.1278311 40.8350314,38.251553 C40.283476,36.928777 39.538274,35.6937052 38.6234183,34.5861025 C37.7486205,33.5268553 36.7389638,32.5843915 35.6196708,31.7822552 C34.7032025,31.1184894 33.7188418,30.5520203 32.6828182,30.0921875 C32.824089,29.8123996 32.8975525,29.5038243 32.8973716,29.1909797 C32.898117,28.5171721 32.5620776,27.8867126 32,27.5073781 C32.3511039,27.3690781 32.7121448,27.2569571 33.0801091,27.171951 C34.0633516,26.9370764 35.0895268,26.942902 36.0699882,27.1889244 Z M41.5012831,29.0004277 C41.7772574,29.0007082 42.0004711,29.2248789 42,29.5008541 C41.9995274,29.7768293 41.7755484,30.0002353 41.4995734,30 C41.2235983,29.9997643 41,29.7759764 41,29.5 C41.0011767,29.2239154 41.2251958,29.0006606 41.5012831,29.0004277 Z M30.501717,29.0001314 C30.7776313,29.0010754 31.0006275,29.2253206 31,29.5012037 C30.9993698,29.7770868 30.7753535,30.0003133 30.4994378,30 C30.223522,29.9996861 30.0000139,29.775951 30.0000123,29.5000672 C29.999095,29.3701261 30.0496908,29.2451121 30.1407291,29.1523788 C30.1616869,29.1365553 30.207452,29.0997764 30.2797351,29.0505954 C30.3484034,29.0156408 30.4246839,28.9982997 30.501717,29.0001314 Z" id="Combined-Shape" stroke="#FEFEFE" fill="#FFFFFF" fill-rule="nonzero"></path>
    </g>
</svg>