<svg xmlns="http://www.w3.org/2000/svg" width="106.82" height="106.824" viewBox="0 0 106.82 106.824">
    <defs>
        <style>
            .cls-1,.cls-2{fill:rgba(0,69,255,.4);stroke:#0045ff;stroke-width:2px}.cls-2{fill:rgba(41,121,255,.42)}.cls-3{fill:#0045ff;font-size:26px;font-family:HelveticaNeue-Bold,Helvetica Neue;font-weight:700}
        </style>
    </defs>
    <g id="economy-plan" transform="translate(-246.916 -977.497)">
        <path id="Path_1309" d="M104.49 46.59a52.453 52.453 0 0 1-.023 11.918 2.918 2.918 0 0 1-3.068 2.569l-.653-.017a11.574 11.574 0 0 0-7.785 20.179 2.91 2.91 0 0 1 .313 3.983 52.177 52.177 0 0 1-8.485 8.378 2.928 2.928 0 0 1-3.955-.33 12.094 12.094 0 0 0-12.979-2.953 11.648 11.648 0 0 0-7.17 11.177 2.916 2.916 0 0 1-2.6 3 52.158 52.158 0 0 1-11.792-.031 2.911 2.911 0 0 1-2.572-3.061 11.618 11.618 0 0 0-7.091-11.375 12.062 12.062 0 0 0-13.051 2.943 2.915 2.915 0 0 1-3.989.316A52.05 52.05 0 0 1 11.3 84.9a2.912 2.912 0 0 1 .319-3.949 11.653 11.653 0 0 0 2.931-12.96A11.487 11.487 0 0 0 3.765 60.81a3.467 3.467 0 0 1-3.437-2.58A52.5 52.5 0 0 1 .35 46.312a2.848 2.848 0 0 1 3.027-2.573 12.117 12.117 0 0 0 11.4-7.084 11.618 11.618 0 0 0-2.929-13.076 2.915 2.915 0 0 1-.313-3.984 52.056 52.056 0 0 1 8.485-8.382 2.923 2.923 0 0 1 3.955.333A12.113 12.113 0 0 0 36.943 14.5a11.661 11.661 0 0 0 7.18-11.182 2.916 2.916 0 0 1 2.6-3 52.327 52.327 0 0 1 11.79.031 2.907 2.907 0 0 1 2.572 3.061 11.641 11.641 0 0 0 7.079 11.379 12.08 12.08 0 0 0 13.073-2.933 2.916 2.916 0 0 1 3.983-.321 51.86 51.86 0 0 1 8.3 8.384 2.911 2.911 0 0 1-.319 3.951 11.572 11.572 0 0 0 7.921 20.141 3.412 3.412 0 0 1 3.37 2.581zM52.881 86.246a33.365 33.365 0 1 0 0-66.731 35.033 35.033 0 0 0-7.377.819 33.37 33.37 0 0 0 7.377 65.912z" class="cls-1" data-name="Path 1309" transform="translate(247.918 978.5)"/>
        <g id="Group_2378" data-name="Group 2378" transform="translate(276.305 1006.77)">
            <path id="Path_1312" d="M24.626 49.252A24.626 24.626 0 1 0 0 24.626a24.626 24.626 0 0 0 24.626 24.626z" class="cls-2" data-name="Path 1312"/>
        </g>
        <text id="_" class="cls-3" data-name="$" transform="translate(287.045 1040.387)">
            <tspan x="0" y="0">%</tspan>
        </text>
    </g>
</svg>
