<svg xmlns="http://www.w3.org/2000/svg" width="106.652" height="86.646" viewBox="0 0 106.652 86.646">
    <defs>
        <style>
            .cls-1,.cls-2{fill:rgba(255,255,255,.4);stroke:#fefefe}.cls-1{stroke-width:1px}.cls-2{stroke-width:1px}
        </style>
    </defs>
    <g id="Group_2778" data-name="Group 2778" transform="translate(22269.68 16178.483)">
        <g id="Group_2668" data-name="Group 2668" transform="translate(-22269.43 -16130.247)">
            <path id="Path_1309" d="M38.04 16.961a19.1 19.1 0 0 1-.009 4.339 1.062 1.062 0 0 1-1.117.935l-.236-.006a4.272 4.272 0 0 0-3.9 2.586 4.228 4.228 0 0 0 1.069 4.76 1.059 1.059 0 0 1 .114 1.45 19 19 0 0 1-3.087 3.052 1.066 1.066 0 0 1-1.44-.12 4.4 4.4 0 0 0-4.725-1.075A4.241 4.241 0 0 0 22.1 36.95a1.062 1.062 0 0 1-.945 1.093 18.989 18.989 0 0 1-4.293-.012 1.06 1.06 0 0 1-.936-1.115 4.231 4.231 0 0 0-2.581-4.141 4.391 4.391 0 0 0-4.757 1.07 1.061 1.061 0 0 1-1.452.115 18.949 18.949 0 0 1-3.018-3.054 1.06 1.06 0 0 1 .116-1.438A4.242 4.242 0 0 0 5.3 24.751a4.184 4.184 0 0 0-3.926-2.615A1.262 1.262 0 0 1 .119 21.2a19.112 19.112 0 0 1 .009-4.34 1.037 1.037 0 0 1 1.1-.937 4.411 4.411 0 0 0 4.152-2.579 4.228 4.228 0 0 0-1.066-4.761 1.061 1.061 0 0 1-.114-1.45 18.951 18.951 0 0 1 3.087-3.051 1.064 1.064 0 0 1 1.44.121 4.41 4.41 0 0 0 4.723 1.075 4.245 4.245 0 0 0 2.613-4.071 1.062 1.062 0 0 1 .945-1.091A19.049 19.049 0 0 1 21.3.127a1.058 1.058 0 0 1 .936 1.114 4.238 4.238 0 0 0 2.577 4.142 4.4 4.4 0 0 0 4.759-1.069 1.062 1.062 0 0 1 1.45-.117 18.88 18.88 0 0 1 3.023 3.053 1.06 1.06 0 0 1-.116 1.439 4.213 4.213 0 0 0 2.884 7.332 1.242 1.242 0 0 1 1.227.94zM19.251 31.4a12.147 12.147 0 1 0 0-24.293 12.754 12.754 0 0 0-2.686.3 12.148 12.148 0 0 0 2.686 24z" class="cls-1" data-name="Path 1309"/>
            <g id="Group_2378" data-name="Group 2378" transform="translate(10.335 10.292)">
                <path id="Path_1312" d="M8.965 17.93A8.965 8.965 0 1 0 0 8.965a8.965 8.965 0 0 0 8.965 8.965z" class="cls-1" data-name="Path 1312"/>
            </g>
        </g>
        <g id="Group_2669" data-name="Group 2669" transform="translate(-22231.086 -16178.083)">
            <path id="Path_1309-2" d="M67.445 30.072a33.857 33.857 0 0 1-.015 7.693 1.883 1.883 0 0 1-1.98 1.658l-.418-.011A7.574 7.574 0 0 0 58.111 44a7.5 7.5 0 0 0 1.9 8.439 1.878 1.878 0 0 1 .2 2.571 33.679 33.679 0 0 1-5.473 5.411 1.89 1.89 0 0 1-2.553-.213A7.807 7.807 0 0 0 43.8 58.3a7.519 7.519 0 0 0-4.628 7.214 1.883 1.883 0 0 1-1.672 1.937 33.669 33.669 0 0 1-7.611-.02 1.879 1.879 0 0 1-1.66-1.976 7.5 7.5 0 0 0-4.577-7.342 7.785 7.785 0 0 0-8.433 1.9 1.881 1.881 0 0 1-2.575.2A33.6 33.6 0 0 1 7.293 54.8a1.88 1.88 0 0 1 .207-2.55 7.522 7.522 0 0 0 1.892-8.365 7.419 7.419 0 0 0-6.962-4.636 2.238 2.238 0 0 1-2.218-1.663 33.887 33.887 0 0 1 .015-7.693 1.839 1.839 0 0 1 1.953-1.661 7.821 7.821 0 0 0 7.361-4.573 7.5 7.5 0 0 0-1.891-8.44 1.882 1.882 0 0 1-.2-2.571 33.6 33.6 0 0 1 5.473-5.41 1.887 1.887 0 0 1 2.553.215A7.818 7.818 0 0 0 23.85 9.36a7.527 7.527 0 0 0 4.63-7.219A1.883 1.883 0 0 1 30.155.205a33.775 33.775 0 0 1 7.611.02 1.877 1.877 0 0 1 1.66 1.975A7.514 7.514 0 0 0 44 9.546a7.8 7.8 0 0 0 8.437-1.9A1.883 1.883 0 0 1 55 7.443a33.475 33.475 0 0 1 5.359 5.412 1.879 1.879 0 0 1-.206 2.551 7.47 7.47 0 0 0 5.113 13 2.2 2.2 0 0 1 2.179 1.666zm-33.312 25.6a21.536 21.536 0 1 0 0-43.073 22.613 22.613 0 0 0-4.762.528 21.539 21.539 0 0 0 4.762 42.544z" class="cls-2" data-name="Path 1309"/>
            <g id="Group_2378-2" data-name="Group 2378" transform="translate(18.325 18.247)">
                <path id="Path_1312-2" d="M15.9 31.792A15.9 15.9 0 1 0 0 15.9a15.9 15.9 0 0 0 15.9 15.892z" class="cls-2" data-name="Path 1312"/>
            </g>
        </g>
    </g>
</svg>
