<?xml version="1.0" encoding="UTF-8"?>
<svg width="70px" height="70px" viewBox="0 0 70 70" version="1.1" xmlns="http://www.w3.org/2000/svg" xmlns:xlink="http://www.w3.org/1999/xlink">
    <!-- Generator: Sketch 62 (91390) - https://sketch.com -->
    <title>Combined Shape</title>
    <desc>Created with Sketch.</desc>
    <g id="Page-1" stroke="none" stroke-width="1" fill="none" fill-rule="evenodd" fill-opacity="0.400000006">
        <path d="M38.766,1.225 C39.7557902,1.33846012 40.4844981,2.20544694 40.426,3.2 C40.246082,6.36896491 42.0768164,9.30918681 45,10.546 C47.938126,11.6724677 51.2653698,10.9231773 53.437,8.646 C54.1050163,7.91486083 55.2252165,7.82613643 56,8.443 C57.9864103,10.0372473 59.7843782,11.8529969 61.359,13.855 C61.9695552,14.6278952 61.8796619,15.7410886 61.153,16.406 C58.8550632,18.4923528 58.0866574,21.7823043 59.2226852,24.6706988 C60.358713,27.5590933 63.1624647,29.4440877 66.266,29.406 C67.2349969,29.3863172 68.0952883,30.0018182 68.3975448,30.9089589 L68.445,31.072 C68.7322974,33.6285747 68.7272649,36.2095651 68.43,38.765 C68.3126414,39.7544944 67.4447248,40.481265 66.45,40.423 L66.032,40.412 C63.0175384,40.4277595 60.2994068,42.2296361 59.111,45 C57.8949126,47.9316571 58.6558434,51.3113912 61.011,53.439 C61.7485114,54.1075575 61.8362496,55.2354323 61.211,56.01 C59.5994228,58.0168729 57.7631026,59.8323907 55.738,61.421 C54.9613511,62.0255685 53.850729,61.9329079 53.185,61.208 C51.0237025,58.9512643 47.724974,58.2006413 44.8,59.3 C41.9036456,60.5039717 40.0589631,63.3794124 40.172,66.514 C40.2063466,67.4973422 39.4778124,68.3413438 38.5,68.451 C35.9703989,68.7320265 33.4170893,68.725317 30.889,68.431 C29.8993133,68.3165734 29.1709759,67.4495885 29.229,66.455 C29.4109406,63.2856377 27.5777618,60.3450218 24.652,59.113 C21.715319,57.9841179 18.3878263,58.7338198 16.219,61.013 C15.5492972,61.7515252 14.4197056,61.8392605 13.644,61.213 C11.6610631,59.6171706 9.86588107,57.8011885 8.293,55.8 C7.68382614,55.0268715 7.77410406,53.9147522 8.5,53.25 C10.8141607,51.1295084 11.5683659,47.7949807 10.392,44.885 C9.24665072,42.0540862 6.48363491,40.2141923 3.43,40.249 C2.39501105,40.274419 1.47768348,39.5866301 1.212,38.586 C0.924963088,36.0294109 0.929995509,33.4484503 1.227,30.893 C1.32115039,29.9020043 2.18674362,29.165829 3.18,29.232 C6.33108614,29.3305914 9.23328024,27.5276117 10.541,24.659 C11.7597271,21.728924 11.0024365,18.3489492 8.65,16.219 C7.91441638,15.5494981 7.82680101,14.4232026 8.45,13.648 C10.0611179,11.6410106 11.8974927,9.82577444 13.923,8.238 C14.6540213,7.66806994 15.6818638,7.71748271 16.3542519,8.33130713 L16.476,8.453 C18.6369952,10.7022248 21.9281756,11.451721 24.85,10.36 C27.7473448,9.15416138 29.5924962,6.27723951 29.48,3.141 C29.4463262,2.15700244 30.1763878,1.31318198 31.155,1.205 C33.6846502,0.924882254 36.2378569,0.931591508 38.766,1.225 Z M35.133,13.599 C33.5314477,13.6058689 31.9351567,13.7828621 30.371,14.127 C19.6760529,16.5538647 12.5121491,26.6291453 13.7320623,37.527924 C14.9519754,48.4267028 24.1661608,56.6687646 35.133,56.671 L35.133,56.672 C47.0272805,56.672 56.6695,47.0297805 56.6695,35.1355 C56.6695,23.2412195 47.0272805,13.599 35.133,13.599 Z M46.4651663,23.8931734 C51.0141934,28.4399116 52.3759968,35.2794124 49.9154484,41.2218174 C47.4549,47.1642224 41.6566775,51.039 35.225,51.039 C26.4467957,51.039 19.3294167,43.9252032 19.324998,35.147 C19.3217639,28.7153233 23.1936222,22.9151515 29.1347881,20.4516128 C35.075954,17.988074 41.9161393,19.3464352 46.4651663,23.8931734 Z M30.7609561,40.2387198 C29.8838024,39.3616466 28.4663796,39.3473684 27.5717422,40.2065938 C26.7627102,41.0153283 26.0815263,44.2446577 26.0063874,44.6103268 C25.9871618,44.7059709 26.0118399,44.805197 26.073627,44.8806853 C26.1354141,44.9561735 26.2277952,45 26.3253349,45 C26.3475384,45 26.369691,44.9978757 26.3915019,44.9937186 C26.758,44.9185657 29.9865022,44.2372546 30.7939642,43.4285201 C31.6527799,42.5334764 31.6381098,41.115793 30.7609561,40.2387198 Z M32.0854058,44.1064812 C31.9697962,44.0757027 31.8465556,44.1091502 31.7623689,44.1941535 L31.7623689,44.1941535 L31.5263442,44.4301794 C31.4308823,44.5256439 31.4023255,44.6692131 31.4539894,44.7939422 C31.5056533,44.9186713 31.6273639,45 31.7623689,45 C31.8508958,45 31.9357964,44.96483 31.9983936,44.902231 L31.9983936,44.902231 L32.2344184,44.6662052 C32.3194212,44.5820181 32.3528686,44.458777 32.3220903,44.3431668 C32.291312,44.2275567 32.2010154,44.1372596 32.0854058,44.1064812 Z M29.1826289,40.1888712 C29.8408766,40.1889196 30.4342816,40.5855513 30.6861459,41.1938214 C30.9380102,41.8020916 30.7987348,42.502215 30.3332622,42.9677322 C29.8873638,43.4139382 28.0701257,43.9456166 26.7512711,44.2482471 C27.0554151,42.9295949 27.5856485,41.1120175 28.0319956,40.6655871 C28.3363676,40.3593372 28.7506703,40.1877358 29.1824046,40.1890955 L29.1824046,40.1890955 Z M36.772187,42.3706515 C36.6592988,42.257788 36.4764074,42.2573469 36.3629758,42.3696647 L36.3629758,42.3696647 L35.132581,43.60019 C35.0496272,43.6831276 35.024812,43.8078574 35.0697066,43.9162194 C35.1146011,44.0245815 35.2203643,44.0952381 35.3376801,44.0952381 C35.4146076,44.0952381 35.4883839,44.0646832 35.5427792,44.0102985 L35.5427792,44.0102985 L36.7731741,42.7797732 C36.8855164,42.6663665 36.8850752,42.483515 36.772187,42.3706515 Z M34.0579013,41.4658896 C33.9450131,41.3530261 33.7621216,41.352585 33.6486901,41.4649028 L33.6486901,41.4649028 L32.4182953,42.6954281 C32.3353414,42.7783657 32.3105263,42.9030955 32.3554208,43.0114575 C32.4003154,43.1198195 32.5060786,43.1904762 32.6233944,43.1904762 C32.7003219,43.1904762 32.7740982,43.1599213 32.8284935,43.1055366 L32.8284935,43.1055366 L34.0588884,41.8750112 C34.1712307,41.7616046 34.1707895,41.5787531 34.0579013,41.4658896 Z M44.0490463,26.0113296 C40.6646656,25.8542819 37.4026663,27.3372061 35.2961733,30.0077398 L35.2961733,30.0077398 L33.9731879,31.6815066 L33.7889467,31.570038 C32.1751041,30.6497123 30.1317871,30.9168994 28.8085454,32.2459625 C28.7482109,32.3059438 28.7142857,32.3875068 28.7142857,32.4725817 C28.7142857,32.5576566 28.7482109,32.6392196 28.8085454,32.6992009 L28.8085454,32.6992009 L31.2435257,35.1378352 L31.2089479,35.1818817 L31.1404884,35.2805142 C30.9148534,35.6532333 30.9679293,36.1390895 31.283169,36.454385 L31.283169,36.454385 L31.2944012,36.4653966 L30.6167209,37.1426115 L30.5132772,37.2566907 C29.9960586,37.8848148 30.0305399,38.8147553 30.6167209,39.4026372 L30.6167209,39.4026372 L31.5983333,40.3842134 L31.7124387,40.487593 C32.3406802,41.0044911 33.2703978,40.9700313 33.8584425,40.3842134 L33.8584425,40.3842134 L34.5363432,39.7061176 L34.5473552,39.716909 L34.6373158,39.7964424 C34.9811361,40.0641399 35.469968,40.068157 35.8199055,39.791788 L35.8199055,39.791788 L35.8639536,39.756771 L38.3009161,42.1921018 L38.3587284,42.2379528 C38.4820383,42.3143712 38.6460348,42.2990875 38.7530701,42.1921018 C40.1331766,40.8176681 40.3681275,38.666965 39.3173266,37.0269894 L39.3173266,37.0269894 L40.9922565,35.7055945 L41.2469326,35.4981295 C43.8399734,33.3177903 45.2311535,30.0159937 44.9684806,26.6249688 L44.9684806,26.6249688 L44.948659,26.3479164 L44.9367663,26.2826973 C44.9000874,26.157167 44.7888733,26.0639048 44.653977,26.0536858 L44.653977,26.0536858 L44.3769143,26.0316625 Z M38.8145172,37.4242888 C39.1546966,37.9741812 39.3342774,38.6082598 39.3329708,39.254641 C39.3343076,40.0765509 39.045757,40.8726089 38.5180734,41.5027742 L38.5180734,41.5027742 L36.3698463,39.3568289 Z M31.7478767,36.9151113 L34.0844094,39.2522184 L33.4065088,39.930094 L33.3161032,40.0096981 C32.9397164,40.3015797 32.3962815,40.275045 32.0502671,39.930094 L32.0502671,39.930094 L31.0686546,38.9489583 L30.989068,38.8585297 C30.6972502,38.4820615 30.7237791,37.9386639 31.0686546,37.5925464 L31.0686546,37.5925464 L31.7478767,36.9151113 Z M26.6568343,38.6779183 C26.5412247,38.6471164 26.4179842,38.6805894 26.3337975,38.7656575 L26.3337975,38.7656575 L26.0977728,39.0011727 C26.0023109,39.09671 25.973754,39.2403887 26.0254179,39.3652129 C26.0770818,39.4900372 26.1987924,39.5714286 26.3337975,39.5714286 C26.4222255,39.5716097 26.5071121,39.5366685 26.5698222,39.474275 L26.5698222,39.474275 L26.8058469,39.2380692 C26.8908498,39.1538179 26.9242972,39.0304828 26.8935189,38.9147845 C26.8627406,38.7990862 26.7724439,38.7087202 26.6568343,38.6779183 Z M38.5647644,28.0018623 L43.0021724,32.4360231 L42.7873576,32.7857573 C42.1957737,33.7056279 41.4554603,34.5220602 40.5958234,35.2012622 L40.5958234,35.2012622 L35.4243534,39.2892175 L35.3568226,39.3302378 C35.2385103,39.3833005 35.0961237,39.3601142 35.0006104,39.2647717 L35.0006104,39.2647717 L31.7359837,36.0013668 L31.687127,35.9389315 C31.6203223,35.8273071 31.6269133,35.6826308 31.7110965,35.5765383 L31.7110965,35.5765383 L35.8003041,30.4050392 L36.0613483,30.0887021 C36.7742459,29.2603523 37.6199751,28.5549531 38.5647644,28.0018623 L38.5647644,28.0018623 Z M28.6293299,36.0373182 C28.5164417,35.9244547 28.3335502,35.9240136 28.2201187,36.0363313 L28.2201187,36.0363313 L26.9897238,37.2668567 C26.90677,37.3497942 26.8819549,37.4745241 26.9268494,37.5828861 C26.971744,37.6912481 27.0775072,37.7619048 27.194823,37.7619048 C27.2715999,37.7616387 27.3451395,37.7309501 27.3993224,37.6765654 L27.3993224,37.6765654 L28.630317,36.4464398 C28.7426593,36.3330331 28.7422181,36.1501817 28.6293299,36.0373182 Z M34.9501697,36.0498182 C34.8206803,35.9203448 34.6108931,35.9198389 34.4807805,36.0486861 L34.4810098,36.0486861 L34.2457491,36.2839177 L34.1997466,36.3384205 C34.1470149,36.4165792 34.1292853,36.5146453 34.1535427,36.6080634 C34.1838644,36.7248361 34.2750381,36.816043 34.3918105,36.8464179 C34.5085828,36.8767928 34.6326505,36.8415746 34.7160412,36.7543809 L34.7160412,36.7543809 L34.951302,36.5191493 L34.9986096,36.4589826 C35.0773883,36.3307596 35.0611606,36.1607954 34.9501697,36.0498182 Z M28.6293299,34.2277944 C28.5164417,34.1149309 28.3335502,34.1144898 28.2201187,34.2268075 L28.2201187,34.2268075 L26.9897238,35.4573328 C26.90677,35.5402704 26.8819549,35.6650003 26.9268494,35.7733623 C26.971744,35.8817243 27.0775072,35.952381 27.194823,35.952381 C27.2715999,35.9521149 27.3451395,35.9214263 27.3993224,35.8670416 L27.3993224,35.8670416 L28.630317,34.636916 C28.7426593,34.5235093 28.7422181,34.3406579 28.6293299,34.2277944 Z M36.7473923,34.2526861 C36.6015571,34.1067468 36.3652879,34.1061765 36.2187509,34.25141 L36.2190092,34.25141 L35.1586597,35.3109661 L35.1084647,35.3725559 C35.0511015,35.4605764 35.0325992,35.5699624 35.0602403,35.673862 C35.0947916,35.8037365 35.1961575,35.9051747 35.3259393,35.9397507 C35.4557211,35.9743267 35.5940694,35.9367523 35.6885762,35.841261 L35.6885762,35.841261 L36.7486674,34.7817049 L36.8019468,34.7138864 C36.8906699,34.5693565 36.8723938,34.3777769 36.7473923,34.2526861 Z M29.6655584,32.3509165 C30.8071638,31.5078252 32.3552585,31.4353106 33.5758738,32.1867199 L33.5758738,32.1867199 L31.6428219,34.6313005 L29.497458,32.4831529 Z M40.1712338,31.3281839 C39.6916504,30.6104075 38.771815,30.3313758 37.9742828,30.6617397 C37.1767507,30.9921036 36.7236565,31.8398477 36.8921049,32.6865064 C37.0605532,33.5331651 37.8036265,34.1429206 38.6668741,34.1428571 C39.1466873,34.1428571 39.6068408,33.9522112 39.9461354,33.6129452 C40.5565714,33.0025608 40.6508172,32.0459602 40.1712338,31.3281839 Z M38.6668741,31.2479173 C39.1059044,31.248067 39.5016384,31.5126018 39.6696278,31.9182239 C39.8376171,32.3238461 39.7447973,32.7907192 39.4344309,33.1012374 C39.0048073,33.5111238 38.3289409,33.5111238 37.8993173,33.1012374 C37.5889509,32.7907192 37.4961311,32.3238461 37.6641204,31.9182239 C37.8321098,31.5126018 38.2278438,31.248067 38.6668741,31.2479173 Z M43.5675301,26.6401649 C43.8197056,26.6401649 44.0740835,26.6498551 44.3311043,26.67342 L44.3311043,26.67342 L44.3519786,27.0303912 C44.4192138,28.695959 44.0646757,30.3536663 43.3186582,31.8486631 L43.3186582,31.8486631 L39.1506044,27.682305 L39.496365,27.5178916 C40.7743807,26.9402408 42.1621041,26.6404292 43.5675301,26.6401649 Z" id="Combined-Shape" stroke="#FEFEFE" fill="#FFFFFF" fill-rule="nonzero"></path>
    </g>
</svg>