<?xml version="1.0" encoding="UTF-8"?>
<svg width="90px" height="90px" viewBox="0 0 90 90" version="1.1" xmlns="http://www.w3.org/2000/svg" xmlns:xlink="http://www.w3.org/1999/xlink">
    <!-- Generator: Sketch 54.1 (76490) - https://sketchapp.com -->
    <title>bandwidth</title>
    <desc>Created with Sketch.</desc>
    <g id="Page-1" stroke="none" stroke-width="1" fill="none" fill-rule="evenodd">
        <g id="bandwidth" fill="#FFFFFF" fill-rule="nonzero">
            <circle id="Oval" cx="13.5075586" cy="25.499707" r="1.49994141"></circle>
            <path d="M7.50761719,50.9997656 L52.5076172,50.9997656 C54.9928125,50.9997656 57.0076172,48.9849609 57.0076172,46.4997656 L57.0076172,40.4998242 C57.0076172,38.0146289 54.9929883,35.9998242 52.5076172,35.9998242 L7.50761719,35.9998242 C5.02242187,35.9998242 3.00761719,38.0146289 3.00761719,40.4998242 L3.00761719,46.4997656 C3.00761719,48.9849609 5.02224609,50.9997656 7.50761719,50.9997656 Z M45.0075586,41.9997656 L48.0076172,41.9997656 C48.8360742,41.9997656 49.5075586,42.67125 49.5075586,43.499707 C49.5075586,44.3281641 48.8358984,44.9996484 48.0076172,44.9996484 L45.0075586,44.9996484 C44.1791016,44.9996484 43.5076172,44.3281641 43.5076172,43.499707 C43.5076172,42.67125 44.1791016,41.9997656 45.0075586,41.9997656 Z M36.0075586,41.9997656 L39.0076172,41.9997656 C39.8360742,41.9997656 40.5075586,42.67125 40.5075586,43.499707 C40.5075586,44.3281641 39.8360742,44.9996484 39.0076172,44.9996484 L36.0075586,44.9996484 C35.1791016,44.9996484 34.5076172,44.3281641 34.5076172,43.499707 C34.5076172,42.67125 35.1791016,41.9997656 36.0075586,41.9997656 Z M13.5075586,38.999707 C15.9927539,38.999707 18.0075586,41.0143359 18.0075586,43.499707 C18.0075586,45.9850781 15.9927539,47.999707 13.5075586,47.999707 C11.0223633,47.999707 9.00755859,45.9850781 9.00755859,43.499707 C9.00755859,41.0145117 11.0223633,38.999707 13.5075586,38.999707 Z" id="Shape"></path>
            <circle id="Oval" cx="13.5075586" cy="43.499707" r="1.49994141"></circle>
            <path d="M7.50761719,32.9997656 L52.5076172,32.9997656 C54.9928125,32.9997656 57.0076172,30.9851367 57.0076172,28.4997656 L57.0076172,22.4998242 C57.0076172,20.0146289 54.9929883,17.9998242 52.5076172,17.9998242 L7.50761719,17.9998242 C5.02242187,17.9998242 3.00761719,20.0144531 3.00761719,22.4998242 L3.00761719,28.4997656 C3.00761719,30.9849609 5.02224609,32.9997656 7.50761719,32.9997656 Z M45.0075586,23.9997656 L48.0076172,23.9997656 C48.8360742,23.9997656 49.5075586,24.67125 49.5075586,25.499707 C49.5075586,26.3281641 48.8358984,26.9996484 48.0076172,26.9996484 L45.0075586,26.9996484 C44.1791016,26.9996484 43.5076172,26.3279883 43.5076172,25.499707 C43.5076172,24.6714258 44.1791016,23.9997656 45.0075586,23.9997656 Z M36.0075586,23.9997656 L39.0076172,23.9997656 C39.8360742,23.9997656 40.5075586,24.67125 40.5075586,25.499707 C40.5075586,26.3281641 39.8360742,26.9996484 39.0076172,26.9996484 L36.0075586,26.9996484 C35.1791016,26.9996484 34.5076172,26.3279883 34.5076172,25.499707 C34.5076172,24.6714258 35.1791016,23.9997656 36.0075586,23.9997656 Z M13.5075586,20.999707 C15.9927539,20.999707 18.0075586,23.0143359 18.0075586,25.499707 C18.0075586,27.9850781 15.9927539,29.999707 13.5075586,29.999707 C11.0223633,29.999707 9.00755859,27.9849023 9.00755859,25.499707 C9.00755859,23.0145117 11.0223633,20.999707 13.5075586,20.999707 Z" id="Shape"></path>
            <circle id="Oval" cx="13.5075586" cy="61.499707" r="1.49994141"></circle>
            <path d="M61.5076172,83.999707 L46.5076758,83.999707 C46.5076758,82.342793 45.1645312,80.9996484 43.5076172,80.9996484 L34.5076172,80.9996484 L34.5076172,68.9995898 L52.5076172,68.9995898 C54.9928125,68.9995898 57.0076172,66.9849609 57.0076172,64.4995898 L57.0076172,58.4996484 C57.0076172,56.0144531 54.9929883,53.9996484 52.5076172,53.9996484 L7.50761719,53.9996484 C5.02242188,53.9996484 3.00761719,56.0144531 3.00761719,58.4996484 L3.00761719,64.4995898 C3.00761719,66.9847852 5.02242188,68.9995898 7.50761719,68.9995898 L25.5076172,68.9995898 L25.5076172,80.9996484 L16.5076172,80.9996484 C14.8507031,80.9996484 13.5075586,82.342793 13.5075586,83.999707 L1.50767578,83.999707 C0.67921875,83.999707 0.007734375,84.6711914 0.007734375,85.4996484 C0.007734375,86.3281055 0.67921875,86.9995898 1.50767578,86.9995898 L13.5077344,86.9995898 C13.5077344,88.6565039 14.8508789,89.9996484 16.507793,89.9996484 L43.507793,89.9996484 C45.164707,89.9996484 46.5078516,88.6565039 46.5078516,86.9995898 L61.507793,86.9995898 C62.33625,86.9995898 63.0077344,86.3281055 63.0077344,85.4996484 C63.0077344,84.6711914 62.3360742,83.999707 61.5076172,83.999707 Z M45.0075586,59.9997656 L48.0076172,59.9997656 C48.8360742,59.9997656 49.5075586,60.67125 49.5075586,61.499707 C49.5075586,62.3281641 48.8358984,62.9996484 48.0076172,62.9996484 L45.0075586,62.9996484 C44.1791016,62.9996484 43.5076172,62.3281641 43.5076172,61.499707 C43.5076172,60.67125 44.1791016,59.9997656 45.0075586,59.9997656 Z M36.0075586,59.9997656 L39.0076172,59.9997656 C39.8360742,59.9997656 40.5075586,60.67125 40.5075586,61.499707 C40.5075586,62.3281641 39.8360742,62.9996484 39.0076172,62.9996484 L36.0075586,62.9996484 C35.1791016,62.9996484 34.5076172,62.3281641 34.5076172,61.499707 C34.5076172,60.67125 35.1791016,59.9997656 36.0075586,59.9997656 Z M13.5075586,65.999707 C11.0223633,65.999707 9.00755859,63.9850781 9.00755859,61.499707 C9.00755859,59.0143359 11.0221875,56.999707 13.5075586,56.999707 C15.9929297,56.999707 18.0075586,59.0145117 18.0075586,61.499707 C18.0075586,63.9849023 15.9929297,65.999707 13.5075586,65.999707 Z M28.5076758,68.9997656 L31.5077344,68.9997656 L31.5077344,80.9998242 L28.5076758,80.9998242 L28.5076758,68.9997656 Z M43.5076172,86.9997656 L16.5076172,86.9997656 L16.5076172,83.999707 L43.5076172,83.999707 L43.5076172,86.9997656 Z" id="Shape"></path>
            <path d="M75.0076172,10.4997656 C75.6142383,10.4995898 76.1610937,10.1341406 76.393125,9.57375 C76.6251562,9.01335938 76.4970117,8.36824219 76.0681055,7.93933594 L68.5680469,0.439277344 C68.4283008,0.299355469 68.2620117,0.188613281 68.0790234,0.113730469 C67.7119922,-0.03796875 67.2999609,-0.03796875 66.9331055,0.113730469 C66.7501172,0.188613281 66.5838281,0.299179688 66.444082,0.439277344 L58.9440234,7.93933594 C58.3755469,8.52785156 58.3836328,9.46353516 58.9623047,10.0420313 C59.5409766,10.6207031 60.4764844,10.6287891 61.065,10.0603125 L66.0074414,5.12085938 L66.0074414,28.4999414 C66.0074414,29.3283984 66.6789258,29.9998828 67.5073828,29.9998828 C68.3358398,29.9998828 69.0073242,29.3283984 69.0073242,28.4999414 L69.0073242,5.12068359 L73.9467773,10.0601367 C74.2283789,10.3415625 74.6098242,10.4995898 75.0076172,10.4997656 Z" id="Path"></path>
            <path d="M89.5528125,31.9575586 C88.9741406,31.3788867 88.0386328,31.3708008 87.4501172,31.9392773 L87.4471289,31.9392773 L82.5076758,36.8787305 L82.5076758,13.4998242 C82.5076758,12.6713672 81.8361914,11.9998828 81.0077344,11.9998828 C80.1792773,11.9998828 79.507793,12.6713672 79.507793,13.4998242 L79.507793,36.8789062 L74.5683398,31.9394531 C73.9798242,31.3709766 73.0441406,31.3790625 72.4656445,31.9577344 C71.8869727,32.5364063 71.8788867,33.4719141 72.4473633,34.0604297 L79.9474219,41.5604883 C80.2288477,41.8426172 80.6109961,42.0011719 81.0094922,42.0011719 C81.4079883,42.0011719 81.7901367,41.8426172 82.0715625,41.5604883 L89.5716211,34.0604297 C90.1395703,33.4717383 90.1314844,32.5360547 89.5528125,31.9575586 Z" id="Path"></path>
        </g>
    </g>
</svg>