<svg xmlns="http://www.w3.org/2000/svg" width="82.383" height="96.744" viewBox="0 0 82.383 96.744">
    <defs>
        <style>
            .cls-1{fill:#fefefe}.cls-2{clip-path:url(#clip-path)}.cls-3{clip-path:url(#clip-path-2)}
        </style>
        <clipPath id="clip-path">
            <path id="Path_1346" d="M144.874-358.543a18.454 18.454 0 0 0-18.433 18.432 18.454 18.454 0 0 0 18.433 18.433 18.454 18.454 0 0 0 18.432-18.433 18.453 18.453 0 0 0-18.432-18.432zm10.944 14.961l-13.205 13.205a2.831 2.831 0 0 1-2.008.832 2.827 2.827 0 0 1-2.007-.832l-5.046-5.046a2.838 2.838 0 0 1 0-4.014 2.838 2.838 0 0 1 4.014 0l3.039 3.04 11.2-11.2a2.838 2.838 0 0 1 4.014 0 2.838 2.838 0 0 1-.001 4.015z" class="cls-1" data-name="Path 1346" transform="translate(-126.441 358.543)"/>
        </clipPath>
        <clipPath id="clip-path-2">
            <path id="Path_1349" d="M88.287-490.752v-.075a101.12 101.12 0 0 1-.087-3.006 10.253 10.253 0 0 0-9.654-10.045c-11.123-.621-19.728-4.248-27.08-11.414l-.063-.06a6.191 6.191 0 0 0-8.414 0l-.063.06c-7.352 7.166-15.957 10.793-27.08 11.415a10.253 10.253 0 0 0-9.654 10.045 99.097 99.097 0 0 1-.087 3.005v.175c-.216 11.342-.485 25.458 4.237 38.271a48.717 48.717 0 0 0 11.688 18.205c5.875 5.734 13.571 10.285 22.872 13.529a7.066 7.066 0 0 0 .937.255 6.948 6.948 0 0 0 1.361.135 6.942 6.942 0 0 0 1.361-.135 7.077 7.077 0 0 0 .941-.257c9.29-3.249 16.978-7.8 22.848-13.536a48.788 48.788 0 0 0 11.688-18.21c4.732-12.85 4.462-26.993 4.249-38.357zm-41.1 46.234a24.137 24.137 0 0 1-24.11-24.11 24.137 24.137 0 0 1 24.11-24.11 24.137 24.137 0 0 1 24.11 24.11 24.137 24.137 0 0 1-24.106 24.111z" class="cls-1" data-name="Path 1349" transform="translate(-6 517.001)"/>
        </clipPath>
    </defs>
    <g id="Group_2420" data-name="Group 2420" transform="translate(-6 517)">
        <g id="Group_2416" class="cls-2" data-name="Group 2416" transform="translate(28.758 -487.06)">
            <path id="Path_1345" d="M121.441-363.543H160.2v38.755h-38.759z" class="cls-1" data-name="Path 1345" transform="translate(-122.386 362.598)"/>
        </g>
        <g id="Group_2417" data-name="Group 2417" transform="translate(28.758 -487.06)">
            <path id="Path_1347" d="M18.433 0a18.433 18.433 0 1 0 18.433 18.432A18.454 18.454 0 0 0 18.433 0zm10.944 14.961L16.172 28.166a2.838 2.838 0 0 1-4.014 0L7.111 23.12a2.838 2.838 0 0 1 4.014-4.014l3.039 3.039 11.2-11.2a2.838 2.838 0 1 1 4.014 4.014z" class="cls-1" data-name="Path 1347"/>
        </g>
        <g id="Group_2418" class="cls-3" data-name="Group 2418" transform="translate(6 -517.001)">
            <path id="Path_1348" d="M1-522h84.272v98.633H1z" class="cls-1" data-name="Path 1348" transform="translate(-1.945 521.056)"/>
        </g>
        <g id="Group_2419" data-name="Group 2419" transform="translate(6 -517.001)">
            <path id="Path_1350" d="M82.286 26.249v-.075a101.12 101.12 0 0 1-.087-3.006 10.253 10.253 0 0 0-9.654-10.045C61.419 12.5 52.814 8.875 45.462 1.709l-.063-.06a6.191 6.191 0 0 0-8.414 0l-.063.06C29.57 8.875 20.966 12.5 9.842 13.124A10.253 10.253 0 0 0 .188 23.168 95.856 95.856 0 0 1 .1 26.174v.175C-.12 37.691-.388 51.807 4.334 64.62a48.717 48.717 0 0 0 11.688 18.205c5.878 5.733 13.57 10.285 22.872 13.528a7.072 7.072 0 0 0 .937.255 6.925 6.925 0 0 0 2.722 0 7.077 7.077 0 0 0 .941-.257c9.29-3.249 16.978-7.8 22.848-13.536A48.789 48.789 0 0 0 78.03 64.606c4.74-12.851 4.47-26.993 4.256-38.357zm-41.1 46.234A24.11 24.11 0 1 1 65.3 48.373a24.137 24.137 0 0 1-24.109 24.11z" class="cls-1" data-name="Path 1350"/>
        </g>
    </g>
</svg>
