<svg xmlns="http://www.w3.org/2000/svg" width="90.756" height="95.975" viewBox="0 0 90.756 95.975">
    <defs>
        <style>
            .cls-1{fill:#fefefe;stroke:#fefefe;stroke-width:.5px;fill-rule:evenodd}
        </style>
    </defs>
    <g id="Group_2428" data-name="Group 2428" transform="translate(-1458.42 -557.639)">
        <path id="Combined-Shape" d="M87.881 17.4L47.845 36.132a5.634 5.634 0 0 1-4.819-.04L3.08 16.553l-.125.061a2.981 2.981 0 0 0-1.264 1.15 2.7 2.7 0 0 0 1.264 3.826l41.051 20.08a3.381 3.381 0 0 0 2.892.024l41.078-19.22a3 3 0 0 0 1.291-1.135 2.7 2.7 0 0 0-1.2-3.844z" class="cls-1" transform="translate(1458.111 611.334)"/>
        <path id="Combined-Shape-2" d="M88.332 14.73l-40.7 18.979a5.635 5.635 0 0 1-4.807-.04L2.467 13.992a2.9 2.9 0 0 0-.776.856 2.7 2.7 0 0 0 1.27 3.825L44 38.683a3.381 3.381 0 0 0 2.884.024L87.96 19.554a3 3 0 0 0 1.3-1.141 2.672 2.672 0 0 0-.928-3.683z" class="cls-1" data-name="Combined-Shape" transform="translate(1458.117 604.249)"/>
        <path id="Combined-Shape-3" d="M88.332 12.393l-40.7 18.979a5.635 5.635 0 0 1-4.807-.04L2.467 11.655a2.9 2.9 0 0 0-.776.856 2.7 2.7 0 0 0 1.27 3.825L44 36.346a3.381 3.381 0 0 0 2.884.024L87.96 17.217a3 3 0 0 0 1.3-1.141 2.672 2.672 0 0 0-.928-3.683z" class="cls-1" data-name="Combined-Shape" transform="translate(1458.117 597.783)"/>
        <path id="Rectangle-Copy-6" d="M16.943 14.334a3.364 3.364 0 0 0-2.124 2.094L.167 59.37a2.977 2.977 0 0 0-.079 1.7 2.7 2.7 0 0 0 3.6 1.816l43.026-14.681a3.366 3.366 0 0 0 2.06-2.026L64.082 3.738a2.991 2.991 0 0 0 .108-1.709A2.7 2.7 0 0 0 60.628.153z" class="cls-1" transform="rotate(45 78.12 2093.728)"/>
    </g>
</svg>
