<svg xmlns="http://www.w3.org/2000/svg" width="90.064" height="98.436" viewBox="0 0 90.064 98.436">
    <defs>
        <style>
            .cls-1{fill:none}.cls-2{clip-path:url(#clip-path)}.cls-3{fill:#fff}
        </style>
        <clipPath id="clip-path">
            <path id="Path_1591" d="M61.113-419.8v6.388l22.727-22.722a11.489 11.489 0 0 0-.006-16.248 11.489 11.489 0 0 0-16.248.006l-6.954 6.954a1.641 1.641 0 0 1-2.32 0l-6.956-6.956a11.373 11.373 0 0 0-7.3-3.312 12.044 12.044 0 0 0-.87-.033 11.443 11.443 0 0 0-1.149.058A11.448 11.448 0 0 0 31.8-443.121a11.225 11.225 0 0 0 1.668 4.894 11.084 11.084 0 0 0 1.632 2.085l22.727 22.729v-6.614-.115a3.1 3.1 0 0 0-1.875-2.558 2.69 2.69 0 0 0-2.914.656.65.65 0 0 1-.89.07 11.608 11.608 0 0 1-1.849-1.871.65.65 0 0 1 .071-.881 2.6 2.6 0 0 0 .654-2.891 2.564 2.564 0 0 0-2.405-1.6.773.773 0 0 1-.767-.575 11.709 11.709 0 0 1 .005-2.658.635.635 0 0 1 .675-.574 2.7 2.7 0 0 0 2.544-1.58 2.59 2.59 0 0 0-.654-2.917.65.65 0 0 1-.07-.888 11.611 11.611 0 0 1 1.891-1.87.652.652 0 0 1 .882.074 2.7 2.7 0 0 0 2.894.659 2.6 2.6 0 0 0 1.6-2.494.65.65 0 0 1 .579-.669 11.673 11.673 0 0 1 2.63.007.649.649 0 0 1 .574.683 2.6 2.6 0 0 0 1.579 2.538 2.694 2.694 0 0 0 2.915-.655.651.651 0 0 1 .888-.072 11.567 11.567 0 0 1 1.852 1.87.649.649 0 0 1-.071.881 2.6 2.6 0 0 0-.654 2.891 2.6 2.6 0 0 0 2.42 1.6.761.761 0 0 1 .751.576 11.7 11.7 0 0 1-.005 2.658.651.651 0 0 1-.684.573h-.145a2.617 2.617 0 0 0-2.391 1.585 2.59 2.59 0 0 0 .655 2.916.649.649 0 0 1 .07.888 11.637 11.637 0 0 1-1.882 1.87.653.653 0 0 1-.882-.074 2.7 2.7 0 0 0-2.9-.659 3.566 3.566 0 0 0-1.788 2.721 2.972 2.972 0 0 1-.017.112zm4.157-34.9a14.819 14.819 0 0 1 20.89 0 14.78 14.78 0 0 1 0 20.875l-25.047 25.05v12.446a14.782 14.782 0 0 1-14.765 14.765H36.5a14.782 14.782 0 0 1-14.761-14.766v-34.453H20.1a1.641 1.641 0 0 1-1.641-1.641v-3.276H6.973a1.641 1.641 0 0 1-1.641-1.641v-11.009a21.24 21.24 0 0 1-4.922-13.6v-13.125a1.641 1.641 0 0 1 1.641-1.641h4.922v-1.641A1.641 1.641 0 0 1 8.614-480H11.9a4.922 4.922 0 0 1 4.922 4.922 4.922 4.922 0 0 1-4.922 4.922H8.614a1.641 1.641 0 0 1-1.641-1.644v-1.641H3.692v11.484a17.979 17.979 0 0 0 4.51 11.94 18.075 18.075 0 0 0 13.537 6.106h3.281a17.649 17.649 0 0 0 3.445-.371A14.714 14.714 0 0 1 42.8-459a18.347 18.347 0 0 0 .266-2.953v-11.484h-4.921v1.641a1.641 1.641 0 0 1-1.641 1.641h-3.281a4.922 4.922 0 0 1-4.922-4.922A4.922 4.922 0 0 1 33.223-480H36.5a1.641 1.641 0 0 1 1.641 1.641v1.641h6.562a1.641 1.641 0 0 1 1.641 1.641v13.125a21.59 21.59 0 0 1-.271 3.234 14.638 14.638 0 0 1 7.6 4.023l5.8 5.8zm-32.047-18.738h1.641v-3.281h-1.641a1.641 1.641 0 0 0-1.641 1.641 1.641 1.641 0 0 0 1.641 1.64zM11.9-476.719h-1.645v3.281H11.9a1.641 1.641 0 0 0 1.641-1.641 1.641 1.641 0 0 0-1.641-1.64zm-3.286 31.577v6.157H29.44c-.025-.064-.036-.133-.059-.2a14.48 14.48 0 0 1-.45-1.477c-.026-.1-.069-.2-.094-.305a21.2 21.2 0 0 1-3.818.34h-3.28a21.346 21.346 0 0 1-13.125-4.515zM25.02-435.7h-3.281v1.641h3.281zm21.328 50.858a11.5 11.5 0 0 0 11.484-11.488v-12.446l-25.047-25.046a14.269 14.269 0 0 1-1.55-1.882H28.3v3.281a1.641 1.641 0 0 1-1.641 1.641H25.02v34.453a11.5 11.5 0 0 0 11.48 11.484zm13.23-38.7a7.442 7.442 0 0 0 7.442-7.442 7.442 7.442 0 0 0-7.442-7.442 7.442 7.442 0 0 0-7.442 7.442 7.442 7.442 0 0 0 7.442 7.441zm-.105-2.42a5.127 5.127 0 0 1-5.127-5.127 5.127 5.127 0 0 1 5.127-5.127 5.127 5.127 0 0 1 5.127 5.126 5.127 5.127 0 0 1-5.128 5.127z" class="cls-1" data-name="Path 1591" transform="translate(-.411 480)"/>
        </clipPath>
    </defs>
    <g id="Group_2768" data-name="Group 2768" transform="translate(-.411 480)">
        <g id="Group_2767" class="cls-2" data-name="Group 2767" transform="translate(.411 -480)">
            <path id="Path_1590" d="M-4.589-485h92.115v100.487H-4.589z" class="cls-3" data-name="Path 1590" transform="translate(3.564 483.975)"/>
        </g>
    </g>
</svg>
