<svg xmlns="http://www.w3.org/2000/svg" width="49.962" height="47.604" viewBox="0 0 29.962 27.604">
    <defs>
        <style>
            .cls-1{fill:#fefefe}.cls-2{clip-path:url(#clip-path)}.cls-3{clip-path:url(#clip-path-2)}.cls-4{clip-path:url(#clip-path-3)}.cls-5{clip-path:url(#clip-path-4)}.cls-6{clip-path:url(#clip-path-5)}.cls-7{clip-path:url(#clip-path-6)}.cls-8{clip-path:url(#clip-path-7)}.cls-9{clip-path:url(#clip-path-8)}
        </style>
        <clipPath id="clip-path">
            <path id="Path_1620" d="M29.926-12.216l-1.678-5.159-3.321-10.232a.574.574 0 0 0-.545-.393.574.574 0 0 0-.545.392l-3.321 10.227H9.481L6.16-27.607A.573.573 0 0 0 5.616-28a.573.573 0 0 0-.544.392L1.756-17.381.077-12.216a1.143 1.143 0 0 0 .414 1.277L15-.4l14.507-10.539a1.145 1.145 0 0 0 .42-1.277" class="cls-1" data-name="Path 1620" transform="translate(-.021 27.999)"/>
        </clipPath>
        <clipPath id="clip-path-2">
            <path id="Path_1622" d="M15-.4l5.517-16.978H9.486z" class="cls-1" data-name="Path 1622" transform="translate(-9.486 17.382)"/>
        </clipPath>
        <clipPath id="clip-path-3">
            <path id="Path_1624" d="M15-.4L9.481-17.382H1.759z" class="cls-1" data-name="Path 1624" transform="translate(-1.759 17.382)"/>
        </clipPath>
        <clipPath id="clip-path-4">
            <path id="Path_1626" d="M1.753-17.377L.075-12.218a1.143 1.143 0 0 0 .414 1.277L15-.4z" class="cls-1" data-name="Path 1626" transform="translate(-.018 17.377)"/>
        </clipPath>
        <clipPath id="clip-path-5">
            <path id="Path_1628" d="M1.756-17.377h7.731L6.16-27.6a.574.574 0 0 0-.545-.392.574.574 0 0 0-.545.392z" class="cls-1" data-name="Path 1628" transform="translate(-1.756 27.993)"/>
        </clipPath>
        <clipPath id="clip-path-6">
            <path id="Path_1630" d="M15-.4l5.517-16.978h7.734z" class="cls-1" data-name="Path 1630" transform="translate(-15 17.382)"/>
        </clipPath>
        <clipPath id="clip-path-7">
            <path id="Path_1632" d="M28.246-17.377l1.678 5.159a1.141 1.141 0 0 1-.414 1.277L15-.4l13.243-16.977z" class="cls-1" data-name="Path 1632" transform="translate(-15 17.377)"/>
        </clipPath>
        <clipPath id="clip-path-8">
            <path id="Path_1634" d="M28.25-17.377h-7.731L23.84-27.6a.573.573 0 0 1 .544-.392.573.573 0 0 1 .544.392z" class="cls-1" data-name="Path 1634" transform="translate(-20.519 27.994)"/>
        </clipPath>
    </defs>
    <g id="Group_2854" data-name="Group 2854" transform="translate(0 .001)">
        <g id="Group_2846" class="cls-2" data-name="Group 2846" transform="translate(.003)">
            <path id="Path_1619" d="M-4.979-33h39.96V4.6h-39.96z" class="cls-1" data-name="Path 1619" transform="translate(-.021 27.999)"/>
        </g>
        <g id="Group_2847" class="cls-3" data-name="Group 2847" transform="translate(9.467 10.617)">
            <path id="Path_1621" d="M4.486-22.382h21.031V4.6H4.486z" class="cls-1" data-name="Path 1621" transform="translate(-9.486 17.382)"/>
        </g>
        <g id="Group_2848" class="cls-4" data-name="Group 2848" transform="translate(1.741 10.617)">
            <path id="Path_1623" d="M-3.241-22.382H20V4.6H-3.241z" class="cls-1" data-name="Path 1623" transform="translate(-1.759 17.382)"/>
        </g>
        <g id="Group_2849" class="cls-5" data-name="Group 2849" transform="translate(0 10.623)">
            <path id="Path_1625" d="M-4.982-22.377H20V4.6H-4.982z" class="cls-1" data-name="Path 1625" transform="translate(-.018 17.377)"/>
        </g>
        <g id="Group_2850" class="cls-6" data-name="Group 2850" transform="translate(1.737 .006)">
            <path id="Path_1627" d="M-3.244-32.993h17.731v20.617H-3.244z" class="cls-1" data-name="Path 1627" transform="translate(-1.756 27.993)"/>
        </g>
        <g id="Group_2851" class="cls-7" data-name="Group 2851" transform="translate(14.982 10.617)">
            <path id="Path_1629" d="M10-22.382h23.251V4.6H10z" class="cls-1" data-name="Path 1629" transform="translate(-15 17.382)"/>
        </g>
        <g id="Group_2852" class="cls-8" data-name="Group 2852" transform="translate(14.982 10.623)">
            <path id="Path_1631" d="M10-22.377h24.981V4.6H10z" class="cls-1" data-name="Path 1631" transform="translate(-15 17.377)"/>
        </g>
        <g id="Group_2853" class="cls-9" data-name="Group 2853" transform="translate(20.5 .005)">
            <path id="Path_1633" d="M15.519-32.994H33.25v20.617H15.519z" class="cls-1" data-name="Path 1633" transform="translate(-20.519 27.994)"/>
        </g>
    </g>
</svg>
