<svg xmlns="http://www.w3.org/2000/svg" width="49" height="47.602" viewBox="0 0 38.883 27.602">
    <defs>
        <style>
            .cls-1{fill:#fefefe}.cls-2{clip-path:url(#clip-path)}.cls-3{clip-path:url(#clip-path-2)}.cls-4{clip-path:url(#clip-path-3)}.cls-5{clip-path:url(#clip-path-4)}.cls-6{clip-path:url(#clip-path-5)}.cls-7{clip-path:url(#clip-path-6)}.cls-8{clip-path:url(#clip-path-7)}.cls-9{clip-path:url(#clip-path-8)}.cls-10{clip-path:url(#clip-path-9)}.cls-11{clip-path:url(#clip-path-10)}
        </style>
        <clipPath id="clip-path">
            <path id="Path_1636" d="M38.906-10.434c-1.857 2.262-5.5 2.086-5.5 2.086C31.165 1.321 17.61 6.242 8.2 3.824S.083-9.817.083-9.817h27.542c2.273 0 2.446-.691 2.446-.691-2.015-4.778 1.094-7.339 1.094-7.339 2.418.432 3.021 4.576 3.021 4.576a8.066 8.066 0 0 1 4.553.475 21.564 21.564 0 0 1 .167 2.362z" class="cls-1" data-name="Path 1636" transform="translate(-.023 17.846)"/>
        </clipPath>
        <clipPath id="clip-path-2">
            <path id="Path_1638" d="M2.332-15.028h3.857v3.511H2.332z" class="cls-1" data-name="Path 1638" transform="translate(-2.332 15.028)"/>
        </clipPath>
        <clipPath id="clip-path-3">
            <path id="Path_1640" d="M6.068-15.028h3.857v3.511H6.068z" class="cls-1" data-name="Path 1640" transform="translate(-6.068 15.028)"/>
        </clipPath>
        <clipPath id="clip-path-4">
            <path id="Path_1642" d="M17.276-15.028h3.857v3.511h-3.857z" class="cls-1" data-name="Path 1642" transform="translate(-17.276 15.028)"/>
        </clipPath>
        <clipPath id="clip-path-5">
            <path id="Path_1644" d="M13.54-15.028h3.86v3.511h-3.86z" class="cls-1" data-name="Path 1644" transform="translate(-13.54 15.028)"/>
        </clipPath>
        <clipPath id="clip-path-6">
            <path id="Path_1646" d="M13.54-21.95h3.86v3.511h-3.86z" class="cls-1" data-name="Path 1646" transform="translate(-13.54 21.95)"/>
        </clipPath>
        <clipPath id="clip-path-7">
            <path id="Path_1648" d="M9.8-15.028h3.857v3.511H9.8z" class="cls-1" data-name="Path 1648" transform="translate(-9.804 15.028)"/>
        </clipPath>
        <clipPath id="clip-path-8">
            <path id="Path_1650" d="M6.068-18.49h3.857v3.511H6.068z" class="cls-1" data-name="Path 1650" transform="translate(-6.068 18.49)"/>
        </clipPath>
        <clipPath id="clip-path-9">
            <path id="Path_1652" d="M13.54-18.49h3.86v3.511h-3.86z" class="cls-1" data-name="Path 1652" transform="translate(-13.54 18.49)"/>
        </clipPath>
        <clipPath id="clip-path-10">
            <path id="Path_1654" d="M9.8-18.49h3.857v3.511H9.8z" class="cls-1" data-name="Path 1654" transform="translate(-9.804 18.49)"/>
        </clipPath>
    </defs>
    <g id="Group_2866" data-name="Group 2866" transform="translate(-.023 21.95)">
        <g id="Group_2856" class="cls-2" data-name="Group 2856" transform="translate(.023 -16.627)">
            <path id="Path_1635" d="M-4.977-22.846h51.855v35.252H-4.977z" class="cls-1" data-name="Path 1635" transform="translate(-1.509 16.36)"/>
        </g>
        <g id="Group_2857" class="cls-3" data-name="Group 2857" transform="translate(3.018 -12.971)">
            <path id="Path_1637" d="M-2.668-20.028h16.829v16.483H-2.668z" class="cls-1" data-name="Path 1637" transform="translate(-3.818 13.542)"/>
        </g>
        <g id="Group_2858" class="cls-4" data-name="Group 2858" transform="translate(7.865 -12.971)">
            <path id="Path_1639" d="M1.068-20.028H17.9v16.483H1.068z" class="cls-1" data-name="Path 1639" transform="translate(-7.554 13.542)"/>
        </g>
        <g id="Group_2859" class="cls-5" data-name="Group 2859" transform="translate(22.403 -12.971)">
            <path id="Path_1641" d="M12.276-20.028H29.1v16.483H12.276z" class="cls-1" data-name="Path 1641" transform="translate(-18.762 13.542)"/>
        </g>
        <g id="Group_2860" class="cls-6" data-name="Group 2860" transform="translate(17.557 -12.971)">
            <path id="Path_1643" d="M8.54-20.028h16.829v16.483H8.54z" class="cls-1" data-name="Path 1643" transform="translate(-15.026 13.542)"/>
        </g>
        <g id="Group_2861" class="cls-7" data-name="Group 2861" transform="translate(17.557 -21.95)">
            <path id="Path_1645" d="M8.54-26.95h16.829v16.483H8.54z" class="cls-1" data-name="Path 1645" transform="translate(-15.026 20.464)"/>
        </g>
        <g id="Group_2862" class="cls-8" data-name="Group 2862" transform="translate(12.711 -12.971)">
            <path id="Path_1647" d="M4.8-20.028h16.833v16.483H4.8z" class="cls-1" data-name="Path 1647" transform="translate(-11.29 13.542)"/>
        </g>
        <g id="Group_2863" class="cls-9" data-name="Group 2863" transform="translate(7.865 -17.461)">
            <path id="Path_1649" d="M1.068-23.49H17.9v16.483H1.068z" class="cls-1" data-name="Path 1649" transform="translate(-7.554 17.004)"/>
        </g>
        <g id="Group_2864" class="cls-10" data-name="Group 2864" transform="translate(17.557 -17.461)">
            <path id="Path_1651" d="M8.54-23.49h16.829v16.483H8.54z" class="cls-1" data-name="Path 1651" transform="translate(-15.026 17.004)"/>
        </g>
        <g id="Group_2865" class="cls-11" data-name="Group 2865" transform="translate(12.711 -17.461)">
            <path id="Path_1653" d="M4.8-23.49h16.833v16.483H4.8z" class="cls-1" data-name="Path 1653" transform="translate(-11.29 17.004)"/>
        </g>
    </g>
</svg>
