<svg xmlns="http://www.w3.org/2000/svg" xmlns:xlink="http://www.w3.org/1999/xlink" width="42.003" height="42.003" viewBox="0 0 42.003 42.003">
  <defs>
    <style>
      .cls-1 {
        fill: #fff;
        stroke: #333;
      }

      .cls-2 {
        fill: none;
      }

      .cls-3 {
        clip-path: url(#clip-path);
      }

      .cls-4, .cls-6 {
        fill: #333;
      }

      .cls-5, .cls-6 {
        stroke: none;
      }
    </style>
    <clipPath id="clip-path">
      <circle id="Ellipse_88" data-name="Ellipse 88" class="cls-1" cx="21.001" cy="21.001" r="21.001"/>
    </clipPath>
  </defs>
  <g id="Group_1032" data-name="Group 1032" transform="translate(-142 -45)">
    <g id="img_profile_pic" class="cls-2" transform="translate(142 45)">
      <path class="cls-5" d="M21,0A21,21,0,1,1,0,21,21,21,0,0,1,21,0Z"/>
      <path class="cls-6" d="M 21.00146484375 0.9999961853027344 C 18.30084419250488 0.9999961853027344 15.6815357208252 1.528694152832031 13.21629524230957 2.571395874023438 C 10.83465576171875 3.578742980957031 8.695514678955078 5.021064758300781 6.858295440673828 6.858295440673828 C 5.021064758300781 8.695514678955078 3.578742980957031 10.83465576171875 2.571395874023438 13.21629524230957 C 1.528694152832031 15.6815357208252 0.9999961853027344 18.30084419250488 0.9999961853027344 21.00146484375 C 0.9999961853027344 23.70208549499512 1.528694152832031 26.32139587402344 2.571395874023438 28.78663444519043 C 3.578742980957031 31.16827392578125 5.021064758300781 33.30741500854492 6.858295440673828 35.14463424682617 C 8.695514678955078 36.98185348510742 10.83465576171875 38.42417526245117 13.21629524230957 39.43152618408203 C 15.6815357208252 40.47422409057617 18.30084419250488 41.00292587280273 21.00146484375 41.00292587280273 C 23.70208549499512 41.00292587280273 26.32139587402344 40.47422409057617 28.78663444519043 39.43152618408203 C 31.16827392578125 38.42417526245117 33.30741500854492 36.98185348510742 35.14463424682617 35.14463424682617 C 36.98185348510742 33.30741500854492 38.42417526245117 31.16827392578125 39.43152618408203 28.78663444519043 C 40.47422409057617 26.32139587402344 41.00292587280273 23.70208549499512 41.00292587280273 21.00146484375 C 41.00292587280273 18.30084419250488 40.47422409057617 15.6815357208252 39.43152618408203 13.21629524230957 C 38.42417526245117 10.83465576171875 36.98185348510742 8.695514678955078 35.14463424682617 6.858295440673828 C 33.30741500854492 5.021064758300781 31.16827392578125 3.578742980957031 28.78663444519043 2.571395874023438 C 26.32139587402344 1.528694152832031 23.70208549499512 0.9999961853027344 21.00146484375 0.9999961853027344 M 21.00146484375 -3.814697265625e-06 C 32.60025405883789 -3.814697265625e-06 42.00292587280273 9.402675628662109 42.00292587280273 21.00146484375 C 42.00292587280273 32.60025405883789 32.60025405883789 42.00292587280273 21.00146484375 42.00292587280273 C 9.402675628662109 42.00292587280273 -3.814697265625e-06 32.60025405883789 -3.814697265625e-06 21.00146484375 C -3.814697265625e-06 9.402675628662109 9.402675628662109 -3.814697265625e-06 21.00146484375 -3.814697265625e-06 Z"/>
    </g>
    <g id="Group_9" data-name="Group 9" class="cls-3" transform="translate(142 45)">
      <g id="user" transform="translate(7 10.612)">
        <g id="Group_1030" data-name="Group 1030" transform="translate(0 0)">
          <path id="Path_799" data-name="Path 799" class="cls-4" d="M23.9,18.1a13.947,13.947,0,0,0-5.32-3.337,8.094,8.094,0,1,0-9.16,0A14.023,14.023,0,0,0,0,28H2.188a11.813,11.813,0,0,1,23.627,0H28A13.91,13.91,0,0,0,23.9,18.1ZM14,14a5.907,5.907,0,1,1,5.907-5.907A5.913,5.913,0,0,1,14,14Z" transform="translate(0)"/>
        </g>
      </g>
    </g>
  </g>
</svg>
