<svg xmlns="http://www.w3.org/2000/svg" width="17.999" height="17.995" viewBox="0 0 17.999 17.995">
  <defs>
    <style>
      .cls-1 {
        fill: #333;
      }
    </style>
  </defs>
  <g id="Group_2190" data-name="Group 2190" transform="translate(13276.33 14937.998)">
    <g id="rocket" transform="translate(-13273.833 -14934.997)">
      <g id="Group_860" data-name="Group 860">
        <g id="Group_859" data-name="Group 859">
          <path id="Path_745" data-name="Path 745" class="cls-1" d="M100.8,8.036a5.745,5.745,0,0,0-1.743-3.262,13.964,13.964,0,0,0-1.3-4.31.868.868,0,0,0-1.537,0,12.34,12.34,0,0,0-1.028,2.91q-.156.67-.271,1.4a5.745,5.745,0,0,0-1.743,3.262.391.391,0,0,0,.387.443h1.046q0,.162-.005.326a.64.64,0,0,0,.64.647h.245l-.087.633v.009a.329.329,0,0,0,.327.361h.193l-.3,1.054a.234.234,0,0,0,.342.267l.58-.331.183.245a.234.234,0,0,0,.333.043l.314-.248.686.47a.234.234,0,0,0,.361-.245l-.283-1.255h.106a.329.329,0,0,0,.327-.361v-.009l-.087-.633h.245a.64.64,0,0,0,.64-.647q0-.163-.005-.326h1.046a.391.391,0,0,0,.387-.443Zm-6.177-.025h-.968a5.136,5.136,0,0,1,1.153-2.428Q94.665,6.734,94.621,8.011Zm1.266,1.976.073-.535h.792v.535h-.865Zm.447-1V7.311a.263.263,0,0,1,.262-.262h.781a.263.263,0,0,1,.262.262V8.983ZM97.5,11a.234.234,0,0,0-.278.009l-.261.206L96.8,11a.234.234,0,0,0-.3-.063l-.264.151.177-.631H97.66l.175.776Zm.348-1.014h-.627V9.452h.792l.073.535Zm1.505-1.976h0q-.008-.243-.02-.48a.234.234,0,0,0-.468.023q.011.225.019.456t.013.469q0,.165.005.331a.171.171,0,0,1-.171.173h-.623V7.311a.732.732,0,0,0-.731-.731H96.6a.732.732,0,0,0-.731.731V8.983h-.623a.171.171,0,0,1-.171-.173c0-.112,0-.222.006-.331q.005-.238.013-.469.013-.374.035-.727c.055-.92.147-1.738.263-2.461A13.535,13.535,0,0,1,96.633.683a.4.4,0,0,1,.708,0,13.463,13.463,0,0,1,1.247,4.135q.063.4.116.831.015.127.03.258a.234.234,0,1,0,.466-.052q-.015-.133-.031-.263V5.581a5.126,5.126,0,0,1,1.153,2.43Z" transform="translate(-93.172)"/>
        </g>
      </g>
      <g id="Group_862" data-name="Group 862" transform="translate(2.49 3.088)">
        <g id="Group_861" data-name="Group 861">
          <path id="Path_746" data-name="Path 746" class="cls-1" d="M200.76,131.8a1.325,1.325,0,1,0,1.325,1.325A1.327,1.327,0,0,0,200.76,131.8Zm0,2.182a.857.857,0,1,1,.857-.857A.858.858,0,0,1,200.76,133.981Z" transform="translate(-199.435 -131.799)"/>
        </g>
      </g>
      <g id="Group_864" data-name="Group 864" transform="translate(3.479 3.992)">
        <g id="Group_863" data-name="Group 863">
          <path id="Path_747" data-name="Path 747" class="cls-1" d="M242.282,170.409a.234.234,0,0,0-.321.081l-.262.438a.234.234,0,1,0,.4.24l.262-.438A.234.234,0,0,0,242.282,170.409Z" transform="translate(-241.666 -170.376)"/>
        </g>
      </g>
      <g id="Group_866" data-name="Group 866" transform="translate(5.639 6.473)">
        <g id="Group_865" data-name="Group 865">
          <path id="Path_748" data-name="Path 748" class="cls-1" d="M334.3,276.453a.234.234,0,0,0-.035-.084.235.235,0,0,0-.065-.065.233.233,0,0,0-.041-.022.239.239,0,0,0-.044-.013.232.232,0,0,0-.091,0,.245.245,0,0,0-.044.013.237.237,0,0,0-.04.022h0a.222.222,0,0,0-.034.028.234.234,0,0,0-.029.036.243.243,0,0,0-.022.04.236.236,0,0,0-.013.044.228.228,0,0,0,0,.046.236.236,0,0,0,.069.166l0,0a.225.225,0,0,0,.032.025.236.236,0,0,0,.04.022.242.242,0,0,0,.044.013.225.225,0,0,0,.091,0,.235.235,0,0,0,.044-.013.232.232,0,0,0,.04-.022.221.221,0,0,0,.036-.029.218.218,0,0,0,.029-.036.253.253,0,0,0,.022-.04.241.241,0,0,0,.013-.044.227.227,0,0,0,0-.092Z" transform="translate(-333.841 -276.265)"/>
        </g>
      </g>
    </g>
    <g id="cards" transform="translate(-13276.33 -14937.998)">
      <path id="Path_1079" data-name="Path 1079" class="cls-1" d="M402.552,0a.287.287,0,1,0,0,.574,1.121,1.121,0,0,1,1.12,1.12V16.3a1.121,1.121,0,0,1-1.12,1.12.287.287,0,1,0,0,.574,1.7,1.7,0,0,0,1.694-1.694V1.694A1.7,1.7,0,0,0,402.552,0Z" transform="translate(-387.968)"/>
      <path id="Path_1080" data-name="Path 1080" class="cls-1" d="M351.247,16.3V1.694A1.7,1.7,0,0,0,349.552,0a.287.287,0,1,0,0,.574,1.121,1.121,0,0,1,1.12,1.12V16.3a1.121,1.121,0,0,1-1.12,1.12.287.287,0,1,0,0,.574,1.7,1.7,0,0,0,1.694-1.694Z" transform="translate(-336.886 0)"/>
      <path id="Path_1082" data-name="Path 1082" class="cls-1" d="M351.247,16.3V1.694A1.7,1.7,0,0,0,349.552,0a.287.287,0,1,0,0,.574,1.121,1.121,0,0,1,1.12,1.12V16.3a1.121,1.121,0,0,1-1.12,1.12.287.287,0,1,0,0,.574,1.7,1.7,0,0,0,1.694-1.694Z" transform="translate(-333.248 0)"/>
      <path id="Path_1081" data-name="Path 1081" class="cls-1" d="M28.2,16.3V1.694A1.713,1.713,0,0,0,27.479.287,1.576,1.576,0,0,0,26.573,0H17.611a1.664,1.664,0,0,0-1.629,1.694V16.3A1.664,1.664,0,0,0,17.611,18h8.962a1.575,1.575,0,0,0,.906-.287A1.713,1.713,0,0,0,28.2,16.3Zm-1.629,1.12H17.611a1.1,1.1,0,0,1-1.077-1.12V1.694A1.1,1.1,0,0,1,17.611.574h8.962a1.1,1.1,0,0,1,1.077,1.12V16.3A1.1,1.1,0,0,1,26.573,17.421Z" transform="translate(-15.982 0)"/>
    </g>
  </g>
</svg>
