<svg xmlns="http://www.w3.org/2000/svg" xmlns:xlink="http://www.w3.org/1999/xlink" width="17.996" height="17.996" viewBox="0 0 17.996 17.996">
  <defs>
    <style>
      .cls-1 {
        fill: #fff;
        stroke: #333;
      }

      .cls-2 {
        fill: none;
      }

      .cls-3 {
        clip-path: url(#clip-path);
      }

      .cls-4, .cls-6 {
        fill: #333;
      }

      .cls-5, .cls-6 {
        stroke: none;
      }
    </style>
    <clipPath id="clip-path">
      <circle id="Ellipse_88" data-name="Ellipse 88" class="cls-1" cx="8.998" cy="8.998" r="8.998"/>
    </clipPath>
  </defs>
  <g id="Group_2188" data-name="Group 2188" transform="translate(-142 -45)">
    <g id="img_profile_pic" class="cls-2" transform="translate(142 45)">
      <path class="cls-5" d="M9,0A9,9,0,1,1,0,9,9,9,0,0,1,9,0Z"/>
      <path class="cls-6" d="M 8.998045921325684 0.9999961853027344 C 4.587905883789062 0.9999961853027344 0.9999961853027344 4.587905883789062 0.9999961853027344 8.998045921325684 C 0.9999961853027344 13.4081859588623 4.587905883789062 16.99609565734863 8.998045921325684 16.99609565734863 C 13.4081859588623 16.99609565734863 16.99609565734863 13.4081859588623 16.99609565734863 8.998045921325684 C 16.99609565734863 4.587905883789062 13.4081859588623 0.9999961853027344 8.998045921325684 0.9999961853027344 M 8.998045921325684 -3.814697265625e-06 C 13.96753597259521 -3.814697265625e-06 17.99609565734863 4.028566360473633 17.99609565734863 8.998045921325684 C 17.99609565734863 13.96753597259521 13.96753597259521 17.99609565734863 8.998045921325684 17.99609565734863 C 4.028566360473633 17.99609565734863 -3.814697265625e-06 13.96753597259521 -3.814697265625e-06 8.998045921325684 C -3.814697265625e-06 4.028566360473633 4.028566360473633 -3.814697265625e-06 8.998045921325684 -3.814697265625e-06 Z"/>
    </g>
    <g id="Group_9" data-name="Group 9" class="cls-3" transform="translate(142 45)">
      <g id="user" transform="translate(2.999 4.547)">
        <g id="Group_1030" data-name="Group 1030" transform="translate(0 0)">
          <path id="Path_799" data-name="Path 799" class="cls-4" d="M10.24,7.756a5.976,5.976,0,0,0-2.28-1.43,3.468,3.468,0,1,0-3.924,0A6.008,6.008,0,0,0,0,12H.937A5.061,5.061,0,1,1,11.06,12H12A5.96,5.96,0,0,0,10.24,7.756ZM6,6A2.531,2.531,0,1,1,8.529,3.468,2.534,2.534,0,0,1,6,6Z" transform="translate(0 0)"/>
        </g>
      </g>
    </g>
  </g>
</svg>
