<?xml version="1.0" encoding="UTF-8"?>
<svg width="21px" height="17px" viewBox="0 0 21 17" version="1.1" xmlns="http://www.w3.org/2000/svg" xmlns:xlink="http://www.w3.org/1999/xlink">
    <!-- Generator: Sketch 62 (91390) - https://sketch.com -->
    <title>exchange</title>
    <desc>Created with Sketch.</desc>
    <g id="Page-1" stroke="none" stroke-width="1" fill="none" fill-rule="evenodd">
        <g id="exchange" fill="#FEFEFE" fill-rule="nonzero">
            <path d="M20.5441523,7.46718164 L18.6101016,9.40123242 L18.0986777,9.91265625 L17.3210625,10.6902715 L14.0979727,7.46718164 L15.3870117,6.17814258 L16.471875,7.26300586 C15.9996621,4.38133008 13.4985703,2.18289258 10.4837988,2.18289258 C7.65864258,2.18289258 5.28428906,4.11374414 4.60785938,6.72738281 L3.67889648,5.79796875 L2.90128125,6.57558398 C3.66749414,3.09315234 6.77159766,0.487675781 10.4837988,0.487675781 C14.4320859,0.487675781 17.6916387,3.43497656 18.183498,7.24926563 L19.2551133,6.17810156 L20.5441523,7.46718164 Z" id="Path" fill-opacity="0.3"></path>
            <path d="M18.0986777,9.91265625 C17.3324648,13.3950879 14.2283203,16.0005645 10.5161602,16.0005645 C6.56787305,16.0005645 3.30832031,13.0537148 2.81646094,9.23897461 L1.7448457,10.3105898 L0.455806641,9.02109961 L2.38981641,7.0875 L2.90124023,6.575625 L3.67885547,5.79800977 L4.60781836,6.72742383 L4.96789453,7.0875 L6.90194531,9.02109961 L5.61290625,10.3105898 L4.52804297,9.22572656 C5.00025586,12.1069512 7.50134766,14.3053477 10.5161191,14.3053477 C13.3412754,14.3053477 15.7156289,12.3749473 16.3916074,9.76085742 L17.3210215,10.6902715 L18.0986777,9.91265625 Z" id="Path" fill-opacity="0.3"></path>
            <path d="M20.8664531,7.14488086 L19.5774141,5.8558418 C19.3994063,5.67783398 19.1109023,5.67783398 18.9328535,5.85575977 L18.4737246,6.31468359 C17.5947598,2.67692578 14.3041992,0.0319101562 10.4838398,0.0319101562 C8.59991016,0.0319101562 6.75896484,0.685453125 5.30020313,1.87219922 C3.89750977,3.01325391 2.90230664,4.5976875 2.4866543,6.34569141 L0.133587891,8.69875781 C-0.0444199219,8.87672461 -0.0444609375,9.16535156 0.133505859,9.34335937 L1.42254492,10.6328496 C1.50802148,10.7183672 1.62397266,10.7663965 1.74488672,10.7663965 L1.74488672,10.7663965 C1.86575977,10.7663965 1.98171094,10.7183672 2.0671875,10.6328906 L2.52627539,10.1738027 C3.40519922,13.8115605 6.69567773,16.4563711 10.5161602,16.4563711 C12.4000898,16.4563711 14.2410352,15.8028281 15.6997969,14.616082 C17.1024902,13.4750273 18.0976523,11.8905938 18.5133457,10.1425898 L20.8664941,7.78948242 C21.0444609,7.61147461 21.0444609,7.32288867 20.8664531,7.14488086 Z M10.5161602,15.5447168 C6.85211133,15.5447168 3.73631836,12.8087695 3.26857617,9.18060937 C3.24638672,9.00826172 3.12805664,8.86355859 2.96358398,8.80749023 C2.91539063,8.79108398 2.86576172,8.78304492 2.81654297,8.78304492 C2.69763867,8.78304492 2.58107227,8.82967969 2.49420117,8.91655078 L1.74492773,9.66582422 L1.1004082,9.02105859 L3.22341797,6.89800781 C3.22345898,6.8979668 3.2235,6.89792578 3.22354102,6.89788477 L3.67877344,6.44265234 L4.28543555,7.04956055 C4.28625586,7.05038086 4.2871582,7.05095508 4.28797852,7.05177539 L6.25738477,9.02109961 L5.61286523,9.66586523 L4.85038477,8.90338477 C4.71043945,8.76343945 4.49617383,8.72976562 4.32005273,8.82012305 C4.14393164,8.91048047 4.04623242,9.10411523 4.07830664,9.29947266 C4.32571289,10.8089297 5.10480469,12.1913203 6.27202734,13.1920605 C7.45229297,14.203916 8.95953516,14.7611543 10.5162012,14.7611543 C13.2311074,14.7611543 15.6314238,13.088291 16.5959883,10.6097578 L16.9987617,11.0125312 C17.0131172,11.0268867 17.028416,11.0396426 17.044125,11.0517422 C17.0483086,11.0549824 17.0525742,11.0580176 17.0568809,11.0611348 C17.0707441,11.0710195 17.0848945,11.080125 17.0995371,11.0882871 C17.101998,11.0896406 17.1043359,11.0912402 17.1067969,11.0925527 C17.1236543,11.1015352 17.1410449,11.1091641 17.1586816,11.1158906 C17.1632344,11.1176133 17.1678281,11.1191309 17.1724629,11.1206895 C17.1872285,11.1257754 17.2021992,11.130123 17.217334,11.1336504 C17.219959,11.1343066 17.222584,11.135373 17.225209,11.1359473 C16.0850156,13.7552461 13.4503359,15.5447168 10.5161602,15.5447168 Z M13.7756719,7.78948242 L15.8800605,9.89387109 C15.159375,12.2354941 12.9897305,13.849541 10.5161602,13.849541 C8.33076562,13.849541 6.41673047,12.6134531 5.49125391,10.7498262 C5.53054688,10.7607363 5.57148047,10.7663555 5.61294727,10.7663555 C5.73382031,10.7663555 5.84977148,10.7183262 5.93524805,10.6328086 L7.22428711,9.34331836 C7.40225391,9.16526953 7.40221289,8.87668359 7.22420508,8.6987168 L5.11957031,6.59408203 C5.84091211,4.25258203 8.01063867,2.63869922 10.4837578,2.63869922 C12.6693164,2.63869922 14.5833926,3.87482812 15.5087871,5.73886523 C15.4694531,5.72795508 15.4285195,5.72233594 15.3870117,5.72233594 C15.2661387,5.72233594 15.1501875,5.77036523 15.0647109,5.8558418 L13.7756719,7.14488086 C13.5976641,7.32288867 13.5976641,7.61147461 13.7756719,7.78948242 Z M17.7766641,9.59006836 C17.776582,9.59015039 17.7765,9.59023242 17.776377,9.59035547 L17.3210625,10.0456699 L16.7139492,9.43855664 C16.7139082,9.43851562 16.7138262,9.43847461 16.7137852,9.43843359 L14.7426152,7.46726367 L15.3870527,6.82282617 L16.1495742,7.58534766 C16.2895195,7.72529297 16.5037852,7.75892578 16.6799062,7.66860938 C16.8560273,7.57825195 16.9537266,7.38461719 16.9217344,7.18930078 C16.6743691,5.67963867 15.8952773,4.29708398 14.7280137,3.29630273 C13.547748,2.28432422 12.0404648,1.72704492 10.4837988,1.72704492 C7.76926172,1.72704492 5.36886328,3.39974414 4.40376563,5.87823633 L4.0012793,5.47575 C3.987375,5.4618457 3.97244531,5.44929492 3.95702344,5.43744141 C3.95292188,5.4342832 3.94882031,5.43124805 3.94463672,5.42825391 C3.93056836,5.41812305 3.91608984,5.40873047 3.90099609,5.40032227 C3.89902734,5.39921484 3.89722266,5.39794336 3.89525391,5.39687695 C3.8784375,5.3878125 3.86092383,5.38010156 3.84316406,5.37321094 C3.8385293,5.37140625 3.8338125,5.36980664 3.8290957,5.36816602 C3.81367383,5.36279297 3.79800586,5.35819922 3.78205078,5.35442578 C3.77963086,5.35389258 3.77729297,5.35286719 3.77491406,5.35233398 C4.91490234,2.73307617 7.54962305,0.943523438 10.4838398,0.943523438 C14.1478477,0.943523438 17.2636406,3.6794707 17.7314238,7.30763086 C17.7536543,7.47997852 17.8719023,7.62464063 18.036375,7.68075 C18.2008887,7.73685938 18.382875,7.69457227 18.5057168,7.57173047 L19.2550312,6.82274414 L19.8995098,7.46726367 L17.7766641,9.59006836 Z" id="Shape"></path>
            <path d="M10.5161602,4.13425195 L10.5031172,4.13425195 C10.2513633,4.13593359 10.0486641,4.34138086 10.0503457,4.59313477 C10.0520273,4.84382227 10.255793,5.04590625 10.5061113,5.04590625 C10.5070957,5.04590625 10.5082031,5.04590625 10.5092285,5.04590625 L10.5161602,5.04590625 C10.7679141,5.04590625 10.9719668,4.84185352 10.9719668,4.59009961 C10.9719668,4.3383457 10.7679141,4.13425195 10.5161602,4.13425195 Z" id="Path" fill-opacity="0.3"></path>
            <path d="M8.9622832,4.438875 C8.12634375,4.78123242 7.41628125,5.40138867 6.96297656,6.1850332 C6.83689453,6.4029082 6.91137891,6.68177344 7.12925391,6.80781445 C7.2011543,6.8494043 7.27957617,6.86917383 7.35705469,6.86917383 C7.51443164,6.86917383 7.66754297,6.78759375 7.75203516,6.64153711 C8.10497461,6.03151172 8.65745508,5.54883984 9.30779883,5.28252539 C9.54076758,5.18712305 9.65224805,4.92093164 9.5568457,4.68796289 C9.46140234,4.45495313 9.19512891,4.34351367 8.9622832,4.438875 Z" id="Path" fill-opacity="0.3"></path>
        </g>
    </g>
</svg>