<?xml version="1.0" encoding="UTF-8"?>
<svg width="19px" height="16px" viewBox="0 0 19 16" version="1.1" xmlns="http://www.w3.org/2000/svg" xmlns:xlink="http://www.w3.org/1999/xlink">
    <!-- Generator: Sketch 52.3 (67297) - http://www.bohemiancoding.com/sketch -->
    <title>sign-out-option</title>
    <desc>Created with Sketch.</desc>
    <g id="Page-1" stroke="none" stroke-width="1" fill="none" fill-rule="evenodd">
        <g id="sign-out-option" transform="translate(0.000000, 1.000000)" fill="#fefefe">
            <path d="M7.33999799,13.5834049 C7.31702096,13.5222667 7.30910754,13.4702872 7.31690045,13.4282296 C7.32465319,13.3864531 7.29794037,13.3518269 7.23668167,13.3251543 C7.17542296,13.2984816 7.14485387,13.2773122 7.14485387,13.2622084 C7.14485387,13.246944 7.10094845,13.2354153 7.01293676,13.2278634 C6.92496524,13.220191 6.88105982,13.2162945 6.88105982,13.2162945 L6.73203045,13.2162945 L6.60589777,13.2162945 L3.30290871,13.2162945 C2.79829766,13.2162945 2.36627315,13.0367764 2.00687536,12.6771778 C1.6475579,12.3178201 1.46791926,11.8859161 1.46791926,11.3813854 L1.46791926,3.30736754 C1.46791926,2.80275649 1.64751773,2.37089266 2.00687536,2.01153504 C2.36627315,1.65213724 2.79829766,1.47237809 3.30290871,1.47237809 L6.97284746,1.47237809 C7.07226732,1.47237809 7.15043745,1.44771393 7.20792021,1.39790357 C7.26516195,1.34821372 7.30332311,1.2736187 7.3225242,1.174239 C7.34164495,1.0748593 7.35317363,0.985120321 7.35702992,0.904821205 C7.36080587,0.824602429 7.35895806,0.72321425 7.35124549,0.600897687 C7.34365343,0.478621295 7.33983731,0.402178464 7.33983731,0.371448687 C7.33983731,0.272068991 7.30348379,0.186226464 7.23089724,0.113439071 C7.15823036,0.0409730357 7.07226732,0.00461950893 6.97288763,0.00461950893 L3.30290871,0.00461950893 C2.39314664,0.00461950893 1.615141,0.327663777 0.969012295,0.973712143 C0.323044268,1.61976051 0,2.39764564 0,3.30748805 L0,11.3813452 C0,12.2911073 0.323044268,13.0691933 0.969012295,13.7150007 C1.615141,14.3613704 2.39314664,14.6844146 3.30290871,14.6844146 L6.97300813,14.6844146 C7.072428,14.6844146 7.15063829,14.6594291 7.20808088,14.6099401 C7.26532263,14.5601699 7.30348379,14.4856552 7.32268488,14.386155 C7.34180563,14.2868959 7.35333431,14.196715 7.3571906,14.1167372 C7.36096654,14.0364381 7.35911874,13.9352508 7.35140617,13.8129342 C7.34373377,13.6904972 7.33999799,13.6140945 7.33999799,13.5834049 Z" id="Path"></path>
            <path d="M17.7649844,6.82839742 L11.5260765,0.589288661 C11.3809034,0.444195911 11.2088166,0.371408518 11.0100171,0.371408518 C10.8112175,0.371408518 10.6391308,0.444195911 10.493797,0.589288661 C10.3485034,0.734582259 10.2759168,0.906789518 10.2759168,1.10546857 L10.2759168,4.40845762 L5.13797851,4.40845762 C4.93905844,4.40845762 4.7670922,4.48124502 4.6217986,4.62633777 C4.476505,4.77163137 4.40391846,4.94371812 4.40391846,5.14251768 L4.40391846,9.54655664 C4.40391846,9.74531604 4.476505,9.91740279 4.6217986,10.062616 C4.76725287,10.2076285 4.93917895,10.2806167 5.13797851,10.2806167 L10.275957,10.2806167 L10.275957,13.5835656 C10.275957,13.7822045 10.3485436,13.9544519 10.4938372,14.099625 C10.6391308,14.2449186 10.8112175,14.3176658 11.0100572,14.3176658 C11.2088166,14.3176658 11.3809034,14.2449186 11.5261166,14.099625 L17.7649844,7.86079741 C17.910278,7.7153833 17.9829047,7.54353757 17.9829047,7.34469784 C17.9829047,7.14593845 17.910278,6.97369102 17.7649844,6.82839742 Z" id="Path" stroke="#fefefe" fill-opacity="0.3"></path>
        </g>
    </g>
</svg>
