<?xml version="1.0" encoding="UTF-8"?>
<svg width="18px" height="22px" viewBox="0 0 18 22" version="1.1" xmlns="http://www.w3.org/2000/svg" xmlns:xlink="http://www.w3.org/1999/xlink">
    <!-- Generator: Sketch 52.3 (67297) - http://www.bohemiancoding.com/sketch -->
    <title>Group 11</title>
    <desc>Created with Sketch.</desc>
    <g id="Page-1" stroke="none" stroke-width="1" fill="none" fill-rule="evenodd">
        <g id="Group-11" fill="#fefefe">
            <circle id="Oval" stroke="#fefefe" fill-opacity="0.3" cx="8.80878972" cy="5.23481776" r="4.01546262"></circle>
            <path d="M8.84459512,10.370103 C10.2692566,10.370103 11.5027368,9.85913673 12.5108728,8.85100068 C13.5186803,7.84302891 14.0298109,6.60971296 14.0298109,5.18488727 C14.0298109,3.76055432 13.5188446,2.52707409 12.5107086,1.51877385 C11.5025725,0.510966315 10.2690923,-8.52651283e-14 8.84459512,-8.52651283e-14 C7.41976947,-8.52651283e-14 6.18645347,0.510966315 5.1784817,1.51893808 C4.17050993,2.52690985 3.65937938,3.76039009 3.65937938,5.18488727 C3.65937938,6.60971296 4.17050993,7.84319315 5.1784817,8.85116492 C6.18678198,9.85897245 7.42026217,10.370103 8.84459512,10.370103 Z M6.07066073,2.41095288 C6.84409063,1.63752298 7.75138016,1.2615661 8.84459512,1.2615661 C9.93764583,1.2615661 10.8450997,1.63752298 11.6186938,2.41095288 C12.3921236,3.18454697 12.7682448,4.09200078 12.7682448,5.18488727 C12.7682448,6.27810222 12.3921236,7.18539179 11.6186938,7.95898589 C10.8450997,8.73258002 9.93764583,9.1085369 8.84459512,9.1085369 C7.75170867,9.1085369 6.8444191,8.73241579 6.07066073,7.95898589 C5.29706664,7.18555603 4.92094548,6.27810222 4.92094548,5.18488727 C4.92094548,4.09200078 5.29706664,3.18454697 6.07066073,2.41095288 Z" id="Shape" fill-rule="nonzero"></path>
            <path d="M1.32611441,12.3689651 L4.83991249,10.374265 L6.88482338,11.7520607 L8.97697664,12.3689651 C9.8991398,12.1816749 10.5788953,11.9760401 11.016243,11.7520607 C11.4535907,11.5280814 12.0676478,11.0711146 12.8584141,10.3811603 L16.010606,11.9925155 L17.9539533,16.1088245 L17.9539533,18.5959871 L16.4616646,20.2816339 L14.7710487,21.5279252 L3.19292348,21.5279252 L1.32611441,20.4884184 L0,18.5619884 L0,16.3133096 L1.32611441,12.3689651 Z" id="Rectangle" fill-opacity="0.3" fill-rule="nonzero"></path>
            <path d="M17.9173266,16.5539286 C17.9460695,16.9638842 17.9606873,17.3917425 17.9608515,17.8255136 C17.9608515,18.9496067 17.6036186,19.8596884 16.8990074,20.5301366 C16.2031012,21.1922084 15.282672,21.5279252 14.1633421,21.5279252 L3.79750944,21.5279252 C2.67785105,21.5279252 1.75742187,21.1922084 1.06167991,20.5301366 C0.357232962,19.8591957 -1.13686838e-13,18.9494424 -1.13686838e-13,17.8256779 C-1.13686838e-13,17.393385 0.0144535631,16.9655267 0.0430322202,16.5544213 C0.0721035809,16.133954 0.130739048,15.6762031 0.217460426,15.1936512 C0.304838785,14.7068289 0.417346624,14.2467786 0.551863318,13.8261471 C0.691143107,13.391062 0.880353388,12.9618897 1.11407408,12.5504559 C1.35649975,12.123583 1.64162914,11.7518965 1.96157846,11.4457438 C2.2964741,11.1253017 2.70626543,10.8679297 3.17961964,10.6805261 C3.65149562,10.4936153 4.17445181,10.3988459 4.73419889,10.3988459 C4.95395873,10.3988459 5.16649182,10.4890164 5.57661166,10.7562431 C5.83299815,10.9232803 6.12863922,11.1138045 6.45532262,11.32256 C6.73683859,11.5022441 7.1190368,11.6705952 7.59042007,11.8228504 C8.05112738,11.9718206 8.51856873,12.0473733 8.97976879,12.0473733 C9.44129736,12.0473733 9.90873871,11.9718206 10.3691176,11.8228504 C10.8409935,11.670431 11.2230275,11.5020798 11.5050362,11.3223957 C11.8348402,11.1116693 12.1303171,10.9211451 12.3829259,10.7564073 C12.7933743,10.4891807 13.0059073,10.3990101 13.2256672,10.3990101 C13.78525,10.3990101 14.3083705,10.4936153 14.7804107,10.6803619 C15.2540934,10.8680939 15.6637205,11.1254659 15.9982876,11.4455795 C16.318237,11.751568 16.6033663,12.1234188 16.8459563,12.5504559 C17.0800055,12.9618897 17.2690515,13.3912262 17.4083313,13.8259828 C17.5430122,14.2466143 17.6555201,14.7068289 17.7428984,15.1936512 C17.8294555,15.6768601 17.8882553,16.1344468 17.9173266,16.5539286 Z M16.0291657,19.616113 C16.4800183,19.187105 16.6991212,18.6014072 16.6992854,17.8256779 C16.6991212,17.4211424 16.6856531,17.0230124 16.6588812,16.6421282 L16.6588812,16.6417997 C16.6329304,16.267321 16.5797151,15.855066 16.5012059,15.4163675 C16.4236823,14.9842388 16.3246425,14.5785535 16.2068788,14.2106447 C16.0942067,13.8586675 15.9401449,13.5096469 15.7491279,13.1737658 C15.5669802,12.8531595 15.3574035,12.5783775 15.1261465,12.3571395 C14.9098358,12.1501907 14.6371891,11.9805256 14.31609,11.8533999 C14.0188065,11.7358005 13.6848963,11.6714164 13.3222433,11.661726 C13.2780614,11.685213 13.199388,11.7302162 13.0719338,11.8131599 C12.8125909,11.9823323 12.5220415,12.1695716 12.1838609,12.3857181 C11.8108605,12.6235449 11.3311007,12.8378847 10.7572286,13.0233173 C10.1713665,13.2126918 9.57335037,13.3089394 8.97993303,13.3089394 C8.38651572,13.3089394 7.7886638,13.2126918 7.20247328,13.0231531 C6.62909385,12.8380489 6.14916988,12.6235449 5.77666214,12.3860466 C5.44620113,12.1749917 5.14727516,11.982168 4.88793224,11.8131599 C4.7604781,11.7300519 4.68180471,11.685213 4.63762281,11.661726 C4.27513401,11.6714164 3.94122386,11.7358005 3.6441046,11.8533999 C3.32284131,11.9805256 3.05019456,12.1500265 2.83388386,12.3571395 C2.60262685,12.5785418 2.39305014,12.8533237 2.21090241,13.1736015 C2.0200497,13.5096469 1.86615207,13.8585033 1.75331576,14.2108089 C1.63571631,14.5782251 1.53684078,14.9840746 1.45915289,15.4165317 C1.38047951,15.854409 1.32742835,16.2664998 1.30147766,16.6416354 C1.27486994,17.0239979 1.2615661,17.4222921 1.2615661,17.8256779 C1.2615661,18.6012429 1.480669,19.187105 1.93152161,19.6162773 C2.39107924,20.0536618 3.00141375,20.2663591 3.79750944,20.2663591 L14.1631779,20.2663591 C14.9591093,20.2663591 15.5694438,20.0536618 16.0291657,19.616113 Z" id="Shape" fill-rule="nonzero"></path>
        </g>
    </g>
</svg>
