<?xml version="1.0" encoding="UTF-8"?>
<svg width="21px" height="21px" viewBox="0 0 21 21" version="1.1" xmlns="http://www.w3.org/2000/svg" xmlns:xlink="http://www.w3.org/1999/xlink">
    <!-- Generator: Sketch 62 (91390) - https://sketch.com -->
    <title>ic-support</title>
    <desc>Created with Sketch.</desc>
    <g id="Page-1" stroke="none" stroke-width="1" fill="none" fill-rule="evenodd" fill-opacity="0.3">
        <g id="ic-support" fill="#FEFEFE" fill-rule="nonzero" stroke="#FEFEFE" stroke-width="0.5">
            <path d="M20.7023349,13.2304884 C20.7023349,13.6847574 20.5174352,14.0966242 20.2190948,14.3949646 C19.9207544,14.693305 19.5088876,14.8782047 19.0546186,14.8782047 L18.1758585,14.8782047 C17.9092456,16.5241395 16.7589644,17.8776644 15.2293724,18.4349853 C14.3306515,19.4623115 13.4953156,20.0380798 12.853603,20.3738234 C12.3759819,20.6237245 11.8376277,20.7557628 11.2969256,20.7557628 C10.7562255,20.7557628 10.2179648,20.6237234 9.74031902,20.3738093 C9.0681391,20.0222148 8.18326001,19.4090297 7.35830401,18.3733682 L6.63166536,17.4611357 L6.92054894,18.5910552 C6.70194263,18.7897325 4.91178055,17.1696546 3.68105674,14.7204883 L3.4402633,14.2413043 L3.2280756,14.7338235 L1.95114419,14.8782047 C1.4968752,14.8782047 1.08500837,14.693305 0.786667985,14.3949646 C0.488327594,14.0966242 0.303427907,13.6847574 0.303427907,13.2304884 L0.303427907,10.4547767 C0.303427907,10.0005077 0.488327594,9.58864091 0.786667985,9.29030052 C1.08500837,8.99196014 1.4968752,8.80706046 1.95114419,8.80706046 L2.49866047,8.80706046 L2.49866047,8.25426975 C2.49866047,6.04747198 3.3964175,4.04646 4.84575031,2.59711005 C6.29507342,1.1477698 8.29604944,0.25 10.5028326,0.25 C12.7096184,0.25 14.7106203,1.14777165 16.1599682,2.59710241 C17.6093221,4.04643912 18.5071023,6.0474244 18.5071023,8.2541721 C19.2805233,8.77180615 19.800407,8.96070869 20.1650652,9.27596159 C20.5095037,9.57373421 20.7023349,9.99220143 20.7023349,10.4547767 L20.7023349,13.2304884 Z M4.02179859,5.52200344 C5.14284633,4.02739927 6.62011365,3.28966592 7.43770974,2.97396145 C8.58955446,2.52906452 9.70098937,2.30204186 10.7413535,2.30204186 C13.7244454,2.30204186 15.1894505,4.13703434 15.3595047,4.3641945 C15.4403102,4.45552396 15.805152,4.89641978 16.2397263,5.76745599 C16.5766769,5.83626801 16.9571697,6.03222553 17.3065052,6.368243 L17.988748,7.02447601 L17.7194872,6.11695431 C17.2520678,4.54155514 16.2823049,3.1799414 14.996358,2.21942832 C13.7416251,1.28222987 12.1860693,0.726744186 10.5028326,0.726744186 C8.9808701,0.726744186 7.56323778,1.18089782 6.37793379,1.96067435 C5.15524096,2.76504789 4.17990048,3.91609005 3.59239519,5.27264095 C3.30642384,5.93294939 3.11883026,6.62696913 3.03040457,7.33174607 C3.25337543,6.74594447 3.57068361,6.12343931 4.02179859,5.52200344 Z M16.7907808,16.7819937 C17.3936437,16.0697748 17.7581395,15.1497461 17.7581395,14.1457953 L17.7581395,10.7226903 L17.2619827,13.5195982 C17.0835938,14.525202 16.8046368,15.5662116 16.3723783,16.5170081 C16.1957179,16.9055905 15.9908694,17.2847849 15.7666609,17.6516661 C16.1566468,17.4186907 16.5017864,17.1234102 16.7907808,16.7819937 Z M12.7648313,19.2041363 C13.3447055,18.9007495 14.0189545,18.3937906 13.9237884,17.7088977 L12.9794625,17.7088977 C12.9173317,18.0008949 12.7447929,18.2526105 12.507764,18.4176138 C12.3220727,18.5468792 12.0966461,18.6227395 11.8535721,18.6227395 L10.5182651,18.6227395 C10.2005957,18.6227395 9.91260337,18.4934174 9.70398832,18.2848024 C9.49537328,18.0761873 9.36605116,17.788195 9.36605116,17.4705256 C9.36605116,17.1528561 9.49537328,16.8648638 9.70398832,16.6562488 C9.91260337,16.4476337 10.2005957,16.3183116 10.5182651,16.3183116 L11.8535721,16.3183116 C12.0966311,16.3183116 12.3220251,16.394164 12.5076983,16.5234168 C12.744731,16.6884226 12.9172811,16.9401495 12.9795065,17.2321535 L13.6718791,17.2321535 C14.2574422,17.2321535 14.8140734,17.107478 15.4225245,16.7984827 C15.5836283,16.5661678 15.7411964,16.3175694 15.8922559,16.0466867 C16.4022494,15.1320409 16.7434762,14.0792602 16.4549331,12.6204466 C16.5417607,12.3278055 16.849949,11.1302345 16.5422634,9.76078276 C16.4323332,9.27150052 16.1581714,8.87745671 15.4662624,8.59108325 C14.5608281,9.673107 12.9073713,10.0356818 11.3141122,10.4057187 C9.95192027,10.7220949 8.55046886,11.060377 7.71475366,11.7619067 C6.60985426,12.6894409 6.47741382,14.4435023 6.70178225,16.0466718 C7.69362602,17.8255505 8.9508441,18.7446168 9.82911684,19.2041359 C10.2792906,19.4396685 10.7868259,19.5642279 11.2969256,19.5642279 C11.8071287,19.5642279 12.3146608,19.4396672 12.7648313,19.2041363 Z" id="Shape"></path>
        </g>
    </g>
</svg>