<?xml version="1.0" encoding="UTF-8"?>
<svg width="24px" height="24px" viewBox="0 0 24 24" version="1.1" xmlns="http://www.w3.org/2000/svg" xmlns:xlink="http://www.w3.org/1999/xlink">
    <!-- Generator: Sketch 62 (91390) - https://sketch.com -->
    <title>artificial-intelligence</title>
    <desc>Created with Sketch.</desc>
    <g id="Page-1" stroke="none" stroke-width="1" fill="none" fill-rule="evenodd">
        <g id="Plan-Project-Icons" transform="translate(-118.000000, -7.000000)" fill="#FEFEFE">
            <g id="artificial-intelligence" transform="translate(118.000000, 7.000000)">
                <polygon id="Path" fill-opacity="0.5" points="7 7 17 7 17 17 7 17"></polygon>
                <path d="M6.35229352,19 L17.6477065,19 L19,17.6477065 L19,6.35229352 L17.6477065,5 L6.35229352,5 L5,6.35229352 L5,17.6477065 L6.35229352,19 Z M7.32211187,16.6792146 L7.32211187,7.32215761 L16.6791688,7.32215761 L16.6791688,16.6792146 L7.32211187,16.6792146 Z" id="Shape" fill-opacity="0.8"></path>
                <polygon id="Path" fill-opacity="0.9" points="5 18 5 6 3 6 3 7.33056894 3 9.66526017 3 12 3 14.3346912 3 16.6693825 3 18"></polygon>
                <polygon id="Path" fill-opacity="0.9" points="6 5 18 5 18 3 16.6693825 3 14.3346912 3 12 3 9.66526017 3 7.33056894 3 6 3"></polygon>
                <polygon id="Path" fill-opacity="0.9" points="19 18 21 18 21 16.6693825 21 14.3346912 21 12 21 9.66526017 21 7.33056894 21 6 19 6"></polygon>
                <polygon id="Path" fill-opacity="0.9" points="12 21 14.3346912 21 16.6693825 21 18 21 18 19 6 19 6 21 7.33056894 21 9.66526017 21"></polygon>
                <g id="Group" fill-rule="nonzero">
                    <path d="M9.35025,14.0704219 C9.5863125,14.1765469 9.8638125,14.0713125 9.97007813,13.83525 L10.2150938,13.2905156 L11.77725,13.2905156 L12.0222656,13.83525 C12.1004063,14.0089219 12.2712188,14.1118125 12.4500469,14.1118125 C12.5143125,14.1118125 12.5796563,14.0985 12.6420938,14.0704219 C12.8781563,13.9642031 12.9834844,13.68675 12.8773125,13.4506406 L11.4237187,10.2191719 C11.3480156,10.0509375 11.1806719,9.94275 10.9962187,9.94275 C10.8117656,9.94275 10.6444219,10.0509844 10.5687187,10.2191719 L9.11507812,13.4506406 C9.0088125,13.68675 9.1141875,13.96425 9.35025,14.0704219 L9.35025,14.0704219 Z M10.9961719,11.554125 L11.3555156,12.3530156 L10.6367813,12.3530156 L10.9961719,11.554125 Z" id="Shape"></path>
                    <path d="M14.6538281,13.6429688 L14.6538281,10.4115 C14.6538281,10.1526094 14.4439219,9.94275 14.1850781,9.94275 C13.9262344,9.94275 13.7163281,10.1526094 13.7163281,10.4115 L13.7163281,13.6429688 C13.7163281,13.9018594 13.9262344,14.1117188 14.1850781,14.1117188 C14.4439219,14.1117188 14.6538281,13.9018594 14.6538281,13.6429688 Z" id="Path"></path>
                    <path d="M7.20534375,17.2634063 L16.7946563,17.2634063 C17.0535,17.2634063 17.2634063,17.0535469 17.2634063,16.7946563 L17.2634063,7.20534375 C17.2634063,6.94645313 17.0535,6.73659375 16.7946563,6.73659375 L14.1040313,6.73659375 C13.8451875,6.73659375 13.6352813,6.94645313 13.6352813,7.20534375 C13.6352813,7.46423438 13.8451875,7.67409375 14.1040313,7.67409375 L16.3259063,7.67409375 L16.3259063,16.3259063 L7.67409375,16.3259063 L7.67409375,7.67409375 L9.89465625,7.67409375 C10.1535,7.67409375 10.3634063,7.46423438 10.3634063,7.20534375 C10.3634063,6.94645313 10.1535,6.73659375 9.89465625,6.73659375 L7.20534375,6.73659375 C6.9465,6.73659375 6.73659375,6.94645313 6.73659375,7.20534375 L6.73659375,16.7946563 C6.73659375,17.0535469 6.94645313,17.2634063 7.20534375,17.2634063 Z" id="Path"></path>
                    <path d="M23.53125,10.2158906 C23.7900937,10.2158906 24,10.0060312 24,9.74714063 C24,9.48825 23.7900937,9.27839063 23.53125,9.27839063 L21.5923594,9.27839063 L21.5923594,7.96373438 L23.53125,7.96373438 C23.7900937,7.96373438 24,7.753875 24,7.49498438 C24,7.23609375 23.7900937,7.02623438 23.53125,7.02623438 L21.5923594,7.02623438 L21.5923594,6.21145313 C21.5923594,5.9525625 21.3824531,5.74270312 21.1236094,5.74270312 L19.36725,5.74270312 L18.2559844,4.6314375 L18.2559844,2.87503125 C18.2559844,2.61614063 18.0460781,2.40628125 17.7872344,2.40628125 L16.9724062,2.40628125 L16.9724062,0.46875 C16.9724062,0.209859375 16.7625,0 16.5036562,0 C16.2448125,0 16.0349062,0.209859375 16.0349062,0.46875 L16.0349062,2.40628125 L14.72025,2.40628125 L14.72025,0.46875 C14.72025,0.209859375 14.5103438,0 14.2515,0 C13.9926563,0 13.78275,0.209859375 13.78275,0.46875 L13.78275,2.40628125 L12.4680469,2.40628125 L12.4680469,0.46875 C12.4680469,0.209859375 12.2581406,0 11.9992969,0 C11.7404531,0 11.5305469,0.209859375 11.5305469,0.46875 L11.5305469,2.40628125 L10.2158906,2.40628125 L10.2158906,0.46875 C10.2158906,0.209859375 10.0059844,0 9.74714063,0 C9.48829688,0 9.27839063,0.209859375 9.27839063,0.46875 L9.27839063,2.40628125 L7.96373438,2.40628125 L7.96373438,0.46875 C7.96373438,0.209859375 7.75382813,0 7.49498438,0 C7.23614063,0 7.02623438,0.209859375 7.02623438,0.46875 L7.02623438,2.40628125 L6.21140625,2.40628125 C5.9525625,2.40628125 5.74265625,2.61614063 5.74265625,2.87503125 L5.74265625,4.6314375 L4.63139063,5.74270312 L2.87498438,5.74270312 C2.61614063,5.74270312 2.40623438,5.9525625 2.40623438,6.21145313 L2.40623438,7.02623438 L0.46875,7.02623438 C0.20990625,7.02623438 1.33226763e-15,7.23609375 1.33226763e-15,7.49498438 C1.33226763e-15,7.753875 0.20990625,7.96373438 0.46875,7.96373438 L2.40628125,7.96373438 L2.40628125,9.27839063 L0.46875,9.27839063 C0.20990625,9.27839063 1.33226763e-15,9.48825 1.33226763e-15,9.74714063 C1.33226763e-15,10.0060312 0.20990625,10.2158906 0.46875,10.2158906 L2.40628125,10.2158906 L2.40628125,11.5305469 L0.46875,11.5305469 C0.20990625,11.5305469 1.33226763e-15,11.7404062 1.33226763e-15,11.9992969 C1.33226763e-15,12.2581875 0.20990625,12.4680469 0.46875,12.4680469 L2.40628125,12.4680469 L2.40628125,13.7827031 L0.46875,13.7827031 C0.20990625,13.7827031 1.33226763e-15,13.9925625 1.33226763e-15,14.2514531 C1.33226763e-15,14.5103438 0.20990625,14.7202031 0.46875,14.7202031 L2.40628125,14.7202031 L2.40628125,16.0348594 L0.46875,16.0348594 C0.20990625,16.0348594 1.33226763e-15,16.2447188 1.33226763e-15,16.5036094 C1.33226763e-15,16.7625 0.20990625,16.9723594 0.46875,16.9723594 L2.40628125,16.9723594 L2.40628125,17.7871406 C2.40628125,18.0460313 2.6161875,18.2558906 2.87503125,18.2558906 L4.6314375,18.2558906 L5.74270313,19.3671563 L5.74270313,21.1235625 C5.74270313,21.3824531 5.95260938,21.5923125 6.21145313,21.5923125 L7.02628125,21.5923125 L7.02628125,23.53125 C7.02628125,23.7901406 7.2361875,24 7.49503125,24 C7.753875,24 7.96378125,23.7901406 7.96378125,23.53125 L7.96378125,21.5923594 L9.2784375,21.5923594 L9.2784375,23.53125 C9.2784375,23.7901406 9.48834375,24 9.7471875,24 C10.0060313,24 10.2159375,23.7901406 10.2159375,23.53125 L10.2159375,21.5923594 L11.5305938,21.5923594 L11.5305938,23.53125 C11.5305938,23.7901406 11.7405,24 11.9993438,24 C12.2581875,24 12.4680938,23.7901406 12.4680938,23.53125 L12.4680938,21.5923594 L13.7827969,21.5923594 L13.7827969,23.53125 C13.7827969,23.7901406 13.9927031,24 14.2515469,24 C14.5103906,24 14.7202969,23.7901406 14.7202969,23.53125 L14.7202969,21.5923594 L16.0349531,21.5923594 L16.0349531,23.53125 C16.0349531,23.7901406 16.2448594,24 16.5037031,24 C16.7625469,24 16.9724531,23.7901406 16.9724531,23.53125 L16.9724531,21.5923594 L17.7872812,21.5923594 C18.046125,21.5923594 18.2560312,21.3825 18.2560312,21.1236094 L18.2560312,19.3672031 L19.3672969,18.2559375 L21.1236562,18.2559375 C21.3825,18.2559375 21.5924062,18.0460781 21.5924062,17.7871875 L21.5924062,16.9724062 L23.53125,16.9724062 C23.7900937,16.9724062 24,16.7625469 24,16.5036562 C24,16.2447656 23.7900937,16.0349062 23.53125,16.0349062 L21.5923594,16.0349062 L21.5923594,14.72025 L23.53125,14.72025 C23.7900937,14.72025 24,14.5103906 24,14.2515 C24,13.9926094 23.7900937,13.78275 23.53125,13.78275 L21.5923594,13.78275 L21.5923594,12.4680937 L23.53125,12.4680937 C23.7900937,12.4680937 24,12.2582344 24,11.9993437 C24,11.7404531 23.7900937,11.5305937 23.53125,11.5305937 L21.5923594,11.5305937 L21.5923594,10.2159375 L23.53125,10.2159375 L23.53125,10.2158906 Z M17.3184844,3.34378125 L17.3184844,4.35684375 L6.68020313,4.35684375 L6.68020313,3.34378125 L17.3184844,3.34378125 Z M3.34378125,6.68020313 L4.35684375,6.68020313 L4.35684375,17.3184375 L3.34378125,17.3184375 L3.34378125,6.68020313 Z M5.29434375,6.40560938 L6.40560938,5.29434375 L17.5930312,5.29434375 L18.7042969,6.40560938 L18.7042969,17.5930312 L17.5930312,18.7042969 L6.40560938,18.7042969 L5.29434375,17.5930312 L5.29434375,6.40560938 Z M6.68020313,20.6548594 L6.68020313,19.6417969 L17.3184844,19.6417969 L17.3184844,20.6548594 L6.68020313,20.6548594 Z M20.6548594,17.3184375 L19.6418437,17.3184375 L19.6418437,6.68020312 L20.6548594,6.68020312 L20.6548594,17.3184375 Z" id="Shape"></path>
                    <path d="M11.9992969,7.67409375 L12.0020156,7.67409375 C12.2608594,7.67409375 12.4694531,7.46423438 12.4694531,7.20534375 C12.4694531,6.94645313 12.2581875,6.73659375 11.9993437,6.73659375 C11.7405,6.73659375 11.5305937,6.94645313 11.5305937,7.20534375 C11.5305937,7.46423438 11.7404531,7.67409375 11.9992969,7.67409375 L11.9992969,7.67409375 Z" id="Path"></path>
                </g>
            </g>
        </g>
    </g>
</svg>