<?xml version="1.0" encoding="UTF-8"?>
<svg width="24px" height="24px" viewBox="0 0 24 24" version="1.1" xmlns="http://www.w3.org/2000/svg" xmlns:xlink="http://www.w3.org/1999/xlink">
    <!-- Generator: Sketch 62 (91390) - https://sketch.com -->
    <title>blog</title>
    <desc>Created with Sketch.</desc>
    <g id="Page-1" stroke="none" stroke-width="1" fill="none" fill-rule="evenodd">
        <g id="Plan-Project-Icons" transform="translate(-76.000000, -7.000000)" fill="#FEFEFE" fill-rule="nonzero">
            <g id="blog" transform="translate(76.000000, 7.000000)">
                <path d="M11.9581538,8.352 L9.35384615,8.352 C8.86317949,8.352 8.448,8.7168 8.448,9.216 C8.448,9.7152 8.86317949,10.08 9.35384615,10.08 L11.9581538,10.08 C12.4488205,10.08 12.864,9.7152 12.864,9.216 C12.864,8.7168 12.4676923,8.352 11.9581538,8.352 Z" id="Path"></path>
                <path d="M14.652,13.728 L9.27114894,13.728 C8.7732766,13.728 8.352,14.1888 8.352,14.688 C8.352,15.1872 8.75412766,15.648 9.27114894,15.648 L14.652,15.648 C15.1498723,15.648 15.552,15.1872 15.552,14.688 C15.552,14.1888 15.1498723,13.728 14.652,13.728 Z" id="Path"></path>
                <path d="M17.9809524,0 L6,0 C2.7047619,0 0,2.7047619 0,6.01904762 L0,18 C0,21.2952381 2.7047619,24 6,24 L17.9809524,24 C21.2952381,24 24,21.2952381 24,17.9809524 L24,6.01904762 C24,2.7047619 21.2952381,0 17.9809524,0 Z M19.4666667,14.7428571 C19.447619,17.3333333 17.3142857,19.4285714 14.7047619,19.4285714 L9.25714286,19.4285714 C6.64761905,19.4285714 4.57142857,17.352381 4.57142857,14.7619048 L4.57142857,9.23809524 C4.57142857,6.64761905 6.64761905,4.57142857 9.25714286,4.57142857 L12.5714286,4.57142857 C13.7904762,4.57142857 15.5809524,5.73333333 16.2285714,7.12380952 C16.4,7.5047619 16.5142857,7.56190476 16.647619,8.72380952 C16.7238095,9.31428571 16.7619048,9.75238095 17.0285714,10 C17.4095238,10.3428571 18.8,10.1142857 19.0857143,10.3238095 L19.2952381,10.4952381 L19.4285714,10.7619048 L19.4666667,10.952381 L19.4666667,14.7428571 Z" id="Shape"></path>
            </g>
        </g>
    </g>
</svg>