<?xml version="1.0" encoding="UTF-8"?>
<svg width="24px" height="24px" viewBox="0 0 24 24" version="1.1" xmlns="http://www.w3.org/2000/svg" xmlns:xlink="http://www.w3.org/1999/xlink">
    <!-- Generator: Sketch 62 (91390) - https://sketch.com -->
    <title>Artboard</title>
    <desc>Created with Sketch.</desc>
    <g id="Artboard" stroke="none" stroke-width="1" fill="none" fill-rule="evenodd">
        <g id="customer-service" transform="translate(2.000000, 0.000000)" fill="#FEFEFE" fill-rule="nonzero">
            <path d="M15.3066662,4.84962934 C13.4688416,4.84962934 11.9788345,3.39575057 11.9788345,1.60248781 L11.9788345,0.393939394 C10.877803,0.421198333 9.79276569,0.657581082 8.78449985,1.09018644 L8.78449985,2.75152435 C8.78449985,4.28759607 7.50838674,5.53276717 5.93414428,5.53276717 L4.34753306,5.53276717 C4.15048618,6.00303566 3.99864919,6.4901589 3.89372813,6.98789441 L5.26921767,6.98789441 C6.31672228,6.98789441 7.16611376,7.81648255 7.16611376,8.83879631 C7.16611376,9.860902 6.31672228,10.6894901 5.26921767,10.6894901 L3.46572694,10.6894901 L2.00429594,14.4245872 C1.99661879,14.443939 1.99939108,14.4655797 2.01133332,14.4826425 C2.02327555,14.4997053 2.04310818,14.5099015 2.0644336,14.5099015 L4.66336251,14.5099015 C4.84420207,14.5099015 4.99092095,14.6528547 4.99092095,14.8295176 L4.99092095,17.3939394 L7.21281645,17.3939394 C8.42346051,17.3949779 9.59721161,16.9877586 10.5351035,16.2407392 C8.93846941,15.374488 8.00398949,13.6811052 8.14196497,11.9034487 C8.27994045,10.1257922 9.46520725,8.58888815 11.1774252,7.96713494 C12.8896432,7.34538172 14.8161816,7.75218474 16.1114876,9.0094247 L20,8.06493411 C20.0033766,6.95564152 19.7602669,5.85862581 19.2874823,4.84962934 L15.3066662,4.84962934 Z" id="Path"></path>
            <path d="M0,17.7997876 L0,17.9880912 C0.000465411224,18.2121532 0.240400268,18.3937633 0.536188046,18.3939394 L2,18.3939394 L2,17.3939394 L0.536188046,17.3939394 C0.240400268,17.3942917 0.000465411224,17.5757256 0,17.7997876 L0,17.7997876 Z" id="Path"></path>
            <path d="M14,11.9116701 C14,11.1514104 13.4440123,10.5082734 12.6992758,10.407459 C11.9542464,10.3066445 11.2505423,10.7789899 11.0530011,11.5125635 C10.8554598,12.2458405 11.2247506,13.0141061 11.9170242,13.3097297 C12.0055368,12.8489482 12.0500862,12.380754 12.0500862,11.9116701 C12.0500862,11.6599305 12.2514375,11.4562259 12.5002692,11.4562259 C12.7488077,11.4562259 12.9504522,11.6599305 12.9504522,11.9116701 C12.9504522,12.4086262 12.9061959,12.9049892 12.8179765,13.3939394 C13.5073192,13.2418282 13.9991207,12.6250808 14,11.9116701 Z" id="Path"></path>
            <path d="M7.4456651,3.85428884 C7.80179604,3.5093817 8.00128082,3.04025789 8,2.55144554 L8,1.39393939 C6.71556919,2.08088985 5.67089399,3.1254555 5,4.39393939 L6.10737041,4.39393939 C6.60966759,4.39518629 7.09155664,4.20080685 7.4456651,3.85428884 Z" id="Path"></path>
            <path d="M14.5383291,3.39393939 L18,3.39393939 C17.990076,3.37984414 17.9807595,3.36558495 17.9706329,3.35148965 C16.7084557,1.59531616 14.4822279,0.494900932 12,0.393939394 L12,1.33979823 C12,2.47430433 13.1364051,3.39393939 14.5383291,3.39393939 L14.5383291,3.39393939 Z" id="Path"></path>
            <path d="M6,8.89381059 C5.9990862,8.06581572 5.40397504,7.39471227 4.66973803,7.39393939 L3.07972889,7.39393939 C3.05277187,7.6355882 3.0335821,7.87929797 3.02170273,8.12506865 C3.0141639,8.26083509 3.00890955,9.54069767 3.00731039,10.3163953 C3.00731039,10.3424151 3.00479743,10.3684349 3,10.3939394 L4.66973803,10.3939394 C5.40397504,10.3929089 5.9990862,9.72206306 6,8.89381059 Z" id="Path"></path>
            <path d="M13,20.8939394 C13,21.1699894 12.7762521,21.3939394 12.5,21.3939394 C12.22395,21.3939394 12,21.1699894 12,20.8939394 C12,20.6178893 12.22395,20.3939394 12.5,20.3939394 C12.7762521,20.3939394 13,20.6178893 13,20.8939394 Z" id="Path"></path>
            <path d="M10.8590387,20.076098 C10.8601763,19.6015445 11.3251493,19.1844138 12,19.052476 L12,17.3939394 C11.4104654,18.2426047 10.322969,18.8865455 9,19.1707783 C9.26334253,19.3520727 9.45018486,19.5775384 9.54204193,19.8237454 C9.55085787,19.8473675 9.5551237,19.8713736 9.5551237,19.8957639 L9.5551237,22.3939394 L12,22.3939394 L12,21.0997201 C11.3251493,20.9677823 10.8598919,20.5506515 10.8590387,20.076098 Z" id="Path"></path>
            <path d="M13.4973738,16.3939394 C15.7849451,16.3952051 17.7095044,14.8704107 17.970397,12.8502593 C18.2310517,10.8298961 16.7449634,8.95723034 14.5164261,8.49784529 C12.2878888,8.03867189 10.0265019,9.13899531 9.26048682,11.0550392 C8.49447172,12.9712948 9.46805833,15.0934378 11.5228259,15.9870274 C12.1181657,15.4277669 12.5671106,14.7588971 12.838477,14.0278169 C11.8925031,13.7262859 11.3590539,12.8352356 11.6063782,11.9693657 C11.8537025,11.1034958 12.8008666,10.5465629 13.7939725,10.6828337 C14.7870784,10.8193161 15.5012006,11.604143 15.4431186,12.4960397 C15.3852748,13.3879365 14.57427,14.0944711 13.5699762,14.1283272 C13.300038,14.9044784 12.8518073,15.6226511 12.253849,16.2371394 C12.6580421,16.3410353 13.0765178,16.3939394 13.4973738,16.3939394 L13.4973738,16.3939394 Z M10.2181247,11.92366 C10.0234073,11.875415 9.90986192,11.6961893 9.96389718,11.5233115 C10.0848219,11.1358707 10.2854902,10.771706 10.5554284,10.4492266 C10.676115,10.3051265 10.9051102,10.2750792 11.0672159,10.3823608 C11.2293217,10.4894307 11.2628854,10.6929905 11.1424368,10.8370906 C10.9260578,11.095455 10.7653803,11.3872523 10.6684977,11.6976705 C10.6425513,11.7808295 10.5806607,11.8512925 10.4961563,11.8936127 C10.4116518,11.9361444 10.3116747,11.946936 10.2181247,11.92366 Z M11.950109,14.6158552 C12.0624642,14.6763729 12.1293537,14.785982 12.1257831,14.902574 C12.1222124,15.019166 12.0484198,15.1251779 11.9327321,15.1801941 C11.8168062,15.2352102 11.6768383,15.2307666 11.5656732,15.1687677 C11.1802853,14.9573786 10.8427436,14.6839905 10.570425,14.3623575 C10.4487861,14.2191039 10.4809216,14.0153325 10.6423132,13.9072045 C10.8034668,13.7990766 11.0327,13.8278543 11.1543389,13.9711079 C11.3721461,14.2282027 11.6420843,14.4467862 11.950109,14.6156435 L11.950109,14.6158552 Z M14.9932217,9.76025485 C14.9594199,9.84108627 14.8908642,9.9066825 14.8027891,9.94265459 C14.714476,9.97841508 14.6137847,9.98158911 14.5230912,9.9513302 C14.1941189,9.8423559 13.8458654,9.78649333 13.4949933,9.78628174 L13.4611916,9.78628174 C13.2590949,9.78839772 13.0936567,9.64472086 13.0912762,9.46507191 C13.0888959,9.28563456 13.2505255,9.1383605 13.4526221,9.13624452 L13.4949933,9.13624452 C13.9329883,9.13645611 14.3676507,9.20607271 14.7782709,9.34213195 C14.9675133,9.40476574 15.0636818,9.59203231 14.9932217,9.76025485 Z M16.3129195,10.8298961 C16.4947826,10.7520271 16.713304,10.8199509 16.800903,10.9816138 C16.9980007,11.3436626 17.1177352,11.7353354 17.1539174,12.1363186 C17.1698661,12.3151212 17.0199004,12.4719172 16.818756,12.4863061 C16.8087583,12.4869409 16.7987606,12.4871525 16.789001,12.4871525 C16.5985684,12.4869409 16.4402713,12.3570181 16.4250367,12.1881608 C16.3959957,11.8671626 16.3000653,11.553782 16.1422442,11.2638891 C16.0546453,11.1020146 16.1310564,10.9077652 16.3129195,10.8298961 L16.3129195,10.8298961 Z M14.5411823,14.8367662 C14.6187836,14.8103161 14.6963849,14.780692 14.7720819,14.7483171 C15.0227387,14.6410356 15.2548284,14.503072 15.4616858,14.3380235 C15.5585684,14.2590964 15.6956799,14.2326464 15.8206513,14.2686184 C15.9456226,14.304379 16.0394107,14.39706 16.0663093,14.5113244 C16.0932079,14.6258003 16.0489323,14.7440851 15.9506215,14.8213194 C15.6923473,15.0274184 15.4024137,15.2000846 15.0896282,15.3338162 C14.995364,15.3742319 14.8987195,15.411262 14.801837,15.4440601 C14.6130706,15.5079635 14.4019285,15.423958 14.3298022,15.2561587 C14.2579139,15.088571 14.3524161,14.9006696 14.5411823,14.8367662 L14.5411823,14.8367662 Z" id="Shape"></path>
            <path d="M12,16.6761303 C11.6360082,16.6312101 11.2781893,16.5365322 10.9347736,16.3939394 C9.88518516,17.4618879 8.51748973,18.0529914 7.09897118,18.0518396 L5,18.0518396 C5.17757203,18.8580993 5.83353906,19.416722 6.57489709,19.3932253 C6.68209878,19.3893092 7.52139915,19.3837806 9.0695473,19.3766394 L9.08189298,19.3766394 C10.5049382,19.3697286 11.7261317,18.2395829 12,16.6761303 L12,16.6761303 Z" id="Path"></path>
            <path d="M14.9543006,18.9901333 C14.9553432,18.4336331 15.3814944,17.9444714 16,17.7899757 L16,15.3939394 C15.1424848,15.9972838 14.0999131,16.3718123 13,16.4720319 L13,19.4759167 C13.6192876,19.6299622 14.04596,20.119349 14.04596,20.6762996 C14.04596,21.233025 13.6192876,21.7226371 13,21.8766825 L13,23.3939394 L16,23.3939394 L16,20.1905162 C15.3812337,20.0357951 14.9553432,19.5466335 14.9543006,18.9901333 Z" id="Path"></path>
            <path d="M17,18.8939394 C17,19.1701914 16.776252,19.3939394 16.5,19.3939394 C16.2239499,19.3939394 16,19.1701914 16,18.8939394 C16,18.6178894 16.2239499,18.3939394 16.5,18.3939394 C16.776252,18.3939394 17,18.6178894 17,18.8939394 Z" id="Path"></path>
            <path d="M17.9133802,12.0438775 C17.9141005,13.1498474 17.5908518,14.2210601 17,15.0703448 L17,18.0216847 C17.4278768,18.1693489 17.7226724,18.638679 17.7226724,19.1723424 C17.7226724,19.7062217 17.4278768,20.175336 17,20.3230002 L17,23.3939394 L18.3475599,23.3939394 C18.295516,22.1277841 18.1404646,17.7198799 18.3634072,14.8469056 C18.4437241,13.8134725 19.2234828,11.4957499 19.256618,11.3975231 C19.2600396,11.3875924 19.2638214,11.3778777 19.2679633,11.3683788 C19.671709,10.4437509 19.9204034,9.43320139 20,8.39393939 L17.1480281,9.24495119 C17.6459571,10.0560245 17.9141005,11.0367822 17.9133802,12.0438775 L17.9133802,12.0438775 Z" id="Path"></path>
        </g>
    </g>
</svg>