<?xml version="1.0" encoding="UTF-8"?>
<svg width="24px" height="24px" viewBox="0 0 24 24" version="1.1" xmlns="http://www.w3.org/2000/svg" xmlns:xlink="http://www.w3.org/1999/xlink">
    <!-- Generator: Sketch 62 (91390) - https://sketch.com -->
    <title>circuit</title>
    <desc>Created with Sketch.</desc>
    <g id="Page-1" stroke="none" stroke-width="1" fill="none" fill-rule="evenodd">
        <g id="Plan-Project-Icons" transform="translate(-198.000000, -82.000000)" fill="#FEFEFE" fill-rule="nonzero">
            <g id="circuit" transform="translate(198.000000, 82.000000)">
                <path d="M22.4376464,13.5722525 C21.2548271,13.0871258 19.8957094,13.5625347 19.2734237,14.6793171 L17.1553653,13.8071941 C17.2394168,13.2515658 16.9329434,12.710419 16.4131967,12.4964374 C15.89345,12.2824557 15.2947979,12.4508972 14.9629757,12.904584 L12.7618188,11.998163 L14.9593544,11.082977 C15.2934637,11.5341867 15.8923064,11.6995795 16.4105284,11.4836924 C16.928941,11.2678053 17.2333178,10.7262773 17.1481228,10.1714113 L19.2619882,9.29109489 C19.9143875,10.458181 21.3640368,10.9141544 22.5672495,10.3307066 C23.7704622,9.74725881 24.30984,8.32693886 23.7971452,7.0922094 C23.284641,5.85747994 21.8976968,5.23649485 20.6348285,5.67646253 C19.3719603,6.11643016 18.6715315,7.46472425 19.0374698,8.75051968 L16.9226514,9.63121712 C16.5885421,9.17962627 15.9895088,9.0142335 15.4709056,9.2301206 C14.9523025,9.4460077 14.6479257,9.98791674 14.7335019,10.5429733 L12.5367286,11.4577783 L13.442807,9.25851174 C13.5028438,9.26765789 13.5632617,9.27223096 13.6238703,9.27223096 C14.1523842,9.27299314 14.6212427,8.93363309 14.7855337,8.43135734 C14.9500153,7.92927213 14.7725734,7.37859806 14.3460266,7.06667644 L15.2189419,4.94781971 C16.1494162,5.2098186 17.1479322,4.91676092 17.7890866,4.19364389 C18.4302409,3.47033632 18.6013933,2.44425329 18.2297372,1.55212312 C17.8049058,0.532137513 16.7654123,-0.0924679394 15.6651197,0.011188361 C14.5648272,0.115035243 13.6602735,0.922944642 13.4338491,2.00428566 C13.2072342,3.08581715 13.711543,4.18849917 14.6776582,4.72488243 L13.8053147,6.84240533 C13.2495459,6.75856568 12.7082622,7.06477097 12.4942264,7.5843863 C12.28,8.10400158 12.4486747,8.70269295 12.9022857,9.03443121 L11.995826,11.2348411 L11.0804086,9.03805157 C11.5317325,8.70402678 11.697167,8.1053354 11.4812253,7.5870539 C11.2652836,7.0687724 10.7236188,6.7646631 10.1686123,6.84983658 L9.28769214,4.73574346 C10.4564075,4.08122251 10.9117339,2.62889106 10.3258514,1.42445821 C9.73977839,0.2202159 8.31604977,-0.318453893 7.07948331,0.196588361 C5.84272622,0.711630616 5.2223465,2.10127288 5.66490309,3.3653462 C6.10745968,4.62961009 7.45933486,5.32929012 8.74736137,4.9607767 L9.62828159,7.07525094 C9.20402186,7.38888744 9.02924822,7.93918045 9.19468282,8.44012242 C9.36011742,8.94087377 9.82859469,9.27890003 10.3561557,9.27813786 C10.4177172,9.27813786 10.4792787,9.27337425 10.5402684,9.26403753 L11.4553047,11.4600649 L9.25548195,10.5542155 C9.33934281,9.99858724 9.03306008,9.45744038 8.51331334,9.24326817 C7.99356661,9.02928649 7.39472387,9.19772803 7.06290172,9.65141488 L4.94331856,8.77872029 C5.30315787,7.49483028 4.59929841,6.15301474 3.3379549,5.71914454 C2.07680197,5.28508376 0.695956678,5.90968921 0.189360886,7.14308484 C-0.317425536,8.37648048 0.225764134,9.79108411 1.42783325,10.368625 C2.630093,10.9461659 4.07421512,10.4863816 4.72089668,9.32024822 L6.83838331,10.1921806 C6.75452245,10.7478089 7.06080518,11.2889557 7.58055192,11.5029374 C8.10029861,11.7169191 8.69914139,11.5484776 9.03096354,11.0947907 L11.2319299,12.0012117 L9.03458482,12.9163978 C8.70047555,12.465188 8.10163277,12.2997953 7.58322019,12.5156824 C7.0649982,12.7315695 6.76062142,13.2730974 6.84581644,13.8279635 L4.7313793,14.7084704 C4.07802693,13.5436709 2.62952121,13.0901745 1.42840504,13.674575 C0.227288877,14.258785 -0.309801821,15.6781522 0.203845943,16.9109763 C0.717493659,18.1436097 2.10348492,18.7621177 3.36444727,18.3211974 C4.62521904,17.880277 5.32336069,16.5329356 4.95646945,15.2488551 L7.07166896,14.3679671 C7.40558765,14.819558 8.00462102,14.9853318 8.52322417,14.7692542 C9.04182737,14.553367 9.34601353,14.011458 9.26062793,13.4564014 L11.4572107,12.5415964 L10.5509416,14.7410535 C9.99517282,14.6572139 9.45388911,14.9634192 9.23985332,15.4830345 C9.02581752,16.0026498 9.19430166,16.6013411 9.64791261,16.9330794 L8.77518795,19.0515551 C7.48925793,18.6899013 6.14443472,19.3935828 5.70873947,20.6559412 C5.27285359,21.9181091 5.8972358,23.3012728 7.13227752,23.809646 C8.36750982,24.3180192 9.78494889,23.775348 10.3645418,22.5722489 C10.943944,21.3689593 10.4844247,19.9227253 9.31666225,19.2744923 L10.1890057,17.1569694 C10.2490425,17.1661155 10.309651,17.1706886 10.3702596,17.1706886 C10.898583,17.1712603 11.3674414,16.8319002 11.5317325,16.329815 C11.6960235,15.8277298 11.5185815,15.2768652 11.0920347,14.965134 L11.9986849,12.7645337 L12.9141025,14.9613232 C12.4612538,15.2947763 12.2946756,15.8942299 12.5109986,16.4132735 C12.7273215,16.9321267 13.2701299,17.236236 13.8257081,17.1495381 L14.7066283,19.2636313 C13.5417247,19.9168184 13.0883043,21.3647674 13.6728526,22.5655798 C14.2572103,23.7662018 15.6769365,24.3029662 16.9098817,23.7894483 C18.1428269,23.2757398 18.7613007,21.890099 18.3200783,20.6298366 C17.8790464,19.3693836 16.5313643,18.6714184 15.2471496,19.0384075 L14.3660388,16.9241238 C14.8177439,16.590099 14.9833691,15.9912171 14.7674274,15.472745 C14.5512951,14.954273 14.0094396,14.6499732 13.4542426,14.7355277 L12.5392063,12.5393099 L14.739029,13.4451592 C14.6549776,14.0007875 14.9614509,14.5421249 15.4811976,14.7561066 C16.0009444,14.9700882 16.5995965,14.8016467 16.9314187,14.3479599 L19.0506207,15.2206545 C18.68392,16.5241706 19.4127471,17.8846595 20.7013454,18.3015712 C21.9901344,18.7186735 23.3780315,18.0431927 23.844984,16.7720692 C24.3117459,15.5007551 23.6904132,14.0878664 22.4380275,13.5722525 L22.4376464,13.5722525 Z" id="Path"></path>
            </g>
        </g>
    </g>
</svg>