<?xml version="1.0" encoding="UTF-8"?>
<svg width="24px" height="24px" viewBox="0 0 24 24" version="1.1" xmlns="http://www.w3.org/2000/svg" xmlns:xlink="http://www.w3.org/1999/xlink">
    <!-- Generator: Sketch 62 (91390) - https://sketch.com -->
    <title>enterprise</title>
    <desc>Created with Sketch.</desc>
    <g id="Page-1" stroke="none" stroke-width="1" fill="none" fill-rule="evenodd">
        <g id="Plan-Project-Icons" transform="translate(-240.000000, -7.000000)" fill-rule="nonzero">
            <g id="enterprise" transform="translate(240.000000, 7.000000)">
                <polygon id="Path" fill-opacity="0.5" fill="#FEFEFE" points="8.27586207 5.79310345 15.7241379 5.79310345 15.7241379 18.2068966 8.27586207 18.2068966"></polygon>
                <polygon id="Path" fill-opacity="0.6" fill="#FEFEFE" points="14.8965517 5.79310345 15.7241379 5.79310345 15.7241379 18.2068966 14.8965517 18.2068966"></polygon>
                <g id="Group" transform="translate(8.275862, 8.275862)" fill="#2A71AD">
                    <polygon id="Path" points="0 0 7.44827586 0 7.44827586 0.827586207 0 0.827586207"></polygon>
                    <polygon id="Path" points="0 3.31034483 7.44827586 3.31034483 7.44827586 4.13793103 0 4.13793103"></polygon>
                    <polygon id="Path" points="0 6.62068966 7.44827586 6.62068966 7.44827586 7.44827586 0 7.44827586"></polygon>
                </g>
                <rect id="Rectangle" fill="#FEFEFE" x="2.48275862" y="0.827586207" width="4.13793103" height="2.48275862" rx="1.24137931"></rect>
                <polygon id="Path" fill-opacity="0.6" fill="#FEFEFE" points="4.96551724 4.30344828 4.96551724 3.31034483 4.13793103 3.31034483 4.13793103 4.30344828 3.31034483 4.30344828 3.31034483 4.96551724 5.79310345 4.96551724 5.79310345 4.30344828"></polygon>
                <polygon id="Path" fill-opacity="0.6" fill="#FEFEFE" points="4.13793103 3.31034483 4.96551724 3.31034483 4.96551724 4.13793103 4.13793103 4.13793103"></polygon>
                <path d="M6.20689655,0.827586207 L3.31034483,3.31034483 L6.20689655,3.31034483 C6.43542817,3.31034483 6.62068966,3.15154927 6.62068966,2.95566502 L6.62068966,1.18226601 C6.62068966,0.986381764 6.43542817,0.827586207 6.20689655,0.827586207 Z" id="Path" fill="#CECECE"></path>
                <rect id="Rectangle" fill="#FEFEFE" x="17.3793103" y="0.827586207" width="4.13793103" height="2.48275862" rx="1.24137931"></rect>
                <polygon id="Path" fill-opacity="0.6" fill="#FEFEFE" points="19.862069 4.30344828 19.862069 3.31034483 19.0344828 3.31034483 19.0344828 4.30344828 18.2068966 4.30344828 18.2068966 4.96551724 20.6896552 4.96551724 20.6896552 4.30344828"></polygon>
                <polygon id="Path" fill-opacity="0.6" fill="#FEFEFE" points="19.0344828 3.31034483 19.862069 3.31034483 19.862069 4.13793103 19.0344828 4.13793103"></polygon>
                <path d="M21.1034483,0.827586207 L18.2068966,3.31034483 L21.1034483,3.31034483 C21.3319799,3.31034483 21.5172414,3.15154927 21.5172414,2.95566502 L21.5172414,1.18226601 C21.5172414,0.986381764 21.3319799,0.827586207 21.1034483,0.827586207 Z" id="Path" fill="#CECECE"></path>
                <rect id="Rectangle" fill="#FEFEFE" x="19.862069" y="10.7586207" width="4.13793103" height="2.48275862" rx="1.24137931"></rect>
                <polygon id="Path" fill-opacity="0.6" fill="#FEFEFE" points="22.3448276 14.2344828 22.3448276 13.2413793 21.5172414 13.2413793 21.5172414 14.2344828 20.6896552 14.2344828 20.6896552 14.8965517 23.1724138 14.8965517 23.1724138 14.2344828"></polygon>
                <polygon id="Path" fill-opacity="0.6" fill="#FEFEFE" points="21.5172414 13.2413793 22.3448276 13.2413793 22.3448276 14.0689655 21.5172414 14.0689655"></polygon>
                <path d="M23.5862069,10.7586207 L20.6896552,13.2413793 L23.5862069,13.2413793 C23.8147385,13.2413793 24,13.0825838 24,12.8866995 L24,11.1133005 C24,10.9174162 23.8147385,10.7586207 23.5862069,10.7586207 Z" id="Path" fill="#CECECE"></path>
                <rect id="Rectangle" fill="#FEFEFE" x="0" y="9.93103448" width="4.13793103" height="2.48275862" rx="1.24137931"></rect>
                <polygon id="Path" fill-opacity="0.6" fill="#FEFEFE" points="2.48275862 14.2344828 2.48275862 13.2413793 1.65517241 13.2413793 1.65517241 14.2344828 0.827586207 14.2344828 0.827586207 14.8965517 3.31034483 14.8965517 3.31034483 14.2344828"></polygon>
                <polygon id="Path" fill-opacity="0.6" fill="#FEFEFE" points="1.65517241 12.4137931 2.48275862 12.4137931 2.48275862 13.2413793 1.65517241 13.2413793"></polygon>
                <path d="M3.72413793,9.93103448 L0.827586207,12.4137931 L3.72413793,12.4137931 C3.95266955,12.4137931 4.13793103,12.2549975 4.13793103,12.0591133 L4.13793103,10.2857143 C4.13793103,10.08983 3.95266955,9.93103448 3.72413793,9.93103448 Z" id="Path" fill="#CECECE"></path>
                <rect id="Rectangle" fill="#FEFEFE" x="2.48275862" y="19.862069" width="4.13793103" height="2.48275862" rx="1.24137931"></rect>
                <polygon id="Path" fill-opacity="0.6" fill="#FEFEFE" points="4.96551724 23.337931 4.96551724 22.3448276 4.13793103 22.3448276 4.13793103 23.337931 3.31034483 23.337931 3.31034483 24 5.79310345 24 5.79310345 23.337931"></polygon>
                <polygon id="Path" fill-opacity="0.6" fill="#FEFEFE" points="4.13793103 22.3448276 4.96551724 22.3448276 4.96551724 23.1724138 4.13793103 23.1724138"></polygon>
                <path d="M6.20689655,19.862069 L3.31034483,22.3448276 L6.20689655,22.3448276 C6.43542817,22.3448276 6.62068966,22.186032 6.62068966,21.9901478 L6.62068966,20.2167488 C6.62068966,20.0208645 6.43542817,19.862069 6.20689655,19.862069 Z" id="Path" fill="#CECECE"></path>
                <rect id="Rectangle" fill="#FEFEFE" x="17.3793103" y="19.862069" width="4.13793103" height="2.48275862" rx="1.24137931"></rect>
                <polygon id="Path" fill-opacity="0.6" fill="#FEFEFE" points="19.862069 23.337931 19.862069 22.3448276 19.0344828 22.3448276 19.0344828 23.337931 18.2068966 23.337931 18.2068966 24 20.6896552 24 20.6896552 23.337931"></polygon>
                <polygon id="Path" fill-opacity="0.6" fill="#FEFEFE" points="19.0344828 22.3448276 19.862069 22.3448276 19.862069 23.1724138 19.0344828 23.1724138"></polygon>
                <path d="M21.1034483,19.862069 L18.2068966,22.3448276 L21.1034483,22.3448276 C21.3319799,22.3448276 21.5172414,22.186032 21.5172414,21.9901478 L21.5172414,20.2167488 C21.5172414,20.0208645 21.3319799,19.862069 21.1034483,19.862069 Z" id="Path" fill="#CECECE"></path>
                <path d="M15.8793103,7.09986207 L17.6734914,5.65888844 L17.1885776,5.05090467 L15.8793103,6.10242596 L15.8793103,5.35496957 C15.8793103,5.13988099 15.7056277,4.96551724 15.4913793,4.96551724 L8.50862069,4.96551724 C8.2943723,4.96551724 8.12068966,5.13988099 8.12068966,5.35496957 L8.12068966,6.10257201 L6.81142241,5.05105071 L6.32650862,5.65903448 L8.12068966,7.10000811 L8.12068966,11.1967546 L5.79310345,11.1967546 L5.79310345,11.9756592 L8.12068966,11.9756592 L8.12068966,16.0725517 L6.32650862,17.5135254 L6.81142241,18.1215091 L8.12068966,17.0699878 L8.12068966,17.8174442 C8.12068966,18.0325328 8.2943723,18.2068966 8.50862069,18.2068966 L15.4913793,18.2068966 C15.7056277,18.2068966 15.8793103,18.0325328 15.8793103,17.8174442 L15.8793103,17.0698418 L17.1885776,18.1213631 L17.6734914,17.5133793 L15.8793103,16.0724057 L15.8793103,11.9756592 L18.2068966,11.9756592 L18.2068966,11.1967546 L15.8793103,11.1967546 L15.8793103,7.09986207 Z M15.1034483,14.3123732 L8.89655172,14.3123732 L8.89655172,11.9756592 L15.1034483,11.9756592 L15.1034483,14.3123732 Z M8.89655172,11.1967546 L8.89655172,8.86004057 L15.1034483,8.86004057 L15.1034483,11.1967546 L8.89655172,11.1967546 Z M15.1034483,5.74442191 L15.1034483,8.0811359 L8.89655172,8.0811359 L8.89655172,5.74442191 L15.1034483,5.74442191 Z M8.89655172,17.4279919 L8.89655172,15.0912779 L15.1034483,15.0912779 L15.1034483,17.4279919 L8.89655172,17.4279919 Z" id="Shape" fill-opacity="0.6" fill="#FEFEFE"></path>
                <polygon id="Path" fill-opacity="0.6" fill="#FEFEFE" points="9.93103448 6.62068966 10.7586207 6.62068966 10.7586207 7.44827586 9.93103448 7.44827586"></polygon>
                <polygon id="Path" fill-opacity="0.6" fill="#FEFEFE" points="10.7586207 6.62068966 14.0689655 6.62068966 14.0689655 7.44827586 10.7586207 7.44827586"></polygon>
                <polygon id="Path" fill-opacity="0.6" fill="#FEFEFE" points="9.93103448 9.93103448 10.7586207 9.93103448 10.7586207 10.7586207 9.93103448 10.7586207"></polygon>
                <polygon id="Path" fill-opacity="0.6" fill="#FEFEFE" points="10.7586207 9.93103448 14.0689655 9.93103448 14.0689655 10.7586207 10.7586207 10.7586207"></polygon>
                <polygon id="Path" fill-opacity="0.6" fill="#FEFEFE" points="9.93103448 13.2413793 10.7586207 13.2413793 10.7586207 14.0689655 9.93103448 14.0689655"></polygon>
                <polygon id="Path" fill-opacity="0.6" fill="#FEFEFE" points="10.7586207 13.2413793 14.0689655 13.2413793 14.0689655 14.0689655 10.7586207 14.0689655"></polygon>
                <polygon id="Path" fill-opacity="0.6" fill="#FEFEFE" points="9.93103448 16.5517241 10.7586207 16.5517241 10.7586207 17.3793103 9.93103448 17.3793103"></polygon>
                <polygon id="Path" fill-opacity="0.6" fill="#FEFEFE" points="10.7586207 16.5517241 14.0689655 16.5517241 14.0689655 17.3793103 10.7586207 17.3793103"></polygon>
                <path d="M20.6896552,3.43766578 C21.1465293,3.43724468 21.5167852,3.09547004 21.5172414,2.67374005 L21.5172414,0.763925729 C21.5167852,0.342195747 21.1465293,0.00042109865 20.6896552,0 L17.3793103,0 C16.9224362,0.00042109865 16.5521803,0.342195747 16.5517241,0.763925729 L16.5517241,2.67374005 C16.5521803,3.09547004 16.9224362,3.43724468 17.3793103,3.43766578 L18.6206897,3.43766578 L18.6206897,4.20159151 L17.7931034,4.20159151 L17.7931034,4.96551724 L20.2758621,4.96551724 L20.2758621,4.20159151 L19.4482759,4.20159151 L19.4482759,3.43766578 L20.6896552,3.43766578 Z M17.3793103,0.763925729 L20.6896552,0.763925729 L20.6902759,2.67374005 L17.3793103,2.67374005 L17.3793103,0.763925729 Z" id="Shape" fill-opacity="0.6" fill="#FEFEFE"></path>
                <path d="M3.72413793,4.20159151 L3.72413793,4.96551724 L6.20689655,4.96551724 L6.20689655,4.20159151 L5.37931034,4.20159151 L5.37931034,3.43766578 L6.62068966,3.43766578 C7.0775638,3.43724468 7.44781967,3.09547004 7.44827586,2.67374005 L7.44827586,0.763925729 C7.44781967,0.342195747 7.0775638,0.00042109865 6.62068966,0 L3.31034483,0 C2.85347068,0.00042109865 2.48321481,0.342195747 2.48275862,0.763925729 L2.48275862,2.67374005 C2.48321481,3.09547004 2.85347068,3.43724468 3.31034483,3.43766578 L4.55172414,3.43766578 L4.55172414,4.20159151 L3.72413793,4.20159151 Z M3.31034483,0.763925729 L6.62068966,0.763925729 L6.62131034,2.67374005 L3.31034483,2.67374005 L3.31034483,0.763925729 Z" id="Shape" fill-opacity="0.6" fill="#FEFEFE"></path>
                <path d="M0.827586207,13.3687003 L2.06896552,13.3687003 L2.06896552,14.132626 L1.24137931,14.132626 L1.24137931,14.8965517 L3.72413793,14.8965517 L3.72413793,14.132626 L2.89655172,14.132626 L2.89655172,13.3687003 L4.13793103,13.3687003 C4.59480518,13.3682792 4.96506105,13.0265045 4.96551724,12.6047745 L4.96551724,10.6949602 C4.96506105,10.2732302 4.59480518,9.93145558 4.13793103,9.93103448 L0.827586207,9.93103448 C0.370712059,9.93145558 0.000456190204,10.2732302 0,10.6949602 L0,12.6047745 C0.000456190204,13.0265045 0.370712059,13.3682792 0.827586207,13.3687003 Z M0.827586207,10.6949602 L4.13793103,10.6949602 L4.13855172,12.6047745 L0.827586207,12.6047745 L0.827586207,10.6949602 Z" id="Shape" fill-opacity="0.6" fill="#FEFEFE"></path>
                <path d="M23.1724138,9.93103448 L19.862069,9.93103448 C19.4051948,9.93145558 19.0349389,10.2732302 19.0344828,10.6949602 L19.0344828,12.6047745 C19.0349389,13.0265045 19.4051948,13.3682792 19.862069,13.3687003 L21.1034483,13.3687003 L21.1034483,14.132626 L20.2758621,14.132626 L20.2758621,14.8965517 L22.7586207,14.8965517 L22.7586207,14.132626 L21.9310345,14.132626 L21.9310345,13.3687003 L23.1724138,13.3687003 C23.6292879,13.3682792 23.9995438,13.0265045 24,12.6047745 L24,10.6949602 C23.9995438,10.2732302 23.6292879,9.93145558 23.1724138,9.93103448 L23.1724138,9.93103448 Z M19.862069,12.6047745 L19.862069,10.6949602 L23.1724138,10.6949602 L23.1730345,12.6047745 L19.862069,12.6047745 Z" id="Shape" fill-opacity="0.6" fill="#FEFEFE"></path>
                <path d="M20.6896552,22.4721485 C21.1465293,22.4717274 21.5167852,22.1299528 21.5172414,21.7082228 L21.5172414,19.7984085 C21.5167852,19.3766785 21.1465293,19.0349039 20.6896552,19.0344828 L17.3793103,19.0344828 C16.9224362,19.0349039 16.5521803,19.3766785 16.5517241,19.7984085 L16.5517241,21.7082228 C16.5521803,22.1299528 16.9224362,22.4717274 17.3793103,22.4721485 L18.6206897,22.4721485 L18.6206897,23.2360743 L17.7931034,23.2360743 L17.7931034,24 L20.2758621,24 L20.2758621,23.2360743 L19.4482759,23.2360743 L19.4482759,22.4721485 L20.6896552,22.4721485 Z M17.3793103,19.7984085 L20.6896552,19.7984085 L20.6902759,21.7082228 L17.3793103,21.7082228 L17.3793103,19.7984085 Z" id="Shape" fill-opacity="0.6" fill="#FEFEFE"></path>
                <path d="M6.62068966,22.4721485 C7.0775638,22.4717274 7.44781967,22.1299528 7.44827586,21.7082228 L7.44827586,19.7984085 C7.44781967,19.3766785 7.0775638,19.0349039 6.62068966,19.0344828 L3.31034483,19.0344828 C2.85347068,19.0349039 2.48321481,19.3766785 2.48275862,19.7984085 L2.48275862,21.7082228 C2.48321481,22.1299528 2.85347068,22.4717274 3.31034483,22.4721485 L4.55172414,22.4721485 L4.55172414,23.2360743 L3.72413793,23.2360743 L3.72413793,24 L6.20689655,24 L6.20689655,23.2360743 L5.37931034,23.2360743 L5.37931034,22.4721485 L6.62068966,22.4721485 Z M3.31034483,19.7984085 L6.62068966,19.7984085 L6.62131034,21.7082228 L3.31034483,21.7082228 L3.31034483,19.7984085 Z" id="Shape" fill-opacity="0.6" fill="#FEFEFE"></path>
            </g>
        </g>
    </g>
</svg>