<?xml version="1.0" encoding="UTF-8"?>
<svg width="24px" height="24px" viewBox="0 0 24 24" version="1.1" xmlns="http://www.w3.org/2000/svg" xmlns:xlink="http://www.w3.org/1999/xlink">
    <!-- Generator: Sketch 62 (91390) - https://sketch.com -->
    <title>Artboard</title>
    <desc>Created with Sketch.</desc>
    <g id="Artboard" stroke="none" stroke-width="1" fill="none" fill-rule="evenodd">
        <g id="cloud" transform="translate(0.000000, 0.000000)" fill="#FEFEFE" fill-rule="nonzero">
            <path d="M14.8571429,11.4285714 C14.8571429,9.85306122 13.575102,8.57142857 12,8.57142857 C10.424898,8.57142857 9.14285714,9.85306122 9.14285714,11.4285714 C9.14285714,13.0040816 10.424898,14.2857143 12,14.2857143 C13.575102,14.2857143 14.8571429,13.0040816 14.8571429,11.4285714 Z M10.7755102,12.244898 L11.5918367,12.244898 C11.5918367,12.4697959 11.7746939,12.6530612 12,12.6530612 C12.2253061,12.6530612 12.4081633,12.4697959 12.4081633,12.244898 C12.4081633,12.02 12.2253061,11.8367347 12,11.8367347 C11.324898,11.8367347 10.7755102,11.2873469 10.7755102,10.6122449 C10.7755102,10.0808163 11.1179592,9.63183673 11.5918367,9.46285714 L11.5918367,8.97959184 L12.4081633,8.97959184 L12.4081633,9.46285714 C12.8820408,9.63183673 13.2244898,10.0808163 13.2244898,10.6122449 L12.4081633,10.6122449 C12.4081633,10.3873469 12.2253061,10.2040816 12,10.2040816 C11.7746939,10.2040816 11.5918367,10.3873469 11.5918367,10.6122449 C11.5918367,10.8371429 11.7746939,11.0204082 12,11.0204082 C12.675102,11.0204082 13.2244898,11.5697959 13.2244898,12.244898 C13.2244898,12.7763265 12.8820408,13.2253061 12.4081633,13.3942857 L12.4081633,13.877551 L11.5918367,13.877551 L11.5918367,13.3942857 C11.1179592,13.2253061 10.7755102,12.7763265 10.7755102,12.244898 Z" id="Shape"></path>
            <path d="M14.5492315,4.23155014 L14.6947513,4.23155014 L14.6947513,4.01425707 C14.6947513,3.73891735 14.7538028,3.47656175 14.8571429,3.23406422 C14.1168903,3.01753493 13.3538608,2.88960316 12.5714286,2.85714286 L12.5714286,6.28571429 L13.1741755,6.28571429 C13.0623995,6.09133437 12.9932249,5.87404131 12.9932249,5.64070903 C12.9932249,4.86357127 13.6912978,4.23155014 14.5492315,4.23155014 Z" id="Path"></path>
            <path d="M11.4285714,14.8571429 L11.4285714,14.4537143 C9.75806105,14.2773333 8.42927332,13.0148571 8.24357193,11.4285714 L7.42857143,11.4285714 C7.46226239,12.6567619 7.6523757,13.823619 7.97003338,14.8571429 L11.4285714,14.8571429 Z" id="Path"></path>
            <path d="M12.5714286,14.4537143 L12.5714286,14.8571429 L16.0378547,14.8571429 C16.359362,13.8026667 16.5397589,12.639619 16.5714286,11.4285714 L15.7544312,11.4285714 C15.5692237,13.0148571 14.2411019,14.2773333 12.5714286,14.4537143 L12.5714286,14.4537143 Z" id="Path"></path>
            <path d="M23.4285714,4.71064935 C23.4285714,3.79303896 22.7,3.01797403 21.8374524,3.01797403 L21.7269524,3.01797403 C21.5553333,3.01797403 21.4027381,2.90701299 21.3456667,2.74119481 C21.1331667,2.12696104 20.5656905,1.71428571 19.9322381,1.71428571 C19.349381,1.71428571 18.8142857,2.06711688 18.5698095,2.61277922 C18.5143571,2.73662338 18.4030476,2.82472727 18.2723095,2.848 C18.142381,2.8721039 18.008,2.82805195 17.9140952,2.73080519 C17.6303571,2.43574026 17.2515,2.27283117 16.8475476,2.27283117 C16.0202143,2.27283117 15.3470952,2.96394805 15.3470952,3.8134026 L15.3470952,4.46545455 C15.3470952,4.69485714 15.1661667,4.88103896 14.9423333,4.88103896 L14.3979286,4.88103896 C14.0206905,4.88103896 13.7142857,5.19605195 13.7142857,5.58337662 C13.7142857,5.9707013 14.0210952,6.28571429 14.3979286,6.28571429 L14.5238095,6.28571429 L21.8949286,6.28571429 C22.7692143,6.28571429 23.4285714,5.60872727 23.4285714,4.71064935 L23.4285714,4.71064935 Z" id="Path"></path>
            <path d="M20.5714286,11.4285714 L17.6080812,11.4285714 C17.5802789,12.6312381 17.4231037,13.791619 17.1428571,14.8571429 L19.6372735,14.8571429 C20.1907233,13.808381 20.5150827,12.6384762 20.5714286,11.4285714 Z" id="Path"></path>
            <path d="M17.3693451,10.8571429 L20.5714286,10.8571429 C20.5109287,9.6567619 20.1659595,8.48380952 19.5637659,7.42857143 L14.574734,7.42857143 L14.4501284,7.42857143 L12.5714286,7.42857143 L12.5714286,7.832 C14.240182,8.00838095 15.5675722,9.27085714 15.7530783,10.8571429 L16.568023,10.8571429 C16.5447846,9.96647619 16.4442187,9.0967619 16.2587126,8.26971429 L17.0428063,8.11085714 C17.2395309,8.98971429 17.3457061,9.9127619 17.3693451,10.8571429 L17.3693451,10.8571429 Z" id="Path"></path>
            <path d="M15.2175759,18.0858682 C15.6311454,17.5312259 16.2799884,17.1919247 16.9753433,17.1919247 C17.2377487,17.1919247 17.4904642,17.2447667 17.7280631,17.3337638 C18.1528731,16.928112 18.5303958,16.480743 18.8571429,16 L12.5714286,16 L12.5714286,18.2857143 C12.9601917,17.9384669 13.4667853,17.7263043 14.0214413,17.7263043 C14.4528405,17.7263043 14.864472,17.8514564 15.2175759,18.0858682 L15.2175759,18.0858682 Z" id="Path"></path>
            <path d="M4.35130532,7.42857143 C3.79610418,8.47352381 3.48394289,9.63809524 3.42857143,10.8571429 L6.39075904,10.8571429 C6.41863058,9.65447619 6.5761977,8.49409524 6.85714286,7.42857143 L4.35130532,7.42857143 Z" id="Path"></path>
            <path d="M18.9803095,19.0183896 L18.8698095,19.0183896 C18.6981905,19.0183896 18.5455952,18.9074286 18.4885238,18.7416104 C18.2760238,18.126961 17.7085476,17.7142857 17.0750952,17.7142857 C16.4922381,17.7142857 15.9571429,18.0671169 15.7126667,18.6127792 C15.6572143,18.7366234 15.5459048,18.8247273 15.4151667,18.848 C15.2844286,18.8716883 15.1504524,18.8276364 15.0569524,18.7308052 C14.7732143,18.4357403 14.3943571,18.2728312 13.9904048,18.2728312 C13.1630714,18.2728312 12.4899524,18.9639481 12.4899524,19.8134026 L12.4899524,20.4654545 C12.4899524,20.6948571 12.3090238,20.881039 12.0851905,20.881039 L11.5407857,20.881039 C11.1635476,20.881039 10.8571429,21.1960519 10.8571429,21.5833766 C10.8571429,21.9707013 11.1639524,22.2857143 11.5407857,22.2857143 L19.037381,22.2857143 C19.9120714,22.2857143 20.5714286,21.6087273 20.5714286,20.7106494 C20.5714286,19.7934545 19.8428571,19.0183896 18.9803095,19.0183896 L18.9803095,19.0183896 Z" id="Path"></path>
            <path d="M11.4285714,7.832 L11.4285714,7.42857143 L7.96214529,7.42857143 C7.64063797,8.48304762 7.4602411,9.64609524 7.42857143,10.8571429 L8.24556882,10.8571429 C8.43077628,9.27085714 9.75889815,8.00838095 11.4285714,7.832 L11.4285714,7.832 Z" id="Path"></path>
            <path d="M11.4285714,2.85714286 C11.2992803,2.86364433 11.1696022,2.87244044 11.0395369,2.88467851 C11.039924,2.8980639 11.0414724,2.91106685 11.0414724,2.9240698 C11.0414724,4.18650307 10.07837,5.13839535 8.80055601,5.13839535 L6.13847589,5.13839535 C5.7684092,5.49559398 5.43279433,5.87726874 5.14285714,6.28571429 L11.4285714,6.28571429 L11.4285714,2.85714286 Z" id="Path"></path>
            <path d="M10.2857143,2.99636364 C10.2857143,2.07875325 9.55714286,1.30368831 8.69459524,1.30368831 L8.58409524,1.30368831 C8.41247619,1.30368831 8.25988095,1.19272727 8.20280952,1.02690909 C7.99030952,0.412675325 7.42283333,0 6.78938095,0 C6.20652381,0 5.67142857,0.352831169 5.42695238,0.898493506 C5.3715,1.02233766 5.26019048,1.11044156 5.12945238,1.13371429 C4.99871429,1.15781818 4.8647381,1.11335065 4.7712381,1.01651948 C4.4875,0.721454545 4.10864286,0.558545455 3.70469048,0.558545455 C2.87735714,0.558545455 2.2042381,1.24966234 2.2042381,2.09911688 L2.2042381,2.75116883 C2.2042381,2.98057143 2.02330952,3.16675325 1.79947619,3.16675325 L1.25507143,3.16675325 C0.878238095,3.16716883 0.571428571,3.48218182 0.571428571,3.86950649 C0.571428571,4.25683117 0.878238095,4.57142857 1.25507143,4.57142857 L8.75166667,4.57142857 C9.62635714,4.57142857 10.2857143,3.89444156 10.2857143,2.99636364 L10.2857143,2.99636364 Z" id="Path"></path>
            <path d="M3.42857143,11.4285714 C3.48597521,12.664 3.80877831,13.8297143 4.35560526,14.8571429 L6.85714286,14.8571429 C6.58615227,13.8175238 6.42437797,12.6594286 6.39679433,11.4285714 L3.42857143,11.4285714 Z" id="Path"></path>
            <path d="M5.14285714,16 C6.11087821,17.3251666 7.50892185,18.3393983 9.14285714,18.8571429 C8.43480598,18.1664565 7.84338385,17.1850117 7.42314307,16 L5.14285714,16 Z" id="Path"></path>
            <path d="M11.4285714,16 L8.57142857,16 C9.22814392,17.8864848 10.2631532,19.2016693 11.4285714,19.4285714 L11.4285714,16 Z" id="Path"></path>
            <path d="M4,20.035524 C4.20738636,20.2198427 4.42451299,20.4001015 4.64569805,20.5714286 L5.14285714,19.929155 C4.93587662,19.7687896 4.73295455,19.6003045 4.53936688,19.4285714 L4,20.035524 Z" id="Path"></path>
            <path d="M2.40715056,17.1428571 L1.71428571,17.5856115 C1.865516,17.8219938 2.02784199,18.0571429 2.19674321,18.2857143 L2.85714286,17.7960946 C2.69933734,17.5827338 2.54810705,17.3632066 2.40715056,17.1428571 L2.40715056,17.1428571 Z" id="Path"></path>
            <path d="M0.965980578,12.5714286 L0,12.7224088 C0.0522811946,13.056129 0.115800403,13.3893605 0.189580407,13.7142857 L1.14285714,13.4983204 C1.07445184,13.194894 1.01484151,12.8831613 0.965980578,12.5714286 L0.965980578,12.5714286 Z" id="Path"></path>
            <path d="M2.85714286,18.8114124 C3.0368272,19.0222582 3.22703359,19.2298665 3.42209632,19.4285714 L4,18.8619992 C3.81788749,18.6762444 3.64022663,18.4823958 3.47268312,18.2857143 L2.85714286,18.8114124 Z" id="Path"></path>
            <path d="M6.85714286,21.9229644 C7.12304444,22.0521155 7.39890651,22.1743323 7.6769339,22.2857143 L8,21.4817704 C7.74059438,21.3773227 7.48378715,21.2637738 7.23520814,21.1428571 L6.85714286,21.9229644 Z" id="Path"></path>
            <path d="M8,22.5947947 C8.30213997,22.6924234 8.61168305,22.7803355 8.91983806,22.8571429 L9.14285714,21.9590515 C8.85506073,21.8877964 8.56633892,21.8054367 8.28455755,21.7142857 L8,22.5947947 Z" id="Path"></path>
            <path d="M5.14285714,21.2617923 C5.38081395,21.4207877 5.62666113,21.573141 5.87292359,21.7142857 L6.28571429,20.9940325 C6.05606312,20.8624358 5.82724252,20.7204608 5.60423588,20.5714286 L5.14285714,21.2617923 Z" id="Path"></path>
            <path d="M0,10.8032495 L1.05616493,10.8571429 C1.07308048,10.5163463 1.1026827,10.1744931 1.14285714,9.84056535 L0.0930355491,9.71428571 C0.0502180521,10.0714616 0.0185013876,10.4381481 0,10.8032495 Z" id="Path"></path>
            <path d="M1.14285714,8.24308996 L0.218824654,8 C0.135690397,8.31520506 0.0621118012,8.63900663 0,8.96328577 L0.938843765,9.14285714 C0.996655518,8.83959167 1.06545628,8.53728136 1.14285714,8.24308996 L1.14285714,8.24308996 Z" id="Path"></path>
            <path d="M1.91696828,16 L1.14285714,16.3552526 C1.26378539,16.6189234 1.39706195,16.883872 1.53885459,17.1428571 L2.28571429,16.7335073 C2.15328933,16.4924125 2.02895465,16.2457803 1.91696828,16 Z" id="Path"></path>
            <path d="M1.08999251,11.4285714 L0,11.4460113 C0.00599495878,11.8204237 0.0256148239,12.1991961 0.0572246066,12.5714286 L1.14285714,12.4782342 C1.11342735,12.1310716 1.09544247,11.777914 1.08999251,11.4285714 L1.08999251,11.4285714 Z" id="Path"></path>
            <path d="M1.71428571,6.6283941 L0.895932617,6.28571429 C0.778011748,6.56721711 0.66895711,6.85581292 0.571428571,7.14352211 L1.41150393,7.42857143 C1.5023828,7.15992464 1.60390114,6.89083453 1.71428571,6.6283941 Z" id="Path"></path>
            <path d="M1.43556207,14.2857143 L0.571428571,14.5454955 C0.661179389,14.8436126 0.762205435,15.1408276 0.871349645,15.4285714 L1.71428571,15.108806 C1.61280866,14.8409065 1.51899876,14.5639869 1.43556207,14.2857143 L1.43556207,14.2857143 Z" id="Path"></path>
            <path d="M22.8571429,8.258947 C22.9397192,8.54808089 23.0138021,8.84523318 23.0775038,9.14285714 L24,8.94617063 C23.9320514,8.62779317 23.8527781,8.30894405 23.7640675,8 L22.8571429,8.258947 Z" id="Path"></path>
            <path d="M24,10.2119145 C23.9745223,9.85330995 23.9365657,9.49366595 23.8866502,9.14285714 L22.8571429,9.28837783 C22.9034187,9.61527967 22.9387755,9.9510167 22.9632133,10.2857143 L24,10.2119145 Z" id="Path"></path>
            <path d="M23.4449455,11.4573643 C23.4449455,11.6276301 23.439395,11.7970653 23.4285714,11.9645626 L23.9825158,12 C23.9941719,11.820598 24,11.6395349 24,11.4573643 L24,11.4285714 L23.4449455,11.4285714 L23.4449455,11.4573643 Z" id="Path"></path>
            <path d="M21.1428571,17.8070501 L21.8149562,18.2857143 C21.9775142,18.0577201 22.1355338,17.8181818 22.2857143,17.5736961 L21.5822589,17.1428571 C21.442393,17.3712637 21.2942754,17.5947227 21.1428571,17.8070501 Z" id="Path"></path>
            <path d="M21.7142857,16.1749009 L22.4746181,16.5714286 C22.6097025,16.312078 22.7383543,16.0424392 22.8571429,15.7706569 L22.0706513,15.4285714 C21.9604396,15.6819205 21.8399357,15.9331261 21.7142857,16.1749009 L21.7142857,16.1749009 Z" id="Path"></path>
            <path d="M22.2857143,15.123506 L23.1443375,15.4285714 C23.2486477,15.1353443 23.3443034,14.8330108 23.4285714,14.530222 L22.5512726,14.2857143 C22.4724705,14.5680137 22.3827364,14.8498577 22.2857143,15.123506 L22.2857143,15.123506 Z" id="Path"></path>
            <path d="M22.8571429,13.5146449 L23.8284475,13.7142857 C23.8968702,13.3833674 23.9543849,13.0430367 24,12.702706 L23.0172916,12.5714286 C22.9741556,12.8889715 22.9206074,13.2060189 22.8571429,13.5146449 Z" id="Path"></path>
        </g>
    </g>
</svg>