<?xml version="1.0" encoding="UTF-8"?>
<svg width="24px" height="24px" viewBox="0 0 24 24" version="1.1" xmlns="http://www.w3.org/2000/svg" xmlns:xlink="http://www.w3.org/1999/xlink">
    <!-- Generator: Sketch 62 (91390) - https://sketch.com -->
    <title>Combined Shape</title>
    <desc>Created with Sketch.</desc>
    <g id="Page-1" stroke="none" stroke-width="1" fill="none" fill-rule="evenodd">
        <g id="Plan-Project-Icons" transform="translate(-242.000000, -82.000000)" fill="#FEFEFE" fill-rule="nonzero">
            <path d="M254,82 C260.627417,82 266,87.372583 266,94 C265.992645,100.624368 260.624368,105.992645 254,106 C247.372583,106 242,100.627417 242,94 C242,87.372583 247.372583,82 254,82 Z M254.058537,83.2292683 C248.077697,83.2292683 243.229268,88.0776969 243.229268,94.0585366 C243.229268,100.039376 248.077697,104.887805 254.058537,104.887805 C260.039376,104.887805 264.887805,100.039376 264.887805,94.0585366 C264.881352,88.0803716 260.036702,83.2357207 254.058537,83.2292683 Z M254.117073,85.4536585 C258.899605,85.4588205 262.775326,89.3345412 262.780488,94.1170732 C262.780488,98.901745 258.901745,102.780488 254.117073,102.780488 C249.332401,102.780488 245.453659,98.901745 245.453659,94.1170732 C245.453659,89.3324014 249.332401,85.4536585 254.117073,85.4536585 Z M247.788925,92 L247.271084,92 C247.19917,91.9999406 247.130182,92.0275487 247.079331,92.0767386 C247.028479,92.1259284 246.999939,92.1926612 247,92.2622261 L247,96.7377739 C246.999939,96.8073388 247.028479,96.8740716 247.079331,96.9232614 C247.130182,96.9724513 247.19917,97.0000594 247.271084,97 L247.661956,97 C247.73387,97.0000594 247.802858,96.9724513 247.853709,96.9232614 C247.904561,96.8740716 247.933101,96.8073388 247.93304,96.7377739 L247.93304,94.7726478 L247.923077,94.151598 L249.096386,96.8397507 C249.13872,96.9369186 249.237147,97.0000685 249.346154,97 L249.647359,97 C249.756347,97 249.854743,96.9368787 249.897127,96.8397507 L251.077155,94.1356852 L251.066728,96.7377739 C251.066667,96.8073388 251.095208,96.8740716 251.146059,96.9232614 C251.196911,96.9724513 251.265898,97.0000594 251.337813,97 L251.728684,97 C251.80062,97.0000594 251.869631,96.9724583 251.920519,96.923275 C251.971408,96.8740916 252,96.8073594 252,96.7377739 L252,92.2622261 C252,92.1175775 251.878914,92.0002474 251.729379,92 L251.208295,92 C251.09911,92 251.000569,92.0633187 250.958295,92.1606976 L249.496061,95.5328791 L248.039157,92.1611458 C247.996994,92.063516 247.898306,92 247.788925,92 Z M253.639373,92 L253.249166,92 C253.167677,91.9998531 253.091287,92.041831 253.044686,92.1123664 C252.998086,92.1829017 252.987186,92.2730481 253.015509,92.3536692 L254.594605,96.8292162 C254.630957,96.9321164 254.724184,97.0002569 254.828262,97 L255.17195,97 C255.27601,97.0001917 255.369204,96.9320745 255.405607,96.8292162 L256.984491,92.3536692 C257.012814,92.2730481 257.001914,92.1829017 256.955314,92.1123664 C256.908713,92.041831 256.832323,91.9998531 256.750834,92 L256.357228,92 C256.252402,92.0000574 256.158902,92.0695643 256.123571,92.1736971 L254.998832,95.4815541 L253.87303,92.1736971 C253.8377,92.0695643 253.744199,92.0000574 253.639373,92 Z M259.507834,92.0022183 L258.221512,92.0022183 C258.162781,92.0021589 258.106438,92.0297477 258.064891,92.0789092 C258.023344,92.1280708 258,92.1947733 258,92.264328 L258,96.7378901 C258,96.8074447 258.023344,96.8741473 258.064891,96.9233088 C258.106438,96.9724704 258.162781,97.0000592 258.221512,97 L258.540634,97 C258.599348,97.0000592 258.655671,96.9724633 258.697188,96.9232953 C258.738705,96.8741273 258.762007,96.8074241 258.761957,96.7378901 L258.761957,95.1780016 L259.4997,95.1780016 C259.895333,95.2063973 260.28593,95.0611637 260.596857,94.7700514 C261.139435,94.1175515 261.133596,93.068034 260.583805,92.4240581 L260.584372,92.4240581 C260.282205,92.1300127 259.898461,91.9796431 259.507834,92.0022183 Z M260.064169,93.0546894 C260.185828,93.2005728 260.249258,93.4009198 260.238579,93.6055677 C260.250849,93.8049859 260.188207,94.0006576 260.067384,94.1403162 C259.907352,94.2842413 259.70813,94.3532353 259.507834,94.3340981 L258.761578,94.3340981 L258.761578,92.8461218 L259.525994,92.8461218 C259.721398,92.8307212 259.914255,92.905462 260.064169,93.0546894 Z" id="Combined-Shape"></path>
        </g>
    </g>
</svg>