<?xml version="1.0" encoding="UTF-8"?>
<svg width="24px" height="21px" viewBox="0 0 24 21" version="1.1" xmlns="http://www.w3.org/2000/svg" xmlns:xlink="http://www.w3.org/1999/xlink">
    <!-- Generator: Sketch 62 (91390) - https://sketch.com -->
    <title>Group 3</title>
    <desc>Created with Sketch.</desc>
    <g id="Page-1" stroke="none" stroke-width="1" fill="none" fill-rule="evenodd">
        <g id="Plan-Project-Icons" transform="translate(-240.000000, -44.000000)" fill="#FEFEFE" fill-rule="nonzero">
            <g id="Group-3" transform="translate(240.000000, 44.000000)">
                <path d="M24,5.94507573 L24,18.975 C23.9988636,20.0789773 23.1039773,20.9736742 22,20.975 L22,20.975 L2,20.975 C0.896022739,20.9736742 0.00113636364,20.0789773 0,18.975 L0,18.975 L0,5.94507573 L24,5.94507573 Z M13.0000434,15.0445076 C12.4485916,15.0445076 12,15.4931187 12,16.0445076 C12,16.5959833 12.4485916,17.0445076 13.0000434,17.0445076 C13.5514084,17.0445076 14,16.5959833 14,16.0445076 C14,15.4931187 13.5514084,15.0445076 13.0000434,15.0445076 Z M17,15.0445076 C16.4486111,15.0445076 16,15.4931187 16,16.0445076 C16,16.5959833 16.4486111,17.0445076 17,17.0445076 C17.5514757,17.0445076 18,16.5959833 18,16.0445076 C18,15.4931187 17.5514757,15.0445076 17,15.0445076 Z M11.0703067,8.04450759 L9.29296793,8.04450759 L9.22576361,8.05220574 C9.09629827,8.08241641 9,8.19802156 9,8.33617109 C9,8.49742152 9.13107264,8.62783459 9.29296793,8.62783459 L9.29296793,8.62783459 L10.8351694,8.62783459 L11.8931346,13.3673665 L11.792981,13.4185453 C11.535981,13.5712768 11.3632746,13.8504426 11.3632746,14.1695171 C11.3632746,14.6519771 11.7575606,15.0445076 12.2421784,15.0445076 L12.2421784,15.0445076 L17.5352086,15.0445076 L17.6024369,15.0368134 C17.7319343,15.0066174 17.8281765,14.8910587 17.8281765,14.7528441 C17.8281765,14.5916696 17.6971802,14.4611806 17.5352086,14.4611806 L17.5352086,14.4611806 L12.2421784,14.4611806 L12.1751422,14.4534705 C12.0459011,14.423216 11.9492105,14.3074713 11.9492105,14.1695171 C11.9492105,14.0085705 12.0808172,13.8778536 12.2421784,13.8778536 L12.2421784,13.8778536 L17.5352086,13.8778536 L17.5991099,13.870882 C17.7023978,13.8480079 17.7871686,13.7706824 17.8167325,13.6662456 L17.8167325,13.6662456 L18.9886805,9.58288066 L18.9996751,9.51606959 C19.0028473,9.44890723 18.9827486,9.38200121 18.9411495,9.32714342 C18.8856076,9.25422754 18.7992431,9.2111616 18.7070803,9.2111616 L18.7070803,9.2111616 L11.5658345,9.2111616 L11.3564082,8.27297733 L11.3344208,8.20966366 C11.2864723,8.11038716 11.1847473,8.04450759 11.0703067,8.04450759 L11.0703067,8.04450759 Z M9.5,14.0445076 L6.5,14.0445076 C6.22385763,14.0445076 6,14.2683652 6,14.5445076 C6,14.82065 6.22385763,15.0445076 6.5,15.0445076 L6.5,15.0445076 L9.5,15.0445076 C9.77614237,15.0445076 10,14.82065 10,14.5445076 C10,14.2683652 9.77614237,14.0445076 9.5,14.0445076 L9.5,14.0445076 Z M8.5,12.0445076 L5.5,12.0445076 C5.22385763,12.0445076 5,12.2683652 5,12.5445076 C5,12.82065 5.22385763,13.0445076 5.5,13.0445076 L5.5,13.0445076 L8.5,13.0445076 C8.77614237,13.0445076 9,12.82065 9,12.5445076 C9,12.2683652 8.77614237,12.0445076 8.5,12.0445076 L8.5,12.0445076 Z M7.5,10.0445076 L4.5,10.0445076 C4.22385763,10.0445076 4,10.2683652 4,10.5445076 C4,10.82065 4.22385763,11.0445076 4.5,11.0445076 L4.5,11.0445076 L7.5,11.0445076 C7.77614237,11.0445076 8,10.82065 8,10.5445076 C8,10.2683652 7.77614237,10.0445076 7.5,10.0445076 L7.5,10.0445076 Z" id="Combined-Shape"></path>
                <path d="M22,-3.73034936e-14 L2,-3.73034936e-14 C0.896022739,0.00113633939 0.00113636364,0.896022739 0,2 L0,5.09659088 L24,5.09659088 L24,2 C23.9988636,0.896022739 23.1039773,0.00113633939 22,-3.73034936e-14 Z M2.275,3.90189392 L2.27083336,3.90189392 C1.5285985,3.90075758 0.927840921,3.29829542 0.928408712,2.55606061 C0.928977261,1.81382575 1.53068179,1.21249998 2.27291665,1.21249998 C3.0153409,1.21249998 3.61723486,1.81382575 3.61761434,2.55606061 C3.6183712,3.29829542 3.01742424,3.90075758 2.275,3.90189392 Z M7.74261649,2.57632577 C7.73958332,3.31590909 7.13939394,3.91401513 6.4,3.9147727 L6.39583331,3.9147727 C5.66306817,3.90170453 5.07613634,3.30321968 5.07745987,2.57026516 C5.07840912,1.83749998 5.66704543,1.24090909 6.39981062,1.2301136 L6.40435607,1.2301136 C7.14545455,1.2331439 7.74412878,1.83560606 7.74261649,2.57670453 L7.74261649,2.57632577 Z M11.8676136,2.58939394 C11.8653409,3.32897726 11.2651515,3.92746211 10.5253788,3.92765149 L10.5212121,3.92765149 C9.78314395,3.92178032 9.18844698,3.32121212 9.18939281,2.58295452 C9.19053033,1.84488635 9.78750002,1.24621212 10.5255682,1.24261362 L10.5295455,1.24261362 C11.2708334,1.24564393 11.8695076,1.84810604 11.8678067,2.58939394 L11.8676136,2.58939394 Z" id="Shape"></path>
            </g>
        </g>
    </g>
</svg>