<?xml version="1.0" encoding="UTF-8"?>
<svg width="24px" height="24px" viewBox="0 0 24 24" version="1.1" xmlns="http://www.w3.org/2000/svg" xmlns:xlink="http://www.w3.org/1999/xlink">
    <!-- Generator: Sketch 62 (91390) - https://sketch.com -->
    <title>Combined Shape</title>
    <desc>Created with Sketch.</desc>
    <g id="Page-1" stroke="none" stroke-width="1" fill="none" fill-rule="evenodd">
        <g id="Plan-Project-Icons" transform="translate(-198.000000, -7.000000)" fill="#FEFEFE" fill-rule="nonzero">
            <path d="M204,30.2 L204,31 L203.2,31 L203.2,30.2 L204,30.2 Z M205.6,30.2 L205.6,31 L204.8,31 L204.8,30.2 L205.6,30.2 Z M207.2,30.2 L207.2,31 L206.4,31 L206.4,30.2 L207.2,30.2 Z M212,28.6 L212,31 L208,31 L208,30.2 L211.2,30.2 L211.2,28.6 L212,28.6 Z M200.4,27.8 C200.922432,27.8 201.366888,28.1338515 201.531665,28.5998501 L204,28.6 L204,29.4 L201.531311,29.4011483 C201.366253,29.8666253 200.922058,30.2 200.4,30.2 C199.737258,30.2 199.2,29.6627417 199.2,29 C199.2,28.3372583 199.737258,27.8 200.4,27.8 Z M208,28.6 L208,29.4 L204.8,29.4 L204.8,28.6 L208,28.6 Z M207.8,7 C210.56,7 212.8,9.24 212.8,12 C212.8,12.084 212.792,12.164 212.788,12.244 C212.92,12.216 213.06,12.2 213.2,12.2 C214.304,12.2 215.2,13.096 215.2,14.2 C215.2,14.232 215.192,14.26 215.192,14.288 C215.792,13.98 216.476,13.8 217.2,13.8 C219.632,13.8 221.6,15.768 221.6,18.2 C221.6,20.632 219.632,22.6 217.2,22.6 L215.2,22.6 L215.2,25.4 L217.2,25.4 L217.2,26.2 L214.4,26.2 L214.4,22.6 L213.599,22.6 L213.6,27 L215.2,27 L215.2,27.8 L212.8,27.8 L212.799,22.6 L212,22.6 L212,25 L211.2,25 L211.2,23.399 L211.2,23.4 L211.199,22.6 L210.4,22.6 L210.4,29.4 L208.8,29.4 L208.8,28.6 L209.6,28.6 L209.6,23.399 L209.6,23.4 L209.599,22.6 L208.8,22.6 L208.8,24.2 L208,24.2 L208,22.6 L207.2,22.6 L207.2,26.2 L204.4,26.2 L204.4,25.4 L206.4,25.4 L206.4,23.399 L206.4,23.4 L206.399,22.6 L203.2,22.6 C200.548,22.6 198.4,20.452 198.4,17.8 C198.4,15.248 200.392,13.168 202.904,13.016 C202.836,12.688 202.8,12.348 202.8,12 C202.8,9.24 205.04,7 207.8,7 Z M212,25.8 L212,27.8 L211.2,27.8 L211.2,25.8 L212,25.8 Z M205.6,27 L205.6,27.8 L204.4,27.8 L204.4,27 L205.6,27 Z M203.6,27 L203.6,27.8 L202.4,27.8 L202.4,27 L203.6,27 Z M217.2,27 L217.2,27.8 L216,27.8 L216,27 L217.2,27 Z M208.8,25 L208.8,27.8 L206.4,27.8 L206.4,27 L208,27 L208,25 L208.8,25 Z M219.2,27 L219.2,27.8 L218,27.8 L218,27 L219.2,27 Z M220.8,24.6 C221.462742,24.6 222,25.1372583 222,25.8 C222,26.4627417 221.462742,27 220.8,27 C220.277942,27 219.833747,26.6666253 219.668689,26.2011483 L218,26.2 L218,25.4 L219.668335,25.3998501 C219.833112,24.9338515 220.277568,24.6 220.8,24.6 Z M199.2,24.6 C199.722432,24.6 200.166888,24.9338515 200.331665,25.3998501 L201.6,25.4 L201.6,26.2 L200.331311,26.2011483 C200.166253,26.6666253 199.722058,27 199.2,27 C198.537258,27 198,26.4627417 198,25.8 C198,25.1372583 198.537258,24.6 199.2,24.6 Z M203.6,25.4 L203.6,26.2 L202.4,26.2 L202.4,25.4 L203.6,25.4 Z M215.6,16.6 L214.8,16.6 L214.8,17.0404 C214.7208,17.0564 214.6468,17.0856 214.5712,17.1112 L214.3464,16.7216 L213.6536,17.1216 L213.8784,17.5108 C213.8192,17.5636 213.7636,17.6188 213.7108,17.6784 L213.3216,17.4536 L212.9216,18.1464 L213.3112,18.3712 C213.286,18.4468 213.2568,18.5208 213.2404,18.6 L212.8,18.6 L212.8,19.4 L213.2404,19.4 C213.2564,19.4792 213.2856,19.5532 213.3112,19.6288 L212.9216,19.8536 L213.3216,20.5464 L213.7108,20.3216 C213.7636,20.3808 213.8188,20.4364 213.8784,20.4892 L213.6536,20.8784 L214.3464,21.2784 L214.5712,20.8888 C214.6468,20.914 214.7208,20.9432 214.8,20.9596 L214.8,21.4 L215.6,21.4 L215.6,20.9596 C215.6792,20.9436 215.7532,20.9144 215.8288,20.8888 L216.0536,21.2784 L216.7464,20.8784 L216.5216,20.4892 C216.5808,20.4364 216.6364,20.3812 216.6892,20.3216 L217.0784,20.5464 L217.4784,19.8536 L217.0888,19.6288 C217.114,19.5532 217.1432,19.4792 217.1596,19.4 L217.6,19.4 L217.6,18.6 L217.1596,18.6 C217.1436,18.5208 217.1144,18.4468 217.0888,18.3712 L217.4784,18.1464 L217.0784,17.4536 L216.6892,17.6784 C216.6364,17.6192 216.5812,17.5636 216.5216,17.5108 L216.7464,17.1216 L216.0536,16.7216 L215.8288,17.1112 C215.7532,17.086 215.6792,17.0568 215.6,17.0404 L215.6,16.6 Z M207.6,13 C207.485333,13 207.372444,13.0071111 207.260148,13.0177778 L207.092,13.036 L206.728,13.924 C206.568,13.9693333 206.411556,14.0271111 206.261037,14.0961481 L206.04,14.208 L205.156,13.84 C204.955,13.996 204.76975,14.17 204.601937,14.3603125 L204.44,14.556 L204.808,15.44 C204.728,15.584 204.658667,15.7351111 204.601185,15.890963 L204.524,16.128 L203.636,16.492 C203.616,16.66 203.6,16.828 203.6,17 C203.6,17.1146667 203.607111,17.2275556 203.617778,17.3398519 L203.636,17.508 L204.524,17.872 C204.569333,18.032 204.627111,18.1884444 204.696148,18.338963 L204.808,18.56 L204.44,19.444 C204.596,19.645 204.77,19.83025 204.960312,19.9980625 L205.156,20.16 L206.04,19.792 C206.184,19.872 206.335111,19.9413333 206.490963,19.9988148 L206.728,20.076 L207.092,20.964 C207.26,20.984 207.428,21 207.6,21 C207.714667,21 207.827556,20.9928889 207.939852,20.9822222 L208.108,20.964 L208.472,20.076 C208.632,20.0306667 208.788444,19.9728889 208.938963,19.9038519 L209.16,19.792 L210.044,20.16 C210.245,20.004 210.43025,19.83 210.598062,19.6396875 L210.76,19.444 L210.392,18.56 C210.472,18.416 210.541333,18.2648889 210.598815,18.109037 L210.676,17.872 L211.564,17.508 C211.584,17.34 211.6,17.172 211.6,17 C211.6,16.8853333 211.592889,16.7724444 211.582222,16.6601481 L211.564,16.492 L210.676,16.128 C210.630667,15.968 210.572889,15.8115556 210.503852,15.661037 L210.392,15.44 L210.76,14.556 C210.604,14.355 210.43,14.16975 210.239688,14.0019375 L210.044,13.84 L209.16,14.208 C209.016,14.128 208.864889,14.0586667 208.709037,14.0011852 L208.472,13.924 L208.108,13.036 C207.94,13.016 207.772,13 207.6,13 Z M215.2,17.8 C215.8616,17.8 216.4,18.3384 216.4,19 C216.4,19.6616 215.8616,20.2 215.2,20.2 C214.5384,20.2 214,19.6616 214,19 C214,18.3384 214.5384,17.8 215.2,17.8 Z M207.6,14.6 C208.9256,14.6 210,15.6744 210,17 C210,18.3256 208.9256,19.4 207.6,19.4 C206.2744,19.4 205.2,18.3256 205.2,17 C205.2,15.6744 206.2744,14.6 207.6,14.6 Z M207.535714,15.3571429 C206.648114,15.3571429 205.928571,16.0766852 205.928571,16.9642857 C205.928571,17.8518862 206.648114,18.5714286 207.535714,18.5714286 C208.423315,18.5714286 209.142857,17.8518862 209.142857,16.9642857 C209.142857,16.0766852 208.423315,15.3571429 207.535714,15.3571429 Z" id="Combined-Shape"></path>
        </g>
    </g>
</svg>