<?xml version="1.0" encoding="UTF-8"?>
<svg width="24px" height="24px" viewBox="0 0 24 24" version="1.1" xmlns="http://www.w3.org/2000/svg" xmlns:xlink="http://www.w3.org/1999/xlink">
    <!-- Generator: Sketch 62 (91390) - https://sketch.com -->
    <title>Artboard Copy 2</title>
    <desc>Created with Sketch.</desc>
    <g id="Artboard-Copy-2" stroke="none" stroke-width="1" fill="none" fill-rule="evenodd">
        <g id="Group" transform="translate(1.000000, 0.500000)" fill="#FEFEFE" fill-rule="nonzero">
            <path d="M22,10 C21.9890247,10.00757 21.9747803,10.0143216 21.9635715,10.0218916 C21.8552201,10.091863 21.7407974,10.159993 21.617501,10.2266909 C21.5978856,10.2371252 21.5764022,10.2471503 21.5567868,10.2577893 C21.4451662,10.3154849 21.3277077,10.3721576 21.2051119,10.4273982 L21.1051671,10.4726136 C20.9641235,10.5337874 20.818176,10.5933244 20.663355,10.6512247 L20.5720503,10.6837552 C20.436144,10.7332671 20.2960345,10.7811422 20.1517216,10.8275852 L20.0335626,10.8656398 C19.8644971,10.9182206 19.6902942,10.9689601 19.5107205,11.0182674 L19.3897592,11.0499796 C19.2333036,11.0919215 19.0740457,11.130999 18.9115187,11.169872 C18.8685517,11.1798971 18.8265189,11.1903315 18.7833185,11.200152 C18.5920689,11.244549 18.3949816,11.2862863 18.1918227,11.3257731 C18.143952,11.335389 18.0960812,11.3441866 18.0482104,11.3533934 C17.8723729,11.3877653 17.6934997,11.420705 17.5118244,11.4522126 L17.3845582,11.4745134 C17.1727593,11.5103174 16.9574576,11.543871 16.7384197,11.5755831 C16.6854116,11.5835623 16.6312359,11.5905185 16.5777608,11.5980885 C16.3865113,11.6252996 16.1898909,11.6512831 15.9923364,11.6756299 L15.8741774,11.6903607 C15.6476669,11.7181856 15.4185879,11.7431461 15.1874072,11.7652423 L15.0134378,11.7820191 C14.8016388,11.802274 14.5886723,11.8208921 14.3740713,11.8382826 L14.2869698,11.8454434 C14.0478496,11.8638569 13.8087293,11.8792015 13.569609,11.8935231 L13.3916699,11.905185 C13.1639918,11.9178699 12.9360803,11.9287134 12.7077018,11.9379201 L12.6509574,11.9403753 C12.4069333,11.9495821 12.1629092,11.9567429 11.9186516,11.9614485 L11.7397783,11.964722 C11.4936526,11.9690185 11.2472933,11.9718829 11.0014011,11.9718829 C10.7557424,11.9718829 10.5093831,11.9690185 10.2630238,11.964722 L10.0841506,11.9614485 C9.83965948,11.9563337 9.59563538,11.9493774 9.35207828,11.9403753 L9.2951004,11.9379201 C9.06648832,11.9287134 8.8385768,11.9178699 8.61113234,11.905185 L8.43225919,11.8947507 C8.19313891,11.8806337 7.95401863,11.8650845 7.71489834,11.846671 L7.62803037,11.8395101 C7.4134293,11.8225288 7.20022924,11.8037061 6.98843036,11.7832467 L6.81446103,11.7664699 C6.58351376,11.7431461 6.35466818,11.7181856 6.12769073,11.6915883 L6.00766358,11.6784942 C5.8101091,11.654352 5.61559037,11.6283685 5.42223921,11.6011574 C5.36876408,11.5935875 5.31458839,11.5864266 5.26158027,11.5784474 C5.04277588,11.5465307 4.82747419,11.5129772 4.61544175,11.4773777 L4.4881756,11.4552815 C4.3065002,11.4237739 4.12762705,11.3906296 3.9517896,11.3562577 C3.90391885,11.3470509 3.85604805,11.3382534 3.8081773,11.3286374 C3.60641956,11.2885369 3.40933214,11.246595 3.21668154,11.2030163 C3.17371462,11.1934004 3.13144819,11.1829661 3.08848127,11.1727364 C2.9250202,11.1338634 2.76576232,11.0939674 2.6102407,11.0530485 L2.4892795,11.0211317 C2.30947222,10.972029 2.13526939,10.921085 1.96643738,10.8687087 L1.84851187,10.8304495 C1.70396551,10.7842112 1.56385597,10.7361314 1.42794975,10.6868241 L1.33664501,10.654089 C1.18275802,10.5961887 1.03587653,10.5368563 0.89483293,10.4756825 L0.794888125,10.4302625 C0.672292292,10.375022 0.555767843,10.3185538 0.443213149,10.2606536 C0.423831374,10.2502192 0.40211435,10.2401941 0.382499075,10.2295552 C0.259202679,10.1630619 0.143378793,10.0947273 0.0364284804,10.024756 C0.0254532182,10.017186 0.0109752623,10.0104343 0,10.0028644 L0,14.4859414 C0,15.5355118 4.18460493,17 10.999533,17 C17.814461,17 21.9990659,15.5355118 21.9990659,14.4859414 L22,10 Z" id="Path"></path>
            <path d="M22,16 C21.9890247,16.00757 21.9747803,16.0143216 21.9635715,16.0218916 C21.8552201,16.091863 21.7407974,16.159993 21.617501,16.2266909 C21.5978856,16.2371252 21.5764022,16.2471503 21.5567868,16.2577893 C21.4451662,16.3154849 21.3277077,16.3721576 21.2051119,16.4273982 L21.1051671,16.4726136 C20.9641235,16.5337874 20.818176,16.5933244 20.663355,16.6512247 L20.5720503,16.6837552 C20.436144,16.7332671 20.2960345,16.7811422 20.1517216,16.8275852 L20.0335626,16.8656398 C19.8644971,16.9182206 19.6902942,16.9689601 19.5107205,17.0182674 L19.3897592,17.0499796 C19.2333036,17.0919215 19.0740457,17.130999 18.9115187,17.169872 C18.8685517,17.1798971 18.8265189,17.1903315 18.7833185,17.200152 C18.5920689,17.244549 18.3949816,17.2862863 18.1918227,17.3257731 C18.143952,17.335389 18.0960812,17.3441866 18.0482104,17.3533934 C17.8723729,17.3877653 17.6934997,17.420705 17.5118244,17.4522126 L17.3845582,17.4745134 C17.1727593,17.5099083 16.9574576,17.5436664 16.7384197,17.5755831 C16.6854116,17.5835623 16.6312359,17.5905185 16.5777608,17.5980885 C16.3865113,17.6252996 16.1898909,17.6512831 15.9923364,17.6756299 L15.8741774,17.6903607 C15.6476669,17.7181856 15.4185879,17.7431461 15.1874072,17.7652423 L15.0134378,17.7820191 C14.8016388,17.802274 14.5886723,17.8208921 14.3740713,17.8382826 L14.2869698,17.8454434 C14.0478496,17.8638569 13.8087293,17.8792015 13.569609,17.8935231 L13.3916699,17.905185 C13.1639918,17.9178699 12.9360803,17.9287134 12.7077018,17.9379201 L12.6509574,17.9403753 C12.4069333,17.9495821 12.1629092,17.9567429 11.9186516,17.9614485 L11.7397783,17.964722 C11.4936526,17.9690185 11.2472933,17.9718829 11.0014011,17.9718829 C10.7557424,17.9718829 10.5093831,17.9690185 10.2630238,17.964722 L10.0841506,17.9614485 C9.83965948,17.9563337 9.59563538,17.9493774 9.35207828,17.9403753 L9.2951004,17.9379201 C9.06648832,17.9287134 8.8385768,17.9178699 8.61113234,17.905185 L8.43225919,17.8947507 C8.19313891,17.8806337 7.95401863,17.8650845 7.71489834,17.846671 L7.62803037,17.8395101 C7.4134293,17.8225288 7.20022924,17.8037061 6.98843036,17.7832467 L6.81446103,17.7664699 C6.58351376,17.7431461 6.35466818,17.7181856 6.12769073,17.6915883 L6.00766358,17.6784942 C5.8101091,17.654352 5.61559037,17.6283685 5.42223921,17.6011574 C5.36876408,17.5935875 5.31458839,17.5864266 5.26158027,17.5784474 C5.04277588,17.5465307 4.82747419,17.5129772 4.61544175,17.4773777 L4.4881756,17.4552815 C4.3065002,17.4239785 4.12762705,17.3910388 3.9517896,17.3562577 C3.90391885,17.3470509 3.85604805,17.3382534 3.8081773,17.3286374 C3.60641956,17.2885369 3.40933214,17.246595 3.21668154,17.2030163 C3.17371462,17.1934004 3.13144819,17.1829661 3.08848127,17.1727364 C2.9250202,17.1338634 2.76576232,17.0939674 2.6102407,17.0530485 L2.4892795,17.0211317 C2.30947222,16.9722336 2.13526939,16.9214941 1.96643738,16.8687087 L1.84851187,16.8304495 C1.70396551,16.7842112 1.56385597,16.7361314 1.42794975,16.6868241 L1.33664501,16.654089 C1.18275802,16.5961887 1.03587653,16.5368563 0.89483293,16.4756825 L0.794888125,16.4302625 C0.672292292,16.375022 0.555767843,16.3185538 0.443213149,16.2606536 C0.423831374,16.2502192 0.40211435,16.2401941 0.382499075,16.2295552 C0.259202679,16.1630619 0.143378793,16.0947273 0.0364284804,16.024756 C0.0254532182,16.017186 0.0109752623,16.0104343 0,16.0028644 L0,20.4859414 C0,21.5355118 4.18460493,23 10.999533,23 C17.814461,23 21.9990659,21.5355118 21.9990659,20.4859414 L22,16 Z" id="Path"></path>
            <path d="M22,4 C21.9890247,4.00757004 21.9747803,4.01432165 21.9635715,4.02189164 C21.8552201,4.09186302 21.7407974,4.15999301 21.617501,4.22669088 C21.5978856,4.23712517 21.5764022,4.24715029 21.5567868,4.25778926 C21.4451662,4.31548491 21.3277077,4.37215761 21.2051119,4.42535221 L21.1051671,4.47056765 C20.9641235,4.5317414 20.818176,4.59127845 20.663355,4.64897415 L20.5720503,4.68170929 C20.436144,4.73122116 20.2960345,4.77909627 20.1517216,4.82553926 L20.0335626,4.86359389 C19.8644971,4.91617469 19.6902942,4.96691415 19.5107205,5.01622144 L19.3897592,5.04793362 C19.2333036,5.0898755 19.0740457,5.1287485 18.9115187,5.16782608 C18.8685517,5.17785121 18.8265189,5.18828549 18.7833185,5.19790145 C18.5920689,5.24229847 18.3949816,5.2842404 18.1918227,5.32372715 C18.143952,5.33334311 18.0960812,5.34214064 18.0482104,5.35134744 C17.8723729,5.38571933 17.6934997,5.41865905 17.5118244,5.45016659 L17.3845582,5.47246744 C17.1727593,5.50827151 16.9574576,5.54182498 16.7384197,5.57333257 C16.6854116,5.58131178 16.6312359,5.5884726 16.5777608,5.59604259 C16.3865113,5.62325366 16.1898909,5.64923719 15.9923364,5.67358396 L15.8741774,5.68831477 C15.6476669,5.71613964 15.4185879,5.74110015 15.1874072,5.76319637 L15.0134378,5.77997316 C14.8016388,5.8000234 14.5886723,5.81884611 14.3740713,5.83603205 L14.2869698,5.84319288 C14.0478496,5.86160637 13.8087293,5.87715556 13.569609,5.89147721 L13.3916699,5.905185 C13.1639918,5.9178699 12.9360803,5.9287134 12.7077018,5.93792014 L12.6509574,5.94037533 C12.4069333,5.94958207 12.1629092,5.9567429 11.9186516,5.96144854 L11.7397783,5.96472205 C11.4936526,5.96901852 11.2472933,5.97188287 11.0014011,5.97188287 C10.7557424,5.97188287 10.5093831,5.96901852 10.2630238,5.96472205 L10.0841506,5.96144854 C9.83965948,5.95633368 9.59563538,5.94937744 9.35207828,5.94037533 L9.2951004,5.93792014 C9.06648832,5.9287134 8.8385768,5.9178699 8.61113234,5.905185 L8.43225919,5.89475072 C8.19313891,5.88063365 7.95401863,5.86508451 7.71489834,5.84667097 L7.62803037,5.83951015 C7.4134293,5.82252883 7.20022924,5.80370608 6.98843036,5.78324667 L6.81446103,5.76646989 C6.58351376,5.74314607 6.35466818,5.71818556 6.12769073,5.69158828 L6.00766358,5.67849423 C5.8101091,5.65435204 5.61559037,5.62836851 5.42223921,5.60115744 C5.36876408,5.59358745 5.31458839,5.58642663 5.26158027,5.57844743 C5.04277588,5.54653067 4.82747419,5.51297715 4.61544175,5.47737772 L4.4881756,5.4552815 C4.3065002,5.4237739 4.12762705,5.3906296 3.9517896,5.35625771 C3.90391885,5.34705091 3.85604805,5.33825338 3.8081773,5.32863742 C3.60641956,5.28853688 3.40933214,5.246595 3.21668154,5.2030163 C3.17371462,5.1934004 3.13144819,5.18296606 3.08848127,5.17273635 C2.9250202,5.13386335 2.76576232,5.09396739 2.6102407,5.05304847 L2.4892795,5.02113171 C2.30947222,4.972029 2.13526939,4.92108496 1.96643738,4.86870874 L1.84851187,4.83044953 C1.70396551,4.78421118 1.56385597,4.73613143 1.42794975,4.68682414 L1.33664501,4.65408901 C1.18275802,4.59618872 1.03587653,4.53685626 0.89483293,4.47568251 L0.794888125,4.43026248 C0.672292292,4.37502196 0.555767843,4.31855385 0.443213149,4.26269953 C0.423831374,4.25226519 0.40211435,4.24224002 0.382499075,4.23180573 C0.259202679,4.16510786 0.143378793,4.09677329 0.0364284804,4.02680191 C0.0254532182,4.01923192 0.0109752623,4.01268489 0,4.0051149 L0,8.48594144 C0,9.53346584 4.18460493,11 10.999533,11 C17.814461,11 21.9990659,9.53346584 21.9990659,8.48594144 L22,4 Z" id="Path"></path>
            <path d="M22,2.5 C22,1.11938479 17.0751741,0 11,0 C4.9248259,0 0,1.11938479 0,2.5 C0,3.88061521 4.9248259,5 11,5 C17.0751741,5 22,3.88061521 22,2.5 Z" id="Path"></path>
        </g>
    </g>
</svg>