<?xml version="1.0" encoding="UTF-8"?>
<svg width="24px" height="22px" viewBox="0 0 24 22" version="1.1" xmlns="http://www.w3.org/2000/svg" xmlns:xlink="http://www.w3.org/1999/xlink">
    <!-- Generator: Sketch 62 (91390) - https://sketch.com -->
    <title>web-programming</title>
    <desc>Created with Sketch.</desc>
    <g id="Page-1" stroke="none" stroke-width="1" fill="none" fill-rule="evenodd">
        <g id="Plan-Project-Icons" transform="translate(-240.000000, -7.000000)" fill="#FEFEFE" fill-rule="nonzero">
            <g id="web-programming" transform="translate(240.000000, 7.000000)">
                <path d="M10.5267045,2.13560606 L10.525,2.13560606 C10.2545455,2.13787879 10.0361743,2.35814395 10.0357943,2.62897726 C10.0352272,2.89962124 10.2528409,3.12026516 10.5236742,3.12367423 L10.5253788,3.12367423 C10.7958333,3.12121212 11.0142046,2.90113639 11.0147732,2.63030303 C11.0151515,2.35946967 10.7975379,2.13882575 10.5267045,2.13560606 Z" id="Path"></path>
                <path d="M0,19.0195076 C0.00113636364,20.1234848 0.896022739,21.0181818 2,21.0195076 L22,21.0195076 C23.1039773,21.0181818 23.9988636,20.1234848 24,19.0195076 L24,5.98958332 L0,5.98958332 L0,19.0195076 Z M14.4344697,10.9123106 C14.2558712,10.7604167 14.2346591,10.4926136 14.386553,10.3140151 C14.5382576,10.1357954 14.8060606,10.1142046 14.9846591,10.2662879 L17.7295455,12.6037879 C17.8242424,12.6846591 17.8787879,12.8026515 17.8787879,12.9270833 C17.8787879,13.0513258 17.8242424,13.1695076 17.7295455,13.25 L14.9846591,15.5875 C14.8060606,15.7395833 14.5382576,15.7179924 14.386553,15.5397727 C14.2346591,15.3613636 14.2558712,15.09375 14.4344697,14.9416667 L16.8,12.9270833 L14.4344697,10.9123106 Z M10.6125,16.930303 L12.3234848,8.80719699 C12.3715909,8.57784092 12.5967803,8.43106061 12.825947,8.47935607 C13.055303,8.52765149 13.2018939,8.75284092 13.1535985,8.98200756 L11.442803,17.105303 C11.3943182,17.3346591 11.1695076,17.48125 10.9401515,17.4329546 C10.7109848,17.3846591 10.5642046,17.1596591 10.6125,16.930303 L10.6125,16.930303 Z M6.27045455,12.6037879 L9.0153409,10.2662879 C9.19393939,10.1142046 9.46174245,10.1357954 9.61344698,10.3140151 C9.7653409,10.4926136 9.74412878,10.7604167 9.56553028,10.9123106 L7.2,12.9270833 L9.56590909,14.9416667 C9.74412878,15.09375 9.76553028,15.3613636 9.61363636,15.5397727 C9.46193183,15.7179924 9.19393939,15.7395833 9.01553028,15.5875 L6.27064393,13.25 C6.17594696,13.1695076 6.1214015,13.0513258 6.1214015,12.9270833 C6.1214015,12.8026515 6.17594696,12.6846591 6.27064393,12.6037879 L6.27045455,12.6037879 Z" id="Shape"></path>
                <path d="M6.40170453,2.12253789 L6.4,2.12253789 C6.13238638,2.12935607 5.91875001,2.34810608 5.91856008,2.61590909 C5.91818182,2.88352272 6.13087122,3.10284092 6.39848485,3.11041668 L6.4,3.11041668 C6.66761362,3.1035985 6.88106061,2.88484848 6.88162893,2.61742424 C6.88181818,2.34962124 6.66893939,2.13030303 6.40151515,2.12253789 L6.40170453,2.12253789 Z" id="Path"></path>
                <path d="M22,0.0445075879 L2,0.0445075879 C0.896022739,0.0456439273 0.00113636364,0.940530327 0,2.04450759 L0,5.14109847 L24,5.14109847 L24,2.04450759 C23.9988636,0.940530327 23.1039773,0.0456439273 22,0.0445075879 Z M2.275,3.9464015 L2.27083336,3.9464015 C1.5285985,3.94526516 0.927840921,3.34280301 0.928408712,2.60056819 C0.928977261,1.85833333 1.53068179,1.25700756 2.27291665,1.25700756 C3.0153409,1.25700756 3.61723486,1.85833333 3.61761434,2.60056819 C3.6183712,3.34280301 3.01742424,3.94526516 2.275,3.9464015 Z M7.74261649,2.62083336 C7.73958332,3.36041668 7.13939394,3.95852272 6.4,3.95928029 L6.39583331,3.95928029 C5.66306817,3.94621212 5.07613634,3.34772727 5.07745987,2.61477275 C5.07840912,1.88200756 5.66704543,1.28541668 6.39981062,1.27462119 L6.40435607,1.27462119 C7.14545455,1.27765149 7.74412878,1.88011365 7.74261649,2.62121212 L7.74261649,2.62083336 Z M11.8676136,2.63390153 C11.8653409,3.37348485 11.2651515,3.9719697 10.5253788,3.97215908 L10.5212121,3.97215908 C9.78314395,3.9662879 9.18844698,3.36571971 9.18939281,2.62746211 C9.19053033,1.88939394 9.78750002,1.29071971 10.5255682,1.28712121 L10.5295455,1.28712121 C11.2708334,1.29015152 11.8695076,1.89261362 11.8678067,2.63390153 L11.8676136,2.63390153 Z" id="Shape"></path>
                <path d="M2.27670453,2.10984848 L2.275,2.10984848 C2.0066288,2.11515152 1.79166667,2.33428029 1.79128673,2.60284092 C1.79071971,2.87159088 2.00492422,3.09128785 2.27367423,3.09772727 L2.275,3.09772727 C2.54375001,3.09204548 2.75852272,2.87310604 2.75909141,2.60435607 C2.75946967,2.33579544 2.54526516,2.11609847 2.27670453,2.10984848 Z" id="Path"></path>
            </g>
        </g>
    </g>
</svg>