<?xml version="1.0" encoding="UTF-8"?>
<svg width="24px" height="24px" viewBox="0 0 24 24" version="1.1" xmlns="http://www.w3.org/2000/svg" xmlns:xlink="http://www.w3.org/1999/xlink">
    <!-- Generator: Sketch 62 (91390) - https://sketch.com -->
    <title>wordpress</title>
    <desc>Created with Sketch.</desc>
    <g id="Page-1" stroke="none" stroke-width="1" fill="none" fill-rule="evenodd">
        <g id="Plan-Project-Icons" transform="translate(-5.000000, -6.000000)" fill="#FEFEFE" fill-rule="nonzero">
            <g id="wordpress" transform="translate(5.000000, 6.000000)">
                <path d="M7.15151064,7.51920932 L5.80167301,7.51920932 L9.48170319,17.6470588 L11.5418955,11.9152215 L9.94460763,7.51920932 L8.5204039,7.51920932 L8.5204039,6.5541662 L14.8272174,6.5541662 L14.8272174,7.51920932 L13.3503241,7.51920932 L17.0302996,17.6470588 L18.3531099,13.9666691 C20.0883737,9.2513857 16.9308718,7.78255754 16.9308718,6.73022783 C16.9308718,5.67789812 17.8071033,4.82486039 18.8879234,4.82486039 C18.9464008,4.82486039 19.0031855,4.8279436 19.0588235,4.83299367 C17.2274626,3.14982962 14.7580384,2.11764706 12.0407817,2.11764706 C8.49026433,2.11764706 5.36279287,3.87964547 3.52941176,6.5541662 L7.15140144,6.5541662 L7.15140144,7.51920932 L7.15151064,7.51920932 L7.15151064,7.51920932 Z" id="Path"></path>
                <path d="M2.11764706,11.6714141 C2.11764706,15.4846838 4.40535214,18.7968849 7.76470588,20.4705882 L2.96700766,7.76470588 C2.42048331,8.96425001 2.11764706,10.2846739 2.11764706,11.6714141 Z" id="Path"></path>
                <path d="M20.5003437,7.05882353 C20.6527624,7.87999979 20.6066215,8.8029511 20.3727308,9.72949447 L20.4151167,9.72949447 L20.2539932,10.1507547 L20.2539932,10.1507547 C20.1585253,10.4549345 20.0383085,10.7660902 19.9017632,11.0718318 L16.2352941,20.4705882 C19.5952759,18.830214 21.8823529,15.5913728 21.8823529,11.8632825 C21.8823529,10.1163438 21.3797524,8.47695859 20.5003437,7.05882353 Z" id="Path"></path>
                <path d="M8.47058824,21.4103484 C9.49351515,21.7163648 10.5846372,21.8823529 11.7179806,21.8823529 C12.798983,21.8823529 13.8418119,21.7316812 14.8235294,21.4521959 L11.7435608,13.4117647 L8.47058824,21.4103484 Z" id="Path"></path>
                <path d="M20.485246,3.51470828 C18.2187574,1.24821466 15.205261,0 11.9999464,0 C8.79463181,0 5.78118899,1.24821466 3.51470043,3.51470828 C1.24821187,5.7812019 0,8.79465145 0,12.0000268 C0,15.2053485 1.24821187,18.2187981 3.51470043,20.4852917 C5.78118899,22.7517853 8.79468542,24 12,24 C15.2053146,24 18.2187574,22.7517853 20.4852996,20.4852917 C22.7517881,18.2187981 24,15.2052949 24,12.0000268 C24,8.79465145 22.7517345,5.7812019 20.485246,3.51470828 Z M11.9999464,23.1534893 C5.84991757,23.1534893 0.846508843,18.1500694 0.846508843,12.0000268 C0.846508843,5.84998425 5.84991757,0.846510734 11.9999464,0.846510734 C18.1499752,0.846510734 23.1533839,5.84998425 23.1533839,12.0000268 C23.1533839,18.1500694 18.1500288,23.1534893 11.9999464,23.1534893 Z" id="Shape"></path>
            </g>
        </g>
    </g>
</svg>