<svg xmlns="http://www.w3.org/2000/svg" width="90.406" height="59.367" viewBox="0 0 90.406 59.367">
    <defs>
        <style>
            .cls-1{opacity:.245}.cls-2{fill:#080295}.cls-3{fill:#fff}.cls-4{fill:#f2f2f2}
        </style>
    </defs>
    <g id="Group_3279" data-name="Group 3279" transform="translate(-619.881 -605.77)">
        <g id="NET_Core_Logo" class="cls-1" transform="translate(619.881 605.77)">
            <path id="Path_1892" d="M8.307 39.084a2.219 2.219 0 0 1-1.643-.69 2.268 2.268 0 0 1-.674-1.644 2.3 2.3 0 0 1 .674-1.643 2.2 2.2 0 0 1 1.643-.707 2.251 2.251 0 0 1 1.643.707 2.284 2.284 0 0 1 .69 1.643 2.357 2.357 0 0 1-2.334 2.334z" class="cls-2" data-name="Path 1892" transform="translate(-5.99 -8.713)"/>
            <path id="Path_1893" d="M36.716 48.73H32.41l-15.4-23.9a9.861 9.861 0 0 1-.953-1.874h-.131a30.766 30.766 0 0 1 .164 4.109V48.73h-3.5V18.77h4.552L32.13 42.238q.937 1.463 1.216 2.005h.082a31.686 31.686 0 0 1-.214-4.4V18.77h3.5z" class="cls-2" data-name="Path 1893" transform="translate(-1.743 -18.77)"/>
            <path id="Path_1894" d="M47.925 48.73H32V18.77h15.185v3.172h-11.6V31.9H46.4v3.155H35.583v10.388h12.358z" class="cls-2" data-name="Path 1894" transform="translate(10.746 -18.77)"/>
            <path id="Path_1895" d="M64.152 21.942h-8.71V48.73h-3.5V21.942H43.33V18.77h20.822z" class="cls-2" data-name="Path 1895" transform="translate(18.036 -18.77)"/>
            <path id="Path_1896" d="M30.157 54.652a8.1 8.1 0 0 1-3.813.805 6.146 6.146 0 0 1-4.717-1.89 7 7 0 0 1-1.775-4.93 7.33 7.33 0 0 1 1.989-5.358 6.771 6.771 0 0 1 5.059-2.037 8.1 8.1 0 0 1 3.287.575v1.643a6.574 6.574 0 0 0-3.287-.822 5.029 5.029 0 0 0-3.862 1.643 5.982 5.982 0 0 0-1.479 4.24 5.7 5.7 0 0 0 1.38 4.026 4.7 4.7 0 0 0 3.632 1.5 6.8 6.8 0 0 0 3.6-.92z" class="cls-2" data-name="Path 1896" transform="translate(2.925 -4.314)"/>
            <path id="Path_1897" d="M32.092 53.965a4.569 4.569 0 0 1-3.5-1.463 5.111 5.111 0 0 1-1.3-3.665 5.325 5.325 0 0 1 1.364-3.879 4.93 4.93 0 0 1 3.665-1.4 4.421 4.421 0 0 1 3.435 1.364 5.391 5.391 0 0 1 1.234 3.768 5.292 5.292 0 0 1-1.331 3.78 4.667 4.667 0 0 1-3.567 1.495zm.115-8.99a3.008 3.008 0 0 0-2.4 1.035 4.256 4.256 0 0 0-.887 2.86 4.026 4.026 0 0 0 .887 2.761 3.04 3.04 0 0 0 2.4 1.019 2.892 2.892 0 0 0 2.35-.986 4.306 4.306 0 0 0 .822-2.827 4.372 4.372 0 0 0-.822-2.843 2.876 2.876 0 0 0-2.35-1.019z" class="cls-2" data-name="Path 1897" transform="translate(7.712 -2.822)"/>
            <path id="Path_1898" d="M39.88 45.41a1.939 1.939 0 0 0-1.2-.312 2.021 2.021 0 0 0-1.643.953 4.4 4.4 0 0 0-.674 2.6v5.029H34.72v-9.865h1.643v2.055a3.451 3.451 0 0 1 1.037-1.644 2.35 2.35 0 0 1 1.545-.575 2.58 2.58 0 0 1 .937.131z" class="cls-2" data-name="Path 1898" transform="translate(12.496 -2.762)"/>
            <path id="Path_1899" d="M47.108 49.19h-6.951a3.681 3.681 0 0 0 .838 2.531 3.057 3.057 0 0 0 2.334.887 4.93 4.93 0 0 0 3.057-1.1v1.479a5.719 5.719 0 0 1-3.435.937 4.174 4.174 0 0 1-3.287-1.348 5.506 5.506 0 0 1-1.2-3.78 5.39 5.39 0 0 1 1.3-3.747 4.191 4.191 0 0 1 3.285-1.449 3.714 3.714 0 0 1 2.991 1.249 5.226 5.226 0 0 1 1.052 3.484zm-1.643-1.331a3.287 3.287 0 0 0-.657-2.12A2.252 2.252 0 0 0 43 44.983a2.547 2.547 0 0 0-1.89.805 3.632 3.632 0 0 0-.97 2.087z" class="cls-2" data-name="Path 1899" transform="translate(14.899 -2.796)"/>
        </g>
        <g id="NET_Core_Logo-2" data-name="NET_Core_Logo" transform="translate(628.099 613.987)">
            <path id="Path_1892-2" d="M8.307 39.084a2.219 2.219 0 0 1-1.643-.69 2.268 2.268 0 0 1-.674-1.644 2.3 2.3 0 0 1 .674-1.643 2.2 2.2 0 0 1 1.643-.707 2.251 2.251 0 0 1 1.643.707 2.284 2.284 0 0 1 .69 1.643 2.357 2.357 0 0 1-2.334 2.334z" class="cls-3" data-name="Path 1892" transform="translate(-5.99 -8.713)"/>
            <path id="Path_1893-2" d="M36.716 48.73H32.41l-15.4-23.9a9.861 9.861 0 0 1-.953-1.874h-.131a30.766 30.766 0 0 1 .164 4.109V48.73h-3.5V18.77h4.552L32.13 42.238q.937 1.463 1.216 2.005h.082a31.686 31.686 0 0 1-.214-4.4V18.77h3.5z" class="cls-3" data-name="Path 1893" transform="translate(-1.743 -18.77)"/>
            <path id="Path_1894-2" d="M47.925 48.73H32V18.77h15.185v3.172h-11.6V31.9H46.4v3.155H35.583v10.388h12.358z" class="cls-3" data-name="Path 1894" transform="translate(10.746 -18.77)"/>
            <path id="Path_1895-2" d="M64.152 21.942h-8.71V48.73h-3.5V21.942H43.33V18.77h20.822z" class="cls-3" data-name="Path 1895" transform="translate(18.036 -18.77)"/>
            <path id="Path_1896-2" d="M30.157 54.652a8.1 8.1 0 0 1-3.813.805 6.146 6.146 0 0 1-4.717-1.89 7 7 0 0 1-1.775-4.93 7.33 7.33 0 0 1 1.989-5.358 6.771 6.771 0 0 1 5.059-2.037 8.1 8.1 0 0 1 3.287.575v1.643a6.574 6.574 0 0 0-3.287-.822 5.029 5.029 0 0 0-3.862 1.643 5.982 5.982 0 0 0-1.479 4.24 5.7 5.7 0 0 0 1.38 4.026 4.7 4.7 0 0 0 3.632 1.5 6.8 6.8 0 0 0 3.6-.92z" class="cls-4" data-name="Path 1896" transform="translate(2.925 -4.314)"/>
            <path id="Path_1897-2" d="M32.092 53.965a4.569 4.569 0 0 1-3.5-1.463 5.111 5.111 0 0 1-1.3-3.665 5.325 5.325 0 0 1 1.364-3.879 4.93 4.93 0 0 1 3.665-1.4 4.421 4.421 0 0 1 3.435 1.364 5.391 5.391 0 0 1 1.234 3.768 5.292 5.292 0 0 1-1.331 3.78 4.667 4.667 0 0 1-3.567 1.495zm.115-8.99a3.008 3.008 0 0 0-2.4 1.035 4.256 4.256 0 0 0-.887 2.86 4.026 4.026 0 0 0 .887 2.761 3.04 3.04 0 0 0 2.4 1.019 2.892 2.892 0 0 0 2.35-.986 4.306 4.306 0 0 0 .822-2.827 4.372 4.372 0 0 0-.822-2.843 2.876 2.876 0 0 0-2.35-1.019z" class="cls-4" data-name="Path 1897" transform="translate(7.712 -2.822)"/>
            <path id="Path_1898-2" d="M39.88 45.41a1.939 1.939 0 0 0-1.2-.312 2.021 2.021 0 0 0-1.643.953 4.4 4.4 0 0 0-.674 2.6v5.029H34.72v-9.865h1.643v2.055a3.451 3.451 0 0 1 1.037-1.644 2.35 2.35 0 0 1 1.545-.575 2.58 2.58 0 0 1 .937.131z" class="cls-4" data-name="Path 1898" transform="translate(12.496 -2.762)"/>
            <path id="Path_1899-2" d="M47.108 49.19h-6.951a3.681 3.681 0 0 0 .838 2.531 3.057 3.057 0 0 0 2.334.887 4.93 4.93 0 0 0 3.057-1.1v1.479a5.719 5.719 0 0 1-3.435.937 4.174 4.174 0 0 1-3.287-1.348 5.506 5.506 0 0 1-1.2-3.78 5.39 5.39 0 0 1 1.3-3.747 4.191 4.191 0 0 1 3.285-1.449 3.714 3.714 0 0 1 2.991 1.249 5.226 5.226 0 0 1 1.052 3.484zm-1.643-1.331a3.287 3.287 0 0 0-.657-2.12A2.252 2.252 0 0 0 43 44.983a2.547 2.547 0 0 0-1.89.805 3.632 3.632 0 0 0-.97 2.087z" class="cls-4" data-name="Path 1899" transform="translate(14.899 -2.796)"/>
        </g>
    </g>
</svg>
