<svg xmlns="http://www.w3.org/2000/svg" width="99.56" height="66.293" viewBox="0 0 99.56 66.293">
    <defs>
        <style>
            .cls-1{fill:#080295;opacity:.247}.cls-2{fill:#f8f8f8}
        </style>
    </defs>
    <g id="Group_3280" data-name="Group 3280" transform="translate(-738.18 -594.283)">
        <path id="download" d="M216.75 235.062c-.6-.665-8.791-10.931-10.245-12.677s-2.141-1.434-3.034-1.288-11.264 1.87-12.469 2.078-1.953.686-1.226 1.725c.665.914 7.481 10.6 8.978 12.718l-27.12 6.5-21.534-36.051c-.852-1.268-1.039-1.725-2.993-1.621-1.953.083-16.916 1.33-17.976 1.413s-2.244.561-1.164 3.076c1.06 2.515 18.059 39.132 18.537 40.192a3.653 3.653 0 0 0 4.593 2.1c2.951-.707 13.2-3.387 18.787-4.842 2.951 5.362 9 16.21 10.1 17.768 1.5 2.078 2.515 1.725 4.8 1.039 1.787-.54 27.931-9.934 29.115-10.432 1.185-.478 1.912-.831 1.1-2.016-.582-.873-7.481-10.1-11.1-14.942 2.473-.665 11.264-2.993 12.22-3.263 1.089-.271 1.234-.812.631-1.477zm-49.294 10.079c-.333.062-15.5 3.7-16.314 3.886s-.81.083-.894-.187-18.059-37.324-18.309-37.781-.229-.831 0-.831 14.339-1.268 14.838-1.288.436.083.623.395c0 0 19.888 34.332 20.241 34.934.359.623.148.81-.185.872zm42.831 8.022c.249.374.478.623-.27.894-.769.27-25.707 8.687-26.185 8.895s-.873.27-1.5-.623-8.728-14.942-8.728-14.942l26.434-6.879c.665-.208.873-.353 1.288.312s8.712 11.969 8.961 12.343zm1.683-18.766c-.6.125-10.308 2.535-10.308 2.535l-7.939-10.89c-.229-.312-.416-.623.145-.707s9.58-1.7 9.975-1.787a.992.992 0 0 1 1.268.478c.5.686 7.357 9.373 7.627 9.705s-.165.542-.767.669z" class="cls-1" transform="translate(610.636 387.852)"/>
        <path id="download-2" d="M216.75 235.062c-.6-.665-8.791-10.931-10.245-12.677s-2.141-1.434-3.034-1.288-11.264 1.87-12.469 2.078-1.953.686-1.226 1.725c.665.914 7.481 10.6 8.978 12.718l-27.12 6.5-21.534-36.051c-.852-1.268-1.039-1.725-2.993-1.621-1.953.083-16.916 1.33-17.976 1.413s-2.244.561-1.164 3.076c1.06 2.515 18.059 39.132 18.537 40.192a3.653 3.653 0 0 0 4.593 2.1c2.951-.707 13.2-3.387 18.787-4.842 2.951 5.362 9 16.21 10.1 17.768 1.5 2.078 2.515 1.725 4.8 1.039 1.787-.54 27.931-9.934 29.115-10.432 1.185-.478 1.912-.831 1.1-2.016-.582-.873-7.481-10.1-11.1-14.942 2.473-.665 11.264-2.993 12.22-3.263 1.089-.271 1.234-.812.631-1.477zm-49.294 10.079c-.333.062-15.5 3.7-16.314 3.886s-.81.083-.894-.187-18.059-37.324-18.309-37.781-.229-.831 0-.831 14.339-1.268 14.838-1.288.436.083.623.395c0 0 19.888 34.332 20.241 34.934.359.623.148.81-.185.872zm42.831 8.022c.249.374.478.623-.27.894-.769.27-25.707 8.687-26.185 8.895s-.873.27-1.5-.623-8.728-14.942-8.728-14.942l26.434-6.879c.665-.208.873-.353 1.288.312s8.712 11.969 8.961 12.343zm1.683-18.766c-.6.125-10.308 2.535-10.308 2.535l-7.939-10.89c-.229-.312-.416-.623.145-.707s9.58-1.7 9.975-1.787a.992.992 0 0 1 1.268.478c.5.686 7.357 9.373 7.627 9.705s-.165.542-.767.669z" class="cls-2" data-name="download" transform="translate(620.636 392.852)"/>
    </g>
</svg>
