<svg xmlns="http://www.w3.org/2000/svg" width="59.181" height="66.125" viewBox="0 0 59.181 66.125">
    <defs>
        <style>
            .cls-1{fill:#080295}.cls-2{fill:#f8f8f8}.cls-3{opacity:.249}.cls-4{clip-path:url(#clip-path)}.cls-5{opacity:0}.cls-6{clip-path:url(#clip-path-2)}.cls-7{clip-path:url(#clip-path-3)}.cls-8{clip-path:url(#clip-path-4)}
        </style>
        <clipPath id="clip-path">
            <path id="Path_1849" d="M27.361-225.439a4.689 4.689 0 0 0-2.333.571L2.6-211.909a4.73 4.73 0 0 0-2.333 4.1v25.87a4.732 4.732 0 0 0 2.333 4.1l5.856 3.383c2.845 1.4 3.894 1.381 5.189 1.381 4.212 0 6.618-2.558 6.618-7v-25.545a.64.64 0 0 0-.666-.619h-2.805a.637.637 0 0 0-.666.619v25.536c0 1.97-2.051 3.952-5.38 2.286l-6.095-3.572a.672.672 0 0 1-.381-.571v-25.87a.755.755 0 0 1 .381-.619l22.377-12.91a.66.66 0 0 1 .666 0l22.378 12.91a.761.761 0 0 1 .381.62v25.87a.719.719 0 0 1-.334.619l-22.425 12.91a.689.689 0 0 1-.666 0l-5.761-3.43a.6.6 0 0 0-.571 0 14.83 14.83 0 0 1-3.381 1.524c-.367.128-.925.328.191.953l7.522 4.43a4.626 4.626 0 0 0 2.333.62 4.6 4.6 0 0 0 2.333-.619l22.425-12.911a4.738 4.738 0 0 0 2.333-4.1v-25.87a4.731 4.731 0 0 0-2.333-4.1l-22.425-12.952a4.665 4.665 0 0 0-2.333-.572z" class="cls-1" data-name="Path 1849" transform="translate(-.271 225.439)"/>
        </clipPath>
        <clipPath id="clip-path-2">
            <path id="Path_1852" d="M92.823-157.3c-6.386 0-10.188 2.719-10.188 7.242 0 4.905 3.774 6.253 9.9 6.86 7.332.718 7.9 1.8 7.9 3.24 0 2.5-2 3.573-6.712 3.573-5.927 0-7.229-1.481-7.665-4.43a.646.646 0 0 0-.619-.572h-2.9a.68.68 0 0 0-.666.667c0 3.776 2.053 8.242 11.855 8.242 7.1 0 11.188-2.787 11.188-7.67 0-4.84-3.306-6.14-10.189-7.051-6.955-.921-7.618-1.372-7.618-3 0-1.345.562-3.145 5.713-3.145 4.6 0 6.3.993 7 4.1a.651.651 0 0 0 .619.524h2.9a.7.7 0 0 0 .476-.238.625.625 0 0 0 .191-.476c-.45-5.346-4.013-7.861-11.189-7.861z" class="cls-1" data-name="Path 1852" transform="translate(-81.873 157.305)"/>
        </clipPath>
        <clipPath id="clip-path-3">
            <path id="Path_1849-2" d="M27.361-225.439a4.689 4.689 0 0 0-2.333.571L2.6-211.909a4.73 4.73 0 0 0-2.333 4.1v25.87a4.732 4.732 0 0 0 2.333 4.1l5.856 3.383c2.845 1.4 3.894 1.381 5.189 1.381 4.212 0 6.618-2.558 6.618-7v-25.545a.64.64 0 0 0-.666-.619h-2.805a.637.637 0 0 0-.666.619v25.536c0 1.97-2.051 3.952-5.38 2.286l-6.095-3.572a.672.672 0 0 1-.381-.571v-25.87a.755.755 0 0 1 .381-.619l22.377-12.91a.66.66 0 0 1 .666 0l22.378 12.91a.761.761 0 0 1 .381.62v25.87a.719.719 0 0 1-.334.619l-22.425 12.91a.689.689 0 0 1-.666 0l-5.761-3.43a.6.6 0 0 0-.571 0 14.83 14.83 0 0 1-3.381 1.524c-.367.128-.925.328.191.953l7.522 4.43a4.626 4.626 0 0 0 2.333.62 4.6 4.6 0 0 0 2.333-.619l22.425-12.911a4.738 4.738 0 0 0 2.333-4.1v-25.87a4.731 4.731 0 0 0-2.333-4.1l-22.425-12.952a4.665 4.665 0 0 0-2.333-.572z" class="cls-2" data-name="Path 1849" transform="translate(-.271 225.439)"/>
        </clipPath>
        <clipPath id="clip-path-4">
            <path id="Path_1852-2" d="M92.823-157.3c-6.386 0-10.188 2.719-10.188 7.242 0 4.905 3.774 6.253 9.9 6.86 7.332.718 7.9 1.8 7.9 3.24 0 2.5-2 3.573-6.712 3.573-5.927 0-7.229-1.481-7.665-4.43a.646.646 0 0 0-.619-.572h-2.9a.68.68 0 0 0-.666.667c0 3.776 2.053 8.242 11.855 8.242 7.1 0 11.188-2.787 11.188-7.67 0-4.84-3.306-6.14-10.189-7.051-6.955-.921-7.618-1.372-7.618-3 0-1.345.562-3.145 5.713-3.145 4.6 0 6.3.993 7 4.1a.651.651 0 0 0 .619.524h2.9a.7.7 0 0 0 .476-.238.625.625 0 0 0 .191-.476c-.45-5.346-4.013-7.861-11.189-7.861z" class="cls-2" data-name="Path 1852" transform="translate(-81.873 157.305)"/>
        </clipPath>
    </defs>
    <g id="Group_3278" data-name="Group 3278" transform="translate(-301.819 -594)">
        <g id="Group_3273" class="cls-3" data-name="Group 3273" transform="translate(301.819 594)">
            <g id="Group_3210" class="cls-4" data-name="Group 3210">
                <g id="Group_3208" class="cls-5" data-name="Group 3208" transform="translate(-.073 -164.834)">
                    <g id="Group_3207" data-name="Group 3207">
                        <path id="Path_1847" d="M-.271-607.561H276.46v226H-.271z" class="cls-1" data-name="Path 1847" transform="translate(.271 607.561)"/>
                    </g>
                </g>
                <g id="Group_3209" data-name="Group 3209" transform="translate(-.073 -164.834)">
                    <path id="Path_1848" d="M-.271-607.561H276.46v226H-.271z" class="cls-1" data-name="Path 1848" transform="translate(.271 607.561)"/>
                </g>
            </g>
            <g id="Group_3214" class="cls-6" data-name="Group 3214" transform="translate(22.139 18.485)">
                <g id="Group_3212" class="cls-5" data-name="Group 3212" transform="translate(-22.213 -183.319)">
                    <g id="Group_3211" data-name="Group 3211">
                        <path id="Path_1850" d="M-81.873-675.7h276.73v226h-276.73z" class="cls-1" data-name="Path 1850" transform="translate(81.873 675.695)"/>
                    </g>
                </g>
                <g id="Group_3213" data-name="Group 3213" transform="translate(-22.213 -183.319)">
                    <path id="Path_1851" d="M-81.873-675.7h276.73v226h-276.73z" class="cls-1" data-name="Path 1851" transform="translate(81.873 675.695)"/>
                </g>
            </g>
        </g>
        <g id="Group_3270" data-name="Group 3270" transform="translate(306.819 599)">
            <g id="Group_3210-2" class="cls-7" data-name="Group 3210">
                <g id="Group_3208-2" class="cls-5" data-name="Group 3208" transform="translate(-.073 -164.834)">
                    <g id="Group_3207-2" data-name="Group 3207">
                        <path id="Path_1847-2" d="M-.271-607.561H276.46v226H-.271z" class="cls-2" data-name="Path 1847" transform="translate(.271 607.561)"/>
                    </g>
                </g>
                <g id="Group_3209-2" data-name="Group 3209" transform="translate(-.073 -164.834)">
                    <path id="Path_1848-2" d="M-.271-607.561H276.46v226H-.271z" class="cls-2" data-name="Path 1848" transform="translate(.271 607.561)"/>
                </g>
            </g>
            <g id="Group_3214-2" class="cls-8" data-name="Group 3214" transform="translate(22.139 18.485)">
                <g id="Group_3212-2" class="cls-5" data-name="Group 3212" transform="translate(-22.213 -183.319)">
                    <g id="Group_3211-2" data-name="Group 3211">
                        <path id="Path_1850-2" d="M-81.873-675.7h276.73v226h-276.73z" class="cls-2" data-name="Path 1850" transform="translate(81.873 675.695)"/>
                    </g>
                </g>
                <g id="Group_3213-2" data-name="Group 3213" transform="translate(-22.213 -183.319)">
                    <path id="Path_1851-2" d="M-81.873-675.7h276.73v226h-276.73z" class="cls-2" data-name="Path 1851" transform="translate(81.873 675.695)"/>
                </g>
            </g>
        </g>
    </g>
</svg>
