<svg xmlns="http://www.w3.org/2000/svg" width="53.926" height="34.112" viewBox="0 0 53.926 34.112">
    <defs>
        <style>
            .cls-1{fill:#fefefe}
        </style>
    </defs>
    <g id="C_Sharp_wordmark" transform="translate(-11.577 -18.989)">
        <path id="Path_1945" d="M36.264 51.15a19.353 19.353 0 0 1-9.164 1.938 14.7 14.7 0 0 1-11.274-4.531 16.734 16.734 0 0 1-4.229-11.9 17.533 17.533 0 0 1 4.763-12.796A16.171 16.171 0 0 1 28.486 19a19.38 19.38 0 0 1 7.778 1.309v4.125a15.713 15.713 0 0 0-7.857-1.977 12.007 12.007 0 0 0-9.166 3.8 14.312 14.312 0 0 0-3.535 10.148 13.618 13.618 0 0 0 3.3 9.611 11.235 11.235 0 0 0 8.668 3.575 16.263 16.263 0 0 0 8.6-2.213z" class="cls-1" data-name="Path 1945"/>
        <path id="Path_1946" d="M58.924 28.645L58.4 31.08h-6.023l-1.44 6.914H57.4l-.615 2.436h-6.333l-2.03 9.17h-2.894l1.977-9.166h-5.761L39.806 49.6h-2.828l1.938-9.166H32.84l.458-2.436h6.1l1.4-6.9h-6.374l.484-2.436h6.377l1.939-9.262h2.92l-1.938 9.258h5.8l1.978-9.258h2.828l-1.938 9.258zm-9.389 2.435h-5.814l-1.506 6.914h5.84z" class="cls-1" data-name="Path 1946" transform="translate(6.579 .127)"/>
    </g>
</svg>
