<svg xmlns="http://www.w3.org/2000/svg" width="45.862" height="29.011" viewBox="0 0 45.862 29.011">
  <defs>
    <style>
      .cls-1 {
        fill: #fefefe;
      }
    </style>
  </defs>
  <g id="C_Sharp_wordmark" transform="translate(-11.577 -18.989)">
    <path id="Path_1945" data-name="Path 1945" class="cls-1" d="M32.572,46.34a16.459,16.459,0,0,1-7.8,1.648,12.506,12.506,0,0,1-9.588-3.853,14.232,14.232,0,0,1-3.6-10.123,14.911,14.911,0,0,1,4.053-10.88A13.753,13.753,0,0,1,25.957,19a16.481,16.481,0,0,1,6.615,1.114v3.508a13.363,13.363,0,0,0-6.682-1.682,10.212,10.212,0,0,0-7.8,3.229,12.172,12.172,0,0,0-3.007,8.63,11.581,11.581,0,0,0,2.806,8.174,9.555,9.555,0,0,0,7.372,3.04,13.831,13.831,0,0,0,7.316-1.882Z" transform="translate(0 0)"/>
    <path id="Path_1946" data-name="Path 1946" class="cls-1" d="M55.023,27.262l-.445,2.071H49.455l-1.225,5.88h5.5l-.523,2.071h-5.39l-1.726,7.8H43.631l1.682-7.8h-4.9l-1.648,7.8H36.359l1.648-7.8H32.84l.39-2.071h5.189l1.192-5.869H34.187l.412-2.071h5.423L41.671,19.4h2.483l-1.648,7.873h4.933L49.121,19.4h2.405l-1.648,7.873Zm-7.984,2.071H42.094l-1.281,5.88H45.78Z" transform="translate(2.415 0.047)"/>
  </g>
</svg>
