<svg xmlns="http://www.w3.org/2000/svg" width="45.617" height="31.22" viewBox="0 0 45.617 31.22">
    <defs>
        <style>
            .cls-1{fill:#0045ff}
        </style>
    </defs>
    <path id="download" d="M172.981 221.015c-.307-.339-4.478-5.568-5.219-6.457s-1.09-.73-1.545-.656-5.737.953-6.351 1.059-1 .349-.625.879c.339.466 3.811 5.4 4.573 6.478L150 225.63l-10.966-18.365c-.434-.646-.529-.879-1.524-.826s-8.616.677-9.156.72-1.143.286-.593 1.567 9.2 19.932 9.442 20.472a1.861 1.861 0 0 0 2.339 1.069c1.5-.36 6.722-1.725 9.569-2.466 1.5 2.731 4.583 8.256 5.144 9.05.762 1.059 1.281.879 2.445.529.91-.275 14.227-5.06 14.83-5.314s.974-.423.561-1.027c-.3-.445-3.811-5.144-5.653-7.611 1.26-.339 5.737-1.524 6.224-1.662.552-.137.626-.413.319-.751zm-25.108 5.134c-.169.032-7.9 1.884-8.309 1.979s-.413.042-.455-.1-9.2-19.011-9.326-19.244-.116-.423 0-.423 7.3-.646 7.558-.656.222.042.318.2c0 0 10.13 17.487 10.31 17.794s.073.418-.096.449zm21.816 4.086c.127.191.243.318-.138.455s-13.094 4.425-13.337 4.531-.445.138-.762-.318-4.446-7.611-4.446-7.611l13.464-3.5c.339-.106.445-.18.656.159s4.436 6.093 4.563 6.283zm.857-9.558c-.307.064-5.25 1.291-5.25 1.291l-4.044-5.547c-.116-.159-.212-.318.074-.36s4.88-.868 5.081-.91a.505.505 0 0 1 .646.243c.254.349 3.747 4.774 3.885 4.943s-.085.275-.392.339z" class="cls-1" transform="translate(-127.543 -206.431)"/>
</svg>
