<svg xmlns="http://www.w3.org/2000/svg" width="58.009" height="36.102" viewBox="0 0 58.009 36.102">
    <defs>
        <style>
            .cls-1{fill:#0045ff}
        </style>
    </defs>
    <g id="NET_Core_Logo">
        <path id="Path_1892" d="M7.626 37.706a1.566 1.566 0 0 1-1.16-.487 1.6 1.6 0 0 1-.476-1.16 1.624 1.624 0 0 1 .476-1.16 1.554 1.554 0 0 1 1.16-.5 1.589 1.589 0 0 1 1.16.5 1.612 1.612 0 0 1 .487 1.16 1.664 1.664 0 0 1-1.647 1.647z" class="cls-1" data-name="Path 1892" transform="translate(-5.99 -16.27)"/>
        <path id="Path_1893" d="M29.618 39.916h-3.039L15.71 23.05a6.96 6.96 0 0 1-.673-1.322h-.093a21.716 21.716 0 0 1 .116 2.9v15.288h-2.47V18.77h3.21l10.582 16.564q.661 1.032.858 1.415h.06a22.364 22.364 0 0 1-.151-3.109V18.77h2.471z" class="cls-1" data-name="Path 1893" transform="translate(-4.934 -18.77)"/>
        <path id="Path_1894" d="M43.24 39.916H32V18.77h10.718v2.239h-8.189v7.029h7.632v2.227h-7.632V37.6h8.723z" class="cls-1" data-name="Path 1894" transform="translate(-1.83 -18.77)"/>
        <path id="Path_1895" d="M58.027 21.009h-6.148v18.907h-2.471V21.009H43.33V18.77h14.7z" class="cls-1" data-name="Path 1895" transform="translate(-.018 -18.77)"/>
        <path id="Path_1896" d="M27.124 50.706a5.719 5.719 0 0 1-2.691.568A4.338 4.338 0 0 1 21.1 49.94a4.941 4.941 0 0 1-1.253-3.48 5.173 5.173 0 0 1 1.4-3.781 4.779 4.779 0 0 1 3.573-1.438 5.719 5.719 0 0 1 2.32.406v1.16a4.64 4.64 0 0 0-2.32-.58 3.549 3.549 0 0 0-2.726 1.16 4.222 4.222 0 0 0-1.044 2.993 4.025 4.025 0 0 0 .974 2.842 3.317 3.317 0 0 0 2.563 1.056 4.8 4.8 0 0 0 2.54-.65z" class="cls-1" data-name="Path 1896" transform="translate(-3.774 -15.176)"/>
        <path id="Path_1897" d="M30.678 50.9a3.225 3.225 0 0 1-2.471-1.032 3.607 3.607 0 0 1-.916-2.587 3.758 3.758 0 0 1 .963-2.737 3.48 3.48 0 0 1 2.587-.986 3.12 3.12 0 0 1 2.424.963 3.8 3.8 0 0 1 .87 2.656 3.735 3.735 0 0 1-.94 2.668 3.294 3.294 0 0 1-2.517 1.055zm.081-6.345a2.123 2.123 0 0 0-1.694.731 3 3 0 0 0-.626 2.018 2.842 2.842 0 0 0 .626 1.949 2.146 2.146 0 0 0 1.694.719 2.041 2.041 0 0 0 1.659-.7 3.039 3.039 0 0 0 .58-2 3.085 3.085 0 0 0-.58-2.007 2.03 2.03 0 0 0-1.659-.719z" class="cls-1" data-name="Path 1897" transform="translate(-2.584 -14.806)"/>
        <path id="Path_1898" d="M38.362 44.891a1.369 1.369 0 0 0-.847-.22 1.427 1.427 0 0 0-1.16.673 3.109 3.109 0 0 0-.476 1.833v3.549H34.72v-6.96h1.16v1.45a2.436 2.436 0 0 1 .731-1.16 1.659 1.659 0 0 1 1.09-.406 1.821 1.821 0 0 1 .661.093z" class="cls-1" data-name="Path 1898" transform="translate(-1.395 -14.791)"/>
        <path id="Path_1899" d="M44.562 47.544h-4.906a2.6 2.6 0 0 0 .592 1.786 2.158 2.158 0 0 0 1.647.626 3.48 3.48 0 0 0 2.157-.777v1.044a4.037 4.037 0 0 1-2.424.661 2.946 2.946 0 0 1-2.32-.951 3.886 3.886 0 0 1-.847-2.668 3.8 3.8 0 0 1 .916-2.645A2.958 2.958 0 0 1 41.7 43.6a2.621 2.621 0 0 1 2.111.882 3.689 3.689 0 0 1 .742 2.459zM43.4 46.6a2.32 2.32 0 0 0-.464-1.5 1.589 1.589 0 0 0-1.276-.534 1.8 1.8 0 0 0-1.334.568 2.563 2.563 0 0 0-.684 1.473z" class="cls-1" data-name="Path 1899" transform="translate(-.797 -14.799)"/>
    </g>
</svg>
