<svg xmlns="http://www.w3.org/2000/svg" width="50.248" height="50.248" viewBox="0 0 50.248 50.248">
    <defs>
        <style>
            .cls-1{fill:none;stroke:#fefefe;stroke-width:2px}.cls-2{fill:#fefefe}
        </style>
    </defs>
    <g id="php_1_" data-name="php (1)" transform="translate(1 1)">
        <path id="Path_1948" d="M48.248 24.124A24.126 24.126 0 0 1 3.215 36.163a24.131 24.131 0 1 1 45.033-12.039z" class="cls-1" data-name="Path 1948"/>
        <g id="Group_3370" data-name="Group 3370" transform="translate(.851 11.635)">
            <path id="Path_1949" d="M20.444 178.239h-8.885l-2.531 13.7a23.935 23.935 0 0 0 2.364 5.669h.824l.984-5.308h4.882c5.944 0 7.542-5.337 7.925-7.958a5.438 5.438 0 0 0-5.563-6.103zm1.289 6.546c-.218 1.486-1.315 4.512-4.685 4.512h-3.3l1.473-7.973h3.359c3.27 0 3.37 1.976 3.153 3.461z" class="cls-2" data-name="Path 1949" transform="translate(-9.028 -173.078)"/>
            <path id="Path_1950" d="M356.276 178.86a5.813 5.813 0 0 0-2.7-.622H344.7l-3.579 19.367h4.236l.981-5.305h4.882a7.037 7.037 0 0 0 5.626-2.459 24.308 24.308 0 0 0-.566-10.981zm-1.406 5.924c-.218 1.486-1.315 4.512-4.686 4.512h-3.295l1.473-7.973h3.355c3.27 0 3.37 1.977 3.153 3.461z" class="cls-2" data-name="Path 1950" transform="translate(-309.823 -173.077)"/>
            <path id="Path_1951" d="M194.117 128.693h-5.145l.966-5.225h-4.218l-3.579 19.366h4.218l2.058-11.137h2.7c1.79 0 3 .384 2.748 2.045s-1.726 9.012-1.726 9.012h4.282s1.662-8.181 1.917-10.482-1.856-3.579-4.221-3.579z" class="cls-2" data-name="Path 1951" transform="translate(-165.827 -123.468)"/>
        </g>
    </g>
</svg>
