<svg xmlns="http://www.w3.org/2000/svg" xmlns:xlink="http://www.w3.org/1999/xlink" width="45.891" height="45.891" viewBox="0 0 45.891 45.891">
  <defs>
    <style>
      .cls-1 {
        fill: #0045ff;
      }

      .cls-2 {
        clip-path: url(#clip-path);
      }

      .cls-3 {
        opacity: 0;
      }

      .cls-4 {
        clip-path: url(#clip-path-2);
      }

      .cls-5 {
        clip-path: url(#clip-path-3);
      }
    </style>
    <clipPath id="clip-path">
      <path id="Path_1855" data-name="Path 1855" class="cls-1" d="M839.169-206.914H832.8v-6.364A6.73,6.73,0,0,0,826.083-220h-6.274a6.73,6.73,0,0,0-6.722,6.722v6.364h-6.364A6.73,6.73,0,0,0,800-200.192v6.274a6.73,6.73,0,0,0,6.722,6.722h6.364v6.364a6.73,6.73,0,0,0,6.722,6.722h6.274a6.73,6.73,0,0,0,6.722-6.722V-187.2h6.364a6.73,6.73,0,0,0,6.722-6.722v-6.274A6.73,6.73,0,0,0,839.169-206.914Zm-32.446,17.03a4.038,4.038,0,0,1-4.033-4.033v-6.274a4.038,4.038,0,0,1,4.033-4.033h16.223a1.344,1.344,0,0,0,1.344-1.344,1.344,1.344,0,0,0-1.344-1.344h-7.17v-6.364a4.038,4.038,0,0,1,4.033-4.033h6.274a4.038,4.038,0,0,1,4.033,4.033V-198.4H814.431a1.344,1.344,0,0,0-1.344,1.344v7.17Zm36.48-4.033a4.038,4.038,0,0,1-4.033,4.033H822.946a1.344,1.344,0,0,0-1.344,1.344,1.344,1.344,0,0,0,1.344,1.344h7.171v6.364a4.038,4.038,0,0,1-4.033,4.033h-6.274a4.038,4.038,0,0,1-4.033-4.033V-195.71h15.685a1.344,1.344,0,0,0,1.344-1.344v-7.17h6.364a4.038,4.038,0,0,1,4.033,4.033Z" transform="translate(-800 220)"/>
    </clipPath>
    <clipPath id="clip-path-2">
      <path id="Path_1858" data-name="Path 1858" class="cls-1" d="M891.368-186.085a1.322,1.322,0,0,1-1.322,1.322,1.322,1.322,0,0,1-1.322-1.322,1.322,1.322,0,0,1,1.322-1.322A1.322,1.322,0,0,1,891.368-186.085Z" transform="translate(-888.724 187.407)"/>
    </clipPath>
    <clipPath id="clip-path-3">
      <path id="Path_1861" data-name="Path 1861" class="cls-1" d="M921.245-43.946a1.322,1.322,0,0,1-1.322,1.322,1.322,1.322,0,0,1-1.322-1.322,1.322,1.322,0,0,1,1.322-1.322A1.322,1.322,0,0,1,921.245-43.946Z" transform="translate(-918.601 45.267)"/>
    </clipPath>
  </defs>
  <g id="Group_3259" data-name="Group 3259" transform="translate(-3249.729 -2293)">
    <g id="Group_3218" data-name="Group 3218" class="cls-2" transform="translate(3249.729 2293)">
      <g id="Group_3216" data-name="Group 3216" class="cls-3" transform="translate(-166.877 -127.869)">
        <g id="Group_3215" data-name="Group 3215">
          <path id="Path_1853" data-name="Path 1853" class="cls-1" d="M-800-613h212.768v173.76H-800Z" transform="translate(800 613)"/>
        </g>
      </g>
      <g id="Group_3217" data-name="Group 3217" transform="translate(-166.877 -127.869)">
        <path id="Path_1854" data-name="Path 1854" class="cls-1" d="M-800-613h212.768v173.76H-800Z" transform="translate(800 613)"/>
      </g>
    </g>
    <g id="Group_3222" data-name="Group 3222" class="cls-4" transform="translate(3268.237 2299.798)">
      <g id="Group_3220" data-name="Group 3220" class="cls-3" transform="translate(-185.384 -134.668)">
        <g id="Group_3219" data-name="Group 3219" transform="translate(0 0)">
          <path id="Path_1856" data-name="Path 1856" class="cls-1" d="M-888.724-645.593h212.768v173.76H-888.724Z" transform="translate(888.724 645.593)"/>
        </g>
      </g>
      <g id="Group_3221" data-name="Group 3221" transform="translate(-185.384 -134.668)">
        <path id="Path_1857" data-name="Path 1857" class="cls-1" d="M-888.724-645.593h212.768v173.76H-888.724Z" transform="translate(888.724 645.593)"/>
      </g>
    </g>
    <g id="Group_3226" data-name="Group 3226" class="cls-5" transform="translate(3274.469 2329.448)">
      <g id="Group_3224" data-name="Group 3224" class="cls-3" transform="translate(-191.616 -164.318)">
        <g id="Group_3223" data-name="Group 3223" transform="translate(0 0)">
          <path id="Path_1859" data-name="Path 1859" class="cls-1" d="M-918.6-787.732h212.768v173.76H-918.6Z" transform="translate(918.601 787.732)"/>
        </g>
      </g>
      <g id="Group_3225" data-name="Group 3225" transform="translate(-191.616 -164.318)">
        <path id="Path_1860" data-name="Path 1860" class="cls-1" d="M-918.6-787.732h212.768v173.76H-918.6Z" transform="translate(918.601 787.732)"/>
      </g>
    </g>
  </g>
</svg>
