<svg xmlns="http://www.w3.org/2000/svg" width="33.019" height="36.672" viewBox="0 0 33.019 36.672">
    <defs>
        <style>
            .cls-1{fill:#fefefe}
        </style>
    </defs>
    <g id="big-data" transform="translate(-4.988 -2)">
        <path id="Path_1886" d="M36.167 25.924V14.748a2.439 2.439 0 1 0-2.233-4.174L23.91 4.79a2.384 2.384 0 0 0 .032-.345 2.445 2.445 0 1 0-4.89 0 2.384 2.384 0 0 0 .035.345L9.064 10.574a2.437 2.437 0 1 0-2.235 4.174v11.176A2.439 2.439 0 1 0 9.062 30.1l10.024 5.784a2.383 2.383 0 0 0-.032.345 2.445 2.445 0 0 0 4.89 0 2.384 2.384 0 0 0-.035-.345L33.931 30.1a2.437 2.437 0 1 0 2.235-4.174zm-8.914 1.746l1.495-2.535 4.452 2.516-.006.019zm-17.453 0l-.006-.019 4.455-2.516 1.495 2.535zM15.742 13l-1.495 2.535-4.455-2.514L9.8 13zM33.2 13l.006.019-4.455 2.516L27.253 13zm1.689 12.94l-3.3-5.606 3.307-5.606.058.018v11.178c-.029.004-.048.012-.068.018zm-1.085.644l-4.432-2.5 1.5-2.544 2.958 5.012c-.012.011-.019.023-.03.033zm-9.952-6.88L28.3 17.19l1.856 3.146-1.856 3.146-4.45-2.516a2.184 2.184 0 0 0 0-1.26zm9.978-5.587l-2.96 5.014-1.5-2.541 4.43-2.507a.3.3 0 0 0 .027.036zm-6.144 2.017l-4.432 2.506a2.436 2.436 0 0 0-1.143-.664V13h3.728zM21.5 21.558a1.222 1.222 0 1 1 1.222-1.222 1.222 1.222 0 0 1-1.222 1.222zm.611-9.779V6.8c.02 0 .039-.012.058-.018l2.946 4.995zM20.887 6.8v4.976h-3l2.946-4.995a.1.1 0 0 0 .054.019zm0 6.2v4.976a2.436 2.436 0 0 0-1.143.662l-4.432-2.506L17.161 13zM9.168 26.553l2.958-5.012 1.5 2.544-4.432 2.5c-.009-.01-.016-.022-.026-.032zm3.667-6.217l1.856-3.146 4.455 2.516a2.184 2.184 0 0 0 0 1.26l-4.455 2.516zm-3.641-6.25l4.432 2.506-1.5 2.544-2.958-5.012a.254.254 0 0 1 .026-.038zm-1.082.644l3.3 5.606-3.3 5.606c-.02-.006-.039-.013-.061-.018V14.748zm7.2 9.8l4.432-2.5a2.436 2.436 0 0 0 1.143.662v4.978h-3.726zm5.575 4.358v4.976c-.02 0-.039.012-.058.018l-2.946-4.995zm1.222 4.976v-4.971h3l-2.939 4.994zm0-6.2v-4.97a2.436 2.436 0 0 0 1.143-.662l4.432 2.5-1.847 3.138zm13.446-16.5a1.222 1.222 0 1 1-1.222 1.222 1.222 1.222 0 0 1 1.222-1.218zm-2.3.428a2.566 2.566 0 0 0-.057.183h-6.663l-3.31-5.606a2.486 2.486 0 0 0 .2-.244zM21.5 3.222a1.222 1.222 0 1 1-1.222 1.222A1.222 1.222 0 0 1 21.5 3.222zm-1.729 2.951l-3.307 5.606H9.8a3.207 3.207 0 0 0-.057-.183l9.822-5.67a2.487 2.487 0 0 0 .2.248zM6.218 12.39a1.222 1.222 0 1 1 1.222 1.223 1.222 1.222 0 0 1-1.222-1.223zM7.44 29.5a1.222 1.222 0 1 1 1.222-1.222A1.222 1.222 0 0 1 7.44 29.5zm2.3-.428c.021-.061.041-.122.057-.183h6.665l3.309 5.611a2.487 2.487 0 0 0-.2.248zm11.76 8.377a1.222 1.222 0 1 1 1.222-1.222 1.222 1.222 0 0 1-1.222 1.222zm1.725-2.949l3.307-5.606H33.2c.017.061.036.122.057.183l-9.825 5.67a2.486 2.486 0 0 0-.207-.247zm12.33-5a1.222 1.222 0 1 1 1.222-1.222 1.222 1.222 0 0 1-1.222 1.222z" class="cls-1" data-name="Path 1886"/>
    </g>
</svg>
