<svg xmlns="http://www.w3.org/2000/svg" width="33.019" height="33.019" viewBox="0 0 33.019 33.019">
    <defs>
        <style>
            .cls-1{fill:#0045ff}
        </style>
    </defs>
    <g id="gear" transform="translate(-.5)">
        <path id="Path_1888" d="M32.631 12.785l-3.968-.405a12.332 12.332 0 0 0-.493-1.189L30.69 8.1a.989.989 0 0 0-.068-1.324L26.745 2.9a.989.989 0 0 0-1.324-.067l-2.6 2.116a1.053 1.053 0 0 1-1.073.145l-.023-.01a1.051 1.051 0 0 1-.653-.86L20.734.889A.989.989 0 0 0 19.751 0h-5.482a.989.989 0 0 0-.984.889l-.341 3.334a1.052 1.052 0 0 1-.655.861l-.022.009a1.053 1.053 0 0 1-1.067-.147L8.6 2.83a.989.989 0 0 0-1.326.07L3.4 6.774A.989.989 0 0 0 3.33 8.1l2.116 2.6a1.052 1.052 0 0 1 .146 1.07l-.011.026a1.051 1.051 0 0 1-.86.653l-3.334.341a.989.989 0 0 0-.888.984v5.482a.989.989 0 0 0 .888.984l3.334.341a1.051 1.051 0 0 1 .86.653l.01.023a1.053 1.053 0 0 1-.146 1.072l-2.116 2.6a.989.989 0 0 0 .071 1.316l3.877 3.877a.989.989 0 0 0 1.323.068l2.6-2.117a1.053 1.053 0 0 1 1.072-.146l.024.01a1.051 1.051 0 0 1 .653.86l.34 3.334a.989.989 0 0 0 .984.889h5.482a.989.989 0 0 0 .984-.889l.34-3.334a1.051 1.051 0 0 1 .653-.86l.024-.01a1.052 1.052 0 0 1 1.072.145l2.6 2.117a.989.989 0 0 0 1.324-.068l3.877-3.877a.989.989 0 0 0 .067-1.324l-2.116-2.6a1.054 1.054 0 0 1-.145-1.073l.01-.023a1.051 1.051 0 0 1 .86-.653l3.334-.341a.989.989 0 0 0 .888-.984v-5.477a.988.988 0 0 0-.896-.984zm-1.089 5.573l-2.445.25a3.026 3.026 0 0 0-2.487 1.865l-.009.021a3.028 3.028 0 0 0 .439 3.08l1.552 1.906-2.614 2.614-1.905-1.554a3.028 3.028 0 0 0-3.078-.439l-.022.009a3.025 3.025 0 0 0-1.865 2.49l-.25 2.445h-3.7l-.25-2.445a3.024 3.024 0 0 0-1.863-2.486l-.022-.01a3.028 3.028 0 0 0-3.079.439l-1.903 1.549-2.614-2.614 1.553-1.905a3.027 3.027 0 0 0 .439-3.078l-.009-.022a3.026 3.026 0 0 0-2.487-1.866l-2.445-.25v-3.7l2.445-.25a3.025 3.025 0 0 0 2.486-1.865l.009-.021a3.027 3.027 0 0 0-.438-3.074L5.427 7.541l2.614-2.614L9.946 6.48a3.029 3.029 0 0 0 3.079.439l.02-.009a3.026 3.026 0 0 0 1.865-2.487l.25-2.445h3.7l.25 2.445a3.025 3.025 0 0 0 1.862 2.487l.021.009a3.028 3.028 0 0 0 3.079-.439l1.906-1.552 2.614 2.614-2.362 2.9a.989.989 0 0 0-.1 1.1 10.322 10.322 0 0 1 .844 2.037.989.989 0 0 0 .848.7l3.721.38zm0 0" class="cls-1" data-name="Path 1888"/>
        <path id="Path_1889" d="M203.9 213.388l-2.857 2.857-1.305-1.305a.989.989 0 1 0-1.4 1.4l2 2a.989.989 0 0 0 1.4 0l3.556-3.556a.989.989 0 0 0-1.4-1.4zm0 0" class="cls-1" data-name="Path 1889" transform="translate(-184.811 -199.356)"/>
        <path id="Path_1890" d="M141.9 133.5a7.9 7.9 0 1 0 7.9 7.9 7.91 7.91 0 0 0-7.9-7.9zm0 13.824a5.923 5.923 0 1 1 5.923-5.923 5.93 5.93 0 0 1-5.923 5.919zm0 0" class="cls-1" data-name="Path 1890" transform="translate(-124.887 -124.887)"/>
    </g>
</svg>
