<svg xmlns="http://www.w3.org/2000/svg" width="95.095" height="94.886" viewBox="0 0 95.095 94.886">
    <defs>
        <style>
            .cls-1{fill:#0045ff}.cls-2{fill:rgba(196,194,194,.25)}
        </style>
    </defs>
    <g id="Group_3401" data-name="Group 3401" transform="translate(-1120.871 -1024)">
        <g id="company" transform="translate(1130.871 1033.887)">
            <path id="Path_1979" d="M64.558 22.975v-3.694H61.82V13.8h-5.477V4.221h-2.738V13.8h-2.738V.113h-2.738V13.8H45.39V4.221h-2.738V13.8h-5.476v5.476h-2.739v19.173H11.462l-1.369 5.477H0l5.477 38.335H.209V85H85.1V17.5zm17.8 5.89h-4.109v-6.706l4.107-1.1zM4.331 54.878l-.392-2.738h5.854v2.738zm8.2-2.738h5.477v2.738h-5.477zm38.336-2.74H45.39v-2.736h5.476zm-8.215 0h-5.476v-2.736h5.477zm-8.215 0h-5.476v-2.736h5.477zm-8.215 0h-5.476v-2.736h5.477zm-8.215 0h-5.476v-2.736h5.477zm2.738 2.738h5.477v2.738h-5.476zm8.215 0h5.477v2.738h-5.476zm8.215 0h5.477v2.738h-5.476zm8.215 0h5.476v2.738H45.39zm2.439-8.215l-1.369-5.474h-3.808v-16.43H61.82v60.242h-8.215V43.925zM64.558 31.6h4.107v5.48h-4.107zm6.846 0h4.107v5.48H71.4zm0-2.738v-4.878l4.107-1.1v5.977zm6.845 2.738h4.107v5.48h-4.107zm-9.584-6.89v4.151h-4.107v-3.052zm-28.751-8.167h19.168v2.738H39.914zm-2.738 5.476h2.738v16.43h-2.738zM13.6 41.187h30.72l.685 2.738H12.916zm-3.807 5.477V49.4H3.548l-.391-2.738zM4.722 57.617h46.145v24.644h-2.738V71.308H37.176v10.953h-2.739V71.308H23.484v10.953h-2.738V71.308H9.793v10.953H8.242zM45.39 82.261h-5.476v-8.215h5.476zm-13.691 0h-5.476v-8.215H31.7zm-13.691 0h-5.477v-8.215h5.477zm46.55 0V39.818h17.8v42.443zm0 0" class="cls-1" data-name="Path 1979"/>
            <path id="Path_1980" d="M57.223 352.113h2.738v2.738h-2.738zm0 0" class="cls-1" data-name="Path 1980" transform="translate(-47.43 -291.758)"/>
            <path id="Path_1981" d="M105.223 352.113h2.738v2.738h-2.738zm0 0" class="cls-1" data-name="Path 1981" transform="translate(-87.215 -291.758)"/>
            <path id="Path_1982" d="M153.223 352.113h2.738v2.738h-2.738zm0 0" class="cls-1" data-name="Path 1982" transform="translate(-127 -291.758)"/>
            <path id="Path_1983" d="M201.223 352.113h2.738v2.738h-2.738zm0 0" class="cls-1" data-name="Path 1983" transform="translate(-166.785 -291.758)"/>
            <path id="Path_1984" d="M249.223 352.113h2.738v2.738h-2.738zm0 0" class="cls-1" data-name="Path 1984" transform="translate(-206.571 -291.758)"/>
            <path id="Path_1985" d="M57.223 384.113h2.738v2.738h-2.738zm0 0" class="cls-1" data-name="Path 1985" transform="translate(-47.43 -318.282)"/>
            <path id="Path_1986" d="M105.223 384.113h2.738v2.738h-2.738zm0 0" class="cls-1" data-name="Path 1986" transform="translate(-87.215 -318.282)"/>
            <path id="Path_1987" d="M153.223 384.113h2.738v2.738h-2.738zm0 0" class="cls-1" data-name="Path 1987" transform="translate(-127 -318.282)"/>
            <path id="Path_1988" d="M201.223 384.113h2.738v2.738h-2.738zm0 0" class="cls-1" data-name="Path 1988" transform="translate(-166.785 -318.282)"/>
            <path id="Path_1989" d="M249.223 384.113h2.738v2.738h-2.738zm0 0" class="cls-1" data-name="Path 1989" transform="translate(-206.571 -318.282)"/>
            <path id="Path_1990" d="M265.223 144.113h2.738v2.738h-2.738zm0 0" class="cls-1" data-name="Path 1990" transform="translate(-219.832 -119.356)"/>
            <path id="Path_1991" d="M297.223 144.113h2.738v2.738h-2.738zm0 0" class="cls-1" data-name="Path 1991" transform="translate(-246.356 -119.356)"/>
            <path id="Path_1992" d="M329.223 144.113h2.738v2.738h-2.738zm0 0" class="cls-1" data-name="Path 1992" transform="translate(-272.879 -119.356)"/>
            <path id="Path_1993" d="M265.223 176.113h2.738v2.738h-2.738zm0 0" class="cls-1" data-name="Path 1993" transform="translate(-219.832 -145.879)"/>
            <path id="Path_1994" d="M297.223 176.113h2.738v2.738h-2.738zm0 0" class="cls-1" data-name="Path 1994" transform="translate(-246.356 -145.879)"/>
            <path id="Path_1995" d="M329.223 176.113h2.738v2.738h-2.738zm0 0" class="cls-1" data-name="Path 1995" transform="translate(-272.879 -145.879)"/>
            <path id="Path_1996" d="M393.223 248.113h2.738v2.738h-2.738zm0 0" class="cls-1" data-name="Path 1996" transform="translate(-325.926 -205.557)"/>
            <path id="Path_1997" d="M425.223 248.113h2.738v2.738h-2.738zm0 0" class="cls-1" data-name="Path 1997" transform="translate(-352.45 -205.557)"/>
            <path id="Path_1998" d="M457.223 248.113h2.738v2.738h-2.738zm0 0" class="cls-1" data-name="Path 1998" transform="translate(-378.973 -205.557)"/>
            <path id="Path_1999" d="M393.223 280.113h2.738v2.738h-2.738zm0 0" class="cls-1" data-name="Path 1999" transform="translate(-325.926 -232.081)"/>
            <path id="Path_2000" d="M425.223 280.113h2.738v2.738h-2.738zm0 0" class="cls-1" data-name="Path 2000" transform="translate(-352.45 -232.081)"/>
            <path id="Path_2001" d="M457.223 280.113h2.738v2.738h-2.738zm0 0" class="cls-1" data-name="Path 2001" transform="translate(-378.973 -232.081)"/>
            <path id="Path_2002" d="M393.223 368.113h2.738v2.738h-2.738zm0 0" class="cls-1" data-name="Path 2002" transform="translate(-325.926 -305.02)"/>
            <path id="Path_2003" d="M425.223 368.113h2.738v2.738h-2.738zm0 0" class="cls-1" data-name="Path 2003" transform="translate(-352.45 -305.02)"/>
            <path id="Path_2004" d="M457.223 368.113h2.738v2.738h-2.738zm0 0" class="cls-1" data-name="Path 2004" transform="translate(-378.973 -305.02)"/>
            <path id="Path_2005" d="M393.223 400.113h2.738v2.738h-2.738zm0 0" class="cls-1" data-name="Path 2005" transform="translate(-325.926 -331.544)"/>
            <path id="Path_2006" d="M425.223 400.113h2.738v2.738h-2.738zm0 0" class="cls-1" data-name="Path 2006" transform="translate(-352.45 -331.544)"/>
            <path id="Path_2007" d="M457.223 400.113h2.738v2.738h-2.738zm0 0" class="cls-1" data-name="Path 2007" transform="translate(-378.973 -331.544)"/>
            <path id="Path_2008" d="M297.223 208.113h2.738v2.738h-2.738zm0 0" class="cls-1" data-name="Path 2008" transform="translate(-246.356 -172.403)"/>
            <path id="Path_2009" d="M329.223 208.113h2.738v2.738h-2.738zm0 0" class="cls-1" data-name="Path 2009" transform="translate(-272.879 -172.403)"/>
            <path id="Path_2010" d="M329.223 240.113h2.738v2.738h-2.738zm0 0" class="cls-1" data-name="Path 2010" transform="translate(-272.879 -198.926)"/>
            <path id="Path_2011" d="M329.223 272.113h2.738v2.738h-2.738zm0 0" class="cls-1" data-name="Path 2011" transform="translate(-272.879 -225.45)"/>
            <path id="Path_2012" d="M329.223 304.113h2.738v2.738h-2.738zm0 0" class="cls-1" data-name="Path 2012" transform="translate(-272.879 -251.973)"/>
            <path id="Path_2013" d="M329.223 336.113h2.738v2.738h-2.738zm0 0" class="cls-1" data-name="Path 2013" transform="translate(-272.879 -278.497)"/>
            <path id="Path_2014" d="M329.223 368.113h2.738v2.738h-2.738zm0 0" class="cls-1" data-name="Path 2014" transform="translate(-272.879 -305.02)"/>
        </g>
        <g id="company-2" data-name="company" transform="translate(1120.871 1023.887)">
            <path id="Path_1979-2" d="M64.558 22.975v-3.694H61.82V13.8h-5.477V4.221h-2.738V13.8h-2.738V.113h-2.738V13.8H45.39V4.221h-2.738V13.8h-5.476v5.476h-2.739v19.173H11.462l-1.369 5.477H0l5.477 38.335H.209V85H85.1V17.5zm17.8 5.89h-4.109v-6.706l4.107-1.1zM4.331 54.878l-.392-2.738h5.854v2.738zm8.2-2.738h5.477v2.738h-5.477zm38.336-2.74H45.39v-2.736h5.476zm-8.215 0h-5.476v-2.736h5.477zm-8.215 0h-5.476v-2.736h5.477zm-8.215 0h-5.476v-2.736h5.477zm-8.215 0h-5.476v-2.736h5.477zm2.738 2.738h5.477v2.738h-5.476zm8.215 0h5.477v2.738h-5.476zm8.215 0h5.477v2.738h-5.476zm8.215 0h5.476v2.738H45.39zm2.439-8.215l-1.369-5.474h-3.808v-16.43H61.82v60.242h-8.215V43.925zM64.558 31.6h4.107v5.48h-4.107zm6.846 0h4.107v5.48H71.4zm0-2.738v-4.878l4.107-1.1v5.977zm6.845 2.738h4.107v5.48h-4.107zm-9.584-6.89v4.151h-4.107v-3.052zm-28.751-8.167h19.168v2.738H39.914zm-2.738 5.476h2.738v16.43h-2.738zM13.6 41.187h30.72l.685 2.738H12.916zm-3.807 5.477V49.4H3.548l-.391-2.738zM4.722 57.617h46.145v24.644h-2.738V71.308H37.176v10.953h-2.739V71.308H23.484v10.953h-2.738V71.308H9.793v10.953H8.242zM45.39 82.261h-5.476v-8.215h5.476zm-13.691 0h-5.476v-8.215H31.7zm-13.691 0h-5.477v-8.215h5.477zm46.55 0V39.818h17.8v42.443zm0 0" class="cls-2" data-name="Path 1979"/>
            <path id="Path_1980-2" d="M57.223 352.113h2.738v2.738h-2.738zm0 0" class="cls-2" data-name="Path 1980" transform="translate(-47.43 -291.758)"/>
            <path id="Path_1981-2" d="M105.223 352.113h2.738v2.738h-2.738zm0 0" class="cls-2" data-name="Path 1981" transform="translate(-87.215 -291.758)"/>
            <path id="Path_1982-2" d="M153.223 352.113h2.738v2.738h-2.738zm0 0" class="cls-2" data-name="Path 1982" transform="translate(-127 -291.758)"/>
            <path id="Path_1983-2" d="M201.223 352.113h2.738v2.738h-2.738zm0 0" class="cls-2" data-name="Path 1983" transform="translate(-166.785 -291.758)"/>
            <path id="Path_1984-2" d="M249.223 352.113h2.738v2.738h-2.738zm0 0" class="cls-2" data-name="Path 1984" transform="translate(-206.571 -291.758)"/>
            <path id="Path_1985-2" d="M57.223 384.113h2.738v2.738h-2.738zm0 0" class="cls-2" data-name="Path 1985" transform="translate(-47.43 -318.282)"/>
            <path id="Path_1986-2" d="M105.223 384.113h2.738v2.738h-2.738zm0 0" class="cls-2" data-name="Path 1986" transform="translate(-87.215 -318.282)"/>
            <path id="Path_1987-2" d="M153.223 384.113h2.738v2.738h-2.738zm0 0" class="cls-2" data-name="Path 1987" transform="translate(-127 -318.282)"/>
            <path id="Path_1988-2" d="M201.223 384.113h2.738v2.738h-2.738zm0 0" class="cls-2" data-name="Path 1988" transform="translate(-166.785 -318.282)"/>
            <path id="Path_1989-2" d="M249.223 384.113h2.738v2.738h-2.738zm0 0" class="cls-2" data-name="Path 1989" transform="translate(-206.571 -318.282)"/>
            <path id="Path_1990-2" d="M265.223 144.113h2.738v2.738h-2.738zm0 0" class="cls-2" data-name="Path 1990" transform="translate(-219.832 -119.356)"/>
            <path id="Path_1991-2" d="M297.223 144.113h2.738v2.738h-2.738zm0 0" class="cls-2" data-name="Path 1991" transform="translate(-246.356 -119.356)"/>
            <path id="Path_1992-2" d="M329.223 144.113h2.738v2.738h-2.738zm0 0" class="cls-2" data-name="Path 1992" transform="translate(-272.879 -119.356)"/>
            <path id="Path_1993-2" d="M265.223 176.113h2.738v2.738h-2.738zm0 0" class="cls-2" data-name="Path 1993" transform="translate(-219.832 -145.879)"/>
            <path id="Path_1994-2" d="M297.223 176.113h2.738v2.738h-2.738zm0 0" class="cls-2" data-name="Path 1994" transform="translate(-246.356 -145.879)"/>
            <path id="Path_1995-2" d="M329.223 176.113h2.738v2.738h-2.738zm0 0" class="cls-2" data-name="Path 1995" transform="translate(-272.879 -145.879)"/>
            <path id="Path_1996-2" d="M393.223 248.113h2.738v2.738h-2.738zm0 0" class="cls-2" data-name="Path 1996" transform="translate(-325.926 -205.557)"/>
            <path id="Path_1997-2" d="M425.223 248.113h2.738v2.738h-2.738zm0 0" class="cls-2" data-name="Path 1997" transform="translate(-352.45 -205.557)"/>
            <path id="Path_1998-2" d="M457.223 248.113h2.738v2.738h-2.738zm0 0" class="cls-2" data-name="Path 1998" transform="translate(-378.973 -205.557)"/>
            <path id="Path_1999-2" d="M393.223 280.113h2.738v2.738h-2.738zm0 0" class="cls-2" data-name="Path 1999" transform="translate(-325.926 -232.081)"/>
            <path id="Path_2000-2" d="M425.223 280.113h2.738v2.738h-2.738zm0 0" class="cls-2" data-name="Path 2000" transform="translate(-352.45 -232.081)"/>
            <path id="Path_2001-2" d="M457.223 280.113h2.738v2.738h-2.738zm0 0" class="cls-2" data-name="Path 2001" transform="translate(-378.973 -232.081)"/>
            <path id="Path_2002-2" d="M393.223 368.113h2.738v2.738h-2.738zm0 0" class="cls-2" data-name="Path 2002" transform="translate(-325.926 -305.02)"/>
            <path id="Path_2003-2" d="M425.223 368.113h2.738v2.738h-2.738zm0 0" class="cls-2" data-name="Path 2003" transform="translate(-352.45 -305.02)"/>
            <path id="Path_2004-2" d="M457.223 368.113h2.738v2.738h-2.738zm0 0" class="cls-2" data-name="Path 2004" transform="translate(-378.973 -305.02)"/>
            <path id="Path_2005-2" d="M393.223 400.113h2.738v2.738h-2.738zm0 0" class="cls-2" data-name="Path 2005" transform="translate(-325.926 -331.544)"/>
            <path id="Path_2006-2" d="M425.223 400.113h2.738v2.738h-2.738zm0 0" class="cls-2" data-name="Path 2006" transform="translate(-352.45 -331.544)"/>
            <path id="Path_2007-2" d="M457.223 400.113h2.738v2.738h-2.738zm0 0" class="cls-2" data-name="Path 2007" transform="translate(-378.973 -331.544)"/>
            <path id="Path_2008-2" d="M297.223 208.113h2.738v2.738h-2.738zm0 0" class="cls-2" data-name="Path 2008" transform="translate(-246.356 -172.403)"/>
            <path id="Path_2009-2" d="M329.223 208.113h2.738v2.738h-2.738zm0 0" class="cls-2" data-name="Path 2009" transform="translate(-272.879 -172.403)"/>
            <path id="Path_2010-2" d="M329.223 240.113h2.738v2.738h-2.738zm0 0" class="cls-2" data-name="Path 2010" transform="translate(-272.879 -198.926)"/>
            <path id="Path_2011-2" d="M329.223 272.113h2.738v2.738h-2.738zm0 0" class="cls-2" data-name="Path 2011" transform="translate(-272.879 -225.45)"/>
            <path id="Path_2012-2" d="M329.223 304.113h2.738v2.738h-2.738zm0 0" class="cls-2" data-name="Path 2012" transform="translate(-272.879 -251.973)"/>
            <path id="Path_2013-2" d="M329.223 336.113h2.738v2.738h-2.738zm0 0" class="cls-2" data-name="Path 2013" transform="translate(-272.879 -278.497)"/>
            <path id="Path_2014-2" d="M329.223 368.113h2.738v2.738h-2.738zm0 0" class="cls-2" data-name="Path 2014" transform="translate(-272.879 -305.02)"/>
        </g>
    </g>
</svg>
