<svg xmlns="http://www.w3.org/2000/svg" width="128.324" height="95.247" viewBox="0 0 128.324 95.247">
    <defs>
        <style>
            .cls-1,.cls-10,.cls-13,.cls-2,.cls-3,.cls-4,.cls-5{fill:rgba(255,255,255,.59)}.cls-1{clip-rule:evenodd}.cls-10,.cls-11,.cls-2{stroke:rgba(196,194,194,.5)}.cls-4{fill-rule:evenodd}.cls-13,.cls-14,.cls-5{stroke:#0045ff}.cls-6{opacity:.5}.cls-7{clip-path:url(#clip-path)}.cls-8{clip-path:url(#clip-path-2)}.cls-9{clip-path:url(#clip-path-3)}.cls-10,.cls-13{stroke-width:6px}.cls-11,.cls-14{fill:none;stroke-linecap:round;stroke-linejoin:bevel;stroke-width:2px}.cls-12{clip-path:url(#clip-path-5)}
        </style>
        <clipPath id="clip-path">
            <path id="Path_50" d="M9.981-200h99.808c5.512 0 9.981 4.852 9.981 10.836v65.019c0 5.985-4.469 10.836-9.981 10.836H9.981C4.469-113.308 0-118.16 0-124.145v-65.019C0-195.148 4.469-200 9.981-200z" class="cls-1" data-name="Path 50" transform="translate(0 200)"/>
        </clipPath>
        <clipPath id="clip-path-2">
            <path id="Rectangle_14" d="M0 0h143.723v112.699H0z" class="cls-2" data-name="Rectangle 14"/>
        </clipPath>
        <clipPath id="clip-path-3">
            <path id="Path_49" d="M0-113.308h119.769V-200H0z" class="cls-3" data-name="Path 49" transform="translate(0 200)"/>
        </clipPath>
        <clipPath id="clip-path-5">
            <path id="Rectangle_14-2" d="M0 0h143.723v112.699H0z" class="cls-5" data-name="Rectangle 14"/>
        </clipPath>
    </defs>
    <g id="Group_3297" data-name="Group 3297" transform="translate(-363 -1024)">
        <g id="Group_3010" class="cls-6" data-name="Group 3010" transform="translate(363 1024)">
            <g id="Group_21" class="cls-7" data-name="Group 21">
                <g id="Group_20" class="cls-8" data-name="Group 20" transform="translate(-11.977 -13.004)">
                    <g id="Group_19" class="cls-9" data-name="Group 19" transform="translate(11.977 13.004)">
                        <g id="Group_18" data-name="Group 18">
                            <path id="Path_48" d="M9.981 0h99.808c5.512 0 9.981 4.852 9.981 10.836v65.019c0 5.985-4.469 10.836-9.981 10.836H9.981C4.469 86.692 0 81.84 0 75.855V10.836C0 4.852 4.469 0 9.981 0z" class="cls-10" data-name="Path 48"/>
                        </g>
                    </g>
                </g>
            </g>
            <g id="Group_22" data-name="Group 22" transform="translate(15.604 13.437)">
                <path id="Path_51" d="M0 0l9.536 7.369L0 13.871" class="cls-11" data-name="Path 51"/>
            </g>
            <g id="Group_23" data-name="Group 23" transform="translate(27.741 27.308)">
                <path id="Path_52" d="M0 .5h15.171" class="cls-11" data-name="Path 52" transform="translate(0 -.5)"/>
            </g>
        </g>
        <g id="Group_24" data-name="Group 24" transform="translate(371.555 1032.555)">
            <g id="Group_21-2" class="cls-7" data-name="Group 21">
                <g id="Group_20-2" class="cls-12" data-name="Group 20" transform="translate(-11.977 -13.004)">
                    <g id="Group_19-2" class="cls-9" data-name="Group 19" transform="translate(11.977 13.004)">
                        <g id="Group_18-2" data-name="Group 18">
                            <path id="Path_48-2" d="M9.981 0h99.808c5.512 0 9.981 4.852 9.981 10.836v65.019c0 5.985-4.469 10.836-9.981 10.836H9.981C4.469 86.692 0 81.84 0 75.855V10.836C0 4.852 4.469 0 9.981 0z" class="cls-13" data-name="Path 48"/>
                        </g>
                    </g>
                </g>
            </g>
            <g id="Group_22-2" data-name="Group 22" transform="translate(15.604 13.437)">
                <path id="Path_51-2" d="M0 0l9.536 7.369L0 13.871" class="cls-14" data-name="Path 51"/>
            </g>
            <g id="Group_23-2" data-name="Group 23" transform="translate(27.741 27.308)">
                <path id="Path_52-2" d="M0 .5h15.171" class="cls-14" data-name="Path 52" transform="translate(0 -.5)"/>
            </g>
        </g>
    </g>
</svg>
