<svg xmlns="http://www.w3.org/2000/svg" width="96.248" height="96.247" viewBox="0 0 96.248 96.247">
    <defs>
        <style>
            .cls-1{fill:rgba(196,194,194,.25)}.cls-2{fill:#0045ff}
        </style>
    </defs>
    <g id="Group_3397" data-name="Group 3397" transform="translate(-981.076 -1023)">
        <g id="freelancer" transform="translate(981.077 1022.996)">
            <path id="Path_1967" d="M266.883 105.441a1.437 1.437 0 1 1-1.438-1.441 1.438 1.438 0 0 1 1.438 1.441zm0 0" class="cls-1" data-name="Path 1967" transform="translate(-216.572 -85.313)"/>
            <path id="Path_1968" d="M202.883 105.441a1.437 1.437 0 1 1-1.438-1.441 1.438 1.438 0 0 1 1.438 1.441zm0 0" class="cls-1" data-name="Path 1968" transform="translate(-164.071 -85.313)"/>
            <path id="Path_1969" d="M218.07 300.316a1.437 1.437 0 0 0-1.437 1.437 2.875 2.875 0 1 1-2.875-2.875 1.437 1.437 0 1 0 0-2.875 5.75 5.75 0 1 0 5.75 5.75 1.437 1.437 0 0 0-1.438-1.437zm0 0" class="cls-1" data-name="Path 1969" transform="translate(-170.634 -242.815)"/>
            <path id="Path_1970" d="M84.817 60.377h-11.5a1.438 1.438 0 0 0-1.437 1.437v8.625a7.186 7.186 0 0 0 1.437 4.312H63.255v-23A5.75 5.75 0 0 0 57.506 46H46.595l4.312-4.312h5.161A10.062 10.062 0 0 1 66.13 51.752v18.687a1.437 1.437 0 0 0 2.875 0V51.752a12.937 12.937 0 0 0-12.937-12.937h-4.312V35.94a14.375 14.375 0 0 0 5.75-11.5v-2.286A11.5 11.5 0 0 0 53.193 0H24.444a2.875 2.875 0 0 0-2.875 2.875V11.5a11.5 11.5 0 0 0 7.187 10.651v2.289a14.375 14.375 0 0 0 5.75 11.5v2.875h-4.312a12.937 12.937 0 0 0-12.937 12.937v18.687a1.437 1.437 0 0 0 2.875 0V51.752A10.062 10.062 0 0 1 30.194 41.69h5.16L39.667 46h-10.91a5.749 5.749 0 0 0-5.75 5.75v23h-8.625v-2.874a4.313 4.313 0 0 0-4.312-4.312H7.2a4.312 4.312 0 0 0-4.312 4.312v2.875H1.445a1.438 1.438 0 0 0-1.437 1.437v8.625a1.438 1.438 0 0 0 1.437 1.437h83.372a1.438 1.438 0 0 0 1.437-1.437v-8.625a1.438 1.438 0 0 0-1.437-1.437 7.191 7.191 0 0 0 1.437-4.312v-8.625a1.438 1.438 0 0 0-1.437-1.437zM31.632 24.44v-11.5h11.5a1.437 1.437 0 1 0 0-2.875H30.194a1.438 1.438 0 0 0-1.437 1.435v7.46a8.625 8.625 0 0 1-4.312-7.46V2.879h28.748a8.625 8.625 0 0 1 4.312 16.085V11.5a1.438 1.438 0 0 0-1.437-1.437h-5.75a1.437 1.437 0 0 0 0 2.875h4.312v11.5a11.5 11.5 0 1 1-23 0zm11.5 14.374a14.265 14.265 0 0 0 5.75-1.208v2.056l-5.75 5.75-5.75-5.75v-2.055a14.26 14.26 0 0 0 5.749 1.208zm-17.25 12.938a2.875 2.875 0 0 1 2.875-2.875h28.749a2.875 2.875 0 0 1 2.875 2.875V69h-34.5zm0 20.124h34.5v2.875h-34.5zm-20.124 0A1.438 1.438 0 0 1 7.2 70.439h2.87a1.438 1.438 0 0 1 1.437 1.437v2.875H5.758zm77.622 11.5H2.883v-5.75h80.5zm-8.625-12.937v-7.188h8.625v7.187a4.312 4.312 0 1 1-8.625 0zm0 0" class="cls-1" data-name="Path 1970" transform="translate(-.007)"/>
            <path id="Path_1971" d="M419.687 264.482a1.437 1.437 0 1 0-2.487 1.437 1.767 1.767 0 0 1-.158 1.941 4.613 4.613 0 0 0-.46 5.247 1.436 1.436 0 1 0 2.487-1.437 1.769 1.769 0 0 1 .158-1.941 4.613 4.613 0 0 0 .46-5.247zm0 0" class="cls-1" data-name="Path 1971" transform="translate(-341.231 -216.323)"/>
            <path id="Path_1972" d="M451.687 264.482a1.437 1.437 0 1 0-2.487 1.437 1.767 1.767 0 0 1-.158 1.941 4.613 4.613 0 0 0-.46 5.247 1.436 1.436 0 1 0 2.487-1.437 1.769 1.769 0 0 1 .158-1.941 4.613 4.613 0 0 0 .46-5.247zm0 0" class="cls-1" data-name="Path 1972" transform="translate(-367.481 -216.323)"/>
            <path id="Path_1973" d="M32.192 172.533a1.437 1.437 0 0 0 1.006-2.458 7.187 7.187 0 0 0-10.163 0 1.443 1.443 0 1 0 2.042 2.041 4.312 4.312 0 0 1 6.094 0 1.44 1.44 0 0 0 1.021.417zm0 0" class="cls-1" data-name="Path 1973" transform="translate(-18.55 -137.786)"/>
            <path id="Path_1974" d="M2.459 141.845a10.062 10.062 0 0 1 14.231 0 1.433 1.433 0 0 0 2.027-2.026 12.937 12.937 0 0 0-18.3 0 1.438 1.438 0 1 0 2.041 2.026zm0 0" class="cls-1" data-name="Path 1974" transform="translate(0 -111.583)"/>
            <path id="Path_1975" d="M48.16 201.441A1.437 1.437 0 1 1 46.723 200a1.438 1.438 0 0 1 1.437 1.441zm0 0" class="cls-1" data-name="Path 1975" transform="translate(-37.149 -164.064)"/>
            <path id="Path_1976" d="M46.723 242.066a1.438 1.438 0 0 0 1.437-1.437v-7.187a1.437 1.437 0 0 0-2.875 0v7.187a1.438 1.438 0 0 0 1.438 1.437zm0 0" class="cls-1" data-name="Path 1976" transform="translate(-37.149 -190.314)"/>
            <path id="Path_1977" d="M411.91 25.049a5.75 5.75 0 1 0-9.43 0 4.311 4.311 0 0 0-2.472 3.9v5.75a1.437 1.437 0 1 0 2.875 0v-5.75a1.438 1.438 0 0 1 1.437-1.437h5.75a1.437 1.437 0 0 1 1.437 1.437v5.75a1.437 1.437 0 0 0 2.875 0v-5.75a4.313 4.313 0 0 0-2.472-3.9zm-4.71-6.167a2.875 2.875 0 1 1-2.875 2.875 2.875 2.875 0 0 1 2.875-2.875zm0 0" class="cls-1" data-name="Path 1977" transform="translate(-328.135 -13.128)"/>
            <path id="Path_1978" d="M369.445 158.378h8.625a5.75 5.75 0 0 0 5.75-5.75v-7.187a1.437 1.437 0 1 0-2.875 0v7.187a2.875 2.875 0 0 1-2.875 2.875h-8.625a1.437 1.437 0 0 0 0 2.875zm0 0" class="cls-1" data-name="Path 1978" transform="translate(-301.885 -118.126)"/>
        </g>
        <g id="freelancer-2" data-name="freelancer" transform="translate(991.077 1032.996)">
            <path id="Path_1967-2" d="M266.883 105.441a1.437 1.437 0 1 1-1.438-1.441 1.438 1.438 0 0 1 1.438 1.441zm0 0" class="cls-2" data-name="Path 1967" transform="translate(-216.572 -85.313)"/>
            <path id="Path_1968-2" d="M202.883 105.441a1.437 1.437 0 1 1-1.438-1.441 1.438 1.438 0 0 1 1.438 1.441zm0 0" class="cls-2" data-name="Path 1968" transform="translate(-164.071 -85.313)"/>
            <path id="Path_1969-2" d="M218.07 300.316a1.437 1.437 0 0 0-1.437 1.437 2.875 2.875 0 1 1-2.875-2.875 1.437 1.437 0 1 0 0-2.875 5.75 5.75 0 1 0 5.75 5.75 1.437 1.437 0 0 0-1.438-1.437zm0 0" class="cls-2" data-name="Path 1969" transform="translate(-170.634 -242.815)"/>
            <path id="Path_1970-2" d="M84.817 60.377h-11.5a1.438 1.438 0 0 0-1.437 1.437v8.625a7.186 7.186 0 0 0 1.437 4.312H63.255v-23A5.75 5.75 0 0 0 57.506 46H46.595l4.312-4.312h5.161A10.062 10.062 0 0 1 66.13 51.752v18.687a1.437 1.437 0 0 0 2.875 0V51.752a12.937 12.937 0 0 0-12.937-12.937h-4.312V35.94a14.375 14.375 0 0 0 5.75-11.5v-2.286A11.5 11.5 0 0 0 53.193 0H24.444a2.875 2.875 0 0 0-2.875 2.875V11.5a11.5 11.5 0 0 0 7.187 10.651v2.289a14.375 14.375 0 0 0 5.75 11.5v2.875h-4.312a12.937 12.937 0 0 0-12.937 12.937v18.687a1.437 1.437 0 0 0 2.875 0V51.752A10.062 10.062 0 0 1 30.194 41.69h5.16L39.667 46h-10.91a5.749 5.749 0 0 0-5.75 5.75v23h-8.625v-2.874a4.313 4.313 0 0 0-4.312-4.312H7.2a4.312 4.312 0 0 0-4.312 4.312v2.875H1.445a1.438 1.438 0 0 0-1.437 1.437v8.625a1.438 1.438 0 0 0 1.437 1.437h83.372a1.438 1.438 0 0 0 1.437-1.437v-8.625a1.438 1.438 0 0 0-1.437-1.437 7.191 7.191 0 0 0 1.437-4.312v-8.625a1.438 1.438 0 0 0-1.437-1.437zM31.632 24.44v-11.5h11.5a1.437 1.437 0 1 0 0-2.875H30.194a1.438 1.438 0 0 0-1.437 1.435v7.46a8.625 8.625 0 0 1-4.312-7.46V2.879h28.748a8.625 8.625 0 0 1 4.312 16.085V11.5a1.438 1.438 0 0 0-1.437-1.437h-5.75a1.437 1.437 0 0 0 0 2.875h4.312v11.5a11.5 11.5 0 1 1-23 0zm11.5 14.374a14.265 14.265 0 0 0 5.75-1.208v2.056l-5.75 5.75-5.75-5.75v-2.055a14.26 14.26 0 0 0 5.749 1.208zm-17.25 12.938a2.875 2.875 0 0 1 2.875-2.875h28.749a2.875 2.875 0 0 1 2.875 2.875V69h-34.5zm0 20.124h34.5v2.875h-34.5zm-20.124 0A1.438 1.438 0 0 1 7.2 70.439h2.87a1.438 1.438 0 0 1 1.437 1.437v2.875H5.758zm77.622 11.5H2.883v-5.75h80.5zm-8.625-12.937v-7.188h8.625v7.187a4.312 4.312 0 1 1-8.625 0zm0 0" class="cls-2" data-name="Path 1970" transform="translate(-.007)"/>
            <path id="Path_1971-2" d="M419.687 264.482a1.437 1.437 0 1 0-2.487 1.437 1.767 1.767 0 0 1-.158 1.941 4.613 4.613 0 0 0-.46 5.247 1.436 1.436 0 1 0 2.487-1.437 1.769 1.769 0 0 1 .158-1.941 4.613 4.613 0 0 0 .46-5.247zm0 0" class="cls-2" data-name="Path 1971" transform="translate(-341.231 -216.323)"/>
            <path id="Path_1972-2" d="M451.687 264.482a1.437 1.437 0 1 0-2.487 1.437 1.767 1.767 0 0 1-.158 1.941 4.613 4.613 0 0 0-.46 5.247 1.436 1.436 0 1 0 2.487-1.437 1.769 1.769 0 0 1 .158-1.941 4.613 4.613 0 0 0 .46-5.247zm0 0" class="cls-2" data-name="Path 1972" transform="translate(-367.481 -216.323)"/>
            <path id="Path_1973-2" d="M32.192 172.533a1.437 1.437 0 0 0 1.006-2.458 7.187 7.187 0 0 0-10.163 0 1.443 1.443 0 1 0 2.042 2.041 4.312 4.312 0 0 1 6.094 0 1.44 1.44 0 0 0 1.021.417zm0 0" class="cls-2" data-name="Path 1973" transform="translate(-18.55 -137.786)"/>
            <path id="Path_1974-2" d="M2.459 141.845a10.062 10.062 0 0 1 14.231 0 1.433 1.433 0 0 0 2.027-2.026 12.937 12.937 0 0 0-18.3 0 1.438 1.438 0 1 0 2.041 2.026zm0 0" class="cls-2" data-name="Path 1974" transform="translate(0 -111.583)"/>
            <path id="Path_1975-2" d="M48.16 201.441A1.437 1.437 0 1 1 46.723 200a1.438 1.438 0 0 1 1.437 1.441zm0 0" class="cls-2" data-name="Path 1975" transform="translate(-37.149 -164.064)"/>
            <path id="Path_1976-2" d="M46.723 242.066a1.438 1.438 0 0 0 1.437-1.437v-7.187a1.437 1.437 0 0 0-2.875 0v7.187a1.438 1.438 0 0 0 1.438 1.437zm0 0" class="cls-2" data-name="Path 1976" transform="translate(-37.149 -190.314)"/>
            <path id="Path_1977-2" d="M411.91 25.049a5.75 5.75 0 1 0-9.43 0 4.311 4.311 0 0 0-2.472 3.9v5.75a1.437 1.437 0 1 0 2.875 0v-5.75a1.438 1.438 0 0 1 1.437-1.437h5.75a1.437 1.437 0 0 1 1.437 1.437v5.75a1.437 1.437 0 0 0 2.875 0v-5.75a4.313 4.313 0 0 0-2.472-3.9zm-4.71-6.167a2.875 2.875 0 1 1-2.875 2.875 2.875 2.875 0 0 1 2.875-2.875zm0 0" class="cls-2" data-name="Path 1977" transform="translate(-328.135 -13.128)"/>
            <path id="Path_1978-2" d="M369.445 158.378h8.625a5.75 5.75 0 0 0 5.75-5.75v-7.187a1.437 1.437 0 1 0-2.875 0v7.187a2.875 2.875 0 0 1-2.875 2.875h-8.625a1.437 1.437 0 0 0 0 2.875zm0 0" class="cls-2" data-name="Path 1978" transform="translate(-301.885 -118.126)"/>
        </g>
    </g>
</svg>
