<svg xmlns="http://www.w3.org/2000/svg" width="94.91" height="94.886" viewBox="0 0 94.91 94.886">
    <defs>
        <style>
            .cls-1{opacity:.494}.cls-2{fill:rgba(196,194,194,.49)}.cls-3{fill:#0045ff}
        </style>
    </defs>
    <g id="Group_3300" data-name="Group 3300" transform="translate(-823 -1024)">
        <g id="project-management" class="cls-1" transform="translate(823 1024)">
            <g id="Group_76" data-name="Group 76" transform="translate(0 .356)">
                <g id="Group_75" data-name="Group 75">
                    <path id="Path_78" d="M85.126 24.364l-5.574-.8A1.433 1.433 0 0 1 78.891 21l4.509-3.377a1.433 1.433 0 0 0 .287-2.006l-5.163-6.878a1.433 1.433 0 0 0-2.006-.287l-4.5 3.379a1.433 1.433 0 0 1-2.284-1.348l.8-5.574a1.433 1.433 0 0 0-1.215-1.622L60.8 2.071a1.433 1.433 0 0 0-1.622 1.215l-.8 5.574a1.433 1.433 0 0 1-2.565.658l-3.369-4.505a1.433 1.433 0 0 0-2.006-.287l-4.306 3.232a27.724 27.724 0 0 0-5.861 0A27.225 27.225 0 0 0 16.266 32.37c-.039.406-.053.808-.073 1.211h-.43a1.433 1.433 0 0 0-1.4 1.146l-.99 4.708L9.406 36.7a1.433 1.433 0 0 0-1.827.166l-4.3 4.3a1.433 1.433 0 0 0-.166 1.826l2.723 3.958-4.71.99A1.433 1.433 0 0 0 0 49.343v5.732a1.433 1.433 0 0 0 1.138 1.4l4.71.99-2.723 3.961a1.433 1.433 0 0 0 .166 1.826l4.3 4.3a1.433 1.433 0 0 0 1.827.166l3.959-2.73.99 4.71a1.433 1.433 0 0 0 1.4 1.146H21.5a1.433 1.433 0 0 0 1.4-1.138l.99-4.71 3.959 2.723a1.433 1.433 0 0 0 1.826-.166L31.9 65.32v4.08a5.713 5.713 0 0 0 2.866 4.935V82.3a5.732 5.732 0 0 0 5.734 5.731h5.732a5.732 5.732 0 0 0 5.731-5.731v-7.962a5.713 5.713 0 0 0 2.865-4.938v-5.668a7.021 7.021 0 0 1 3.314-5.849 27.5 27.5 0 0 0 3.374-2.583L59.6 53.169a24.393 24.393 0 0 1-3.019 2.308 9.87 9.87 0 0 0-4.623 8.255V69.4a2.866 2.866 0 0 1-2.858 2.869H37.634a2.866 2.866 0 0 1-2.866-2.869v-5.79a9.641 9.641 0 0 0-4.545-8.087 24.286 24.286 0 0 1 12.834-44.85 1.558 1.558 0 0 0-.056.156 1.433 1.433 0 0 0 .274 1.062l3.377 4.5a1.4 1.4 0 0 1 .086 1.591 1.424 1.424 0 0 1-1.433.689l-5.574-.8a1.433 1.433 0 0 0-1.622 1.229l-1.217 8.51a1.433 1.433 0 0 0 1.215 1.622l5.574.8a1.433 1.433 0 0 1 .658 2.565l-4.5 3.377a1.433 1.433 0 0 0-.287 2.006l5.158 6.878a1.433 1.433 0 0 0 2.006.287l4.505-3.377A1.433 1.433 0 0 1 53.5 43.11l-.8 5.574a1.433 1.433 0 0 0 1.215 1.622l8.511 1.217a1.587 1.587 0 0 0 .2.013 1.433 1.433 0 0 0 1.42-1.229l.8-5.574a1.433 1.433 0 0 1 2.565-.658l3.379 4.5a1.433 1.433 0 0 0 2.006.287l6.878-5.158a1.433 1.433 0 0 0 .286-2.004l-3.377-4.5a1.408 1.408 0 0 1-.086-1.591 1.391 1.391 0 0 1 1.433-.688l5.574.8a1.433 1.433 0 0 0 1.621-1.221l1.215-8.511a1.433 1.433 0 0 0-1.214-1.625zM37.634 75.135H49.1V78H37.634zm0 5.732H49.1V82.3a2.866 2.866 0 0 1-2.866 2.866H40.5a2.866 2.866 0 0 1-2.866-2.866zM26.226 56.156a27.083 27.083 0 0 0 2.449 1.784 6.994 6.994 0 0 1 2.887 3.667l-3.074 3.068-2.976-2.052a2.866 2.866 0 0 0-4.431 1.77l-.751 3.578h-3.405l-.75-3.571a2.866 2.866 0 0 0-4.431-1.77l-2.978 2.045-2.61-2.605 2.05-2.97a2.866 2.866 0 0 0-1.768-4.432l-3.572-.752v-3.4l3.572-.752a2.866 2.866 0 0 0 1.77-4.423l-2.052-2.994 2.611-2.605 2.979 2.052a2.866 2.866 0 0 0 4.429-1.771l.251-1.192a27.287 27.287 0 0 0 1.136 4.859 8.6 8.6 0 1 0 8.665 12.466zM24 54.137a5.723 5.723 0 1 1-5.374-7.66h.054a27.138 27.138 0 0 0 5.32 7.66zM82.483 32.67l-4.155-.593a4.3 4.3 0 0 0-4.047 6.835l2.519 3.357-4.585 3.439-2.519-3.356A4.3 4.3 0 0 0 62 44.322l-.58 4.161-5.673-.811.593-4.155a4.3 4.3 0 0 0-6.835-4.048l-3.357 2.518-3.439-4.587 3.356-2.519a4.3 4.3 0 0 0-1.97-7.695l-4.155-.593.811-5.673 4.155.593a4.3 4.3 0 0 0 4.048-6.835l-2.526-3.36 4.585-3.438 2.519 3.357a4.3 4.3 0 0 0 7.695-1.97l.593-4.155 5.673.81-.593 4.155a4.3 4.3 0 0 0 6.835 4.046l3.357-2.518 3.439 4.585-3.358 2.52a4.3 4.3 0 0 0 1.97 7.695L83.3 27z" class="cls-2" data-name="Path 78" transform="translate(0 -2.057)"/>
                </g>
            </g>
            <g id="Group_78" data-name="Group 78" transform="translate(50.151 13.631)">
                <g id="Group_77" data-name="Group 77">
                    <path id="Path_79" d="M291.463 76.171a11.463 11.463 0 1 0 11.463 11.463 11.463 11.463 0 0 0-11.463-11.463zm0 20.061a8.6 8.6 0 1 1 8.6-8.6 8.6 8.6 0 0 1-8.6 8.6z" class="cls-2" data-name="Path 79" transform="translate(-280 -76.171)"/>
                </g>
            </g>
            <g id="Group_80" data-name="Group 80" transform="translate(41.932 63.404)">
                <g id="Group_79" data-name="Group 79">
                    <path id="Rectangle_15" d="M0 0h2.866v4.299H0z" class="cls-2" data-name="Rectangle 15"/>
                </g>
            </g>
            <g id="Group_82" data-name="Group 82" transform="translate(23.292 16.339)">
                <g id="Group_81" data-name="Group 81">
                    <path id="Path_80" d="M143.85 124.283a17.195 17.195 0 0 1-2.9-30.568l-1.532-2.424a20.061 20.061 0 0 0 3.395 35.659 9.148 9.148 0 0 1 5.875 8.54h2.866a11.989 11.989 0 0 0-7.704-11.207z" class="cls-2" data-name="Path 80" transform="translate(-130.044 -91.291)"/>
                </g>
            </g>
            <g id="Group_84" data-name="Group 84" transform="translate(70.59 53.374)">
                <g id="Group_83" data-name="Group 83">
                    <path id="Rectangle_16" d="M0 0h10.03v2.866H0z" class="cls-2" data-name="Rectangle 16"/>
                </g>
            </g>
            <g id="Group_86" data-name="Group 86" transform="translate(68.24 60.87)">
                <g id="Group_85" data-name="Group 85">
                    <path id="Rectangle_17" d="M0 0h2.866v11.191H0z" class="cls-2" data-name="Rectangle 17" transform="rotate(-50.201 2.35 1.101)"/>
                </g>
            </g>
            <g id="Group_88" data-name="Group 88" transform="translate(61.993 64.837)">
                <g id="Group_87" data-name="Group 87">
                    <path id="Rectangle_18" d="M0 0h2.866v10.03H0z" class="cls-2" data-name="Rectangle 18"/>
                </g>
            </g>
            <g id="Group_90" data-name="Group 90" transform="translate(1.463 21.892)">
                <g id="Group_89" data-name="Group 89">
                    <path id="Rectangle_19" d="M0 0h11.815v2.864H0z" class="cls-2" data-name="Rectangle 19" transform="rotate(-14.035 11.637 1.433)"/>
                </g>
            </g>
            <g id="Group_92" data-name="Group 92" transform="translate(3.843 7.79)">
                <g id="Group_91" data-name="Group 91">
                    <path id="Rectangle_20" d="M0 0h2.864v12.325H0z" class="cls-2" data-name="Rectangle 20" transform="rotate(-54.463 2.265 1.165)"/>
                </g>
            </g>
            <g id="Group_94" data-name="Group 94" transform="translate(16.121)">
                <g id="Group_93" data-name="Group 93">
                    <path id="Rectangle_21" d="M0 0h2.866v11.831H0z" class="cls-2" data-name="Rectangle 21" transform="rotate(-14.342 2.822 .355)"/>
                </g>
            </g>
        </g>
        <g id="project-management-2" data-name="project-management" transform="translate(831.555 1032.555)">
            <g id="Group_76-2" data-name="Group 76" transform="translate(0 .356)">
                <g id="Group_75-2" data-name="Group 75">
                    <path id="Path_78-2" d="M85.126 24.364l-5.574-.8A1.433 1.433 0 0 1 78.891 21l4.509-3.377a1.433 1.433 0 0 0 .287-2.006l-5.163-6.878a1.433 1.433 0 0 0-2.006-.287l-4.5 3.379a1.433 1.433 0 0 1-2.284-1.348l.8-5.574a1.433 1.433 0 0 0-1.215-1.622L60.8 2.071a1.433 1.433 0 0 0-1.622 1.215l-.8 5.574a1.433 1.433 0 0 1-2.565.658l-3.369-4.505a1.433 1.433 0 0 0-2.006-.287l-4.306 3.232a27.724 27.724 0 0 0-5.861 0A27.225 27.225 0 0 0 16.266 32.37c-.039.406-.053.808-.073 1.211h-.43a1.433 1.433 0 0 0-1.4 1.146l-.99 4.708L9.406 36.7a1.433 1.433 0 0 0-1.827.166l-4.3 4.3a1.433 1.433 0 0 0-.166 1.826l2.723 3.958-4.71.99A1.433 1.433 0 0 0 0 49.343v5.732a1.433 1.433 0 0 0 1.138 1.4l4.71.99-2.723 3.961a1.433 1.433 0 0 0 .166 1.826l4.3 4.3a1.433 1.433 0 0 0 1.827.166l3.959-2.73.99 4.71a1.433 1.433 0 0 0 1.4 1.146H21.5a1.433 1.433 0 0 0 1.4-1.138l.99-4.71 3.959 2.723a1.433 1.433 0 0 0 1.826-.166L31.9 65.32v4.08a5.713 5.713 0 0 0 2.866 4.935V82.3a5.732 5.732 0 0 0 5.734 5.731h5.732a5.732 5.732 0 0 0 5.731-5.731v-7.962a5.713 5.713 0 0 0 2.865-4.938v-5.668a7.021 7.021 0 0 1 3.314-5.849 27.5 27.5 0 0 0 3.374-2.583L59.6 53.169a24.393 24.393 0 0 1-3.019 2.308 9.87 9.87 0 0 0-4.623 8.255V69.4a2.866 2.866 0 0 1-2.858 2.869H37.634a2.866 2.866 0 0 1-2.866-2.869v-5.79a9.641 9.641 0 0 0-4.545-8.087 24.286 24.286 0 0 1 12.834-44.85 1.558 1.558 0 0 0-.056.156 1.433 1.433 0 0 0 .274 1.062l3.377 4.5a1.4 1.4 0 0 1 .086 1.591 1.424 1.424 0 0 1-1.433.689l-5.574-.8a1.433 1.433 0 0 0-1.622 1.229l-1.217 8.51a1.433 1.433 0 0 0 1.215 1.622l5.574.8a1.433 1.433 0 0 1 .658 2.565l-4.5 3.377a1.433 1.433 0 0 0-.287 2.006l5.158 6.878a1.433 1.433 0 0 0 2.006.287l4.505-3.377A1.433 1.433 0 0 1 53.5 43.11l-.8 5.574a1.433 1.433 0 0 0 1.215 1.622l8.511 1.217a1.587 1.587 0 0 0 .2.013 1.433 1.433 0 0 0 1.42-1.229l.8-5.574a1.433 1.433 0 0 1 2.565-.658l3.379 4.5a1.433 1.433 0 0 0 2.006.287l6.878-5.158a1.433 1.433 0 0 0 .286-2.004l-3.377-4.5a1.408 1.408 0 0 1-.086-1.591 1.391 1.391 0 0 1 1.433-.688l5.574.8a1.433 1.433 0 0 0 1.621-1.221l1.215-8.511a1.433 1.433 0 0 0-1.214-1.625zM37.634 75.135H49.1V78H37.634zm0 5.732H49.1V82.3a2.866 2.866 0 0 1-2.866 2.866H40.5a2.866 2.866 0 0 1-2.866-2.866zM26.226 56.156a27.083 27.083 0 0 0 2.449 1.784 6.994 6.994 0 0 1 2.887 3.667l-3.074 3.068-2.976-2.052a2.866 2.866 0 0 0-4.431 1.77l-.751 3.578h-3.405l-.75-3.571a2.866 2.866 0 0 0-4.431-1.77l-2.978 2.045-2.61-2.605 2.05-2.97a2.866 2.866 0 0 0-1.768-4.432l-3.572-.752v-3.4l3.572-.752a2.866 2.866 0 0 0 1.77-4.423l-2.052-2.994 2.611-2.605 2.979 2.052a2.866 2.866 0 0 0 4.429-1.771l.251-1.192a27.287 27.287 0 0 0 1.136 4.859 8.6 8.6 0 1 0 8.665 12.466zM24 54.137a5.723 5.723 0 1 1-5.374-7.66h.054a27.138 27.138 0 0 0 5.32 7.66zM82.483 32.67l-4.155-.593a4.3 4.3 0 0 0-4.047 6.835l2.519 3.357-4.585 3.439-2.519-3.356A4.3 4.3 0 0 0 62 44.322l-.58 4.161-5.673-.811.593-4.155a4.3 4.3 0 0 0-6.835-4.048l-3.357 2.518-3.439-4.587 3.356-2.519a4.3 4.3 0 0 0-1.97-7.695l-4.155-.593.811-5.673 4.155.593a4.3 4.3 0 0 0 4.048-6.835l-2.526-3.36 4.585-3.438 2.519 3.357a4.3 4.3 0 0 0 7.695-1.97l.593-4.155 5.673.81-.593 4.155a4.3 4.3 0 0 0 6.835 4.046l3.357-2.518 3.439 4.585-3.358 2.52a4.3 4.3 0 0 0 1.97 7.695L83.3 27z" class="cls-3" data-name="Path 78" transform="translate(0 -2.057)"/>
                </g>
            </g>
            <g id="Group_78-2" data-name="Group 78" transform="translate(50.151 13.631)">
                <g id="Group_77-2" data-name="Group 77">
                    <path id="Path_79-2" d="M291.463 76.171a11.463 11.463 0 1 0 11.463 11.463 11.463 11.463 0 0 0-11.463-11.463zm0 20.061a8.6 8.6 0 1 1 8.6-8.6 8.6 8.6 0 0 1-8.6 8.6z" class="cls-3" data-name="Path 79" transform="translate(-280 -76.171)"/>
                </g>
            </g>
            <g id="Group_80-2" data-name="Group 80" transform="translate(41.932 63.404)">
                <g id="Group_79-2" data-name="Group 79">
                    <path id="Rectangle_15-2" d="M0 0h2.866v4.299H0z" class="cls-3" data-name="Rectangle 15"/>
                </g>
            </g>
            <g id="Group_82-2" data-name="Group 82" transform="translate(23.292 16.339)">
                <g id="Group_81-2" data-name="Group 81">
                    <path id="Path_80-2" d="M143.85 124.283a17.195 17.195 0 0 1-2.9-30.568l-1.532-2.424a20.061 20.061 0 0 0 3.395 35.659 9.148 9.148 0 0 1 5.875 8.54h2.866a11.989 11.989 0 0 0-7.704-11.207z" class="cls-3" data-name="Path 80" transform="translate(-130.044 -91.291)"/>
                </g>
            </g>
            <g id="Group_84-2" data-name="Group 84" transform="translate(70.59 53.374)">
                <g id="Group_83-2" data-name="Group 83">
                    <path id="Rectangle_16-2" d="M0 0h10.03v2.866H0z" class="cls-3" data-name="Rectangle 16"/>
                </g>
            </g>
            <g id="Group_86-2" data-name="Group 86" transform="translate(68.24 60.87)">
                <g id="Group_85-2" data-name="Group 85">
                    <path id="Rectangle_17-2" d="M0 0h2.866v11.191H0z" class="cls-3" data-name="Rectangle 17" transform="rotate(-50.201 2.35 1.101)"/>
                </g>
            </g>
            <g id="Group_88-2" data-name="Group 88" transform="translate(61.993 64.837)">
                <g id="Group_87-2" data-name="Group 87">
                    <path id="Rectangle_18-2" d="M0 0h2.866v10.03H0z" class="cls-3" data-name="Rectangle 18"/>
                </g>
            </g>
            <g id="Group_90-2" data-name="Group 90" transform="translate(1.463 21.892)">
                <g id="Group_89-2" data-name="Group 89">
                    <path id="Rectangle_19-2" d="M0 0h11.815v2.864H0z" class="cls-3" data-name="Rectangle 19" transform="rotate(-14.035 11.637 1.433)"/>
                </g>
            </g>
            <g id="Group_92-2" data-name="Group 92" transform="translate(3.843 7.79)">
                <g id="Group_91-2" data-name="Group 91">
                    <path id="Rectangle_20-2" d="M0 0h2.864v12.325H0z" class="cls-3" data-name="Rectangle 20" transform="rotate(-54.463 2.265 1.165)"/>
                </g>
            </g>
            <g id="Group_94-2" data-name="Group 94" transform="translate(16.121)">
                <g id="Group_93-2" data-name="Group 93">
                    <path id="Rectangle_21-2" d="M0 0h2.866v11.831H0z" class="cls-3" data-name="Rectangle 21" transform="rotate(-14.342 2.822 .355)"/>
                </g>
            </g>
        </g>
    </g>
</svg>
