<svg xmlns="http://www.w3.org/2000/svg" width="95.246" height="95.247" viewBox="0 0 95.246 95.247">
    <defs>
        <style>
            .cls-1{opacity:.49}.cls-2{fill:rgba(196,194,194,.5)}.cls-3{fill:#0045ff}
        </style>
    </defs>
    <g id="Group_3298" data-name="Group 3298" transform="translate(-539 -1024)">
        <g id="startup" class="cls-1" transform="translate(539 1024)">
            <path id="Path_37" d="M289.246 130.875a7.256 7.256 0 1 1 5.13-2.125 7.256 7.256 0 0 1-5.13 2.125zm0-11.609a4.354 4.354 0 0 0-3.078 7.432 4.459 4.459 0 0 0 6.156 0 4.354 4.354 0 0 0-3.078-7.432zm0 0" class="cls-2" data-name="Path 37" transform="translate(-230.92 -95.254)"/>
            <path id="Path_38" d="M242.562 202.135l-4.106 4.1a1.451 1.451 0 1 0 2.052 2.052l4.105-4.1a1.451 1.451 0 0 0-2.052-2.052zm0 0" class="cls-2" data-name="Path 38" transform="translate(-194.922 -165.134)"/>
            <path id="Path_39" d="M211.133 247.385l-1.026 1.026a1.451 1.451 0 1 0 2.051 2.052l1.026-1.026a1.451 1.451 0 0 0-2.052-2.052zm0 0" class="cls-2" data-name="Path 39" transform="translate(-171.702 -202.176)"/>
            <path id="Path_40" d="M144.528 2.831l-.09-1.258A1.452 1.452 0 0 0 143.1.237l-1.258-.1a47.8 47.8 0 0 0-41.231 18.054l-6.007 7.6a18.787 18.787 0 0 0-23.45 2.563 1.451 1.451 0 0 0 0 2.058L82.21 41.485l-.157.2a4.354 4.354 0 0 0 .337 5.778l.051.05-3.077 3.075a7.267 7.267 0 0 0 0 10.262l4.457 4.457a7.27 7.27 0 0 0 10.262 0l3.078-3.079.05.049a4.353 4.353 0 0 0 5.778.34l.2-.159 11.065 11.058a1.452 1.452 0 0 0 2.053 0 18.792 18.792 0 0 0 2.562-23.453l7.605-6a47.819 47.819 0 0 0 18.054-41.232zm-70.246 26.6A15.88 15.88 0 0 1 92.8 28.085l-8.777 11.1zm17.749 33.814a4.361 4.361 0 0 1-6.158 0l-4.457-4.455a4.363 4.363 0 0 1 0-6.159l3.084-3.076 10.609 10.612zm26.909-3.067a15.86 15.86 0 0 1-3.7 10.208l-9.754-9.744 11.1-8.775a15.739 15.739 0 0 1 2.354 8.312zm5.734-18.405l-23.481 18.562a1.45 1.45 0 0 1-1.924-.111L84.446 45.406a1.45 1.45 0 0 1-.113-1.929L102.9 19.995a44.974 44.974 0 0 1 12.552-10.912L135.6 29.217a45 45 0 0 1-10.926 12.556zm12.363-15.223L118.112 7.632A44.9 44.9 0 0 1 138.167 2.9c1.145 0 2.3.044 3.448.133l.019.018a44.941 44.941 0 0 1-4.597 23.499zm0 0" class="cls-2" data-name="Path 40" transform="translate(-57.98 .003)"/>
            <path id="Path_41" d="M1.907 368.037A1.451 1.451 0 0 1 .485 366.3c.335-1.63 3.372-16.025 6.979-19.63a10.159 10.159 0 0 1 14.366 14.362c-3.6 3.605-17.994 6.642-19.628 6.977a1.584 1.584 0 0 1-.295.028zm12.738-21.445a7.2 7.2 0 0 0-5.129 2.124c-1.99 1.99-4.354 10.092-5.71 15.97 5.88-1.349 13.982-3.719 15.97-5.708a7.256 7.256 0 0 0-5.13-12.387zm0 0" class="cls-2" data-name="Path 41" transform="translate(-.455 -281.346)"/>
            <path id="Path_42" d="M174.2 400.827a1.451 1.451 0 0 1-1.026-2.477l6.155-6.157a1.451 1.451 0 0 1 2.052 2.052l-6.155 6.157a1.451 1.451 0 0 1-1.026.425zm0 0" class="cls-2" data-name="Path 42" transform="translate(-141.493 -320.717)"/>
            <path id="Path_43" d="M238.2 408.827a1.451 1.451 0 0 1-1.026-2.477l6.155-6.157a1.451 1.451 0 0 1 2.052 2.052l-6.155 6.157a1.451 1.451 0 0 1-1.026.425zm0 0" class="cls-2" data-name="Path 43" transform="translate(-193.884 -327.266)"/>
            <path id="Path_44" d="M145.908 452.1a1.451 1.451 0 0 1-1.026-2.477l1.026-1.026a1.451 1.451 0 1 1 2.052 2.052l-1.026 1.026a1.451 1.451 0 0 1-1.026.425zm0 0" class="cls-2" data-name="Path 44" transform="translate(-118.336 -366.862)"/>
            <path id="Path_45" d="M30.2 264.827a1.451 1.451 0 0 1-1.026-2.477l6.155-6.157a1.451 1.451 0 0 1 2.052 2.052l-6.158 6.155a1.451 1.451 0 0 1-1.023.427zm0 0" class="cls-2" data-name="Path 45" transform="translate(-23.614 -209.387)"/>
            <path id="Path_46" d="M30.2 200.827a1.451 1.451 0 0 1-1.026-2.477l6.155-6.157a1.451 1.451 0 0 1 2.052 2.052l-6.158 6.155a1.451 1.451 0 0 1-1.023.427zm0 0" class="cls-2" data-name="Path 46" transform="translate(-23.614 -156.996)"/>
            <path id="Path_47" d="M1.908 316.1a1.451 1.451 0 0 1-1.026-2.477l1.026-1.023a1.451 1.451 0 1 1 2.052 2.052l-1.026 1.026a1.451 1.451 0 0 1-1.026.422zm0 0" class="cls-2" data-name="Path 47" transform="translate(-.457 -255.532)"/>
        </g>
        <g id="startup-2" data-name="startup" transform="translate(547.555 1032.555)">
            <path id="Path_37-2" d="M289.246 130.875a7.256 7.256 0 1 1 5.13-2.125 7.256 7.256 0 0 1-5.13 2.125zm0-11.609a4.354 4.354 0 0 0-3.078 7.432 4.459 4.459 0 0 0 6.156 0 4.354 4.354 0 0 0-3.078-7.432zm0 0" class="cls-3" data-name="Path 37" transform="translate(-230.92 -95.254)"/>
            <path id="Path_38-2" d="M242.562 202.135l-4.106 4.1a1.451 1.451 0 1 0 2.052 2.052l4.105-4.1a1.451 1.451 0 0 0-2.052-2.052zm0 0" class="cls-3" data-name="Path 38" transform="translate(-194.922 -165.134)"/>
            <path id="Path_39-2" d="M211.133 247.385l-1.026 1.026a1.451 1.451 0 1 0 2.051 2.052l1.026-1.026a1.451 1.451 0 0 0-2.052-2.052zm0 0" class="cls-3" data-name="Path 39" transform="translate(-171.702 -202.176)"/>
            <path id="Path_40-2" d="M144.528 2.831l-.09-1.258A1.452 1.452 0 0 0 143.1.237l-1.258-.1a47.8 47.8 0 0 0-41.231 18.054l-6.007 7.6a18.787 18.787 0 0 0-23.45 2.563 1.451 1.451 0 0 0 0 2.058L82.21 41.485l-.157.2a4.354 4.354 0 0 0 .337 5.778l.051.05-3.077 3.075a7.267 7.267 0 0 0 0 10.262l4.457 4.457a7.27 7.27 0 0 0 10.262 0l3.078-3.079.05.049a4.353 4.353 0 0 0 5.778.34l.2-.159 11.065 11.058a1.452 1.452 0 0 0 2.053 0 18.792 18.792 0 0 0 2.562-23.453l7.605-6a47.819 47.819 0 0 0 18.054-41.232zm-70.246 26.6A15.88 15.88 0 0 1 92.8 28.085l-8.777 11.1zm17.749 33.814a4.361 4.361 0 0 1-6.158 0l-4.457-4.455a4.363 4.363 0 0 1 0-6.159l3.084-3.076 10.609 10.612zm26.909-3.067a15.86 15.86 0 0 1-3.7 10.208l-9.754-9.744 11.1-8.775a15.739 15.739 0 0 1 2.354 8.312zm5.734-18.405l-23.481 18.562a1.45 1.45 0 0 1-1.924-.111L84.446 45.406a1.45 1.45 0 0 1-.113-1.929L102.9 19.995a44.974 44.974 0 0 1 12.552-10.912L135.6 29.217a45 45 0 0 1-10.926 12.556zm12.363-15.223L118.112 7.632A44.9 44.9 0 0 1 138.167 2.9c1.145 0 2.3.044 3.448.133l.019.018a44.941 44.941 0 0 1-4.597 23.499zm0 0" class="cls-3" data-name="Path 40" transform="translate(-57.98 .003)"/>
            <path id="Path_41-2" d="M1.907 368.037A1.451 1.451 0 0 1 .485 366.3c.335-1.63 3.372-16.025 6.979-19.63a10.159 10.159 0 0 1 14.366 14.362c-3.6 3.605-17.994 6.642-19.628 6.977a1.584 1.584 0 0 1-.295.028zm12.738-21.445a7.2 7.2 0 0 0-5.129 2.124c-1.99 1.99-4.354 10.092-5.71 15.97 5.88-1.349 13.982-3.719 15.97-5.708a7.256 7.256 0 0 0-5.13-12.387zm0 0" class="cls-3" data-name="Path 41" transform="translate(-.455 -281.346)"/>
            <path id="Path_42-2" d="M174.2 400.827a1.451 1.451 0 0 1-1.026-2.477l6.155-6.157a1.451 1.451 0 0 1 2.052 2.052l-6.155 6.157a1.451 1.451 0 0 1-1.026.425zm0 0" class="cls-3" data-name="Path 42" transform="translate(-141.493 -320.717)"/>
            <path id="Path_43-2" d="M238.2 408.827a1.451 1.451 0 0 1-1.026-2.477l6.155-6.157a1.451 1.451 0 0 1 2.052 2.052l-6.155 6.157a1.451 1.451 0 0 1-1.026.425zm0 0" class="cls-3" data-name="Path 43" transform="translate(-193.884 -327.266)"/>
            <path id="Path_44-2" d="M145.908 452.1a1.451 1.451 0 0 1-1.026-2.477l1.026-1.026a1.451 1.451 0 1 1 2.052 2.052l-1.026 1.026a1.451 1.451 0 0 1-1.026.425zm0 0" class="cls-3" data-name="Path 44" transform="translate(-118.336 -366.862)"/>
            <path id="Path_45-2" d="M30.2 264.827a1.451 1.451 0 0 1-1.026-2.477l6.155-6.157a1.451 1.451 0 0 1 2.052 2.052l-6.158 6.155a1.451 1.451 0 0 1-1.023.427zm0 0" class="cls-3" data-name="Path 45" transform="translate(-23.614 -209.387)"/>
            <path id="Path_46-2" d="M30.2 200.827a1.451 1.451 0 0 1-1.026-2.477l6.155-6.157a1.451 1.451 0 0 1 2.052 2.052l-6.158 6.155a1.451 1.451 0 0 1-1.023.427zm0 0" class="cls-3" data-name="Path 46" transform="translate(-23.614 -156.996)"/>
            <path id="Path_47-2" d="M1.908 316.1a1.451 1.451 0 0 1-1.026-2.477l1.026-1.023a1.451 1.451 0 1 1 2.052 2.052l-1.026 1.026a1.451 1.451 0 0 1-1.026.422zm0 0" class="cls-3" data-name="Path 47" transform="translate(-.457 -255.532)"/>
        </g>
    </g>
</svg>
