<svg xmlns="http://www.w3.org/2000/svg" width="126.222" height="79.916" viewBox="0 0 126.222 79.916">
    <defs>
        <style>
            .cls-1{fill:rgba(196,194,194,.25)}.cls-2{fill:#0045ff}
        </style>
    </defs>
    <g id="Group_3398" data-name="Group 3398" transform="translate(-1047.972 -1044.555)">
        <path id="mortarboard" d="M115.2 25.367L58.813.152a1.714 1.714 0 0 0-1.4 0L34.546 10.375a1.719 1.719 0 0 0 1.4 3.139L58.11 3.605l20.29 9.071V25.34a70.5 70.5 0 0 0-20.239-4.247h-.1a71.031 71.031 0 0 0-22.608 5.163A58.6 58.6 0 0 0 22.7 33.349a1.719 1.719 0 0 0-.6.819L5.931 26.937 28.6 16.8a1.719 1.719 0 0 0-1.4-3.139L1.017 25.367a1.719 1.719 0 0 0 0 3.139l20.989 9.387v8.233a1.719 1.719 0 0 0 3.439 0v-10.52a55.624 55.624 0 0 1 11.31-6.167 69.141 69.141 0 0 1 21.357-4.908A68.787 68.787 0 0 1 78.4 29.013V46.1a6.073 6.073 0 0 0-.6 11.439L76.6 60.7c-7.845 1.35-14.058 3.209-18.487 5.537-10.2-5.359-27.284-6.874-32.665-7.229v-4.821a1.719 1.719 0 1 0-3.439 0v6.447a1.72 1.72 0 0 0 1.644 1.718c.224.01 22.569 1.053 33.609 7.341a1.718 1.718 0 0 0 1.7 0c3.712-2.116 9.277-3.91 16.209-5.239l-1.016 2.676a1.719 1.719 0 0 0 1.607 2.33h8.711a1.72 1.72 0 0 0 1.608-2.33l-1.554-4.09c4.678-.536 8.007-.686 8.045-.688a1.719 1.719 0 0 0 1.645-1.718v-6.448a1.719 1.719 0 1 0-3.439 0v4.825c-1.6.108-4.272.322-7.511.713l-.831-2.187a6.073 6.073 0 0 0-.6-11.439V30.47a54.465 54.465 0 0 1 8.941 5.136v10.52a1.719 1.719 0 1 0 3.439 0v-8.233l20.984-9.387a1.719 1.719 0 0 0 0-3.139zM78.253 66.021l1.863-4.9 1.863 4.9zm4.5-14.1a2.636 2.636 0 1 1-2.636-2.636 2.638 2.638 0 0 1 2.635 2.639zm11.365-17.753a1.719 1.719 0 0 0-.6-.819 58.086 58.086 0 0 0-11.683-6.64v-12.5l28.455 12.728zm0 0" class="cls-1" transform="translate(1047.972 1044.553)"/>
        <path id="mortarboard-2" d="M115.2 25.367L58.813.152a1.714 1.714 0 0 0-1.4 0L34.546 10.375a1.719 1.719 0 0 0 1.4 3.139L58.11 3.605l20.29 9.071V25.34a70.5 70.5 0 0 0-20.239-4.247h-.1a71.031 71.031 0 0 0-22.608 5.163A58.6 58.6 0 0 0 22.7 33.349a1.719 1.719 0 0 0-.6.819L5.931 26.937 28.6 16.8a1.719 1.719 0 0 0-1.4-3.139L1.017 25.367a1.719 1.719 0 0 0 0 3.139l20.989 9.387v8.233a1.719 1.719 0 0 0 3.439 0v-10.52a55.624 55.624 0 0 1 11.31-6.167 69.141 69.141 0 0 1 21.357-4.908A68.787 68.787 0 0 1 78.4 29.013V46.1a6.073 6.073 0 0 0-.6 11.439L76.6 60.7c-7.845 1.35-14.058 3.209-18.487 5.537-10.2-5.359-27.284-6.874-32.665-7.229v-4.821a1.719 1.719 0 1 0-3.439 0v6.447a1.72 1.72 0 0 0 1.644 1.718c.224.01 22.569 1.053 33.609 7.341a1.718 1.718 0 0 0 1.7 0c3.712-2.116 9.277-3.91 16.209-5.239l-1.016 2.676a1.719 1.719 0 0 0 1.607 2.33h8.711a1.72 1.72 0 0 0 1.608-2.33l-1.554-4.09c4.678-.536 8.007-.686 8.045-.688a1.719 1.719 0 0 0 1.645-1.718v-6.448a1.719 1.719 0 1 0-3.439 0v4.825c-1.6.108-4.272.322-7.511.713l-.831-2.187a6.073 6.073 0 0 0-.6-11.439V30.47a54.465 54.465 0 0 1 8.941 5.136v10.52a1.719 1.719 0 1 0 3.439 0v-8.233l20.984-9.387a1.719 1.719 0 0 0 0-3.139zM78.253 66.021l1.863-4.9 1.863 4.9zm4.5-14.1a2.636 2.636 0 1 1-2.636-2.636 2.638 2.638 0 0 1 2.635 2.639zm11.365-17.753a1.719 1.719 0 0 0-.6-.819 58.086 58.086 0 0 0-11.683-6.64v-12.5l28.455 12.728zm0 0" class="cls-2" data-name="mortarboard" transform="translate(1057.972 1054.553)"/>
    </g>
</svg>
