<svg xmlns="http://www.w3.org/2000/svg" width="94.885" height="94.886" viewBox="0 0 94.885 94.886">
    <defs>
        <style>
            .cls-1{opacity:.49}.cls-2{fill:rgba(196,194,194,.5)}.cls-3{fill:#0045ff}
        </style>
    </defs>
    <g id="Group_3299" data-name="Group 3299" transform="translate(-681 -1024)">
        <g id="network" class="cls-1" transform="translate(681 1024)">
            <g id="Group_26" data-name="Group 26" transform="translate(74.82 17.266)">
                <g id="Group_25" data-name="Group 25">
                    <path id="Path_53" d="M449.489 102.4a5.755 5.755 0 1 0 5.755 5.755 5.761 5.761 0 0 0-5.755-5.755zm0 8.633a2.878 2.878 0 1 1 2.878-2.878 2.881 2.881 0 0 1-2.878 2.878z" class="cls-2" data-name="Path 53" transform="translate(-443.734 -102.4)"/>
                </g>
            </g>
            <g id="Group_28" data-name="Group 28" transform="translate(0 64.748)">
                <g id="Group_27" data-name="Group 27">
                    <path id="Path_54" d="M5.755 384a5.755 5.755 0 1 0 5.755 5.755A5.761 5.761 0 0 0 5.755 384zm0 8.633a2.878 2.878 0 1 1 2.878-2.878 2.881 2.881 0 0 1-2.878 2.878z" class="cls-2" data-name="Path 54" transform="translate(0 -384)"/>
                </g>
            </g>
            <g id="Group_30" data-name="Group 30" transform="translate(63.308 12.948)">
                <g id="Group_29" data-name="Group 29">
                    <path id="Path_55" d="M389.94 82.928l-12.413-5.993a1.439 1.439 0 0 0-1.25 2.591l12.413 5.993a1.439 1.439 0 0 0 1.25-2.591z" class="cls-2" data-name="Path 55" transform="translate(-375.463 -76.792)"/>
                </g>
            </g>
            <g id="Group_32" data-name="Group 32" transform="translate(58.993 74.82)">
                <g id="Group_31" data-name="Group 31">
                    <path id="Path_56" d="M355.622 443.733a5.755 5.755 0 1 0 5.755 5.755 5.761 5.761 0 0 0-5.755-5.755zm0 8.633a2.878 2.878 0 1 1 2.878-2.878 2.881 2.881 0 0 1-2.878 2.878z" class="cls-2" data-name="Path 56" transform="translate(-349.867 -443.733)"/>
                </g>
            </g>
            <g id="Group_34" data-name="Group 34" transform="translate(47.481 70.502)">
                <g id="Group_33" data-name="Group 33">
                    <path id="Path_57" d="M296.073 424.261l-12.413-5.993a1.439 1.439 0 1 0-1.25 2.591l12.413 5.993a1.439 1.439 0 1 0 1.25-2.591z" class="cls-2" data-name="Path 57" transform="translate(-281.596 -418.124)"/>
                </g>
            </g>
            <g id="Group_36" data-name="Group 36" transform="translate(37.41 38.849)">
                <g id="Group_35" data-name="Group 35">
                    <path id="Path_58" d="M227.622 230.4a5.755 5.755 0 1 0 5.755 5.755 5.761 5.761 0 0 0-5.755-5.755zm0 8.633a2.878 2.878 0 1 1 2.878-2.878 2.881 2.881 0 0 1-2.878 2.878z" class="cls-2" data-name="Path 58" transform="translate(-221.867 -230.4)"/>
                </g>
            </g>
            <g id="Group_38" data-name="Group 38" transform="translate(28.776 33.094)">
                <g id="Group_37" data-name="Group 37">
                    <path id="Path_59" d="M182.524 204.006l-9.535-7.432a1.439 1.439 0 0 0-1.77 2.271l9.535 7.432a1.439 1.439 0 1 0 1.77-2.271z" class="cls-2" data-name="Path 59" transform="translate(-170.664 -196.272)"/>
                </g>
            </g>
            <g id="Group_40" data-name="Group 40" transform="translate(53.237 37.41)">
                <g id="Group_39" data-name="Group 39">
                    <path id="Path_60" d="M331.56 221.867a15.827 15.827 0 1 0 15.827 15.827 15.846 15.846 0 0 0-15.827-15.827zm0 28.777a12.95 12.95 0 1 1 12.95-12.95 12.964 12.964 0 0 1-12.95 12.95z" class="cls-2" data-name="Path 60" transform="translate(-315.733 -221.867)"/>
                </g>
            </g>
            <g id="Group_42" data-name="Group 42" transform="translate(63.309 43.165)">
                <g id="Group_41" data-name="Group 41">
                    <path id="Path_61" d="M381.222 256a5.755 5.755 0 1 0 5.755 5.755 5.761 5.761 0 0 0-5.755-5.755zm0 8.633a2.878 2.878 0 1 1 2.878-2.878 2.881 2.881 0 0 1-2.878 2.878z" class="cls-2" data-name="Path 61" transform="translate(-375.467 -256)"/>
                </g>
            </g>
            <g id="Group_44" data-name="Group 44" transform="translate(60.431 57.554)">
                <g id="Group_43" data-name="Group 43">
                    <path id="Path_62" d="M371.207 341.333h-8.348a4.405 4.405 0 0 0-4.459 4.338v3.793a1.44 1.44 0 0 0 .718 1.246 15.747 15.747 0 0 0 15.83 0 1.437 1.437 0 0 0 .718-1.245v-3.793a4.405 4.405 0 0 0-4.459-4.339zm1.581 7.273a13.047 13.047 0 0 1-11.511 0v-2.934a1.527 1.527 0 0 1 1.581-1.462h8.348a1.527 1.527 0 0 1 1.581 1.462v2.934z" class="cls-2" data-name="Path 62" transform="translate(-358.4 -341.333)"/>
                </g>
            </g>
            <g id="Group_46" data-name="Group 46" transform="translate(18.705 54.676)">
                <g id="Group_45" data-name="Group 45">
                    <path id="Path_63" d="M126.76 324.267a15.827 15.827 0 1 0 15.827 15.827 15.846 15.846 0 0 0-15.827-15.827zm0 28.777a12.95 12.95 0 1 1 12.95-12.95 12.964 12.964 0 0 1-12.95 12.95z" class="cls-2" data-name="Path 63" transform="translate(-110.933 -324.267)"/>
                </g>
            </g>
            <g id="Group_48" data-name="Group 48" transform="translate(28.777 60.431)">
                <g id="Group_47" data-name="Group 47">
                    <path id="Path_64" d="M176.422 358.4a5.755 5.755 0 1 0 5.755 5.755 5.761 5.761 0 0 0-5.755-5.755zm0 8.633a2.878 2.878 0 1 1 2.878-2.878 2.881 2.881 0 0 1-2.878 2.878z" class="cls-2" data-name="Path 64" transform="translate(-170.667 -358.4)"/>
                </g>
            </g>
            <g id="Group_50" data-name="Group 50" transform="translate(25.899 74.82)">
                <g id="Group_49" data-name="Group 49">
                    <path id="Path_65" d="M166.407 443.733h-8.348a4.405 4.405 0 0 0-4.459 4.338v3.793a1.44 1.44 0 0 0 .718 1.246 15.747 15.747 0 0 0 15.83 0 1.437 1.437 0 0 0 .718-1.245v-3.793a4.405 4.405 0 0 0-4.459-4.339zm1.581 7.273a13.047 13.047 0 0 1-11.511 0v-2.934a1.527 1.527 0 0 1 1.581-1.462h8.348a1.527 1.527 0 0 1 1.581 1.462v2.934z" class="cls-2" data-name="Path 65" transform="translate(-153.6 -443.733)"/>
                </g>
            </g>
            <g id="Group_52" data-name="Group 52" transform="translate(0 18.705)">
                <g id="Group_51" data-name="Group 51">
                    <path id="Path_66" d="M15.827 110.933a15.827 15.827 0 1 0 15.828 15.827 15.846 15.846 0 0 0-15.828-15.827zm0 28.777a12.95 12.95 0 1 1 12.95-12.95 12.964 12.964 0 0 1-12.95 12.95z" class="cls-2" data-name="Path 66" transform="translate(0 -110.933)"/>
                </g>
            </g>
            <g id="Group_54" data-name="Group 54" transform="translate(10.072 24.46)">
                <g id="Group_53" data-name="Group 53">
                    <path id="Path_67" d="M65.489 145.067a5.755 5.755 0 1 0 5.755 5.755 5.761 5.761 0 0 0-5.755-5.755zm0 8.633a2.878 2.878 0 1 1 2.878-2.878 2.881 2.881 0 0 1-2.878 2.878z" class="cls-2" data-name="Path 67" transform="translate(-59.734 -145.067)"/>
                </g>
            </g>
            <g id="Group_56" data-name="Group 56" transform="translate(7.194 38.849)">
                <g id="Group_55" data-name="Group 55">
                    <path id="Path_68" d="M55.474 230.4h-8.348a4.405 4.405 0 0 0-4.459 4.338v3.793a1.44 1.44 0 0 0 .718 1.246 15.747 15.747 0 0 0 15.83 0 1.437 1.437 0 0 0 .718-1.245v-3.792a4.405 4.405 0 0 0-4.459-4.34zm1.581 7.273a13.047 13.047 0 0 1-11.511 0v-2.933a1.527 1.527 0 0 1 1.581-1.462h8.348a1.527 1.527 0 0 1 1.581 1.462v2.934z" class="cls-2" data-name="Path 68" transform="translate(-42.667 -230.4)"/>
                </g>
            </g>
            <g id="Group_58" data-name="Group 58" transform="translate(34.532)">
                <g id="Group_57" data-name="Group 57">
                    <path id="Path_69" d="M220.627 0a15.827 15.827 0 1 0 15.827 15.827A15.846 15.846 0 0 0 220.627 0zm0 28.777a12.95 12.95 0 1 1 12.95-12.95 12.964 12.964 0 0 1-12.95 12.95z" class="cls-2" data-name="Path 69" transform="translate(-204.8)"/>
                </g>
            </g>
            <g id="Group_60" data-name="Group 60" transform="translate(44.604 5.755)">
                <g id="Group_59" data-name="Group 59">
                    <path id="Path_70" d="M270.289 34.133a5.755 5.755 0 1 0 5.755 5.755 5.761 5.761 0 0 0-5.755-5.755zm0 8.633a2.878 2.878 0 1 1 2.878-2.878 2.881 2.881 0 0 1-2.878 2.878z" class="cls-2" data-name="Path 70" transform="translate(-264.534 -34.133)"/>
                </g>
            </g>
            <g id="Group_62" data-name="Group 62" transform="translate(41.727 20.144)">
                <g id="Group_61" data-name="Group 61">
                    <path id="Path_71" d="M260.274 119.467h-8.348a4.405 4.405 0 0 0-4.459 4.338v3.795a1.44 1.44 0 0 0 .718 1.246 15.747 15.747 0 0 0 15.83 0 1.437 1.437 0 0 0 .718-1.245v-3.793a4.405 4.405 0 0 0-4.459-4.341zm1.581 7.273a13.047 13.047 0 0 1-11.511 0v-2.934a1.527 1.527 0 0 1 1.581-1.462h8.348a1.527 1.527 0 0 1 1.581 1.462v2.934z" class="cls-2" data-name="Path 71" transform="translate(-247.467 -119.467)"/>
                </g>
            </g>
            <g id="Group_64" data-name="Group 64" transform="translate(24.562 14.388)">
                <g id="Group_63" data-name="Group 63">
                    <path id="Path_72" d="M158.175 85.835a1.441 1.441 0 0 0-2.029-.157l-9.971 8.532a1.438 1.438 0 1 0 1.87 2.186l9.971-8.532a1.438 1.438 0 0 0 .159-2.029z" class="cls-2" data-name="Path 72" transform="translate(-145.671 -85.333)"/>
                </g>
            </g>
            <g id="Group_66" data-name="Group 66" transform="translate(57.554 25.901)">
                <g id="Group_65" data-name="Group 65">
                    <path id="Path_73" d="M352.556 165.7l-8.633-11.511a1.438 1.438 0 0 0-2.3 1.725l8.633 11.511a1.438 1.438 0 0 0 2.3-1.725z" class="cls-2" data-name="Path 73" transform="translate(-341.333 -153.61)"/>
                </g>
            </g>
            <g id="Group_68" data-name="Group 68" transform="translate(46.341 57.42)">
                <g id="Group_67" data-name="Group 67">
                    <path id="Path_74" d="M285.46 341.116a1.439 1.439 0 0 0-2.014-.288l-8.037 6.027a1.438 1.438 0 0 0 1.727 2.3l8.037-6.027a1.437 1.437 0 0 0 .287-2.012z" class="cls-2" data-name="Path 74" transform="translate(-274.833 -340.54)"/>
                </g>
            </g>
            <g id="Group_70" data-name="Group 70" transform="translate(8.633 69.065)">
                <g id="Group_69" data-name="Group 69">
                    <path id="Path_75" d="M62.711 409.6H52.639a1.439 1.439 0 1 0 0 2.878h10.072a1.439 1.439 0 0 0 0-2.878z" class="cls-2" data-name="Path 75" transform="translate(-51.2 -409.6)"/>
                </g>
            </g>
            <g id="Group_72" data-name="Group 72" transform="translate(10.072)">
                <g id="Group_71" data-name="Group 71">
                    <path id="Path_76" d="M65.488 0a5.755 5.755 0 1 0 5.755 5.755A5.761 5.761 0 0 0 65.488 0zm0 8.633a2.878 2.878 0 1 1 2.878-2.878 2.881 2.881 0 0 1-2.878 2.878z" class="cls-2" data-name="Path 76" transform="translate(-59.733)"/>
                </g>
            </g>
            <g id="Group_74" data-name="Group 74" transform="translate(14.389 8.633)">
                <g id="Group_73" data-name="Group 73">
                    <path id="Path_77" d="M86.773 51.2a1.438 1.438 0 0 0-1.439 1.439v10.072a1.439 1.439 0 1 0 2.878 0V52.639a1.438 1.438 0 0 0-1.439-1.439z" class="cls-2" data-name="Path 77" transform="translate(-85.334 -51.2)"/>
                </g>
            </g>
        </g>
        <g id="network-2" data-name="network" transform="translate(689.555 1032.555)">
            <g id="Group_26-2" data-name="Group 26" transform="translate(74.82 17.266)">
                <g id="Group_25-2" data-name="Group 25">
                    <path id="Path_53-2" d="M449.489 102.4a5.755 5.755 0 1 0 5.755 5.755 5.761 5.761 0 0 0-5.755-5.755zm0 8.633a2.878 2.878 0 1 1 2.878-2.878 2.881 2.881 0 0 1-2.878 2.878z" class="cls-3" data-name="Path 53" transform="translate(-443.734 -102.4)"/>
                </g>
            </g>
            <g id="Group_28-2" data-name="Group 28" transform="translate(0 64.748)">
                <g id="Group_27-2" data-name="Group 27">
                    <path id="Path_54-2" d="M5.755 384a5.755 5.755 0 1 0 5.755 5.755A5.761 5.761 0 0 0 5.755 384zm0 8.633a2.878 2.878 0 1 1 2.878-2.878 2.881 2.881 0 0 1-2.878 2.878z" class="cls-3" data-name="Path 54" transform="translate(0 -384)"/>
                </g>
            </g>
            <g id="Group_30-2" data-name="Group 30" transform="translate(63.308 12.948)">
                <g id="Group_29-2" data-name="Group 29">
                    <path id="Path_55-2" d="M389.94 82.928l-12.413-5.993a1.439 1.439 0 0 0-1.25 2.591l12.413 5.993a1.439 1.439 0 0 0 1.25-2.591z" class="cls-3" data-name="Path 55" transform="translate(-375.463 -76.792)"/>
                </g>
            </g>
            <g id="Group_32-2" data-name="Group 32" transform="translate(58.993 74.82)">
                <g id="Group_31-2" data-name="Group 31">
                    <path id="Path_56-2" d="M355.622 443.733a5.755 5.755 0 1 0 5.755 5.755 5.761 5.761 0 0 0-5.755-5.755zm0 8.633a2.878 2.878 0 1 1 2.878-2.878 2.881 2.881 0 0 1-2.878 2.878z" class="cls-3" data-name="Path 56" transform="translate(-349.867 -443.733)"/>
                </g>
            </g>
            <g id="Group_34-2" data-name="Group 34" transform="translate(47.481 70.502)">
                <g id="Group_33-2" data-name="Group 33">
                    <path id="Path_57-2" d="M296.073 424.261l-12.413-5.993a1.439 1.439 0 1 0-1.25 2.591l12.413 5.993a1.439 1.439 0 1 0 1.25-2.591z" class="cls-3" data-name="Path 57" transform="translate(-281.596 -418.124)"/>
                </g>
            </g>
            <g id="Group_36-2" data-name="Group 36" transform="translate(37.41 38.849)">
                <g id="Group_35-2" data-name="Group 35">
                    <path id="Path_58-2" d="M227.622 230.4a5.755 5.755 0 1 0 5.755 5.755 5.761 5.761 0 0 0-5.755-5.755zm0 8.633a2.878 2.878 0 1 1 2.878-2.878 2.881 2.881 0 0 1-2.878 2.878z" class="cls-3" data-name="Path 58" transform="translate(-221.867 -230.4)"/>
                </g>
            </g>
            <g id="Group_38-2" data-name="Group 38" transform="translate(28.776 33.094)">
                <g id="Group_37-2" data-name="Group 37">
                    <path id="Path_59-2" d="M182.524 204.006l-9.535-7.432a1.439 1.439 0 0 0-1.77 2.271l9.535 7.432a1.439 1.439 0 1 0 1.77-2.271z" class="cls-3" data-name="Path 59" transform="translate(-170.664 -196.272)"/>
                </g>
            </g>
            <g id="Group_40-2" data-name="Group 40" transform="translate(53.237 37.41)">
                <g id="Group_39-2" data-name="Group 39">
                    <path id="Path_60-2" d="M331.56 221.867a15.827 15.827 0 1 0 15.827 15.827 15.846 15.846 0 0 0-15.827-15.827zm0 28.777a12.95 12.95 0 1 1 12.95-12.95 12.964 12.964 0 0 1-12.95 12.95z" class="cls-3" data-name="Path 60" transform="translate(-315.733 -221.867)"/>
                </g>
            </g>
            <g id="Group_42-2" data-name="Group 42" transform="translate(63.309 43.165)">
                <g id="Group_41-2" data-name="Group 41">
                    <path id="Path_61-2" d="M381.222 256a5.755 5.755 0 1 0 5.755 5.755 5.761 5.761 0 0 0-5.755-5.755zm0 8.633a2.878 2.878 0 1 1 2.878-2.878 2.881 2.881 0 0 1-2.878 2.878z" class="cls-3" data-name="Path 61" transform="translate(-375.467 -256)"/>
                </g>
            </g>
            <g id="Group_44-2" data-name="Group 44" transform="translate(60.431 57.554)">
                <g id="Group_43-2" data-name="Group 43">
                    <path id="Path_62-2" d="M371.207 341.333h-8.348a4.405 4.405 0 0 0-4.459 4.338v3.793a1.44 1.44 0 0 0 .718 1.246 15.747 15.747 0 0 0 15.83 0 1.437 1.437 0 0 0 .718-1.245v-3.793a4.405 4.405 0 0 0-4.459-4.339zm1.581 7.273a13.047 13.047 0 0 1-11.511 0v-2.934a1.527 1.527 0 0 1 1.581-1.462h8.348a1.527 1.527 0 0 1 1.581 1.462v2.934z" class="cls-3" data-name="Path 62" transform="translate(-358.4 -341.333)"/>
                </g>
            </g>
            <g id="Group_46-2" data-name="Group 46" transform="translate(18.705 54.676)">
                <g id="Group_45-2" data-name="Group 45">
                    <path id="Path_63-2" d="M126.76 324.267a15.827 15.827 0 1 0 15.827 15.827 15.846 15.846 0 0 0-15.827-15.827zm0 28.777a12.95 12.95 0 1 1 12.95-12.95 12.964 12.964 0 0 1-12.95 12.95z" class="cls-3" data-name="Path 63" transform="translate(-110.933 -324.267)"/>
                </g>
            </g>
            <g id="Group_48-2" data-name="Group 48" transform="translate(28.777 60.431)">
                <g id="Group_47-2" data-name="Group 47">
                    <path id="Path_64-2" d="M176.422 358.4a5.755 5.755 0 1 0 5.755 5.755 5.761 5.761 0 0 0-5.755-5.755zm0 8.633a2.878 2.878 0 1 1 2.878-2.878 2.881 2.881 0 0 1-2.878 2.878z" class="cls-3" data-name="Path 64" transform="translate(-170.667 -358.4)"/>
                </g>
            </g>
            <g id="Group_50-2" data-name="Group 50" transform="translate(25.899 74.82)">
                <g id="Group_49-2" data-name="Group 49">
                    <path id="Path_65-2" d="M166.407 443.733h-8.348a4.405 4.405 0 0 0-4.459 4.338v3.793a1.44 1.44 0 0 0 .718 1.246 15.747 15.747 0 0 0 15.83 0 1.437 1.437 0 0 0 .718-1.245v-3.793a4.405 4.405 0 0 0-4.459-4.339zm1.581 7.273a13.047 13.047 0 0 1-11.511 0v-2.934a1.527 1.527 0 0 1 1.581-1.462h8.348a1.527 1.527 0 0 1 1.581 1.462v2.934z" class="cls-3" data-name="Path 65" transform="translate(-153.6 -443.733)"/>
                </g>
            </g>
            <g id="Group_52-2" data-name="Group 52" transform="translate(0 18.705)">
                <g id="Group_51-2" data-name="Group 51">
                    <path id="Path_66-2" d="M15.827 110.933a15.827 15.827 0 1 0 15.828 15.827 15.846 15.846 0 0 0-15.828-15.827zm0 28.777a12.95 12.95 0 1 1 12.95-12.95 12.964 12.964 0 0 1-12.95 12.95z" class="cls-3" data-name="Path 66" transform="translate(0 -110.933)"/>
                </g>
            </g>
            <g id="Group_54-2" data-name="Group 54" transform="translate(10.072 24.46)">
                <g id="Group_53-2" data-name="Group 53">
                    <path id="Path_67-2" d="M65.489 145.067a5.755 5.755 0 1 0 5.755 5.755 5.761 5.761 0 0 0-5.755-5.755zm0 8.633a2.878 2.878 0 1 1 2.878-2.878 2.881 2.881 0 0 1-2.878 2.878z" class="cls-3" data-name="Path 67" transform="translate(-59.734 -145.067)"/>
                </g>
            </g>
            <g id="Group_56-2" data-name="Group 56" transform="translate(7.194 38.849)">
                <g id="Group_55-2" data-name="Group 55">
                    <path id="Path_68-2" d="M55.474 230.4h-8.348a4.405 4.405 0 0 0-4.459 4.338v3.793a1.44 1.44 0 0 0 .718 1.246 15.747 15.747 0 0 0 15.83 0 1.437 1.437 0 0 0 .718-1.245v-3.792a4.405 4.405 0 0 0-4.459-4.34zm1.581 7.273a13.047 13.047 0 0 1-11.511 0v-2.933a1.527 1.527 0 0 1 1.581-1.462h8.348a1.527 1.527 0 0 1 1.581 1.462v2.934z" class="cls-3" data-name="Path 68" transform="translate(-42.667 -230.4)"/>
                </g>
            </g>
            <g id="Group_58-2" data-name="Group 58" transform="translate(34.532)">
                <g id="Group_57-2" data-name="Group 57">
                    <path id="Path_69-2" d="M220.627 0a15.827 15.827 0 1 0 15.827 15.827A15.846 15.846 0 0 0 220.627 0zm0 28.777a12.95 12.95 0 1 1 12.95-12.95 12.964 12.964 0 0 1-12.95 12.95z" class="cls-3" data-name="Path 69" transform="translate(-204.8)"/>
                </g>
            </g>
            <g id="Group_60-2" data-name="Group 60" transform="translate(44.604 5.755)">
                <g id="Group_59-2" data-name="Group 59">
                    <path id="Path_70-2" d="M270.289 34.133a5.755 5.755 0 1 0 5.755 5.755 5.761 5.761 0 0 0-5.755-5.755zm0 8.633a2.878 2.878 0 1 1 2.878-2.878 2.881 2.881 0 0 1-2.878 2.878z" class="cls-3" data-name="Path 70" transform="translate(-264.534 -34.133)"/>
                </g>
            </g>
            <g id="Group_62-2" data-name="Group 62" transform="translate(41.727 20.144)">
                <g id="Group_61-2" data-name="Group 61">
                    <path id="Path_71-2" d="M260.274 119.467h-8.348a4.405 4.405 0 0 0-4.459 4.338v3.795a1.44 1.44 0 0 0 .718 1.246 15.747 15.747 0 0 0 15.83 0 1.437 1.437 0 0 0 .718-1.245v-3.793a4.405 4.405 0 0 0-4.459-4.341zm1.581 7.273a13.047 13.047 0 0 1-11.511 0v-2.934a1.527 1.527 0 0 1 1.581-1.462h8.348a1.527 1.527 0 0 1 1.581 1.462v2.934z" class="cls-3" data-name="Path 71" transform="translate(-247.467 -119.467)"/>
                </g>
            </g>
            <g id="Group_64-2" data-name="Group 64" transform="translate(24.562 14.388)">
                <g id="Group_63-2" data-name="Group 63">
                    <path id="Path_72-2" d="M158.175 85.835a1.441 1.441 0 0 0-2.029-.157l-9.971 8.532a1.438 1.438 0 1 0 1.87 2.186l9.971-8.532a1.438 1.438 0 0 0 .159-2.029z" class="cls-3" data-name="Path 72" transform="translate(-145.671 -85.333)"/>
                </g>
            </g>
            <g id="Group_66-2" data-name="Group 66" transform="translate(57.554 25.901)">
                <g id="Group_65-2" data-name="Group 65">
                    <path id="Path_73-2" d="M352.556 165.7l-8.633-11.511a1.438 1.438 0 0 0-2.3 1.725l8.633 11.511a1.438 1.438 0 0 0 2.3-1.725z" class="cls-3" data-name="Path 73" transform="translate(-341.333 -153.61)"/>
                </g>
            </g>
            <g id="Group_68-2" data-name="Group 68" transform="translate(46.341 57.42)">
                <g id="Group_67-2" data-name="Group 67">
                    <path id="Path_74-2" d="M285.46 341.116a1.439 1.439 0 0 0-2.014-.288l-8.037 6.027a1.438 1.438 0 0 0 1.727 2.3l8.037-6.027a1.437 1.437 0 0 0 .287-2.012z" class="cls-3" data-name="Path 74" transform="translate(-274.833 -340.54)"/>
                </g>
            </g>
            <g id="Group_70-2" data-name="Group 70" transform="translate(8.633 69.065)">
                <g id="Group_69-2" data-name="Group 69">
                    <path id="Path_75-2" d="M62.711 409.6H52.639a1.439 1.439 0 1 0 0 2.878h10.072a1.439 1.439 0 0 0 0-2.878z" class="cls-3" data-name="Path 75" transform="translate(-51.2 -409.6)"/>
                </g>
            </g>
            <g id="Group_72-2" data-name="Group 72" transform="translate(10.072)">
                <g id="Group_71-2" data-name="Group 71">
                    <path id="Path_76-2" d="M65.488 0a5.755 5.755 0 1 0 5.755 5.755A5.761 5.761 0 0 0 65.488 0zm0 8.633a2.878 2.878 0 1 1 2.878-2.878 2.881 2.881 0 0 1-2.878 2.878z" class="cls-3" data-name="Path 76" transform="translate(-59.733)"/>
                </g>
            </g>
            <g id="Group_74-2" data-name="Group 74" transform="translate(14.389 8.633)">
                <g id="Group_73-2" data-name="Group 73">
                    <path id="Path_77-2" d="M86.773 51.2a1.438 1.438 0 0 0-1.439 1.439v10.072a1.439 1.439 0 1 0 2.878 0V52.639a1.438 1.438 0 0 0-1.439-1.439z" class="cls-3" data-name="Path 77" transform="translate(-85.334 -51.2)"/>
                </g>
            </g>
        </g>
    </g>
</svg>
