<?xml version="1.0" encoding="UTF-8"?>
<svg width="48px" height="48px" viewBox="0 0 48 48" version="1.1" xmlns="http://www.w3.org/2000/svg" xmlns:xlink="http://www.w3.org/1999/xlink">
    <!-- Generator: Sketch 53.1 (72631) - https://sketchapp.com -->
    <title>Combined Shape</title>
    <desc>Created with Sketch.</desc>
    <g id="Page-1" stroke="none" stroke-width="1" fill="none" fill-rule="evenodd">
        <path d="M24,48 C10.745166,48 0,37.254834 0,24 C0,10.745166 10.745166,0 24,0 C37.254834,0 48,10.745166 48,24 C48,37.254834 37.254834,48 24,48 Z M17.6181641,18.2949219 L17.6181641,22.3955078 L20.5126953,22.3955078 L20.5126953,38 L25.7265625,38 L25.7265625,22.3955078 L29.6230469,22.3955078 L29.6230469,18.2949219 L25.7265625,18.2949219 L25.7265625,16.9033203 C25.7265625,15.9013622 25.8904606,15.2241229 26.2182617,14.871582 C26.5460628,14.5190412 27.0872358,14.3427734 27.8417969,14.3427734 C28.6087278,14.3427734 29.4065714,14.4417308 30.2353516,14.6396484 L30.9404297,11.0029297 C29.5178965,10.557615 28.0644605,10.3349609 26.5800781,10.3349609 C25.1328053,10.3349609 23.9360399,10.5916315 22.9897461,11.1049805 C22.0434523,11.6183294 21.3940447,12.283199 21.0415039,13.0996094 C20.6889631,13.9160197 20.5126953,15.1529865 20.5126953,16.8105469 L20.5126953,18.2949219 L17.6181641,18.2949219 Z" id="Combined-Shape" fill="#FEFEFE"></path>
    </g>
</svg>