<?xml version="1.0" encoding="UTF-8"?>
<svg width="48px" height="47px" viewBox="0 0 48 47" version="1.1" xmlns="http://www.w3.org/2000/svg" xmlns:xlink="http://www.w3.org/1999/xlink">
    <!-- Generator: Sketch 53.1 (72631) - https://sketchapp.com -->
    <title>github</title>
    <desc>Created with Sketch.</desc>
    <g id="Page-1" stroke="none" stroke-width="1" fill="none" fill-rule="evenodd">
        <g id="github" fill="#FEFEFE" fill-rule="nonzero">
            <g id="Group">
                <path d="M48,23.9637865 C48,24.8665472 47.9500312,25.7576069 47.8520625,26.6349998 C47.8412813,26.7328207 47.8305,26.8315777 47.8187813,26.9293987 C47.7570937,27.4262728 47.6796563,27.9192154 47.5885313,28.4063542 C47.5709063,28.5031455 47.55225,28.5990006 47.5326563,28.6939197 C45.8359687,37.1595017 39.6734062,44.0131446 31.6005937,46.6999905 C30.3839062,46.9347608 29.9519062,46.1884199 29.9519062,45.5497288 C29.9519062,44.7604216 29.979375,42.1801021 29.979375,38.9738224 C29.979375,36.7378888 29.2123125,35.2794677 28.35225,34.5361223 C32.5086562,34.074445 36.8295938,32.7461398 38.5439062,27.8458263 C38.5782187,27.7499711 38.6105625,27.6521502 38.641875,27.5533932 C38.737875,27.2550628 38.8230937,26.9440016 38.8995,26.6192736 C38.922,26.5224823 38.9445937,26.4246614 38.965125,26.3248747 C39.1894687,25.2636347 39.3109688,24.0654454 39.3109688,22.7116786 C39.3109688,20.0961624 38.379375,17.9580497 36.8404687,16.2796486 C37.0902188,15.6761543 37.912125,13.2386815 36.6053438,9.93757631 C36.6053438,9.93757631 34.5932813,9.29401759 30.0117188,12.3946133 C28.0936875,11.8634784 26.0394375,11.597443 24,11.5877077 C21.9604688,11.597443 19.90725,11.863572 17.992125,12.3946133 C13.406625,9.29401759 11.390625,9.93757631 11.390625,9.93757631 C10.0877813,13.2386815 10.9096875,15.6761543 11.1585,16.2796486 C9.6234375,17.9580497 8.685,20.096256 8.685,22.7116786 C8.685,24.0644157 8.8065,25.262605 9.03178125,26.323845 C9.0523125,26.4236317 9.073875,26.5214526 9.09646875,26.6182439 C9.172875,26.9429719 9.259125,27.2549692 9.355125,27.5532996 C9.3864375,27.6520566 9.4198125,27.7498775 9.45309375,27.8457327 C11.166375,32.737247 15.4755938,34.0841803 19.6202813,34.5546568 C18.9335625,35.1532834 18.3115313,36.2105919 18.096,37.7599068 C16.7265,38.3722003 13.252875,39.4305385 11.1124688,35.7674491 C11.1124688,35.7674491 9.84290625,33.4669256 7.43315625,33.2976813 C7.43315625,33.2976813 5.09090625,33.2673521 7.2695625,34.7541366 C7.2695625,34.7541366 8.84184375,35.4916783 9.93403125,38.2607125 C9.93403125,38.2607125 11.3427188,42.5379676 18.0195938,41.0884393 C18.030375,43.0906324 18.0519375,44.9784359 18.0519375,45.5496352 C18.0519375,46.1824289 17.6120625,46.9248383 16.4120625,46.7027988 C8.334375,44.0180122 2.164875,37.1634332 0.46725,28.6939197 L0.46725,28.6929836 C0.44765625,28.5980645 0.429,28.5022094 0.41240625,28.4063542 C0.32034375,27.9192154 0.24290625,27.4262728 0.18215625,26.9293987 C0.16940625,26.8315777 0.158625,26.7337568 0.14784375,26.6349998 C0.04996875,25.7576069 0,24.8665472 0,23.9637865 C0,10.7289429 10.747125,5.68434189e-14 24,5.68434189e-14 C37.2539062,5.68434189e-14 48,10.7289429 48,23.9637865 Z" id="Path"></path>
            </g>
        </g>
    </g>
</svg>