<?xml version="1.0" encoding="UTF-8"?>
<svg width="48px" height="48px" viewBox="0 0 48 48" version="1.1" xmlns="http://www.w3.org/2000/svg" xmlns:xlink="http://www.w3.org/1999/xlink">
    <!-- Generator: Sketch 62 (91390) - https://sketch.com -->
    <title>instagram</title>
    <desc>Created with Sketch.</desc>
    <g id="Page-1" stroke="none" stroke-width="1" fill="none" fill-rule="evenodd">
        <g id="instagram">
            <path d="M34.4725688,15.7134378 C34.6560552,16.1853811 34.8585469,16.8717535 34.9158565,18.130847 C34.9857158,19.6623503 35,20.1216585 35,24.0001945 C35,27.8783521 34.9857155,28.3376612 34.9158644,29.8693684 C34.8581951,31.1288238 34.6555361,31.8150703 34.4777321,32.2728799 C34.0868972,33.2860869 33.2860869,34.0868972 32.2701233,34.4788 C31.8146189,34.6560552 31.1282465,34.8585469 29.8691415,34.915857 C28.3380271,34.9857163 27.8787198,35 23.9998055,35 C20.1212715,35 19.6623495,34.9857159 18.1307489,34.915852 C16.8717535,34.8585469 16.185381,34.6560551 15.7298766,34.4788 C15.2176021,34.2897011 14.7695766,33.9980334 14.4015583,33.6191018 C14.0018329,33.2302936 13.710474,32.7820505 13.5273136,32.2862437 C13.3444838,31.8151215 13.1418564,31.1289514 13.084533,29.8695534 C13.0146735,28.3376612 13,27.8783522 13,24.0001945 C13,20.1216584 13.0146731,19.6623503 13.0845369,18.1307489 C13.1418574,16.8714152 13.3444804,16.1848871 13.5214373,15.7292662 C13.7104814,15.2179296 14.0022145,14.7697136 14.3812871,14.4015583 C14.7698598,14.0017633 15.218125,13.7102497 15.7136404,13.5274999 C16.185167,13.3443893 16.8717,13.1417987 18.130847,13.0841435 C19.6623503,13.0142842 20.1216585,13 24.0001945,13 C27.8783522,13 28.3376612,13.0146735 29.8696401,13.0845369 C31.1289513,13.1418564 31.8151215,13.3444838 32.2707338,13.5214373 C32.7823977,13.710299 33.2304234,14.0019666 33.5984417,14.3808982 C33.9980827,14.7696245 34.2897483,15.2180337 34.4725688,15.7134378 Z" id="Shape" stroke="#FEFEFE" stroke-width="2" fill-rule="nonzero"></path>
            <path d="M24,0 C10.7471924,0 0,10.7471924 0,24 C0,37.2528076 10.7471924,48 24,48 C37.2528076,48 48,37.2528076 48,24 C48,10.7471924 37.2528076,0 24,0 Z M38.9095185,30.1842315 C38.8369739,31.7810108 38.5830676,32.8711735 38.2123724,33.8254145 C37.4331154,35.840322 35.840322,37.4331154 33.8254145,38.2123724 C32.871572,38.5830676 31.7810108,38.8365753 30.1846301,38.9095185 C28.5850606,38.9824617 28.0740593,39 24.0003986,39 C19.9263393,39 19.4157366,38.9824617 17.8157685,38.9095185 C16.2193878,38.8365753 15.1288265,38.5830676 14.1749841,38.2123724 C13.1737086,37.8356984 12.2672991,37.2453763 11.5179368,36.4820632 C10.7550223,35.7330995 10.1647002,34.8262914 9.78802612,33.8254145 C9.41733102,32.871572 9.16342469,31.7810108 9.0908801,30.1846301 C9.01713969,28.584662 9,28.0736607 9,24 C9,19.9263393 9.01713969,19.415338 9.09048153,17.8157685 C9.16302612,16.2189892 9.41653378,15.1288265 9.78722898,14.1745855 C10.1639031,13.1737086 10.7546237,12.2669005 11.5179368,11.5179368 C12.2669005,10.7546237 13.1737086,10.1643016 14.1745855,9.78762755 C15.1288265,9.41693245 16.2189892,9.16342469 17.8157685,9.09048153 C19.415338,9.01753827 19.9263393,9 24,9 C28.0736607,9 28.584662,9.01753827 30.1842315,9.0908801 C31.7810108,9.16342469 32.8711735,9.41693245 33.8254145,9.78722898 C34.8262914,10.1639031 35.7330995,10.7546237 36.4824617,11.5179368 C37.2453763,12.2672991 37.8360969,13.1737086 38.2123724,14.1745855 C38.5834662,15.1288265 38.8369739,16.2189892 38.9099171,17.8157685 C38.9828603,19.415338 39,19.9263393 39,24 C39,28.0736607 38.9828603,28.584662 38.9095185,30.1842315 L38.9095185,30.1842315 Z" id="Shape" fill="#FEFEFE" fill-rule="nonzero"></path>
            <path d="M21.1715519,21.1715519 C21.895405,20.4476988 22.8954082,20 24,20 C25.1045918,20 26.104595,20.4476988 26.8284481,21.1715519 C27.5523012,21.895405 28,22.8954082 28,24 C28,25.1045918 27.5523012,26.104595 26.8284481,26.8284481 C26.104595,27.5523012 25.1045918,28 24,28 C22.8954082,28 21.895405,27.5523012 21.1715519,26.8284481 C20.4476988,26.104595 20,25.1045918 20,24 C20,22.8954082 20.4476988,21.895405 21.1715519,21.1715519 Z" id="Path" stroke="#FEFEFE" stroke-width="2" fill-rule="nonzero"></path>
            <path d="M30.5,19 C29.671612,19 29,18.328388 29,17.5 C29,16.671612 29.671612,16 30.5,16 C31.328388,16 32,16.671612 32,17.5 C31.9996679,18.328388 31.328388,19 30.5,19 Z" id="Path" fill="#FEFEFE"></path>
        </g>
    </g>
</svg>