<?xml version="1.0" encoding="UTF-8"?>
<svg width="48px" height="48px" viewBox="0 0 48 48" version="1.1" xmlns="http://www.w3.org/2000/svg" xmlns:xlink="http://www.w3.org/1999/xlink">
    <!-- Generator: Sketch 62 (91390) - https://sketch.com -->
    <title>instagram</title>
    <desc>Created with Sketch.</desc>
    <g id="Page-1" stroke="none" stroke-width="1" fill="none" fill-rule="evenodd">
        <g id="instagram" fill="#FEFEFE" fill-rule="nonzero">
            <path d="M28,24 C28,26.2091837 26.2091837,28 24,28 C21.7908163,28 20,26.2091837 20,24 C20,21.7908163 21.7908163,20 24,20 C26.2091837,20 28,21.7908163 28,24 Z" id="Path"></path>
            <path d="M34.4598318,16.0866247 C34.2448341,15.5040274 33.9018362,14.9766948 33.4561528,14.5438472 C33.0233052,14.0981638 32.4963291,13.7551659 31.9133753,13.5401682 C31.4405944,13.3565467 30.7303534,13.1379836 29.4221837,13.0784403 C28.0070499,13.0139053 27.5827593,13 24.0001783,13 C20.4172407,13 19.9929501,13.0135488 18.5781728,13.0780837 C17.2700031,13.1379836 16.5594056,13.3565467 16.0869812,13.5401682 C15.5040274,13.7551659 14.9766948,14.0981638 14.5442037,14.5438472 C14.0985203,14.9766948 13.7555224,15.5036709 13.5401682,16.0866247 C13.3565467,16.5594056 13.1379836,17.2700031 13.0784403,18.5781728 C13.0139053,19.9929501 13,20.4172407 13,24.0001783 C13,27.5827593 13.0139053,28.0070499 13.0784403,29.4221837 C13.1379836,30.7303534 13.3565467,31.4405944 13.5401682,31.9133754 C13.7555224,32.4963292 14.0981638,33.0233052 14.5438472,33.4561528 C14.9766948,33.9018362 15.5036708,34.2448342 16.0866246,34.4598318 C16.5594056,34.6438098 17.2700031,34.8623729 18.5781728,34.9219163 C19.9929501,34.9864513 20.4168841,35 23.9998217,35 C27.5831159,35 28.0074065,34.9864513 29.4218272,34.9219163 C30.7299969,34.8623729 31.4405944,34.6438098 31.9133753,34.4598318 C33.0835616,34.0084437 34.0084437,33.0835616 34.4598318,31.9133754 C34.6434533,31.4405944 34.8620164,30.7303534 34.9219163,29.4221837 C34.9864512,28.0070499 35,27.5827593 35,24.0001783 C35,20.4172407 34.9864512,19.9929501 34.9219163,18.5781728 C34.8623729,17.2700031 34.6438098,16.5594056 34.4598318,16.0866247 L34.4598318,16.0866247 Z M24.0001811,31 C20.1340526,31 17,27.8662285 17,24 C17,20.1337715 20.1340526,17 24.0001811,17 C27.8659474,17 31,20.1337715 31,24 C31,27.8662285 27.8659474,31 24.0001811,31 Z M31.5,18 C30.671612,18 30,17.328388 30,16.5 C30,15.671612 30.671612,15 31.5,15 C32.328388,15 33,15.671612 33,16.5 C32.9996679,17.328388 32.328388,18 31.5,18 Z" id="Shape"></path>
            <path d="M24,0 C10.7471924,0 0,10.7471924 0,24 C0,37.2528076 10.7471924,48 24,48 C37.2528076,48 48,37.2528076 48,24 C48,10.7471924 37.2528076,0 24,0 Z M37.6981201,29.6817627 C37.6314698,31.1488037 37.3981933,32.1503906 37.0576172,33.0270996 C36.3416748,34.8782959 34.8782959,36.3416748 33.0270996,37.0576172 C32.1507568,37.3981933 31.1488037,37.6311036 29.6821289,37.6981201 C28.2125244,37.7651367 27.743042,37.78125 24.0003662,37.78125 C20.2573242,37.78125 19.788208,37.7651367 18.3182373,37.6981201 C16.8515625,37.6311036 15.8496094,37.3981933 14.9732666,37.0576172 C14.0533448,36.7115479 13.220581,36.1691895 12.5321045,35.4678955 C11.8311768,34.7797852 11.2888183,33.9466553 10.942749,33.0270996 C10.6021729,32.1507568 10.3688964,31.1488037 10.3022461,29.6821289 C10.2344971,28.2121583 10.21875,27.7426758 10.21875,24 C10.21875,20.2573242 10.2344971,19.7878418 10.3018799,18.3182373 C10.3685303,16.8511963 10.6014404,15.8496094 10.9420166,14.9729004 C11.2880859,14.0533448 11.8308105,13.2202148 12.5321045,12.5321045 C13.2202148,11.8308105 14.0533448,11.2884521 14.9729004,10.9423828 C15.8496094,10.6018067 16.8511963,10.3688964 18.3182373,10.3018799 C19.7878418,10.2348633 20.2573242,10.21875 24,10.21875 C27.7426758,10.21875 28.2121583,10.2348633 29.6817627,10.3022461 C31.1488037,10.3688964 32.1503906,10.6018067 33.0270996,10.9420166 C33.9466552,11.2880859 34.7797852,11.8308105 35.4682617,12.5321045 C36.1691895,13.220581 36.7119141,14.0533448 37.0576172,14.9729004 C37.3985596,15.8496094 37.6314698,16.8511963 37.6984864,18.3182373 C37.7655029,19.7878418 37.78125,20.2573242 37.78125,24 C37.78125,27.7426758 37.7655029,28.2121583 37.6981201,29.6817627 L37.6981201,29.6817627 Z" id="Shape"></path>
        </g>
    </g>
</svg>