<?xml version="1.0" encoding="UTF-8"?>
<svg width="48px" height="48px" viewBox="0 0 48 48" version="1.1" xmlns="http://www.w3.org/2000/svg" xmlns:xlink="http://www.w3.org/1999/xlink">
    <!-- Generator: Sketch 53.1 (72631) - https://sketchapp.com -->
    <title>Combined Shape</title>
    <desc>Created with Sketch.</desc>
    <g id="Page-1" stroke="none" stroke-width="1" fill="none" fill-rule="evenodd">
        <path d="M24,48 C10.745166,48 0,37.254834 0,24 C0,10.745166 10.745166,0 24,0 C37.254834,0 48,10.745166 48,24 C48,37.254834 37.254834,48 24,48 Z M16.9997928,36.0927867 L17,36.0927867 L17,19.9072133 C17,19.4062237 16.6423318,19 16.2007624,19 L12.7992376,19 C12.3578753,19 12,19.4059885 12,19.9072133 L12,36.0927867 C12,36.5937763 12.3576682,37 12.7992376,37 L16.2005552,37 C16.6421247,37 16.9997928,36.5940115 16.9997928,36.0927867 Z M14.4998878,18 C16.4330384,18 18,16.4331138 18,14.4997195 C18,12.5671106 16.4331506,11 14.4998878,11 C12.5667372,11 11,12.5668862 11,14.4997195 C11,16.4328894 12.5668494,18 14.4998878,18 Z M37.9996373,37.1324514 L37.9996373,37.1325736 L37.9999976,37.1325736 L37.9999976,28.9868347 C37.9999976,25.4451187 38.0384286,19 31.2619631,19 C28.2020152,19 26.7645758,20.1407971 25.7973157,21.6182951 L25.7973157,20.1500888 C25.7973157,19.6709565 25.4158881,19.2825402 24.9453486,19.2825402 L20.8522073,19.2825402 C20.3815477,19.2825402 20,19.6710787 20,20.1500888 L20,37.1322068 C20,37.6113392 20.3816678,37.9997555 20.8522073,37.9997555 L24.9453486,37.9997555 C25.4160082,37.9997555 25.7973157,37.6112169 25.7973157,37.1322068 L25.7973157,28.0266138 C25.9034813,26.8035365 26.432508,24.0771646 29.0408918,24.0771646 C32.4033637,24.0771646 32.06397,28.0603573 32.06397,29.2377098 L32.06397,37.1324514 C32.06397,37.6115837 32.4455177,38 32.9156969,38 L37.1481505,38 C37.6183297,38 37.9996373,37.6114614 37.9996373,37.1324514 Z" id="Combined-Shape" fill="#FEFEFE"></path>
    </g>
</svg>