<?xml version="1.0" encoding="UTF-8"?>
<svg width="48px" height="48px" viewBox="0 0 48 48" version="1.1" xmlns="http://www.w3.org/2000/svg" xmlns:xlink="http://www.w3.org/1999/xlink">
    <!-- Generator: Sketch 53.1 (72631) - https://sketchapp.com -->
    <title>twitter-logo-button</title>
    <desc>Created with Sketch.</desc>
    <g id="Page-1" stroke="none" stroke-width="1" fill="none" fill-rule="evenodd">
        <g id="twitter-logo-button" fill="#FEFEFE" fill-rule="nonzero">
            <path d="M24,0 C10.7664545,0 0,10.7664545 0,24 C0,37.2325787 10.7664545,48 24,48 C37.2325787,48 48,37.2325787 48,24 C48,10.7664545 37.2345122,0 24,0 Z M34.7065174,18.5070491 C34.7171514,18.7448643 34.7229517,18.9846129 34.7229517,19.2243616 C34.7229517,26.5241279 29.1681302,34.9385322 19.0049142,34.9385322 C15.8852816,34.9385322 12.9812294,34.0269073 10.5373399,32.4588738 C10.9694675,32.5101104 11.4093289,32.536212 11.8549907,32.536212 C14.4438895,32.536212 16.8249416,31.6526223 18.7158624,30.1715943 C16.2990413,30.1271248 14.2582776,28.5300894 13.555466,26.3346492 C13.8918875,26.3984532 14.238943,26.4342222 14.5937324,26.4342222 C15.0973979,26.4342222 15.5865625,26.3684847 16.0496254,26.2418432 C13.5225973,25.7352775 11.619109,23.5031016 11.619109,20.8252638 C11.619109,20.8020624 11.619109,20.7778941 11.6200757,20.7556594 C12.3644566,21.1684524 13.2161444,21.4178684 14.1210022,21.4459035 C12.6399742,20.4569403 11.6645452,18.7651656 11.6645452,16.8491098 C11.6645452,15.8359784 11.9361959,14.8866511 12.4118263,14.0707323 C15.1351003,17.4136792 19.2069604,19.6120197 23.796987,19.8440345 C23.7022476,19.4389753 23.654878,19.0184484 23.654878,18.5843873 C23.654878,15.5343591 26.1277693,13.0605011 29.1777975,13.0605011 C30.767099,13.0605011 32.2007573,13.7314106 33.2100218,14.8044792 C34.4696689,14.5569967 35.6490776,14.0987674 36.719246,13.4636268 C36.3035527,14.7542093 35.430597,15.8359784 34.2869572,16.5204221 C35.405462,16.3870136 36.4727302,16.0911947 37.4597599,15.6513333 C36.7231129,16.7572706 35.786353,17.7307661 34.7065174,18.5070491 Z" id="Shape"></path>
        </g>
    </g>
</svg>