<?xml version="1.0" encoding="UTF-8"?>
<svg width="48px" height="48px" viewBox="0 0 48 48" version="1.1" xmlns="http://www.w3.org/2000/svg" xmlns:xlink="http://www.w3.org/1999/xlink">
    <!-- Generator: Sketch 53.1 (72631) - https://sketchapp.com -->
    <title>Group 36</title>
    <desc>Created with Sketch.</desc>
    <g id="Page-1" stroke="none" stroke-width="1" fill="none" fill-rule="evenodd">
        <g id="Group-36">
            <path d="M24,48 C10.745166,48 0,37.254834 0,24 C0,10.745166 10.745166,0 24,0 C37.254834,0 48,10.745166 48,24 C48,37.254834 37.254834,48 24,48 Z M23.6621715,41.2498873 C23.8344404,41.0324472 23.9378017,40.8951166 24.0411631,40.757786 C25.8557287,38.2629468 27.7047481,35.7795519 29.4963445,33.2618243 C31.0582491,31.0530905 32.6431228,28.8443567 34.0672123,26.5440693 C35.4798172,24.2666702 35.7324782,21.7031657 35.2616099,19.0938844 C34.1820582,13.097115 27.6128713,7.66111227 19.8263176,10.4535011 C15.2095114,12.1129124 12.545086,15.6033984 12.1890636,20.5701883 C11.8445258,25.3538708 14.0151138,28.913022 18.0462058,31.3735286 C19.0683345,32.0029605 20.2627321,32.346287 21.422676,32.826944 C20.3546089,34.3146922 19.2291188,35.8596614 18.0921441,37.4504074 C19.9756173,38.7321597 21.8016675,39.9795793 23.6621715,41.2498873 Z" id="Combined-Shape" fill="#FEFEFE"></path>
            <g id="Fill-1" transform="translate(25.247941, 18.349764) rotate(-150.000000) translate(-25.247941, -18.349764) translate(18.618785, 8.651554)" fill-rule="nonzero">
                <g id="g18" transform="translate(0.000000, 0.114370)" fill="#000000">
                    <path d="M12.8124729,19.2712842 C11.5529805,19.2712842 10.316388,19.2712842 9.0454456,19.2712842 C9.06834547,18.1847727 9.09124533,13.6557349 9.11414519,12.6378452 C8.42714932,12.7750887 7.76305331,12.992391 7.09895731,13.0267019 C4.46547315,13.1639455 2.34723588,12.1918036 0.996144009,9.88153684 C-0.412197521,7.47977442 -0.286248279,5.02082717 1.31674208,2.81349313 C4.01892583,-0.926394079 8.77064726,-0.480352485 11.1522329,1.94428387 C12.1941767,2.99648455 12.8926225,4.26598755 12.9498721,5.76422982 C13.0185717,7.27390906 12.9842219,8.7835883 12.9613221,10.3047045" id="path-2_2_"></path>
                </g>
                <g id="g21" transform="translate(0.114499, 0.000000)" fill="#FFFFFF">
                    <path d="M12.8926225,19.2712842 C11.63313,19.2712842 10.3965375,19.2712842 9.12559512,19.2712842 C9.14849498,18.1847727 9.17139485,13.6557349 9.19429471,12.6378452 C8.50729884,12.7750887 7.84320283,12.992391 7.17910683,13.0267019 C4.54562266,13.1639455 2.4273854,12.1918036 1.07629353,9.88153684 C-0.332048003,7.47977442 -0.206098761,5.02082717 1.3968916,2.81349313 C4.09907535,-0.926394079 8.85079677,-0.480352485 11.2323825,1.94428387 C12.2743262,2.99648455 12.972772,4.26598755 13.0300216,5.76422982 C13.0987212,7.27390906 13.0643714,8.7835883 13.0414716,10.3047045" id="path-2_1_"></path>
                </g>
            </g>
        </g>
    </g>
</svg>