<?xml version="1.0" encoding="UTF-8"?>
<svg width="24px" height="30px" viewBox="0 0 24 30" version="1.1" xmlns="http://www.w3.org/2000/svg" xmlns:xlink="http://www.w3.org/1999/xlink">
    <!-- Generator: Sketch 62 (91390) - https://sketch.com -->
    <title>ic-dedicated-volume</title>
    <desc>Created with Sketch.</desc>
    <g id="Page-1" stroke="none" stroke-width="1" fill="none" fill-rule="evenodd" fill-opacity="0.419999987">
        <g id="ic-dedicated-volume" fill="#000000" fill-rule="nonzero" stroke="#000000" stroke-width="0.5">
            <g id="Group_2489" transform="translate(0.250000, 20.252000)">
                <path d="M0.2,-5.69877479e-16 C1.2,3.539 5.932,6.218 11.614,6.218 C17.296,6.218 22.025,3.539 23.031,-5.69877479e-16 C23.1626747,0.457779852 23.2299873,0.931660208 23.231,1.408 C23.231,5.619 18.031,9.033 11.617,9.033 C5.203,9.033 0,5.619 0,1.408 C0.00101273473,0.931660208 0.0683252852,0.457779852 0.2,-5.69877479e-16 Z" id="Path_1386"></path>
            </g>
            <g id="Group_2491" transform="translate(0.250000, 15.735000)">
                <path d="M0.2,-5.69877479e-16 C1.2,3.539 5.932,6.218 11.614,6.218 C17.296,6.218 22.025,3.539 23.031,-5.69877479e-16 C23.1626747,0.457779852 23.2299873,0.931660208 23.231,1.408 C23.231,5.619 18.031,9.033 11.617,9.033 C5.203,9.033 0,5.619 0,1.408 C0.00101273473,0.931660208 0.0683252852,0.457779852 0.2,-5.69877479e-16 Z" id="Path_1389"></path>
            </g>
            <g id="Group_2493" transform="translate(0.250000, 11.219000)">
                <path d="M0.2,-5.69877479e-16 C1.2,3.539 5.932,6.218 11.614,6.218 C17.296,6.218 22.025,3.539 23.031,-5.69877479e-16 C23.1626747,0.457779852 23.2299873,0.931660208 23.231,1.408 C23.231,5.619 18.031,9.033 11.617,9.033 C5.203,9.033 0,5.619 0,1.408 C0.00101273473,0.931660208 0.0683252852,0.457779852 0.2,-5.69877479e-16 Z" id="Path_1392"></path>
            </g>
            <g id="Group_2495" transform="translate(0.250000, 0.250000)">
                <path d="M11.614,15.485 C18.028,15.485 23.228,12.018 23.228,7.742 C23.228,3.466 18.028,0 11.614,0 C5.2,0 0,3.467 0,7.743 C0,12.019 5.2,15.485 11.614,15.485 Z" id="Path_1395"></path>
            </g>
        </g>
    </g>
</svg>