<?xml version="1.0" encoding="UTF-8"?>
<svg width="25px" height="25px" viewBox="0 0 25 25" version="1.1" xmlns="http://www.w3.org/2000/svg" xmlns:xlink="http://www.w3.org/1999/xlink">
    <!-- Generator: Sketch 62 (91390) - https://sketch.com -->
    <title>ic-service</title>
    <desc>Created with Sketch.</desc>
    <g id="Page-1" stroke="none" stroke-width="1" fill="none" fill-rule="evenodd" fill-opacity="0.419999987">
        <g id="ic-service" fill="#000000" fill-rule="nonzero" stroke="#000000">
            <path d="M23.727,10.745 C23.8268521,11.6329641 23.8251746,12.5294158 23.722,13.417 C23.6813052,13.7608543 23.3796526,14.0134007 23.034,13.993 L22.889,13.993 C21.8435527,13.9999977 20.9014428,14.6253232 20.489,15.586 C20.0646525,16.6036866 20.3283627,17.7783595 21.147,18.517 C21.4034716,18.748995 21.4341901,19.1408759 21.217,19.41 C20.6575048,20.1068397 20.0200147,20.7372839 19.317,21.289 C19.0471152,21.4988766 18.6613771,21.4666955 18.43,21.215 C17.6795352,20.4324844 16.5351226,20.1721404 15.52,20.553 C14.513746,20.9711437 13.8728003,21.9700305 13.912,23.059 C13.9240012,23.4010678 13.670221,23.6945284 13.33,23.732 C12.4512356,23.8296205 11.5642352,23.8272722 10.686,23.725 C10.3423047,23.685298 10.08923,23.3844154 10.109,23.039 C10.1717967,21.9382326 9.53506781,20.9170637 8.519,20.489 C7.49927768,20.0955751 6.34295296,20.3557383 5.59,21.148 C5.35793788,21.4049123 4.96570445,21.4360629 4.696,21.219 C4.00705529,20.6644724 3.38338428,20.0334207 2.837,19.338 C2.62563273,19.0698117 2.65657997,18.6840608 2.908,18.453 C3.71187777,17.7162963 3.97378022,16.5578663 3.565,15.547 C3.16709402,14.5638936 2.2075105,13.924965 1.147,13.937 C0.787136894,13.9461956 0.468078328,13.7070052 0.376,13.359 C0.276234712,12.4710311 0.277912185,11.5745893 0.381,10.687 C0.413791514,10.3425565 0.714778939,10.0867837 1.06,10.11 C2.15468435,10.1427699 3.16202274,9.51510546 3.615,8.518 C4.04006481,7.50024389 3.77672797,6.32504811 2.958,5.586 C2.70249212,5.35353218 2.67183548,4.96244102 2.888,4.693 C3.44730528,3.99598909 4.08481618,3.36552436 4.788,2.814 C5.05784171,2.60338386 5.44435368,2.63606526 5.675,2.889 C6.42582135,3.67014895 7.56909066,3.9303223 8.584,3.551 C9.59060997,3.13258111 10.2318773,2.1334157 10.193,1.044 C10.1815335,0.702310697 10.4351753,0.409446003 10.775,0.372 C11.6534508,0.274763798 12.5400766,0.277112031 13.418,0.379 C13.7619505,0.418226689 14.015282,0.719414484 13.995,1.065 C13.9324971,2.16507455 14.5675619,3.18590014 15.582,3.616 C16.6022586,4.00832021 17.7583442,3.74878275 18.513,2.958 C18.7449123,2.70187463 19.1360489,2.67033842 19.406,2.886 C20.0958336,3.43982859 20.7202069,4.07057649 21.267,4.766 C21.4789948,5.03435955 21.4480252,5.42082489 21.196,5.652 C20.3966552,6.3763183 20.1289878,7.51972847 20.5237739,8.52358759 C20.9185599,9.52744671 21.8933958,10.1822197 22.972,10.168 C23.327091,10.161765 23.6397771,10.4007317 23.727,10.745 Z M12.157,19.636 C14.8295253,19.636 17.2990405,18.2102248 18.6353031,15.89575 C19.9715658,13.5812753 19.9715658,10.7297247 18.6353031,8.41524997 C17.2990405,6.1007752 14.8295253,4.675 12.157,4.675 C11.6007418,4.67725527 11.0462971,4.73859951 10.503,4.858 C6.78736298,5.70002973 4.29803802,9.19994887 4.72183096,12.986157 C5.14562389,16.7723651 8.34714798,19.6353035 12.157,19.635 L12.157,19.636 Z" id="Path_1309" stroke-width="0.6"></path>
            <g id="Group_2378" transform="translate(7.155000, 7.204000)" stroke-width="0.5">
                <path d="M5.06,10.121 C7.85443065,10.121 10.1198158,7.85576391 10.1199999,5.06133327 C10.1201839,2.26690263 7.85509716,0.0013681984 5.06066653,0.00100004391 C2.26623591,0.000631889421 0.000552259021,2.26556941 -9.89574378e-08,5.06 C-0.000265250735,6.40216869 0.532723261,7.68945641 1.48168609,8.63860678 C2.43064891,9.58775714 3.71783128,10.121 5.06,10.121 L5.06,10.121 Z" id="Path_1312"></path>
            </g>
        </g>
    </g>
</svg>