<svg xmlns="http://www.w3.org/2000/svg" width="24.997" height="24.997" viewBox="0 0 24.997 24.997">
    <defs>
        <style>
            .cls-1{fill:#333}.cls-2{fill:none;stroke:#333;stroke-linecap:round;stroke-miterlimit:10}
        </style>
    </defs>
    <g id="ic_images">
        <path id="Path_53" d="M12.165 2.833a9.332 9.332 0 1 1-9.332 9.332 9.275 9.275 0 0 1 9.332-9.332m0-1.333a10.665 10.665 0 1 0 10.666 10.665A10.7 10.7 0 0 0 12.165 1.5z" class="cls-1" data-name="Path 53" transform="translate(.333 .333)"/>
        <path id="Path_54" d="M10.833 6.833a3.928 3.928 0 0 1 4 4 3.928 3.928 0 0 1-4 4 3.928 3.928 0 0 1-4-4 3.928 3.928 0 0 1 4-4m0-1.333a5.333 5.333 0 1 0 5.333 5.333A5.348 5.348 0 0 0 10.833 5.5z" class="cls-1" data-name="Path 54" transform="translate(1.666 1.666)"/>
        <path id="Line_1" d="M0 0h7.199" class="cls-2" data-name="Line 1" transform="translate(17.298 12.499)"/>
        <path id="Line_2" d="M0 0h7.199" class="cls-2" data-name="Line 2" transform="translate(.5 12.499)"/>
        <path id="Line_3" d="M0 0l5.066 5.066" class="cls-2" data-name="Line 3" transform="translate(15.965 15.965)"/>
        <path id="Line_4" d="M0 0l5.066 5.066" class="cls-2" data-name="Line 4" transform="translate(3.966 3.966)"/>
        <path id="Line_5" d="M5.199 0L0 5.199" class="cls-2" data-name="Line 5" transform="translate(3.966 15.831)"/>
        <path id="Line_6" d="M5.199 0L0 5.199" class="cls-2" data-name="Line 6" transform="translate(15.831 3.966)"/>
        <path id="Path_55" d="M9.5 13.1v7.2" class="cls-2" data-name="Path 55" transform="translate(2.998 4.198)"/>
        <path id="Line_7" d="M0 0v7.066" class="cls-2" data-name="Line 7" transform="translate(12.498 .5)"/>
    </g>
</svg>
