<svg xmlns="http://www.w3.org/2000/svg" id="strongbox" width="24.002" height="24.002" viewBox="0 0 24.002 24.002">
    <defs>
        <style>
            .cls-1{fill:#333}
        </style>
    </defs>
    <path id="Path_1119" d="M21.292 0H2.71A2.713 2.713 0 0 0 0 2.71v16.259a2.71 2.71 0 0 0 1.549 2.445v2.2a.387.387 0 0 0 .387.386h3.871a.387.387 0 0 0 .387-.387v-1.934h11.614v1.936A.387.387 0 0 0 18.2 24h3.871a.387.387 0 0 0 .387-.387v-2.2A2.71 2.71 0 0 0 24 18.969V2.71A2.713 2.713 0 0 0 21.292 0zM5.42 23.228h-3.1v-1.58c.127.018 3.1.031 3.1.031zm16.259 0h-3.1v-1.549s2.97-.013 3.1-.031zm1.549-4.258a1.938 1.938 0 0 1-1.936 1.93H2.71a1.938 1.938 0 0 1-1.936-1.931V2.71A1.938 1.938 0 0 1 2.71.774h18.582a1.938 1.938 0 0 1 1.936 1.936zm0 0" class="cls-1" data-name="Path 1119"/>
    <path id="Path_1120" d="M201.161 250a1.161 1.161 0 1 0 1.161 1.161 1.161 1.161 0 0 0-1.161-1.161zm0 1.549a.387.387 0 1 1 .387-.387.387.387 0 0 1-.387.387zm0 0" class="cls-1" data-name="Path 1120" transform="translate(-192.257 -240.322)"/>
    <path id="Path_1121" d="M119.18 161.825a.387.387 0 0 0 0-.547l-1.161-1.161a.387.387 0 0 0-.547 0l-1.936 1.936a.347.347 0 0 0-.021.031 2.666 2.666 0 0 0-1.733 0 .345.345 0 0 0-.021-.031l-1.936-1.936a.387.387 0 0 0-.547 0l-1.161 1.161a.387.387 0 0 0 0 .547l1.936 1.936.031.021a2.665 2.665 0 0 0 0 1.733l-.031.021-1.936 1.936a.387.387 0 0 0 0 .547l1.161 1.161a.387.387 0 0 0 .547 0l1.936-1.936a.345.345 0 0 0 .021-.031 2.666 2.666 0 0 0 1.733 0 .347.347 0 0 0 .021.031l1.936 1.936a.387.387 0 0 0 .547 0l1.161-1.161a.387.387 0 0 0 0-.547l-1.936-1.936-.031-.021a2.665 2.665 0 0 0 0-1.733l.031-.021zm-8.243-.274l.614-.614 1.515 1.515a2.732 2.732 0 0 0-.614.614zm.614 6.808l-.614-.614 1.515-1.515a2.731 2.731 0 0 0 .614.614zm1.161-3.711a1.936 1.936 0 1 1 1.936 1.936 1.936 1.936 0 0 1-1.935-1.936zm5.647 3.1l-.614.614-1.515-1.515a2.731 2.731 0 0 0 .614-.614zm-2.129-5.293l1.515-1.515.614.614-1.515 1.515a2.731 2.731 0 0 0-.614-.616zm0 0" class="cls-1" data-name="Path 1121" transform="translate(-105.744 -153.809)"/>
    <path id="Path_1122" d="M374.258 110h-3.871a.387.387 0 1 0 0 .774h3.871a.387.387 0 0 0 0-.774zm0 0" class="cls-1" data-name="Path 1122" transform="translate(-355.676 -105.742)"/>
    <path id="Path_1123" d="M402.323 150h-1.936a.387.387 0 0 0 0 .774h1.936a.387.387 0 1 0 0-.774zm0 0" class="cls-1" data-name="Path 1123" transform="translate(-384.515 -144.193)"/>
    <path id="Path_1124" d="M79.744 63.1h-.387v-.39a2.713 2.713 0 0 0-2.71-2.71H62.71A2.713 2.713 0 0 0 60 62.71v11.614a2.713 2.713 0 0 0 2.71 2.71h13.937a2.713 2.713 0 0 0 2.71-2.71v-.387h.387a.387.387 0 0 0 .387-.387v-3.872a.387.387 0 0 0-.387-.387h-.387v-1.548h.387a.387.387 0 0 0 .387-.387v-3.872a.387.387 0 0 0-.387-.384zm-.387 10.065h-.774v-3.1h.774zM78.2 69.291a.387.387 0 0 0-.387.387v3.871a.387.387 0 0 0 .387.387h.387v.387a1.938 1.938 0 0 1-1.936 1.936H62.71a1.938 1.938 0 0 1-1.936-1.936V62.71a1.938 1.938 0 0 1 1.936-1.936h13.937a1.938 1.938 0 0 1 1.936 1.936v.39H78.2a.387.387 0 0 0-.387.387v3.871a.387.387 0 0 0 .387.387h.387v1.549zm1.161-2.323h-.774v-3.1h.774zm0 0" class="cls-1" data-name="Path 1124" transform="translate(-57.677 -57.677)"/>
</svg>
