<?xml version="1.0" encoding="UTF-8"?>
<svg width="104px" height="102px" viewBox="0 0 104 102" version="1.1" xmlns="http://www.w3.org/2000/svg" xmlns:xlink="http://www.w3.org/1999/xlink">
    <!-- Generator: Sketch 53.1 (72631) - https://sketchapp.com -->
    <title>cli</title>
    <desc>Created with Sketch.</desc>
    <g id="Page-1" stroke="none" stroke-width="1" fill="none" fill-rule="evenodd">
        <g id="cli" transform="translate(1.000000, 2.000000)" fill-rule="nonzero" stroke="#FEFEFE" stroke-width="3">
            <path d="M76.611,63.454 C69.8990834,63.454 64.458,68.8950834 64.458,75.607 C64.458,82.3189166 69.8990834,87.76 76.611,87.76 C83.3229166,87.76 88.764,82.3189166 88.764,75.607 C88.7561519,68.8983369 83.3196631,63.4618481 76.611,63.454 L76.611,63.454 Z M76.611,81.6839451 C73.2547959,81.6839451 70.5340549,78.9632041 70.5340549,75.607 C70.5340549,72.2507959 73.2547959,69.5300549 76.611,69.5300549 C79.9672041,69.5300549 82.6879451,72.2507959 82.6879451,75.607 C82.6845097,78.961636 79.9656364,81.680111 76.611,81.6830549 L76.611,81.6839451 Z" id="Shape"></path>
            <path d="M0.996,81.918 L7.896,81.918 L7.896,78.981 L12.131,77.581 L10.131,73.63 L16.766,67.063 L20.76,69.044 L22.17,64.852 L31.552,64.852 L32.962,69.044 L36.953,67.067 L43.588,73.634 L41.588,77.585 L45.824,78.985 L45.824,81.922 L53.748,81.922 C53.668,81.661 53.58,81.403 53.511,81.139 L49.271,79.739 L49.271,70.449 L53.511,69.049 C54.0688773,66.9357083 54.9194416,64.9107795 56.038,63.033 L54.038,59.068 L60.672,52.501 L64.678,54.483 C66.5795875,53.3752354 68.6243806,52.5340338 70.755,51.983 L72.168,47.783 L81.55,47.783 L82.964,51.983 C85.0948645,52.5332981 87.139756,53.3745403 89.041,54.483 L93.047,52.501 L99.681,59.068 L97.681,63.033 C98.7992074,64.9109567 99.6497505,66.935835 100.208,69.049 L101.001,69.308 L101.001,13.653 L0.996,13.653 L0.996,81.918 Z M55.621,24.893 L93.552,24.893 L93.552,25.393 L55.621,25.393 L55.621,24.893 Z M55.621,31.72 L93.552,31.72 L93.552,32.22 L55.621,32.22 L55.621,31.72 Z M55.621,38.547 L93.552,38.547 L93.552,39.047 L55.621,39.047 L55.621,38.547 Z M10.267,22.989522 L11.800444,20.854 L25.267,32.8527989 L11.8011556,44.854 L10.267,42.7192788 L21.3383947,32.8568025 L10.267,22.989522 Z" id="Shape-2"></path>
            <path d="M37.1647422,80.3117461 C37.0901619,80.1156297 37.0110351,79.9212726 36.9274258,79.728832 L36.62875,79.0629023 L38.2935742,75.7332539 L35.5080391,72.9495234 L32.1783906,74.6143477 L31.5124609,74.3156719 C31.3203452,74.2312928 31.1259686,74.152158 30.9295469,74.0783555 L30.247375,73.8193828 L29.0689141,70.284 L25.1283789,70.284 L23.949918,73.8193828 L23.2677461,74.0783555 C23.0683281,74.1541523 22.8761289,74.2326562 22.684832,74.3156719 L22.0189023,74.6143477 L18.6901562,72.9495234 L15.9046211,75.7350586 L17.5694453,79.064707 L17.2707695,79.7306367 C17.1859492,79.9219336 17.10925,80.1141328 17.0334531,80.3135508 L16.7744805,80.9957227 L13.24,82.1741836 L13.24,86.1147187 L16.7753828,87.2931797 L17.0343555,87.9753516 C17.1101523,88.1747695 17.1886562,88.3669687 17.2716719,88.5582656 L17.5703477,89.2241953 L15.9055234,92.5538437 L18.6910586,95.3393789 L22.020707,93.6745547 L22.6875391,93.9732305 C22.8779336,94.0580508 23.0701328,94.13475 23.2695508,94.2105469 L23.9517227,94.4695195 L25.1301836,98.0049023 L29.0707187,98.0049023 L30.2491797,94.4695195 L30.9313516,94.2105469 C31.1307695,94.13475 31.3229687,94.0562461 31.5142656,93.9732305 L32.1801953,93.6745547 L35.5098437,95.3393789 L38.2953789,92.5538437 L36.6305547,89.2241953 L36.9292305,88.5582656 C37.0140508,88.3669687 37.09075,88.1747695 37.1665469,87.9753516 L37.4255195,87.2931797 L40.96,86.1147187 L40.96,82.1714766 L37.4246172,80.9930156 L37.1647422,80.3117461 Z M27.0990977,91.8409922 C22.8466716,91.842487 19.3981873,88.3964264 19.3966924,84.1440003 C19.3951974,79.8915742 22.8412578,76.4430898 27.0936839,76.4415947 C31.34611,76.4400996 34.7945945,79.8861599 34.7960898,84.1385859 C34.7926121,88.3889529 31.3494612,91.8345258 27.0990977,91.8409922 L27.0990977,91.8409922 Z" id="Shape-3"></path>
            <path d="M95.3550357,71.5215434 C94.8689046,69.2916868 93.9860783,67.1673168 92.7486339,65.2496841 L92.2547202,64.4830402 L93.8873531,61.2187117 L90.9941627,58.3255213 L87.7298343,59.9581542 L86.9641276,59.4642406 C85.0464949,58.2267961 82.9221248,57.3439699 80.6922682,56.8578388 L79.8028488,56.664772 L78.6510085,53.213 L74.5581798,53.213 L73.4063395,56.664772 L72.5169201,56.8578388 C70.2870635,57.3439699 68.1626935,58.2267961 66.2450608,59.4642406 L65.4793541,59.9581542 L62.2150256,58.3255213 L59.3218353,61.2187117 L60.9544681,64.4830402 L60.4596173,65.2496841 C59.2228092,67.1675443 58.3403258,69.2918534 57.8541527,71.5215434 L57.6601487,72.4109628 L54.214,73.5609287 L54.214,77.6537574 L57.665772,78.8055977 L57.8588388,79.6950171 C58.3449894,81.9248676 59.2278142,84.0492343 60.4652406,85.9668764 L60.9591542,86.7335203 L59.3265213,89.9978488 L62.2197117,92.8910392 L65.4840402,91.2584063 L66.2497469,91.7523199 C68.1675976,92.989146 70.2919101,93.8716309 72.5216062,94.3577845 L73.4110256,94.5517885 L74.5628659,98.0026233 L78.6556946,98.0026233 L79.8065977,94.5517885 L80.6960171,94.3577845 C82.925756,93.8717671 85.050092,92.9892724 86.9678764,91.7523199 L87.7335831,91.2584063 L90.9979116,92.8910392 L93.891102,89.9978488 L92.2584691,86.7335203 L92.7523827,85.9668764 C93.9891908,84.0490162 94.8716742,81.9247071 95.3578473,79.6950171 L95.5518513,78.8055977 L98.998,77.6537574 L98.998,73.5628031 L95.546228,72.4109628 L95.3550357,71.5215434 Z" id="Shape-4"></path>
            <path d="M0.996,0 L0.996,10.24 L100.996,10.24 L100.996,0 L0.996,0 Z M6.448,5.413 L5.448,5.413 L5.448,4.413 L6.448,4.413 L6.448,5.413 Z M13.345,5.413 L12.345,5.413 L12.345,4.413 L13.345,4.413 L13.345,5.413 Z M20.242,5.413 L19.242,5.413 L19.242,4.413 L20.2402629,4.413 L20.242,5.413 Z" id="Shape-5"></path>
        </g>
    </g>
</svg>