<?xml version="1.0"?>
<svg xmlns="http://www.w3.org/2000/svg" fill="#fefefe" viewBox="0 0 64 64" width="512" height="512"><title>Design-Service-Creative-consult-idea</title><g id="Expand"><rect x="12" y="10" width="2" height="2"/><rect x="16" y="10" width="10" height="2"/><rect x="10" y="14" width="16" height="2"/><rect x="10" y="18" width="13" height="2"/><rect x="40" y="20" width="2" height="2"/><rect x="44" y="20" width="10" height="2"/><rect x="38" y="24" width="16" height="2"/><rect x="38" y="28" width="13" height="2"/><path d="M8.022,27.957C8.008,28.3,8,28.65,8,29s.008.7.022,1.043l2-.086C10.007,29.64,10,29.32,10,29s.007-.64.021-.957Z"/><path d="M17.391,48.043l1.218-1.586a21.842,21.842,0,0,1-8.423-14.586L8.2,32.129A23.832,23.832,0,0,0,17.391,48.043Z"/><path d="M49.241,12.305A23.9,23.9,0,0,0,37.216,5.568l-.432,1.953A21.922,21.922,0,0,1,47.8,13.7Z"/><path d="M51.359,34H57a1,1,0,0,0,1-1V17a1,1,0,0,0-1-1H47.189A19.925,19.925,0,0,0,32,9c-.669,0-1.337.045-2,.111V7a1,1,0,0,0-1-1H7A1,1,0,0,0,6,7V23a1,1,0,0,0,1,1h5.639A19.939,19.939,0,0,0,24,47.3V48H23a1,1,0,0,0-1,1v8a1,1,0,0,0,1,1h1v1a3,3,0,0,0,3,3H37a3,3,0,0,0,3-3V58h1a1,1,0,0,0,1-1V49a1,1,0,0,0-1-1H40v-.7A19.937,19.937,0,0,0,51.359,34ZM56,32H47a1,1,0,0,0-.6.2L44,34V33a1,1,0,0,0-1-1H36V18H56ZM34,37V48H30V37a1,1,0,0,0-.105-.447l-2.984-5.967,4.814,1.376a1.008,1.008,0,0,0,.55,0L34,31.469V33a1,1,0,0,0,1,1h.382L34.1,36.553A1,1,0,0,0,34,37ZM8,8H28V22H20a1,1,0,0,0-1,1v1l-2.4-1.8A1,1,0,0,0,16,22H8ZM25.369,45.7A17.919,17.919,0,0,1,14.718,24h.949L19.4,26.8a1,1,0,0,0,.6.2,1,1,0,0,0,1-1V24h8a1,1,0,0,0,1-1V11.123A18.259,18.259,0,0,1,32,11a17.918,17.918,0,0,1,12.437,5H35a1,1,0,0,0-1,1V29.388l-2,.572-6.725-1.922a1.006,1.006,0,0,0-.875.162l-4,3,1.2,1.6,3.041-2.281L28,37.236V48H26V46.631A1,1,0,0,0,25.369,45.7ZM24,50H40v2H24Zm14,9a1,1,0,0,1-1,1H27a1,1,0,0,1-1-1V58H38Zm2-3H24V54H40Zm-4-8V37.236L37.618,34H42v2a1,1,0,0,0,1.6.8L47.333,34h1.958a17.959,17.959,0,0,1-10.66,11.7,1,1,0,0,0-.631.93V48Z"/></g></svg>
