<svg xmlns="http://www.w3.org/2000/svg" width="34.838" height="34.142" viewBox="0 0 34.838 34.142">
    <defs>
        <style>
            .cls-1{fill:#fefefe;fill-rule:evenodd}
        </style>
    </defs>
    <path id="ic-auto-scaling" d="M29.209 25.216h-12.1v3.346a5.611 5.611 0 0 1-5.63 5.579H5.63A5.611 5.611 0 0 1 0 28.562v-5.8a5.611 5.611 0 0 1 5.63-5.58H9.4V5.579A5.611 5.611 0 0 1 15.025 0h14.184a5.611 5.611 0 0 1 5.63 5.579v14.058a5.611 5.611 0 0 1-5.63 5.579zm4.378-19.637a4.364 4.364 0 0 0-4.378-4.339H15.025a4.364 4.364 0 0 0-4.378 4.339V17.8a.623.623 0 0 1-.626.62H5.63a4.364 4.364 0 0 0-4.378 4.34v5.8A4.364 4.364 0 0 0 5.63 32.9h5.853a4.364 4.364 0 0 0 4.378-4.339V24.6a.623.623 0 0 1 .626-.62h12.722a4.364 4.364 0 0 0 4.378-4.339zm-9.97 9.021a.623.623 0 0 1-.625-.62v-1.091l-14.56 13.93a.629.629 0 0 1-.885-.015.616.616 0 0 1 .016-.877l14.506-13.878h-1.082a.62.62 0 1 1 0-1.24h2.63a.617.617 0 0 1 .165.025l.038.011a.624.624 0 0 1 .147.07.622.622 0 0 1 .12.108l.025.03a.6.6 0 0 1 .084.141v.009a.6.6 0 0 1 .036.148V13.974a.623.623 0 0 1-.615.626z" class="cls-1"/>
</svg>
