<svg xmlns="http://www.w3.org/2000/svg" width="26.17" height="33.674" viewBox="0 0 26.17 33.674">
    <defs>
        <style>
            .cls-1{fill:rgba(255,255,255,.4);stroke:#fefefe;stroke-width:.5px}
        </style>
    </defs>
    <g id="ic-secret" transform="translate(-88.75 144.25)">
        <g id="top-secret-copy" transform="translate(89 -144)">
            <path id="Path" d="M13.235 8.963a1.806 1.806 0 0 0-3.61 0v3.715h3.61V8.963z" class="cls-1" transform="translate(1.606 1.6)"/>
            <path id="Shape" d="M25.054 1.938A38.053 38.053 0 0 0 12.835 0 38.057 38.057 0 0 0 .616 1.938.971.971 0 0 0 0 2.854V27.1a.981.981 0 0 0 .474.848c.09.052 2.226 1.31 4.806 2.584 3.542 1.753 6.084 2.642 7.555 2.642s4.013-.889 7.555-2.642a85.386 85.386 0 0 0 4.805-2.58.981.981 0 0 0 .475-.848V2.854a.971.971 0 0 0-.616-.916zm-18.8 13.5a.95.95 0 0 1 .927-.972h.86v-3.8a4.912 4.912 0 0 1 4.794-5.026 4.912 4.912 0 0 1 4.791 5.025v3.8h.86a.95.95 0 0 1 .927.972v7.933a.95.95 0 0 1-.927.972H7.184a.95.95 0 0 1-.927-.972z" class="cls-1"/>
            <path id="Path-2" d="M11.115 14.094a.873.873 0 0 0-.8.93v2.339a.873.873 0 0 0 .8.93.873.873 0 0 0 .8-.93v-2.339a.873.873 0 0 0-.8-.93z" class="cls-1" data-name="Path" transform="translate(1.72 3.123)"/>
        </g>
    </g>
</svg>
