<?xml version="1.0" encoding="UTF-8"?>
<svg width="104px" height="90px" viewBox="0 0 104 90" version="1.1" xmlns="http://www.w3.org/2000/svg" xmlns:xlink="http://www.w3.org/1999/xlink">
    <!-- Generator: Sketch 53.1 (72631) - https://sketchapp.com -->
    <title>wizard</title>
    <desc>Created with Sketch.</desc>
    <g id="Page-1" stroke="none" stroke-width="1" fill="none" fill-rule="evenodd">
        <g id="wizard" transform="translate(2.000000, 2.000000)" stroke="#FEFEFE" stroke-width="3">
            <path d="M0,20.841 L0,79.322 C-3.33066907e-16,83.0571018 3.02789824,86.085 6.763,86.085 L93.237,86.085 C96.9721018,86.085 100,83.0571018 100,79.322 L100,20.841 L0,20.841 Z M27.522,41.795 C32.3009033,41.794191 36.6096949,44.6723104 38.4390625,49.0872093 C40.2684302,53.5021081 39.2580827,58.5842782 35.8791738,61.9637593 C32.5002648,65.3432403 27.4182658,66.3544482 23.0030573,64.5258279 C18.5878488,62.6972076 15.7090001,58.3889034 15.709,53.61 C15.7156126,47.0882773 21.0002785,41.8027166 27.522,41.795 Z M44.646,50.611 L47.765,51.652 L47.765,55.568 L44.651,56.609 L44.498,57.309 C44.057772,59.3275798 43.258768,61.2507441 42.139,62.987 L41.75,63.587 L43.225,66.536 L40.455,69.306 L37.506,67.831 L36.906,68.221 C35.1698148,69.3409028 33.2466254,70.1399172 31.228,70.58 L30.528,70.733 L29.488,73.851 L25.566,73.851 L24.525,70.731 L23.825,70.578 C21.8064202,70.137772 19.8832559,69.338768 18.147,68.219 L17.547,67.83 L14.598,69.305 L11.828,66.535 L13.3,63.591 L12.911,62.991 C11.7909622,61.2548857 10.9919373,59.331671 10.552,57.313 L10.4,56.613 L7.28,55.568 L7.28,51.65 L10.394,50.611 L10.547,49.911 C10.9851508,47.8921262 11.7821207,45.9682891 12.9,44.231 L13.289,43.631 L11.814,40.682 L14.584,37.912 L17.533,39.387 L18.133,38.998 C19.8691042,37.8779429 21.7923224,37.0789166 23.811,36.639 L24.511,36.487 L25.552,33.368 L29.47,33.368 L30.511,36.487 L31.211,36.639 C33.2333665,37.0770477 35.1604057,37.875436 36.9,38.996 L37.5,39.385 L40.449,37.91 L43.219,40.68 L41.746,43.631 L42.135,44.231 C43.2550378,45.9671143 44.0540627,47.890329 44.494,49.909 L44.494,49.909 L44.646,50.611 Z M58.228,30.95 L89.135,30.95 C90.6511741,30.9787443 91.8652482,32.2160534 91.8652482,33.7325 C91.8652482,35.2489466 90.6511741,36.4862557 89.135,36.515 L58.228,36.515 C56.7118259,36.4862557 55.4977518,35.2489466 55.4977518,33.7325 C55.4977518,32.2160534 56.7118259,30.9787443 58.228,30.95 Z M57.006,43.006 L90.356,43.006 C91.2181165,43.006 91.917,43.7048835 91.917,44.567 L91.917,76.716 C91.917,77.5781165 91.2181165,78.277 90.356,78.277 L57.007,78.277 C56.1448835,78.277 55.446,77.5781165 55.446,76.716 L55.446,44.567 C55.446552,43.7052741 56.1452739,43.0069998 57.007,43.007 L57.006,43.006 Z" id="Combined-Shape"></path>
            <path d="M0,16.045 L100,16.045 L100,6.761 C99.9997348,4.96760609 99.2870575,3.24777028 98.018749,1.97983682 C96.7504404,0.711903358 95.0303939,-0.000265236101 93.237,1.11355369e-13 L6.763,1.11355369e-13 C4.96960609,-0.000265236101 3.24955956,0.711903358 1.98125103,1.97983682 C0.712942499,3.24777028 0.00026519688,4.96760609 0,6.761 L0,16.045 Z" id="Rectangle"></path>
        </g>
    </g>
</svg>