<svg xmlns="http://www.w3.org/2000/svg" width="35.136" height="35.142" viewBox="0 0 35.136 35.142">
    <defs>
        <style>
            .cls-1{fill:rgba(0,69,255,.4);stroke:#0045ff}
        </style>
    </defs>
    <g id="ic-service" transform="translate(.5 .501)">
        <path id="Path_1309" d="M34.029 15.173a17.083 17.083 0 0 1-.007 3.882.95.95 0 0 1-1 .837h-.211a3.822 3.822 0 0 0-3.486 2.314 3.777 3.777 0 0 0 .956 4.258.947.947 0 0 1 .1 1.3 17 17 0 0 1-2.76 2.73.954.954 0 0 1-1.289-.107 3.94 3.94 0 0 0-4.227-.962 3.794 3.794 0 0 0-2.336 3.64.95.95 0 0 1-.845.978 16.989 16.989 0 0 1-3.841-.01.949.949 0 0 1-.838-1 3.786 3.786 0 0 0-2.31-3.7 3.922 3.922 0 0 0-4.255.957.949.949 0 0 1-1.3.1 16.951 16.951 0 0 1-2.7-2.732.949.949 0 0 1 .1-1.286 3.8 3.8 0 0 0 .954-4.221 3.744 3.744 0 0 0-3.506-2.341 1.129 1.129 0 0 1-1.12-.84 17.1 17.1 0 0 1 .007-3.882.928.928 0 0 1 .985-.838 3.947 3.947 0 0 0 3.712-2.313 3.777 3.777 0 0 0-.954-4.259.95.95 0 0 1-.1-1.3 16.954 16.954 0 0 1 2.76-2.73.951.951 0 0 1 1.289.109 3.945 3.945 0 0 0 4.226.962 3.8 3.8 0 0 0 2.336-3.639.95.95 0 0 1 .846-.98 17.041 17.041 0 0 1 3.839.01.947.947 0 0 1 .838 1A3.791 3.791 0 0 0 22.2 4.817a3.934 3.934 0 0 0 4.258-.956.95.95 0 0 1 1.3-.1 16.89 16.89 0 0 1 2.7 2.731.949.949 0 0 1-.1 1.287 3.768 3.768 0 0 0 2.58 6.56 1.111 1.111 0 0 1 1.1.838zM17.222 28.088a10.867 10.867 0 1 0 0-21.733 11.409 11.409 0 0 0-2.4.266 10.867 10.867 0 0 0 2.4 21.466z" class="cls-1" data-name="Path 1309" transform="translate(-.001 -.001)"/>
        <g id="Group_2378" data-name="Group 2378" transform="translate(10.02 10.097)">
            <path id="Path_1312" d="M7.286 14.573A7.286 7.286 0 1 0 0 7.287a7.286 7.286 0 0 0 7.286 7.287z" class="cls-1" data-name="Path 1312" transform="translate(0 -.001)"/>
        </g>
    </g>
</svg>
