<svg xmlns="http://www.w3.org/2000/svg" width="33.685" height="33.685" viewBox="0 0 33.685 33.685">
    <defs>
        <style>
            .cls-1{fill:#0045ff}
        </style>
    </defs>
    <g id="reliability" transform="translate(0 .001)">
        <path id="Path_1957" d="M33.124 20.21h-3.277l-3.036-1.01-.986-2.466v-1.857a2.52 2.52 0 0 0-2.25-2.5V3.929a.561.561 0 0 0-.4-.538L11.951.023a.561.561 0 0 0-.322 0L.4 3.391a.562.562 0 0 0-.4.538v8.219c0 .26.018.518.027.776.014.379.035.756.069 1.13l.02.187a20.737 20.737 0 0 0 11.423 16.58.561.561 0 0 0 .5 0 21.01 21.01 0 0 0 2.426-1.429 2.263 2.263 0 0 0 .655.6 2.246 2.246 0 0 0 1.72 3.688h9.544a.563.563 0 0 0 .312-.094l3.225-2.151h3.2a.561.561 0 0 0 .561-.561V20.772a.561.561 0 0 0-.558-.562zm-12.151-2.758l.655 1.635h-3.262a14.557 14.557 0 0 0 1.841-6.987l2.25-.675v.727c0 .12 0 .24-.006.36a2.522 2.522 0 0 0-1.678 2.369v1.532a2.8 2.8 0 0 0 .2 1.039zm-8.06 3.881a2.235 2.235 0 0 0 .618 1.54c-.208.152-.413.309-.628.449l-1.113.712-1.11-.714a13.423 13.423 0 0 1-5.384-6.751l13.777-4.133a13.432 13.432 0 0 1-2.016 6.651h-1.9a2.246 2.246 0 0 0-2.244 2.246zM1.428 15.571c0-.028-.01-.056-.014-.083l2.231-.668c.066.337.146.674.236 1l-2.263.68c-.074-.32-.135-.627-.19-.929zm-.259-2.255l2.22-.666c.016.352.041.7.082 1.049l-2.216.665-.016-.151a23.095 23.095 0 0 1-.07-.897zm17.919-6.548l-14.6 4.379V7.132l7.318-2.613L19.088 6.6zm0 1.172v1.073l-14.52 4.356q-.053-.523-.066-1.053zm3.368 1.235v1.073l-2.246.674V9.849zm0-1.172l-2.246.674V7.6l2.246-.674zM4.725 14.494l9.135-2.74 5.228-1.569v1.073L4.956 15.5a13.314 13.314 0 0 1-.231-1.006zM1.123 4.347l10.667-3.2 10.667 3.2v1.41l-2.246.674v-.256a.561.561 0 0 0-.407-.539l-7.86-2.246a.556.556 0 0 0-.344.01L3.741 6.207a.561.561 0 0 0-.373.529v4.747l-2.246.674zM11.79 29.686a19.628 19.628 0 0 1-9.911-12.092l2.339-.7a14.537 14.537 0 0 0 5.854 7.373l1.414.909a.562.562 0 0 0 .607 0l1.414-.909.015-.01a2.219 2.219 0 0 0 1.04 2.37 2.167 2.167 0 0 0-.512 1.678 19.76 19.76 0 0 1-2.26 1.381zm14.429 2.876h-9.377a1.119 1.119 0 0 1-.093-2.234.573.573 0 0 0 .514-.6.561.561 0 0 0-.561-.539h-.421a1.123 1.123 0 1 1 0-2.246.561.561 0 0 0 0-1.123h-.561a1.123 1.123 0 1 1 0-2.246.561.561 0 0 0 0-1.123h-.561a1.123 1.123 0 0 1 0-2.246h7.3a.562.562 0 0 0 .522-.77l-.962-2.4a1.672 1.672 0 0 1-.121-.626v-1.532a1.4 1.4 0 0 1 2.807 0v1.965a.574.574 0 0 0 .04.209l1.123 2.807a.566.566 0 0 0 .344.324l2.984.995v9.4zm6.344-2.246h-2.247v-8.983h2.246zm0 0" class="cls-1" data-name="Path 1957"/>
        <path id="Path_1958" d="M410.791 102.719l-.768.82a8.392 8.392 0 0 1 .721.766l.863-.718a9.545 9.545 0 0 0-.816-.868zm0 0" class="cls-1" data-name="Path 1958" transform="translate(-381.249 -95.511)"/>
        <path id="Path_1959" d="M448.861 193.326q0-.33-.022-.654l-1.12.076q.019.286.02.578 0 .238-.013.474l1.123.064q.012-.264.012-.538zm0 0" class="cls-1" data-name="Path 1959" transform="translate(-416.299 -179.152)"/>
        <path id="Path_1960" d="M387.365 83.433a9.534 9.534 0 0 0-1.007-.64l-.542.983a8.464 8.464 0 0 1 .888.561zm0 0" class="cls-1" data-name="Path 1960" transform="translate(-358.741 -76.984)"/>
        <path id="Path_1961" d="M443.807 223.849l-1.1-.2a8.307 8.307 0 0 1-.253 1.02l1.07.337a9.447 9.447 0 0 0 .283-1.157zm0 0" class="cls-1" data-name="Path 1961" transform="translate(-411.399 -207.954)"/>
        <path id="Path_1962" d="M359.408 70.643a9.414 9.414 0 0 0-1.135-.369l-.281 1.087a8.443 8.443 0 0 1 1 .326zm0 0" class="cls-1" data-name="Path 1962" transform="translate(-332.869 -65.343)"/>
        <path id="Path_1963" d="M433 252.726l.982.544c.112-.206.225-.417.32-.633l-1.02-.469q-.128.285-.282.558zm0 0" class="cls-1" data-name="Path 1963" transform="translate(-402.613 -234.472)"/>
        <path id="Path_1964" d="M429.16 129.39a8.541 8.541 0 0 1 .51.918l1.014-.482a9.479 9.479 0 0 0-.578-1.042zm0 0" class="cls-1" data-name="Path 1964" transform="translate(-399.043 -119.748)"/>
        <path id="Path_1965" d="M442 159.734a8.442 8.442 0 0 1 .265 1.017l1.1-.214a9.421 9.421 0 0 0-.3-1.154zm0 0" class="cls-1" data-name="Path 1965" transform="translate(-410.982 -148.199)"/>
        <path id="Path_1966" d="M357.224 137.7a3.567 3.567 0 0 1 2.254 3.328h1.122a4.684 4.684 0 0 0-2.959-4.371l-.2-.08-.418 1.042zm0 0" class="cls-1" data-name="Path 1966" transform="translate(-331.969 -126.994)"/>
    </g>
</svg>
