<?xml version="1.0" encoding="UTF-8"?>
<svg width="289px" height="234px" viewBox="0 0 289 234" version="1.1" xmlns="http://www.w3.org/2000/svg" xmlns:xlink="http://www.w3.org/1999/xlink">
    <!-- Generator: Sketch 53.1 (72631) - https://sketchapp.com -->
    <title>Group 24</title>
    <desc>Created with Sketch.</desc>
    <g id="Page-1" stroke="none" stroke-width="1" fill="none" fill-rule="evenodd">
        <g id="Group-24" transform="translate(-5.000000, -7.000000)">
            <g id="ic-rollback" transform="translate(84.000000, 60.000000)">
                <path d="M138.564302,61.7692748 C139.154961,67.0208819 139.145038,72.3226857 138.534726,77.5720458 C138.294002,79.6056728 136.509626,81.0992853 134.464975,80.9786312 L133.607252,80.9786312 C127.423081,81.0200173 121.850185,84.7183239 119.410447,90.3999688 C116.900289,96.4187819 118.460224,103.366045 123.302738,107.73452 C124.819853,109.106588 125.001564,111.424254 123.716811,113.015911 C120.40721,117.137168 116.636242,120.865747 112.477675,124.128713 C110.881215,125.369967 108.599446,125.179641 107.230772,123.691061 C102.791522,119.063099 96.0219377,117.52337 90.0171472,119.775854 C84.0648177,122.248843 80.2734089,128.15647 80.5052884,134.596866 C80.5762795,136.619927 79.0750845,138.355515 77.0625634,138.577129 C71.8643777,139.154478 66.6174725,139.140589 61.4224174,138.53573 C59.3893447,138.300924 57.892323,136.521441 58.0092691,134.478581 C58.3807323,127.968411 54.6142678,121.929003 48.6038862,119.397344 C42.571887,117.070546 35.7318387,118.609206 31.2778698,123.294809 C29.9051446,124.814243 27.5849523,124.998474 25.9895603,123.714718 C21.9142213,120.435125 18.2249984,116.702952 14.9929522,112.590088 C13.742644,111.003965 13.9257073,108.722553 15.412941,107.356011 C20.1681475,102.99899 21.7173882,96.1477908 19.2993162,90.1693147 C16.945569,84.3550163 11.2693109,80.5762575 4.99603594,80.6474355 C2.86732509,80.7018204 0.979986752,79.2871975 0.435312588,77.2290216 C-0.154832521,71.9773862 -0.144909704,66.6756409 0.464889265,61.4262506 C0.658862058,59.3891394 2.43930353,57.8764451 4.4814018,58.013751 C10.9568266,58.2075593 16.9155707,54.4954193 19.595083,48.5983275 C22.1094838,42.5791034 20.5517581,35.628748 15.7087078,31.2578617 C14.1972931,29.882998 14.0159488,27.5700025 15.2946343,25.9764714 C18.6031125,21.854202 22.374203,18.1255008 26.533771,14.8636696 C28.1299752,13.6180413 30.4163229,13.811326 31.7806733,15.3072354 C36.2220332,19.9271149 42.9848542,21.4658349 48.988383,19.2224428 C54.9428183,16.7478254 58.7361294,10.8385506 58.5061572,4.39551657 C58.4383291,2.37469403 59.9387049,0.642630514 61.9488822,0.421166961 C67.145213,-0.153908427 72.3899017,-0.140020481 77.5831128,0.462566436 C79.6176957,0.694561339 81.1162358,2.47584943 80.9962611,4.519715 C80.6265357,11.0257877 84.3831565,17.0631653 90.3838979,19.6068665 C96.4190696,21.9271309 103.257703,20.3921717 107.721745,15.7153159 C109.093584,14.2005365 111.407288,14.0140247 113.004139,15.2894927 C117.084736,18.5649517 120.778114,22.2953278 124.012578,26.408209 C125.266598,27.9953438 125.083403,30.2809813 123.592589,31.6481996 C118.864197,35.9319705 117.280855,42.6943394 119.616146,48.6313738 C121.951438,54.568408 127.717919,58.4408733 134.098224,58.3567752 C136.198706,58.3198999 138.04835,59.7331999 138.564302,61.7692748 Z M70.1238753,114.352522 C85.9327578,114.352522 100.540768,105.920187 108.445209,92.2318959 C116.34965,78.5436043 116.34965,61.6789337 108.445209,47.9906421 C100.540768,34.3023507 85.9327578,25.8700155 70.1238753,25.8700157 C66.8334217,25.8833539 63.5536957,26.2461565 60.339911,26.9523162 C38.3606731,31.9322576 23.6354818,52.6315168 26.142359,75.0239496 C28.6492363,97.4163824 47.587324,114.348403 70.1238753,114.346608 L70.1238753,114.352522 Z" id="Path_1309" stroke="#0045FF" stroke-width="2" fill-opacity="0.419999987" fill="#0045FF" fill-rule="nonzero"></path>
                <g id="ic_cached" transform="translate(34.000000, 33.000000)">
                    <g id="Icon-24px">
                        <path d="M56.9999999,24.0000001 L45,36 L54,36 C54,45.9299999 45.9299999,54 36,54 C32.9699999,54 30.0899999,53.2500001 27.6000001,51.9000001 L23.22,56.2799999 C26.91,58.6199999 31.2900001,60.0000001 36,60.0000001 C49.2599999,60.0000001 60.0000001,49.2599999 60.0000001,36 L69.0000001,36 L56.9999999,24.0000001 L56.9999999,24.0000001 Z M18,36 C18,26.0700001 26.0700001,18 36,18 C39.0300001,18 41.9100001,18.75 44.3999999,20.1 L48.78,15.72 C45.09,13.38 40.7099999,12 36,12 C22.7400001,12 12,22.7400001 12,36 L2.99999999,36 L15,47.9999999 L27,36 L18,36 L18,36 Z" id="Shape" fill="#0045FF" fill-rule="nonzero"></path>
                        <polygon id="Shape" points="0 0 72 0 72 72 0 72"></polygon>
                    </g>
                </g>
            </g>
            <g id="img_delete">
                <g id="Icon-24px" transform="translate(248.000000, 52.000000)">
                    <polygon id="Shape" points="0 0 35 0 35 35 0 35"></polygon>
                    <polygon id="Shape" fill-opacity="0.3" fill="#0045FF" points="13.125 23.58125 7.04375 17.5 4.97291667 19.55625 13.125 27.7083333 30.625 10.2083333 28.56875 8.15208333"></polygon>
                </g>
                <g id="Icon-24px-Copy" transform="translate(263.000000, 213.000000)">
                    <polygon id="Shape" points="0 0 35 0 35 35 0 35"></polygon>
                    <polygon id="Shape" fill-opacity="0.3" fill="#0045FF" points="13.125 23.58125 7.04375 17.5 4.97291667 19.55625 13.125 27.7083333 30.625 10.2083333 28.56875 8.15208333"></polygon>
                </g>
                <g id="Icon-24px-Copy-2" transform="translate(39.000000, 208.000000)">
                    <polygon id="Shape" points="0 0 29 0 29 29 0 29"></polygon>
                    <polygon id="Shape" fill-opacity="0.3" fill="#0045FF" points="10.6736782 19.6234154 5.69528141 14.6480239 4 16.3303505 10.6736782 23 25 8.68232662 23.3166572 7"></polygon>
                </g>
                <g id="Icon-24px-Copy-3" transform="translate(0.000000, 91.000000)">
                    <polygon id="Shape" points="0 0 35 0 35 35 0 35"></polygon>
                    <polygon id="Shape" fill-opacity="0.3" fill="#0045FF" points="13.125 23.58125 7.04375 17.5 4.97291667 19.55625 13.125 27.7083333 30.625 10.2083333 28.56875 8.15208333"></polygon>
                </g>
                <g id="Icon-24px-Copy-4" transform="translate(81.000000, 0.000000)">
                    <polygon id="Shape" points="0 0 29 0 29 29 0 29"></polygon>
                    <polygon id="Shape" fill-opacity="0.3" fill="#0045FF" points="10.6736782 19.6234154 5.69528141 14.6480239 4 16.3303505 10.6736782 23 25 8.68232662 23.3166572 7"></polygon>
                </g>
                <g id="Icon-24px" transform="translate(45.000000, 130.500000)">
                    <polygon id="Shape" points="0 0.5 32 0.5 32 32.5 0 32.5"></polygon>
                    <path d="M20.6666667,2.5 L12.3333333,2.5 L12.3333333,5.16666667 L20.6666667,5.16666667 L20.6666667,2.5 L20.6666667,2.5 Z M15.1111111,19.8333333 L17.8888889,19.8333333 L17.8888889,11.8333333 L15.1111111,11.8333333 L15.1111111,19.8333333 L15.1111111,19.8333333 Z M26.2638889,11.02 L28.2361111,9.12666667 C27.6388889,8.44666667 26.9861111,7.80666667 26.2777778,7.24666667 L24.3055556,9.14 C22.1527778,7.48666667 19.4444444,6.5 16.5,6.5 C9.59722222,6.5 4,11.8733333 4,18.5 C4,25.1266667 9.58333333,30.5 16.5,30.5 C23.4166667,30.5 29,25.1266667 29,18.5 C29,15.6733333 27.9722222,13.0733333 26.2638889,11.02 L26.2638889,11.02 Z M16.5,27.8333333 C11.125,27.8333333 6.77777778,23.66 6.77777778,18.5 C6.77777778,13.34 11.125,9.16666667 16.5,9.16666667 C21.875,9.16666667 26.2222222,13.34 26.2222222,18.5 C26.2222222,23.66 21.875,27.8333333 16.5,27.8333333 L16.5,27.8333333 Z" id="Shape" fill-opacity="0.3" fill="#0045FF"></path>
                </g>
                <g id="Icon-24px-Copy-5" transform="translate(234.000000, 143.000000)">
                    <polygon id="Shape" points="0 0.5 32 0.5 32 32.5 0 32.5"></polygon>
                    <path d="M20.6666667,2.5 L12.3333333,2.5 L12.3333333,5.16666667 L20.6666667,5.16666667 L20.6666667,2.5 L20.6666667,2.5 Z M15.1111111,19.8333333 L17.8888889,19.8333333 L17.8888889,11.8333333 L15.1111111,11.8333333 L15.1111111,19.8333333 L15.1111111,19.8333333 Z M26.2638889,11.02 L28.2361111,9.12666667 C27.6388889,8.44666667 26.9861111,7.80666667 26.2777778,7.24666667 L24.3055556,9.14 C22.1527778,7.48666667 19.4444444,6.5 16.5,6.5 C9.59722222,6.5 4,11.8733333 4,18.5 C4,25.1266667 9.58333333,30.5 16.5,30.5 C23.4166667,30.5 29,25.1266667 29,18.5 C29,15.6733333 27.9722222,13.0733333 26.2638889,11.02 L26.2638889,11.02 Z M16.5,27.8333333 C11.125,27.8333333 6.77777778,23.66 6.77777778,18.5 C6.77777778,13.34 11.125,9.16666667 16.5,9.16666667 C21.875,9.16666667 26.2222222,13.34 26.2222222,18.5 C26.2222222,23.66 21.875,27.8333333 16.5,27.8333333 L16.5,27.8333333 Z" id="Shape" fill-opacity="0.3" fill="#0045FF"></path>
                </g>
                <g id="Icon-24px-Copy-6" transform="translate(171.000000, 18.000000)">
                    <polygon id="Shape" points="0 0.5 32 0.5 32 32.5 0 32.5"></polygon>
                    <path d="M20.6666667,2.5 L12.3333333,2.5 L12.3333333,5.16666667 L20.6666667,5.16666667 L20.6666667,2.5 L20.6666667,2.5 Z M15.1111111,19.8333333 L17.8888889,19.8333333 L17.8888889,11.8333333 L15.1111111,11.8333333 L15.1111111,19.8333333 L15.1111111,19.8333333 Z M26.2638889,11.02 L28.2361111,9.12666667 C27.6388889,8.44666667 26.9861111,7.80666667 26.2777778,7.24666667 L24.3055556,9.14 C22.1527778,7.48666667 19.4444444,6.5 16.5,6.5 C9.59722222,6.5 4,11.8733333 4,18.5 C4,25.1266667 9.58333333,30.5 16.5,30.5 C23.4166667,30.5 29,25.1266667 29,18.5 C29,15.6733333 27.9722222,13.0733333 26.2638889,11.02 L26.2638889,11.02 Z M16.5,27.8333333 C11.125,27.8333333 6.77777778,23.66 6.77777778,18.5 C6.77777778,13.34 11.125,9.16666667 16.5,9.16666667 C21.875,9.16666667 26.2222222,13.34 26.2222222,18.5 C26.2222222,23.66 21.875,27.8333333 16.5,27.8333333 L16.5,27.8333333 Z" id="Shape" fill-opacity="0.3" fill="#0045FF"></path>
                </g>
            </g>
        </g>
    </g>
</svg>
