<?xml version="1.0" encoding="UTF-8"?>
<svg width="289px" height="234px" viewBox="0 0 289 234" version="1.1" xmlns="http://www.w3.org/2000/svg" xmlns:xlink="http://www.w3.org/1999/xlink">
    <!-- Generator: Sketch 53.1 (72631) - https://sketchapp.com -->
    <title>Group 2</title>
    <desc>Created with Sketch.</desc>
    <g id="Page-1" stroke="none" stroke-width="1" fill="none" fill-rule="evenodd">
        <g id="Artboard" transform="translate(-899.000000, -193.000000)">
            <g id="Group-2" transform="translate(894.000000, 186.000000)">
                <g id="Icon-24px" transform="translate(248.000000, 52.000000)">
                    <polygon id="Shape" points="0 0 35 0 35 35 0 35"></polygon>
                    <polygon id="Shape" fill-opacity="0.3" fill="#0045FF" points="13.125 23.58125 7.04375 17.5 4.97291667 19.55625 13.125 27.7083333 30.625 10.2083333 28.56875 8.15208333"></polygon>
                </g>
                <g id="Icon-24px-Copy" transform="translate(263.000000, 213.000000)">
                    <polygon id="Shape" points="0 0 35 0 35 35 0 35"></polygon>
                    <polygon id="Shape" fill-opacity="0.3" fill="#0045FF" points="13.125 23.58125 7.04375 17.5 4.97291667 19.55625 13.125 27.7083333 30.625 10.2083333 28.56875 8.15208333"></polygon>
                </g>
                <g id="Icon-24px-Copy-2" transform="translate(39.000000, 208.000000)">
                    <polygon id="Shape" points="0 0 29 0 29 29 0 29"></polygon>
                    <polygon id="Shape" fill-opacity="0.3" fill="#0045FF" points="10.6736782 19.6234154 5.69528141 14.6480239 4 16.3303505 10.6736782 23 25 8.68232662 23.3166572 7"></polygon>
                </g>
                <g id="Icon-24px-Copy-3" transform="translate(0.000000, 91.000000)">
                    <polygon id="Shape" points="0 0 35 0 35 35 0 35"></polygon>
                    <polygon id="Shape" fill-opacity="0.3" fill="#0045FF" points="13.125 23.58125 7.04375 17.5 4.97291667 19.55625 13.125 27.7083333 30.625 10.2083333 28.56875 8.15208333"></polygon>
                </g>
                <g id="Icon-24px-Copy-4" transform="translate(81.000000, 0.000000)">
                    <polygon id="Shape" points="0 0 29 0 29 29 0 29"></polygon>
                    <polygon id="Shape" fill-opacity="0.3" fill="#0045FF" points="10.6736782 19.6234154 5.69528141 14.6480239 4 16.3303505 10.6736782 23 25 8.68232662 23.3166572 7"></polygon>
                </g>
                <g id="Group" transform="translate(51.000000, 138.000000)" stroke="#0045FF" stroke-linecap="round" stroke-linejoin="bevel" stroke-opacity="0.3" stroke-width="2">
                    <polyline id="Path-2" points="-1.26121336e-13 6 9.72222222 4.4408921e-16 19.2222222 6"></polyline>
                    <polyline id="Path-2-Copy" points="-1.26121336e-13 12 9.72222222 6 19.2222222 12"></polyline>
                    <polyline id="Path-2-Copy-2" points="-1.26121336e-13 18 9.72222222 12 19.2222222 18"></polyline>
                </g>
                <g id="Group" transform="translate(177.000000, 25.000000)" stroke="#0045FF" stroke-linecap="round" stroke-linejoin="bevel" stroke-opacity="0.3" stroke-width="2">
                    <polyline id="Path-2" points="-1.26121336e-13 6 9.72222222 4.4408921e-16 19.2222222 6"></polyline>
                    <polyline id="Path-2-Copy" points="-1.26121336e-13 12 9.72222222 6 19.2222222 12"></polyline>
                    <polyline id="Path-2-Copy-2" points="-1.26121336e-13 18 9.72222222 12 19.2222222 18"></polyline>
                </g>
                <g id="icon" transform="translate(91.000000, 60.000000)" fill="#1757FF" fill-rule="nonzero">
                    <path d="M30.4960059,42.5524617 C30.8506934,44.7125104 31.6867427,46.0709785 32.505902,46.9400606 C34.4566835,59.9341032 45.3506582,72 55.2903545,72 C66.8852593,72 77.4414363,58.9468935 79.4851122,46.9653736 C80.3127165,46.1131669 81.1656556,44.7378235 81.5287881,42.5608994 C82.1874935,40.122407 83.0488775,35.8866866 81.5456779,33.9122671 C81.4612285,33.8110149 81.3767791,33.7182003 81.3007746,33.6253857 C82.7026349,28.5121455 84.4845176,17.9481576 78.1339215,10.750808 C77.5765554,10.0251666 74.0296799,5.78944622 66.4207875,3.54502067 L62.8147974,2.28780485 C56.8357788,0.439950733 53.0693348,0.0349416108 52.9173259,0.00962854066 C52.6555327,-0.0156845295 52.3684047,0.00962854066 52.1066115,0.077130061 C51.8954879,0.136193891 51.1945578,0.321823072 50.6371916,0.254321552 C49.2099965,0.0518169909 47.0649813,0.785896025 46.684959,0.929336756 C46.1782625,1.12340363 34.6086925,5.76413315 31.0955967,16.5306256 C30.766244,17.4081454 29.3643837,21.9813734 31.2307158,33.2119389 C30.9520327,33.397568 30.6986845,33.6253857 30.4875609,33.9122671 C28.9843613,35.8866866 29.8288555,40.1139693 30.4960059,42.5524617 Z M35.0393845,18.0662852 C35.0647193,18.0156591 35.0816092,17.9565953 35.106944,17.8890937 C37.9697792,9.01264382 48.120599,4.91192646 48.1881586,4.8781757 C48.6526304,4.70098421 49.5562391,4.4478535 50.0376008,4.4478535 C51.0341039,4.58285654 52.1826159,4.40566505 52.8075416,4.26222432 C53.8293796,4.40566505 57.0046776,4.92036415 61.4889416,6.30414531 L65.1371564,7.55292344 C71.9015546,9.55265598 74.7728348,13.2989904 74.7897246,13.3243034 C74.8403943,13.3833673 74.8910639,13.4339934 74.9248437,13.4846195 C80.7940781,20.0913308 77.779234,31.0265771 76.7067264,34.216024 C76.4618231,34.9669784 76.6391669,35.793872 77.1880881,36.3507596 C77.4667711,36.637641 77.7961239,36.8317079 78.1592564,36.9329602 C78.1761462,37.9707961 77.8805733,39.8692763 77.4161015,41.5315012 C77.3992116,41.6074405 77.3823217,41.6918174 77.3654318,41.7677566 C77.1880881,42.9405955 76.7911758,43.7928022 76.2591445,44.1809359 C75.8115626,44.5184435 75.4990997,45.0331426 75.4146503,45.5900302 C74.01279,55.6308813 64.7064644,67.7727173 55.2987994,67.7727173 C47.3774442,67.7727173 37.9444444,56.592778 36.6101436,45.6322186 C36.5425841,45.0584557 36.2470111,44.5437566 35.7740944,44.1978113 C35.2420631,43.7928022 34.8451508,42.9321578 34.667807,41.7761943 C34.6593621,41.6918174 34.6424722,41.6074405 34.6171374,41.5315012 C34.1864454,39.987404 33.9077623,38.2239268 33.8824275,37.1607778 C34.2793397,37.1185894 34.676252,36.9835863 35.0140496,36.7135802 C35.6389753,36.2241942 35.9429932,35.4310513 35.7909843,34.6463462 C33.4686253,22.4623217 35.0393845,18.0662852 35.0393845,18.0662852 Z" id="Shape"></path>
                    <path d="M96.6485356,79.8074638 C90.3909839,75.6821663 80.9198657,72.691961 80.9198657,72.691961 C71.4148313,69.3375097 71.3469987,66 71.3469987,66 C52.6676135,102.797315 38.4821339,66.1185917 38.4821339,66.1185917 C37.1763575,71.082502 17.9373538,76.9104377 17.9373538,76.9104377 C12.3157322,79.0620302 9.94159333,82.2978898 9.94159333,82.2978898 C1.63210737,94.6144864 0.648535565,122.017643 0.648535565,122.017643 C0.75876344,128.277591 3.46358591,128.929846 3.46358591,128.929846 C22.5754036,137.451508 52.5743437,138.967787 52.5743437,138.967787 C60.926225,139.145675 68.6336972,138.569658 75.4763045,137.663278 C68.9219855,131.538864 64.7757216,122.856256 64.7757216,113.207973 C64.7672425,95.3006241 78.9272849,80.6714892 96.6485356,79.8074638 Z" id="Path"></path>
                    <path d="M97.6485356,84 C82.7635964,84 70.6485356,96.3308388 70.6485356,111.5 C70.6485356,126.686311 82.7635964,139 97.6485356,139 C112.550313,139 124.648536,126.677736 124.648536,111.5 C124.648536,96.3394138 112.541894,84 97.6485356,84 Z M95.872109,125.022763 C95.2996113,125.597287 94.3735122,125.597287 93.8010145,125.022763 L80.8103691,111.68865 C80.2378714,111.1227 80.2378714,110.162301 80.8103691,109.587777 L83.9170108,106.423605 C84.4895084,105.84908 85.4156076,105.84908 85.9881053,106.423605 L94.8533999,115.521671 L112.070425,97.9943873 C112.626085,97.4112878 113.569022,97.4112878 114.14152,97.9943873 L117.231323,101.141409 C117.803821,101.724509 117.803821,102.684908 117.231323,103.268007 L95.872109,125.022763 Z" id="Shape"></path>
                </g>
                <g id="Group" transform="translate(240.777778, 150.000000)" stroke="#0045FF" stroke-linecap="round" stroke-linejoin="bevel" stroke-opacity="0.3" stroke-width="2">
                    <polyline id="Path-2" points="-1.26121336e-13 6 9.72222222 4.4408921e-16 19.2222222 6"></polyline>
                    <polyline id="Path-2-Copy" points="-1.26121336e-13 12 9.72222222 6 19.2222222 12"></polyline>
                    <polyline id="Path-2-Copy-2" points="-1.26121336e-13 18 9.72222222 12 19.2222222 18"></polyline>
                </g>
            </g>
        </g>
    </g>
</svg>