<?xml version="1.0" encoding="UTF-8"?>
<svg width="289px" height="234px" viewBox="0 0 289 234" version="1.1" xmlns="http://www.w3.org/2000/svg" xmlns:xlink="http://www.w3.org/1999/xlink">
    <!-- Generator: Sketch 53.1 (72631) - https://sketchapp.com -->
    <title>Group 3</title>
    <desc>Created with Sketch.</desc>
    <g id="Page-1" stroke="none" stroke-width="1" fill="none" fill-rule="evenodd">
        <g id="Artboard" transform="translate(-750.000000, -652.000000)">
            <g id="Group-3" transform="translate(745.000000, 645.000000)">
                <g id="Icon-24px-Copy-11" transform="translate(248.000000, 52.000000)">
                    <polygon id="Shape" points="0 0 35 0 35 35 0 35"></polygon>
                    <polygon id="Shape" fill-opacity="0.3" fill="#0045FF" points="13.125 23.58125 7.04375 17.5 4.97291667 19.55625 13.125 27.7083333 30.625 10.2083333 28.56875 8.15208333"></polygon>
                </g>
                <g id="Icon-24px-Copy-10" transform="translate(263.000000, 213.000000)">
                    <polygon id="Shape" points="0 0 35 0 35 35 0 35"></polygon>
                    <polygon id="Shape" fill-opacity="0.3" fill="#0045FF" points="13.125 23.58125 7.04375 17.5 4.97291667 19.55625 13.125 27.7083333 30.625 10.2083333 28.56875 8.15208333"></polygon>
                </g>
                <g id="Icon-24px-Copy-9" transform="translate(39.000000, 208.000000)">
                    <polygon id="Shape" points="0 0 29 0 29 29 0 29"></polygon>
                    <polygon id="Shape" fill-opacity="0.3" fill="#0045FF" points="10.6736782 19.6234154 5.69528141 14.6480239 4 16.3303505 10.6736782 23 25 8.68232662 23.3166572 7"></polygon>
                </g>
                <g id="Icon-24px-Copy-8" transform="translate(0.000000, 91.000000)">
                    <polygon id="Shape" points="0 0 35 0 35 35 0 35"></polygon>
                    <polygon id="Shape" fill-opacity="0.3" fill="#0045FF" points="13.125 23.58125 7.04375 17.5 4.97291667 19.55625 13.125 27.7083333 30.625 10.2083333 28.56875 8.15208333"></polygon>
                </g>
                <g id="Icon-24px-Copy-7" transform="translate(81.000000, 0.000000)">
                    <polygon id="Shape" points="0 0 29 0 29 29 0 29"></polygon>
                    <polygon id="Shape" fill-opacity="0.3" fill="#0045FF" points="10.6736782 19.6234154 5.69528141 14.6480239 4 16.3303505 10.6736782 23 25 8.68232662 23.3166572 7"></polygon>
                </g>
                <g id="Group-Copy-5" transform="translate(44.000000, 144.000000)" stroke="#0045FF" stroke-linecap="round" stroke-linejoin="bevel" stroke-opacity="0.3" stroke-width="2">
                    <polyline id="Path-2" points="-1.26121336e-13 6 9.72222222 4.4408921e-16 19.2222222 6"></polyline>
                </g>
                <g id="Group-Copy-6" transform="translate(179.000000, 29.000000)" stroke="#0045FF" stroke-linecap="round" stroke-linejoin="bevel" stroke-opacity="0.3" stroke-width="2">
                    <polyline id="Path-2" points="-1.26121336e-13 6 9.72222222 4.4408921e-16 19.2222222 6"></polyline>
                </g>
                <g id="Group-Copy" transform="translate(250.777778, 150.000000)" stroke="#0045FF" stroke-linecap="round" stroke-linejoin="bevel" stroke-opacity="0.3" stroke-width="2">
                    <polyline id="Path-2" points="-1.26121336e-13 6 9.72222222 4.4408921e-16 19.2222222 6"></polyline>
                </g>
                <g id="binoculars" transform="translate(81.000000, 98.000000)" fill="#1757FF" fill-rule="nonzero">
                    <path d="M116.493913,39 C108.48,39 102,45.1602787 102,52.7125436 C102,54.5191638 103.565217,56 105.474783,56 C107.384348,56 108.949565,54.5191638 108.949565,52.7125436 C108.949565,48.7735192 112.361739,45.5452962 116.525217,45.5452962 C118.434783,45.5452962 120,44.0644599 120,42.2578397 C119.968696,40.4512195 118.403478,39 116.493913,39 Z" id="XMLID_1737_" fill-opacity="0.6"></path>
                    <path d="M139.817305,28.9613612 C138.986707,28.1687345 138.094584,27.4065934 137.171697,26.674938 L137.171697,26.674938 L124.558915,16.0659341 C119.698379,12.651542 113.914957,10.4870613 107.639329,10.0602623 L108.316113,10.7309465 L100.656155,3.10953563 L100.594629,3.10953563 C98.4719899,1.18894009 95.6110417,0 92.5039905,0 C87.1512488,0 82.6291049,3.4448777 81.0909607,8.23112371 C79.5528166,7.25558313 77.7685693,6.6763559 75.8305077,6.55441333 C75.5228788,6.52392769 75.1844871,6.52392769 74.8768583,6.52392769 C72.6926936,6.52392769 70.6623433,7.1641262 68.9396218,8.23112371 C67.3707147,3.47536335 62.8485709,0.0304856434 57.526592,0.0304856434 C54.4195408,0.0304856434 51.5893555,1.18894009 49.4359537,3.14002127 L49.3744279,3.14002127 L41.7144699,10.7614321 L42.3912534,10.090748 C36.1156252,10.517547 30.3014402,12.7125133 25.4716675,16.0964197 L12.8588853,26.7054236 L12.8588853,26.7054236 C11.9359988,27.4065934 11.0438752,28.1687345 10.2132773,28.9918469 C3.9068862,35.0280043 0,43.4725275 0,52.83162 C0,71.123006 15.0122871,86 33.4700172,86 C50.5126546,86 64.6328181,73.2874867 66.6631684,56.9166962 C69.1241991,58.3190358 71.9851473,59.1116625 74.9999098,59.1116625 C78.0454353,59.1116625 80.8756206,58.3190358 83.3366512,56.9166962 C85.3977644,73.2570011 99.487165,85.9695144 116.529802,85.9695144 C134.987533,85.9695144 149.99982,71.0925204 149.99982,52.8011343 C150.030583,43.4420418 146.123696,34.9975186 139.817305,28.9613612 Z M33.4700172,75.4519674 C20.857235,75.4519674 10.6439577,65.3307338 10.6439577,52.83162 C10.6439577,40.3325062 20.857235,30.2112726 33.4700172,30.2112726 C46.0827994,30.2112726 56.2960767,40.3325062 56.2960767,52.83162 C56.3268396,65.3002481 46.0827994,75.4519674 33.4700172,75.4519674 Z M75.0306727,49.7220844 C70.9392092,49.7220844 67.6168178,46.4296349 67.6168178,42.3750443 C67.6168178,38.3204537 70.9392092,35.0280043 75.0306727,35.0280043 C79.1221362,35.0280043 82.4445276,38.3204537 82.4445276,42.3750443 C82.4445276,46.4296349 79.1221362,49.7220844 75.0306727,49.7220844 Z M116.591328,75.4519674 C103.978546,75.4519674 93.7652687,65.3307338 93.7652687,52.83162 C93.7652687,40.3325062 103.978546,30.2112726 116.591328,30.2112726 C129.20411,30.2112726 139.417388,40.3325062 139.417388,52.83162 C139.417388,65.3002481 129.20411,75.4519674 116.591328,75.4519674 Z" id="XMLID_1738_"></path>
                    <path d="M33.493913,39 C25.48,39 19,45.1602787 19,52.7125436 C19,54.5191638 20.5652174,56 22.4747826,56 C24.3843478,56 25.9495652,54.5191638 25.9495652,52.7125436 C25.9495652,48.7735192 29.3617391,45.5452962 33.5252174,45.5452962 C35.4347826,45.5452962 37,44.0644599 37,42.2578397 C36.9686957,40.4512195 35.4034783,39 33.493913,39 Z" id="XMLID_1745_" fill-opacity="0.6"></path>
                </g>
            </g>
        </g>
    </g>
</svg>