<?xml version="1.0" encoding="UTF-8"?>
<svg width="289px" height="234px" viewBox="0 0 289 234" version="1.1" xmlns="http://www.w3.org/2000/svg" xmlns:xlink="http://www.w3.org/1999/xlink">
    <!-- Generator: Sketch 53.1 (72631) - https://sketchapp.com -->
    <title>Group 5</title>
    <desc>Created with Sketch.</desc>
    <g id="Page-1" stroke="none" stroke-width="1" fill="none" fill-rule="evenodd">
        <g id="Artboard" transform="translate(-1310.000000, -550.000000)">
            <g id="Group-5" transform="translate(1305.000000, 543.000000)">
                <g id="Icon-24px-Copy-11" transform="translate(248.000000, 52.000000)">
                    <polygon id="Shape" points="0 0 35 0 35 35 0 35"></polygon>
                    <polygon id="Shape" fill-opacity="0.3" fill="#0045FF" points="13.125 23.58125 7.04375 17.5 4.97291667 19.55625 13.125 27.7083333 30.625 10.2083333 28.56875 8.15208333"></polygon>
                </g>
                <g id="Icon-24px-Copy-10" transform="translate(263.000000, 213.000000)">
                    <polygon id="Shape" points="0 0 35 0 35 35 0 35"></polygon>
                    <polygon id="Shape" fill-opacity="0.3" fill="#0045FF" points="13.125 23.58125 7.04375 17.5 4.97291667 19.55625 13.125 27.7083333 30.625 10.2083333 28.56875 8.15208333"></polygon>
                </g>
                <g id="Icon-24px-Copy-9" transform="translate(39.000000, 208.000000)">
                    <polygon id="Shape" points="0 0 29 0 29 29 0 29"></polygon>
                    <polygon id="Shape" fill-opacity="0.3" fill="#0045FF" points="10.6736782 19.6234154 5.69528141 14.6480239 4 16.3303505 10.6736782 23 25 8.68232662 23.3166572 7"></polygon>
                </g>
                <g id="Icon-24px-Copy-8" transform="translate(0.000000, 91.000000)">
                    <polygon id="Shape" points="0 0 35 0 35 35 0 35"></polygon>
                    <polygon id="Shape" fill-opacity="0.3" fill="#0045FF" points="13.125 23.58125 7.04375 17.5 4.97291667 19.55625 13.125 27.7083333 30.625 10.2083333 28.56875 8.15208333"></polygon>
                </g>
                <g id="Icon-24px-Copy-7" transform="translate(81.000000, 0.000000)">
                    <polygon id="Shape" points="0 0 29 0 29 29 0 29"></polygon>
                    <polygon id="Shape" fill-opacity="0.3" fill="#0045FF" points="10.6736782 19.6234154 5.69528141 14.6480239 4 16.3303505 10.6736782 23 25 8.68232662 23.3166572 7"></polygon>
                </g>
                <g id="Group-4" transform="translate(44.000000, 144.000000)" stroke="#0045FF" stroke-linecap="round" stroke-linejoin="bevel" stroke-opacity="0.3" stroke-width="2">
                    <g id="Group-Copy-5">
                        <polyline id="Path-2" points="-1.26121336e-13 6 9.72222222 4.4408921e-16 19.2222222 6"></polyline>
                    </g>
                    <g id="Group-Copy-7" transform="translate(0.000000, 7.000000)">
                        <polyline id="Path-2" points="-1.26121336e-13 6 9.72222222 4.4408921e-16 19.2222222 6"></polyline>
                    </g>
                </g>
                <g id="Group-4-Copy" transform="translate(179.000000, 32.000000)" stroke="#0045FF" stroke-linecap="round" stroke-linejoin="bevel" stroke-opacity="0.3" stroke-width="2">
                    <g id="Group-Copy-5">
                        <polyline id="Path-2" points="-1.26121336e-13 6 9.72222222 4.4408921e-16 19.2222222 6"></polyline>
                    </g>
                    <g id="Group-Copy-7" transform="translate(0.000000, 7.000000)">
                        <polyline id="Path-2" points="-1.26121336e-13 6 9.72222222 4.4408921e-16 19.2222222 6"></polyline>
                    </g>
                </g>
                <g id="Group-4-Copy-2" transform="translate(248.000000, 150.000000)" stroke="#0045FF" stroke-linecap="round" stroke-linejoin="bevel" stroke-opacity="0.3" stroke-width="2">
                    <g id="Group-Copy-5">
                        <polyline id="Path-2" points="-1.26121336e-13 6 9.72222222 4.4408921e-16 19.2222222 6"></polyline>
                    </g>
                    <g id="Group-Copy-7" transform="translate(0.000000, 7.000000)">
                        <polyline id="Path-2" points="-1.26121336e-13 6 9.72222222 4.4408921e-16 19.2222222 6"></polyline>
                    </g>
                </g>
                <g id="operation_tools" transform="translate(91.000000, 78.000000)" fill="#1757FF" fill-rule="nonzero">
                    <path d="M114.798837,45.6883707 C116.613462,45.8581223 118.00054,47.3817997 118,49.204785 L118,68.7773471 C118.000313,70.5897615 116.629921,72.1086715 114.827419,72.2937614 L102.91595,73.5123561 C101.54003,73.6642521 100.359257,74.5610333 99.8434055,75.8459116 L99.8076782,75.9281042 C99.2606506,77.2040764 99.459726,78.6775916 100.325724,79.7625681 L107.885612,89.0539067 C109.030809,90.459044 108.9274,92.5030186 107.646239,93.7853422 L93.7947801,107.640157 C92.5137107,108.922705 90.4701829,109.027685 89.0644906,107.883162 L79.7754026,100.317868 C78.6921223,99.4515395 77.2198889,99.2523552 75.9454402,99.7996972 L75.8596947,99.8354331 C74.5751276,100.35141 73.6785637,101.532469 73.5267045,102.908722 L72.3119776,114.823077 C72.1286399,116.627431 70.6096252,118.000126 68.7964151,118 L49.2107303,118 C47.3975201,118.000126 45.8785054,116.627431 45.6951677,114.823077 L44.4804408,102.908722 C44.3285816,101.532469 43.4320177,100.35141 42.1474506,99.8354331 L42.0617052,99.7996972 C40.7865017,99.2541609 39.3146446,99.4546676 38.2317427,100.321442 L28.9426547,107.886735 C27.5375673,109.029087 25.4965289,108.924156 24.215938,107.643731 L10.3644787,93.7889158 C9.0958966,92.5142222 8.98670718,90.4898828 10.1108151,89.086069 L17.6707037,79.7947305 C18.5372676,78.7115663 18.7377258,77.2393525 18.1923217,75.9638401 L18.1565944,75.8816475 C17.6407427,74.5967692 16.4599694,73.6999881 15.0840499,73.5480921 L3.17258089,72.3294973 C1.37007887,72.1444074 -0.000312773319,70.6254974 5.3547209e-08,68.813083 L5.3547209e-08,49.2226529 C-0.000312773319,47.4102385 1.37007887,45.8913285 3.17258089,45.7062386 L15.0840499,44.4876439 C16.4599694,44.3357479 17.6407427,43.4389667 18.1565944,42.1540884 L18.1958944,42.061175 C18.7392291,40.7877614 18.5388256,39.3186951 17.6742764,38.2374319 L10.1143878,28.9460933 C8.96768816,27.537061 9.07583528,25.4879492 10.3644787,24.2075106 L24.2052198,10.3634161 C25.4853482,9.07446052 27.5339637,8.9662872 28.9426547,10.1132647 L38.2317427,17.6749849 C39.3099933,18.5360597 40.7729761,18.7376628 42.0438416,18.2003028 L42.1224415,18.1681405 C43.4103396,17.6530023 44.3099015,16.4702383 44.4625772,15.091278 L45.6808768,3.17692308 C45.8642145,1.37256855 47.3832292,-0.000125799622 49.1964394,0 L68.7821242,0 C70.5939669,0.00170681573 72.1109153,1.37392844 72.294114,3.17692308 L73.5016955,15.0948516 C73.6535547,16.4711044 74.5501185,17.6521638 75.8346856,18.1681405 L75.9168583,18.2038764 C77.1924108,18.7518482 78.6660018,18.5526661 79.7503935,17.6857056 L89.0394815,10.1239855 C90.4442785,8.97851138 92.487758,9.08194514 93.769771,10.3634161 L107.62123,24.2146578 C108.903467,25.4960375 109.008422,27.5400604 107.864176,28.9460933 L98.8609058,39.9920654 C99.521571,41.3767647 100.10949,42.7950295 100.62226,44.241066 L114.798837,45.6883707 Z M110.908138,65.6039976 L110.911711,52.3852816 L97.6175971,51.0273168 C96.1946381,50.8836162 94.9986142,49.8960931 94.5879253,48.5258025 C93.8455261,45.9986049 92.834633,43.5582162 91.5725444,41.2463961 C90.8808782,39.985429 91.0221572,38.4309838 91.929817,37.3154452 L100.368596,26.9520291 L91.02949,17.6106602 L84.2198739,23.1568746 C81.1222039,25.6673532 76.8951351,26.2701894 73.2194501,24.7256814 L73.1444228,24.6935191 C69.4592121,23.1832847 66.902992,19.7682151 66.4920067,15.8059964 L65.5988252,7.06856451 L52.3797384,7.06856451 L51.4865568,15.8059964 C51.0728439,19.7704148 48.5123088,23.1857465 44.8234225,24.6935191 L44.751968,24.7256814 C41.0761787,26.2693787 36.8495409,25.6666039 33.7515441,23.1568746 L26.9455008,17.6070866 L17.6063946,26.9484555 L23.1548383,33.7597214 C25.6573567,36.85459 26.2584316,41.0741143 24.7196924,44.7449425 L24.6875379,44.8199879 C23.1813736,48.5092199 19.768165,51.0704332 15.8057406,51.4847365 L7.07042513,52.3781345 L7.07042513,65.600424 L15.8057406,66.4938219 C19.7700318,66.9082903 23.1847399,69.4709719 24.6911106,73.1621442 L24.7232651,73.2407632 C26.26677,76.9162347 25.6640776,81.1429701 23.1548383,84.2402786 L17.6063946,91.0479709 L26.9455008,100.38934 L33.7443987,94.8538462 C36.8420688,92.3433676 41.0691376,91.7405313 44.7448225,93.2850394 L44.8234225,93.3207753 C48.5094772,94.8287304 51.0672804,98.2427075 51.4794114,102.204724 L52.3725929,110.942156 L65.5916797,110.942156 L66.4848613,102.204724 C66.8940535,98.2360093 69.4554623,94.815391 73.1479956,93.3064809 L73.2265955,93.2743186 C76.9012811,91.7312505 81.1265616,92.3340275 84.2234467,94.8431254 L91.02949,100.396487 L100.368596,91.0551181 L94.8237252,84.2438522 C92.3124738,81.1446467 91.7097243,76.9147645 93.2552984,73.2371896 L93.287453,73.1621442 C94.7948604,69.4723642 98.2093648,66.9112087 102.172823,66.4973955 L110.908138,65.6039976 Z" id="Combined-Shape"></path>
                    <path d="M110.996422,65.6066674 L102.247755,66.5011525 C98.278239,66.9154693 94.8585158,69.4797415 93.3488044,73.1740118 L93.3166007,73.2491485 C91.7686643,76.9311989 92.372335,81.1662286 94.8874247,84.2692056 L100.440771,91.0887604 L91.0873903,100.441497 L84.2709444,94.8813775 C81.169326,92.3692262 76.9375875,91.7657157 73.2572854,93.3106616 L73.1785653,93.342863 C69.4803882,94.8536093 66.9150645,98.2783904 66.5052469,102.251935 L65.6107002,111 L52.3714089,111 L51.4768622,102.251935 C51.0641013,98.2850967 48.5023887,94.8669651 44.8107002,93.3571748 L44.73198,93.3213954 C41.050677,91.7750078 36.8171475,92.3785776 33.7147428,94.8921113 L26.9054533,100.434341 L17.5520729,91.0816046 L23.1089971,84.2656277 C25.6220715,81.1645499 26.2256851,76.9326709 24.6798211,73.2527265 L24.6476174,73.1740118 C23.1389444,69.4783476 19.7190171,66.9125473 15.7486668,66.4975746 L7,65.6030894 L7,52.3647091 L15.7486668,51.470224 C19.7171474,51.0554165 23.1355729,48.4910863 24.6440392,44.7973647 L24.6762429,44.722228 C26.2173339,41.0469326 25.6153404,36.8222734 23.1089971,33.7236385 L17.5520729,26.9040837 L26.9054533,17.5513469 L33.7218992,23.1078887 C36.824631,25.6206721 41.0577289,26.2241805 44.7391364,24.6786046 L44.8107002,24.6464031 C48.5052246,23.1367956 51.0696733,19.7173077 51.4840186,15.7480648 L52.3785653,7 L65.6178565,7 L66.5124032,15.7480648 C66.9240166,19.7151053 69.4841437,23.1343309 73.1749871,24.6464031 L73.250129,24.6786046 C76.931432,26.2249922 81.1649616,25.6214224 84.2673662,23.1078887 L91.0873903,17.5549248 L100.440771,26.9076616 L91.9890934,37.2836894 C91.0800463,38.4005856 90.9385514,39.9569225 91.6312747,41.2194241 C92.8952924,43.5340576 93.9077305,45.977416 94.6512644,48.5076891 C95.062581,49.8796473 96.260433,50.8683721 97.6855668,51.0122476 L111,52.371865 L110.996422,65.6066674 Z" id="Path_1888-path-Copy" fill-opacity="0.3"></path>
                    <path d="M66.9666789,50.0618999 L56.7305055,60.3828857 L52.0548995,55.6685397 C51.1588818,54.7650977 49.8529073,54.4122634 48.6289242,54.742946 C47.404941,55.0736286 46.4489013,56.0375896 46.1209361,57.2717141 C45.7929708,58.5058387 46.1429058,59.8226339 47.0389238,60.7260756 L54.2046034,67.9511269 C54.8693198,68.6226396 55.7716361,69 56.7125913,69 C57.6535464,69 58.5558628,68.6226396 59.2205792,67.9511269 L71.9611576,55.1049857 C73.3462809,53.7083857 73.3462808,51.4440499 71.9611574,50.04745 C70.576034,48.6508501 68.3303053,48.65085 66.9451818,50.0474498 L66.9666789,50.0618999 Z" id="Path_1889"></path>
                    <path d="M59.5,30 C43.7598846,30 31,42.7598846 31,58.5 C31,74.2401154 43.7598846,87 59.5,87 C75.2401154,87 88,74.2401154 88,58.5 C87.9801239,42.7681249 75.2318751,30.0198761 59.5,30 L59.5,30 Z M59.5,79.8713924 C47.6988983,79.8713924 38.1322152,70.3047093 38.1322152,58.5036076 C38.1322152,46.7025059 47.6988983,37.1358228 59.5,37.1358228 C71.3011017,37.1358228 80.8677848,46.7025059 80.8677848,58.5036076 C80.8459234,70.2933047 71.2897092,79.8430653 59.5,79.856962 L59.5,79.8713924 Z" id="Path_1890"></path>
                </g>
            </g>
        </g>
    </g>
</svg>