<?xml version="1.0" encoding="UTF-8"?>
<svg width="289px" height="234px" viewBox="0 0 289 234" version="1.1" xmlns="http://www.w3.org/2000/svg" xmlns:xlink="http://www.w3.org/1999/xlink">
    <!-- Generator: Sketch 53.1 (72631) - https://sketchapp.com -->
    <title>Group 6</title>
    <desc>Created with Sketch.</desc>
    <g id="Page-1" stroke="none" stroke-width="1" fill="none" fill-rule="evenodd">
        <g id="Artboard" transform="translate(-137.000000, -566.000000)">
            <g id="Group-6" transform="translate(132.000000, 559.000000)">
                <path d="M181.458333,105.666667 L162.625,124.5 L176.75,124.5 C176.75,140.084583 164.084583,152.75 148.5,152.75 C143.744583,152.75 139.224583,151.572917 135.316667,149.454167 L128.4425,156.328333 C134.23375,160.000833 141.107917,162.166667 148.5,162.166667 C169.310833,162.166667 186.166667,145.310833 186.166667,124.5 L200.291667,124.5 L181.458333,105.666667 L181.458333,105.666667 Z M120.25,124.5 C120.25,108.915417 132.915417,96.25 148.5,96.25 C153.255417,96.25 157.775417,97.4270833 161.683333,99.5458333 L168.5575,92.6716667 C162.76625,88.9991667 155.892083,86.8333333 148.5,86.8333333 C127.689167,86.8333333 110.833333,103.689167 110.833333,124.5 L96.7083333,124.5 L115.541667,143.333333 L134.375,124.5 L120.25,124.5 L120.25,124.5 Z" id="Shape" fill="#0045FF" fill-rule="nonzero"></path>
                <path d="M70.9711664,145 L64.9423329,150.666667 L69.463958,150.666667 C69.463958,155.355833 65.4095674,159.166667 60.4207077,159.166667 C58.8984272,159.166667 57.4515072,158.8125 56.2005243,158.175 L54,160.243333 C55.8538663,161.348333 58.0543906,162 60.4207077,162 C67.0825688,162 72.4783748,156.928333 72.4783748,150.666667 L77,150.666667 L70.9711664,145 L70.9711664,145 Z M52.5360419,149.333333 C52.5360419,144.644167 56.5904325,140.833333 61.5792923,140.833333 C63.1015728,140.833333 64.5484928,141.1875 65.7994757,141.825 L68,139.756667 C66.1461337,138.651667 63.9456094,138 61.5792923,138 C54.9174312,138 49.5216252,143.071667 49.5216252,149.333333 L45,149.333333 L51.0288336,155 L57.0576671,149.333333 L52.5360419,149.333333 L52.5360419,149.333333 Z" id="Shape-Copy" fill="#0045FF" fill-rule="nonzero" opacity="0.300155"></path>
                <path d="M196.971166,31 L190.942333,36.6666666 L195.463958,36.6666666 C195.463958,41.3558333 191.409567,45.1666666 186.420708,45.1666666 C184.898427,45.1666666 183.451507,44.8125 182.200524,44.175 L180,46.2433333 C181.853866,47.3483333 184.054391,48 186.420708,48 C193.082569,48 198.478375,42.9283333 198.478375,36.6666666 L203,36.6666666 L196.971166,31 L196.971166,31 Z M178.536042,35.3333334 C178.536042,30.6441667 182.590433,26.8333333 187.579292,26.8333333 C189.101573,26.8333333 190.548493,27.1875 191.799476,27.825 L194,25.7566667 C192.146134,24.6516667 189.945609,24 187.579292,24 C180.917431,24 175.521625,29.0716667 175.521625,35.3333334 L171,35.3333334 L177.028834,41 L183.057667,35.3333334 L178.536042,35.3333334 L178.536042,35.3333334 Z" id="Shape-Copy-2" fill="#0045FF" fill-rule="nonzero" opacity="0.300155"></path>
                <path d="M259.971166,157 L253.942333,162.666667 L258.463958,162.666667 C258.463958,167.355833 254.409567,171.166667 249.420708,171.166667 C247.898427,171.166667 246.451507,170.8125 245.200524,170.175 L243,172.243333 C244.853866,173.348333 247.054391,174 249.420708,174 C256.082569,174 261.478375,168.928333 261.478375,162.666667 L266,162.666667 L259.971166,157 L259.971166,157 Z M241.536042,161.333333 C241.536042,156.644167 245.590433,152.833333 250.579292,152.833333 C252.101573,152.833333 253.548493,153.1875 254.799476,153.825 L257,151.756667 C255.146134,150.651667 252.945609,150 250.579292,150 C243.917431,150 238.521625,155.071667 238.521625,161.333333 L234,161.333333 L240.028834,167 L246.057667,161.333333 L241.536042,161.333333 L241.536042,161.333333 Z" id="Shape-Copy-3" fill="#0045FF" fill-rule="nonzero" opacity="0.300155"></path>
                <g id="Icon-24px" transform="translate(248.000000, 52.000000)">
                    <polygon id="Shape" points="0 0 35 0 35 35 0 35"></polygon>
                    <polygon id="Shape" fill-opacity="0.3" fill="#0045FF" points="13.125 23.58125 7.04375 17.5 4.97291667 19.55625 13.125 27.7083333 30.625 10.2083333 28.56875 8.15208333"></polygon>
                </g>
                <g id="Icon-24px-Copy" transform="translate(263.000000, 213.000000)">
                    <polygon id="Shape" points="0 0 35 0 35 35 0 35"></polygon>
                    <polygon id="Shape" fill-opacity="0.3" fill="#0045FF" points="13.125 23.58125 7.04375 17.5 4.97291667 19.55625 13.125 27.7083333 30.625 10.2083333 28.56875 8.15208333"></polygon>
                </g>
                <g id="Icon-24px-Copy-2" transform="translate(39.000000, 208.000000)">
                    <polygon id="Shape" points="0 0 29 0 29 29 0 29"></polygon>
                    <polygon id="Shape" fill-opacity="0.3" fill="#0045FF" points="10.6736782 19.6234154 5.69528141 14.6480239 4 16.3303505 10.6736782 23 25 8.68232662 23.3166572 7"></polygon>
                </g>
                <g id="Icon-24px-Copy-3" transform="translate(0.000000, 91.000000)">
                    <polygon id="Shape" points="0 0 35 0 35 35 0 35"></polygon>
                    <polygon id="Shape" fill-opacity="0.3" fill="#0045FF" points="13.125 23.58125 7.04375 17.5 4.97291667 19.55625 13.125 27.7083333 30.625 10.2083333 28.56875 8.15208333"></polygon>
                </g>
                <g id="Icon-24px-Copy-4" transform="translate(81.000000, 0.000000)">
                    <polygon id="Shape" points="0 0 29 0 29 29 0 29"></polygon>
                    <polygon id="Shape" fill-opacity="0.3" fill="#0045FF" points="10.6736782 19.6234154 5.69528141 14.6480239 4 16.3303505 10.6736782 23 25 8.68232662 23.3166572 7"></polygon>
                </g>
            </g>
        </g>
    </g>
</svg>