<?xml version="1.0" encoding="UTF-8"?>
<svg width="289px" height="234px" viewBox="0 0 289 234" version="1.1" xmlns="http://www.w3.org/2000/svg" xmlns:xlink="http://www.w3.org/1999/xlink">
    <!-- Generator: Sketch 62 (91390) - https://sketch.com -->
    <title>Group 8</title>
    <desc>Created with Sketch.</desc>
    <g id="Page-1" stroke="none" stroke-width="1" fill="none" fill-rule="evenodd">
        <g id="Artboard" transform="translate(-1902.000000, -193.000000)">
            <g id="Group-8" transform="translate(1897.000000, 186.000000)">
                <g id="Icon-24px-Copy-11" transform="translate(248.000000, 52.000000)">
                    <polygon id="Shape" points="0 0 35 0 35 35 0 35"></polygon>
                    <polygon id="Shape" fill-opacity="0.3" fill="#0045FF" points="13.125 23.58125 7.04375 17.5 4.97291667 19.55625 13.125 27.7083333 30.625 10.2083333 28.56875 8.15208333"></polygon>
                </g>
                <g id="Icon-24px-Copy-10" transform="translate(263.000000, 213.000000)">
                    <polygon id="Shape" points="0 0 35 0 35 35 0 35"></polygon>
                    <polygon id="Shape" fill-opacity="0.3" fill="#0045FF" points="13.125 23.58125 7.04375 17.5 4.97291667 19.55625 13.125 27.7083333 30.625 10.2083333 28.56875 8.15208333"></polygon>
                </g>
                <g id="Icon-24px-Copy-9" transform="translate(39.000000, 208.000000)">
                    <polygon id="Shape" points="0 0 29 0 29 29 0 29"></polygon>
                    <polygon id="Shape" fill-opacity="0.3" fill="#0045FF" points="10.6736782 19.6234154 5.69528141 14.6480239 4 16.3303505 10.6736782 23 25 8.68232662 23.3166572 7"></polygon>
                </g>
                <g id="Icon-24px-Copy-8" transform="translate(0.000000, 91.000000)">
                    <polygon id="Shape" points="0 0 35 0 35 35 0 35"></polygon>
                    <polygon id="Shape" fill-opacity="0.3" fill="#0045FF" points="13.125 23.58125 7.04375 17.5 4.97291667 19.55625 13.125 27.7083333 30.625 10.2083333 28.56875 8.15208333"></polygon>
                </g>
                <g id="Icon-24px-Copy-7" transform="translate(81.000000, 0.000000)">
                    <polygon id="Shape" points="0 0 29 0 29 29 0 29"></polygon>
                    <polygon id="Shape" fill-opacity="0.3" fill="#0045FF" points="10.6736782 19.6234154 5.69528141 14.6480239 4 16.3303505 10.6736782 23 25 8.68232662 23.3166572 7"></polygon>
                </g>
                <path d="M105.782288,159.000151 C109.678391,172.788469 127.665929,183.299779 149.495147,183.763291 C154.155646,188.842176 160.634893,192.226231 167.901026,192.883088 C162.669666,194.249286 156.967536,195 151,195 C125.594902,195 105,181.394139 105,164.610458 C105,162.693733 105.268599,160.818454 105.782288,159.000151 Z M105.782288,140.000151 C109.222227,152.174104 123.647062,161.793486 142.002158,164.19814 L142,164.5 L142,164.5 C142,168.467435 142.810682,172.245525 144.275433,175.677657 C122.057702,173.527476 105,160.884979 105,145.610458 C105,143.693733 105.268599,141.818454 105.782288,140.000151 Z M105.782288,122.000151 C109.602335,135.519307 126.96903,145.888148 148.221232,146.72471 C145.72144,149.853447 143.866956,153.520931 142.859703,157.525006 C121.337939,154.987069 105,142.559246 105,127.610458 C105,125.693733 105.268599,123.818454 105.782288,122.000151 Z M196.216552,140 C196.731302,141.817764 197,143.693381 197,145.610458 C197,147.741455 196.66799,149.821223 196.036279,151.828417 C195.165447,150.079354 194.12139,148.432283 192.925675,146.909979 C194.362565,144.81531 195.449285,142.593102 196.137576,140.276527 L196.216552,140 Z M196.216552,122 C196.731302,123.817764 197,125.693381 197,127.610458 C197,133.529248 194.438754,139.052835 190.00853,143.723878 C187.779595,141.629604 185.213861,139.890626 182.401238,138.596259 C189.320352,134.325363 194.241209,128.659114 196.137576,122.276527 L196.216552,122 Z M151,78 C176.405098,78 197,91.4314575 197,108 C197,121.09206 184.141004,132.225393 166.210681,136.321087 C165.233169,136.468208 164.272262,136.665333 163.330269,136.909427 C159.406236,137.62037 155.271096,138 151,138 C125.594902,138 105,124.568542 105,108 C105,91.4314575 125.594902,78 151,78 Z" id="Combined-Shape" stroke="#1757FF" stroke-width="2" fill-opacity="0.6" fill="#1757FF"></path>
                <g id="Icon-24px-Copy-12" transform="translate(244.000000, 144.000000)">
                    <polygon id="Shape" points="0 1 26 1 26 25 0 25"></polygon>
                    <polygon id="Shape" fill-opacity="0.5" fill="#0045FF" transform="translate(12.875000, 12.930208) rotate(-315.000000) translate(-12.875000, -12.930208) " points="4.125 19.58125 6.125 21.7083333 21.625 6.20833333 19.56875 4.15208333"></polygon>
                    <polygon id="Shape-Copy-4" fill-opacity="0.5" fill="#0045FF" transform="translate(12.875000, 12.930208) rotate(-225.000000) translate(-12.875000, -12.930208) " points="4.125 19.58125 6.125 21.7083333 21.625 6.20833333 19.56875 4.15208333"></polygon>
                </g>
                <g id="Icon-24px-Copy-13" transform="translate(41.000000, 137.000000)">
                    <polygon id="Shape" points="0 1 26 1 26 25 0 25"></polygon>
                    <polygon id="Shape" fill-opacity="0.5" fill="#0045FF" transform="translate(12.875000, 12.930208) rotate(-315.000000) translate(-12.875000, -12.930208) " points="4.125 19.58125 6.125 21.7083333 21.625 6.20833333 19.56875 4.15208333"></polygon>
                    <polygon id="Shape-Copy-4" fill-opacity="0.5" fill="#0045FF" transform="translate(12.875000, 12.930208) rotate(-225.000000) translate(-12.875000, -12.930208) " points="4.125 19.58125 6.125 21.7083333 21.625 6.20833333 19.56875 4.15208333"></polygon>
                </g>
                <g id="Icon-24px-Copy-12" transform="translate(176.000000, 25.000000)">
                    <polygon id="Shape" points="0 1 26 1 26 25 0 25"></polygon>
                    <polygon id="Shape" fill-opacity="0.5" fill="#0045FF" transform="translate(12.875000, 12.930208) rotate(-315.000000) translate(-12.875000, -12.930208) " points="4.125 19.58125 6.125 21.7083333 21.625 6.20833333 19.56875 4.15208333"></polygon>
                    <polygon id="Shape-Copy-4" fill-opacity="0.5" fill="#0045FF" transform="translate(12.875000, 12.930208) rotate(-225.000000) translate(-12.875000, -12.930208) " points="4.125 19.58125 6.125 21.7083333 21.625 6.20833333 19.56875 4.15208333"></polygon>
                </g>
                <polygon id="Shape" points="158 152 184 152 184 176 158 176"></polygon>
                <g id="Group-7" transform="translate(154.000000, 147.000000)" fill="#0045FF" fill-opacity="0.7">
                    <path d="M6.79722881,24.7433679 C6.01706396,25.5227961 5.99554167,26.804393 6.75443101,27.6115034 L6.70710745,27.5611729 C7.46363573,28.3657722 8.71277546,28.3821765 9.4946816,27.6002703 L27.5245492,9.57040275 C28.3075556,8.78739634 28.3141991,7.52453564 27.5258581,6.73619461 L27.5907285,6.80106501 C26.8084449,6.01878148 25.540734,6.01756199 24.7616654,6.7958949 L6.79722881,24.7433679 Z" id="Shape" transform="translate(17.163462, 17.201322) rotate(-315.000000) translate(-17.163462, -17.201322) "></path>
                    <path d="M6.79722881,24.7433679 C6.01706396,25.5227961 5.99554167,26.804393 6.75443101,27.6115034 L6.70710745,27.5611729 C7.46363573,28.3657722 8.71277546,28.3821765 9.4946816,27.6002703 L27.5245492,9.57040275 C28.3075556,8.78739634 28.3141991,7.52453564 27.5258581,6.73619461 L27.5907285,6.80106501 C26.8084449,6.01878148 25.540734,6.01756199 24.7616654,6.7958949 L6.79722881,24.7433679 Z" id="Shape-Copy-4" transform="translate(17.163462, 17.201322) rotate(-225.000000) translate(-17.163462, -17.201322) "></path>
                </g>
            </g>
        </g>
    </g>
</svg>